<svg width="111" height="113" viewBox="0 0 111 113" fill="none" xmlns="http://www.w3.org/2000/svg">
<path d="M89.855 90.9646C81.109 90.4241 71.9767 88.0328 65.6099 81.6561C63.0499 79.0902 61.0252 75.8566 59.9089 72.3784C66.0469 70.1098 71.5554 66.0384 75.6442 60.9992C78.1141 57.9528 81.8087 52.1619 77.8629 48.7311C74.3054 45.6393 67.9043 47.7571 64.4216 49.8894C57.4341 54.1681 54.4509 62.1079 55.4687 69.7884C47.7721 71.7054 39.5754 69.9289 33.4041 64.9143C28.4281 60.8664 25.3493 55.0104 25.4402 48.7304C30.9939 47.8195 36.4899 45.5089 41.351 42.7543C45.4977 40.4137 48.9121 36.3042 47.5581 31.2791C46.1304 25.9898 40.5099 25.8801 36.177 27.4245C32.0149 28.9045 28.4167 31.8869 25.9469 35.5238C23.919 38.5023 22.6079 41.7987 22.0381 45.1861C16.1019 45.4622 10.094 43.7262 7.38939 37.9508C3.87292 30.4381 7.2919 20.9548 12.8269 15.3809C14.232 13.9646 15.85 12.7868 17.5685 11.7879C19.6658 10.5621 17.4342 7.5027 15.3369 8.72854C6.8798 13.6623 1.44984 23.5834 2.33957 33.4024C2.81318 38.7165 5.45205 43.3648 10.0197 46.1664C13.5186 48.3193 17.6333 49.1941 21.7093 49.0926C21.7044 53.4036 22.8922 57.7131 25.3438 61.5535C30.4424 69.5335 39.8628 74.3287 49.2518 74.3323C51.637 74.3294 53.9918 74.0225 56.2857 73.4619C56.4975 74.1611 56.7444 74.8567 57.0252 75.5372C61.2531 85.553 70.9229 91.4215 81.2173 93.6255C83.8483 94.1884 86.5259 94.5105 89.2117 94.6783C91.6262 94.8496 92.2789 91.1114 89.855 90.9646ZM40.1052 30.3256C41.9467 30.082 43.5556 30.582 43.977 32.5474C44.3457 34.2228 43.703 35.8225 42.6124 37.0773C41.2144 38.6819 39.2257 39.696 37.3447 40.605C35.024 41.7233 32.6495 42.7762 30.206 43.6116C28.8708 44.0761 27.4211 44.4576 25.914 44.7385C27.5049 37.9893 32.9017 31.272 40.1052 30.3256ZM60.7419 59.2453C62.4868 55.9173 65.4443 53.1408 68.9868 51.841C70.6727 51.2232 72.7784 50.7878 74.558 51.2235C76.5084 51.713 75.6005 54.0832 74.9717 55.3508C73.2023 58.9057 69.8322 62.0424 66.7015 64.3874C64.3728 66.1325 61.8125 67.57 59.0966 68.6335C58.7311 65.458 59.1875 62.2354 60.7419 59.2453Z" fill="#B69D74" fill-opacity="0.2"/>
<path d="M108.378 88.5408C101.38 86.0063 94.3829 83.4719 87.3728 80.9269C85.0809 80.0938 83.6377 83.6042 85.9284 84.4256L103.465 90.781C97.8593 94.4724 92.2537 98.1638 86.6481 101.855C85.7946 102.413 85.7412 103.765 86.3365 104.52C87.0137 105.385 88.1373 105.402 89.0012 104.832C95.6158 100.484 102.217 96.1259 108.832 91.7783C110.006 90.9993 109.639 88.993 108.378 88.5408Z" fill="#B69D74" fill-opacity="0.2"/>
</svg>
