<svg width="282" height="515" viewBox="0 0 282 515" fill="none" xmlns="http://www.w3.org/2000/svg">
<path d="M271.227 4.94559V-2H10.3602V4.94559H0V48.9472H10.3602V55.8928H20.0219V448.105H10.3602V466.73H0V515H281.587V466.808H271.227V448.105H261.565V55.8928H271.227V48.9472H281.587V4.94559H271.227ZM16.8013 49.4517V42.5061H6.44116V11.4643H16.8013V4.44116H264.786V11.3867H20.3323L270.141 16.5862V42.5061H18.625L264.786 47.7832V49.4517H16.8013ZM6.44116 473.249H16.8013V454.624H259.975V473.249H20.7592L270.141 481.397V504.368H6.28595L6.44116 473.249ZM250.041 71.9181V448.299H26.4631V65.2053C118.773 65.3217 221.172 70.4048 250.041 71.9181Z" fill="#103449"/>
<path d="M224.626 423.155H231.067V99.5449H50.4427V423.155H224.626ZM61.6566 111.03H71.2795C70.9303 116.113 69.1454 143.547 69.805 170.98C70.2319 201.323 73.6852 231.433 73.6852 231.433C73.6852 231.433 72.5212 201.168 74.3449 171.057C76.1686 140.947 80.3592 111.147 80.3592 111.147H80.0488C92.6207 111.147 105.193 111.496 117.454 111.806C117.454 113.63 117.221 115.997 117.105 118.83C116.794 126.28 116.406 136.911 116.406 149.639C116.636 180.832 119.231 211.963 124.167 242.764C126.883 259.487 130.142 276.017 131.927 291.654C133.477 305.943 134.061 320.319 133.673 334.686C133.363 347.297 132.587 357.967 131.927 365.185C131.268 372.402 130.724 376.825 130.724 376.825C130.724 376.825 131.423 372.673 132.354 365.185C133.285 357.696 134.411 347.374 135.187 334.686C136.172 320.243 136.172 305.749 135.187 291.305C133.945 275.474 131.306 258.711 129.172 242.026C125.422 211.473 123.983 180.68 124.865 149.91C125.215 137.338 125.913 126.9 126.534 119.567C126.728 116.54 126.961 114.096 127.155 112.233C136.428 112.466 145.469 112.738 154.045 113.048L158.313 216.533L162.503 113.32C177.597 113.863 191.023 114.406 201.694 114.872V116.424C202.198 121.158 202.935 128.065 203.634 136.058C205.147 152.316 206.621 174.045 207.514 195.813C208.406 217.581 208.329 239.427 207.98 255.801C207.98 263.988 207.592 270.818 207.436 275.59C207.281 280.363 207.126 283.079 207.126 283.079C207.126 283.079 207.359 280.363 207.824 275.59C208.29 270.818 208.833 263.95 209.376 255.879C210.579 239.504 211.666 217.659 212.015 195.774C212.364 173.89 212.015 152.005 211.355 135.553C211.045 127.366 210.696 120.498 210.424 115.725V115.299L224.742 115.997V416.869H211.394C211.588 413.338 211.821 407.75 212.015 400.805C212.325 388.776 212.325 372.751 211.705 356.726C211.084 340.7 209.764 324.791 208.484 312.879C207.203 300.967 206.078 292.896 206.078 292.896C206.078 292.896 206.777 300.657 207.398 312.802C208.018 324.947 208.445 340.7 208.251 356.648C208.057 372.596 207.165 388.466 206.195 400.339C205.613 407.556 205.031 413.299 204.681 416.714H172.864C172.359 401.193 171.04 353.117 171.777 304.964C172.359 246.333 176.007 188.13 176.007 188.13C176.007 188.13 170.147 246.333 167.276 304.964C164.676 353.039 164.133 401.154 164.055 416.869H152.88L144.577 344.658L142.637 416.714H98.3246L98.5962 412.834C98.7902 410.467 98.8678 407.556 98.9067 404.219C98.9067 402.551 98.9067 400.766 98.9067 398.904C98.9067 397.041 98.9067 395.023 98.9067 393.044C98.9067 384.896 98.0142 375.428 97.1606 365.34C96.3069 355.251 94.9488 344.581 93.746 333.91C92.5431 323.239 91.573 312.608 90.991 302.558C90.4275 293.437 90.3627 284.292 90.797 275.163C90.797 273.146 90.991 271.283 91.1074 269.421C91.2238 267.558 91.4566 265.851 91.6507 264.221C91.8447 262.592 91.9611 261.078 92.1163 259.681C92.2715 258.285 92.5431 257.004 92.7371 255.801C93.5131 251.184 93.9788 248.506 93.9788 248.506C93.9788 248.506 93.3967 251.145 92.3491 255.724C92.1163 256.888 91.7671 258.168 91.5342 259.604L90.797 264.105C90.5642 265.735 90.2926 267.481 89.9822 269.304C89.6717 271.128 89.5941 273.185 89.4001 275.047C88.4976 284.228 88.0702 293.449 88.1196 302.674C88.1196 312.763 88.6629 323.55 89.2449 334.298C89.8269 345.046 90.5642 355.756 90.991 365.767C91.4178 375.777 91.573 385.168 91.3014 392.928C91.3014 394.907 91.3014 396.808 91.1074 398.632C90.9134 400.456 90.8746 402.124 90.7582 403.754C90.5642 406.974 90.3702 409.768 90.021 412.019C89.6717 414.269 89.6329 415.472 89.4777 416.675H61.7342L61.6566 111.03Z" fill="#103449"/>
<path d="M36.4352 324.676C36.4352 345.474 36.9009 364.875 37.0949 381.521C37.2889 398.167 37.6769 412.02 37.8709 421.759L38.2977 437.008C38.2977 437.008 38.2977 431.459 38.6858 421.759C39.0738 412.058 39.3066 398.167 39.5006 381.521C39.6946 364.875 40.0826 345.474 40.1602 324.676C40.2378 303.878 40.3542 281.683 40.4318 259.527C40.5095 237.371 40.2378 215.293 40.1602 194.339C40.0826 173.386 39.6558 154.14 39.5006 137.688C39.3454 121.236 38.8022 106.996 38.8022 97.2951C38.8022 87.5946 38.4141 82.0459 38.4141 82.0459L37.9873 97.2951C37.9873 106.996 37.4053 120.848 37.2113 137.494C37.0173 154.14 36.6292 173.541 36.5516 194.339C36.474 215.137 36.3576 237.332 36.2412 259.527C36.1248 281.722 36.3188 303.878 36.4352 324.676Z" fill="#103449"/>
<path d="M242.126 381.52C242.32 398.166 242.746 412.019 242.902 421.758L243.328 437.007L243.755 421.758C243.755 412.019 244.337 398.166 244.531 381.52C244.725 364.874 245.113 345.473 245.191 324.675C245.269 303.877 245.385 281.682 245.463 259.526C245.54 237.37 245.463 215.137 245.191 194.339C244.919 173.541 244.686 154.14 244.454 137.688C244.221 121.235 243.833 107.189 243.639 97.4885C243.445 87.788 243.251 82.2393 243.251 82.2393L242.824 97.4885C242.824 107.189 242.242 121.041 242.048 137.688C241.854 154.334 241.466 173.735 241.388 194.533C241.311 215.331 241.388 237.525 241.078 259.72C240.767 281.915 241.272 304.071 241.388 324.869C241.505 345.667 241.932 364.874 242.126 381.52Z" fill="#103449"/>
<path d="M95.8803 29.7798C103.02 29.7798 110.431 30.0514 117.959 30.0514H140.813H163.629C171.157 30.0514 178.568 30.0514 185.746 29.7798C192.925 29.5081 199.831 29.5081 206.428 29.3529C213.024 29.1977 219.194 29.0425 225.053 28.7709C247.985 28.0337 263.312 26.9472 263.312 26.9472C263.312 26.9472 247.868 25.8607 225.053 25.1623C219.31 24.9295 213.102 24.7355 206.544 24.5803C199.987 24.4251 193.041 24.2311 185.863 24.1534C178.684 24.0758 171.273 23.8818 163.745 23.8818H140.93H118.075C110.548 23.8818 103.136 23.8818 95.9967 24.1534C81.6399 24.3863 68.2532 24.7355 56.7677 25.1235C33.8357 25.8995 18.5476 26.986 18.5476 26.986C18.5476 26.986 33.8357 28.0725 56.7677 28.8485C68.1368 29.0425 81.4847 29.5469 95.8803 29.7798Z" fill="#103449"/>
<path d="M110.935 84.8801C115.708 84.8801 120.636 85.1517 125.641 85.1517H140.813H155.985C160.99 85.1517 165.918 84.9577 170.691 84.8801C175.463 84.8025 180.081 84.5697 184.427 84.4145C188.773 84.2593 192.924 84.0652 196.766 83.8712C212.015 83.0952 222.181 82.0475 222.181 82.0475C222.181 82.0475 212.015 80.9611 196.766 80.185C192.886 79.991 188.811 79.7582 184.427 79.6418C180.042 79.5254 175.463 79.4866 170.73 79.215C165.996 78.9434 161.029 78.9434 156.024 78.9434H140.852H125.68C120.675 78.9434 115.747 78.9434 110.974 79.215C101.429 79.409 92.5044 79.7582 84.8992 80.185C69.6499 80.9611 59.4449 82.0475 59.4449 82.0475C59.4449 82.0475 69.6499 83.134 84.8992 83.8712C92.4656 84.2981 101.39 84.6473 110.935 84.8801Z" fill="#103449"/>
<path d="M184.427 433.711C180.081 433.711 175.463 433.362 170.691 433.284C165.918 433.207 160.99 433.013 155.985 433.013H140.813H125.641C120.636 433.013 115.708 433.013 110.935 433.284C101.39 433.517 92.4656 433.866 84.8603 434.254C69.6111 435.03 59.4061 436.117 59.4061 436.117C59.4061 436.117 69.6111 437.203 84.8603 437.979C92.6208 438.406 101.39 438.717 110.935 438.949C115.708 438.949 120.636 439.221 125.641 439.221H140.813H155.985C160.99 439.221 165.918 439.221 170.691 438.949C175.463 438.678 180.081 438.678 184.427 438.523L196.766 437.979C212.015 437.203 222.181 436.117 222.181 436.117C222.181 436.117 212.015 435.03 196.766 434.293C192.924 434.099 188.811 433.866 184.427 433.711Z" fill="#103449"/>
<path d="M252.757 490.091C246.044 490.091 236.499 489.625 225.014 489.509C213.528 489.392 200.141 489.082 185.785 489.004L140.813 488.771L95.8413 489.004C81.4845 489.004 68.0978 489.353 56.6123 489.509C45.1269 489.664 35.5427 489.974 28.8688 490.091L18.3146 490.401L28.8688 490.712C35.5427 490.712 45.1269 491.177 56.6123 491.294C68.0978 491.41 81.4845 491.759 95.8413 491.798H140.813H185.785C200.141 491.798 213.528 491.449 225.014 491.294C236.499 491.138 246.044 490.828 252.757 490.712L263.273 490.401L252.757 490.091Z" fill="#103449"/>
<path d="M68.0202 464.481C77.9535 464.481 89.5166 464.908 101.933 464.947L140.735 465.18L179.538 464.947C191.915 464.947 203.517 464.598 213.451 464.481C223.384 464.365 231.649 464.015 237.43 463.86L246.51 463.55L237.43 463.239C231.649 463.239 223.345 462.813 213.451 462.657C203.556 462.502 191.915 462.231 179.538 462.153L140.735 461.959L101.933 462.153C89.5166 462.153 77.9535 462.541 68.0202 462.657C58.0868 462.774 49.822 463.123 44.0404 463.239L34.9219 463.627L44.0404 463.938C49.822 464.016 58.2032 464.326 68.0202 464.481Z" fill="#103449"/>
<path d="M95.2206 178.508C95.1779 170.672 94.267 162.863 92.5044 155.227C91.7672 152.472 91.1464 150.338 90.6419 148.941L89.8659 146.729L90.4091 148.98C90.7971 150.454 91.224 152.627 91.6896 155.421C92.9427 163.114 93.3073 170.926 92.776 178.702C92.1934 189.645 90.5034 200.5 87.7318 211.102C84.9768 222.743 81.1742 235.121 77.488 247.537C73.9502 259.764 71.1386 272.19 69.0679 284.749C67.4622 295.74 66.5293 306.819 66.2742 317.925C66.2742 327.664 66.6234 335.774 67.0502 341.4C67.3218 344.232 67.5546 346.444 67.7486 347.958C67.9427 349.471 68.0203 350.247 68.0203 350.247V347.919C68.0203 346.405 68.0203 344.038 68.0203 341.361C68.0203 335.735 68.0203 327.664 68.7963 318.08C69.4332 307.028 70.755 296.025 72.7541 285.137C74.9304 272.738 77.8458 260.481 81.4846 248.43C84.938 236.013 88.5854 223.558 91.224 211.646C93.6385 200.757 94.9771 189.658 95.2206 178.508Z" fill="#103449"/>
<path d="M115.863 360.646C116.795 367.592 117.998 374.072 119.278 379.543C120.559 385.014 122.149 389.438 123.158 392.542L125.098 397.314C125.098 397.314 124.672 395.491 123.973 392.309C123.275 389.127 122.305 384.549 121.606 379.077C120.908 373.606 119.976 367.165 119.55 360.258C119.123 353.352 118.58 345.979 118.424 338.568C118.269 331.157 117.842 323.746 117.61 316.761C117.377 309.777 116.911 303.297 116.601 297.709C116.29 292.122 115.825 287.504 115.553 284.245C115.281 280.986 115.049 279.123 115.049 279.123L114.738 284.245C114.738 287.504 114.428 292.005 114.195 297.748C113.962 303.491 114.001 309.854 113.885 316.839C113.768 323.823 113.885 331.273 114.117 338.723C114.35 346.173 115.087 353.662 115.863 360.646Z" fill="#103449"/>
<path d="M146.401 248.312C147.603 256.073 148.768 263.833 149.97 270.003C151.173 276.172 152.415 281.643 153.269 285.174L154.743 290.917C154.743 290.917 154.51 288.783 154.083 285.058C153.657 281.333 152.958 276.017 152.337 269.537C151.716 263.057 150.824 255.723 150.087 247.769C149.35 239.815 148.574 231.317 148.03 222.819C147.487 214.321 146.827 205.785 146.478 197.792C146.129 189.799 145.702 182.271 145.586 175.946C145.469 169.621 145.159 164.305 145.081 160.425C145.004 156.545 144.849 154.527 144.849 154.527C144.849 154.527 144.848 156.661 144.266 160.386C143.684 164.111 143.529 169.466 143.18 175.907C142.831 182.348 142.792 189.837 142.753 197.869C142.714 205.901 143.258 214.515 143.762 223.091C144.266 231.666 145.392 240.319 146.401 248.312Z" fill="#103449"/>
<path d="M184.931 166.326C185.63 175.328 186.173 185.727 186.677 197.057C187.182 208.388 187.647 220.339 187.841 232.29C188.035 244.241 188.307 256.308 188.191 267.561C188.074 278.814 188.191 289.329 187.803 298.331C187.414 307.333 187.453 314.861 187.259 320.138C187.065 325.415 187.259 328.403 187.259 328.403C187.259 328.403 187.608 325.415 188.307 320.177C189.005 314.938 189.665 307.45 190.441 298.447C191.217 289.445 191.644 279.046 192.11 267.639C192.575 256.231 192.459 244.357 192.11 232.212C191.76 220.067 191.139 208.116 190.363 196.825C189.587 185.533 188.423 175.095 187.337 166.093C186.25 157.091 185.086 149.68 184.272 144.48C183.457 139.281 182.836 136.332 182.836 136.332C182.836 136.332 183.069 139.32 183.418 144.597C183.767 149.874 184.427 157.324 184.931 166.326Z" fill="#103449"/>
</svg>
