<svg width="282" height="515" viewBox="0 0 282 515" fill="none" xmlns="http://www.w3.org/2000/svg">
<path d="M270.682 4.94559V-2H9.8155V4.94559H-0.544678V48.9472H9.8155V55.8928H19.4772V448.105H9.8155V466.73H-0.544678V515H281.043V466.808H270.682V448.105H261.021V55.8928H270.682V48.9472H281.043V4.94559H270.682ZM16.2567 49.4517V42.5061H5.89648V11.4643H16.2567V4.44116H264.241V11.3867H19.7877L269.596 16.5862V42.5061H18.0804L264.241 47.7832V49.4517H16.2567ZM5.89648 473.249H16.2567V454.624H259.43V473.249H20.2145L269.596 481.397V504.368H5.74127L5.89648 473.249ZM249.496 71.9181V448.299H25.9184V65.2053C118.229 65.3217 220.628 70.4048 249.496 71.9181Z" fill="#103449"/>
<path d="M224.081 423.155H230.522V99.5449H49.8982V423.155H224.081ZM61.112 111.03H70.735C70.3857 116.113 68.6008 143.547 69.2605 170.98C69.6873 201.323 73.1407 231.433 73.1407 231.433C73.1407 231.433 71.9766 201.168 73.8003 171.057C75.624 140.947 79.8147 111.147 79.8147 111.147H79.5042C92.0761 111.147 104.648 111.496 116.91 111.806C116.91 113.63 116.677 115.997 116.56 118.83C116.25 126.28 115.862 136.911 115.862 149.639C116.092 180.832 118.686 211.963 123.622 242.764C126.338 259.487 129.598 276.017 131.383 291.654C132.933 305.943 133.516 320.319 133.129 334.686C132.818 347.297 132.042 357.967 131.383 365.185C130.723 372.402 130.18 376.825 130.18 376.825C130.18 376.825 130.878 372.673 131.81 365.185C132.741 357.696 133.866 347.374 134.642 334.686C135.627 320.243 135.627 305.749 134.642 291.305C133.4 275.474 130.762 258.711 128.628 242.026C124.878 211.473 123.438 180.68 124.321 149.91C124.67 137.338 125.368 126.9 125.989 119.567C126.183 116.54 126.416 114.096 126.61 112.233C135.884 112.466 144.925 112.738 153.5 113.048L157.768 216.533L161.959 113.32C177.053 113.863 190.478 114.406 201.149 114.872V116.424C201.653 121.158 202.391 128.065 203.089 136.058C204.602 152.316 206.077 174.045 206.969 195.813C207.862 217.581 207.784 239.427 207.435 255.801C207.435 263.988 207.047 270.818 206.892 275.59C206.737 280.363 206.581 283.079 206.581 283.079C206.581 283.079 206.814 280.363 207.28 275.59C207.745 270.818 208.289 263.95 208.832 255.879C210.035 239.504 211.121 217.659 211.47 195.774C211.82 173.89 211.47 152.005 210.811 135.553C210.5 127.366 210.151 120.498 209.88 115.725V115.299L224.198 115.997V416.869H210.85C211.044 413.338 211.276 407.75 211.47 400.805C211.781 388.776 211.781 372.751 211.16 356.726C210.539 340.7 209.22 324.791 207.939 312.879C206.659 300.967 205.534 292.896 205.534 292.896C205.534 292.896 206.232 300.657 206.853 312.802C207.474 324.947 207.901 340.7 207.707 356.648C207.513 372.596 206.62 388.466 205.65 400.339C205.068 407.556 204.486 413.299 204.137 416.714H172.319C171.815 401.193 170.495 353.117 171.233 304.964C171.815 246.333 175.462 188.13 175.462 188.13C175.462 188.13 169.603 246.333 166.732 304.964C164.132 353.039 163.589 401.154 163.511 416.869H152.336L144.032 344.658L142.092 416.714H97.7801L98.0517 412.834C98.2457 410.467 98.3233 407.556 98.3621 404.219C98.3621 402.551 98.3621 400.766 98.3621 398.904C98.3621 397.041 98.3621 395.023 98.3621 393.044C98.3621 384.896 97.4697 375.428 96.616 365.34C95.7624 355.251 94.4043 344.581 93.2014 333.91C91.9985 323.239 91.0285 312.608 90.4465 302.558C89.8829 293.437 89.8182 284.292 90.2524 275.163C90.2524 273.146 90.4465 271.283 90.5629 269.421C90.6793 267.558 90.9121 265.851 91.1061 264.221C91.3001 262.592 91.4165 261.078 91.5717 259.681C91.7269 258.285 91.9985 257.004 92.1926 255.801C92.9686 251.184 93.4342 248.506 93.4342 248.506C93.4342 248.506 92.8522 251.145 91.8045 255.724C91.5717 256.888 91.2225 258.168 90.9897 259.604L90.2524 264.105C90.0196 265.735 89.748 267.481 89.4376 269.304C89.1272 271.128 89.0496 273.185 88.8556 275.047C87.9531 284.228 87.5257 293.449 87.5751 302.674C87.5751 312.763 88.1183 323.55 88.7004 334.298C89.2824 345.046 90.0196 355.756 90.4465 365.767C90.8733 375.777 91.0285 385.168 90.7569 392.928C90.7569 394.907 90.7569 396.808 90.5629 398.632C90.3688 400.456 90.33 402.124 90.2136 403.754C90.0196 406.974 89.8256 409.768 89.4764 412.019C89.1272 414.269 89.0884 415.472 88.9332 416.675H61.1896L61.112 111.03Z" fill="#103449"/>
<path d="M35.8905 324.676C35.8905 345.474 36.3562 364.875 36.5502 381.521C36.7442 398.167 37.1322 412.02 37.3262 421.759L37.7531 437.008C37.7531 437.008 37.7531 431.459 38.1411 421.759C38.5291 412.058 38.7619 398.167 38.9559 381.521C39.1499 364.875 39.538 345.474 39.6156 324.676C39.6932 303.878 39.8096 281.683 39.8872 259.527C39.9648 237.371 39.6932 215.293 39.6156 194.339C39.538 173.386 39.1111 154.14 38.9559 137.688C38.8007 121.236 38.2575 106.996 38.2575 97.2951C38.2575 87.5946 37.8695 82.0459 37.8695 82.0459L37.4426 97.2951C37.4426 106.996 36.8606 120.848 36.6666 137.494C36.4726 154.14 36.0846 173.541 36.007 194.339C35.9294 215.137 35.8129 237.332 35.6965 259.527C35.5801 281.722 35.7741 303.878 35.8905 324.676Z" fill="#103449"/>
<path d="M241.581 381.52C241.775 398.166 242.202 412.019 242.357 421.758L242.784 437.007L243.21 421.758C243.21 412.019 243.792 398.166 243.986 381.52C244.181 364.874 244.569 345.473 244.646 324.675C244.724 303.877 244.84 281.682 244.918 259.526C244.995 237.37 244.918 215.137 244.646 194.339C244.375 173.541 244.142 154.14 243.909 137.688C243.676 121.235 243.288 107.189 243.094 97.4885C242.9 87.788 242.706 82.2393 242.706 82.2393L242.279 97.4885C242.279 107.189 241.697 121.041 241.503 137.688C241.309 154.334 240.921 173.735 240.844 194.533C240.766 215.331 240.844 237.525 240.533 259.72C240.223 281.915 240.727 304.071 240.844 324.869C240.96 345.667 241.387 364.874 241.581 381.52Z" fill="#103449"/>
<path d="M95.3356 29.7798C102.475 29.7798 109.886 30.0514 117.414 30.0514H140.269H163.084C170.612 30.0514 178.023 30.0514 185.201 29.7798C192.38 29.5081 199.287 29.5081 205.883 29.3529C212.479 29.1977 218.649 29.0425 224.508 28.7709C247.44 28.0337 262.767 26.9472 262.767 26.9472C262.767 26.9472 247.324 25.8607 224.508 25.1623C218.765 24.9295 212.557 24.7355 205.999 24.5803C199.442 24.4251 192.496 24.2311 185.318 24.1534C178.139 24.0758 170.728 23.8818 163.201 23.8818H140.385H117.53C110.003 23.8818 102.592 23.8818 95.452 24.1534C81.0952 24.3863 67.7085 24.7355 56.2231 25.1235C33.291 25.8995 18.0029 26.986 18.0029 26.986C18.0029 26.986 33.291 28.0725 56.2231 28.8485C67.5921 29.0425 80.94 29.5469 95.3356 29.7798Z" fill="#103449"/>
<path d="M110.391 84.8801C115.164 84.8801 120.091 85.1517 125.097 85.1517H140.269H155.44C160.446 85.1517 165.374 84.9577 170.146 84.8801C174.919 84.8025 179.536 84.5697 183.882 84.4145C188.228 84.2593 192.38 84.0652 196.221 83.8712C211.47 83.0952 221.637 82.0475 221.637 82.0475C221.637 82.0475 211.47 80.9611 196.221 80.185C192.341 79.991 188.267 79.7582 183.882 79.6418C179.498 79.5254 174.919 79.4866 170.185 79.215C165.451 78.9434 160.484 78.9434 155.479 78.9434H140.307H125.136C120.13 78.9434 115.202 78.9434 110.43 79.215C100.884 79.409 91.9598 79.7582 84.3546 80.185C69.1054 80.9611 58.9004 82.0475 58.9004 82.0475C58.9004 82.0475 69.1054 83.134 84.3546 83.8712C91.921 84.2981 100.846 84.6473 110.391 84.8801Z" fill="#103449"/>
<path d="M183.882 433.711C179.536 433.711 174.919 433.362 170.146 433.284C165.373 433.207 160.445 433.013 155.44 433.013H140.268H125.097C120.091 433.013 115.163 433.013 110.391 433.284C100.845 433.517 91.9208 433.866 84.3155 434.254C69.0663 435.03 58.8613 436.117 58.8613 436.117C58.8613 436.117 69.0663 437.203 84.3155 437.979C92.076 438.406 100.845 438.717 110.391 438.949C115.163 438.949 120.091 439.221 125.097 439.221H140.268H155.44C160.445 439.221 165.373 439.221 170.146 438.949C174.919 438.678 179.536 438.678 183.882 438.523L196.221 437.979C211.47 437.203 221.636 436.117 221.636 436.117C221.636 436.117 211.47 435.03 196.221 434.293C192.38 434.099 188.267 433.866 183.882 433.711Z" fill="#103449"/>
<path d="M252.213 490.091C245.5 490.091 235.955 489.625 224.469 489.509C212.984 489.392 199.597 489.082 185.24 489.004L140.268 488.771L95.2967 489.004C80.9399 489.004 67.5532 489.353 56.0678 489.509C44.5823 489.664 34.9982 489.974 28.3242 490.091L17.77 490.401L28.3242 490.712C34.9982 490.712 44.5823 491.177 56.0678 491.294C67.5532 491.41 80.9399 491.759 95.2967 491.798H140.268H185.24C199.597 491.798 212.984 491.449 224.469 491.294C235.955 491.138 245.5 490.828 252.213 490.712L262.728 490.401L252.213 490.091Z" fill="#103449"/>
<path d="M67.4754 464.481C77.4088 464.481 88.9718 464.908 101.389 464.947L140.191 465.18L178.993 464.947C191.371 464.947 202.973 464.598 212.906 464.481C222.839 464.365 231.104 464.015 236.886 463.86L245.965 463.55L236.886 463.239C231.104 463.239 222.8 462.813 212.906 462.657C203.011 462.502 191.371 462.231 178.993 462.153L140.191 461.959L101.389 462.153C88.9718 462.153 77.4088 462.541 67.4754 462.657C57.5421 462.774 49.2772 463.123 43.4957 463.239L34.3772 463.627L43.4957 463.938C49.2772 464.016 57.6585 464.326 67.4754 464.481Z" fill="#103449"/>
<path d="M94.6759 178.508C94.6333 170.672 93.7223 162.863 91.9598 155.227C91.2225 152.472 90.6017 150.338 90.0972 148.941L89.3212 146.729L89.8644 148.98C90.2525 150.454 90.6793 152.627 91.1449 155.421C92.398 163.114 92.7626 170.926 92.2314 178.702C91.6488 189.645 89.9587 200.5 87.1871 211.102C84.4321 222.743 80.6295 235.121 76.9433 247.537C73.4055 259.764 70.5939 272.19 68.5232 284.749C66.9176 295.74 65.9846 306.819 65.7295 317.925C65.7295 327.664 66.0787 335.774 66.5055 341.4C66.7772 344.232 67.01 346.444 67.204 347.958C67.398 349.471 67.4756 350.247 67.4756 350.247V347.919C67.4756 346.405 67.4756 344.038 67.4756 341.361C67.4756 335.735 67.4756 327.664 68.2516 318.08C68.8886 307.028 70.2104 296.025 72.2095 285.137C74.3857 272.738 77.3011 260.481 80.9399 248.43C84.3933 236.013 88.0407 223.558 90.6793 211.646C93.0938 200.757 94.4324 189.658 94.6759 178.508Z" fill="#103449"/>
<path d="M115.319 360.646C116.25 367.592 117.453 374.072 118.733 379.543C120.014 385.014 121.605 389.438 122.614 392.542L124.554 397.314C124.554 397.314 124.127 395.491 123.428 392.309C122.73 389.127 121.76 384.549 121.061 379.077C120.363 373.606 119.432 367.165 119.005 360.258C118.578 353.352 118.035 345.979 117.88 338.568C117.725 331.157 117.298 323.746 117.065 316.761C116.832 309.777 116.366 303.297 116.056 297.709C115.746 292.122 115.28 287.504 115.008 284.245C114.737 280.986 114.504 279.123 114.504 279.123L114.194 284.245C114.194 287.504 113.883 292.005 113.65 297.748C113.417 303.491 113.456 309.854 113.34 316.839C113.223 323.823 113.34 331.273 113.573 338.723C113.805 346.173 114.543 353.662 115.319 360.646Z" fill="#103449"/>
<path d="M145.856 248.312C147.059 256.073 148.223 263.833 149.426 270.003C150.629 276.172 151.87 281.643 152.724 285.174L154.198 290.917C154.198 290.917 153.966 288.783 153.539 285.058C153.112 281.333 152.413 276.017 151.793 269.537C151.172 263.057 150.279 255.723 149.542 247.769C148.805 239.815 148.029 231.317 147.486 222.819C146.942 214.321 146.283 205.785 145.934 197.792C145.584 189.799 145.157 182.271 145.041 175.946C144.925 169.621 144.614 164.305 144.537 160.425C144.459 156.545 144.304 154.527 144.304 154.527C144.304 154.527 144.304 156.661 143.722 160.386C143.14 164.111 142.985 169.466 142.635 175.907C142.286 182.348 142.247 189.837 142.209 197.869C142.17 205.901 142.713 214.515 143.217 223.091C143.722 231.666 144.847 240.319 145.856 248.312Z" fill="#103449"/>
<path d="M184.386 166.326C185.085 175.328 185.628 185.727 186.132 197.057C186.637 208.388 187.102 220.339 187.296 232.29C187.491 244.241 187.762 256.308 187.646 267.561C187.529 278.814 187.646 289.329 187.258 298.331C186.87 307.333 186.908 314.861 186.714 320.138C186.52 325.415 186.714 328.403 186.714 328.403C186.714 328.403 187.064 325.415 187.762 320.177C188.461 314.938 189.12 307.45 189.896 298.447C190.672 289.445 191.099 279.046 191.565 267.639C192.03 256.231 191.914 244.357 191.565 232.212C191.216 220.067 190.595 208.116 189.819 196.825C189.043 185.533 187.879 175.095 186.792 166.093C185.706 157.091 184.542 149.68 183.727 144.48C182.912 139.281 182.291 136.332 182.291 136.332C182.291 136.332 182.524 139.32 182.873 144.597C183.222 149.874 183.882 157.324 184.386 166.326Z" fill="#103449"/>
</svg>
