<svg width="75" height="64" viewBox="0 0 75 64" fill="none" xmlns="http://www.w3.org/2000/svg">
<path d="M73.8397 58.3613C73.7746 57.8233 73.5983 57.3047 73.322 56.8383C73.0456 56.372 72.6752 55.9681 72.2344 55.6525C71.5191 55.0445 70.638 54.665 69.705 54.5632C69.6007 54.2862 69.475 54.0177 69.3293 53.7601C68.3903 52.1165 66.2924 49.9849 63.0872 47.407C59.6063 44.6073 55.0169 41.4452 50.1551 38.0924C44.5578 34.2426 38.7836 30.26 33.6231 26.1377C33.4191 25.3845 32.9911 24.7107 32.396 24.2056C31.8537 23.7781 31.1989 23.5175 30.5114 23.4553C29.2909 21.6852 27.869 20.0626 26.2742 18.6202C26.0215 18.417 25.7917 18.2322 25.5561 18.0899C25.8606 17.6792 26.0245 17.1811 26.0235 16.6697C26.0226 16.1582 25.8568 15.6605 25.5508 15.2503C26.0965 15.358 26.6615 15.3092 27.1804 15.1094C27.6993 14.9097 28.151 14.5671 28.4832 14.1214C28.8627 13.6668 29.1067 13.1145 29.1874 12.5277C29.268 11.9408 29.182 11.3429 28.9391 10.8023C28.9761 10.7564 28.967 10.6735 28.9753 10.6045C29.0476 9.63249 28.6023 7.99846 23.9151 4.22856C19.228 0.458663 17.548 0.383302 16.5898 0.727822C16.5256 0.747652 16.4635 0.773663 16.4043 0.805489C15.8238 0.683441 15.2207 0.726742 14.6639 0.930467C14.107 1.13419 13.6187 1.49016 13.2544 1.95786C12.8903 2.37892 12.6531 2.8946 12.5702 3.44517C12.4874 3.99574 12.5623 4.55866 12.7862 5.06871C12.2987 4.84947 11.7519 4.7995 11.233 4.92675C10.7141 5.054 10.2529 5.35116 9.92263 5.77094C9.73471 5.99413 9.5929 6.25237 9.50539 6.53074C9.41788 6.80911 9.3864 7.10211 9.41277 7.39282L5.72027 11.9837C5.43067 12.0203 5.15123 12.1139 4.8981 12.259C4.64496 12.4042 4.42313 12.598 4.24541 12.8294C3.90794 13.241 3.71835 13.7539 3.70698 14.2862C3.6956 14.8185 3.8631 15.3393 4.18268 15.7655C3.63523 15.6558 3.06802 15.7038 2.54706 15.9038C2.0261 16.1039 1.57281 16.4478 1.23993 16.8955C0.860706 17.3502 0.617695 17.9029 0.53886 18.4899C0.460024 19.0769 0.548567 19.6743 0.794299 20.2135C0.774325 20.2799 0.760691 20.3481 0.753581 20.417C0.615635 21.4119 1.0563 23.0516 5.74343 26.8215C10.4306 30.5914 12.1152 30.6611 13.0745 30.3269C13.1115 30.281 13.2047 30.2709 13.2646 30.2435C13.8435 30.3671 14.4454 30.3246 15.001 30.121C15.5565 29.9173 16.0429 29.5606 16.4042 29.0922C16.7702 28.6721 17.0094 28.1568 17.0941 27.6059C17.1788 27.0551 17.1055 26.4914 16.8827 25.9803C17.3682 26.201 17.9138 26.2518 18.4314 26.1246C18.9491 25.9974 19.4086 25.6996 19.7359 25.2792C19.8465 25.1458 19.9414 25.0001 20.0188 24.8451C20.2428 25.0253 20.4668 25.2526 20.731 25.4652C22.4821 26.7119 24.3699 27.7546 26.3575 28.5729C26.5708 29.2281 26.9668 29.8089 27.4989 30.2471C28.1181 30.7234 28.869 30.9974 29.6492 31.0315C34.8188 35.1894 39.9054 39.98 44.8703 44.616C49.1932 48.6505 53.2554 52.4565 56.7362 55.2562C59.9357 57.8295 62.4721 59.4159 64.2845 59.9852C64.5665 60.0756 64.856 60.1408 65.1495 60.1801C65.449 61.0695 66.0085 61.8488 66.7558 62.4171C67.1585 62.78 67.6324 63.0552 68.1471 63.2251C68.6619 63.3951 69.2063 63.4561 69.7457 63.4043C70.8523 64.1809 72.5596 64.4105 73.9858 62.6373C75.412 60.864 74.8412 59.2803 73.8397 58.3613ZM2.22711 20.1846C1.93924 19.8246 1.7821 19.3776 1.78142 18.9169C1.78075 18.4562 1.93658 18.009 2.22339 17.6487C2.47053 17.2935 2.84385 17.046 3.26736 16.9564C3.69086 16.8669 4.13273 16.9421 4.50302 17.1667C5.09844 16.4265 5.70054 16.854 5.70054 16.854L10.0603 20.3606C10.0603 20.3606 9.18274 18.5112 6.25903 16.1596C4.81727 15 4.75121 14.153 5.222 13.5677C5.3427 13.4014 5.51232 13.277 5.7072 13.2118C5.90208 13.1466 6.11252 13.1439 6.30915 13.204L13.0584 18.6325C13.0584 18.6325 6.74066 12.691 7.62686 11.5892L9.47311 9.29375C10.2762 8.29522 17.5171 13.0889 17.5171 13.0889L10.7793 7.66971C10.6792 7.49163 10.6367 7.28693 10.6577 7.08382C10.6788 6.8807 10.7623 6.68917 10.8969 6.53562C11.3584 5.96175 12.2091 5.83321 13.6509 6.99282C16.5746 9.34439 18.5691 9.80501 18.5691 9.80501L14.2094 6.29845C14.2094 6.29845 13.6627 5.80202 14.2581 5.06174C13.9593 4.74822 13.7911 4.33275 13.7878 3.89989C13.7844 3.46703 13.9462 3.04932 14.2401 2.73178C14.531 2.38261 14.9302 2.14065 15.3744 2.04426C15.8187 1.94787 16.2826 2.00258 16.6925 2.19972C16.6925 2.19972 17.0533 0.316196 23.1305 5.20413C23.7394 5.69384 24.2793 6.12812 24.7226 6.54139C24.8749 6.7847 24.9701 7.05926 25.0012 7.3445C25.0323 7.62974 24.9984 7.91825 24.902 8.18841C24.299 7.65614 23.5661 7.03832 22.6701 6.31761C18.0748 2.62163 16.9727 2.46291 16.9727 2.46291L27.6566 11.0561C27.6566 11.0561 26.979 10.9458 24.5213 9.16752C24.0968 9.9893 23.5113 10.7172 22.7997 11.308C22.1564 10.7434 21.3535 10.0598 20.3483 9.25131C15.7531 5.55533 14.6509 5.39661 14.6509 5.39661L25.3348 13.9898C25.3348 13.9898 24.5986 13.8701 21.9031 11.8817C21.6241 12.0516 21.3013 12.1357 20.9747 12.1234C20.6482 12.1112 20.3323 12.0031 20.0666 11.8128C20.0666 11.8128 20.1604 12.0489 19.8527 12.7843L18.3535 11.5785C13.092 7.34663 11.8578 7.08164 11.8578 7.08164L24.127 16.9499C24.127 16.9499 23.1654 16.7341 19.3223 13.7848C18.7076 14.8273 18.0214 15.8259 17.2686 16.7734C16.9182 16.4916 16.5161 16.1682 16.0738 15.8125C12.5757 12.9989 11.6344 12.9696 11.6344 12.9696L19.7852 19.5253C19.7852 19.5253 19.0649 19.5035 16.5716 17.64C15.8374 18.5461 15.0553 19.4125 14.2287 20.2354C13.7175 19.8242 13.1489 19.3668 12.5055 18.8494C7.244 14.6175 6.00976 14.3525 6.00976 14.3525L18.279 24.2207C18.279 24.2207 17.2967 24.0072 13.3767 20.9771C12.9579 21.3927 12.4582 21.7178 11.9085 21.9322C12.0551 22.0536 12.1745 22.2045 12.259 22.375C12.3435 22.5456 12.3912 22.732 12.3989 22.922C11.859 22.4878 11.2732 21.9694 10.5494 21.3872C5.9542 17.6913 4.85208 17.5325 4.85208 17.5325L15.536 26.1257C15.536 26.1257 14.8158 26.0096 12.1961 24.0915C11.8546 24.9516 11.3152 25.719 10.6216 26.3315C9.98411 25.7715 9.19267 25.0971 8.20469 24.3025C3.60947 20.6065 2.50734 20.4478 2.50734 20.4478L13.1912 29.0409C13.1912 29.0409 12.4607 28.9259 9.77098 26.9421C9.53509 27.0981 9.26626 27.1974 8.98549 27.2323C8.70473 27.2672 8.41964 27.2366 8.15252 27.1431C7.67577 26.7596 7.11388 26.3644 6.50501 25.8747C0.460132 20.9466 2.22711 20.1846 2.22711 20.1846ZM31.5652 25.1913C32.053 25.6212 32.3703 26.2118 32.4593 26.8555C42.316 34.7834 54.8456 42.4226 62.2611 48.387C69.6767 54.3514 68.5283 55.885 68.5283 55.885C69.0311 55.7457 69.5616 55.7393 70.0679 55.8665C70.5742 55.9937 71.0388 56.2502 71.4164 56.6107C72.9386 57.835 72.5598 58.9764 72.5598 58.9764C72.6742 59.0353 72.7821 59.1062 72.8816 59.1879C73.3698 59.5806 74.1423 60.5138 73.0161 61.914C72.3745 62.7117 71.5867 61.9269 71.2104 61.4068L72.3773 59.2738L70.4438 60.9603C69.0676 60.5275 67.9047 59.5922 67.1869 58.3408L68.4197 56.0906L66.4862 57.7772C65.5879 57.5178 63.2713 56.5051 58.3142 52.5181C51.9613 47.4084 33.7706 31.3882 31.1954 29.109L32.3184 27.0541L30.4137 28.7166C29.5882 28.4314 28.8876 27.8678 28.432 27.1227L29.6475 24.9058L27.8627 26.4663C26.895 25.8581 23.8529 23.9595 22.5646 23.1501C22.6292 23.0698 22.6985 22.9837 22.7631 22.9033L27.6559 25.7707L23.2556 22.3733C23.95 21.6276 24.5891 20.9035 25.0691 20.3539L26.9354 21.562L25.3968 19.9464C25.4614 19.8661 25.5168 19.7972 25.5675 19.7341C27.154 21.235 28.5772 22.8993 29.8136 24.6992C30.4383 24.6389 31.0631 24.8144 31.5652 25.1913Z" fill="#B69D74" fill-opacity="0.1"/>
</svg>
