<svg width="247" height="231" viewBox="0 0 247 231" fill="none" xmlns="http://www.w3.org/2000/svg">
<path d="M390.437 96.314C389.077 94.5543 387.364 93.097 385.41 92.035C383.455 90.973 381.301 90.3294 379.084 90.1452C375.285 89.5082 371.382 90.0264 367.881 91.6326C366.931 90.8758 365.924 90.1938 364.868 89.5926C358.103 85.7756 346.228 82.6796 329.513 80.3421C311.361 77.8036 288.54 76.3225 264.359 74.7428C236.542 72.9599 207.822 71.0814 180.97 67.4179C178.666 65.1921 175.741 63.7181 172.582 63.1908C169.772 62.8262 166.917 63.2864 164.364 64.5154C156.341 60.8454 147.918 58.1199 139.266 56.3939C137.948 56.2096 136.75 56.042 135.62 56.0368C135.829 53.9473 135.359 51.8462 134.279 50.0449C133.2 48.2437 131.569 46.8382 129.628 46.0367C131.778 45.2668 133.665 43.9046 135.073 42.1073C136.481 40.31 137.352 38.151 137.584 35.8798C137.965 33.4775 137.663 31.0165 136.713 28.7775C135.762 26.5386 134.201 24.6119 132.209 23.2173C132.242 22.9776 132.036 22.7045 131.92 22.4439C130.13 18.8646 125.124 14.0416 100.681 10.6234C76.2375 7.2051 70.1604 10.4782 67.5093 13.7113C67.3249 13.9164 67.1608 14.1389 67.0194 14.3757C64.7173 15.1683 62.6839 16.5912 61.1506 18.4825C59.6173 20.3737 58.6457 22.6574 58.3463 25.0736C57.9494 27.325 58.1985 29.6428 59.0647 31.7584C59.931 33.8741 61.3789 35.701 63.2408 37.0275C61.062 37.2816 59.0308 38.257 57.4704 39.7987C55.9099 41.3404 54.91 43.3596 54.6297 45.5352C54.4372 46.7179 54.4808 47.9271 54.7581 49.0929C55.0354 50.2587 55.5408 51.358 56.2452 52.3273L52.894 76.2911C51.9507 77.0301 51.1631 77.9485 50.5766 78.9935C49.9901 80.0385 49.6165 81.1893 49.4772 82.3795C49.154 84.5413 49.565 86.749 50.6447 88.6496C51.7243 90.5501 53.4101 92.0337 55.4324 92.8631C53.273 93.6295 51.3757 94.9934 49.9612 96.7961C48.5466 98.5987 47.6731 100.766 47.4422 103.046C47.0628 105.448 47.3693 107.908 48.3263 110.144C49.2833 112.379 50.8521 114.299 52.8521 115.683C52.9214 115.959 53.0167 116.228 53.1367 116.486C54.7435 120.284 59.7453 125.137 84.1884 128.555C108.631 131.973 114.713 128.67 117.39 125.471C117.423 125.232 117.73 125 117.884 124.777C120.183 123.993 122.215 122.576 123.743 120.687C125.272 118.799 126.235 116.517 126.523 114.105C126.928 111.853 126.687 109.532 125.827 107.411C124.966 105.291 123.522 103.458 121.662 102.125C123.837 101.88 125.866 100.911 127.422 99.3718C128.978 97.833 129.97 95.815 130.239 93.6432C130.348 92.94 130.376 92.2266 130.323 91.517C131.491 91.6804 132.758 92.0103 134.136 92.203C142.928 92.91 151.772 92.6097 160.495 91.3081C162.625 93.1686 165.242 94.3822 168.038 94.8062C171.222 95.1815 174.444 94.5655 177.264 93.0423C204.223 96.8125 232.22 102.988 259.464 108.874C283.181 113.993 305.498 118.855 323.65 121.393C340.335 123.727 352.608 123.977 360.191 122.167C361.374 121.891 362.531 121.511 363.648 121.031C366.574 123.536 370.185 125.105 374.013 125.535C376.195 125.966 378.443 125.938 380.614 125.453C382.785 124.968 384.832 124.036 386.623 122.717C392.155 123.124 398.653 120.338 399.947 111.082C401.242 101.826 395.899 97.4442 390.437 96.314ZM57.8389 112.562C56.0675 111.899 54.5736 110.655 53.6021 109.032C52.6305 107.409 52.2389 105.504 52.4914 103.63C52.6149 101.857 53.4093 100.198 54.713 98.9899C56.0166 97.7821 57.7315 97.1165 59.5086 97.1285C60.049 93.2644 63.0696 93.5036 63.0696 93.5036L85.8052 96.683C85.8052 96.683 78.8234 92.0113 63.5765 89.879C56.0579 88.8276 54.0433 85.9805 54.4706 82.9251C54.5461 82.0847 54.882 81.2888 55.4314 80.6485C55.9808 80.0081 56.7164 79.5552 57.5356 79.3529L92.7323 84.275C92.7323 84.275 57.9767 76.6354 58.781 70.8841L60.4566 58.9022C61.1855 53.6901 96.7789 55.3388 96.7789 55.3388L61.6421 50.425C60.9146 50.0082 60.3344 49.3759 59.9812 48.6155C59.6281 47.855 59.5196 47.0038 59.6705 46.1791C60.0894 43.1836 62.816 40.9384 70.3347 41.9899C85.5816 44.1221 93.5772 41.5448 93.5772 41.5448L70.8415 38.3653C70.8415 38.3653 67.8712 37.7667 68.4116 33.9026C66.6994 33.4266 65.2329 32.3161 64.3105 30.797C63.3882 29.278 63.0794 27.4646 63.447 25.7258C63.7371 23.8822 64.6345 22.1882 65.9969 20.9125C67.3593 19.6369 69.1086 18.8527 70.9674 18.6843C70.9674 18.6843 68.2764 11.2837 99.9684 15.7157C103.144 16.1597 105.959 16.5535 108.391 17.0767C109.439 17.6137 110.352 18.3811 111.061 19.3213C111.771 20.2615 112.258 21.3501 112.487 22.5055C109.243 21.8992 105.362 21.2647 100.689 20.6112C76.7249 17.26 72.5083 19.0219 72.5083 19.0219L128.224 26.8135C128.224 26.8135 125.605 27.8522 113.206 26.7595C113.439 30.551 112.907 34.3506 111.643 37.9326C108.189 37.2969 103.923 36.5781 98.6805 35.845C74.7167 32.4938 70.5 34.2557 70.5 34.2557L126.216 42.0473C126.216 42.0473 123.37 43.1764 109.691 41.8437C109.066 43.0304 108.105 44.0069 106.929 44.6515C105.753 45.2962 104.413 45.5805 103.076 45.4692C103.076 45.4692 103.904 46.1041 104.367 49.345L96.5484 48.2517C69.1099 44.4145 64.2043 46.0801 64.2043 46.0801L128.188 55.0279C128.188 55.0279 124.346 56.2925 104.603 53.9897C104.63 58.9599 104.313 63.926 103.654 68.8524C101.827 68.5969 99.7302 68.3036 97.4237 67.9811C79.1813 65.43 75.8033 67.3092 75.8033 67.3092L118.309 73.2534C118.309 73.2534 115.725 74.694 103.022 73.3756C102.341 78.117 101.408 82.8188 100.227 87.461C97.5614 87.0882 94.5958 86.6735 91.2409 86.2043C63.8024 82.3671 58.8968 84.0327 58.8968 84.0327L122.88 92.9805C122.88 92.9805 118.97 94.2967 98.786 91.8711C98.1849 94.2182 97.1083 96.4169 95.6226 98.3308C96.3945 98.4501 97.1327 98.7304 97.7891 99.1537C98.4455 99.577 99.0055 100.134 99.4326 100.788C96.6168 100.394 93.4626 99.8001 89.6883 99.2723C65.7245 95.9211 61.5079 97.683 61.5079 97.683L117.224 105.475C117.224 105.475 114.442 106.582 101.178 105.338C101.784 109.09 101.498 112.931 100.343 116.552C96.9193 115.92 92.7125 115.21 87.5603 114.489C63.5965 111.138 59.3798 112.9 59.3798 112.9L115.096 120.692C115.096 120.692 112.28 121.825 98.631 120.496C98.1281 121.543 97.39 122.46 96.4742 123.174C95.5584 123.888 94.4898 124.381 93.3519 124.614C90.8657 124.266 88.0548 124.057 84.8796 123.612C53.2168 118.971 57.8389 112.562 57.8389 112.562ZM171.729 68.4161C174.352 68.9043 176.712 70.3182 178.379 72.4002C229.782 79.5886 289.993 80.1294 328.665 85.5375C367.336 90.9455 366.517 98.7714 366.517 98.7714C367.995 97.221 369.85 96.0811 371.902 95.4632C373.953 94.8452 376.129 94.7706 378.218 95.2465C386.156 96.3566 387.222 101.178 387.222 101.178C387.749 101.145 388.279 101.168 388.801 101.246C391.347 101.603 396.032 103.265 395.009 110.574C394.427 114.738 390.001 113.63 387.581 112.59L387.205 102.611L383.941 112.63C378.182 114.003 372.118 113.155 366.957 110.255L366.566 99.7252L363.302 109.744C359.592 110.722 349.3 112.031 323.449 108.416C290.32 103.783 192.534 85.6186 178.667 83.0075L178.301 73.3971L175.088 83.2705C171.58 84.0039 167.926 83.4929 164.754 81.8252L164.372 71.4492L161.367 80.7103C156.678 80.6043 141.967 80.3184 135.726 80.1786C135.785 79.7592 135.847 79.3099 135.906 78.8905L159.175 78.6935L136.526 75.9843C137.404 71.8924 138.132 67.9935 138.667 65.0447L147.783 65.3729L138.964 62.918C139.023 62.4986 139.073 62.1391 139.119 61.8096C147.865 63.7594 156.381 66.6291 164.523 70.3708C166.597 68.8422 169.167 68.1449 171.729 68.4161Z" fill="#B69D74" fill-opacity="0.2"/>
<path d="M210.713 87.092C219.038 88.7142 228.74 90.5291 239.17 92.3847L255.24 95.1818L271.862 97.9644L288.475 100.593C293.987 101.364 299.409 102.122 304.63 103.005C315.114 104.471 324.909 105.841 333.381 106.629C341.852 107.416 348.861 107.969 353.81 108.172C356.27 108.272 358.225 108.27 359.542 108.241C360.86 108.211 361.578 108.098 361.578 108.098C361.578 108.098 360.889 108.002 359.567 108.061C358.246 108.121 356.311 107.759 353.843 107.505C348.935 107.002 341.861 105.829 333.623 104.677C325.386 103.525 315.517 101.809 305.1 100.078L272.267 94.631C261.123 92.8589 249.988 91.0268 239.401 89.424C228.814 87.8213 219.185 86.3526 210.802 85.1497C202.419 83.9468 195.405 82.9966 190.523 82.3137L182.824 81.2372C182.824 81.2372 185.576 81.8664 190.417 82.8487C195.258 83.8311 202.385 85.4997 210.713 87.092Z" fill="#B69D74" fill-opacity="0.2"/>
<path d="M171.444 71.7662C171.757 71.7799 172.068 71.8234 172.372 71.8961L173.271 72.0217C173.84 72.1013 174.379 72.1767 174.834 72.4235L175.994 72.8606L176.354 73.1248C176.072 72.5809 175.682 72.1003 175.208 71.7123C175.004 71.5054 174.772 71.3289 174.518 71.1882C174.258 70.9549 173.967 70.7598 173.652 70.6091C172.985 70.3257 172.279 70.1447 171.559 70.072C170.843 69.9994 170.121 70.0217 169.412 70.1382C168.811 70.248 168.223 70.4218 167.659 70.6567C167.094 70.8765 166.566 71.1841 166.096 71.5681L167.833 71.5972C168.928 71.6282 170.212 71.6244 171.444 71.7662Z" fill="#B69D74" fill-opacity="0.2"/>
<path d="M67.1466 106.718L73.1375 107.555L79.1284 108.393C81.0156 108.657 82.808 108.724 84.3183 108.844C85.8287 108.964 87.1376 108.994 88.0147 109.056L89.4136 109.099L88.0608 108.726C87.1921 108.605 85.9376 108.185 84.4482 107.915C82.9589 107.646 81.2167 107.219 79.3337 106.925L73.3428 106.088L67.3518 105.25C65.4647 104.986 63.668 104.948 62.1619 104.799C60.6558 104.649 59.3426 104.649 58.4655 104.587L57.0325 104.57L58.4195 104.917C59.2882 105.038 60.5127 105.454 62.032 105.727C63.5514 106.001 65.2594 106.454 67.1466 106.718Z" fill="#B69D74" fill-opacity="0.2"/>
<path d="M78.0381 28.8352L84.029 29.673L90.02 30.5109C91.9071 30.7748 93.6996 30.8422 95.2057 30.9917C96.7118 31.1413 98.025 31.1417 98.9021 31.2032L100.305 31.2162L98.9272 31.0235C98.0585 30.902 96.804 30.4823 95.3188 30.183C93.8336 29.8836 92.0831 29.5167 90.2001 29.2228L84.2092 28.385L78.2182 27.5472C76.3311 27.2833 74.5386 27.2159 73.0325 27.0663C71.5264 26.9168 70.2132 26.9164 69.3319 26.8848L67.9241 26.6879L69.3319 26.8848C70.2006 27.0062 71.4252 27.4218 72.9403 27.7253C74.4555 28.0288 76.1509 28.5713 78.0381 28.8352Z" fill="#B69D74" fill-opacity="0.2"/>
<path d="M139.644 152.619C138.586 150.71 137.107 149.067 135.318 147.817C133.529 146.567 131.479 145.741 129.323 145.403L34.7855 132.183C32.6194 131.916 30.4211 132.147 28.3579 132.859C26.2948 133.571 24.4215 134.744 22.8806 136.29C10.0598 137.337 2.54697 158.52 1.72592 164.391C4.20224e-05 176.733 15.5765 178.911 20.6987 179.627L129.854 194.892C134.976 195.608 150.552 197.787 152.27 185.505C153.099 179.574 151.686 157.143 139.644 152.619ZM7.1441 161.026C7.50815 159.733 7.96625 158.423 8.45011 157.147C9.43293 154.596 10.6156 152.127 11.9872 149.762C13.3406 147.338 15.0596 145.137 17.0838 143.237C17.6025 142.756 18.1639 142.323 18.761 141.944C19.3463 141.531 19.9785 141.189 20.6443 140.925C21.3368 140.599 22.0677 140.363 22.8195 140.221C23.4193 140.143 24.0254 140.126 24.6287 140.169C26.1518 138.19 28.2688 136.752 30.6692 136.066C31.3221 135.906 31.9899 135.815 32.6617 135.795C33.3105 135.765 33.9606 135.795 34.604 135.883L38.1985 136.386C43.0212 137.06 47.844 137.735 52.6667 138.409L81.543 142.447L110.419 146.486C115.242 147.16 120.065 147.835 124.887 148.509L128.482 149.012C129.794 149.206 131.058 149.642 132.211 150.297C134.337 151.587 135.974 153.545 136.869 155.865C137.467 156.004 138.054 156.188 138.624 156.416C139.283 156.738 139.904 157.132 140.476 157.591C141.044 158.028 141.558 158.53 142.007 159.088C142.477 159.616 142.899 160.186 143.266 160.791C144.067 161.994 144.726 163.285 145.232 164.639C145.739 165.919 146.157 167.233 146.484 168.571C147.157 171.23 147.616 173.94 147.855 176.672C147.975 178.002 148.056 179.388 148.051 180.731C148.068 182.098 147.979 183.464 147.785 184.817C147.93 182.105 147.799 179.385 147.393 176.7C147.032 174.024 146.462 171.382 145.689 168.795C144.939 166.238 143.83 163.8 142.395 161.555C142.023 161.014 141.615 160.498 141.176 160.01C140.76 159.524 140.287 159.089 139.769 158.714C139.275 158.335 138.733 158.023 138.158 157.786C137.598 157.534 137.004 157.368 136.394 157.295L135.975 157.236L135.82 156.818C134.986 154.714 133.468 152.953 131.51 151.817C130.604 151.323 129.611 151.008 128.586 150.889C129.211 151.516 129.676 152.285 129.94 153.13C130.205 153.976 130.262 154.872 130.106 155.744L26.8521 141.304C26.8521 141.304 113.193 157.227 135.952 165.479L22.372 152.375L139.135 171.544C139.372 173.646 139.393 175.768 139.197 177.874L14.9152 163.548L137.815 183.606C137.815 183.606 137.815 183.606 137.79 183.786C116.432 185.166 72.418 179.744 8.55463 170.813C7.6865 170.161 7.01618 169.281 6.61825 168.271C6.22031 167.261 6.11036 166.161 6.30061 165.092C6.32439 164.821 6.36214 164.551 6.41372 164.283C6.616 163.186 6.87985 162.102 7.20401 161.034L7.1441 161.026Z" fill="#B69D74" fill-opacity="0.2"/>
</svg>
