<svg width="345" height="179" viewBox="0 0 345 179" fill="none" xmlns="http://www.w3.org/2000/svg">
<path d="M375.537 44.7341C373.945 43.1798 372.048 41.9738 369.965 41.1927C367.882 40.4116 365.659 40.0726 363.438 40.1972C359.588 40.0925 355.795 41.1462 352.55 43.2218C351.504 42.6039 350.412 42.068 349.283 41.6188C342.054 38.7756 329.865 37.354 312.988 37.354C294.659 37.354 271.853 39.0478 247.686 40.8324C219.89 42.9193 191.186 45.0366 164.086 45.1273C161.496 43.2421 158.395 42.1874 155.193 42.1027C152.36 42.1307 149.596 42.9819 147.239 44.5526C138.784 42.0292 130.065 40.4965 121.257 39.9855C119.926 39.9855 118.716 39.9855 117.597 40.1367C117.514 38.0384 116.758 36.0227 115.439 34.3883C114.121 32.7539 112.311 31.5878 110.278 31.0628C112.3 30.0028 113.981 28.3922 115.126 26.4172C116.271 24.4423 116.834 22.1835 116.75 19.902C116.795 17.4701 116.155 15.0746 114.903 12.9889C113.652 10.9032 111.84 9.21118 109.673 8.10598C109.673 7.86401 109.431 7.62204 109.28 7.38007C107.011 4.08324 101.385 0 76.7044 0C52.0236 0 46.4583 4.08324 44.2805 7.65229C44.1263 7.88097 43.9946 8.12408 43.8873 8.37819C41.7172 9.48201 39.9005 11.1728 38.6439 13.2582C37.3874 15.3436 36.7414 17.7398 36.7795 20.1742C36.6982 22.4589 37.2659 24.7198 38.4168 26.6951C39.5677 28.6704 41.2547 30.2792 43.2824 31.3351C41.1598 31.8884 39.2832 33.1358 37.9514 34.8787C36.6195 36.6216 35.9089 38.7599 35.9326 40.9533C35.9057 42.1513 36.1164 43.3428 36.5525 44.4589C36.9885 45.5751 37.6414 46.5938 38.4733 47.4563V71.6532C37.6414 72.5157 36.9885 73.5344 36.5525 74.6506C36.1164 75.7667 35.9057 76.9582 35.9326 78.1562C35.9119 80.3419 36.6247 82.4714 37.9572 84.2041C39.2896 85.9368 41.1647 87.1727 43.2824 87.714C41.25 88.7721 39.5598 90.3856 38.4086 92.3668C37.2573 94.3479 36.6924 96.6153 36.7795 98.905C36.7364 101.336 37.3806 103.731 38.6381 105.812C39.8955 107.894 41.715 109.578 43.8873 110.671C43.9942 110.935 44.1259 111.188 44.2805 111.427C46.3978 114.966 52.0236 119.079 76.7044 119.079C101.385 119.079 106.951 114.966 109.159 111.427C109.159 111.185 109.431 110.913 109.552 110.671C111.721 109.576 113.536 107.891 114.788 105.809C116.041 103.727 116.679 101.334 116.629 98.905C116.719 96.6185 116.159 94.3533 115.013 92.3725C113.868 90.3916 112.184 88.7763 110.157 87.714C112.277 87.1705 114.152 85.929 115.48 84.1895C116.807 82.4501 117.511 80.314 117.476 78.1259C117.487 77.4144 117.416 76.704 117.265 76.0087C118.444 76.0087 119.745 76.1599 121.136 76.1599C129.941 75.6424 138.658 74.1202 147.118 71.623C149.485 73.1705 152.244 74.01 155.072 74.0427C158.277 73.9734 161.382 72.9172 163.965 71.0181C191.186 71.0181 219.769 73.2563 247.565 75.313C271.762 77.0975 294.538 78.8216 312.867 78.8216C329.714 78.8216 341.903 77.3698 349.162 74.5266C350.296 74.0898 351.389 73.5534 352.429 72.9236C355.674 74.9992 359.467 76.0529 363.317 75.9482C365.538 76.0728 367.761 75.7338 369.844 74.9527C371.927 74.1716 373.824 72.9655 375.416 71.4113C380.951 71.0483 387 67.3885 387 58.0424C387 48.6964 381.102 45.0971 375.537 44.7341ZM48.394 106.89C46.5478 106.479 44.8959 105.453 43.709 103.98C42.5221 102.508 41.8704 100.675 41.8608 98.7841C41.7376 97.0112 42.2946 95.258 43.4184 93.8813C44.5423 92.5047 46.1484 91.608 47.9101 91.3737C47.9101 87.472 50.9347 87.2905 50.9347 87.2905H73.8916C73.8916 87.2905 66.33 83.6307 50.9347 83.6307C43.3429 83.6307 40.9534 81.09 40.9534 78.0049C40.9118 77.1622 41.1342 76.3275 41.5897 75.6172C42.0451 74.9069 42.7109 74.3565 43.4941 74.0427H79.0334C79.0334 74.0427 43.5546 71.2903 43.5546 65.483V53.3845C43.5546 48.1217 79.0334 44.8249 79.0334 44.8249L43.5546 44.8249C42.7764 44.5127 42.1142 43.967 41.6592 43.2628C41.2041 42.5586 40.9787 41.7305 41.0139 40.8929C41.0139 37.8682 43.4034 35.2671 50.9952 35.2671C66.3905 35.2671 73.952 31.6073 73.952 31.6073L50.9952 31.6073C50.9952 31.6073 47.9706 31.4258 47.9706 27.524C46.2089 27.2898 44.6027 26.3931 43.4789 25.0164C42.3551 23.6398 41.7981 21.8866 41.9213 20.1137C41.9533 18.2476 42.6075 16.4457 43.7801 14.9936C44.9527 13.5416 46.5765 12.5227 48.394 12.0985C48.394 12.0985 44.704 5.14185 76.7044 5.14185C79.9105 5.14185 82.7537 5.14185 85.2339 5.32333C86.3464 5.71002 87.3571 6.34354 88.1899 7.17642C89.0228 8.00929 89.6563 9.0199 90.043 10.1325C86.7462 9.98124 82.8142 9.8905 78.0958 9.8905C53.8988 9.8905 49.9668 12.2195 49.9668 12.2195L106.225 12.2195C106.225 12.2195 103.775 13.6108 91.3436 14.246C92.0997 17.9686 92.0997 21.8052 91.3436 25.5278C87.835 25.3766 83.5098 25.2556 78.2168 25.2556C54.0198 25.2556 50.0878 27.5845 50.0878 27.5845L106.346 27.5845C106.346 27.5845 103.684 29.0968 89.9523 29.6715C89.4974 30.9334 88.6812 32.0335 87.6056 32.8348C86.5299 33.6362 85.2423 34.1034 83.903 34.1782C83.903 34.1782 84.8104 34.6924 85.7178 37.838L77.8236 37.838C50.118 37.838 45.4904 40.1669 45.4904 40.1669L110.096 40.1669C110.096 40.1669 106.467 41.9515 86.5949 42.4052C87.3102 47.3237 87.6841 52.2859 87.7141 57.256C85.869 57.256 83.7518 57.256 81.4229 57.256C63.0029 57.256 59.9178 59.585 59.9178 59.585L102.837 59.585C102.837 59.585 100.478 61.3695 87.7141 61.8232C87.6966 66.6132 87.424 71.3989 86.8974 76.1599C84.2055 76.1599 81.2111 76.1599 77.8236 76.1599C50.118 76.1599 45.4904 78.4889 45.4904 78.4889H110.096C110.096 78.4889 106.406 80.3339 86.0808 80.7271C85.8106 83.1348 85.0488 85.4614 83.8425 87.5627C84.6235 87.5739 85.3934 87.7494 86.1021 88.0777C86.8108 88.4059 87.4425 88.8797 87.956 89.4682C85.1129 89.4682 81.9068 89.317 78.0958 89.317C53.8988 89.317 49.9668 91.646 49.9668 91.646H106.225C106.225 91.646 103.624 93.128 90.3152 93.7329C91.435 97.3645 91.6837 101.209 91.0411 104.954C87.5628 104.803 83.2981 104.682 78.0958 104.682C53.8988 104.682 49.9668 107.011 49.9668 107.011H106.225C106.225 107.011 103.593 108.523 89.8918 109.098C89.5388 110.204 88.9346 111.214 88.1266 112.049C87.3186 112.883 86.3285 113.519 85.2339 113.907C82.7234 113.907 79.9105 114.089 76.7044 114.089C44.704 113.877 48.394 106.89 48.394 106.89ZM155.072 47.3958C157.737 47.516 160.27 48.5894 162.21 50.4204C214.113 50.4204 273.819 42.6169 312.867 42.6169C351.915 42.6169 352.187 50.4809 352.187 50.4809C353.436 48.7407 355.116 47.3547 357.062 46.4587C359.007 45.5626 361.153 45.1873 363.287 45.3693C371.302 45.3693 373.026 49.997 373.026 49.997C373.544 49.8911 374.071 49.8404 374.599 49.8457C377.17 49.8457 382.04 50.8438 382.04 58.2239C382.04 62.4281 377.503 61.9442 374.962 61.2485L373.208 51.4185L371.363 61.793C365.85 63.9502 359.726 63.9502 354.213 61.793L352.368 51.4185L350.523 61.793C346.984 63.275 336.973 65.9972 310.87 65.9972C277.418 65.9972 178.059 61.551 163.965 60.8856L162.271 51.4185L160.456 61.6417C157.083 62.8539 153.394 62.8539 150.021 61.6417L148.206 51.4185L146.513 61.0066C141.855 61.551 127.246 63.3053 121.045 64.0312C121.045 63.6077 121.045 63.154 121.045 62.7306L144.063 59.3128L121.257 59.7665C121.56 55.5925 121.741 51.6302 121.862 48.6359L130.936 47.6982L121.862 46.4884C121.862 46.0649 121.862 45.702 121.862 45.3693C130.794 46.089 139.624 47.7517 148.206 50.3297C150.048 48.5286 152.498 47.482 155.072 47.3958Z" fill="#B69D74" fill-opacity="0.2"/>
<path d="M196.268 60.4922C204.737 60.9459 214.597 61.3996 225.183 61.7928L241.486 62.3372L258.333 62.7909L275.15 63.0933C280.715 63.0933 286.19 63.0933 291.483 63.2446C302.069 63.2446 311.959 63.2446 320.459 62.8514C328.958 62.4582 335.975 62.0347 340.905 61.5508C343.355 61.3088 345.291 61.0366 346.591 60.8249C347.892 60.6132 348.588 60.4014 348.588 60.4014C348.588 60.4014 347.892 60.4014 346.591 60.6434C345.291 60.8854 343.325 60.7946 340.844 60.8854C335.914 61.0668 328.746 60.8854 320.428 60.8854C312.111 60.8854 302.099 60.5527 291.543 60.2804L258.272 59.4335C246.991 59.2218 235.709 58.9496 225.002 58.8286C214.294 58.7076 204.555 58.5867 196.086 58.5564C187.617 58.5262 180.54 58.5564 175.61 58.5564H167.836C167.836 58.5564 170.649 58.7984 175.579 59.1008C180.509 59.4033 187.799 60.0687 196.268 60.4922Z" fill="#B69D74" fill-opacity="0.2"/>
<path d="M155.254 50.7528C155.566 50.723 155.88 50.723 156.192 50.7528H157.099C157.674 50.7528 158.218 50.7528 158.702 50.9343L159.912 51.2065L160.305 51.4182C159.95 50.9187 159.498 50.4968 158.974 50.1781C158.744 50.0014 158.489 49.8588 158.218 49.7547C157.929 49.5595 157.613 49.4068 157.28 49.301C156.581 49.1127 155.857 49.0312 155.133 49.059C154.414 49.0863 153.702 49.2083 153.016 49.422C152.436 49.614 151.878 49.8675 151.352 50.1781C150.822 50.4742 150.343 50.8519 149.931 51.2973L151.655 51.0855C152.743 50.9645 154.014 50.7831 155.254 50.7528Z" fill="#B69D74" fill-opacity="0.2"/>
<path d="M264.11 47.759L277.357 47.3053C282.197 47.1239 287.339 46.9726 292.48 46.8516C297.622 46.7307 302.794 46.5189 307.604 46.3979L320.851 46.035L333.767 45.672L330.288 45.3696C328.02 45.3696 324.783 45.0974 320.912 45.0369C317.04 44.9764 312.503 44.8554 307.664 44.8856C302.825 44.9159 297.622 44.8856 292.541 45.0974C287.46 45.3091 282.227 45.5208 277.418 45.793C272.609 46.0652 268.072 46.4282 264.2 46.7609C260.329 47.0936 257.123 47.4566 254.884 47.6985L251.346 48.122H254.915L264.11 47.759Z" fill="#B69D74" fill-opacity="0.2"/>
<path d="M56.8025 99.8126H62.8517H68.901C70.8065 99.8126 72.591 99.6312 74.1033 99.5404C75.6156 99.4497 76.9162 99.2985 77.7933 99.238L79.1847 99.0867L77.7933 98.9053C76.9162 98.9053 75.6156 98.6633 74.1033 98.6028C72.591 98.5423 70.8065 98.3608 68.901 98.3306H62.8517H56.8025C54.897 98.3306 53.1124 98.5423 51.6001 98.6028C50.0878 98.6633 48.7872 98.8448 47.9101 98.9053L46.4885 99.0867L47.9101 99.238C48.7872 99.238 50.0576 99.4799 51.6001 99.5404C53.1427 99.6009 54.897 99.8126 56.8025 99.8126Z" fill="#B69D74" fill-opacity="0.2"/>
<path d="M56.8025 21.1722H62.8517L68.901 21.1722C70.8065 21.1722 72.591 20.9907 74.1033 20.9302C75.6156 20.8697 76.9162 20.6882 77.7933 20.6277L79.1847 20.4463H77.7933C76.9162 20.4463 75.6156 20.2043 74.1033 20.1136C72.591 20.0228 70.8065 19.9018 68.901 19.8716L62.8517 19.8716H56.8025C54.897 19.8716 53.1124 20.0531 51.6001 20.1136C50.0878 20.174 48.7872 20.3555 47.9101 20.4463H46.4885H47.9101C48.7872 20.4463 50.0576 20.6882 51.6001 20.779C53.1427 20.8697 54.897 21.1722 56.8025 21.1722Z" fill="#B69D74" fill-opacity="0.2"/>
<path d="M134.958 135.231C133.647 133.487 131.954 132.065 130.009 131.074C128.064 130.084 125.919 129.55 123.737 129.514H28.2802C26.098 129.55 23.9529 130.084 22.0082 131.074C20.0636 132.065 18.3708 133.487 17.0589 135.231C4.50668 138.044 0 160.063 0 165.991C0 178.452 15.728 178.452 20.9001 178.452H131.117C136.289 178.452 152.017 178.452 152.017 166.052C152.017 160.063 147.511 138.044 134.958 135.231ZM4.89988 161.908C5.08136 160.577 5.35358 159.216 5.65604 157.885C6.2761 155.223 7.1054 152.613 8.13623 150.082C9.14084 147.493 10.5385 145.076 12.28 142.913C12.7271 142.365 13.2232 141.859 13.762 141.401C14.2845 140.911 14.8632 140.484 15.486 140.131C16.1268 139.712 16.8179 139.377 17.5428 139.132C18.1261 138.972 18.7239 138.871 19.3273 138.83C20.5617 136.66 22.4592 134.942 24.7414 133.93C25.3658 133.681 26.0146 133.499 26.6771 133.386C27.3156 133.267 27.9635 133.206 28.6129 133.204H32.2424C37.1121 133.204 41.9817 133.204 46.8513 133.204H76.0087H105.166C110.036 133.204 114.905 133.204 119.775 133.204H123.404C124.731 133.215 126.043 133.471 127.276 133.96C129.559 134.944 131.452 136.657 132.66 138.83C133.272 138.885 133.878 138.986 134.475 139.132C135.172 139.36 135.841 139.664 136.471 140.04C137.094 140.394 137.672 140.82 138.195 141.31C138.734 141.768 139.23 142.275 139.677 142.822C140.637 143.903 141.469 145.09 142.157 146.361C142.837 147.559 143.433 148.802 143.942 150.082C144.977 152.622 145.806 155.242 146.422 157.915C146.724 159.216 146.996 160.577 147.178 161.908C147.384 163.259 147.485 164.624 147.48 165.991C147.249 163.285 146.742 160.61 145.968 158.006C145.24 155.407 144.309 152.869 143.185 150.414C142.089 147.985 140.653 145.725 138.921 143.7C138.477 143.216 138.002 142.761 137.499 142.339C137.02 141.915 136.492 141.549 135.926 141.25C135.385 140.943 134.805 140.709 134.202 140.554C133.613 140.382 133.001 140.3 132.388 140.312H131.964L131.752 139.919C130.635 137.951 128.888 136.417 126.792 135.563C125.826 135.2 124.799 135.025 123.767 135.049C124.473 135.584 125.04 136.281 125.419 137.081C125.798 137.882 125.979 138.762 125.945 139.647H21.6865C21.6865 139.647 109.4 143.458 133.083 148.479L18.7829 151.231L137.076 154.044C137.602 156.093 137.916 158.191 138.013 160.305L12.9454 163.329L137.439 166.173C137.439 166.173 137.439 166.173 137.439 166.354C116.478 170.679 72.1372 171.405 7.65229 171.405C6.70226 170.88 5.91655 170.101 5.38257 169.156C4.84859 168.211 4.58727 167.136 4.62767 166.052C4.61363 165.78 4.61363 165.507 4.62767 165.235C4.67607 164.121 4.78715 163.01 4.96038 161.908H4.89988Z" fill="#B69D74" fill-opacity="0.2"/>
</svg>
