<svg width="1920" height="1104" viewBox="0 0 1920 1104" fill="none" xmlns="http://www.w3.org/2000/svg">
<path d="M87.2009 863.331C97.0587 863.331 107.355 864.098 117.651 864.098H149.196H180.632C191.585 864.098 201.224 864.098 211.081 863.331C230.907 862.674 249.308 861.798 265.19 860.593C296.735 858.512 317.875 855.554 317.875 855.554C317.875 855.554 296.735 852.597 265.19 850.516C249.308 849.311 230.907 848.435 211.081 847.777C201.224 847.777 191.037 847.011 180.632 847.011H149.196H117.651C107.355 847.011 97.0587 847.011 87.2009 847.777C67.4851 848.435 48.9743 849.42 33.2017 850.516C1.54696 852.597 -19.4832 855.554 -19.4832 855.554C-19.4832 855.554 1.54696 858.512 33.2017 860.593C48.9743 861.798 67.4851 862.674 87.2009 863.331Z" fill="#F8F6F2"/>
<path d="M1675.19 234.617H1697.65V194.529L958.417 0L227.73 194.529V234.617H250.184V374.928H-53V1103.2H2020V374.928H1675.19V234.617ZM958.417 23.1112L1658.76 207.344H258.07L958.417 23.1112ZM1352.07 765.19L1353.94 822.146L1304.54 819.846V767.38L1352.07 765.19ZM1304.54 755.77V713.929H1350.43L1351.86 757.741L1304.54 755.77ZM1354.16 829.156L1356.02 886.332L1304.54 883.922V831.456L1354.16 829.156ZM1355.91 893.232L1352.95 950.189L1304.54 947.998V895.533L1355.91 893.232ZM1370.91 592.458C1346.27 590.924 1310.78 589.062 1268.17 587.419L1241.01 586.434H1371.24L1370.91 592.458ZM1268.17 602.644C1310.67 601.111 1345.94 599.139 1370.7 597.715L1365.88 690.817H1281.1V1000.57L1255.69 999.478L1241.56 603.63L1268.17 602.644ZM1304.21 996.959V959.609L1352.29 957.418L1350.54 996.74L1304.21 996.959ZM1435.65 1013.72H1463.14H1436.63H1435.65ZM1463.8 992.468L1442.99 585.995H1475.85L1463.8 992.468ZM1584.28 422.903V423.998H1472.23V405.268H1584.5V406.582L1478.69 415.016L1584.28 422.903ZM1489.43 449.738H1553.07L1570.15 1015.03H1471.57L1489.43 449.738ZM1569.06 556.86C1568.51 532.653 1568.51 512.39 1568.29 498.26V476.354L1569.93 498.26C1570.81 512.39 1572.45 532.434 1573.77 556.641C1575.08 580.847 1576.94 609.107 1578.26 639.337C1579.57 669.568 1581.11 701.88 1582.53 734.192C1583.95 766.504 1584.61 798.706 1585.6 829.047C1586.58 859.387 1587.02 887.537 1587.57 911.743C1588.12 935.95 1587.57 956.213 1588.23 970.343C1588.88 984.472 1588.23 992.249 1588.23 992.249C1588.23 992.249 1587.57 984.144 1586.47 970.343C1585.38 956.542 1584.06 936.059 1582.64 911.853C1581.22 887.646 1579.57 859.496 1578.15 829.156C1576.72 798.816 1575.41 766.614 1573.99 734.411C1572.56 702.209 1571.8 669.787 1570.81 639.557C1569.82 609.326 1569.82 581.505 1569.28 557.298L1569.06 556.86ZM269.243 380.733V235.932H1647.59V380.733H269.243ZM968.823 765.19L970.685 822.146L920.738 819.736V767.38L968.823 765.19ZM920.738 755.77V713.929H967.18L968.604 757.741L920.738 755.77ZM970.904 829.266L972.766 886.441L920.738 883.922V831.456L970.904 829.266ZM972.985 893.232L974.737 949.094V950.627L920.738 948.108V895.642L972.985 893.232ZM979.009 867.054L980.214 828.828H980.871L979.009 867.054ZM980.433 822.694L982.295 764.642H984.157L981.2 822.803L980.433 822.694ZM982.514 758.618L983.938 714.038H986.786L984.486 758.727L982.514 758.618ZM987.991 690.927H897.627V994.111H878.788L865.096 607.792H874.297H958.417H992.153L987.991 690.927ZM920.738 959.718L974.409 957.199L972.437 993.892H958.417H920.738V959.718ZM1085.04 976.586L1066.09 607.573H1096.43L1085.04 976.586ZM1204.75 423.341V424.436H1092.7V405.268H1204.97V406.582L1099.17 415.016L1204.75 423.341ZM1109.79 450.176H1173.76L1190.84 1015.47H1092.27L1109.79 450.176ZM1188.87 557.517C1188.32 533.201 1188.32 513.047 1188.22 498.918C1188.11 484.788 1188.22 477.011 1188.22 477.011L1189.97 498.918C1190.84 513.047 1192.49 533.201 1193.8 557.408C1195.12 581.614 1196.98 609.873 1198.29 640.104C1199.61 670.335 1201.03 702.647 1202.45 734.849C1203.88 767.052 1204.64 799.473 1205.63 829.704C1206.62 859.935 1206.95 888.303 1207.49 912.51C1208.04 936.716 1207.49 956.98 1208.26 971.109V993.016C1208.26 993.016 1207.6 984.911 1206.62 971.109C1205.63 957.308 1204.1 936.936 1202.78 912.729C1201.47 888.522 1199.61 860.263 1198.29 830.032C1196.98 799.802 1195.44 767.49 1194.02 735.178C1192.6 702.866 1191.94 670.664 1190.84 640.323C1189.75 609.983 1189.64 581.724 1189.09 557.517H1188.87ZM596.414 950.737H591.924L593.786 893.123H599.372L596.414 950.737ZM594.005 886.551L595.867 828.718H602.658L599.7 887.208L594.005 886.551ZM596.086 822.584L597.948 764.532H605.944L602.986 823.242L596.086 822.584ZM598.167 758.508L599.591 713.929H608.463L606.163 758.946L598.167 758.508ZM615.144 588.843C549.425 591.801 507.584 595.087 507.584 595.087C507.584 595.087 549.206 598.373 614.487 601.22L609.887 690.817H513.827V1014.05H499.588L484.363 586.215H615.144V588.843ZM584.475 765.19L586.337 822.146L536.939 819.846V767.38L584.475 765.19ZM536.939 755.77V713.929H582.832L584.256 757.741L536.939 755.77ZM586.557 829.156L588.419 886.332L536.939 883.922V831.456L586.557 829.156ZM588.638 893.123L590.5 950.517L536.939 947.998V895.533L588.638 893.123ZM536.939 959.609L590.719 957.199V972.424V957.089H595.1L594.005 996.74H536.939V959.609ZM706.165 960.594L687.873 604.068L716.571 604.944L706.165 960.594ZM825.336 423.341V424.436H713.066V405.268H825.336V406.582L719.528 415.016L825.336 423.341ZM730.481 450.176H794.119L811.206 1015.47H712.628L730.481 450.176ZM810.549 547.659C809.892 522.248 809.892 500.889 809.673 485.993C809.454 471.097 809.673 462.663 809.673 462.663C809.673 462.663 810.33 471.097 811.425 485.993C812.521 500.889 814.054 522.029 815.369 547.55C816.683 573.071 818.655 602.316 820.078 634.518C821.502 666.72 822.926 700.237 824.46 734.302C825.993 768.366 826.76 802.321 827.746 834.195C828.732 866.068 829.279 895.861 829.827 921.82C830.374 947.779 830.484 968.59 830.703 983.487V1006.93C830.703 1006.93 830.046 998.383 828.951 983.596C827.855 968.809 826.322 947.56 825.007 922.039C823.693 896.518 821.721 867.273 820.298 834.414C818.874 801.554 817.45 768.695 815.916 734.63C814.383 700.566 813.616 666.72 812.63 634.847C811.644 602.973 811.097 573.618 810.549 547.659ZM448.327 1006.82C448.327 1006.82 447.67 998.273 446.575 983.487C445.479 968.7 443.946 947.451 442.632 921.93C441.317 896.409 439.346 867.164 437.922 834.304C436.498 801.445 434.964 768.585 433.54 734.521C432.117 700.456 431.24 666.611 430.145 634.737C429.05 602.863 428.721 573.071 428.064 547.112C427.407 521.153 427.516 500.342 427.297 485.445C427.078 470.549 427.297 462.115 427.297 462.115C427.297 462.115 427.954 470.549 429.05 485.445C430.145 500.342 431.678 521.481 432.993 547.002C434.307 572.523 436.279 601.768 437.703 633.97C439.127 666.173 440.551 699.69 442.084 733.754C443.617 767.818 444.384 801.773 445.37 833.647C446.356 865.521 446.794 895.313 447.451 921.272C448.108 947.232 448.108 968.043 448.327 982.939V1006.82ZM333.538 405.268H445.808V406.582L340 415.016L445.808 423.341V424.436H333.538V405.268ZM414.482 450.176L431.569 1015.47H332.99L350.844 450.176H414.482ZM1674.1 1026.31V1041.21H242.736V1026.31H1674.1ZM-34.5986 393.329H241.641V407.349L214.805 406.254C204.948 406.254 194.652 405.487 184.356 405.487H152.81H121.375C110.969 405.487 100.783 405.487 90.9249 406.144C71.0996 406.801 52.6982 407.787 36.8161 408.882C5.27095 410.964 -15.8687 413.921 -15.8687 413.921C-15.8687 413.921 5.27095 416.878 36.8161 418.959C52.6982 420.164 71.0996 421.04 90.9249 421.698C100.783 421.698 110.969 422.464 121.375 422.464H152.81H184.356C194.652 422.464 204.948 422.464 214.805 421.698C234.521 421.698 253.032 420.164 268.805 419.069C284.577 417.974 297.611 416.769 306.922 415.783H324.885V427.941L326.637 430.241L342.191 451.162V452.805H-34.5986V393.329ZM33.2016 1046.58C48.9742 1047.67 67.485 1048.66 87.2008 1049.21C97.0587 1049.21 107.355 1049.97 117.651 1049.97H149.196H174.607V1084.37H-34.5986V986.882V955.994V470.987H341.315L324.885 1014.05H231.783V1034.53L210.862 1033.65C201.004 1033.65 190.818 1032.99 180.412 1032.99H148.977H117.432C107.136 1032.99 96.8396 1032.99 86.9817 1033.76C67.266 1034.31 48.7551 1035.3 32.9825 1036.39C1.3278 1038.58 -19.7023 1041.54 -19.7023 1041.54C-19.7023 1041.54 1.76593 1044.5 33.2016 1046.58ZM1728.86 1086.78H187.313V1052.49H1728.86V1086.78ZM1738.61 444.918H1742.56C1752.41 444.918 1762.71 445.685 1773.01 445.685H1804.55H1835.99C1846.39 445.685 1856.58 445.137 1866.44 444.918C1886.26 444.261 1904.66 443.275 1920.44 442.18C1952.09 440.099 1973.23 437.142 1973.23 437.142C1973.23 437.142 1952.09 434.075 1920.44 431.994C1904.66 430.898 1886.26 429.913 1866.44 429.365C1856.58 429.365 1846.39 428.598 1835.99 428.598H1804.55H1773.01C1762.71 428.598 1752.41 429.146 1742.56 429.365H1738.61V421.698H1742.56C1752.41 421.698 1762.71 422.464 1773.01 422.464H1804.55H1835.99C1846.39 422.464 1856.58 422.464 1866.44 421.698C1886.26 421.698 1904.66 420.164 1920.44 419.069C1952.09 416.988 1973.23 413.921 1973.23 413.921C1973.23 413.921 1952.09 410.964 1920.44 408.882C1904.66 407.787 1886.26 406.801 1866.44 406.144C1856.58 406.144 1846.39 405.377 1835.99 405.377H1804.55H1773.01C1762.71 405.377 1752.41 405.377 1742.56 406.035H1738.61V392.891H1984.29V452.476H1738.61V444.918ZM1984.29 470.987V1084.37H1791.52V1050.19H1811.56C1822.51 1050.19 1852.85 1050.19 1862.82 1049.53C1882.54 1048.88 1900.94 1047.89 1916.82 1046.8C1948.48 1044.71 1969.51 1041.76 1969.51 1041.76C1969.51 1041.76 1948.48 1038.69 1916.82 1036.61C1900.94 1035.51 1882.54 1034.53 1862.82 1033.87C1852.85 1033.87 1842.67 1033.21 1832.26 1033.21H1800.83H1769.39C1758.99 1033.21 1748.8 1033.21 1738.83 1033.98C1719.12 1034.53 1700.71 1035.51 1684.83 1036.61V1014.7L1679.68 861.359H1684.83C1700.61 862.563 1719.12 863.44 1738.83 864.097C1748.8 864.097 1758.99 864.864 1769.39 864.864H1800.83H1832.26C1842.67 864.864 1852.85 864.864 1862.82 864.097C1882.54 863.44 1900.94 862.563 1916.82 861.359C1948.48 859.277 1969.51 856.32 1969.51 856.32C1969.51 856.32 1948.48 853.363 1916.82 851.282C1900.94 850.077 1882.54 849.201 1862.82 848.543C1852.85 848.543 1842.67 847.777 1832.26 847.777H1800.83H1769.39C1758.99 847.777 1748.8 847.777 1738.83 848.543C1719.12 849.201 1700.61 850.186 1684.83 851.282H1679.47L1677.6 801.992H1794.04V501.546H1676.4V761.465L1666.65 470.987H1984.29ZM1732.37 654.124L1734.45 784.905H1693.16V655.439L1732.37 654.124ZM1693.16 647.881V519.071H1730.29L1732.37 649.086L1693.16 647.881ZM1776.07 652.262V784.467H1734.78L1736.75 653.029L1776.07 652.262ZM1736.86 649.743L1738.83 519.51H1776.07V650.948L1736.86 649.743Z" fill="#F8F6F2"/>
<path d="M991.167 47.9733L958.307 39.3203L438.907 176.016H1419.22L991.167 47.9733ZM1100.7 104.82L1114.06 105.697L1100.7 106.573C1092.16 106.573 1080 107.887 1065.32 108.325C1050.64 108.764 1033.67 109.53 1015.48 109.859C997.301 110.187 977.695 109.859 958.198 110.406C938.701 110.954 919.205 110.406 900.913 109.859C882.621 109.311 865.643 108.764 850.966 108.325H846.475L867.067 102.52C878.021 102.52 888.974 101.753 901.132 101.534C919.424 101.534 938.92 101.534 958.417 101.534C977.914 101.534 997.41 101.534 1015.7 101.534C1033.99 101.534 1050.97 102.63 1065.54 103.068C1080.11 103.506 1092.37 104.382 1100.92 104.82H1100.7ZM1005.41 74.8086C993.248 75.6849 977.366 76.3421 961.593 76.4516L987.552 69.2225C994.124 69.2225 1000.37 69.8797 1005.84 70.3178C1018.66 71.3036 1027.2 72.5085 1027.2 72.5085C1027.2 72.5085 1018.44 73.7133 1005.63 74.8086H1005.41ZM1161.82 145.457C1134.11 145.457 1101.68 146.881 1066.96 147.209C1032.24 147.538 995.22 147.866 958.198 147.976L849.433 147.209C814.711 147.209 782.29 145.895 754.578 145.457C740.339 145.457 727.305 144.69 715.804 144.252L733.219 139.432H755.126C782.837 139.432 815.259 137.789 849.98 137.57L958.746 136.804C995.767 136.804 1032.79 136.804 1067.51 137.57C1102.23 138.337 1134.65 138.885 1162.37 139.323C1190.08 139.761 1213.3 141.075 1229.51 141.514L1254.92 142.609L1229.51 143.704C1212.97 143.814 1189.86 144.909 1162.04 145.457H1161.82Z" fill="#F8F6F2"/>
<path d="M1529.19 987.761C1529.19 972.536 1530.39 950.958 1530.83 924.999C1531.27 899.04 1531.93 868.7 1532.15 836.279C1532.36 803.857 1532.15 769.245 1532.69 734.633C1533.24 700.021 1532.69 665.299 1532.15 632.878C1531.6 600.456 1531.16 570.116 1530.83 544.157C1530.5 518.198 1529.63 496.62 1529.19 481.395L1528.42 457.627C1528.42 457.627 1528.42 466.28 1527.54 481.395C1526.67 496.511 1526.34 518.198 1526.01 544.157C1525.68 570.116 1524.81 600.456 1524.7 632.878C1524.59 665.299 1524.7 700.021 1524.04 734.633C1523.38 769.245 1524.04 803.857 1524.7 836.279C1525.35 868.7 1525.57 899.04 1526.01 924.999C1526.45 950.958 1527.22 972.536 1527.54 987.761C1527.87 1002.99 1528.42 1011.53 1528.42 1011.53L1529.19 987.761Z" fill="#F8F6F2"/>
<path d="M1513.96 457.627C1513.96 457.627 1513.96 466.28 1513.09 481.395C1512.21 496.511 1511.66 518.198 1511.01 544.157C1510.35 570.116 1509.69 600.456 1508.92 632.878C1508.16 665.299 1507.83 699.911 1507.17 734.523C1506.51 769.136 1506.62 803.748 1506.4 836.279C1506.19 868.81 1506.4 899.04 1506.4 924.999C1506.4 950.958 1506.4 972.536 1506.95 987.761C1507.5 1002.99 1506.95 1011.53 1506.95 1011.53L1507.83 987.761C1507.83 972.536 1509.03 950.958 1509.8 924.999C1510.57 899.04 1511.22 868.81 1511.99 836.279C1512.76 803.748 1513.09 769.245 1513.63 734.633C1514.18 700.021 1514.29 665.409 1514.51 632.878C1514.73 600.347 1514.51 570.226 1514.51 544.267C1514.51 518.308 1514.51 496.62 1514.51 481.505C1514.51 466.39 1513.96 457.627 1513.96 457.627Z" fill="#F8F6F2"/>
<path d="M1542.55 734.633C1543.21 769.245 1543.76 803.857 1544.74 836.388C1545.73 868.919 1546.93 899.04 1547.81 924.999C1548.68 950.958 1550.22 972.646 1550.88 987.761C1551.53 1002.88 1552.3 1011.53 1552.3 1011.53C1552.3 1011.53 1552.3 1002.88 1553.07 987.652C1553.83 972.427 1554.05 950.849 1554.16 924.89C1554.27 898.931 1554.71 868.7 1554.16 836.169C1553.61 803.638 1554.16 769.136 1553.28 734.523C1552.41 699.911 1552.08 665.299 1551.09 632.768C1550.11 600.237 1548.79 570.116 1547.92 544.157C1547.04 518.198 1545.62 496.62 1544.96 481.395C1544.3 466.17 1543.54 457.627 1543.54 457.627C1543.54 457.627 1543.54 466.28 1542.77 481.505C1542 496.73 1541.78 518.308 1541.67 544.267C1541.56 570.226 1541.02 600.566 1541.67 632.987C1542.33 665.409 1542.11 700.021 1542.55 734.633Z" fill="#F8F6F2"/>
<path d="M1149.66 987.761C1149.66 972.536 1150.86 950.958 1151.19 924.999C1151.52 899.04 1152.4 868.7 1152.51 836.279C1152.62 803.857 1152.51 769.245 1153.16 734.633C1153.82 700.021 1153.16 665.299 1152.51 632.878C1151.85 600.456 1151.63 570.116 1151.19 544.157C1150.76 518.198 1149.99 496.62 1149.66 481.395C1149.33 466.17 1148.78 457.627 1148.78 457.627C1148.78 457.627 1148.78 466.28 1148.02 481.395C1147.25 496.511 1146.81 518.198 1146.37 544.157C1145.94 570.116 1145.17 600.456 1145.06 632.878C1144.95 665.299 1145.06 700.021 1145.06 734.633C1145.06 769.245 1145.06 803.857 1145.06 836.279C1145.06 868.7 1146.05 899.04 1146.37 924.999C1146.7 950.958 1147.58 972.536 1148.02 987.761L1148.78 1011.53L1149.66 987.761Z" fill="#F8F6F2"/>
<path d="M1134.33 457.627L1133.45 481.943C1133.45 497.168 1132.03 518.746 1131.48 544.705C1130.93 570.664 1130.05 601.004 1129.29 633.426C1128.52 665.847 1128.19 700.459 1127.64 735.071C1127.1 769.683 1127.1 804.295 1126.77 836.826C1126.44 869.357 1126.77 899.588 1126.77 925.547C1126.77 951.506 1126.77 973.084 1126.77 988.309V1012.08C1126.77 1012.08 1126.77 1003.42 1127.64 988.309C1128.52 973.193 1128.85 951.506 1129.72 925.547C1130.6 899.588 1131.04 869.357 1131.81 836.826C1132.57 804.295 1132.9 769.793 1133.56 735.181C1134.22 700.569 1134.11 665.957 1134.43 633.426C1134.76 600.895 1134.43 570.773 1134.43 544.814C1134.43 518.855 1134.43 497.168 1134.43 482.053L1134.33 457.627Z" fill="#F8F6F2"/>
<path d="M1162.8 734.633C1163.46 769.245 1164.12 803.857 1164.99 836.388C1165.87 868.919 1167.29 899.04 1168.17 924.999C1169.05 950.958 1170.47 972.646 1171.13 987.761C1171.79 1002.88 1172.66 1011.53 1172.66 1011.53C1172.66 1011.53 1172.66 1002.88 1173.32 987.652C1173.98 972.427 1174.3 950.849 1174.41 924.89C1174.52 898.931 1175.07 868.7 1174.41 836.169C1173.76 803.638 1174.41 769.136 1173.65 734.523C1172.88 699.911 1172.33 665.299 1171.35 632.768C1170.36 600.237 1169.16 570.116 1168.28 544.157C1167.4 518.198 1165.98 496.62 1165.21 481.395C1164.45 466.17 1163.79 457.627 1163.79 457.627C1163.79 457.627 1163.79 466.28 1163.13 481.505C1162.47 496.73 1162.04 518.308 1161.93 544.267C1161.82 570.226 1161.93 600.566 1161.93 632.987C1161.93 665.409 1162.8 700.021 1162.8 734.633Z" fill="#F8F6F2"/>
<path d="M770.022 987.761C770.022 972.536 771.227 950.958 771.665 924.999C772.103 899.04 772.761 868.7 772.98 836.279V734.633C772.98 700.021 772.98 665.299 772.98 632.878C772.98 600.456 771.994 570.116 771.665 544.157C771.337 518.198 770.46 496.62 770.022 481.395C769.584 466.17 769.256 457.627 769.256 457.627C769.256 457.627 768.489 466.28 768.489 481.943C768.489 497.606 767.284 518.746 766.955 544.705C766.627 570.664 765.751 601.004 765.641 633.426L764.984 735.181C764.984 769.793 764.984 804.405 765.641 836.826C766.298 869.248 766.517 899.588 766.955 925.547C767.394 951.506 768.16 973.084 768.489 988.309L769.365 1012.08L770.022 987.761Z" fill="#F8F6F2"/>
<path d="M754.797 457.627L753.921 481.943C753.921 497.168 752.497 518.746 751.84 544.705C751.183 570.664 750.526 601.004 749.759 633.426C748.992 665.847 748.663 700.459 748.006 735.071C747.349 769.683 748.006 804.295 747.24 836.826C746.473 869.357 747.24 899.588 747.24 925.547C747.24 951.506 747.24 973.084 747.24 988.309V1012.08L748.116 988.309C748.116 973.084 749.321 951.506 750.087 925.547C750.854 899.588 751.511 869.357 752.278 836.826C753.045 804.295 753.373 769.793 753.921 735.181C754.469 700.569 754.578 665.957 754.797 633.426C755.016 600.895 754.797 570.773 754.797 544.814C754.797 518.855 754.797 497.168 754.797 482.053V457.627Z" fill="#F8F6F2"/>
<path d="M783.385 734.633C784.043 769.245 784.59 803.857 785.576 836.388C786.562 868.919 787.767 899.04 788.643 924.999C789.519 950.958 791.053 972.646 791.71 987.761C792.367 1002.88 793.134 1011.53 793.134 1011.53C793.134 1011.53 793.134 1002.88 793.9 987.652C794.667 972.427 794.886 950.849 794.996 924.89C795.105 898.931 794.996 868.7 794.996 836.169C794.996 803.638 794.996 769.136 794.119 734.523C793.243 699.911 792.915 665.299 791.929 632.768C790.943 600.237 789.629 570.116 788.752 544.157C787.876 518.198 786.452 496.62 785.795 481.395C785.138 466.17 784.371 457.627 784.371 457.627C784.371 457.627 784.371 466.28 783.604 481.505C782.838 496.73 782.619 518.308 782.509 544.267C782.4 570.226 781.852 600.566 782.509 632.987C783.166 665.409 782.947 700.021 783.385 734.633Z" fill="#F8F6F2"/>
<path d="M387.209 924.999C387.209 950.958 388.413 972.536 388.852 987.761C389.29 1002.99 389.618 1011.53 389.618 1011.53C389.618 1011.53 389.618 1002.88 390.495 987.761C391.371 972.646 391.699 950.958 392.028 924.999C392.357 899.04 393.233 868.7 393.342 836.279L394 734.633L393.342 632.878C393.342 600.018 392.466 570.116 392.028 544.157C391.59 518.198 390.823 496.62 390.495 481.395C390.166 466.17 389.618 457.627 389.618 457.627C389.618 457.627 389.618 466.28 388.852 481.395C388.085 496.511 387.647 518.198 387.209 544.157C386.77 570.116 386.004 600.456 385.894 632.878C385.785 665.299 385.894 700.021 385.894 734.633C385.894 769.245 385.894 803.857 385.894 836.279C385.894 868.7 386.88 899.04 387.209 924.999Z" fill="#F8F6F2"/>
<path d="M368.15 1011.53L369.026 987.761C369.026 972.536 370.231 950.958 371.107 924.999C371.984 899.04 372.422 868.81 373.188 836.279C373.955 803.748 374.284 769.245 374.941 734.633C375.598 700.021 374.941 665.409 375.817 632.878C376.693 600.347 375.817 570.226 375.817 544.267C375.817 518.308 375.817 496.62 375.817 481.505V457.627C375.817 457.627 375.817 466.28 374.941 481.395C374.065 496.511 373.517 518.198 372.969 544.157C372.422 570.116 371.545 600.456 370.779 632.878C370.012 665.299 369.683 699.911 369.136 734.523C368.588 769.136 369.136 803.748 368.259 836.279C367.383 868.81 368.259 899.04 368.259 924.999C368.259 950.958 368.259 972.536 368.259 987.761C368.259 1002.99 368.15 1011.53 368.15 1011.53Z" fill="#F8F6F2"/>
<path d="M403.748 734.631C404.405 769.243 405.062 803.855 406.048 836.386C407.034 868.917 408.238 899.039 409.115 924.998C409.991 950.957 411.415 972.644 412.072 987.759C412.729 1002.87 413.605 1011.53 413.605 1011.53C413.605 1011.53 413.605 1002.87 414.263 987.65C414.92 972.425 415.248 950.847 415.358 924.888C415.467 898.929 416.015 868.698 415.358 836.167C414.701 803.636 415.358 769.134 414.591 734.522C413.825 699.91 413.277 665.298 412.291 632.767C411.305 600.236 410.1 570.114 409.224 544.155C408.348 518.196 407.034 496.619 407.034 481.941C407.034 467.264 405.61 458.173 405.61 458.173C405.61 458.173 405.61 466.826 404.952 482.051C404.295 497.276 403.857 518.854 403.748 544.813C403.638 570.772 403.748 601.112 403.748 633.533C403.748 665.955 403.419 700.019 403.748 734.631Z" fill="#F8F6F2"/>
<path d="M1421.19 248.421C1358.1 248.421 1284.49 246.778 1205.52 246.668L958.417 245.901L711.204 246.668C632.341 246.668 558.736 247.982 495.645 248.421C432.555 248.859 379.98 250.173 343.177 250.721L285.344 251.926L343.177 252.911C379.98 252.911 432.555 254.664 495.645 255.212C558.736 255.759 632.341 256.745 711.204 256.964L958.417 257.731L1205.52 256.964C1284.49 256.964 1358.1 255.65 1421.19 255.212C1484.28 254.773 1536.85 253.35 1573.66 252.911L1631.49 251.926L1573.66 250.94C1536.85 250.173 1484.28 248.859 1421.19 248.421Z" fill="#F8F6F2"/>
<path d="M1421.19 361.45C1358.1 361.45 1284.49 359.916 1205.52 359.697L958.417 358.931L711.204 359.697C632.341 359.697 558.736 361.012 495.645 361.45C432.555 361.888 379.98 363.312 343.177 363.75L285.344 364.736L343.177 365.722C379.98 366.269 432.555 367.474 495.645 368.022C558.736 368.569 632.341 369.555 711.204 369.774L958.417 370.541L1205.52 369.774C1284.49 369.774 1358.1 368.569 1421.19 368.022C1484.28 367.474 1536.85 366.269 1573.66 365.722L1631.49 364.736L1573.66 363.75C1536.85 363.421 1484.28 362.107 1421.19 361.45Z" fill="#F8F6F2"/>
<path d="M214.805 429.589C204.948 429.589 194.652 428.822 184.356 428.822H152.81H121.375C110.969 428.822 100.783 429.37 90.9249 429.589C71.0996 430.137 52.6983 431.122 36.8162 432.218C5.27099 434.408 -15.8687 437.366 -15.8687 437.366C-15.8687 437.366 5.27099 440.323 36.8162 442.404C52.6983 443.5 71.0996 444.485 90.9249 445.033C100.783 445.033 110.969 445.8 121.375 445.8H152.81H184.356C194.652 445.8 204.948 445.252 214.805 445.033C234.521 444.376 253.032 443.39 268.805 442.295C300.459 440.214 321.599 437.256 321.599 437.256C321.599 437.256 300.459 434.189 268.805 432.108C253.032 431.122 234.521 430.137 214.805 429.589Z" fill="#F8F6F2"/>
<path d="M1944.42 501.547H1826.57V801.993H1944.42V501.547ZM1844.09 519.072H1881.22L1883.3 649.086L1844.09 647.443V519.072ZM1844.09 784.468V655.439L1883.3 653.687L1885.71 784.468H1844.09ZM1926.9 784.468H1885.71L1887.79 653.029L1927.01 651.277L1926.9 784.468ZM1926.9 650.948L1887.79 649.305L1889.77 519.072H1926.9V650.948Z" fill="#F8F6F2"/>
<path d="M123.456 501.547H5.59937V801.993H123.456V501.547ZM23.0149 519.072H62.775L64.8561 649.086L23.0149 647.334V519.072ZM23.0149 784.468V655.549L64.9656 653.687L67.4849 784.468H23.0149ZM105.931 784.468H67.4849L69.4564 653.029L106.15 651.386L105.931 784.468ZM105.931 650.839L69.3469 649.305L71.3185 519.072H105.931V650.839Z" fill="#F8F6F2"/>
<path d="M273.514 501.547H155.658V801.993H273.514V501.547ZM173.183 519.072H212.943L215.024 649.086L173.183 647.334V519.072ZM173.183 784.468V655.549L215.024 653.687L217.105 784.468H173.183ZM256.099 784.468H217.324L219.406 653.029L256.099 651.386V784.468ZM256.099 650.839L219.515 649.305L221.487 519.072H256.099V650.839Z" fill="#F8F6F2"/>
<path d="M1588.55 269.775H354.568V343.49H1588.55V269.775ZM374.175 323.556V313.588C855.129 301.868 1482.97 298.582 1568.07 298.144V323.556H374.175Z" fill="#F8F6F2"/>
<path d="M1896.67 889.069C1896.67 885.564 1895.9 883.593 1895.9 883.593L1895.02 889.069C1895.02 892.574 1893.93 897.613 1893.49 903.637C1892.4 915.576 1891.63 931.568 1891.63 947.45C1891.63 963.332 1892.4 979.433 1893.49 991.263C1893.49 997.287 1894.7 1002.22 1895.02 1005.83L1895.9 1011.31C1895.9 1011.31 1895.9 1009.34 1896.67 1005.83C1897.43 1002.33 1897.87 997.287 1898.31 991.263C1899.41 979.324 1900.06 963.332 1900.17 947.45C1900.28 931.568 1899.41 915.467 1898.31 903.637C1897.65 898.161 1896.67 892.574 1896.67 889.069Z" fill="#F8F6F2"/>
<path d="M1813.09 889.069C1813.09 885.564 1812.33 883.593 1812.33 883.593C1812.33 883.593 1812.33 885.564 1811.45 889.069C1810.58 892.574 1810.36 897.613 1809.81 903.637C1808.82 915.576 1808.06 931.568 1808.06 947.45C1808.06 963.332 1808.82 979.433 1809.92 991.263C1809.92 997.287 1811.12 1002.22 1811.45 1005.83C1811.78 1009.44 1812.33 1011.31 1812.33 1011.31C1812.33 1011.31 1812.33 1009.34 1813.09 1005.83C1813.86 1002.33 1814.19 997.287 1814.74 991.263C1815.83 979.324 1816.49 963.332 1816.49 947.45C1816.49 931.568 1815.83 915.467 1814.74 903.637C1814.3 898.161 1813.53 892.574 1813.09 889.069Z" fill="#F8F6F2"/>
<path d="M1729.74 889.069C1729.74 885.564 1728.86 883.593 1728.86 883.593C1728.86 883.593 1728.86 885.564 1728.1 889.069C1727.33 892.574 1726.89 897.613 1726.45 903.637C1725.36 915.576 1724.7 931.568 1724.7 947.45C1724.7 963.332 1725.36 979.433 1726.45 991.263C1726.45 997.287 1727.77 1002.22 1728.1 1005.83C1728.43 1009.44 1728.86 1011.31 1728.86 1011.31C1728.86 1011.31 1728.86 1009.34 1729.74 1005.83C1730.62 1002.33 1730.84 997.287 1731.38 991.263C1732.37 979.324 1733.14 963.332 1733.14 947.45C1733.14 931.568 1732.48 915.467 1731.38 903.637C1730.84 898.161 1730.07 892.574 1729.74 889.069Z" fill="#F8F6F2"/>
<path d="M220.829 889.069C220.829 885.564 220.063 883.593 220.063 883.593C220.063 883.593 220.063 885.564 219.186 889.069C218.31 892.574 218.091 897.613 217.544 903.637C216.558 915.576 215.791 931.568 215.791 947.45C215.791 963.332 216.558 979.433 217.653 991.263C217.653 997.287 218.858 1002.22 219.186 1005.83C219.515 1009.44 220.063 1011.31 220.063 1011.31C220.063 1011.31 220.063 1009.34 220.829 1005.83C221.596 1002.33 221.925 997.287 222.472 991.263C223.568 979.324 224.225 963.332 224.225 947.45C224.225 931.568 223.568 915.467 222.472 903.637C221.487 898.161 220.829 892.574 220.829 889.069Z" fill="#F8F6F2"/>
<path d="M136.928 889.069C136.928 885.564 136.052 883.593 136.052 883.593C136.052 883.593 136.052 885.564 135.286 889.069C134.519 892.574 134.081 898.161 133.204 903.637C132.109 915.576 131.452 931.568 131.452 947.45C131.452 963.332 132.109 979.433 133.204 991.263C133.752 997.287 134.519 1002.22 134.847 1005.83C135.176 1009.44 135.614 1011.31 135.614 1011.31C135.614 1011.31 135.614 1009.34 136.49 1005.83C137.367 1002.33 137.586 997.287 138.133 991.263C139.119 979.324 139.886 963.332 139.886 947.45C139.886 931.568 139.229 915.467 138.133 903.637C138.024 898.161 137.257 892.574 136.928 889.069Z" fill="#F8F6F2"/>
<path d="M53.5745 889.069C53.5745 885.564 52.6982 883.593 52.6982 883.593C52.6982 883.593 52.6982 885.564 51.9315 889.069C51.1648 892.574 50.7267 897.613 50.2885 903.637C49.1932 915.576 48.536 931.568 48.4265 947.45C48.317 963.332 49.1932 979.433 50.2885 991.263C50.2885 997.287 51.4934 1002.22 51.9315 1005.83C52.3696 1009.44 52.6982 1011.31 52.6982 1011.31C52.6982 1011.31 52.6982 1009.34 53.5745 1005.83C54.4507 1002.33 54.6698 997.287 55.1079 991.263C56.2033 979.324 56.97 963.332 56.97 947.45C56.97 931.568 56.2033 915.467 55.1079 903.637C54.6698 898.161 53.9031 892.574 53.5745 889.069Z" fill="#F8F6F2"/>
<path d="M60.8033 780.196V658.068L28.1628 780.196H60.8033Z" fill="#F8F6F2"/>
<path d="M102.754 658.068L70.0042 780.196H102.754V658.068Z" fill="#F8F6F2"/>
<path d="M60.8033 645.797V523.56L28.1628 645.797H60.8033Z" fill="#F8F6F2"/>
<path d="M102.754 645.797V523.56L70.0042 645.797H102.754Z" fill="#F8F6F2"/>
<path d="M210.424 780.196V658.068L177.674 780.196H210.424Z" fill="#F8F6F2"/>
<path d="M252.266 658.068L219.625 780.196H252.266V658.068Z" fill="#F8F6F2"/>
<path d="M210.424 645.797V523.56L177.674 645.797H210.424Z" fill="#F8F6F2"/>
<path d="M252.266 645.797V523.56L219.625 645.797H252.266Z" fill="#F8F6F2"/>
<path d="M1730.18 658.068L1697.54 780.196H1730.18V658.068Z" fill="#F8F6F2"/>
<path d="M1772.13 658.068L1739.38 780.196H1772.13V658.068Z" fill="#F8F6F2"/>
<path d="M1730.18 645.797V523.56L1697.54 645.797H1730.18Z" fill="#F8F6F2"/>
<path d="M1772.13 645.797V523.56L1739.38 645.797H1772.13Z" fill="#F8F6F2"/>
<path d="M1879.8 780.196V658.068L1847.05 780.196H1879.8Z" fill="#F8F6F2"/>
<path d="M1921.64 658.068L1889 780.196H1921.64V658.068Z" fill="#F8F6F2"/>
<path d="M1879.8 645.797V523.56L1847.05 645.797H1879.8Z" fill="#F8F6F2"/>
<path d="M1921.64 645.797V523.56L1889 645.797H1921.64Z" fill="#F8F6F2"/>
<path d="M1232.9 1065.97H958.198H683.602L444.056 1067.28L210.424 1069.69L444.056 1071.99L683.602 1073.42H958.198H1232.9L1472.45 1072.1L1706.08 1069.8L1472.45 1067.39L1232.9 1065.97Z" fill="#F8F6F2"/>
</svg>
