<svg width="109" height="206" viewBox="0 0 109 206" fill="none" xmlns="http://www.w3.org/2000/svg">
<path d="M29.1431 171.231L43.8918 168.258L43.949 168.151L36.9847 167.243L46.0282 164.908C48.6095 160.513 50.9506 155.324 54.2788 149.105L45.1673 148.997L55.4517 146.913C58.4403 141.51 61.7648 136.299 65.4056 131.312L57.6758 130.292L67.0386 129.16C67.1531 128.946 67.2675 128.732 67.3819 128.518L65.4379 127.867L69.0353 126.285C73.043 120.542 76.359 114.345 78.9148 107.824L63.1552 106.817L79.8611 105.328C80.8086 102.786 81.7288 100.253 82.9098 97.446L76.7631 96.724L83.9103 95.2765C85.1968 92.4025 86.6297 89.5963 88.2033 86.8689L80.1607 85.0635L89.768 84.2449C94.3722 76.0648 97.9943 67.3696 100.559 58.3401L93.4751 57.1852L101.174 56.3769C102.205 52.7796 103.109 49.2059 103.856 45.7545L97.2316 43.9975L104.553 42.1389C105.546 37.2174 106.263 32.2443 106.702 27.2429C104.253 27.5366 102.478 27.9395 102.478 27.9395C102.478 27.9395 104.313 26.9958 106.81 25.9709C106.903 24.5539 106.948 23.2712 106.952 22.15C107.009 9.66449 109.041 3.55413 108.265 0.89232C107.488 -1.76949 100.751 4.48165 93.4176 6.10482C89.0507 7.06879 87.1766 10.7422 83.1783 16.6714L85.4282 39.8816L80.7824 20.2489C77.8781 24.2941 74.6425 28.0908 71.1091 31.5998C69.7793 32.9283 68.6422 34.1536 67.6418 35.3375C67.986 36.622 68.3633 38.0159 68.7965 39.3481C70.4271 44.7824 72.4121 50.1542 72.4121 50.1542C72.4121 50.1542 69.4087 45.3147 66.7195 40.2308L65.605 38.0298C63.3772 41.1037 61.6416 44.5058 60.4608 48.1138L63.3983 59.2447L59.4999 50.8088C59.0176 52.2241 58.5245 53.7024 57.9469 55.2959L59.5876 61.9963L57.2846 57.0045C55.0748 62.4018 52.2729 67.5371 48.9302 72.3162C48.3464 73.15 47.7983 74.0029 47.3361 74.6953L50.2013 86.4752L45.8527 76.9961C45.0305 78.2754 44.3286 79.4585 43.7494 80.4551L48.1317 99.8092L41.6394 84.4837C37.5088 93.2304 40.5585 94.7707 35.6984 107.322C34.8023 109.639 33.8673 111.729 32.8813 113.7L35.9317 124.02L31.2506 116.747C27.8454 122.81 24.0484 127.678 20.2487 133.622L22.9487 144.511L18.5841 136.261C16.4098 139.834 14.4763 143.547 12.7964 147.376L16.883 163.042L11.1896 151.193C5.41608 165.708 10.2766 162.922 10.6001 177.995C7.34199 184.298 4.2957 190.461 1.58269 196.345C-0.283616 200.389 0.936282 203.678 3.09247 204.832C3.57897 205.098 4.11953 205.25 4.67333 205.276C5.22712 205.302 5.77965 205.203 6.28917 204.984C6.51718 204.884 6.73545 204.763 6.94119 204.622C7.35036 204.484 7.69963 204.21 7.93024 203.845C8.04206 203.7 8.12906 203.537 8.18771 203.364C8.5187 202.818 8.77239 202.228 8.94157 201.612C11.3702 195.834 14.0891 190.181 17.0879 184.676C23.8422 182.925 30.2489 180.036 36.0329 176.133C37.9629 174.812 39.7245 173.26 41.2788 171.513L29.1431 171.231ZM91.8421 23.1417C91.9176 22.7007 91.9994 22.0338 92.1562 21.2696C92.313 20.5054 92.4641 19.6234 92.7175 18.6358C92.9709 17.6482 93.2256 16.6155 93.4244 15.6444L94.2655 12.7019C94.5272 11.7417 94.8494 10.8826 95.0692 10.1291C95.2891 9.3757 95.5681 8.76858 95.7066 8.3384C95.8451 7.90822 96.0499 7.69688 96.0499 7.69688L95.9574 8.42673C95.8723 8.88552 95.7822 9.52501 95.6254 10.2892C95.4686 11.0535 95.1737 11.9043 95.0106 12.8944L94.286 15.8763C94.023 16.8817 93.7422 17.8776 93.4627 18.8283C93.1831 19.779 92.8787 20.6476 92.6589 21.4011C92.4391 22.1545 92.16 22.7617 92.0215 23.1918L91.6782 23.8333L91.8421 23.1417ZM55.1997 135.134L54.7823 135.185C54.4277 135.242 54.0705 135.28 53.7121 135.3C53.2686 135.315 52.7514 135.382 52.1915 135.358L50.4652 135.328L48.7332 135.18C48.1924 135.12 47.6884 135.034 47.2475 134.958C46.8065 134.883 46.4476 134.783 46.1956 134.739L45.8392 134.549L46.2483 134.47C46.5111 134.45 46.8833 134.397 47.3267 134.382C47.7702 134.367 48.2875 134.3 48.8296 134.315L50.5558 134.345L52.2878 134.492C52.8382 134.535 53.3504 134.648 53.7736 134.714C54.1352 134.765 54.4927 134.841 54.8433 134.943L55.1997 135.134ZM59.8364 114.004L62.4553 114.122L65.0718 114.33C65.911 114.39 66.6848 114.529 67.3516 114.611C68.0185 114.692 68.5759 114.807 68.9539 114.872L69.5743 114.998L68.9489 115.053C68.5601 115.051 67.9977 115.117 67.32 115.098C66.6424 115.079 65.8719 115.148 65.0231 115.107L62.4124 115.016L59.7877 114.781C58.9485 114.721 58.1925 114.592 57.5257 114.51C56.8588 114.428 56.3014 114.313 55.9234 114.248L55.303 114.123L55.9189 114.086C56.3172 114.069 56.8796 114.004 57.5394 114.013C58.1993 114.022 58.9768 114.026 59.8364 114.004ZM68.4729 81.6742C81.2284 60.58 102.352 11.9406 102.352 11.9406L101.513 14.1507C100.949 15.5908 100.14 17.7023 99.0982 20.377C98.0565 23.0517 96.7192 26.2789 95.2148 29.9896C93.7104 33.7004 91.9141 37.828 89.9532 42.3489C88.9597 44.5909 87.9541 46.9411 86.8475 49.3518C85.7408 51.7625 84.6316 54.2635 83.4607 56.7086C82.7931 57.956 82.2503 59.2701 81.635 60.5913C81.0197 61.9124 80.2713 63.1395 79.6999 64.5071C78.4145 67.166 76.9994 69.9389 75.6333 72.5774C74.2671 75.216 72.7152 78.0303 71.2275 80.8102C70.4837 82.2001 69.7399 83.5901 68.8796 84.9406C68.0193 86.2911 67.2933 87.6906 66.4865 89.0698C64.8099 91.8173 63.0951 94.6361 61.365 97.355C59.6349 100.074 57.8476 102.9 56.0972 105.699C52.6593 111.31 49.2928 116.958 46.0274 122.546C42.7619 128.134 39.6238 133.698 36.6083 139.076C33.5928 144.454 30.7797 149.711 28.1274 154.71C25.475 159.709 22.9397 164.404 20.7732 168.837C16.2799 177.619 12.7468 185.035 10.3675 190.295C9.17378 192.911 8.31128 194.994 7.74691 196.434C7.45202 197.125 7.2028 197.834 7.00087 198.557L6.80485 198.452C6.1237 198.134 5.41282 197.884 4.68256 197.706C4.39622 197.651 4.10151 197.66 3.81863 197.73C3.53575 197.8 3.2714 197.93 3.04371 198.112C2.88726 198.25 2.78571 198.44 2.75762 198.647C2.88822 198.527 3.05046 198.447 3.22518 198.416C3.42187 198.374 3.62509 198.374 3.822 198.414C3.61122 198.584 3.43675 198.795 3.30898 199.034C3.18121 199.273 3.10272 199.535 3.07817 199.804C3.04604 201.091 3.40851 202.357 4.1169 203.432L4.35308 203.719L3.94323 203.499C2.44637 202.698 1.46543 200.248 2.94451 196.799C21.4106 156.938 55.7173 102.768 68.4729 81.6742ZM7.74505 199.436C7.50449 199.115 7.21292 198.835 6.88191 198.608C7.00588 198.376 7.2518 197.659 7.79787 196.553C8.52262 195.199 9.58113 193.221 10.9353 190.691C13.6531 185.612 17.6674 178.454 22.5075 169.88C24.9591 165.599 27.5918 160.979 30.4045 156.066C31.3581 154.284 32.4842 152.48 33.5389 150.637C21.035 173.746 10.438 194.276 8.07361 199.979C8.00703 199.802 7.92072 199.632 7.81633 199.474L7.74505 199.436ZM76.4141 93.0071L78.6252 93.1588C79.3111 93.205 79.9589 93.3224 80.4997 93.3826L81.8321 93.5913L82.3444 93.705L81.8271 93.772C81.5097 93.8085 81.0471 93.8589 80.4859 93.8795C79.9247 93.9001 79.2815 93.9456 78.5943 93.9446L76.3451 93.8642L74.134 93.7124C73.4302 93.6568 72.8003 93.5489 72.2416 93.4791C71.6829 93.4094 71.2337 93.3065 70.9092 93.2704L70.4147 93.1662L70.932 93.0992C71.2399 93.0806 71.712 93.0123 72.2732 92.9917C72.8344 92.9711 73.4598 92.9161 74.1648 92.9266L76.4141 93.0071ZM91.546 74.5829L92.1772 74.6457L91.5505 74.7458C91.151 74.8071 90.5873 74.918 89.9071 74.9896C89.227 75.0612 88.4101 75.1741 87.4958 75.2121L84.8051 75.3997L82.1359 75.4613C81.2763 75.4827 80.4727 75.4423 79.839 75.47C79.2053 75.4976 78.5836 75.4171 78.1866 75.388L77.5458 75.3431L78.1642 75.2156C78.5638 75.1543 79.1275 75.0433 79.8254 74.9813C80.5234 74.9193 81.3047 74.7872 82.2368 74.7588L84.918 74.5891L87.6144 74.5191C88.4562 74.4882 89.2777 74.5381 89.9114 74.5105C90.5451 74.4829 91.2202 74.592 91.6173 74.6211L91.546 74.5829ZM84.3176 63.6315C84.609 63.5582 85.0015 63.4244 85.4926 63.3204C85.9838 63.2165 86.5665 63.0699 87.1837 62.9876L89.1267 62.6978L91.0602 62.4259C91.6857 62.371 92.273 62.3872 92.7711 62.3558L94.0004 62.3718L94.4605 62.4117L94.0132 62.5621C93.7314 62.6176 93.3293 62.7692 92.8382 62.8731C92.347 62.977 91.7738 63.1058 91.1471 63.206L89.2041 63.4957L87.2374 63.6582C86.612 63.7132 86.0152 63.7147 85.5265 63.7283C85.0379 63.7419 84.5957 63.7115 84.2973 63.7123L83.8099 63.6807L84.3176 63.6315ZM78.4858 36.877C78.2787 36.1931 78.1525 35.5295 78.0141 34.9741C77.8758 34.4187 77.8075 33.9466 77.7355 33.6101L77.6685 33.0928L77.8996 33.5604C78.0359 33.8625 78.2683 34.2849 78.4887 34.8155C78.7091 35.346 78.99 35.9777 79.2244 36.6533L79.9704 38.7718L80.607 40.9234C80.8141 41.6073 80.9404 42.2708 81.0787 42.8262C81.217 43.3816 81.2758 43.8715 81.3478 44.2081L81.4327 44.7349L81.1837 44.2578C81.0474 43.9556 80.8245 43.5154 80.6041 42.9849C80.3837 42.4543 80.1111 41.85 79.8589 41.1648L79.1129 39.0464L78.4858 36.877ZM67.5416 49.0606L66.6741 47.0835L66.3519 46.315L66.8395 46.9886C67.1076 47.4301 67.5514 48.0572 67.9818 48.8378C68.4123 49.6183 68.9281 50.582 69.3904 51.5171C69.8528 52.4522 70.5049 53.7181 70.9005 54.778C71.2961 55.8378 71.7152 57.0249 72.0561 58.1013C72.3464 59.0657 72.5879 60.0442 72.7796 61.0329C72.9995 61.9071 73.1054 62.6515 73.1998 63.1604L73.3306 63.9869L73.0357 63.2101L72.2967 61.1642C72.0126 60.3245 71.6145 59.355 71.2367 58.3047C70.8589 57.2543 70.4194 56.1481 69.9704 55.0596C69.5213 53.9711 69.1009 52.8292 68.6589 51.8133L67.5416 49.0606ZM19.0495 154.368C18.9572 154.112 18.8043 153.755 18.6718 153.317C18.5392 152.88 18.3545 152.368 18.2162 151.813L17.7942 150.074L17.5612 148.368C17.4502 147.804 17.4201 147.26 17.3696 146.798C17.3268 146.428 17.3039 146.056 17.301 145.684L17.2945 145.268L17.4735 145.662L17.8608 146.694C17.9838 147.15 18.1781 147.643 18.3164 148.199L18.7384 149.937C18.8481 150.546 18.9673 151.137 19.0509 151.709C19.1345 152.281 19.2015 152.798 19.252 153.261C19.3025 153.724 19.3007 154.112 19.3206 154.375L19.3176 154.809L19.0495 154.368ZM26.9389 143.437C26.8204 143.145 26.6141 142.759 26.4472 142.257C26.2803 141.755 26.0325 141.233 25.8598 140.613L25.2622 138.689L24.7834 136.714C24.6381 136.086 24.564 135.496 24.4518 134.977C24.3396 134.459 24.3331 134.043 24.2871 133.743L24.2462 133.263L24.4513 133.693C24.5697 133.986 24.7582 134.362 24.9347 134.846C25.1112 135.33 25.3576 135.898 25.5303 136.517L26.128 138.442L26.5984 140.39C26.7616 141.027 26.8261 141.635 26.9301 142.126C27.034 142.617 27.0571 143.088 27.1031 143.388L27.1535 143.85L26.9389 143.437ZM45.6332 110.346C45.4829 109.899 45.2293 109.259 45.0069 108.475C44.7845 107.692 44.4577 106.76 44.1786 105.74L43.3507 102.661L42.7131 99.5685C42.4791 98.5493 42.333 97.623 42.1749 96.8048C42.0167 95.9866 41.9178 95.3148 41.8495 94.8427L41.7531 94.0805L42.0136 94.793C42.164 95.2402 42.408 95.898 42.6577 96.6735C42.9075 97.449 43.2069 98.3887 43.4861 99.4091L44.3222 102.516L44.9599 105.608C45.176 106.617 45.3304 107.571 45.4981 108.371C45.6658 109.172 45.7278 109.87 45.8235 110.333L45.9199 111.096L45.6332 110.346ZM56.8556 89.7612C56.7123 89.3865 56.4372 88.8725 56.211 88.2242C55.9848 87.576 55.653 86.8253 55.3867 85.9951L54.482 83.4021L53.7784 80.7332C53.5299 79.9125 53.38 79.1217 53.2181 78.4391C53.0562 77.7564 52.9548 77.1749 52.8662 76.7837L52.7349 76.3008L52.9992 76.8778C53.1604 77.262 53.4081 77.7843 53.6616 78.4243C53.9151 79.0642 54.2101 79.841 54.4859 80.6534L55.3906 83.2464L56.112 85.9248C56.351 86.7633 56.5009 87.5541 56.6723 88.2189C56.8438 88.8838 56.9178 89.4736 57.0064 89.8648L57.1066 90.4915L56.8556 89.7612ZM35.0477 153.943L34.4153 153.926L35.0432 153.78C35.4345 153.692 35.9899 153.553 36.6713 153.437C37.3527 153.32 38.1256 153.16 38.9782 153.066L41.637 152.724L44.3195 152.509C45.1625 152.433 45.9673 152.428 46.6641 152.412C47.3608 152.395 47.9302 152.401 48.3464 152.395L48.9693 152.43L48.3509 152.558C47.9596 152.646 47.3947 152.803 46.7228 152.901C46.051 153 45.2684 153.178 44.4063 153.289L41.757 153.614L39.0663 153.801C38.2138 153.895 37.4184 153.882 36.7122 153.917C36.0059 153.952 35.4734 153.919 35.0477 153.943ZM32.9469 161.553C32.5951 161.525 32.3074 161.462 32.0911 161.438L31.806 161.286L32.1343 161.186C32.4031 161.087 32.6806 161.013 32.9632 160.965C33.3176 160.903 33.7184 160.796 34.1631 160.736L35.5234 160.593L36.9073 160.577C37.3507 160.562 37.7561 160.619 38.1175 160.629L38.9733 160.743L39.2584 160.896L38.9302 160.995C38.6591 161.087 38.3822 161.161 38.1012 161.216C37.7468 161.279 37.346 161.385 36.9108 161.427L35.541 161.588L34.1571 161.604C33.7232 161.601 33.407 161.592 32.9565 161.535L32.9469 161.553Z" fill="#B69D74" fill-opacity="0.3"/>
</svg>
