<svg width="141" height="141" viewBox="0 0 141 141" fill="none" xmlns="http://www.w3.org/2000/svg">
<path d="M44.3717 10.4507C45.014 10.4406 45.6391 10.2408 46.1682 9.87662C46.6974 9.5124 47.1072 8.99991 47.346 8.40354C47.5848 7.80718 47.6421 7.15353 47.5106 6.52472C47.3791 5.89591 47.0647 5.31998 46.6069 4.86929C46.1491 4.4186 45.5684 4.11325 44.9376 3.99159C44.3068 3.86994 43.6541 3.93741 43.0616 4.18553C42.469 4.43365 41.963 4.85135 41.6071 5.38616C41.2512 5.92097 41.0612 6.54903 41.0612 7.19144C41.0611 7.62381 41.1471 8.05186 41.3141 8.45067C41.4811 8.84948 41.7257 9.21108 42.0338 9.51441C42.3419 9.81773 42.7073 10.0567 43.1087 10.2175C43.5101 10.3782 43.9394 10.4575 44.3717 10.4507ZM41.9722 7.31976V7.19144C41.9991 7.3481 42.0377 7.50252 42.0877 7.65338C42.2125 8.03947 42.4385 8.38507 42.7421 8.65425C43.0428 8.94367 43.4194 9.1419 43.8282 9.22594C44.237 9.30997 44.6613 9.27637 45.0518 9.12902C45.347 9.02282 45.615 8.85273 45.8368 8.63092C46.0587 8.4091 46.2288 8.14103 46.335 7.84586C46.3852 7.71258 46.4239 7.5752 46.4504 7.43524C46.4504 7.37109 46.4504 7.26843 46.4504 7.19144C46.4569 7.12316 46.4569 7.05442 46.4504 6.98614C46.4312 6.44201 46.2172 5.92289 45.8473 5.52333C45.5678 5.2288 45.2195 5.00833 44.8336 4.88175C44.6828 4.83173 44.5284 4.79313 44.3717 4.76627H44.9106C45.4718 4.81785 45.9971 5.06425 46.3956 5.4627C46.794 5.86115 47.0404 6.38651 47.092 6.94764C47.092 7.0503 47.092 7.12729 47.092 7.24277C47.0981 7.32821 47.0981 7.41397 47.092 7.4994C47.0766 7.69696 47.0334 7.89135 46.9637 8.07683C46.8291 8.45293 46.6196 8.79779 46.3478 9.09052C46.055 9.36232 45.7102 9.57185 45.3341 9.70644C44.976 9.83116 44.5948 9.87498 44.2177 9.83476C43.6572 9.78755 43.1294 9.55089 42.7212 9.16373C42.3131 8.77658 42.0489 8.26201 41.9722 7.70471C41.9646 7.5765 41.9646 7.44797 41.9722 7.31976Z" fill="#B69D74" fill-opacity="0.4"/>
<path d="M23.4177 8.25684C21.1347 9.15079 18.9396 10.2548 16.8607 11.5546C14.511 12.9834 12.3547 14.7084 10.4449 16.6872C8.40714 18.8072 6.69866 21.2207 5.37645 23.8473C4.04724 26.565 3.10152 29.454 2.56633 32.4316C2.05305 35.3963 1.87228 38.409 2.0274 41.4137C2.2083 44.3256 2.54669 47.2255 3.0411 50.1007C3.97781 55.6953 5.22247 60.828 6.31316 65.2164C7.40385 69.6048 8.4817 73.2361 9.21311 75.764C9.94451 78.2918 10.4321 79.7289 10.4321 79.7289L9.34142 75.7255C8.64851 73.1591 7.72464 69.5278 6.68528 65.1394C5.64592 60.751 4.51674 55.6312 3.60569 50.0494C3.12456 47.1953 2.80327 44.3165 2.64332 41.4266C2.4979 38.4507 2.68728 35.4679 3.20791 32.5343C3.72534 29.6057 4.64961 26.7638 5.95388 24.0911C7.24005 21.5205 8.90058 19.1552 10.8812 17.0722C12.7479 15.1188 14.8415 13.3957 17.1174 11.9395C19.1498 10.6305 21.2973 9.50954 23.5332 8.59047C26.8929 7.20095 30.3895 6.16874 33.9653 5.51088C35.3226 5.24771 36.6934 5.05923 38.0714 4.94629C36.6864 5.00573 35.3065 5.15144 33.9396 5.38256C30.3378 5.95312 26.8094 6.91697 23.4177 8.25684Z" fill="#B69D74" fill-opacity="0.4"/>
<path d="M38.4948 90.7122C38.4948 90.7122 35.9285 89.5959 24.0336 79.6257L23.8925 79.5616C19.4405 79.3458 14.9819 79.822 10.6759 80.973L15.167 84.027L28.4862 99.797H44.9748L57.6268 88.749V69.5016C56.6135 73.5876 54.0198 77.1043 50.4154 79.2793L49.915 78.8558C45.3469 75.0063 44.1151 75.0063 44.1151 75.0063L54.791 83.9243C54.791 83.9243 53.5078 83.8473 49.0552 80.0748C48.0786 80.5855 47.0614 81.0147 46.0142 81.358L44.8336 80.3571C38.5718 75.1346 37.0577 74.8139 37.0577 74.8139L51.6601 87.0167C51.6601 87.0167 50.1973 86.7088 44.2947 81.8071H44.1407C40.5995 82.5901 36.9175 82.4621 33.4392 81.435C32.3998 80.5111 31.1551 79.4332 29.6539 78.1757C21.6983 71.529 19.889 70.9772 19.889 70.9772L38.4948 86.4265C38.4948 86.4265 36.9422 85.9517 30.3468 80.5496C29.1534 80.2545 27.8959 79.985 26.4973 79.7797L24.9703 78.4965C13.0369 68.5264 10.5732 67.4229 10.5732 67.4229L38.4948 90.7122ZM42.0364 98.0776H31.6043V97.5258H32.5153V94.9595H33.3622V97.5258H33.7728V94.9595H35.5564V97.5258H39.8293V94.9595H40.9072V97.5258H41.3819V94.5745H41.9465L42.0364 98.0776ZM39.7138 93.5095L41.1381 93.5993L42.5753 93.7277C42.1005 93.7277 41.6257 93.8175 41.1381 93.856L39.7138 93.9458C38.7515 93.9458 37.8019 94.0228 36.8524 94.0484C35.0175 94.0484 33.1954 94.0484 31.3605 94.0484C31.3605 94.6002 31.3605 95.152 31.2835 95.7037C31.2065 96.2555 31.1936 96.9869 31.1167 97.6413C31.0397 96.9997 31.014 96.3581 30.9498 95.7037C30.8857 95.0493 30.9498 94.4206 30.86 93.779V93.5352H31.1295C33.0414 93.4582 34.979 93.4454 36.8652 93.5352C37.7506 93.4325 38.7001 93.4582 39.6625 93.5095H39.7138Z" fill="#B69D74" fill-opacity="0.4"/>
<path d="M126.302 53.475C126.302 52.1918 125.865 50.0105 122.747 47.3928C122.115 46.794 121.366 46.3325 120.546 46.0372C119.727 45.742 118.856 45.6195 117.987 45.6773C117.118 45.7352 116.27 45.9721 115.497 46.3734C114.724 46.7746 114.043 47.3314 113.496 48.0087C109.477 46.8503 105.321 46.2417 101.139 46.1995C95.9123 46.1163 90.7361 47.2293 86.0057 49.4532C81.2754 51.6772 77.1161 54.9533 73.8459 59.0311C66.4036 67.8721 64.0426 78.6634 66.9554 90.3145L53.7645 105.969C53.6442 106.117 53.5558 106.287 53.505 106.471C53.4542 106.654 53.442 106.846 53.4693 107.034L56.1255 124.216C56.1728 124.533 56.3377 124.822 56.5874 125.024L60.4369 128.309L58.7816 130.272C58.2451 130.307 57.7172 130.424 57.2162 130.619C56.7571 129.816 56.0941 129.148 55.2941 128.684C54.4942 128.22 53.5858 127.975 52.6609 127.975C52.4047 127.955 52.1473 127.955 51.891 127.975C51.5353 126.93 50.8618 126.021 49.9646 125.377C49.0673 124.733 47.9912 124.385 46.8867 124.382C46.3955 123.079 45.4083 122.022 44.1408 121.444C44.1924 121.156 44.2182 120.864 44.2177 120.571C44.2157 119.559 43.9232 118.569 43.375 117.719C42.8269 116.868 42.046 116.192 41.1253 115.772C41.177 115.485 41.2027 115.192 41.2023 114.9C41.2066 114.04 40.9948 113.193 40.5864 112.436C41.1435 111.931 41.5855 111.312 41.8824 110.62C42.1793 109.929 42.3241 109.182 42.3071 108.43C42.2901 107.678 42.1116 106.939 41.7837 106.262C41.4558 105.585 40.9862 104.986 40.4067 104.506V101.94H45.5394C45.8643 101.935 46.1774 101.817 46.4248 101.606L59.513 90.1734C59.6595 90.0514 59.777 89.8982 59.8569 89.7251C59.9368 89.552 59.9772 89.3632 59.975 89.1725V68.8216C69.7142 61.7771 74.8596 51.9994 74.8596 40.4509C74.9439 34.7589 73.6367 29.1324 71.0516 24.0605C68.4665 18.9887 64.6817 14.625 60.0263 11.3488C57.3953 9.4175 54.5698 7.7661 51.5959 6.42147C51.5967 5.55577 51.4222 4.69887 51.0831 3.90237C50.7439 3.10587 50.2471 2.38624 49.6225 1.78682C48.9979 1.18739 48.2585 0.720572 47.4487 0.414467C46.6389 0.108362 45.7756 -0.030698 44.9106 0.00566164C40.843 0.00566164 39.0338 1.41714 38.2639 2.37951C31.7865 2.87218 25.4565 4.5602 19.5939 7.35818C10.6631 11.7209 0 20.8314 0 39.4115C0 53.4365 8.27639 80.9603 8.62284 82.128C8.7068 82.4226 8.89341 82.6775 9.14894 82.8465L13.6657 85.9775L27.0875 101.542C27.2131 101.689 27.3685 101.807 27.5433 101.889C27.7181 101.971 27.9083 102.014 28.1012 102.017H33.1569V104.814C33.1569 104.891 33.1569 104.968 33.1569 105.058C32.4158 105.855 31.942 106.863 31.8017 107.942C31.6614 109.021 31.8615 110.116 32.3742 111.076C31.729 111.662 31.2401 112.4 30.9515 113.223C30.6629 114.046 30.5839 114.927 30.7214 115.788C30.8589 116.649 31.2087 117.462 31.7393 118.154C32.2698 118.845 32.9642 119.394 33.76 119.75C33.7041 120.042 33.674 120.338 33.6702 120.636C33.6726 121.648 33.9669 122.637 34.5176 123.486C35.0684 124.335 35.8523 125.007 36.7754 125.422C36.7237 125.714 36.698 126.01 36.6984 126.307C36.6984 127.704 37.2523 129.043 38.2385 130.032C39.2248 131.02 40.5629 131.578 41.9594 131.581C42.3386 132.582 43.0128 133.444 43.8926 134.053C44.7724 134.663 45.8164 134.991 46.8867 134.994C47.1473 135.014 47.4089 135.014 47.6694 134.994C48.0211 136.04 48.6918 136.949 49.5873 137.594C50.4827 138.238 51.5577 138.586 52.6609 138.587C53.3067 138.587 53.9466 138.465 54.5472 138.228C55.1244 139.229 56.0142 140.012 57.08 140.458C58.1457 140.904 59.3284 140.988 60.4464 140.696C61.5643 140.405 62.5556 139.754 63.2679 138.845C63.9801 137.935 64.3741 136.817 64.389 135.661C64.4018 135.469 64.4018 135.276 64.389 135.084L66.0443 133.121L69.8938 136.38C70.131 136.589 70.4372 136.704 70.7535 136.701H70.9588L91.2969 133.39L96.7504 133.942H96.8787C97.1383 133.941 97.3921 133.865 97.6101 133.724C98.6238 133.057 122.683 117.325 131.717 106.611C143.676 92.3933 141.392 78.5608 137.362 69.4632C134.694 63.4967 130.944 58.076 126.302 53.475ZM57.4471 124.049L54.791 106.829L68.0075 91.1999C83.9187 104.647 95.6212 110.845 105.219 110.845C112.585 110.845 118.667 107.175 124.467 100.298C137.76 84.5147 129.009 68.7189 121.105 62.0722C115.972 57.7736 108.684 55.7975 113.97 49.5229C114.476 48.7829 115.143 48.1674 115.921 47.7228C116.699 47.2782 117.567 47.0162 118.461 46.9565C119.743 47.0204 120.96 47.5338 121.9 48.4065C125.75 51.6529 124.903 53.9754 124.903 53.9754C129.217 58.1057 132.786 62.9503 135.451 68.2955C135.232 67.8849 135.001 67.4871 134.77 67.1022C133.686 65.3085 132.477 63.5934 131.152 61.9695C130.143 60.7118 129.063 59.5123 127.918 58.3767C126.982 57.4271 126.186 56.7471 125.647 56.2851C125.108 55.8232 124.8 55.5922 124.8 55.5922L125.48 56.4391C125.929 56.9909 126.545 57.8249 127.315 58.8899C129.398 61.8227 131.207 64.9411 132.717 68.2057C134.84 72.6807 136.065 77.5283 136.323 82.4744C136.413 85.1967 136.12 87.9181 135.451 90.5583C134.736 93.2809 133.661 95.8959 132.255 98.3343C130.808 100.8 129.11 103.109 127.187 105.225C125.301 107.304 123.196 109.293 121.143 111.166C116.999 114.9 112.944 118.236 109.454 121.11L97.7641 130.657L98.7393 130.157C99.368 129.81 100.292 129.335 101.434 128.681C103.217 127.68 105.566 126.307 108.299 124.613C101.883 129.194 96.9043 132.479 96.9043 132.479L91.2841 131.915L70.7535 135.251L57.4471 124.049ZM78.1702 90.9433C75.3472 80.9475 76.7202 72.5556 82.2378 65.9858C87.3704 59.878 94.3509 56.7727 102.948 56.7727C106.486 56.8007 110.006 57.2881 113.419 58.2227C114.445 59.0547 115.516 59.83 116.627 60.5452C117.862 61.3336 119.053 62.1904 120.194 63.1115C124.763 67.0001 127.98 72.239 129.381 78.0732C131.062 85.554 129.048 92.7526 123.402 99.4635C117.756 106.174 111.853 109.549 105.181 109.549C98.7649 109.549 91.2199 106.547 81.8913 100.246C80.345 97.2632 79.0985 94.134 78.1702 90.9048V90.9433ZM109.069 53.8984C108.042 53.6546 106.951 53.4365 105.784 53.2569C103.541 52.9274 101.273 52.8114 99.0087 52.9104C96.4228 53.0205 93.8635 53.478 91.3996 54.2706C88.7207 55.119 86.192 56.3834 83.9059 58.0174C83.3028 58.4152 82.7639 58.8771 82.1993 59.3005C81.6347 59.724 81.0958 60.2886 80.544 60.8018C79.9923 61.3151 79.5817 61.8155 79.1069 62.316L78.7733 62.6881L78.6834 62.7779L78.6065 62.8677L78.4397 63.0859L77.7596 63.9456C75.9976 66.2679 74.6398 68.8707 73.7433 71.6446C72.8771 74.3217 72.4439 77.12 72.4601 79.9338C72.4847 82.4974 72.799 85.0499 73.3968 87.5429C73.8432 89.3899 74.4177 91.2036 75.1163 92.9707C72.7552 91.2128 71.0101 89.9296 69.9195 89.1212C68.9139 85.0747 68.6487 80.8796 69.1367 76.7387C69.4811 73.9646 70.2245 71.2548 71.3438 68.6933C71.6389 68.0389 71.9725 67.4101 72.2805 66.7557C72.5884 66.1013 72.999 65.4726 73.3583 64.8823C73.7176 64.292 74.1539 63.689 74.5645 63.0859C74.9751 62.4828 75.4499 61.931 75.8477 61.3536C77.6592 59.1051 79.7408 57.0881 82.0453 55.3484C84.2844 53.676 86.7407 52.3162 89.3465 51.3064C91.795 50.3791 94.345 49.7459 96.9428 49.4202C99.2689 49.1998 101.611 49.2041 103.936 49.433C105.658 49.5342 107.372 49.7399 109.069 50.049C108.743 51.3114 108.743 52.636 109.069 53.8984ZM109.069 49.8436C107.377 49.4712 105.662 49.2098 103.936 49.0609C101.568 48.8306 99.1828 48.8306 96.8145 49.0609C91.302 49.6188 86.0432 51.6584 81.5962 54.9635C79.2424 56.7288 77.1137 58.7757 75.2574 61.0585C74.8083 61.6487 74.3335 62.1877 73.9743 62.8164C73.615 63.4452 73.1274 64.0996 72.6911 64.6642C72.2548 65.2288 71.9469 65.9473 71.6004 66.5761C71.2539 67.2048 70.9588 67.8592 70.6637 68.5521C69.5366 71.1744 68.7891 73.9439 68.4438 76.7772C68.1154 79.4189 68.1154 82.0911 68.4438 84.7328C68.6363 86.1828 68.9058 87.5558 69.2137 88.8646L68.4053 88.2872L69.5217 90.8535L68.6876 90.1477C68.516 90.0083 68.3137 89.9116 68.0974 89.8654C65.9417 81.1528 66.1085 70.1048 74.7441 59.8523C77.9044 55.9425 81.9126 52.8028 86.4655 50.6708C91.0184 48.5389 95.9966 47.4706 101.023 47.5468C103.921 47.5541 106.81 47.8551 109.646 48.445C109.381 48.8777 109.186 49.3498 109.069 49.8436ZM63.2214 134.288C63.1106 134.422 62.9713 134.53 62.8137 134.603C62.6561 134.676 62.4841 134.714 62.3103 134.712C62.0297 134.705 61.7593 134.605 61.5404 134.43L59.8466 132.992C59.7254 132.893 59.6254 132.77 59.5527 132.631C59.4799 132.492 59.4359 132.34 59.4232 132.184C59.4104 132.027 59.4287 131.869 59.4772 131.72C59.5256 131.57 59.6032 131.431 59.7055 131.312L61.0785 129.682L63.2214 131.478L62.1435 134.045L64.5045 132.518L64.6072 132.595L63.2214 134.288ZM37.4683 102.659L38.2895 105.315L39.0979 102.748V104.814C39.0979 105.131 38.9722 105.434 38.7484 105.658C38.5246 105.882 38.2211 106.008 37.9046 106.008H35.6847C35.3682 106.008 35.0647 105.882 34.8409 105.658C34.6171 105.434 34.4914 105.131 34.4914 104.814V102.659H37.4683ZM44.9106 1.28882C47.1433 1.28882 50.2871 2.28969 50.2871 7.28119C50.2871 11.8877 48.1185 12.8886 45.039 12.8886C42.6394 12.8886 39.6753 12.2727 36.7497 12.2727C31.4131 12.3212 26.1844 13.7822 21.5956 16.5071L22.5323 15.904C24.4518 14.7025 26.4847 13.6925 28.6017 12.8886C30.274 12.2513 31.9891 11.7325 33.7343 11.336C35.1715 11.0152 36.3006 10.8099 37.1219 10.7072L38.405 10.5661L37.1219 10.4763C35.9537 10.4311 34.7839 10.4568 33.6188 10.5532C31.799 10.7044 29.9958 11.0135 28.2295 11.4771C25.8969 12.0369 23.6364 12.8636 21.493 13.9408C18.8908 15.2104 16.5048 16.8819 14.4227 18.8938C12.0208 21.1837 10.0898 23.9211 8.73833 26.952C8.03292 28.5148 7.47032 30.1382 7.05739 31.8024C6.63656 33.5343 6.36186 35.2984 6.23616 37.0762C6.23616 37.5253 6.23616 37.9231 6.23616 38.3594V39.0009V39.6938C6.23616 40.5792 6.23616 41.4518 6.23616 42.3372C6.31969 44.1291 6.52979 45.9128 6.86491 47.6751C7.5004 51.2805 8.8862 54.7122 10.9325 57.7479C13.0092 60.6532 15.6988 63.0669 18.8111 64.8181C21.6295 66.4152 24.6509 67.6238 27.7933 68.411C30.5138 69.1374 33.2845 69.6606 36.0825 69.9764C38.6488 70.2972 41.0227 70.4641 43.1142 70.5282C45.2058 70.5924 47.0407 70.6052 48.542 70.5282C50.0433 70.4512 51.211 70.4512 52.0194 70.4127H53.3025L48.6318 69.7968L46.1938 69.4375C45.3084 69.2964 44.3461 69.1809 43.3195 69.0012C42.293 68.8216 41.2151 68.642 40.086 68.4238C38.9568 68.2057 37.7634 67.9619 36.5188 67.7053L34.6454 67.269L32.5923 66.73C31.3091 66.3579 30.026 65.973 28.6145 65.4469H28.2295C35.6462 67.7822 45.6036 68.8858 58.679 68.8858V89.2495L45.5266 100.682H28.1012L14.5639 84.9124L9.906 81.7302C9.906 81.7302 1.28316 53.398 1.28316 39.4115C1.28316 4.77902 39.0338 3.66267 39.0338 3.66267C39.0338 3.66267 39.8807 1.28882 44.9106 1.28882ZM45.0903 14.2231C47.7508 15.4508 50.2717 16.9608 52.6096 18.727C60.1289 24.3857 63.9528 31.6997 63.9528 40.2969C63.9528 48.8941 59.6028 56.1825 51.0057 62.008C48.2179 63.8786 45.247 65.4608 42.139 66.73C32.7334 65.742 25.83 63.7788 20.9412 60.7249C13.9993 56.3878 10.894 49.818 10.894 39.4115C10.894 19.0349 27.8189 13.6585 36.7626 13.6585C38.2343 13.6883 39.7034 13.7954 41.1638 13.9793C42.4407 14.147 43.7258 14.2455 45.0133 14.2744L45.0903 14.2231ZM57.383 65.9858C55.6635 65.8703 53.1229 65.7035 49.7867 65.511L50.4282 65.1518C52.3049 64.0382 54.1014 62.7948 55.8047 61.4306C57.7002 59.9149 59.4216 58.1935 60.9373 56.2979C62.5966 54.262 63.9378 51.9864 64.9151 49.5485C65.9408 47.0376 66.5519 44.3768 66.7244 41.6699C66.7628 40.9904 66.7628 40.3092 66.7244 39.6297C66.7242 38.9522 66.6856 38.2754 66.6089 37.6023C66.2486 33.634 65.0128 29.795 62.9904 26.3618C61.7442 24.2544 60.2351 22.3141 58.4993 20.5876C56.953 19.0409 55.2742 17.6326 53.4822 16.3788C52.3915 15.5961 51.3265 14.9417 50.3128 14.3514C51.6765 13.6581 52.7925 12.56 53.5078 11.2077C55.0964 12.1986 56.622 13.2871 58.0759 14.4669C59.8621 15.9117 61.5154 17.5135 63.0161 19.2531C64.6561 21.1429 66.0687 23.2187 67.2248 25.4379C68.4414 27.7961 69.3471 30.302 69.9195 32.8931C70.4947 35.5653 70.7574 38.2954 70.7022 41.0283V42.1319C70.7022 42.4911 70.7022 42.8761 70.7022 43.1969C70.6252 43.8513 70.5867 44.48 70.484 45.1729C70.3814 45.8658 70.2659 46.5203 70.1376 47.1875C70.0093 47.8547 69.8296 48.4707 69.65 49.1636C68.9275 51.7048 67.8612 54.1353 66.4806 56.3878C64.0795 60.1418 60.9984 63.4144 57.3958 66.0371L57.383 65.9858ZM65.2872 40.2969C65.2872 26.6826 55.9843 18.7911 48.9783 14.7748C49.3162 14.714 49.6472 14.6195 49.9663 14.4926C51.0185 15.1213 52.122 15.8527 53.264 16.6739C55.0091 17.946 56.6406 19.3671 58.14 20.9212C59.8186 22.6484 61.2795 24.5747 62.49 26.6569C63.7795 28.8756 64.7391 31.2703 65.3386 33.7656C65.6438 35.0313 65.854 36.3181 65.9673 37.6151C66.0571 38.2567 66.0443 38.8983 66.07 39.604C66.0956 40.3098 66.07 40.8872 66.07 41.5929C65.9411 44.231 65.3865 46.8309 64.4275 49.2919C63.4828 51.6791 62.1852 53.9109 60.578 55.913C57.7048 59.4814 54.2309 62.521 50.3128 64.8951L49.2092 65.5367L47.9261 65.4725C55.6764 61.1868 65.2872 53.2953 65.2872 40.2969ZM54.0724 9.74486C54.1089 9.56692 54.1346 9.38695 54.1494 9.20593C55.9792 10.1979 57.7372 11.317 59.4104 12.555C57.7067 11.481 55.922 10.5415 54.0724 9.74486ZM33.7856 108.612C33.7858 108.009 33.9547 107.418 34.2732 106.906C34.6908 107.186 35.1816 107.338 35.6847 107.342H37.9046C38.5547 107.336 39.1784 107.084 39.6497 106.636C40.0888 107.202 40.328 107.897 40.3298 108.612C40.3304 109.044 40.2457 109.471 40.0805 109.87C39.9154 110.268 39.673 110.63 39.3674 110.935C38.4161 110.119 37.2075 109.664 35.9542 109.652C35.3273 109.65 34.7054 109.763 34.1193 109.985C33.9078 109.558 33.7938 109.089 33.7856 108.612ZM37.0705 111.884C36.6781 111.874 36.2909 111.792 35.9285 111.641C36.32 111.659 36.7058 111.741 37.0705 111.884ZM32.6821 114.964C32.681 114.531 32.7668 114.103 32.9343 113.704C33.1018 113.305 33.3476 112.944 33.6573 112.642C34.6029 113.459 35.808 113.913 37.0577 113.925C37.6889 113.928 38.3153 113.815 38.9054 113.591C39.1225 114.03 39.2366 114.513 39.2391 115.003C39.2516 115.139 39.2516 115.277 39.2391 115.413H39.0209C38.123 115.413 37.2401 115.643 36.4562 116.081C35.6723 116.519 35.0136 117.151 34.5427 117.915C33.9848 117.65 33.5137 117.232 33.1843 116.71C32.8549 116.187 32.6807 115.582 32.6821 114.964ZM37.9559 117.53C37.6649 117.763 37.3346 117.941 36.9807 118.056C37.275 117.829 37.6044 117.651 37.9559 117.53ZM35.6975 120.623C35.6906 120.486 35.6906 120.349 35.6975 120.212H35.9285C36.8342 120.205 37.7229 119.965 38.5094 119.516C39.2958 119.066 39.9535 118.423 40.4196 117.646C40.9767 117.916 41.4451 118.34 41.7701 118.867C42.0951 119.395 42.2631 120.004 42.2545 120.623C42.267 120.759 42.267 120.897 42.2545 121.033H42.0364C41.1321 121.039 40.2446 121.278 39.46 121.728C38.6753 122.178 38.0202 122.822 37.5581 123.6C36.9991 123.329 36.528 122.906 36.1988 122.379C35.8696 121.853 35.6959 121.244 35.6975 120.623ZM40.9713 123.189C40.6766 123.413 40.3471 123.586 39.9961 123.702C40.2879 123.474 40.6182 123.3 40.9713 123.189ZM38.713 126.282C38.706 126.145 38.706 126.008 38.713 125.871H38.9311C39.8366 125.863 40.7248 125.622 41.511 125.173C42.2972 124.724 42.9552 124.08 43.4222 123.305C44.0767 123.643 44.6003 124.189 44.9106 124.857C43.9714 125.253 43.1665 125.911 42.5928 126.754C42.0191 127.596 41.7011 128.586 41.6771 129.605C40.8581 129.531 40.0975 129.149 39.5478 128.538C38.9981 127.926 38.6999 127.129 38.713 126.307V126.282ZM45.1288 126.936C45.0391 127.367 44.8633 127.776 44.612 128.137C44.3606 128.499 44.0389 128.806 43.666 129.04C43.7671 128.609 43.9545 128.202 44.2169 127.845C44.4793 127.488 44.8113 127.187 45.1929 126.962L45.1288 126.936ZM43.9611 131.145C44.8907 130.75 45.6887 130.099 46.2614 129.267C46.8341 128.435 47.1578 127.458 47.1947 126.448C47.8396 126.501 48.4544 126.744 48.9615 127.146C49.4685 127.548 49.845 128.091 50.0433 128.707C49.3016 129.149 48.6798 129.766 48.2323 130.504C47.7848 131.242 47.5255 132.079 47.477 132.941C47.3061 132.954 47.1345 132.954 46.9637 132.941C46.3574 132.95 45.7608 132.789 45.2415 132.476C44.7221 132.163 44.3008 131.711 44.0253 131.17L43.9611 131.145ZM52.6481 136.496C51.959 136.492 51.2884 136.273 50.7312 135.867C50.1739 135.462 49.7582 134.892 49.5429 134.237C50.2853 133.796 50.9077 133.179 51.3553 132.441C51.8029 131.702 52.0618 130.865 52.1092 130.003C52.28 129.989 52.4516 129.989 52.6224 130.003C53.2082 130.006 53.7825 130.166 54.2856 130.466C54.7887 130.766 55.2024 131.196 55.4839 131.709C54.9531 132.2 54.5297 132.796 54.2404 133.458C53.9511 134.121 53.8022 134.836 53.803 135.559C53.7898 135.807 53.7898 136.055 53.803 136.303C53.4546 136.438 53.0857 136.512 52.7123 136.521L52.6481 136.496ZM59.0639 138.78C58.4773 138.78 57.9014 138.622 57.3976 138.321C56.8937 138.021 56.4807 137.589 56.2025 137.073C56.732 136.581 57.1546 135.986 57.4438 135.323C57.733 134.661 57.8826 133.946 57.8834 133.223C57.9024 132.976 57.9024 132.727 57.8834 132.479L58.0887 132.415C58.1757 133.028 58.481 133.588 58.9484 133.993L60.655 135.418C61.1055 135.802 61.6795 136.012 62.2718 136.008H62.3488C62.2363 136.776 61.8545 137.479 61.2716 137.991C60.6887 138.504 59.9426 138.792 59.1666 138.805L59.0639 138.78Z" fill="#B69D74" fill-opacity="0.4"/>
<path d="M91.3868 130.888L96.8017 131.452C95.081 129.013 93.2127 126.682 91.2071 124.472C91.1045 123.753 90.989 122.945 90.8222 121.995C89.7828 116.131 88.8846 115.272 88.8846 115.272L91.3098 128.963C91.3098 128.963 90.4629 128.142 89.462 122.714C88.3897 121.684 87.2448 120.732 86.036 119.865V119.788C84.6117 111.756 83.6622 110.55 83.6622 110.55L86.9727 129.284C86.9727 129.284 86.0103 128.078 84.5989 120.045C84.509 119.583 84.4321 119.147 84.3679 118.762C81.0573 116.657 78.3499 115.528 74.5645 110.627C74 109.899 73.4482 109.219 72.9093 108.586C71.3181 100.194 70.4328 98.8086 70.4328 98.8086L74.6544 122.65C74.6544 122.65 73.6278 121.071 71.8314 110.857C71.5363 109.228 71.3053 107.816 71.1257 106.597C65.5439 100.81 61.6559 100.182 61.6559 100.182L55.8817 107.034L58.448 123.638L71.0487 134.25L91.3868 130.888ZM62.8749 121.995C63.2471 121.482 63.6448 120.969 64.0426 120.468L64.1966 120.263L64.4019 120.43C65.916 121.61 67.3788 122.829 68.816 124.074C69.5346 124.703 70.2531 125.357 70.946 125.999C71.2925 126.32 71.6518 126.653 71.9854 126.987C72.319 127.32 72.6655 127.654 72.9991 128.013L71.8571 127.179C71.4721 126.91 71.0872 126.615 70.7022 126.332C69.9452 125.755 69.2009 125.165 68.4567 124.562C67.0367 123.407 65.6466 122.218 64.2864 120.994L63.1572 122.213C62.6953 122.663 62.259 123.137 61.7971 123.574C62.0922 123.035 62.49 122.521 62.8749 121.995ZM61.8484 124.292L62.2205 123.843L62.8749 124.472L64.5559 122.483L65.2231 123.048L63.5422 125.049L63.863 125.319L65.5439 123.317L66.9041 124.459L65.2231 126.461L68.4952 129.22L70.1761 127.218L71.0102 127.911L69.3292 129.912L69.6885 130.22L71.5619 127.988L71.9982 128.347L69.7399 131.029L61.8484 124.292Z" fill="#B69D74" fill-opacity="0.4"/>
<path d="M72.0365 96.7047C72.6652 97.1923 73.5763 97.9878 74.7696 98.8347C75.9629 99.6816 77.4129 100.824 79.1067 102.017C80.8005 103.21 82.7765 104.506 84.9707 105.866C87.3376 107.304 89.7933 108.59 92.3232 109.716C95.1535 110.984 98.1326 111.889 101.19 112.411C104.486 112.964 107.863 112.811 111.096 111.961C114.387 110.988 117.444 109.351 120.078 107.15C121.413 106.064 122.67 104.885 123.838 103.621C125.007 102.403 126.104 101.118 127.123 99.7714C129.116 97.1032 130.647 94.1189 131.652 90.9433C132.558 87.9661 132.898 84.8454 132.653 81.743C132.546 80.3073 132.323 78.8825 131.986 77.4829C131.688 76.1709 131.289 74.8839 130.792 73.6334C129.954 71.4479 128.878 69.3609 127.585 67.4101C126.599 65.9007 125.501 64.4681 124.3 63.1243C123.299 62.0208 122.452 61.2124 121.862 60.6735L120.925 59.8779L121.836 60.6992C122.413 61.2509 123.247 62.0721 124.223 63.2655C126.897 66.3961 129.003 69.97 130.446 73.8259C130.914 75.0803 131.292 76.3668 131.575 77.6754C131.885 79.0519 132.086 80.4506 132.178 81.8585C132.363 84.893 131.997 87.9359 131.1 90.8406C130.106 93.9448 128.596 96.8597 126.635 99.4635C125.615 100.805 124.523 102.09 123.363 103.313C122.224 104.462 121.007 105.529 119.719 106.508C117.145 108.673 114.153 110.284 110.929 111.243C107.784 112.089 104.493 112.251 101.28 111.718C98.2641 111.225 95.3206 110.363 92.5157 109.151C89.9889 108.082 87.533 106.852 85.1632 105.469C82.9562 104.185 80.9673 102.902 79.2478 101.786C77.5284 100.67 76.0399 99.5789 74.8338 98.7064C73.6276 97.8338 72.6909 97.1153 72.0493 96.6405L71.0741 95.8963L72.0365 96.7047Z" fill="#B69D74" fill-opacity="0.4"/>
<path d="M116.447 55.7334C116.94 56.1479 117.545 56.4068 118.186 56.4774C118.827 56.5479 119.474 56.427 120.046 56.1298C120.618 55.8326 121.089 55.3725 121.399 54.8077C121.71 54.2429 121.846 53.5987 121.79 52.9566C121.734 52.3145 121.49 51.7033 121.087 51.2002C120.684 50.6972 120.141 50.3249 119.526 50.1304C118.912 49.9359 118.254 49.928 117.635 50.1077C117.016 50.2873 116.464 50.6464 116.049 51.1396C115.495 51.8028 115.227 52.6579 115.301 53.5185C115.376 54.379 115.787 55.1752 116.447 55.7334ZM116.626 51.794L116.716 51.7042C116.632 51.8391 116.559 51.9807 116.498 52.1277C116.35 52.5069 116.301 52.9177 116.357 53.321C116.418 53.8593 116.673 54.3567 117.075 54.7197L117.242 54.8608L117.435 54.9891L117.832 55.1688C118.116 55.2705 118.418 55.3099 118.718 55.2842C119.021 55.2596 119.315 55.1675 119.578 55.0148C119.842 54.877 120.07 54.6792 120.245 54.4374C120.575 54.0139 120.739 53.4847 120.707 52.9489C120.693 52.5444 120.574 52.1506 120.36 51.8069C120.193 51.5502 120.078 51.4091 120.078 51.4091L120.181 51.4861L120.463 51.7171C120.78 52.0434 120.998 52.4527 121.092 52.8976C121.22 53.5549 121.087 54.2364 120.72 54.7966C120.505 55.1134 120.225 55.3803 119.898 55.5794C119.551 55.777 119.167 55.8994 118.769 55.9387C118.372 55.9745 117.972 55.9174 117.601 55.7718C117.419 55.7051 117.247 55.6145 117.088 55.5024C116.986 55.5024 116.947 55.3869 116.87 55.3356C116.796 55.278 116.727 55.2135 116.665 55.1431C116.206 54.6537 115.958 54.0043 115.972 53.3338C115.984 52.8739 116.131 52.4277 116.395 52.0507C116.46 51.9551 116.538 51.8688 116.626 51.794Z" fill="#B69D74" fill-opacity="0.4"/>
</svg>
