<svg width="212" height="212" viewBox="0 0 212 212" fill="none" xmlns="http://www.w3.org/2000/svg">
<path d="M190.08 80.4781C190.08 78.547 189.423 75.2641 184.73 71.3246C183.779 70.4234 182.651 69.7288 181.418 69.2845C180.185 68.8402 178.874 68.6558 177.566 68.7428C176.258 68.8299 174.983 69.1866 173.82 69.7904C172.657 70.3942 171.631 71.2322 170.807 72.2515C164.76 70.5082 158.504 69.5922 152.211 69.5287C144.345 69.4035 136.555 71.0785 129.436 74.4255C122.317 77.7725 116.057 82.7029 111.136 88.8398C99.9352 102.145 96.382 118.386 100.766 135.92L80.9137 159.48C80.7327 159.702 80.5997 159.959 80.5233 160.235C80.4468 160.511 80.4285 160.799 80.4696 161.083L84.467 186.94C84.5382 187.419 84.7863 187.853 85.1622 188.157L90.9555 193.101L88.4644 196.055C87.657 196.107 86.8624 196.283 86.1084 196.577C85.4176 195.368 84.4197 194.364 83.2158 193.666C82.012 192.967 80.6449 192.599 79.253 192.599C78.8673 192.568 78.4799 192.568 78.0943 192.599C77.559 191.025 76.5453 189.658 75.195 188.688C73.8447 187.719 72.2252 187.196 70.563 187.192C69.8236 185.229 68.338 183.64 66.4304 182.769C66.5081 182.336 66.5469 181.896 66.5462 181.456C66.5431 179.933 66.103 178.443 65.278 177.163C64.453 175.882 63.2779 174.866 61.8922 174.234C61.97 173.8 62.0088 173.361 62.0081 172.921C62.0146 171.627 61.6959 170.352 61.0812 169.213C61.9197 168.452 62.5849 167.52 63.0317 166.48C63.4785 165.44 63.6964 164.316 63.6708 163.184C63.6452 162.052 63.3765 160.939 62.8831 159.92C62.3896 158.901 61.6829 158 60.8108 157.279V153.416H68.5353C69.0243 153.409 69.4954 153.231 69.8678 152.914L89.5651 135.708C89.7857 135.524 89.9625 135.294 90.0827 135.033C90.203 134.773 90.2637 134.489 90.2603 134.202V103.574C104.918 92.9724 112.661 78.2573 112.661 60.8773C112.788 52.311 110.821 43.8433 106.93 36.2103C103.04 28.5774 97.3438 22.0102 90.3376 17.0796C86.378 14.173 82.1258 11.6877 77.6501 9.6641C77.6513 8.36125 77.3888 7.07165 76.8784 5.87294C76.368 4.67423 75.6203 3.59121 74.6803 2.6891C73.7403 1.78698 72.6274 1.08444 71.4087 0.623759C70.19 0.16308 68.8907 -0.0461995 67.589 0.00852058C61.4674 0.00852058 58.7445 2.13275 57.5859 3.58108C47.8377 4.32254 38.3111 6.86295 29.4881 11.0738C16.0476 17.6396 0 31.3505 0 59.3131C0 80.4202 12.4557 121.843 12.9771 123.6C13.1034 124.043 13.3843 124.427 13.7689 124.681L20.5664 129.393L40.7658 152.818C40.9549 153.038 41.1887 153.216 41.4517 153.339C41.7148 153.462 42.001 153.528 42.2914 153.532H49.9V157.742C49.9 157.858 49.9 157.974 49.9 158.109C48.7847 159.308 48.0717 160.825 47.8605 162.449C47.6493 164.072 47.9505 165.722 48.722 167.166C47.7511 168.048 47.0153 169.159 46.581 170.397C46.1467 171.635 46.0277 172.961 46.2347 174.257C46.4417 175.553 46.9681 176.776 47.7665 177.817C48.5649 178.858 49.6101 179.684 50.8076 180.22C50.7235 180.66 50.6783 181.105 50.6725 181.553C50.6762 183.076 51.119 184.565 51.9479 185.843C52.7768 187.12 53.9566 188.132 55.3458 188.756C55.268 189.196 55.2292 189.642 55.2299 190.088C55.2299 192.19 56.0634 194.206 57.5477 195.694C59.032 197.182 61.0458 198.02 63.1475 198.025C63.7183 199.531 64.7328 200.829 66.0569 201.746C67.3809 202.663 68.9522 203.157 70.563 203.162C70.9551 203.191 71.3488 203.191 71.7409 203.162C72.2702 204.736 73.2796 206.104 74.6272 207.074C75.9748 208.044 77.5926 208.567 79.253 208.569C80.2248 208.569 81.1879 208.385 82.0917 208.028C82.9603 209.534 84.2995 210.714 85.9035 211.385C87.5074 212.056 89.2873 212.182 90.9698 211.743C92.6522 211.304 94.1441 210.325 95.216 208.957C96.288 207.588 96.8808 205.905 96.9034 204.166C96.9226 203.877 96.9226 203.586 96.9034 203.297L99.3945 200.342L105.188 205.247C105.545 205.562 106.006 205.734 106.482 205.73H106.791L137.399 200.748L145.606 201.578H145.799C146.19 201.576 146.572 201.462 146.9 201.25C148.426 200.246 184.634 176.57 198.229 160.446C216.227 139.049 212.79 118.231 206.726 104.54C202.71 95.5605 197.066 87.4024 190.08 80.4781ZM86.456 186.689L82.4586 160.774L102.349 137.253C126.295 157.491 143.907 166.818 158.351 166.818C169.436 166.818 178.59 161.295 187.318 150.945C207.325 127.192 194.154 103.42 182.259 93.4166C174.534 86.9473 163.565 83.9734 171.522 74.5303C172.282 73.4166 173.286 72.4903 174.457 71.8212C175.627 71.1522 176.935 70.7578 178.281 70.668C180.209 70.7641 182.041 71.5368 183.456 72.8502C189.249 77.7359 187.975 81.2312 187.975 81.2312C194.468 87.4472 199.838 94.7381 203.849 102.782C203.52 102.165 203.173 101.566 202.825 100.987C201.193 98.2871 199.374 95.7059 197.379 93.2621C195.86 91.3693 194.236 89.5641 192.513 87.855C191.103 86.4259 189.906 85.4025 189.095 84.7072C188.284 84.012 187.82 83.6644 187.82 83.6644L188.844 84.939C189.52 85.7694 190.447 87.0246 191.605 88.6274C194.74 93.0411 197.462 97.7342 199.735 102.647C202.93 109.382 204.773 116.678 205.162 124.121C205.298 128.218 204.856 132.314 203.849 136.287C202.773 140.385 201.156 144.32 199.04 147.99C196.862 151.7 194.306 155.176 191.412 158.36C188.573 161.488 185.406 164.482 182.317 167.301C176.079 172.921 169.977 177.941 164.724 182.267L147.132 196.635L148.599 195.882C149.546 195.36 150.936 194.646 152.655 193.661C155.339 192.154 158.873 190.088 162.986 187.539C153.331 194.433 145.838 199.377 145.838 199.377L137.38 198.527L106.482 203.548L86.456 186.689ZM117.644 136.867C113.395 121.823 115.461 109.194 123.765 99.3065C131.49 90.1144 141.995 85.4411 154.933 85.4411C160.258 85.4832 165.555 86.2168 170.691 87.6232C172.236 88.8753 173.847 90.0422 175.519 91.1185C177.379 92.305 179.171 93.5945 180.888 94.9808C187.764 100.833 192.606 108.717 194.714 117.498C197.244 128.756 194.212 139.59 185.715 149.689C177.218 159.789 168.335 164.868 158.294 164.868C148.638 164.868 137.283 160.349 123.244 150.867C120.917 146.378 119.041 141.669 117.644 136.809V136.867ZM164.145 81.1154C162.6 80.7485 160.958 80.4202 159.201 80.1498C155.827 79.654 152.412 79.4794 149.005 79.6284C145.113 79.7941 141.261 80.4826 137.553 81.6754C133.522 82.9523 129.716 84.8551 126.276 87.3142C125.368 87.9129 124.557 88.6081 123.707 89.2454C122.858 89.8826 122.046 90.7323 121.216 91.5048C120.386 92.2772 119.768 93.0304 119.053 93.7835L118.551 94.3435L118.416 94.4787L118.3 94.6139L118.049 94.9422L117.026 96.236C114.374 99.7311 112.33 103.648 110.981 107.823C109.678 111.852 109.026 116.063 109.05 120.298C109.087 124.156 109.56 127.997 110.46 131.749C111.132 134.529 111.996 137.258 113.047 139.918C109.494 137.272 106.868 135.341 105.226 134.124C103.713 128.035 103.314 121.721 104.049 115.489C104.567 111.314 105.686 107.236 107.37 103.381C107.814 102.396 108.316 101.45 108.78 100.465C109.243 99.4803 109.861 98.534 110.402 97.6457C110.943 96.7574 111.599 95.8498 112.217 94.9422C112.835 94.0345 113.55 93.2042 114.148 92.3352C116.875 88.9512 120.007 85.9158 123.476 83.2975C126.845 80.7807 130.542 78.7342 134.464 77.2145C138.148 75.8188 141.986 74.8659 145.896 74.3758C149.396 74.0441 152.921 74.0506 156.42 74.3951C159.012 74.5473 161.591 74.8569 164.145 75.322C163.654 77.222 163.654 79.2154 164.145 81.1154ZM164.145 75.013C161.598 74.4526 159.018 74.0591 156.42 73.8351C152.856 73.4885 149.267 73.4885 145.703 73.8351C137.406 74.6746 129.492 77.7442 122.8 82.7182C119.257 85.375 116.054 88.4555 113.26 91.891C112.584 92.7793 111.87 93.5904 111.329 94.5366C110.788 95.4829 110.054 96.4677 109.398 97.3174C108.741 98.1671 108.278 99.2485 107.756 100.195C107.235 101.141 106.791 102.126 106.347 103.169C104.65 107.115 103.525 111.283 103.006 115.547C102.511 119.523 102.511 123.544 103.006 127.52C103.295 129.702 103.701 131.769 104.164 133.738L102.948 132.869L104.628 136.731L103.373 135.669C103.114 135.46 102.81 135.314 102.484 135.245C99.24 122.132 99.4911 105.505 112.487 90.0757C117.243 84.1916 123.276 79.4664 130.128 76.2579C136.98 73.0494 144.472 71.4417 152.037 71.5563C156.397 71.5674 160.745 72.0203 165.014 72.9081C164.614 73.5592 164.321 74.2698 164.145 75.013ZM95.1461 202.1C94.9794 202.301 94.7698 202.463 94.5325 202.573C94.2953 202.684 94.0365 202.74 93.775 202.737C93.3527 202.726 92.9456 202.577 92.6163 202.312L90.0672 200.149C89.8848 200 89.7343 199.815 89.6248 199.606C89.5153 199.397 89.4491 199.168 89.43 198.933C89.4107 198.697 89.4383 198.459 89.5112 198.234C89.5841 198.008 89.7009 197.8 89.8548 197.62L91.9211 195.167L95.1461 197.871L93.5239 201.733L97.0772 199.435L97.2317 199.551L95.1461 202.1ZM56.3886 154.498L57.6245 158.495L58.8411 154.633V157.742C58.8411 158.218 58.6519 158.675 58.3151 159.012C57.9783 159.349 57.5215 159.538 57.0452 159.538H53.7043C53.228 159.538 52.7712 159.349 52.4344 159.012C52.0976 158.675 51.9084 158.218 51.9084 157.742V154.498H56.3886ZM67.589 1.93964C70.9492 1.93964 75.6804 3.44591 75.6804 10.9579C75.6804 17.8906 72.4168 19.3969 67.7822 19.3969C64.171 19.3969 59.7101 18.47 55.3071 18.47C47.2756 18.543 39.4067 20.7418 32.5007 24.8427L33.9104 23.935C36.7991 22.1268 39.8585 20.6068 43.0446 19.3969C45.5614 18.4378 48.1426 17.657 50.769 17.0603C52.9319 16.5775 54.6313 16.2685 55.8672 16.114L57.7983 15.9016L55.8672 15.7664C54.1091 15.6984 52.3486 15.7371 50.5952 15.8823C47.8565 16.1097 45.1427 16.5749 42.4845 17.2727C38.9739 18.1151 35.572 19.3593 32.3462 20.9804C28.43 22.8911 24.8392 25.4066 21.7057 28.4345C18.0909 31.8808 15.1848 36.0005 13.1509 40.5619C12.0893 42.9139 11.2426 45.3571 10.6211 47.8616C9.98781 50.4679 9.57439 53.1229 9.38522 55.7984C9.38522 56.4743 9.38522 57.073 9.38522 57.7296V58.6951V59.7379C9.38522 61.0704 9.38522 62.3836 9.38522 63.716C9.51092 66.4128 9.82712 69.0973 10.3315 71.7495C11.2879 77.1755 13.3734 82.3401 16.4531 86.9087C19.5784 91.2811 23.6262 94.9136 28.3102 97.5492C32.5517 99.9527 37.0989 101.772 41.828 102.956C45.9222 104.049 50.092 104.837 54.303 105.312C58.1652 105.795 61.7378 106.046 64.8855 106.143C68.0332 106.239 70.7947 106.258 73.0541 106.143C75.3135 106.027 77.0708 106.027 78.2874 105.969H80.2185L73.1893 105.042L69.5202 104.501C68.1877 104.289 66.7393 104.115 65.1945 103.845C63.6496 103.574 62.0274 103.304 60.328 102.976C58.6287 102.647 56.8327 102.28 54.9595 101.894L52.1401 101.238L49.0503 100.427C47.1192 99.8665 45.1881 99.2872 43.0639 98.4954H42.4845C53.6464 102.01 68.6318 103.671 88.3099 103.671V134.318L68.516 151.524H42.2914L21.9182 127.79L14.9082 123.001C14.9082 123.001 1.93112 80.3622 1.93112 59.3131C1.93112 7.19227 58.7445 5.5122 58.7445 5.5122C58.7445 5.5122 60.0191 1.93964 67.589 1.93964ZM67.8594 21.4053C71.8633 23.253 75.6572 25.5255 79.1757 28.1835C90.4921 36.6997 96.2468 47.7071 96.2468 60.6455C96.2468 73.584 89.7003 84.5528 76.7618 93.32C72.5663 96.1352 68.0953 98.5163 63.4178 100.427C49.2628 98.9396 38.8734 95.985 31.5158 91.3889C21.0685 84.8617 16.3952 74.9744 16.3952 59.3131C16.3952 28.647 41.8666 20.5556 55.3265 20.5556C57.5413 20.6004 59.7523 20.7616 61.9502 21.0384C63.8719 21.2908 65.8058 21.439 67.7435 21.4825L67.8594 21.4053ZM86.3595 99.3065C83.7718 99.1327 79.9482 98.8816 74.9273 98.592L75.8928 98.0513C78.7172 96.3753 81.4209 94.504 83.9842 92.451C86.8369 90.1699 89.4276 87.5792 91.7087 84.7266C94.2058 81.6625 96.2242 78.2377 97.6951 74.5689C99.2388 70.79 100.158 66.7856 100.418 62.7118C100.476 61.6892 100.476 60.664 100.418 59.6414C100.418 58.6218 100.36 57.6032 100.244 56.5902C99.702 50.6181 97.8421 44.8405 94.7985 39.6736C92.923 36.5021 90.6519 33.582 88.0396 30.9836C85.7123 28.6559 83.1858 26.5365 80.4889 24.6496C78.8474 23.4716 77.2446 22.4867 75.719 21.5984C77.7715 20.555 79.451 18.9024 80.5275 16.8672C82.9183 18.3586 85.2142 19.9967 87.4023 21.7722C90.0905 23.9465 92.5787 26.3572 94.8371 28.9753C97.3054 31.8194 99.4312 34.9434 101.171 38.2832C103.002 41.8322 104.365 45.6036 105.226 49.503C106.092 53.5247 106.488 57.6333 106.404 61.7463V63.407C106.404 63.9478 106.404 64.5271 106.404 65.0099C106.289 65.9947 106.231 66.941 106.076 67.9838C105.922 69.0266 105.748 70.0115 105.555 71.0156C105.362 72.0198 105.091 72.9468 104.821 73.9896C103.734 77.814 102.129 81.4719 100.051 84.8617C96.4375 90.5114 91.8006 95.4365 86.3788 99.3837L86.3595 99.3065ZM98.2551 60.6455C98.2551 40.1564 84.2546 28.2801 73.7107 22.2357C74.2193 22.1441 74.7174 22.0018 75.1976 21.8108C76.7811 22.7571 78.4419 23.8578 80.1606 25.0937C82.7869 27.0082 85.2422 29.1468 87.4988 31.4857C90.0251 34.0852 92.2236 36.9841 94.0453 40.1178C95.9861 43.4569 97.4303 47.0608 98.3324 50.8162C98.7917 52.721 99.108 54.6575 99.2786 56.6095C99.4138 57.5751 99.3945 58.5406 99.4331 59.6027C99.4718 60.6649 99.4331 61.5339 99.4331 62.596C99.2393 66.5662 98.4045 70.479 96.9613 74.1827C95.5395 77.7753 93.5866 81.1342 91.168 84.1472C86.8438 89.5175 81.6158 94.092 75.719 97.665L74.0583 98.6306L72.1272 98.534C83.7911 92.0841 98.2551 80.2077 98.2551 60.6455ZM81.3772 14.6657C81.4321 14.3979 81.4707 14.1271 81.4931 13.8546C84.2469 15.3475 86.8925 17.0317 89.4106 18.8948C86.8467 17.2786 84.1608 15.8646 81.3772 14.6657ZM50.8463 163.458C50.8465 162.55 51.1007 161.661 51.5801 160.89C52.2085 161.312 52.9472 161.54 53.7043 161.546H57.0452C58.0235 161.538 58.9622 161.158 59.6715 160.484C60.3324 161.335 60.6924 162.381 60.695 163.458C60.6959 164.107 60.5684 164.751 60.3199 165.35C60.0713 165.95 59.7066 166.495 59.2466 166.953C57.815 165.725 55.996 165.041 54.1099 165.022C53.1664 165.02 52.2305 165.19 51.3484 165.524C51.0301 164.881 50.8586 164.176 50.8463 163.458ZM55.7899 168.382C55.1993 168.367 54.6166 168.243 54.0712 168.016C54.6603 168.043 55.241 168.167 55.7899 168.382ZM49.1855 173.017C49.1838 172.366 49.3129 171.721 49.565 171.121C49.8171 170.52 50.1871 169.977 50.6532 169.522C52.0763 170.752 53.8899 171.436 55.7706 171.453C56.7205 171.458 57.6632 171.288 58.5514 170.951C58.8781 171.612 59.0498 172.338 59.0535 173.075C59.0724 173.281 59.0724 173.487 59.0535 173.693H58.7252C57.3738 173.693 56.0451 174.04 54.8653 174.699C53.6856 175.358 52.6943 176.308 51.9856 177.459C51.146 177.06 50.437 176.43 49.9412 175.644C49.4455 174.858 49.1834 173.947 49.1855 173.017ZM57.1224 176.879C56.6844 177.229 56.1873 177.497 55.6547 177.671C56.0976 177.329 56.5933 177.062 57.1224 176.879ZM53.7236 181.533C53.7132 181.328 53.7132 181.121 53.7236 180.915H54.0712C55.4343 180.905 56.7718 180.544 57.9553 179.867C59.1388 179.191 60.1288 178.222 60.8301 177.053C61.6685 177.46 62.3736 178.098 62.8626 178.892C63.3517 179.685 63.6046 180.601 63.5916 181.533C63.6105 181.739 63.6105 181.946 63.5916 182.151H63.2633C61.9024 182.16 60.5668 182.52 59.3859 183.197C58.2051 183.873 57.2192 184.844 56.5237 186.014C55.6825 185.606 54.9734 184.97 54.478 184.177C53.9826 183.384 53.7211 182.468 53.7236 181.533ZM61.6605 185.396C61.2169 185.732 60.7211 185.993 60.1929 186.168C60.6319 185.825 61.129 185.563 61.6605 185.396ZM58.2618 190.05C58.2513 189.844 58.2513 189.637 58.2618 189.432H58.59C59.9528 189.419 61.2895 189.057 62.4727 188.381C63.6559 187.705 64.6462 186.737 65.3489 185.569C66.334 186.078 67.122 186.9 67.589 187.906C66.1755 188.501 64.9641 189.492 64.1007 190.76C63.2374 192.028 62.7588 193.518 62.7226 195.051C61.4901 194.939 60.3455 194.366 59.5182 193.445C58.6909 192.525 58.2421 191.326 58.2618 190.088V190.05ZM67.9173 191.034C67.7824 191.683 67.5178 192.298 67.1396 192.842C66.7613 193.387 66.277 193.849 65.7159 194.201C65.868 193.552 66.15 192.94 66.545 192.402C66.9399 191.865 67.4396 191.413 68.0139 191.073L67.9173 191.034ZM66.16 197.368C67.5591 196.775 68.7599 195.795 69.6218 194.543C70.4837 193.291 70.971 191.819 71.0264 190.301C71.997 190.38 72.9223 190.745 73.6854 191.35C74.4485 191.955 75.015 192.772 75.3135 193.699C74.1973 194.364 73.2614 195.293 72.588 196.404C71.9146 197.515 71.5243 198.775 71.4513 200.072C71.1942 200.092 70.9359 200.092 70.6788 200.072C69.7664 200.085 68.8685 199.842 68.0869 199.371C67.3053 198.9 66.6713 198.22 66.2566 197.407L66.16 197.368ZM79.2337 205.421C78.1967 205.416 77.1874 205.086 76.3487 204.476C75.5101 203.866 74.8844 203.008 74.5604 202.022C75.6777 201.359 76.6145 200.43 77.288 199.319C77.9616 198.208 78.3513 196.947 78.4226 195.65C78.6797 195.63 78.9379 195.63 79.195 195.65C80.0767 195.655 80.9408 195.896 81.698 196.348C82.4552 196.799 83.0779 197.445 83.5014 198.218C82.7026 198.957 82.0654 199.853 81.63 200.85C81.1947 201.847 80.9705 202.924 80.9717 204.012C80.9518 204.385 80.9518 204.759 80.9717 205.132C80.4475 205.335 79.8922 205.446 79.3302 205.46L79.2337 205.421ZM88.8892 208.859C88.0063 208.86 87.1397 208.621 86.3814 208.169C85.6232 207.717 85.0016 207.068 84.5829 206.29C85.3798 205.55 86.0158 204.654 86.451 203.657C86.8863 202.66 87.1115 201.585 87.1126 200.497C87.1412 200.124 87.1412 199.75 87.1126 199.377L87.4216 199.28C87.5525 200.202 88.0119 201.046 88.7154 201.656L91.2838 203.799C91.9617 204.378 92.8255 204.693 93.717 204.687H93.8329C93.6636 205.843 93.089 206.901 92.2117 207.672C91.3344 208.443 90.2116 208.878 89.0437 208.897L88.8892 208.859Z" fill="#B69D74" fill-opacity="0.46"/>
</svg>
