<svg width="124" height="52" viewBox="0 0 124 52" fill="none" xmlns="http://www.w3.org/2000/svg">
<path d="M29.3203 50.8828C29.5781 50.8594 29.8594 50.6953 29.9531 50.5312C30.1172 50.2734 30.0938 49.8047 30.1875 49.4531C30.4219 48.6094 30.6562 47.7656 30.9609 46.9688L31.9453 44.1328L32.2734 43.1953C32.6016 42.375 32.9297 41.5312 33.3047 40.7344C33.4453 40.4297 33.5156 40.125 33.6562 39.7969C33.8203 39.3984 34.0312 38.9766 34.1953 38.5547C34.4062 38.0156 34.6172 37.4531 34.875 36.9375C36.3281 36.5859 37.8984 36.2578 39.3047 35.8359L39.6328 35.8125C40.1484 35.625 40.4531 35.4609 40.5938 34.9453C40.6172 34.8984 40.6406 34.8047 40.6406 34.7109V34.5703C40.5 33.9844 40.2656 33.7734 39.6797 33.6094C39.5625 33.5859 39.375 33.5156 39.1875 33.5156L38.9531 33.5625C38.5547 33.6797 38.0391 33.8672 37.6406 34.0312L37.3828 34.0781C37.2891 34.1016 37.1719 34.1719 37.1016 34.2188L36.8672 34.2422C36.5625 34.3594 36.2109 34.5703 35.8359 34.6172C35.8828 34.3594 36 34.1484 36.0938 33.9375C36.2812 33.4922 36.4219 33.0469 36.6328 32.625C36.9609 31.8984 37.2188 31.125 37.5469 30.3516C37.8281 29.6484 38.1797 28.9219 38.4375 28.2188C39.6094 25.2422 40.8281 22.2656 41.9766 19.2656L42.1641 18.5859C42.3516 18.0234 42.6328 17.4141 42.8438 16.8281C43.0078 16.3594 43.1016 15.9141 43.2891 15.4453C43.3125 15.375 43.3359 15.3047 43.3359 15.2344C43.4297 14.9297 43.5234 14.6016 43.6406 14.2734C43.8047 13.7812 43.9453 13.2891 44.0859 12.75C44.4141 11.5078 44.7891 9.9375 44.7891 8.4375V8.0625C44.7422 6.98438 44.4844 5.97656 43.875 5.20312C43.2656 4.40625 42.2812 4.03125 41.1797 3.77344H40.9688C40.6875 3.72656 40.5234 3.70312 40.1484 3.70312C40.0078 3.67969 39.7734 3.67969 39.5391 3.67969C38.9297 3.72656 38.7891 3.79688 38.4141 3.79688C38.2266 3.86719 38.0391 3.84375 37.7812 3.89062C37.0547 4.10156 36.2578 4.17188 35.5547 4.42969C33.2812 5.17969 31.125 5.88281 29.0859 6.86719C22.7578 9.84375 17.1797 13.3359 11.9062 17.25C10.5938 18.2344 9.375 19.3594 8.08594 20.3906C7.64062 20.7656 7.24219 21.2578 6.77344 21.6328C6.65625 21.7266 6.5625 21.8906 6.42188 21.9844C6.07031 22.2891 5.78906 22.6172 5.48438 22.9688C4.94531 23.5547 4.33594 24.0703 3.86719 24.7266C3.77344 24.8672 3.58594 24.9609 3.49219 25.1016C3.16406 25.5938 2.95312 25.9453 2.50781 26.3906C1.875 27.375 1.21875 28.3828 0.703125 29.4844C0.421875 30.0938 0.28125 30.8672 0.117188 31.5469C0.09375 31.5938 0.09375 31.6641 0.09375 31.7344V31.9219C0.09375 32.0391 0.09375 32.1797 0.0703125 32.2969C0.046875 32.4141 0.046875 32.5781 0.046875 32.7188C0.046875 32.8828 0.0703125 33.0469 0.09375 33.1641L0.117188 33.2812L0.09375 33.3984C0.210938 33.6328 0.164062 33.6328 0.1875 33.8672C0.304688 34.3125 0.492188 34.7109 0.679688 35.0391C0.703125 35.0859 0.703125 35.1094 0.703125 35.1562L0.9375 35.4844C1.05469 35.6719 1.03125 35.6719 1.21875 35.8125C2.25 37.1719 3.65625 37.7578 5.32031 38.4375L5.57812 38.4609L6.14062 38.6719C6.21094 38.6719 6.28125 38.6719 6.35156 38.6953C6.9375 38.8828 7.66406 39 8.34375 39.1641C8.8125 39.2578 9.32812 39.2578 9.72656 39.3281C9.79688 39.3516 9.86719 39.3516 9.9375 39.3516H10.2656C10.8281 39.4688 11.5078 39.4219 12.0703 39.5391H12.7031C12.8672 39.5625 13.0078 39.5625 13.1719 39.5625H13.8281C14.0156 39.5625 14.2266 39.5625 14.4141 39.6094C14.5078 39.5859 14.5781 39.5859 14.6719 39.5859H15.5625L16.1016 39.6094C16.8984 39.5391 16.5234 39.5859 17.3438 39.5391H17.8594C18.4219 39.5391 18.4922 39.4688 19.1016 39.4688C19.6875 39.3984 20.3203 39.4219 20.9766 39.2812L21.3047 39.3047L21.4219 39.2812C21.5156 39.2578 21.6328 39.2344 21.75 39.2344C21.8438 39.2344 21.9609 39.2344 22.0781 39.2109C22.9219 38.9531 24 39.0469 24.8672 38.8125C25.0547 38.8125 25.2422 38.7891 25.4297 38.7656C25.9688 38.6016 26.6953 38.625 27.2578 38.4609C27.3516 38.4375 27.4219 38.4141 27.4922 38.4141L27.8438 38.3906C28.4531 38.2266 28.8984 38.1328 29.5078 38.0859L29.7422 38.0391C30.0938 37.9219 30.5625 37.875 30.9375 37.7812C31.0547 37.7578 31.1953 37.7344 31.3125 37.7344C32.0859 37.5 32.9766 37.3594 33.7734 37.1719L33.4922 37.9453C33.2344 38.6484 32.9297 39.3516 32.625 40.0547C32.25 41.0156 31.8281 41.9531 31.4062 42.8906C31.3125 43.0547 31.2891 43.2188 31.2422 43.4062L30.0469 46.2656C29.9062 46.5703 29.8359 46.8984 29.6719 47.1797C29.5781 47.3438 29.5781 47.5312 29.4844 47.6953L29.0625 48.7969C28.875 49.2656 28.6406 49.6172 28.5703 50.1562C28.5703 50.4844 28.8281 50.7422 29.0391 50.8359C29.1328 50.8594 29.2266 50.8828 29.3203 50.8828ZM15.5859 38.2734C15.3516 38.2734 15 38.2266 14.8125 38.2266L14.625 38.25C14.4844 38.2266 14.3438 38.2266 14.1797 38.2266H13.8281C13.6406 38.2266 13.4531 38.2266 13.2891 38.1797L13.0078 38.2031L12.6094 38.1328L12.3281 38.1562C11.6719 38.0391 10.8984 38.0625 10.2891 37.9219C10.1719 37.8984 10.0781 37.8984 10.0078 37.8984C9.46875 37.8984 9.51562 37.8281 8.88281 37.7109H8.69531C7.6875 37.4531 6.65625 37.2422 5.74219 36.9141C5.67188 36.8906 5.625 36.8203 5.57812 36.7969C5.03906 36.6094 4.54688 36.4219 4.10156 36.1406C3.96094 36.0469 3.82031 35.9062 3.67969 35.8125C3.09375 35.4375 2.4375 34.875 2.13281 34.2422C1.99219 33.9609 1.89844 33.6562 1.80469 33.3516C1.71094 33.0703 1.75781 32.8594 1.6875 32.5781C1.6875 32.3906 1.73438 32.25 1.73438 32.0859L1.71094 31.875C1.71094 31.6172 1.82812 31.2656 1.875 31.0547C1.92188 30.8438 1.89844 30.7266 1.96875 30.5391C2.01562 30.3984 2.13281 30.2109 2.15625 30.0469C2.17969 30 2.17969 29.9531 2.17969 29.9062L2.41406 29.4141C3.02344 27.8672 3.98438 26.6484 4.92188 25.4062C5.17969 25.0547 5.46094 24.75 5.71875 24.3984C5.78906 24.2578 5.95312 24.1875 6.02344 24.0938C6.46875 23.5078 6.98438 22.9453 7.52344 22.4766C7.57031 22.4297 7.61719 22.3828 7.64062 22.3359C8.15625 21.9141 8.36719 21.7266 8.71875 21.2578C9.9375 20.2266 11.0859 19.1016 12.375 18.1406C14.5781 16.4531 16.8516 14.8594 19.2188 13.2891C19.8516 12.8438 20.5078 12.5391 21.1406 12.1172C23.3438 10.7344 25.7344 9.51562 28.1484 8.32031C29.625 7.59375 31.2188 7.05469 32.7891 6.42188C33.3984 6.1875 34.0781 6.02344 34.6875 5.78906C34.8516 5.74219 34.9688 5.76562 35.1328 5.71875C35.7891 5.50781 36.5625 5.41406 37.2656 5.20312C37.4531 5.15625 37.6406 5.15625 37.8047 5.13281C38.0859 5.13281 38.1797 5.0625 38.5312 5.0625L38.6484 5.03906H39.0234C40.4531 5.03906 41.8594 5.17969 42.5391 6.09375C42.9609 6.65625 43.125 7.54688 43.1719 8.50781V8.88281C43.1719 10.0781 42.9844 11.3438 42.75 12.1641C42.6328 12.5625 42.6328 12.9375 42.5391 13.3359C41.1562 18.6797 39.2812 23.5547 37.3828 28.4531L34.9453 34.4531C34.875 34.6172 34.7578 34.7812 34.7344 34.9688C34.4531 35.0625 34.125 35.2031 33.8672 35.2969C33.7969 35.2969 33.7031 35.2969 33.6094 35.3203C33.0703 35.5312 32.4141 35.6719 31.8516 35.8828C31.4062 35.9297 31.6406 36 31.2422 36C30.3984 36.2812 29.3906 36.4453 28.4766 36.7266C28.1953 36.7969 27.9141 36.7734 27.6328 36.8438C26.7188 37.125 25.6406 37.2188 24.6797 37.4531L24.1641 37.5C23.3438 37.7344 22.2891 37.6641 21.4688 37.8984C21.3516 37.9219 21.2109 37.9219 21.1172 37.9219C21 37.9219 20.9062 37.9453 20.8125 37.9688L20.5547 37.9453C20.3672 37.9922 20.0625 37.9922 19.875 38.0391C19.2656 38.0391 19.5469 38.0391 18.9844 38.0625L18.5859 38.1094C18.4688 38.1562 18.3047 38.1562 18.1172 38.1562L16.875 38.2266H16.1016L15.9844 38.2031L15.5859 38.2734ZM42.3281 30.2812C42.5625 30.2812 42.8672 30.1641 43.0312 30.0938C43.125 30.0703 43.1953 29.9766 43.2891 29.9297C43.3359 29.8359 43.4297 29.8359 43.5 29.7891C43.6875 29.6719 43.8281 29.4844 43.9688 29.3203C44.3672 28.8984 44.8359 28.4766 45.1406 27.9609H45.2109C45.1875 28.1719 45.0938 28.5 45.0938 28.7812V28.875C45.1172 29.0859 45.1172 29.2734 45.2344 29.4609C45.3281 29.6719 45.6328 29.9766 45.8438 30.0234L46.125 30.0469C46.2188 30.0469 46.2891 30.0469 46.4297 30.0703L46.5234 30.0469C47.2969 29.7422 47.625 29.5781 48.1641 28.9219C48.7266 28.4766 49.2188 27.9375 49.7109 27.4219C50.2734 26.8594 50.9062 26.5312 50.9062 26.0156V25.9922C50.8828 25.6875 50.6016 25.3359 50.1797 25.3359H50.1328C49.9688 25.3359 49.8047 25.3828 49.6641 25.5C49.4766 25.6641 49.3125 26.0625 48.8672 26.5547C48.4453 27.1406 47.8125 27.7266 47.2266 28.1719C47.0156 28.3359 46.7812 28.5938 46.4531 28.6641V28.5938C46.4531 28.0312 46.7344 27.5625 46.9453 27.1641C47.0625 26.9297 47.1328 26.6953 47.25 26.4844C47.2969 26.3203 47.4375 26.1797 47.5312 26.0625C47.6484 25.8984 47.6719 25.7109 47.7891 25.5469C47.8594 25.4297 47.9766 25.3594 48.0469 25.2656L48.4453 24.4688C48.7969 23.9297 49.1953 23.625 49.2422 22.9688C49.2188 22.4531 48.7031 22.0078 48.2109 22.0078C47.6016 22.0312 47.1328 23.0859 46.8984 23.6953C46.7344 23.6719 46.6641 23.25 46.5703 23.1328C46.3828 22.8281 45.8906 22.4531 45.6094 22.4531L45.2812 22.4766C45.2109 22.4531 45.0938 22.4297 44.9766 22.4297C44.0391 22.5938 43.4062 23.2734 42.9844 23.8828C42.9375 23.9297 42.8906 23.9531 42.8438 23.9766C42.7734 24.0469 42.75 24.1406 42.7266 24.2109L42.5625 24.375C42.0234 25.1719 41.625 26.0156 41.25 27C41.1328 27.3516 40.8984 28.1016 40.8984 28.7344V28.8281C40.8984 29.1328 41.0156 29.3438 41.1328 29.5312C41.2734 29.7188 41.2734 29.9062 41.4844 30.0469C41.6016 30.1172 41.6953 30.0938 41.8594 30.1406C42.0469 30.2344 42.0938 30.2578 42.3281 30.2812ZM42.9141 28.3125L42.8672 28.2891L42.8438 27.9844C42.8438 27.5625 42.9844 27.2109 43.1016 26.8828C43.3359 26.2734 43.6406 25.8281 43.9688 25.3594C44.0391 25.1953 44.2266 25.1016 44.3438 24.9609C44.4375 24.8672 44.5078 24.75 44.625 24.6797C44.7656 24.5625 44.9531 24.4453 45.1172 24.3516C45.2109 24.3047 45.3047 24.3047 45.3984 24.2578H45.4219C45.8906 24.2578 45.9609 25.2656 45.9609 25.3594C45.9375 25.5703 45.4688 25.9922 45.3516 26.1797C44.9297 26.7656 44.3672 27.2812 43.8047 27.7266C43.5469 27.9375 43.2656 28.2188 42.9141 28.3125ZM49.0781 31.6172L49.4297 31.5469C49.5703 31.5 49.6875 31.4766 49.8516 31.4766C50.1094 31.3359 50.3672 31.2422 50.625 31.1016C51.5391 30.6562 52.6406 29.4844 52.6406 28.3594L52.6172 28.1016C53.0625 27.75 53.6484 27.4922 54.1641 27.2344C54.3984 27.0938 54.8438 27 55.0078 26.8359C55.1016 26.7422 55.1953 26.5547 55.1953 26.3672C55.1953 26.25 55.1719 26.25 55.125 26.1094C55.0547 25.9453 54.8438 25.7578 54.5625 25.7578C54.4453 25.7578 54.4453 25.7812 54.3047 25.8281C54.1641 25.8984 54.0469 26.0156 53.9062 26.1094L52.9922 26.6484C52.7578 26.7891 52.4766 26.8594 52.3359 27.0234H52.3125C52.1484 27.0234 52.1484 26.8359 52.0547 26.7422C51.9141 26.5547 51.7266 26.3203 51.6797 26.0625L51.6562 25.9219C51.6562 25.8516 51.6797 25.7578 51.7266 25.6641C51.9375 25.1016 52.5 24.6328 53.4141 23.6953L53.6016 23.625C53.7891 23.4844 53.9531 23.2734 54.0234 23.0391L54.0703 22.7812L54.0234 22.4766C53.9062 21.8906 53.5078 21.5859 52.9453 21.5859L52.5938 21.6328C52.5234 21.7031 52.4297 21.7031 52.3359 21.7734C52.1953 21.8672 52.1016 22.0547 51.9844 22.1484C51.9141 22.2422 51.8203 22.2422 51.7266 22.3125L51.1406 23.0859C51.0703 23.1328 50.9766 23.1797 50.9297 23.2734C50.8594 23.3203 50.8359 23.4375 50.7656 23.5078C50.2031 24.2109 49.7812 24.8906 49.5938 25.875C49.5938 25.9453 49.5938 26.0391 49.6172 26.1094C49.6406 26.2031 49.6406 26.2734 49.6406 26.3906C49.6406 26.5078 49.6406 26.6016 49.6641 26.6953C49.6875 26.8125 49.7109 26.9062 49.7812 27.0234L49.9219 27.4922C49.9453 27.5859 50.0625 27.6562 50.1094 27.7266C50.2031 27.9141 50.2031 28.0547 50.3438 28.1484C50.3438 28.3125 49.875 28.5469 49.7344 28.6875C49.1719 29.0859 48.5391 29.5312 48.2578 30.1406L48.1406 30.3047C48.1172 30.3984 48.0938 30.4922 48.0938 30.6094L48.1172 30.7969C48.1406 30.9375 48.1875 31.0312 48.2344 31.125C48.4219 31.3125 48.7969 31.5703 49.0781 31.6172ZM55.1484 30.2578C55.4062 30.2578 55.6641 30.2109 55.9219 30.1406L56.1562 30.1172C57.2578 29.6719 58.0781 29.1562 58.9688 28.5234C59.3438 28.2422 59.6719 27.8906 60.0469 27.6328C60.3516 27.3984 60.6328 27.1406 60.9375 26.9297C61.1016 26.8125 61.2891 26.7656 61.4062 26.5781C61.4531 26.4844 61.5469 26.3203 61.5469 26.1328L61.5234 26.0156C61.4531 25.6641 61.125 25.2891 60.7969 25.3594C60.6562 25.3594 60.5391 25.4062 60.3984 25.4766C60.2344 25.5703 60.1172 25.6875 60 25.875C59.7656 26.0859 59.5781 26.2734 59.3906 26.4844C58.5938 27.3047 57.5391 28.1719 56.3672 28.6406C56.1328 28.7344 55.5469 28.9453 55.1016 28.9453C54.9375 28.9453 54.7969 28.9219 54.6797 28.8516C54.4688 28.7578 54.3984 28.5 54.3984 28.2188C54.3984 27.7969 54.5391 27.3047 54.6562 27.0938C54.7734 27.0938 54.8438 27.1641 54.9609 27.1875H55.0781C55.2891 27.1875 55.7109 27.1172 55.8047 27.0938C55.9219 27.0469 55.9922 26.9531 56.0859 26.9062C56.1562 26.8594 56.25 26.8828 56.3203 26.8359C56.6719 26.625 57.0703 26.3906 57.4219 26.1562C58.2422 25.6406 59.2734 25.0547 59.8359 24.2812C59.9297 24.2344 60 24.1641 60.0703 24.0938C60.1641 23.9531 60.375 23.5781 60.4219 23.4141L60.4453 23.2266C60.4453 23.1328 60.4219 23.0391 60.3984 22.9688L60.375 22.6406C60.375 22.5469 60.375 22.4531 60.3281 22.3594C60.1641 21.9375 59.4844 21.6562 58.8516 21.6562C58.7109 21.7734 58.5 21.75 58.3125 21.8203C57.9375 21.9844 57.5391 22.2422 57.2109 22.4766C56.1562 23.2266 55.1016 24.5156 54.3984 25.6406C54.2109 25.9219 54.1172 26.2266 53.9531 26.5312C53.6953 26.9766 53.3672 27.7969 53.3672 28.5469C53.3672 28.9219 53.4609 29.2734 53.6484 29.5547C53.9766 30 54.5156 30.2578 55.1484 30.2578ZM55.7578 25.3594H55.6875C55.7578 25.1953 55.875 25.125 55.9688 24.9844C56.3672 24.4688 56.9297 24.0234 57.4922 23.6719C57.7266 23.5078 58.125 23.4844 58.3359 23.3203L58.4766 23.3438L58.4531 23.3672C58.4062 23.6484 58.0312 23.9531 57.8438 24.0938L57.7969 24.1875C57.5391 24.4922 57.0469 24.7031 56.7422 24.8906C56.4609 25.0781 56.0156 25.1484 55.7578 25.3594ZM55.7812 51.7266C55.9453 51.7266 56.1094 51.6562 56.2266 51.5859C56.4375 51.4219 56.3906 51.0703 56.4844 50.7656C56.6016 50.3203 56.7422 49.875 56.9062 49.4531C57.8438 47.0391 58.8281 44.6484 59.8828 42.375C60.1406 42.375 60.375 42.4219 60.6094 42.4688C60.9609 42.5625 61.3594 42.5391 61.6875 42.6094H61.9453C62.2734 42.6797 62.7891 42.6797 63.0938 42.75H63.4688C63.6328 42.7969 63.8203 42.7969 63.9844 42.7969H64.4297C64.6172 42.7969 64.7812 42.7969 64.9453 42.8438L65.1562 42.8203C65.2266 42.8203 65.2969 42.8203 65.3438 42.8438C65.5312 42.8438 65.6719 42.7969 65.8359 42.7969L66 42.8203L66.4453 42.8438C66.9141 42.8438 67.5 42.7969 67.7812 42.75C68.0391 42.7031 68.3203 42.7266 68.5547 42.6797H68.8359C69.0469 42.6328 69.3281 42.6562 69.5625 42.5859C70.3125 42.3984 71.0859 42.3516 71.8125 42.1406C72.9609 41.8125 74.1562 41.3906 75.0703 40.8047C75.1641 40.7812 75.2344 40.7578 75.3281 40.7109C75.8203 40.4062 76.2656 40.0547 76.7109 39.7031C76.8281 39.6328 77.0625 39.3516 77.1328 39.2344L77.4375 38.9766C77.6016 38.7188 77.8125 38.4844 77.9766 38.25C78.4453 37.4766 78.7031 36.6562 78.9609 35.6484V35.3672C79.0312 35.1094 79.0547 34.8047 79.0547 34.4766C79.0547 33.7031 78.8906 32.8594 78.75 32.3438C78.6562 32.1094 78.6797 31.8984 78.6094 31.6875C78.1875 30.5859 77.8359 29.5078 77.3203 28.5234C76.8047 27.5391 76.2188 26.5781 75.6094 25.6875C74.9766 24.7266 74.3672 23.7656 73.7109 22.8281C73.4531 22.4766 73.125 22.125 72.8672 21.7734L71.6953 20.1797C71.5781 19.9922 71.3672 19.8516 71.25 19.6641L70.8281 19.0547C70.7344 18.9375 70.5938 18.8438 70.5 18.7266C70.4297 18.6094 70.4062 18.5156 70.3125 18.4453C70.3125 18.0703 70.6875 17.4844 70.8281 17.1562L71.9297 14.6016L74.8359 7.66406C75.1172 6.96094 75.3281 6.21094 75.6094 5.50781C75.7031 5.32031 75.6797 5.15625 75.75 4.94531C75.9141 4.38281 76.1016 3.63281 76.1016 2.95312C76.1016 2.48438 76.0312 2.03906 75.7969 1.66406C75.3984 1.00781 74.5781 0.75 73.5703 0.726562C73.4531 0.796875 72.75 0.75 72.5625 0.796875C71.8125 0.984375 71.0859 1.10156 70.3828 1.33594C68.8828 1.80469 67.5 2.46094 66.2344 3.1875C65.7656 3.44531 65.3438 3.84375 64.9219 4.14844C64.8984 4.21875 64.8516 4.26562 64.8047 4.3125C64.1016 4.92188 63.5391 5.71875 63.1875 6.67969C63.1172 6.86719 63.1641 7.00781 63.0938 7.21875C63.0234 7.45312 62.9766 7.82812 62.9766 8.17969C62.9766 8.39062 63 8.57812 63.0469 8.74219C63.1641 9.28125 63.2578 9.84375 63.4453 10.3359C64.3125 12.6094 65.7891 14.3906 67.1016 16.2188L68.2266 17.7422L68.5312 18.0703C68.7188 18.3516 68.9062 18.6562 69.1641 18.8906C69.1406 19.1719 69 19.3594 68.9062 19.5469C68.6953 20.0625 68.5078 20.5547 68.2969 21.0234C67.6641 22.5234 67.0547 24.0469 66.4219 25.5234C64.9922 28.875 63.5859 32.2031 62.1094 35.5078C61.9219 35.9062 61.8047 36.3047 61.6172 36.7266C61.2891 37.4531 60.9141 38.2031 60.6094 38.9297C60.3281 39.5625 60.0938 40.2188 59.7422 40.7812C59.4141 40.7812 59.0625 40.6875 58.7578 40.6172C58.5469 40.5469 58.3828 40.5938 58.1484 40.5234L57.3281 40.2891H57.1641C57.0234 40.2656 56.8125 40.1719 56.6719 40.1484C56.5781 40.125 56.5078 40.125 56.4141 40.125C55.4531 39.7969 54.3984 39.5625 53.4844 39.2109C53.0391 39.0469 52.6641 38.9766 52.2422 38.8359C52.1719 38.8125 52.1016 38.7422 52.0547 38.7188L51.7969 38.6719C51.4922 38.5312 51.1641 38.4141 50.8125 38.2969C50.6484 38.2266 50.4375 38.0859 50.2734 38.0156C49.8281 37.8281 49.4062 37.7109 48.9844 37.5C47.1562 36.6797 45.4688 35.6719 43.8047 34.6875C43.7344 34.6641 43.6875 34.5469 43.6172 34.5234C43.5469 34.4766 43.4531 34.4766 43.3828 34.4297C43.2188 34.3125 43.0312 34.125 42.8438 33.9844C42.6562 33.8672 42.4688 33.7734 42.2578 33.6328C42.0938 33.5156 41.9297 33.3281 41.7656 33.2109C41.4141 32.9531 41.0859 32.6953 40.7109 32.4375L40.5703 32.2734C40.5 32.2031 40.3828 32.1797 40.3125 32.1094C40.2422 32.0625 40.2188 31.9453 40.1484 31.8984L39.5391 31.4297C39.4453 31.3594 39.3984 31.2188 39.3047 31.1484C39.0234 30.9375 38.8359 30.6797 38.6016 30.4688C38.2266 30.0938 37.8516 29.7422 37.5469 29.3203L37.2891 29.1094L37.1719 28.875C37.1016 28.7812 36.9844 28.7578 36.9375 28.6875C36.8672 28.5938 36.8203 28.4766 36.75 28.3594L36.6094 28.2656C36.5625 28.1953 36.5391 28.125 36.5156 28.0547C36.4453 27.9609 36.3281 27.8906 36.2578 27.7969C36.2109 27.7266 36.2109 27.6328 36.1406 27.5625C36.0938 27.4688 35.9766 27.4219 35.9297 27.3281C35.7891 27.1406 35.7422 26.9297 35.5547 26.7891C35.3203 26.6016 35.0391 26.5312 34.7812 26.5312C34.3359 26.5312 33.8906 26.7422 33.6797 27.1172C33.5625 27.3047 33.5156 27.5156 33.5156 27.7031C33.5156 28.1953 33.8438 28.6875 34.0781 29.0156C34.7344 29.9297 35.4844 30.8906 36.375 31.5703C36.4453 31.6172 36.4688 31.7578 36.5625 31.8047C36.9375 32.1094 37.2656 32.4609 37.6875 32.7422L37.9219 33C38.6484 33.5156 39.3281 34.1016 40.0547 34.5938C41.0156 35.2266 41.9766 35.8359 42.9375 36.4219C43.0312 36.4688 43.1484 36.4688 43.2422 36.5391L44.1094 37.0781C44.2266 37.1484 44.3438 37.1484 44.4609 37.2188C44.6484 37.3359 44.8828 37.4766 45.0703 37.5703L45.2109 37.5938C45.2578 37.6172 45.3047 37.7109 45.375 37.7344C45.4688 37.7578 45.5391 37.7578 45.6094 37.8047C45.6797 37.8281 45.7734 37.9219 45.8438 37.9453C45.9141 37.9688 45.9844 37.9922 46.0547 37.9922C47.6016 38.8359 49.4062 39.4688 51.1406 40.1484C51.3516 40.2188 51.5156 40.2188 51.7266 40.2891C51.9844 40.4062 52.3359 40.5469 52.6172 40.6406C52.6875 40.6406 52.7578 40.6406 52.8281 40.6641C53.5547 40.9219 54.3984 41.1328 55.1719 41.3672C55.5938 41.5078 56.0625 41.5312 56.4844 41.6719C56.8594 41.7891 57.3516 41.8828 57.75 41.9766H57.9375C58.2656 42.0703 58.6875 42.1641 59.0859 42.2109V42.2344H59.1094C59.0859 42.5156 58.9219 42.7031 58.8281 42.9141L58.1719 44.3438C57.4219 46.0547 56.7188 47.7656 55.875 49.4062C55.6875 49.7812 55.5938 50.1094 55.4297 50.4844C55.3594 50.625 55.2422 50.8125 55.1953 50.9531L55.1719 51.0938C55.1719 51.4219 55.4297 51.6328 55.6172 51.7031L55.7812 51.7266ZM69.7031 17.6016C69.5391 17.5547 69.3047 17.1328 69.2109 16.9922C68.7656 16.3828 68.2734 15.8203 67.8281 15.1875C67.5234 14.7656 67.1484 14.3438 66.8672 13.9219C66.0234 12.7266 65.2031 11.4609 64.6406 10.0078C64.4062 9.39844 64.2656 8.76562 64.2656 8.17969C64.2656 7.38281 64.4766 6.65625 64.9219 6C65.1328 5.69531 65.4375 5.36719 65.7422 5.15625L65.8828 4.96875C66.1641 4.75781 66.4453 4.52344 66.7266 4.33594C67.8516 3.58594 69.1641 3.09375 70.5469 2.57812C71.1094 2.39062 71.7188 2.34375 72.3047 2.17969C72.4922 2.13281 72.9844 2.15625 73.125 2.08594C73.5703 2.10938 74.2266 2.0625 74.4375 2.39062C74.5312 2.53125 74.5781 2.83594 74.5781 3.14062C74.5781 3.32812 74.5547 3.51562 74.5312 3.65625C74.3672 4.33594 74.2734 5.03906 74.0625 5.64844C73.9922 5.83594 74.0156 5.97656 73.9453 6.16406C72.9844 8.90625 72.1172 11.6484 71.0156 14.25C70.9453 14.4375 70.9219 14.6016 70.8516 14.8125L70.1484 16.5C69.9844 16.875 69.8906 17.25 69.7031 17.6016ZM65.7188 41.3203L65.3906 41.2969L64.8281 41.3203L64.1719 41.2969C64.0312 41.2969 63.8906 41.2969 63.7734 41.2734C63.2109 41.1562 62.4609 41.2266 61.9688 41.1094H61.6875C61.4531 41.0391 61.125 41.0156 60.8906 40.9688H60.7266C60.6562 40.9688 60.6094 40.9453 60.5625 40.9219H60.5156C60.5391 40.6641 60.7031 40.4766 60.7969 40.2656L61.2422 39.2344C61.8047 37.9219 62.3672 36.6328 62.9531 35.3438C63.2812 34.5938 63.5625 33.8672 63.8906 33.0938C64.2656 32.2031 64.7344 31.2891 65.1094 30.3984C65.8828 28.5469 66.6328 26.7656 67.4531 24.9375C67.9922 23.6953 68.5078 22.4297 69.0703 21.1641L69.5156 20.1328C69.5859 19.9922 69.6797 19.8516 69.7266 19.6875H69.7969C69.8438 19.875 70.0312 19.9922 70.125 20.1328L70.6875 20.9531L70.8281 21.0469C71.5781 22.125 72.375 23.1562 73.125 24.2578C74.5547 26.3906 75.9375 28.6172 76.8516 31.2656C77.0391 31.8281 77.1328 32.4141 77.2734 33C77.3672 33.3281 77.2969 33.7031 77.3672 34.0078L77.3906 34.2656C77.3906 34.5 77.3438 34.7812 77.3203 34.9453V35.1797C77.2969 35.3203 77.2266 35.5547 77.1797 35.6719C77.1797 35.7656 77.1797 35.8359 77.1562 35.9297C76.9688 36.4688 76.7344 36.9141 76.4766 37.3359C75.3047 39.1875 73.1953 40.0781 70.875 40.7344C70.5234 40.8516 70.1484 40.875 69.8203 40.9688H69.6094C69.5859 40.9688 69.4688 41.0391 69.4219 41.0391C69.3281 41.0391 69.0703 41.0391 68.9062 41.0859C68.6016 41.1562 68.2031 41.1562 67.9219 41.2031C67.6172 41.2266 67.2188 41.2969 66.8672 41.2969L66.4219 41.2734C66.2109 41.2734 65.9531 41.3203 65.7188 41.3203ZM80.9531 30.5391C81.1172 30.5391 81.3281 30.4922 81.4453 30.4688L81.6797 30.4922C81.8906 30.4688 82.0078 30.375 82.1719 30.2812C82.2656 30.2109 82.4297 30.2344 82.5234 30.1641C82.6406 30.1172 82.6875 30 82.7812 29.9531C82.8516 29.8828 82.9688 29.8594 83.0391 29.8125C83.1094 29.7891 83.1797 29.6719 83.2266 29.6016L83.4141 29.4609C83.4844 29.3906 83.5078 29.2969 83.5781 29.2266C83.6484 29.2266 83.6953 29.1797 83.7422 29.1328C84.1641 28.6406 84.5391 28.0547 84.8672 27.4922C85.1016 27.5391 85.3594 27.6328 85.5469 27.7266C85.6406 27.75 85.7109 27.75 85.8047 27.75L86.3672 27.6562H86.4609C86.7891 27.6562 86.9062 27.4453 87.2344 27.375C87.8672 27.1406 88.1719 26.9531 88.2891 26.2969C88.2891 26.0859 88.2422 25.8984 88.1953 25.7812C88.0312 25.4062 87.7266 25.2422 87.4688 25.2422C87.375 25.2422 87.3047 25.2656 87.2344 25.2891C86.8125 25.4531 86.9297 25.6641 86.2969 25.9453L86.1562 25.9219C85.9688 25.9219 85.7812 25.9688 85.6406 25.9688H85.5703L85.5938 25.9219C85.5938 25.7578 85.6875 25.5703 85.7344 25.4297C85.875 25.125 85.8047 24.7969 85.9219 24.4922L85.9453 24.0703C85.9453 23.8594 85.9219 23.6484 85.8984 23.5312C85.7344 22.6406 85.4062 21.8203 84.2578 21.7734C84.0938 21.8672 83.9062 21.8672 83.7422 21.9141C83.6016 21.9609 83.25 22.2891 83.1328 22.4297C83.0859 22.4766 83.1094 22.5469 83.0625 22.6172C83.0156 22.6875 82.8984 22.7812 82.875 22.9219C82.7109 23.3438 82.6641 23.5547 82.6641 23.9766V24.1172C82.6641 25.125 83.1797 26.0625 83.7188 26.6719C83.6953 26.9297 83.4609 27.0469 83.3203 27.2109C82.9219 27.6797 82.4766 28.0547 81.9141 28.3359C81.7266 28.3359 81.5391 28.4062 81.3516 28.4766L81.0469 28.4062V27.9375C81.0938 27.0703 81.6562 26.7422 81.8438 26.1094C81.8672 26.0391 81.9375 26.0156 81.9844 25.9688C82.0781 25.875 82.0547 25.7578 82.125 25.6406C82.1484 25.5703 82.1953 25.5234 82.2188 25.4766C82.3359 25.3125 82.3594 25.2188 82.3594 25.0547V25.0078C82.3594 24.4688 81.9375 24.2109 81.4922 24.0703H81.4453C80.8594 24.0703 80.5078 24.6328 80.3203 24.9844L80.25 25.2656C80.0156 25.5703 79.8984 25.7109 79.875 26.0859C79.5469 26.7656 79.3359 27.4453 79.2891 28.3828C79.2891 28.6875 79.2891 28.9922 79.4062 29.2969C79.4531 29.4844 79.6172 29.5781 79.7109 29.7188C79.7812 29.8125 79.7812 29.9531 79.8516 30.0234L80.25 30.2812C80.7891 30.375 80.4609 30.4453 80.9531 30.5391ZM84.5391 25.1484C84.3984 25.1016 84.3516 24.8906 84.3047 24.7266C84.2109 24.4688 84.1641 24.1172 84.1641 23.7891C84.2109 23.5547 84.2812 23.3438 84.4219 23.1797C84.6562 23.3203 84.7266 23.7188 84.7266 24.1406C84.7031 24.4688 84.6328 24.5156 84.6094 24.8438C84.6094 25.0078 84.5391 25.0547 84.5391 25.1484ZM85.1953 35.7656C85.3594 35.7656 85.5 35.7422 85.6406 35.7188C85.7578 35.7188 85.875 35.7188 86.0156 35.6953C86.1797 35.6484 86.2969 35.5312 86.4141 35.4609C86.5078 35.4141 86.6016 35.4141 86.6953 35.3672C86.7891 35.2969 86.8359 35.1797 86.9297 35.1094C87 35.0625 87.0938 35.0625 87.1641 34.9922L87.375 34.7344C87.9609 34.3125 88.5 33.5625 88.9219 32.9531C88.9688 32.9062 89.0391 32.8594 89.0859 32.7891C89.6719 31.9922 90.1875 31.1719 90.7266 30.3516C91.0547 29.8594 91.4297 29.4141 91.7344 28.8984C91.9688 28.5 92.6484 27.3984 92.9062 27.0234L92.9766 26.8594C93.1172 26.6484 93.3281 26.4844 93.4219 26.25C93.4688 26.1328 93.4922 26.0156 93.4922 25.9219C93.4922 25.7812 93.4688 25.6875 93.4219 25.5938C93.3047 25.4062 93 25.2422 92.7188 25.2422C92.5781 25.2422 92.4375 25.2891 92.3203 25.3594C92.0625 25.5469 91.9922 25.8516 91.8047 26.1094C91.7578 26.1797 91.6641 26.25 91.6406 26.3203C91.3594 26.8125 90.5625 27.9141 90.2344 28.3594C90.1172 28.5234 90.0703 28.6875 89.9531 28.8516C89.4609 29.5547 88.8984 30.2344 88.4062 30.9375C88.3359 30.9609 88.2891 31.0078 88.2422 31.0312C87.9609 31.4297 87.6328 31.7578 87.3516 32.1328C87.2578 32.2734 87 32.4375 86.8594 32.5781C86.8125 32.625 86.7891 32.7188 86.7422 32.7656C86.5781 32.9297 86.3906 33.0469 86.2266 33.1875L86.0859 33.3516C85.8984 33.4922 85.6172 33.6094 85.4766 33.7969H85.4297C85.4062 33.6797 85.4062 33.5625 85.4062 33.4453C85.4062 32.7656 85.6172 31.875 85.7578 31.4297C85.875 31.0547 85.9219 30.7266 86.0391 30.375C86.4609 29.1094 86.8594 27.8203 87.375 26.6484C87.5156 26.6719 87.6094 26.7422 87.75 26.7656L87.8672 26.7891C88.1016 26.7891 88.2891 26.625 88.4062 26.5312C88.5 26.4609 88.6406 26.4141 88.7578 26.3438C88.875 26.25 88.9219 26.1094 89.0391 25.9688C89.0859 25.9219 89.1797 25.8984 89.2266 25.8281L89.3438 25.5938L89.5312 25.4297C89.5781 25.3594 89.6016 25.2656 89.6484 25.1719C89.6953 25.1016 89.8125 25.0312 89.8594 24.9609C90.2109 24.4219 90.5156 23.8594 90.8672 23.3203C92.4141 21.0234 93.7266 18.5391 95.1797 16.125C95.2734 15.9609 95.2969 15.7969 95.3906 15.6328C95.7422 15.0703 96.0234 14.4375 96.3516 13.875C96.4922 13.6406 96.5625 13.4062 96.6797 13.1484C97.1484 12.2812 97.5703 11.3203 98.0391 10.4062C98.1562 10.1484 98.2266 9.89062 98.3438 9.60938C98.6484 8.88281 99.0234 8.08594 99.2812 7.33594C99.4219 6.91406 99.5156 6.51562 99.6328 6.09375L99.6562 5.95312C99.6562 5.78906 99.6094 5.625 99.5625 5.50781C99.5391 5.39062 99.5391 5.27344 99.5391 5.15625C99.3984 4.78125 99.0469 4.47656 98.5312 4.47656L98.2969 4.52344C98.0156 4.61719 97.6875 4.6875 97.4766 4.85156C97.4297 4.89844 97.4062 4.96875 97.3828 5.03906L97.1016 5.25C97.0547 5.34375 97.0312 5.4375 96.9609 5.53125L96.8203 5.67188C96.75 5.74219 96.75 5.83594 96.7031 5.90625C96.6562 5.97656 96.5859 6 96.5391 6.07031C96.4219 6.23438 96.375 6.39844 96.2812 6.58594C95.3906 7.99219 94.6641 9.51562 93.8672 11.0156C91.1719 16.1719 88.6875 21.5156 86.3438 27.0234C85.5469 28.8984 84.8672 30.8203 84.1875 32.8359C84.0703 33.1875 83.9766 33.7031 83.9766 34.1953C83.9766 34.5938 84.0469 34.9688 84.2109 35.2031C84.2812 35.3203 84.4219 35.3438 84.5391 35.4375C84.6562 35.5078 84.75 35.6484 84.8906 35.7188C84.9844 35.7656 85.1016 35.7656 85.1953 35.7656ZM88.9453 23.1562C88.8984 23.1562 88.8984 23.1328 88.8984 23.1328V23.0859C88.8984 23.0391 88.9219 22.8984 88.9688 22.8516C89.0625 22.6172 89.1562 22.3594 89.2734 22.125C89.7656 21.1641 90.1875 20.1328 90.7031 19.1719C90.9609 18.6562 91.125 18.1641 91.3828 17.6484C92.2031 16.1016 93 14.4844 93.8906 13.0078C94.2656 12.3516 94.5703 11.6719 94.9688 11.0625C95.5078 10.2188 96.0469 9.35156 96.6328 8.53125C96.8203 8.27344 97.0547 8.01562 97.2422 7.73438C97.3125 7.61719 97.4531 7.59375 97.4766 7.42969H97.5234C97.2422 8.4375 96.9609 9.375 96.5625 10.2891C96.3516 10.8281 96.0469 11.3906 95.8125 11.9062C95.4375 12.75 95.0859 13.5938 94.6172 14.3438C94.5 14.5078 94.4766 14.6719 94.3828 14.8359C94.125 15.2578 93.9141 15.7031 93.6562 16.1484C93.6328 16.1953 93.5625 16.2422 93.5391 16.3125C93.3984 16.5469 93.3047 16.7812 93.1641 16.9922C92.9297 17.3906 92.6484 17.7891 92.4141 18.1641C91.7109 19.3125 90.9844 20.3672 90.2344 21.4688L90.1172 21.5625C89.9062 21.8438 89.7422 22.1016 89.5547 22.3828L89.3906 22.5234C89.2266 22.7109 89.1094 22.9453 88.9453 23.1328V23.1562ZM92.0859 30.3984C92.1562 30.3984 92.2266 30.3984 92.2969 30.375L92.4844 30.2812C92.625 30.2344 92.7656 30.2578 92.8828 30.1875C93.0234 30.1172 93.2109 29.9766 93.3516 29.8828C93.3984 29.8359 93.3984 29.7656 93.4453 29.7422C94.1719 29.1562 94.8047 28.5 95.3672 27.75L95.5781 27.5625C95.7656 27.3047 95.9531 27.0938 96.1172 26.8594C96.1875 26.7891 96.2578 26.7891 96.3047 26.6953H96.375C96.1875 27.1172 95.9531 27.9609 95.9531 28.6641C95.9531 28.9922 96 29.2969 96.1406 29.5078C96.3516 29.8359 96.5391 29.8125 96.8672 29.9766C97.0078 30.0469 97.1719 30.1875 97.4062 30.1875L97.5938 30.1641C98.8125 29.8594 99.4922 28.8281 100.406 28.1719C100.547 28.0781 100.664 27.8672 100.828 27.7734L101.391 27.2344L101.578 27C101.789 26.8594 102.047 26.7188 102.188 26.5078C102.234 26.4141 102.328 26.2031 102.328 26.0156L102.305 25.8984C102.211 25.5703 101.859 25.2656 101.484 25.2656C101.344 25.2656 101.203 25.3125 101.062 25.4062L100.852 25.6641C100.664 25.7812 100.523 25.9922 100.336 26.1094C99.7734 26.5078 99.4688 26.8594 98.9297 27.3281C98.6953 27.5156 98.2734 27.8203 98.0156 27.9609C98.0625 27.5156 98.2969 27.1172 98.4375 26.7656C98.5312 26.5547 98.5781 26.3906 98.6719 26.1562C98.6953 26.0625 98.8125 25.9922 98.8594 25.8984L98.8828 25.6875C99.2109 25.125 99.5625 24.6094 99.8203 23.9766C99.8438 23.8828 99.9609 23.8125 99.9844 23.7188C100.055 23.5547 100.031 23.4141 100.078 23.2031C100.125 23.0391 100.148 22.875 100.148 22.7344C100.148 22.4297 100.031 22.1719 99.75 21.9844C99.6094 21.8906 99.3984 21.8438 99.2109 21.8438C98.9062 21.8438 98.625 21.9375 98.4609 22.125C98.3906 22.2188 98.3672 22.3125 98.2969 22.4062C98.2266 22.5234 98.0625 22.5938 97.9922 22.7109L97.9219 22.8984C97.875 22.9922 97.7578 23.0859 97.7109 23.1562C97.6875 23.2031 97.6875 23.25 97.6875 23.2734L97.4297 23.5547C97.3594 23.6484 97.3359 23.7656 97.2422 23.8594C97.1719 23.9766 96.9844 24.0938 96.9141 24.2109L96.8906 24.3047C96.8438 24.375 96.6562 24.5156 96.6094 24.5859C96.3047 24.9844 95.9766 25.3125 95.6719 25.7109C95.5781 25.8281 95.4141 25.8984 95.3438 25.9922C95.0859 26.3438 94.7578 26.6719 94.4297 26.9297C94.3828 26.9531 94.3828 27.0234 94.3594 27.0703C94.2656 27.1875 94.0781 27.2812 93.9609 27.375C93.9141 27.3984 93.9141 27.4688 93.8672 27.5156C93.8203 27.5391 93.7734 27.5391 93.7266 27.5859L93.6562 27.6797C93.5156 27.7969 93.3984 27.8672 93.2578 27.9609L93.1406 28.125C92.9766 28.2188 92.7891 28.2891 92.6719 28.4062H92.6484C92.6484 27.9609 92.9062 27.6094 93.0703 27.2812C93.4688 26.4141 93.9375 25.6406 94.4766 24.8906L94.6406 24.7734L95.0391 24.1641C95.1094 24.0703 95.2266 24.0234 95.2734 23.9297C95.3672 23.7891 95.3438 23.6719 95.4141 23.4609L95.5312 23.0156C95.5312 22.6172 95.1797 22.2656 94.9453 22.1719C94.8281 22.125 94.7344 22.1016 94.6172 22.1016C94.125 22.1016 93.7031 22.5703 93.5156 22.8516C93.4453 22.9453 93.4688 23.0625 93.3984 23.1562C93.0938 23.6719 92.8594 24.2109 92.625 24.7969C92.4844 25.0547 92.2734 25.3359 92.1562 25.6172L91.5469 27.0703C91.4531 27.2578 91.3125 27.4922 91.2422 27.6797C91.125 28.0312 90.9375 28.6406 90.9375 29.1562C90.9375 29.3906 90.9609 29.625 91.0781 29.7891C91.1719 29.9062 91.3125 29.9531 91.4297 30.0469C91.5938 30.2109 91.7812 30.3984 92.0859 30.3984ZM99.6094 31.5703L99.7031 31.3359C99.8438 30.9609 100.008 30.5625 100.172 30.1641C100.289 29.8594 100.453 29.4844 100.617 29.0625C100.641 28.9922 100.664 28.9453 100.664 28.875C100.688 28.8047 100.711 28.7578 100.734 28.6875C100.875 28.3828 101.016 28.0781 101.133 27.75C101.25 27.4688 101.367 27.1875 101.484 26.9062C101.672 26.4844 101.859 26.0625 102.047 25.6172C102.469 24.6562 102.867 23.6953 103.266 22.7109L103.781 21.5859C104.039 21.0938 104.25 20.6016 104.461 20.1094C104.602 19.7812 104.766 19.4297 104.906 19.1016L105.375 19.125H105.727C105.867 19.1016 106.008 19.0781 106.172 19.0781L106.898 19.1016L110.508 19.1953L111.07 19.2188C111.211 19.2188 111.328 19.2188 111.445 19.1953H111.586C111.703 19.1953 111.844 19.1953 112.008 19.1953C112.172 19.2188 112.289 19.2188 112.383 19.2422C112.406 19.2422 112.453 19.2422 112.477 19.2422C112.5 19.2422 112.523 19.2422 112.547 19.2188C112.617 19.2422 112.711 19.2422 112.805 19.2422L113.156 19.2188H113.227C113.648 19.2422 114.094 19.2656 114.539 19.2656H115.195L115.828 19.2422L116.297 19.2891C116.391 19.3125 116.508 19.3125 116.625 19.3125L117.141 19.2891L117.328 19.3125L118.43 19.3594H118.805C118.945 19.3594 119.062 19.3594 119.156 19.3828L120.047 19.4766C120.188 19.5 120.328 19.5234 120.445 19.5234C120.797 19.5234 121.055 19.3828 121.172 19.0781V19.0312C121.195 18.8906 121.195 18.7969 121.195 18.7266C121.172 18.6562 121.172 18.6328 121.148 18.6094V18.5859C121.055 18.3281 120.867 18.2109 120.562 18.2109L120.117 18.2344H119.836L119.602 18.2578L118.523 18.375L116.977 18.3984H116.203L115.664 18.4453L114.797 18.4219H114.281C114.117 18.4453 113.906 18.4688 113.695 18.4688L112.688 18.4219C112.008 18.3984 111.141 18.375 110.086 18.375C108.75 18.3281 107.391 18.2812 106.008 18.2109H105.938C105.75 18.1875 105.562 18.1641 105.352 18.1641C106.078 16.5703 106.852 15.0234 107.625 13.5C107.648 13.3828 107.648 13.3125 107.672 13.2656C107.695 13.2188 107.695 13.1719 107.719 13.1484C107.719 13.125 107.719 13.125 107.742 13.1016C107.766 13.0781 107.789 13.0312 107.812 12.9844C107.836 12.9609 107.883 12.8906 107.906 12.8203C107.93 12.7734 107.93 12.7266 107.93 12.6797C108.094 12.4219 108.258 12.1641 108.375 11.9062C108.398 11.8594 108.422 11.8125 108.398 11.7656C108.68 11.3203 108.914 10.875 109.078 10.3828C109.125 10.2188 109.148 10.0547 109.172 9.89062C109.172 9.67969 109.102 9.49219 108.984 9.32812C108.867 9.1875 108.656 9.11719 108.352 9.11719C108.281 9.16406 108.211 9.1875 108.141 9.21094C108.023 9.23438 107.93 9.30469 107.836 9.375C107.648 9.67969 107.508 10.0078 107.391 10.4062C107.344 10.5469 107.297 10.6875 107.25 10.8047C107.062 11.25 106.852 11.7188 106.641 12.1875C106.547 12.4453 106.453 12.6797 106.336 12.9141C106.312 12.9844 106.289 13.0547 106.289 13.125C106.266 13.1953 106.219 13.2891 106.195 13.4062L105.867 14.0859C105.844 14.1562 105.82 14.2266 105.797 14.2969C105.773 14.3672 105.75 14.4375 105.727 14.5078C105.562 14.8594 105.398 15.2578 105.258 15.6562L104.977 16.3594C104.953 16.4062 104.93 16.4531 104.883 16.5234C104.859 16.5703 104.836 16.6172 104.812 16.6641C104.742 16.8047 104.672 16.9453 104.648 17.0859C104.625 17.1562 104.602 17.25 104.578 17.3203L104.227 18.1641H103.922L103.734 18.1406L103.242 18.1641C103.148 18.1641 103.055 18.1641 102.961 18.1406L102.492 18.1641L102.328 18.1406L99.4688 18.0938L98.9766 18.1172C98.8594 18.1172 98.7188 18.1172 98.6016 18.0938L98.4375 18.1406L98.1797 18.1172H97.7109C97.5469 18.1172 97.4062 18.1172 97.2891 18.1406C97.0781 18.1875 96.8438 18.2109 96.5859 18.2109C96.3281 18.2344 96.0938 18.2578 95.8828 18.3047C95.4375 18.3984 95.0391 18.5391 94.6875 18.75C94.3359 18.9609 94.0781 19.2891 93.9375 19.6875C93.9141 19.7344 93.9141 19.8047 93.9141 19.9219C93.8906 20.0391 93.8906 20.1328 93.8906 20.25C93.8906 20.3906 93.8906 20.5078 93.9141 20.5781L94.0078 20.7422C94.0312 20.7891 94.0312 20.8359 94.0312 20.8828C94.0078 20.9297 94.0312 20.9766 94.0547 21.0469C94.0781 21.0938 94.1016 21.1406 94.125 21.1875C94.1484 21.2109 94.1719 21.2578 94.1953 21.2812L94.2656 21.5156C94.3359 21.6328 94.4297 21.7734 94.5469 21.9141L94.6875 22.1016C94.7109 22.1484 94.7109 22.1953 94.7109 22.2188C94.7344 22.2656 94.7344 22.3125 94.7578 22.3359L94.8047 22.3828C94.8516 22.4062 94.875 22.4531 94.8984 22.4766L95.3672 23.2266C95.9531 24.0938 96.4922 24.9844 96.9844 25.9453C97.2188 26.4844 97.4062 27.0234 97.5469 27.6094L97.7344 28.2188V28.4766L97.8281 28.9453V29.2969C97.8516 29.4609 97.875 29.625 97.875 29.8359C97.875 30.1875 97.8516 30.5156 97.7812 30.8438V31.1016C97.7109 31.3359 97.6641 31.5703 97.6406 31.8047C97.5703 32.1094 97.5 32.4141 97.4297 32.6953C97.4062 32.7188 97.4062 32.7188 97.4062 32.7188C97.3828 32.7422 97.3828 32.7422 97.3594 32.7656C97.3359 32.7891 97.3359 32.7891 97.3359 32.8125L97.2891 33.0938C97.2656 33.1875 97.2188 33.2812 97.1484 33.3984C97.0781 33.5156 97.0312 33.6094 97.0078 33.7031C96.9844 33.7969 96.9609 33.8672 96.9375 33.9375C96.9141 34.0078 96.8906 34.1016 96.8672 34.1953L96.7734 34.3828C96.6797 34.5234 96.6094 34.6641 96.5625 34.8047L96.5156 35.0391C96.5156 35.25 96.6094 35.4375 96.7734 35.5547C96.9375 35.6953 97.1016 35.7891 97.2891 35.8125H97.3828C97.5938 35.8125 97.8047 35.7188 97.9688 35.5078C98.1328 35.3203 98.2734 35.1562 98.3438 34.9922C98.7422 34.4062 99.0469 33.7266 99.2812 32.9766C99.3516 32.6953 99.4219 32.4141 99.4922 32.1328C99.5156 31.9688 99.5625 31.7812 99.6094 31.5938V31.5703ZM99.6562 28.7344V28.5938L99.5625 28.125C99.4922 27.7266 99.3984 27.375 99.2812 27.0703C99.2344 26.9531 99.2109 26.8125 99.1875 26.6719C99.1641 26.5547 99.1172 26.4141 99.0703 26.2969C99.0469 26.2734 99.0234 26.2266 99 26.1797C98.9766 26.1328 98.9531 26.0859 98.9297 26.0625L98.5312 25.0547C98.5078 25.0312 98.4844 25.0078 98.4609 24.9844C98.4375 24.9609 98.4141 24.9141 98.3906 24.8672C98.3672 24.8203 98.3438 24.7734 98.3203 24.7031C98.2969 24.6328 98.2734 24.5859 98.25 24.5391L98.2031 24.4453C98.1094 24.3281 98.0391 24.2109 97.9688 24.0938C97.8984 23.9766 97.8281 23.8594 97.7812 23.7422C97.7578 23.6719 97.7109 23.5781 97.6641 23.5078C97.6406 23.4844 97.6172 23.4375 97.5938 23.3906C97.5469 23.3672 97.5234 23.3203 97.5 23.2969C97.4297 23.1797 97.3594 23.0859 97.3125 22.9922C97.2891 22.9219 97.2422 22.8281 97.1953 22.7578L97.1484 22.7109C97.1016 22.6875 97.0547 22.6406 97.0312 22.5938L96.9609 22.4297C96.8672 22.2656 96.75 22.1016 96.6328 21.9375C96.5156 21.8203 96.4219 21.6797 96.3516 21.5391L96.2812 21.375L96.0938 21.0938C95.9766 20.9297 95.8594 20.7422 95.7656 20.5781C95.7422 20.5312 95.7188 20.4844 95.6953 20.4141C95.6719 20.3672 95.6484 20.3203 95.625 20.2734C95.625 20.1094 95.6719 20.0156 95.7656 19.9688C95.8359 19.9219 95.9531 19.875 96.0703 19.8516L96.2109 19.8047C96.375 19.7578 96.5625 19.7109 96.75 19.6641C96.9141 19.6406 97.0547 19.5938 97.2188 19.5469L97.7109 19.5C98.0859 19.4297 98.4844 19.3828 98.9062 19.3594C99.1875 19.3359 99.4688 19.2891 99.7266 19.2656H100.102L100.477 19.2188H100.945L101.625 19.1953C101.766 19.1953 101.906 19.1953 102.023 19.1719H103.102C103.336 19.1719 103.594 19.1719 103.828 19.1484L103.805 19.1719C103.078 20.8828 102.352 22.6172 101.578 24.3281C100.992 25.6406 100.43 26.9531 99.8672 28.2656L99.6562 28.7344ZM106.828 21.6562L107.016 21.6094C107.484 21.4922 107.906 21.0469 107.883 20.5312C107.883 20.3438 107.812 20.1562 107.695 19.9453C107.484 19.6406 107.18 19.5 106.664 19.5234H106.57C106.5 19.5703 106.43 19.5469 106.359 19.5938C106.078 19.7344 105.867 19.9922 105.773 20.2969C105.75 20.3906 105.727 20.5078 105.727 20.6016C105.75 21.1641 106.266 21.6562 106.828 21.6562ZM103.875 30.4453C104.062 30.4219 104.25 30.2812 104.367 30.2578L104.602 30.1875C104.836 30.0938 105.023 29.9062 105.211 29.7656L105.891 29.0625L107.93 26.5781C108.094 26.4609 108.305 26.3438 108.398 26.1328C108.422 26.0625 108.445 25.9453 108.422 25.8516L108.398 25.6641C108.305 25.4531 108.023 25.2656 107.742 25.2656C107.648 25.2656 107.531 25.3125 107.438 25.3828C107.297 25.4766 107.203 25.6875 107.086 25.8047L106.992 25.8281C106.875 25.9219 106.805 26.1094 106.688 26.2031C106.383 26.4609 106.219 26.8125 105.328 27.6797C104.93 28.1953 104.484 28.3125 104.25 28.5234C104.203 28.5234 104.203 28.5234 104.18 28.5V28.4297C104.18 28.3359 104.25 28.1484 104.297 28.0781C104.391 27.7031 104.508 27.3984 104.625 27.1172C104.672 27.0234 104.648 26.9531 104.695 26.8594C104.859 26.4844 105.094 26.0625 105.305 25.7109C105.352 25.6406 105.352 25.5469 105.398 25.4766L106.219 24.1641C106.289 24.0469 106.266 23.9297 106.336 23.7891L106.523 23.5781C106.594 23.4141 106.617 23.2734 106.617 23.1328C106.594 22.5469 106.031 22.125 105.422 22.1484H105.398C105.258 22.2422 105.07 22.2422 104.93 22.3359C104.742 22.4766 104.719 22.6875 104.602 22.875C104.555 22.9453 104.438 23.0156 104.391 23.1094C104.344 23.1797 104.344 23.2969 104.32 23.3906C104.273 23.5078 104.18 23.625 104.133 23.7422C104.109 23.7891 104.109 23.8359 104.109 23.8828C103.57 25.2188 103.055 26.5547 102.539 27.9141L102.516 28.2188C102.445 28.3594 102.328 28.7812 102.352 29.0625V29.1797C102.492 29.625 102.68 30.1172 103.078 30.2578C103.195 30.3047 103.312 30.2812 103.453 30.3281C103.547 30.3516 103.664 30.4219 103.781 30.4219L103.875 30.4453ZM108.328 30.5391C108.492 30.5391 108.703 30.4922 108.82 30.4688L109.055 30.4922C109.266 30.4688 109.383 30.375 109.547 30.2812C109.641 30.2109 109.805 30.2344 109.898 30.1641C110.016 30.1172 110.062 30 110.156 29.9531C110.227 29.8828 110.344 29.8594 110.414 29.8125C110.484 29.7891 110.555 29.6719 110.602 29.6016L110.789 29.4609C110.859 29.3906 110.883 29.2969 110.953 29.2266C111.023 29.2266 111.07 29.1797 111.117 29.1328C111.539 28.6406 111.914 28.0547 112.242 27.4922C112.477 27.5391 112.734 27.6328 112.922 27.7266C113.016 27.75 113.086 27.75 113.18 27.75L113.742 27.6562H113.836C114.164 27.6562 114.281 27.4453 114.609 27.375C115.242 27.1406 115.547 26.9531 115.664 26.2969C115.664 26.0859 115.617 25.8984 115.57 25.7812C115.406 25.4062 115.102 25.2422 114.844 25.2422C114.75 25.2422 114.68 25.2656 114.609 25.2891C114.188 25.4531 114.305 25.6641 113.672 25.9453L113.531 25.9219C113.344 25.9219 113.156 25.9688 113.016 25.9688H112.945L112.969 25.9219C112.969 25.7578 113.062 25.5703 113.109 25.4297C113.25 25.125 113.18 24.7969 113.297 24.4922L113.32 24.0703C113.32 23.8594 113.297 23.6484 113.273 23.5312C113.109 22.6406 112.781 21.8203 111.633 21.7734C111.469 21.8672 111.281 21.8672 111.117 21.9141C110.977 21.9609 110.625 22.2891 110.508 22.4297C110.461 22.4766 110.484 22.5469 110.438 22.6172C110.391 22.6875 110.273 22.7812 110.25 22.9219C110.086 23.3438 110.039 23.5547 110.039 23.9766V24.1172C110.039 25.125 110.555 26.0625 111.094 26.6719C111.07 26.9297 110.836 27.0469 110.695 27.2109C110.297 27.6797 109.852 28.0547 109.289 28.3359C109.102 28.3359 108.914 28.4062 108.727 28.4766L108.422 28.4062V27.9375C108.469 27.0703 109.031 26.7422 109.219 26.1094C109.242 26.0391 109.312 26.0156 109.359 25.9688C109.453 25.875 109.43 25.7578 109.5 25.6406C109.523 25.5703 109.57 25.5234 109.594 25.4766C109.711 25.3125 109.734 25.2188 109.734 25.0547V25.0078C109.734 24.4688 109.312 24.2109 108.867 24.0703H108.82C108.234 24.0703 107.883 24.6328 107.695 24.9844L107.625 25.2656C107.391 25.5703 107.273 25.7109 107.25 26.0859C106.922 26.7656 106.711 27.4453 106.664 28.3828C106.664 28.6875 106.664 28.9922 106.781 29.2969C106.828 29.4844 106.992 29.5781 107.086 29.7188C107.156 29.8125 107.156 29.9531 107.227 30.0234L107.625 30.2812C108.164 30.375 107.836 30.4453 108.328 30.5391ZM111.914 25.1484C111.773 25.1016 111.727 24.8906 111.68 24.7266C111.586 24.4688 111.539 24.1172 111.539 23.7891C111.586 23.5547 111.656 23.3438 111.797 23.1797C112.031 23.3203 112.102 23.7188 112.102 24.1406C112.078 24.4688 112.008 24.5156 111.984 24.8438C111.984 25.0078 111.914 25.0547 111.914 25.1484ZM113.602 30.5156C114 30.4922 114.375 30.2812 114.516 30.0469C114.586 29.8828 114.562 29.7656 114.633 29.6016C114.703 29.3672 114.891 28.9688 115.031 28.7344C115.289 28.3125 115.594 27.8906 115.898 27.4453C115.992 27.2812 116.203 27.0938 116.344 26.9297C116.578 26.5781 116.906 26.1797 117.234 25.8984C117.492 25.6875 117.656 25.3828 117.914 25.1719C118.336 24.7969 118.758 24.4219 119.203 24.0938C119.438 23.9531 119.719 23.8594 119.906 23.6953C119.977 23.7188 119.953 23.6953 120 23.7422C120 23.8594 119.906 24.0234 119.883 24.0938C119.766 24.4688 119.648 24.8203 119.484 25.1953C119.25 25.7109 119.062 26.25 118.805 26.7656C118.664 27.1172 118.453 27.4688 118.312 27.8438C118.195 28.125 118.242 28.2188 118.055 28.4766C117.984 28.7344 117.914 29.0391 117.914 29.3203V29.4375C117.914 29.6484 117.961 29.8359 118.102 29.9766C118.195 30.1172 118.359 30.1406 118.5 30.2109C118.641 30.3047 118.852 30.4219 119.086 30.4219L119.32 30.375C119.438 30.3281 119.555 30.2344 119.625 30.1875L119.906 30.0703C119.977 30.0234 120.023 29.9297 120.07 29.8828C120.445 29.5781 120.797 29.2734 121.148 28.9453L121.242 28.7812C121.617 28.4766 121.875 28.1016 122.18 27.8203C122.391 27.6094 122.578 27.4688 122.789 27.2812C122.836 27.2344 122.859 27.1875 122.883 27.1406C123.141 26.8594 123.867 26.5078 123.867 25.9688V25.9453C123.844 25.8516 123.82 25.7344 123.773 25.6406C123.656 25.3594 123.328 25.1484 122.977 25.1484C122.859 25.1719 122.719 25.2188 122.578 25.3125C122.484 25.3828 122.414 25.5 122.344 25.6172L122.133 25.8047C121.992 26.0391 121.805 26.2969 121.594 26.4609C121.219 26.7891 120.938 27.2109 120.516 27.5391C120.281 27.7266 119.953 27.9141 119.766 28.125H119.719C119.812 27.7031 120.07 27.2812 120.234 26.8828L121.172 24.5391C121.266 24.3281 121.336 23.9766 121.336 23.625V23.4844C121.336 23.2734 121.289 23.0625 121.195 22.9453C120.984 22.6406 120.68 22.5234 120.375 22.5234H120.305C120.047 22.5234 119.766 22.6406 119.484 22.8047C118.852 23.1562 118.359 23.6719 117.82 24.1406L117.047 24.7969L116.719 25.1719C116.508 25.3594 116.297 25.5469 116.109 25.7578H116.062C116.086 25.5234 116.438 25.0781 116.578 24.8906C116.789 24.6094 116.812 24.4453 117.023 24.1641C117.094 24.0938 117.094 24 117.141 23.9062C117.281 23.6953 117.516 23.4141 117.586 23.1562C117.633 23.0156 117.656 22.8984 117.656 22.7812C117.609 22.2891 117.164 21.9609 116.789 21.8906L116.461 21.9141C116.297 22.0312 116.086 22.0312 115.969 22.1719C115.734 22.4062 115.664 22.7812 115.547 23.1328L115.383 23.3438C115.219 23.8125 115.078 24.2109 114.891 24.6094L114 26.5781C113.508 27.3281 113.719 27 113.367 27.8203C113.344 27.8672 113.25 27.9375 113.203 27.9844C113.203 28.0547 113.18 28.1016 113.156 28.1719C113.016 28.4531 112.805 28.7344 112.641 29.0391C112.547 29.2031 112.523 29.3672 112.523 29.5312C112.547 29.9062 112.828 30.2578 113.133 30.4219C113.273 30.4922 113.438 30.5156 113.602 30.5156Z" fill="#222127"/>
</svg>
