<svg width="40" height="38" viewBox="0 0 40 38" fill="none" xmlns="http://www.w3.org/2000/svg">
<path d="M38 12.0333V5.11716C38.0014 4.68075 37.7641 4.27498 37.3733 4.04554C36.978 3.81134 36.4826 3.79021 36.0667 3.98981L35.3333 4.33625V1.26642C35.333 0.842223 35.1093 0.446325 34.7372 0.211787C34.3651 -0.0227517 33.8942 -0.064791 33.4827 0.099798C24.474 3.6877 21.1893 6.28062 20 7.77785C18.8107 6.28062 15.5273 3.6877 6.52067 0.101065C6.109 -0.0648276 5.63721 -0.0236261 5.26428 0.210785C4.89135 0.445197 4.66694 0.841601 4.66667 1.26642V4.33625L3.92867 3.98538C3.51563 3.78957 3.02536 3.81065 2.63263 4.04112C2.23991 4.27158 2.00059 4.67863 2 5.11716V12.0333C0.895431 12.0333 0 12.884 0 13.9333V14.5667C0.00173577 15.0356 0.187099 15.4871 0.52 15.8334C0.187099 16.1796 0.00173577 16.6311 0 17.1001V17.7334C0.00173577 18.2023 0.187099 18.6539 0.52 19.0001C0.187099 19.3463 0.00173577 19.7979 0 20.2668V20.9001C0.00173577 21.3691 0.187099 21.8206 0.52 22.1668C0.187099 22.5131 0.00173577 22.9646 0 23.4335V24.0669C0 25.1162 0.895431 25.9669 2 25.9669V30.3053C1.99665 30.7844 2.28135 31.2233 2.73333 31.4359L16.0633 37.7693C16.2504 37.8601 16.4573 37.9076 16.6673 37.908C16.8652 37.9042 17.0596 37.8578 17.236 37.7725C17.4599 37.9214 17.7267 38.0011 18 38.0005H22C22.2728 38.0001 22.5389 37.9198 22.762 37.7706C23.1285 37.9517 23.5649 37.9517 23.9313 37.7706L37.2513 31.4435C37.7109 31.2328 38.0021 30.7901 38 30.3053V25.9669C39.1046 25.9669 40 25.1162 40 24.0669V23.4335C39.9983 22.9646 39.8129 22.5131 39.48 22.1668C39.8129 21.8206 39.9983 21.3691 40 20.9001V20.2668C39.9983 19.7979 39.8129 19.3463 39.48 19.0001C39.8129 18.6539 39.9983 18.2023 40 17.7334V17.1001C39.9983 16.6311 39.8129 16.1796 39.48 15.8334C39.8129 15.4871 39.9983 15.0356 40 14.5667V13.9333C40 12.884 39.1046 12.0333 38 12.0333V12.0333ZM38.6667 13.9333V14.5667C38.6667 14.9165 38.3682 15.2 38 15.2H35C34.4477 15.2 34 14.7747 34 14.25C34 13.7253 34.4477 13.3 35 13.3H38C38.3682 13.3 38.6667 13.5836 38.6667 13.9333ZM38.6667 17.1001V17.7334C38.6667 18.0832 38.3682 18.3668 38 18.3668H33.6667C33.1144 18.3668 32.6667 17.9414 32.6667 17.4167C32.6667 16.8921 33.1144 16.4667 33.6667 16.4667H38C38.3682 16.4667 38.6667 16.7503 38.6667 17.1001ZM38.6667 20.2668V20.9001C38.6667 21.2499 38.3682 21.5335 38 21.5335H35C34.4477 21.5335 34 21.1082 34 20.5835C34 20.0588 34.4477 19.6335 35 19.6335H38C38.3682 19.6335 38.6667 19.917 38.6667 20.2668ZM34 1.26642V4.9696L22.7333 10.3233C22.7253 10.3271 22.72 10.3334 22.712 10.3372C22.5001 10.2059 22.253 10.1351 22 10.1333H20.6667V9.22315C20.7193 9.02364 21.6887 6.16979 34 1.26642V1.26642ZM6 1.26642C18.6593 6.30849 19.326 9.18325 19.3333 9.18325V10.1333H18C17.7467 10.1338 17.4988 10.2035 17.286 10.334C17.278 10.3302 17.2727 10.3239 17.2647 10.3201L6 4.9696V1.26642ZM1.33333 13.9333C1.33333 13.5836 1.63181 13.3 2 13.3H5C5.55228 13.3 6 13.7253 6 14.25C6 14.7747 5.55228 15.2 5 15.2H2C1.63181 15.2 1.33333 14.9165 1.33333 14.5667V13.9333ZM6 20.5835C6 21.1082 5.55228 21.5335 5 21.5335H2C1.63181 21.5335 1.33333 21.2499 1.33333 20.9001V20.2668C1.33333 19.917 1.63181 19.6335 2 19.6335H5C5.55228 19.6335 6 20.0588 6 20.5835ZM6.33333 18.3668H2C1.63181 18.3668 1.33333 18.0832 1.33333 17.7334V17.1001C1.33333 16.7503 1.63181 16.4667 2 16.4667H6.33333C6.88562 16.4667 7.33333 16.8921 7.33333 17.4167C7.33333 17.9414 6.88562 18.3668 6.33333 18.3668ZM1.33333 24.0669V23.4335C1.33333 23.0837 1.63181 22.8002 2 22.8002H4.33333C4.88562 22.8002 5.33333 23.2255 5.33333 23.7502C5.33333 24.2749 4.88562 24.7002 4.33333 24.7002H2C1.63181 24.7002 1.33333 24.4167 1.33333 24.0669ZM3.33333 30.3053V25.9669H4.33333C5.20858 25.9698 6.01139 25.5055 6.41068 24.7656C6.80997 24.0257 6.73808 23.1354 6.22467 22.462C7.28887 21.8517 7.64801 20.5473 7.03467 19.5201C8.00484 19.2343 8.66613 18.3817 8.66613 17.4167C8.66613 16.4518 8.00484 15.5992 7.03467 15.3134C7.22774 14.9888 7.33053 14.6228 7.33333 14.25C7.33333 13.6621 7.0875 13.0983 6.64992 12.6826C6.21233 12.2668 5.61884 12.0333 5 12.0333H3.33333V5.1197L5.05933 5.93861L5.082 5.94938L16.6667 11.4506V36.6363L3.33333 30.3053ZM18 36.7338V11.4H22V11.4506V36.7338H18ZM36.6667 30.3028L23.3333 36.6363V11.4525L34.9133 5.95318C34.926 5.94811 34.9367 5.94178 34.9487 5.93608L36.6667 5.11716V12.0333H35C33.7113 12.0333 32.6667 13.0258 32.6667 14.25C32.6695 14.6228 32.7723 14.9888 32.9653 15.3134C31.9952 15.5992 31.3339 16.4518 31.3339 17.4167C31.3339 18.3817 31.9952 19.2343 32.9653 19.5201C32.352 20.5473 32.7111 21.8517 33.7753 22.462C33.2619 23.1354 33.19 24.0257 33.5893 24.7656C33.9886 25.5055 34.7914 25.9698 35.6667 25.9669H36.6667V30.3028ZM38.6667 24.0669C38.6667 24.4167 38.3682 24.7002 38 24.7002H35.6667C35.1144 24.7002 34.6667 24.2749 34.6667 23.7502C34.6667 23.2255 35.1144 22.8002 35.6667 22.8002H38C38.3682 22.8002 38.6667 23.0837 38.6667 23.4335V24.0669Z" fill="#B69D74"/>
</svg>
