<svg width="60" height="65" viewBox="0 0 60 65" fill="none" xmlns="http://www.w3.org/2000/svg">
<path d="M5.71161 34.4952C4.0138 35.238 2.56933 36.4596 1.55493 38.0105C0.54052 39.5614 0.000173869 41.3743 0 43.2275V63.0615C0 63.3357 0.108915 63.5986 0.302786 63.7925C0.496656 63.9864 0.759601 64.0953 1.03378 64.0953H46.5199C46.7941 64.0953 47.057 63.9864 47.2509 63.7925C47.4447 63.5986 47.5537 63.3357 47.5537 63.0615V60.9939C49.3048 60.9997 51.0373 60.6347 52.6372 59.923C54.2371 59.2112 55.6682 58.1687 56.8364 56.8642C58.0045 55.5596 58.8833 54.0225 59.4148 52.354C59.9463 50.6855 60.1185 48.9234 59.9202 47.1835C59.7218 45.4437 59.1574 43.7656 58.2639 42.2595C57.3705 40.7534 56.1683 39.4536 54.7365 38.4455C53.3047 37.4373 51.6757 36.7437 49.9566 36.4103C48.2375 36.0769 46.4673 36.1113 44.7625 36.5111C43.9221 35.6627 42.9306 34.979 41.8389 34.4952L29.9795 29.3046V26.5579C31.1371 25.52 32.0167 24.209 32.5381 22.7443H33.0808C34.0458 22.7453 34.9807 22.4084 35.7231 21.7919C36.4655 21.1754 36.9685 20.3184 37.1448 19.3697C37.3211 18.4209 37.1595 17.4404 36.6881 16.5984C36.2167 15.7564 35.4652 15.1061 34.5643 14.7604C34.9527 13.5873 35.15 12.3594 35.1484 11.1236V8.27142C35.1453 6.07895 34.2731 3.97714 32.7227 2.42683C31.1724 0.876517 29.0706 0.00422915 26.8782 0.0012207H19.6417C18.7066 0.00192059 17.7993 0.318984 17.0673 0.900839C16.3353 1.48269 15.8217 2.2951 15.61 3.20592C14.6992 3.41758 13.8868 3.93119 13.3049 4.6632C12.7231 5.39521 12.406 6.30256 12.4053 7.23765V9.3052C12.4078 11.1284 12.7138 12.9385 13.3109 14.6612C12.3569 14.9389 11.5352 15.5518 10.997 16.387C10.4588 17.2223 10.2404 18.2238 10.3817 19.2073C10.5231 20.1908 11.0149 21.0902 11.7665 21.7401C12.5182 22.3899 13.4792 22.7465 14.4729 22.7443H15.0156C15.5369 24.209 16.4165 25.52 17.5742 26.5579V29.3046L5.71161 34.4952ZM21.9698 33.204L18.8685 35.6851L16.5662 32.0028L18.5304 31.1427L21.9698 33.204ZM29.0201 31.1365L30.9843 31.9966L28.6821 35.6789L25.5808 33.1978L29.0201 31.1365ZM25.2055 38.2509H22.3482L21.3836 36.3208L23.7768 34.4063L26.17 36.3208L25.2055 38.2509ZM19.2541 38.0245L19.7317 37.642L20.6621 39.5028L19.8898 53.4133C17.3764 47.3467 15.9215 40.8942 15.5883 34.336L17.7313 37.765C17.8086 37.8887 17.9112 37.9947 18.0323 38.076C18.1535 38.1572 18.2905 38.2119 18.4343 38.2364C18.4917 38.2459 18.5498 38.2507 18.608 38.2509C18.8428 38.251 19.0707 38.1712 19.2541 38.0245ZM22.6872 40.3185H24.8664L25.8165 57.4212C25.1838 58.668 24.5039 59.8933 23.7768 61.0973C23.0511 59.894 22.3712 58.669 21.7372 57.4223L22.6872 40.3185ZM27.6638 53.4133L26.8926 39.5007L27.823 37.6399L28.3006 38.0224C28.4835 38.1696 28.711 38.2502 28.9457 38.2509C29.0039 38.2507 29.062 38.2459 29.1194 38.2364C29.2632 38.2119 29.4002 38.1572 29.5213 38.076C29.6425 37.9947 29.7451 37.8887 29.8223 37.765L31.9654 34.336C31.6322 40.8942 30.1773 47.3467 27.6638 53.4133ZM2.06755 43.2275C2.06754 41.7764 2.49057 40.3568 3.28485 39.1425C4.07913 37.9281 5.21021 36.9716 6.53966 36.3901L13.4784 33.3539C13.8081 43.4746 16.7147 53.3439 21.9233 62.0277H10.3378V50.6562H8.2702V62.0277H2.06755V43.2275ZM45.4861 62.0277H39.2835V57.8089C41.0246 59.3765 43.176 60.4163 45.4861 60.8068V62.0277ZM57.8914 48.5886C57.8914 50.6333 57.2851 52.632 56.1492 54.332C55.0133 56.032 53.3987 57.357 51.5097 58.1395C49.6208 58.9219 47.5422 59.1266 45.5369 58.7278C43.5315 58.3289 41.6895 57.3443 40.2438 55.8985C38.798 54.4528 37.8134 52.6108 37.4145 50.6054C37.0157 48.6001 37.2204 46.5215 38.0028 44.6326C38.7853 42.7436 40.1103 41.1291 41.8103 39.9931C43.5103 38.8572 45.509 38.2509 47.5537 38.2509C50.2945 38.2539 52.9222 39.344 54.8602 41.2821C56.7983 43.2201 57.8884 45.8478 57.8914 48.5886ZM42.5068 37.2678C40.86 37.9982 39.3925 39.0794 38.2069 40.4357C37.0212 41.792 36.1459 43.3908 35.642 45.1204C35.1382 46.8501 35.018 48.6688 35.2899 50.4497C35.5617 52.2306 36.219 53.9307 37.2159 55.4312V62.0277H25.6304C30.8391 53.3436 33.7457 43.474 34.0753 33.3529L41.014 36.3901C41.5439 36.6239 42.0448 36.9184 42.5068 37.2678ZM33.0808 20.6767H33.0198C33.0595 20.3335 33.0798 19.9884 33.0808 19.6429V16.5416C33.6292 16.5416 34.155 16.7595 34.5428 17.1472C34.9305 17.5349 35.1484 18.0608 35.1484 18.6092C35.1484 19.1575 34.9305 19.6834 34.5428 20.0711C34.155 20.4589 33.6292 20.6767 33.0808 20.6767ZM14.4729 20.6767C13.9245 20.6767 13.3986 20.4589 13.0109 20.0711C12.6231 19.6834 12.4053 19.1575 12.4053 18.6092C12.4053 18.0608 12.6231 17.5349 13.0109 17.1472C13.3986 16.7595 13.9245 16.5416 14.4729 16.5416V19.6429C14.4738 19.9884 14.4942 20.3335 14.5338 20.6767H14.4729ZM14.8626 12.5905C14.6072 11.514 14.4764 10.4116 14.4729 9.3052V7.23765C14.4729 6.6893 14.6907 6.16341 15.0784 5.77567C15.4662 5.38793 15.9921 5.1701 16.5404 5.1701C16.8146 5.1701 17.0775 5.06118 17.2714 4.86731C17.4653 4.67344 17.5742 4.4105 17.5742 4.13632C17.5742 3.58797 17.792 3.06208 18.1797 2.67434C18.5675 2.2866 19.0934 2.06877 19.6417 2.06877H26.8782C28.5225 2.07096 30.0989 2.72515 31.2617 3.8879C32.4244 5.05065 33.0786 6.62705 33.0808 8.27142V11.1236C33.0781 11.7195 33.0192 12.3138 32.9051 12.8986C32.8159 12.7502 32.6903 12.627 32.5401 12.5409C32.3899 12.4547 32.2202 12.4085 32.047 12.4065H31.2314C26.5741 12.4113 22.0203 11.0325 18.1479 8.4451C18.035 8.36973 17.9083 8.31736 17.7751 8.29097C17.6419 8.26457 17.5048 8.26467 17.3717 8.29126C17.2385 8.31785 17.1119 8.37041 16.9991 8.44594C16.8863 8.52147 16.7894 8.61849 16.7141 8.73145L16.3667 9.24834C15.6863 10.2729 15.1782 11.4018 14.8626 12.5905ZM16.5404 19.6429V15.5078C16.5399 13.8205 17.0049 12.1657 17.8843 10.7256C21.8397 13.1426 26.378 14.4383 31.0133 14.4741V19.6429C31.0133 21.5622 30.2508 23.4028 28.8938 24.7599C27.5367 26.117 25.696 26.8794 23.7768 26.8794C21.8576 26.8794 20.017 26.117 18.6599 24.7599C17.3028 23.4028 16.5404 21.5622 16.5404 19.6429ZM23.7768 28.9469C25.2129 28.946 26.6288 28.6097 27.9119 27.9648V29.3956L23.7768 31.8766L19.6417 29.3956V27.9648C20.9248 28.6097 22.3408 28.946 23.7768 28.9469Z" fill="white"/>
<path d="M38.5526 50.3533L44.7552 56.556C44.9491 56.7498 45.212 56.8586 45.4861 56.8586C45.7602 56.8586 46.0231 56.7498 46.217 56.556L56.5547 46.2182C56.7485 46.0243 56.8574 45.7614 56.8574 45.4873C56.8574 45.2132 56.7485 44.9503 56.5547 44.7564L53.4534 41.6551C53.2595 41.4613 52.9966 41.3524 52.7225 41.3524C52.4484 41.3524 52.1855 41.4613 51.9916 41.6551L45.4861 48.1607L43.1156 45.7902C42.9218 45.5964 42.6589 45.4875 42.3848 45.4875C42.1106 45.4875 41.8477 45.5964 41.6539 45.7902L38.5526 48.8915C38.3587 49.0854 38.2499 49.3483 38.2499 49.6224C38.2499 49.8965 38.3587 50.1594 38.5526 50.3533ZM42.3848 47.9829L44.7552 50.3533C44.9491 50.5471 45.212 50.656 45.4861 50.656C45.7602 50.656 46.0231 50.5471 46.217 50.3533L52.7225 43.8478L54.3621 45.4873L45.4861 54.3633L40.7452 49.6224L42.3848 47.9829Z" fill="white"/>
</svg>
