<svg width="40" height="38" viewBox="0 0 40 38" fill="none" xmlns="http://www.w3.org/2000/svg">
<path d="M39.1515 25.6787H28.9766V0.848179C28.9766 0.379406 28.5969 0.000488281 28.1289 0.000488281H0.847691C0.379766 0.000488281 0 0.379406 0 0.848179V31.6779C0 35.0856 2.7728 37.8575 6.18052 37.8575C21.2533 37.8575 18.5619 37.8618 33.6423 37.8618C37.1484 37.8618 40 35.0093 40 31.5032V26.5264C39.9992 26.0577 39.6202 25.6787 39.1515 25.6787V25.6787ZM6.17967 36.1621C3.70695 36.1621 1.69453 34.1506 1.69453 31.6779V1.69587H27.2812V31.5066C27.2812 31.5109 27.2838 31.5142 27.2838 31.5185C27.288 33.3554 28.0798 35.0067 29.3335 36.1664C29.1758 36.1664 30.9695 36.1621 6.17967 36.1621ZM38.3038 31.5032C38.3038 34.0743 36.2125 36.1664 33.6415 36.1664C31.0704 36.1664 28.9792 34.0743 28.9792 31.5032V27.3741H38.3046V31.5032H38.3038Z" fill="#B69D74"/>
<path d="M10.8971 17.6791L14.0123 19.794C14.1556 19.8915 14.3217 19.9407 14.4887 19.9407C14.6557 19.9407 14.821 19.8915 14.9651 19.794L18.0804 17.6791C19.8385 16.4847 20.8473 14.735 20.8473 12.8769V6.7769C20.8473 6.3895 20.5845 6.05127 20.2089 5.95548L14.6981 4.55256C14.5616 4.5178 14.4167 4.5178 14.2802 4.55256L8.76936 5.95548C8.39383 6.05043 8.13104 6.3895 8.13104 6.7769V12.8769C8.12935 14.735 9.1381 16.4855 10.8971 17.6791V17.6791ZM9.82473 7.43555L14.4879 6.24879L19.151 7.43555V12.8769C19.151 14.1637 18.4127 15.4022 17.1267 16.277L14.4879 18.0681L11.849 16.277C10.5622 15.403 9.82473 14.1645 9.82473 12.8769V7.43555Z" fill="#B69D74"/>
<path d="M13.725 13.6865C13.8894 13.8459 14.1022 13.9255 14.3149 13.9255C14.5311 13.9255 14.7473 13.8433 14.9126 13.6789L17.6955 10.9112C18.0278 10.5806 18.0295 10.0448 17.6989 9.71252C17.3683 9.38022 16.8317 9.37768 16.5003 9.70913L14.3073 11.8894L13.168 10.7857C12.8323 10.4602 12.2957 10.4678 11.9694 10.8035C11.6439 11.1392 11.6515 11.6766 11.988 12.0021L13.725 13.6865Z" fill="#B69D74"/>
<path d="M21.344 22.5261H7.6326C7.16468 22.5261 6.78491 22.905 6.78491 23.3738C6.78491 23.8426 7.16468 24.2215 7.6326 24.2215H21.3449C21.8128 24.2215 22.1925 23.8426 22.1925 23.3738C22.1925 22.905 21.8128 22.5261 21.344 22.5261Z" fill="#B69D74"/>
<path d="M21.344 27.7056H7.6326C7.16468 27.7056 6.78491 28.0845 6.78491 28.5533C6.78491 29.022 7.16468 29.4009 7.6326 29.4009H21.3449C21.8128 29.4009 22.1925 29.022 22.1925 28.5533C22.1925 28.0845 21.8128 27.7056 21.344 27.7056Z" fill="#B69D74"/>
</svg>
