<svg width="40" height="37" viewBox="0 0 40 37" fill="none" xmlns="http://www.w3.org/2000/svg">
<path d="M3.90625 20.4769C3.47504 20.4769 3.125 20.827 3.125 21.2582C3.125 21.6894 3.47504 22.0394 3.90625 22.0394C4.33747 22.0394 4.68751 21.6894 4.68751 21.2582C4.68751 20.827 4.33747 20.4769 3.90625 20.4769Z" fill="#B69D74"/>
<path d="M35.9077 23.186L28.5426 25.7181C28.5753 25.5368 28.5936 25.3518 28.5936 25.1642C28.5936 23.4411 27.1919 22.0391 25.4686 22.0391H20.4093C20.275 22.0391 20.1426 22.0047 20.0257 21.9387L15.8982 19.6173C15.0822 19.1574 14.1547 18.9141 13.2163 18.9141H7.67795C7.35568 18.005 6.48715 17.3519 5.46877 17.3519H0.781253C0.349733 17.3519 0 17.7017 0 18.1332V32.1954C0 32.627 0.349733 32.9767 0.781253 32.9767H5.46877C6.46396 32.9767 7.31723 32.3514 7.65598 31.4731C8.54038 31.5829 9.56364 31.8445 10.2066 32.2302L14.2924 34.6817C15.8402 35.6107 17.6124 36.1017 19.4178 36.1017C20.8485 36.1017 22.2346 35.8014 23.538 35.2094L38.1197 28.7887C39.7347 28.1335 40.5321 26.196 39.6089 24.4882C38.9299 23.2315 37.3396 22.6724 35.9077 23.186V23.186ZM6.25003 30.6366C6.2482 31.0657 5.89816 31.4142 5.46877 31.4142H1.56251V18.9144H5.46877C5.89938 18.9144 6.25003 19.2648 6.25003 19.6957V30.6366ZM37.5261 27.3437C37.5179 27.3468 37.5096 27.3504 37.5014 27.3538C37.5014 27.3538 22.898 33.7839 22.8953 33.7851C21.7951 34.2856 20.6251 34.5392 19.4178 34.5392C17.8956 34.5392 16.4014 34.1254 15.0965 33.342L11.0105 30.8905C10.1358 30.3659 8.8834 30.0461 7.81253 29.9179V20.4769H13.2163C13.8865 20.4769 14.5487 20.6503 15.1319 20.979L19.2594 23.3004C19.6092 23.4976 20.0071 23.602 20.4093 23.602H25.4686C26.3301 23.602 27.0311 24.3026 27.0311 25.1645C27.0311 26.0229 26.3298 26.727 25.4686 26.727H17.5266C17.0951 26.727 16.7454 27.0767 16.7454 27.5082C16.7454 27.9394 17.0951 28.2892 17.5266 28.2892H25.4686C25.9809 28.2892 26.4854 28.1619 26.9331 27.9233C26.9331 27.9233 36.4287 24.6591 36.4323 24.6579C37.1324 24.4052 37.924 24.6566 38.2344 25.231C38.6998 26.0919 38.315 27.0279 37.5261 27.3437V27.3437Z" fill="#B69D74"/>
<path d="M22.7535 18.9502C22.9006 19.0774 23.0828 19.1409 23.2653 19.1409C23.4478 19.1409 23.6303 19.0774 23.7771 18.9502C30.1513 13.4258 34.0942 10.6301 34.0942 6.28561C34.0942 2.84871 31.661 0.000488281 28.2427 0.000488281C25.9978 0.000488281 24.2788 1.29444 23.1716 3.23628C22.0669 1.29871 20.3496 0.000488281 18.1014 0.000488281C15.4845 0.000488281 13.2967 1.69636 12.5276 4.32058C12.4062 4.7347 12.6436 5.16866 13.0577 5.29012C13.4718 5.41158 13.9058 5.17416 14.027 4.76003C14.5961 2.81788 16.1952 1.56299 18.1014 1.56299C20.3301 1.56299 21.8935 3.54207 22.4187 5.38473C22.5124 5.72317 22.8206 5.95755 23.1716 5.95755C23.5229 5.95755 23.8308 5.72317 23.9245 5.38473C23.9351 5.34658 25.0204 1.56299 28.2427 1.56299C30.6878 1.56299 32.5317 3.59303 32.5317 6.28561C32.5317 9.76097 29.1344 12.2665 23.2647 17.3275C19.6883 14.2562 16.8474 12.0944 15.2327 9.97947C14.9709 9.63645 14.4808 9.57054 14.1377 9.83238C13.7947 10.0942 13.7291 10.5843 13.9906 10.9277C15.8107 13.3114 18.8832 15.5953 22.7535 18.9502V18.9502Z" fill="#B69D74"/>
<path d="M13.2036 6.88318C12.7724 6.88318 12.4224 7.23322 12.4224 7.66443C12.4224 8.09565 12.7724 8.44569 13.2036 8.44569C13.6348 8.44569 13.9849 8.09565 13.9849 7.66443C13.9849 7.23322 13.6348 6.88318 13.2036 6.88318Z" fill="#B69D74"/>
</svg>
