<svg width="40" height="40" viewBox="0 0 40 40" fill="none" xmlns="http://www.w3.org/2000/svg">
<path d="M38 36.0005H35.3333V14.9592L35.7787 15.2132C36.0147 15.3481 36.2758 15.4334 36.5459 15.4641C36.8161 15.4947 37.0897 15.4699 37.3499 15.3912C37.6102 15.3125 37.8516 15.1816 38.0596 15.0064C38.2675 14.8313 38.4376 14.6156 38.5593 14.3725L38.6993 14.0938C38.9278 13.6361 38.9722 13.1083 38.8234 12.6188C38.6746 12.1294 38.3439 11.7156 37.8993 11.4625L35.3333 9.99449V3.87783C35.7778 3.72128 36.1525 3.41249 36.3911 3.00614C36.6297 2.59979 36.7168 2.12211 36.6369 1.65771C36.5571 1.1933 36.3154 0.772145 35.9548 0.468826C35.5942 0.165506 35.1379 -0.000399755 34.6667 0.000493127H29.3333C28.8629 -0.000543154 28.4073 0.164657 28.0468 0.466927C27.6864 0.769197 27.4443 1.1891 27.3634 1.6525C27.2824 2.1159 27.3678 2.59299 27.6044 2.99956C27.8411 3.40612 28.2138 3.716 28.6567 3.87449V6.17983L20.992 1.80049C20.6897 1.62842 20.3478 1.53794 20 1.53794C19.6522 1.53794 19.3103 1.62842 19.008 1.80049L2.09733 11.4625C1.65329 11.7162 1.32332 12.1305 1.17527 12.62C1.02722 13.1095 1.07233 13.6372 1.30133 14.0945L1.44 14.3718C1.5617 14.6151 1.73173 14.8309 1.9397 15.0062C2.14767 15.1815 2.38921 15.3125 2.64954 15.3913C2.90988 15.47 3.18354 15.4948 3.45379 15.4642C3.72405 15.4336 3.98522 15.3482 4.22133 15.2132L4.66667 14.9592V36.0005H2C1.46957 36.0005 0.960859 36.2112 0.585787 36.5863C0.210714 36.9614 0 37.4701 0 38.0005C0 38.5309 0.210714 39.0396 0.585787 39.4147C0.960859 39.7898 1.46957 40.0005 2 40.0005H38C38.5304 40.0005 39.0391 39.7898 39.4142 39.4147C39.7893 39.0396 40 38.5309 40 38.0005C40 37.4701 39.7893 36.9614 39.4142 36.5863C39.0391 36.2112 38.5304 36.0005 38 36.0005V36.0005ZM29.3333 1.33383H34.6667C34.8435 1.33383 35.013 1.40406 35.1381 1.52909C35.2631 1.65411 35.3333 1.82368 35.3333 2.00049C35.3333 2.1773 35.2631 2.34687 35.1381 2.4719C35.013 2.59692 34.8435 2.66716 34.6667 2.66716H29.3333C29.1565 2.66716 28.987 2.59692 28.8619 2.4719C28.7369 2.34687 28.6667 2.1773 28.6667 2.00049C28.6667 1.82368 28.7369 1.65411 28.8619 1.52909C28.987 1.40406 29.1565 1.33383 29.3333 1.33383V1.33383ZM29.99 4.00049H34V9.23316L29.99 6.94183V4.00049ZM3.56 14.0558C3.4812 14.1009 3.39402 14.1295 3.3038 14.1397C3.21358 14.1499 3.12223 14.1416 3.03533 14.1153C2.94844 14.0889 2.86785 14.0451 2.79849 13.9865C2.72913 13.9279 2.67248 13.8558 2.632 13.7745L2.49333 13.4972C2.41731 13.3446 2.40258 13.1688 2.45218 13.0057C2.50177 12.8427 2.61192 12.7048 2.76 12.6205L19.6667 2.95783C19.7675 2.90081 19.8815 2.87084 19.9973 2.87084C20.1132 2.87084 20.2271 2.90081 20.328 2.95783L37.2407 12.6205C37.3886 12.7048 37.4986 12.8426 37.5482 13.0055C37.5978 13.1684 37.5832 13.344 37.5073 13.4965L37.3673 13.7752C37.327 13.8565 37.2704 13.9286 37.201 13.9871C37.1316 14.0456 37.0509 14.0892 36.964 14.1152C36.8773 14.1423 36.786 14.151 36.6957 14.1408C36.6055 14.1306 36.5184 14.1016 36.44 14.0558L20.992 5.22849C20.6897 5.05636 20.3479 4.96584 20 4.96584C19.6521 4.96584 19.3103 5.05636 19.008 5.22849L3.56 14.0558ZM6 14.2005L19.6667 6.38583C19.7675 6.32881 19.8815 6.29884 19.9973 6.29884C20.1132 6.29884 20.2271 6.32881 20.328 6.38583L34 14.2005V36.0005H6V14.2005ZM38 38.6672H2C1.82319 38.6672 1.65362 38.5969 1.5286 38.4719C1.40357 38.3469 1.33333 38.1773 1.33333 38.0005C1.33333 37.8237 1.40357 37.6541 1.5286 37.5291C1.65362 37.4041 1.82319 37.3338 2 37.3338H38C38.1768 37.3338 38.3464 37.4041 38.4714 37.5291C38.5964 37.6541 38.6667 37.8237 38.6667 38.0005C38.6667 38.1773 38.5964 38.3469 38.4714 38.4719C38.3464 38.5969 38.1768 38.6672 38 38.6672Z" fill="#B69D74"/>
<path d="M13.3488 29.7981C12.4011 29.7981 11.4922 29.4219 10.8217 28.7521C10.1513 28.0824 9.77416 27.1739 9.77319 26.2262V25.9607C9.77319 25.8642 9.81152 25.7717 9.87973 25.7035C9.94794 25.6352 10.0405 25.5969 10.1369 25.5969H16.5569C16.6534 25.5969 16.7459 25.6352 16.8141 25.7035C16.8824 25.7717 16.9207 25.8642 16.9207 25.9607V26.2262C16.9197 27.1732 16.5431 28.0812 15.8734 28.7509C15.2038 29.4205 14.2958 29.7972 13.3488 29.7981V29.7981ZM10.5043 26.3244C10.5307 27.0607 10.8417 27.7581 11.3719 28.2697C11.9021 28.7813 12.6102 29.0671 13.3469 29.0671C14.0837 29.0671 14.7918 28.7813 15.322 28.2697C15.8522 27.7581 16.1632 27.0607 16.1896 26.3244H10.5043Z" fill="#B69D74"/>
<path d="M16.557 26.3791C16.4874 26.3792 16.4193 26.3595 16.3606 26.3221C16.3019 26.2847 16.2552 26.2312 16.226 26.1681L13.3452 19.7772L10.468 26.1135C10.428 26.2013 10.3547 26.2696 10.2643 26.3034C10.1739 26.3372 10.0738 26.3336 9.98604 26.2936C9.89825 26.2536 9.82996 26.1803 9.7962 26.0899C9.76243 25.9995 9.76595 25.8994 9.80599 25.8116L13.0178 18.7442C13.047 18.681 13.0937 18.6276 13.1524 18.5902C13.2111 18.5528 13.2792 18.533 13.3488 18.5332C13.4184 18.533 13.4865 18.5528 13.5452 18.5902C13.6039 18.6276 13.6506 18.681 13.6798 18.7442L16.888 25.8662C16.9081 25.9099 16.9193 25.9571 16.921 26.0051C16.9227 26.0531 16.9148 26.101 16.8979 26.146C16.881 26.191 16.8554 26.2322 16.8224 26.2672C16.7895 26.3022 16.75 26.3303 16.7061 26.35C16.659 26.3701 16.6082 26.38 16.557 26.3791Z" fill="#B69D74"/>
<path d="M26.7747 29.7981C25.827 29.7981 24.9181 29.4219 24.2476 28.7521C23.5772 28.0824 23.2001 27.1739 23.1991 26.2262V25.9607C23.1991 25.8642 23.2374 25.7717 23.3056 25.7035C23.3738 25.6352 23.4664 25.5969 23.5628 25.5969H29.9828C30.0793 25.5969 30.1718 25.6352 30.24 25.7035C30.3083 25.7717 30.3466 25.8642 30.3466 25.9607V26.2262C30.3456 27.1732 29.969 28.0812 29.2993 28.7509C28.6297 29.4205 27.7217 29.7972 26.7747 29.7981V29.7981ZM23.9302 26.3244C23.9302 27.0788 24.2299 27.8023 24.7633 28.3357C25.2968 28.8692 26.0203 29.1688 26.7747 29.1688C27.5291 29.1688 28.2525 28.8692 28.786 28.3357C29.3194 27.8023 29.6191 27.0788 29.6191 26.3244H23.9302Z" fill="#B69D74"/>
<path d="M29.9824 26.3791C29.9128 26.3792 29.8447 26.3595 29.786 26.3221C29.7274 26.2847 29.6806 26.2312 29.6514 26.1681L26.7706 19.7772L23.8934 26.1135C23.8531 26.2006 23.78 26.2681 23.69 26.3015C23.6001 26.3349 23.5006 26.3314 23.4133 26.2918C23.3256 26.2521 23.2573 26.1793 23.2232 26.0893C23.1891 25.9993 23.192 25.8995 23.2314 25.8116L26.4432 18.7442C26.4725 18.681 26.5192 18.6276 26.5778 18.5902C26.6365 18.5528 26.7047 18.533 26.7742 18.5332C26.8438 18.533 26.912 18.5528 26.9706 18.5902C27.0293 18.6276 27.076 18.681 27.1052 18.7442L30.3134 25.8662C30.3335 25.9099 30.3447 25.9571 30.3464 26.0051C30.3481 26.0531 30.3403 26.101 30.3234 26.146C30.3064 26.191 30.2808 26.2322 30.2479 26.2672C30.2149 26.3022 30.1754 26.3303 30.1316 26.35C30.0844 26.3701 30.0336 26.38 29.9824 26.3791V26.3791Z" fill="#B69D74"/>
<path d="M26.7744 19.2607H13.3487C13.2523 19.2607 13.1597 19.2224 13.0915 19.1541C13.0233 19.0859 12.985 18.9934 12.985 18.8969C12.985 18.8005 13.0233 18.708 13.0915 18.6397C13.1597 18.5715 13.2523 18.5332 13.3487 18.5332H26.7744C26.8708 18.5332 26.9634 18.5715 27.0316 18.6397C27.0998 18.708 27.1381 18.8005 27.1381 18.8969C27.1381 18.9934 27.0998 19.0859 27.0316 19.1541C26.9634 19.2224 26.8708 19.2607 26.7744 19.2607Z" fill="#B69D74"/>
<path d="M25.0937 35.3634H15.0254C14.9289 35.3634 14.8364 35.325 14.7682 35.2568C14.6999 35.1886 14.6616 35.0961 14.6616 34.9996V33.9811C14.6616 33.4785 14.8613 32.9965 15.2167 32.6411C15.5721 32.2857 16.0541 32.0861 16.5567 32.0861H23.5623C24.0649 32.0861 24.547 32.2857 24.9024 32.6411C25.2578 32.9965 25.4574 33.4785 25.4574 33.9811V34.9996C25.4574 35.0961 25.4191 35.1886 25.3509 35.2568C25.2827 35.325 25.1902 35.3634 25.0937 35.3634ZM15.3891 34.6359H24.7299V33.9811C24.7299 33.6715 24.6069 33.3745 24.388 33.1555C24.169 32.9366 23.872 32.8135 23.5623 32.8135H16.5567C16.247 32.8135 15.9501 32.9366 15.7311 33.1555C15.5121 33.3745 15.3891 33.6715 15.3891 33.9811V34.6359Z" fill="#B69D74"/>
<path d="M22.0425 32.4496H21.315V30.3399H18.8052V32.4496H18.0778V29.9762C18.0778 29.8797 18.1161 29.7872 18.1843 29.719C18.2525 29.6507 18.345 29.6124 18.4415 29.6124H21.6788C21.7753 29.6124 21.8678 29.6507 21.936 29.719C22.0042 29.7872 22.0425 29.8797 22.0425 29.9762V32.4496Z" fill="#B69D74"/>
<path d="M19.696 19.0824H20.4235V29.9764H19.696V19.0824Z" fill="#B69D74"/>
<path d="M20.06 18.9551C19.6284 18.9551 19.2064 18.8271 18.8475 18.5873C18.4886 18.3475 18.2089 18.0066 18.0437 17.6078C17.8785 17.209 17.8353 16.7702 17.9195 16.3469C18.0037 15.9235 18.2116 15.5347 18.5168 15.2294C18.822 14.9242 19.2109 14.7164 19.6342 14.6321C20.0576 14.5479 20.4964 14.5912 20.8952 14.7563C21.294 14.9215 21.6348 15.2013 21.8746 15.5602C22.1144 15.9191 22.2424 16.341 22.2424 16.7727C22.2424 17.3515 22.0125 17.9066 21.6032 18.3159C21.1939 18.7252 20.6388 18.9551 20.06 18.9551V18.9551ZM20.06 15.285C19.7722 15.285 19.4909 15.3703 19.2517 15.5302C19.0124 15.69 18.8259 15.9173 18.7158 16.1831C18.6057 16.449 18.5769 16.7415 18.633 17.0238C18.6891 17.306 18.8277 17.5652 19.0312 17.7687C19.2347 17.9722 19.4939 18.1108 19.7762 18.1669C20.0584 18.2231 20.3509 18.1942 20.6168 18.0841C20.8827 17.974 21.1099 17.7875 21.2698 17.5482C21.4296 17.309 21.515 17.0277 21.515 16.7399C21.515 16.354 21.3617 15.984 21.0888 15.7111C20.816 15.4382 20.4459 15.285 20.06 15.285Z" fill="#B69D74"/>
</svg>
