<svg width="60" height="60" viewBox="0 0 60 60" fill="none" xmlns="http://www.w3.org/2000/svg">
<path d="M56.0591 22.6761C58.0934 22.8034 60.0172 21.3241 59.9999 19.1605V16.5238C59.9854 16.2719 59.9025 15.9528 59.5382 15.7501L32.1307 0.555984C30.7967 -0.1837 29.2035 -0.1837 27.8693 0.555984L16.8116 6.68627C16.387 6.92158 16.2336 7.45654 16.469 7.88111C16.7043 8.30568 17.2394 8.45919 17.6639 8.22365L28.7216 2.09336C29.5222 1.64957 30.478 1.64969 31.2785 2.09336L55.723 15.6449H4.27711L14.036 10.2347C14.4605 9.99938 14.6139 9.46442 14.3785 9.03986C14.1432 8.61529 13.6082 8.46189 13.1837 8.69732L0.462091 15.75C0.260061 15.8683 -0.00337586 16.1215 0.000139748 16.5238V19.1605C-0.0186102 21.23 1.85216 22.902 3.9409 22.6761L7.03136 27.0262V48.5959L3.9409 52.9458H2.05091C0.920175 52.9458 0.000139748 53.8659 0.000139748 54.9966V57.9263C0.000139748 59.057 0.920175 59.9771 2.05091 59.9771H57.9491C59.0799 59.9771 59.9999 59.057 59.9999 57.9263V54.9966C59.9999 53.8659 59.0799 52.9458 57.9491 52.9458H56.0591L52.9687 48.5959V27.0262L56.0591 22.6761ZM3.51575 20.9183C2.5465 20.9183 1.75794 20.1297 1.75794 19.1605V17.4027H58.2421V19.1605C58.2421 20.1297 57.4535 20.9183 56.4843 20.9183H3.51575ZM45.0291 38.5657C45.5146 38.5657 45.908 38.1722 45.908 37.6868V27.6247H51.2109V47.9974H45.908V41.7883C45.908 41.303 45.5146 40.9094 45.0291 40.9094C44.5436 40.9094 44.1502 41.303 44.1502 41.7883V48.5959L41.0598 52.9458H18.9404L15.8499 48.5959V27.0262L18.9404 22.6761H41.0599L44.1503 27.0262V37.6868C44.1502 38.1722 44.5437 38.5657 45.0291 38.5657ZM6.09726 22.6761H16.7841L14.5174 25.8669H8.36401L6.09726 22.6761ZM14.0921 27.6247V47.9974H8.78916V27.6247H14.0921ZM8.36401 49.7552H14.5173L16.784 52.9458H6.09726L8.36401 49.7552ZM57.9491 54.7036C58.1107 54.7036 58.2421 54.8351 58.2421 54.9966V57.9263C58.2421 58.0878 58.1107 58.2193 57.9491 58.2193H2.05091C1.88943 58.2193 1.75794 58.0878 1.75794 57.9263V54.9966C1.75794 54.8351 1.88943 54.7036 2.05091 54.7036H57.9491ZM53.9029 52.9458H43.2161L45.483 49.7552H51.6361L53.9029 52.9458ZM51.636 25.8669H45.4829L43.216 22.6761H53.9028L51.636 25.8669Z" fill="white"/>
</svg>
