<svg width="40" height="42" viewBox="0 0 40 42" fill="none" xmlns="http://www.w3.org/2000/svg">
<path d="M17.1972 14.4246C17.1972 13.7187 16.7503 13.1658 16.1798 13.1658C15.6096 13.1658 15.1627 13.7187 15.1627 14.4246C15.1627 15.1305 15.6093 15.6834 16.1798 15.6834C16.7503 15.6834 17.1972 15.1305 17.1972 14.4246Z" fill="#B69D74"/>
<path d="M23.8195 15.6834C24.39 15.6834 24.8369 15.1305 24.8369 14.4246C24.8369 13.7187 24.39 13.1658 23.8195 13.1658C23.249 13.1658 22.8024 13.7187 22.8024 14.4246C22.8024 15.1305 23.249 15.6834 23.8195 15.6834Z" fill="#B69D74"/>
<path d="M20.6539 18.6596C20.7172 18.6596 20.7816 18.6583 20.8472 18.6557C21.1891 18.6413 21.4549 18.3525 21.4404 18.0106C21.4264 17.6687 21.1389 17.404 20.7957 17.4174C20.4931 17.4302 19.9601 17.4123 19.7956 17.1504C19.5833 16.813 19.8276 16.0107 20.0597 15.5743C20.2213 15.2734 20.1087 14.8982 19.8077 14.7359C19.5065 14.5739 19.1306 14.6866 18.9683 14.9878C18.8742 15.1623 18.0684 16.7262 18.7445 17.807C19.0989 18.3733 19.7408 18.6596 20.6539 18.6596Z" fill="#B69D74"/>
<path d="M16.8133 19.3149C16.5271 19.5028 16.4474 19.8867 16.635 20.1729C16.6846 20.2488 17.8762 22.0281 20 22.0281C22.1235 22.0281 23.3154 20.2488 23.365 20.1729C23.552 19.8877 23.4726 19.5064 23.1883 19.3178C22.904 19.1296 22.5202 19.2077 22.3303 19.491C22.3217 19.5038 21.4445 20.7889 20 20.7889C18.5555 20.7889 17.6783 19.5041 17.671 19.4932C17.4834 19.207 17.0992 19.1273 16.8133 19.3149V19.3149Z" fill="#B69D74"/>
<path d="M8.20617 40.7229H1.31096C1.36922 40.3016 1.47007 39.7151 1.63878 39.0745C1.93363 37.9546 2.499 36.4471 3.5177 35.6234C5.31753 34.1683 12.9308 30.0903 15.4375 28.7614C15.8867 30.868 17.7611 32.453 19.9999 32.453C22.2383 32.453 24.1131 30.8676 24.5622 28.7611C25.4999 29.2583 27.1506 30.139 28.9341 31.118C29.2305 31.2803 29.6131 31.1686 29.7754 30.8728C29.94 30.5728 29.8305 30.1963 29.5305 30.0314C27.3804 28.8514 25.4224 27.8135 24.665 27.4136V24.5244C24.8119 24.3915 24.9554 24.2526 25.094 24.1043C25.8021 23.3453 26.387 22.3983 26.8474 21.2727C27.0545 21.3095 27.2585 21.3281 27.4579 21.3281C28.4468 21.3281 29.3237 20.8779 29.9592 20.0168C31.087 18.4871 31.2593 15.9058 30.3206 14.6009C30.279 14.543 30.2361 14.4879 30.1926 14.4348C31.3002 10.619 30.9651 7.3862 29.194 4.82122C26.6646 1.15752 22.0715 0.106493 20.5153 0.0107704C18.3156 -0.12433 16.7648 1.10437 16.0794 1.78948C15.1939 1.27821 14.2412 1.17449 13.2955 1.49239C11.6483 2.04591 10.2192 3.87264 9.5655 6.25962C9.43168 6.74816 9.34012 7.33434 9.2937 8.00119C9.26968 8.34246 9.52708 8.63859 9.86835 8.6626C10.2087 8.68694 10.5058 8.4289 10.5298 8.08763C10.5707 7.50209 10.6485 6.99691 10.7606 6.5868C11.2984 4.62273 12.4484 3.08413 13.6902 2.66667C14.4089 2.42528 15.12 2.56838 15.8025 3.09278C16.0733 3.30119 16.463 3.24901 16.6717 2.97849C16.6864 2.95992 18.1434 1.10662 20.4388 1.24748C21.7347 1.32751 25.9366 2.28442 28.1744 5.52521C29.6579 7.67401 29.9745 10.4077 29.121 13.6587C28.7884 13.5441 28.4311 13.5147 28.0585 13.5729C28.0521 13.3671 28.0444 13.2454 28.0431 13.2272C28.0258 12.966 27.8462 12.7435 27.5943 12.6721C20.8918 10.7688 17.941 6.41297 17.9129 6.37007C17.7855 6.17638 17.5601 6.0701 17.3299 6.09443C17.0991 6.11876 16.9015 6.27018 16.8177 6.48628C15.2919 10.4125 12.1907 12.7998 12.1599 12.8232C12.0155 12.9323 11.9259 13.0998 11.915 13.2807C11.9141 13.297 11.9086 13.3975 11.9038 13.5675C11.5395 13.5163 11.1899 13.5493 10.8643 13.6645C10.6953 12.471 10.5823 11.3681 10.5294 10.3789C10.5112 10.0373 10.2192 9.77446 9.87763 9.79335C9.53604 9.81159 9.27385 10.1036 9.29177 10.4452C9.35676 11.6569 9.50755 13.0277 9.73869 14.5209C9.71852 14.5471 9.69867 14.5734 9.67915 14.6006C8.74145 15.9042 8.91241 18.4842 10.0383 20.0136C10.6738 20.877 11.5513 21.3284 12.5419 21.3284C12.7387 21.3284 12.9404 21.3098 13.1453 21.274C13.6156 22.4162 14.214 23.3734 14.9365 24.1379C15.0652 24.274 15.1987 24.4014 15.3345 24.5244V27.4136C13.4888 28.3865 4.7877 33.0033 2.73879 34.6597C0.330363 36.6071 0.0134229 41.1119 0.00125756 41.3027C-0.0214725 41.6548 0.266975 41.9622 0.619452 41.9622H8.20617C8.54841 41.9622 8.82597 41.6849 8.82597 41.3427C8.82597 41.0005 8.54841 40.7229 8.20617 40.7229V40.7229ZM27.8632 17.2536C27.9852 16.3428 28.038 15.5104 28.0575 14.8413C28.7122 14.6461 29.0708 14.9857 29.3144 15.3244C29.8849 16.1171 29.834 18.0985 28.9616 19.2811C28.5211 19.8788 27.9522 20.1451 27.2661 20.0805C27.5255 19.2209 27.7255 18.2793 27.8632 17.2536ZM23.4257 27.7879C23.4257 29.677 21.889 31.2137 19.9999 31.2137C18.1107 31.2137 16.574 29.677 16.574 27.7879V25.4124C17.5742 25.9612 18.7174 26.2381 19.9932 26.2381H20.0223C21.2929 26.2339 22.4307 25.956 23.4257 25.4105V27.7879ZM11.0362 19.2791C10.1658 18.0965 10.1155 16.1158 10.685 15.3241C11.0253 14.8513 11.4118 14.6925 11.9096 14.8311C11.932 15.5108 11.9899 16.3668 12.1221 17.3058C12.2637 18.3117 12.4653 19.2366 12.7234 20.0817C12.0412 20.1426 11.4751 19.8753 11.0362 19.2791ZM13.1428 13.6232C13.8692 13.0201 16.0839 11.0166 17.5498 7.91731C18.7753 9.34579 21.7197 12.1797 26.8221 13.7365C26.8538 15.2643 26.7613 20.5031 24.1857 23.2611C23.1142 24.4085 21.712 24.9934 20.0181 24.9988C18.3246 25.0058 16.9185 24.429 15.839 23.2886C13.1463 20.4432 13.1123 14.9054 13.1428 13.6232V13.6232Z" fill="#B69D74"/>
<path d="M39.9987 41.3028C39.9862 41.112 39.6693 36.6069 37.2612 34.6598C36.4672 34.0179 34.5966 32.8664 31.7013 31.2372C31.4032 31.0694 31.0254 31.1751 30.8574 31.4731C30.6896 31.7715 30.7953 32.1493 31.0936 32.317C34.6251 34.3041 35.9729 35.2117 36.4819 35.6234C37.9831 36.8371 38.5164 39.4866 38.688 40.723H10.6849C10.3427 40.723 10.0654 41.0002 10.0654 41.3425C10.0654 41.6847 10.3427 41.9623 10.6849 41.9623H39.3802C39.733 41.9623 40.0214 41.6549 39.9987 41.3028V41.3028Z" fill="#B69D74"/>
</svg>
