<svg width="50" height="69" viewBox="0 0 50 69" fill="none" xmlns="http://www.w3.org/2000/svg">
<path d="M48.7458 21.5005L45.5279 17.5966C45.0861 17.0606 44.8173 16.4122 44.7514 15.7214L44.2662 10.6854C44.0141 8.06886 41.932 5.98668 39.3154 5.73465L34.2794 5.24992C33.5886 5.18352 32.9402 4.91475 32.4043 4.47342L28.5003 1.255C26.472 -0.416704 23.5276 -0.416704 21.4993 1.255L17.5953 4.47342C17.0599 4.91475 16.4115 5.18352 15.7202 5.24992L10.6842 5.73465C8.06764 5.98668 5.98599 8.06886 5.73343 10.6854L5.2487 15.7214C5.18229 16.4122 4.91353 17.0606 4.4722 17.5966L1.25377 21.5005C-0.417925 23.5288 -0.417925 26.4732 1.25377 28.5016L4.4722 32.4055C4.91353 32.9415 5.18229 33.5899 5.2487 34.2806L5.73343 39.3166C5.98546 41.9332 8.06764 44.0148 10.6842 44.2674L13.7625 44.5639L6.44875 62.0406C6.25057 62.5165 6.33999 63.0519 6.68248 63.4378C7.02498 63.8232 7.54526 63.9759 8.03992 63.8352L14.3853 62.0438C14.413 62.0359 14.4397 62.048 14.4522 62.0705L17.6298 67.8485C17.8662 68.2788 18.308 68.5382 18.7943 68.5382C18.8173 68.5382 18.8403 68.5376 18.8639 68.5366C19.3779 68.5104 19.8223 68.1998 20.0258 67.7209L27.7474 49.2679C28.0093 49.1173 28.2614 48.9442 28.5009 48.7471L32.4048 45.5292C32.8989 45.1213 33.4903 44.8635 34.1215 44.7736L41.1152 61.4848L36.166 60.0876C35.2248 59.8225 34.2391 60.2351 33.7669 61.0911L31.2889 65.5969L28.0057 57.7508C27.7887 57.2326 27.1936 56.9889 26.6754 57.2054C26.1578 57.4219 25.9136 58.0175 26.1306 58.5352L29.9765 67.7261C30.1778 68.1998 30.6217 68.5104 31.1363 68.5366C31.1598 68.5376 31.1828 68.5387 31.2058 68.5387C31.6921 68.5387 32.1339 68.2788 32.3703 67.8485L35.5474 62.0715C35.5605 62.048 35.5877 62.037 35.6143 62.0438L41.9586 63.8352C42.4543 63.9754 42.9751 63.8232 43.3171 63.4378C43.6596 63.0519 43.749 62.517 43.5503 62.0396L36.2371 44.5634L39.3154 44.2669C41.932 44.0148 44.0141 41.9332 44.2662 39.3166L44.7514 34.2801C44.8173 33.5893 45.0861 32.9415 45.5279 32.4055L48.7458 28.5016C50.4181 26.4732 50.4181 23.5288 48.7458 21.5005ZM18.7112 65.5969L16.2327 61.09C15.761 60.2346 14.7743 59.822 13.8336 60.0876L8.88492 61.4843L15.8781 44.7736C16.5098 44.8635 17.1012 45.1213 17.5953 45.5286L21.4993 48.7471C22.5137 49.5832 23.7566 50.001 25.0001 50.001C25.0801 50.001 25.1595 49.9989 25.2396 49.9952L18.7112 65.5969ZM47.1777 27.209L43.9598 31.1129C43.2591 31.9621 42.8334 32.9901 42.7278 34.0856L42.2431 39.1216C42.0841 40.7718 40.7711 42.0848 39.1209 42.2438L34.6972 42.67C34.6799 42.671 34.6621 42.6726 34.6449 42.6752L34.0849 42.729C32.9889 42.8347 31.9609 43.2603 31.1117 43.9605L27.2077 47.1784C25.9287 48.2331 24.0714 48.2331 22.7924 47.1784L18.8885 43.9605C18.0393 43.2603 17.0113 42.8341 15.9153 42.729L15.3526 42.6747C15.3369 42.6726 15.3218 42.6715 15.3061 42.6705L10.8792 42.2438C9.22899 42.0848 7.916 40.7718 7.75704 39.1216L7.27231 34.0861C7.16669 32.9901 6.74105 31.9621 6.04037 31.1129L2.82246 27.209C1.76778 25.9294 1.76778 24.0721 2.82246 22.7931L6.04037 18.8892C6.74105 18.04 7.16669 17.012 7.27231 15.916L7.75704 10.8799C7.916 9.22969 9.22899 7.9167 10.8792 7.75773L15.9153 7.27301C17.0113 7.16738 18.0393 6.74175 18.8885 6.04159L22.7924 2.82368C23.4319 2.2966 24.2162 2.03254 25.0001 2.03254C25.7839 2.03254 26.5682 2.29608 27.2077 2.82368L31.1117 6.04159C31.9609 6.74175 32.9889 7.16791 34.0849 7.27301L39.1209 7.75773C40.7711 7.9167 42.0841 9.22969 42.2431 10.8799L42.7278 15.916C42.8334 17.012 43.2591 18.04 43.9598 18.8892L47.1777 22.7931C48.2318 24.0726 48.2318 25.9294 47.1777 27.209Z" fill="white"/>
<path d="M25.0001 9.12463C24.3214 9.12463 23.6385 9.16751 22.9692 9.25327C22.4128 9.32438 22.0191 9.83368 22.0902 10.39C22.1613 10.9469 22.6711 11.3401 23.227 11.2696C23.8105 11.1948 24.4071 11.1571 25.0001 11.1571C32.6339 11.1571 38.8443 17.3676 38.8443 25.0013C38.8443 32.6351 32.6334 38.845 25.0001 38.845C17.3664 38.845 11.1559 32.6346 11.1559 25.0008C11.1559 19.5559 14.3665 14.5962 19.3351 12.365C19.847 12.1355 20.076 11.5336 19.8459 11.0217C19.6159 10.5093 19.014 10.2808 18.5026 10.5108C12.8046 13.0694 9.12341 18.7569 9.12341 25.0008C9.12341 33.7557 16.2458 40.8775 25.0001 40.8775C33.7544 40.8775 40.8768 33.7557 40.8768 25.0008C40.8768 16.2465 33.7544 9.12463 25.0001 9.12463Z" fill="white"/>
<path d="M14.9068 23.8241C13.6953 25.0356 13.6953 27.0074 14.9068 28.219L19.3457 32.6584C19.9329 33.2451 20.7131 33.5682 21.5434 33.5682C22.3733 33.5682 23.154 33.2451 23.7412 32.6584L33.431 22.9681C34.6425 21.756 34.6425 19.7847 33.431 18.5726C32.2194 17.3611 30.2476 17.3611 29.0355 18.5726L21.5434 26.0652L19.3018 23.8241C18.0902 22.6125 16.1184 22.6125 14.9068 23.8241ZM21.5434 28.5191C21.8127 28.5191 22.071 28.4119 22.2619 28.2211L30.4729 20.01C30.8923 19.5907 31.5742 19.5912 31.9935 20.01C32.4129 20.4294 32.4129 21.1118 31.9935 21.5306L22.3037 31.2209C22.1008 31.4238 21.8305 31.5357 21.5434 31.5357C21.2558 31.5357 20.986 31.4238 20.7831 31.2209L16.3438 26.7821C15.9249 26.3627 15.9249 25.6803 16.3438 25.2615C16.5534 25.0518 16.829 24.9467 17.1046 24.9467C17.3796 24.9467 17.6552 25.0518 17.8643 25.261L20.8244 28.2211C21.0153 28.4119 21.2736 28.5191 21.5434 28.5191Z" fill="white"/>
</svg>
