<svg width="50" height="51" viewBox="0 0 50 51" fill="none" xmlns="http://www.w3.org/2000/svg">
<path d="M4.99999 50.4999H25C26.3256 50.4986 27.5966 49.9714 28.534 49.034C29.4714 48.0966 29.9986 46.8256 30 45.4999C30 45.2789 29.9122 45.067 29.7559 44.9107C29.5996 44.7544 29.3876 44.6666 29.1666 44.6666C28.9456 44.6666 28.7337 44.7544 28.5774 44.9107C28.4211 45.067 28.3333 45.2789 28.3333 45.4999C28.3333 46.384 27.9821 47.2318 27.357 47.857C26.7319 48.4821 25.884 48.8333 25 48.8333H4.99999C4.11594 48.8333 3.26809 48.4821 2.64297 47.857C2.01785 47.2318 1.66666 46.384 1.66666 45.4999V5.49999C1.66666 4.61594 2.01785 3.76809 2.64297 3.14297C3.26809 2.51785 4.11594 2.16666 4.99999 2.16666H5.31833L7.12749 5.78499C7.33384 6.20121 7.65268 6.55127 8.04787 6.79548C8.44306 7.03969 8.89877 7.16828 9.36332 7.16666H20.6366C21.1012 7.16828 21.5569 7.03969 21.9521 6.79548C22.3473 6.55127 22.6661 6.20121 22.8725 5.78499L24.6816 2.16666H25C25.884 2.16666 26.7319 2.51785 27.357 3.14297C27.9821 3.76809 28.3333 4.61594 28.3333 5.49999V7.16666C28.3333 7.38767 28.4211 7.59963 28.5774 7.75591C28.7337 7.91219 28.9456 7.99999 29.1666 7.99999C29.3876 7.99999 29.5996 7.91219 29.7559 7.75591C29.9122 7.59963 30 7.38767 30 7.16666V5.49999C29.9986 4.17432 29.4714 2.90332 28.534 1.96593C27.5966 1.02853 26.3256 0.501324 25 0.5L4.99999 0.5C3.67432 0.501324 2.40332 1.02853 1.46593 1.96593C0.528532 2.90332 0.00132369 4.17432 0 5.49999L0 45.4999C0.00132369 46.8256 0.528532 48.0966 1.46593 49.034C2.40332 49.9714 3.67432 50.4986 4.99999 50.4999ZM21.3816 5.03916C21.3129 5.17793 21.2067 5.29466 21.075 5.37612C20.9434 5.45757 20.7915 5.50049 20.6366 5.49999H9.36332C9.20848 5.50049 9.0566 5.45757 8.92492 5.37612C8.79324 5.29466 8.68702 5.17793 8.61832 5.03916L7.18166 2.16666H22.8183L21.3816 5.03916Z" fill="#B69D74"/>
<path d="M21.6666 47.1667C21.8877 47.1667 22.0996 47.0789 22.2559 46.9226C22.4122 46.7663 22.5 46.5543 22.5 46.3333C22.5 46.1123 22.4122 45.9004 22.2559 45.7441C22.0996 45.5878 21.8877 45.5 21.6666 45.5H8.33333C8.11232 45.5 7.90036 45.5878 7.74408 45.7441C7.5878 45.9004 7.5 46.1123 7.5 46.3333C7.5 46.5543 7.5878 46.7663 7.74408 46.9226C7.90036 47.0789 8.11232 47.1667 8.33333 47.1667H21.6666Z" fill="#B69D74"/>
<path d="M41.6363 28.2399C41.0007 27.6327 40.1554 27.2939 39.2763 27.2939C38.3973 27.2939 37.552 27.6327 36.9163 28.2399L35.2647 29.8916C35.2311 29.928 35.1859 29.9517 35.1368 29.9585C35.0877 29.9654 35.0378 29.955 34.9955 29.9291C32.963 28.4771 31.1845 26.6989 29.7322 24.6666C29.7079 24.6254 29.6983 24.5772 29.705 24.5298C29.7117 24.4824 29.7342 24.4387 29.7688 24.4058L31.4247 22.7499C32.0494 22.1234 32.4002 21.2747 32.4002 20.3899C32.4002 19.5052 32.0494 18.6565 31.4247 18.0299L29.038 15.6416C28.4025 15.0351 27.5577 14.6968 26.6793 14.6968C25.8008 14.6968 24.9561 15.0351 24.3205 15.6416C22.0372 17.925 21.1539 21.4949 21.9522 25.1949C22.4905 27.6716 23.8414 29.9374 26.2155 32.3383C26.9655 33.0608 26.8205 32.9299 27.3363 33.4591C29.7238 35.8208 31.9905 37.1716 34.4705 37.7091C37.8872 38.4416 41.5705 37.7924 44.0205 35.3399C44.3309 35.0303 44.5772 34.6625 44.7452 34.2575C44.9133 33.8525 44.9998 33.4184 44.9998 32.9799C44.9998 32.5415 44.9133 32.1073 44.7452 31.7024C44.5772 31.2974 44.3309 30.9296 44.0205 30.6199L41.6363 28.2399ZM42.8438 34.1666C42.085 34.8969 41.1858 35.4654 40.2007 35.8379C39.2156 36.2103 38.1652 36.3788 37.113 36.3333C33.613 36.3333 30.9897 34.7308 28.5197 32.2883C27.6697 31.4108 27.708 31.4699 27.388 31.1574C25.5334 29.4673 24.2112 27.2735 23.583 24.8441C22.903 21.7016 23.6197 18.7033 25.4997 16.8225C25.6545 16.6669 25.8386 16.5434 26.0413 16.4592C26.2441 16.3749 26.4614 16.3316 26.6809 16.3316C26.9005 16.3316 27.1178 16.3749 27.3205 16.4592C27.5232 16.5434 27.7073 16.6669 27.8622 16.8225L30.2497 19.2066C30.4054 19.3615 30.529 19.5456 30.6133 19.7484C30.6976 19.9512 30.741 20.1687 30.741 20.3883C30.741 20.6079 30.6976 20.8254 30.6133 21.0281C30.529 21.2309 30.4054 21.4151 30.2497 21.5699L28.583 23.2299C28.2669 23.5426 28.0727 23.9578 28.0356 24.4009C27.9985 24.844 28.1208 25.2857 28.3805 25.6466C29.9363 27.8214 31.8396 29.7251 34.0138 31.2816C34.3755 31.5425 34.8185 31.6654 35.2629 31.6279C35.7072 31.5905 36.1235 31.3952 36.4363 31.0774L38.0947 29.4166C38.4082 29.1035 38.8332 28.9277 39.2763 28.9277C39.7194 28.9277 40.1444 29.1035 40.458 29.4166L42.8422 31.8008C42.9984 31.9556 43.1224 32.1398 43.2071 32.3427C43.2917 32.5457 43.3354 32.7634 43.3356 32.9833C43.3357 33.2033 43.2924 33.421 43.208 33.6241C43.1236 33.8272 42.9998 34.0116 42.8438 34.1666Z" fill="#B69D74"/>
<path d="M44.9998 9.66699H21.6665C20.3408 9.66832 19.0698 10.1955 18.1324 11.1329C17.195 12.0703 16.6678 13.3413 16.6665 14.667V20.0003L7.54318 24.8661C7.27777 25.0087 7.05595 25.2205 6.90132 25.479C6.7467 25.7376 6.66504 26.0332 6.66504 26.3345C6.66504 26.6357 6.7467 26.9314 6.90132 27.1899C7.05595 27.4485 7.27777 27.6603 7.54318 27.8028L16.6665 32.667V38.0003C16.6678 39.326 17.195 40.597 18.1324 41.5344C19.0698 42.4718 20.3408 42.999 21.6665 43.0003H44.9998C46.3255 42.999 47.5965 42.4718 48.5339 41.5344C49.4713 40.597 49.9985 39.326 49.9998 38.0003V14.667C49.9985 13.3413 49.4713 12.0703 48.5339 11.1329C47.5965 10.1955 46.3255 9.66832 44.9998 9.66699ZM48.3331 38.0003C48.3331 38.8843 47.9819 39.7322 47.3568 40.3573C46.7317 40.9824 45.8839 41.3336 44.9998 41.3336H21.6665C20.7824 41.3336 19.9346 40.9824 19.3095 40.3573C18.6844 39.7322 18.3332 38.8843 18.3332 38.0003V32.167C18.3331 32.016 18.2921 31.8679 18.2145 31.7385C18.1368 31.609 18.0255 31.5031 17.8923 31.432L8.33318 26.3336L17.8948 21.2336C18.0273 21.1623 18.138 21.0565 18.2151 20.9274C18.2923 20.7983 18.3331 20.6507 18.3332 20.5003V14.667C18.3332 13.7829 18.6844 12.9351 19.3095 12.31C19.9346 11.6848 20.7824 11.3337 21.6665 11.3337H44.9998C45.8839 11.3337 46.7317 11.6848 47.3568 12.31C47.9819 12.9351 48.3331 13.7829 48.3331 14.667V38.0003Z" fill="#B69D74"/>
</svg>
