<svg width="50" height="51" viewBox="0 0 50 51" fill="none" xmlns="http://www.w3.org/2000/svg">
<path d="M26.0321 28.8287C24.1641 28.82 22.3083 28.5274 20.5283 27.9608C17.6843 27.0093 15.5719 24.6016 14.9985 21.6579C14.3711 18.6359 15.5145 15.4404 18.1349 12.8913C18.4161 12.6174 18.7082 12.3551 19.0114 12.1044C21.6944 9.85814 25.3116 9.07753 28.6822 10.0174C31.9453 11.0589 34.2001 14.041 34.3129 17.4644C34.4351 19.4351 33.7928 21.3769 32.5196 22.886C31.5377 24.1229 29.9468 24.7072 28.3977 24.3997C27.7642 24.2682 27.2115 23.8846 26.8668 23.337C26.5575 22.8052 26.4782 22.1703 26.6471 21.5787C27.3759 18.824 28.1168 14.6378 28.1241 14.5954C28.1759 14.3021 28.3802 14.0587 28.66 13.9569C28.9399 13.8551 29.2528 13.9104 29.4809 14.1018C29.7089 14.2933 29.8176 14.5919 29.7658 14.8851C29.7349 15.0593 29.0053 19.1828 28.2586 22.0047C28.2053 22.1611 28.2187 22.3325 28.2956 22.4787C28.4109 22.6381 28.5847 22.7453 28.779 22.7765C29.7272 22.9348 30.6851 22.5544 31.2664 21.7886C32.2551 20.6058 32.7504 19.0878 32.6497 17.5495C32.5682 14.8245 30.7813 12.4454 28.1869 11.6079C25.355 10.8289 22.3211 11.4944 20.0751 13.387C19.8074 13.6093 19.547 13.8419 19.2971 14.0853C18.0016 15.3454 15.9329 17.9603 16.63 21.3186C17.0983 23.6648 18.774 25.5877 21.0342 26.3724C24.9426 27.6191 30.5586 27.7692 33.5176 24.09C33.8083 23.7399 34.3261 23.6878 34.6808 23.9729C35.0355 24.258 35.0958 24.7749 34.8164 25.1341C32.6283 27.8552 29.2986 28.8287 26.0321 28.8287Z" fill="#B69D74"/>
<path d="M23.1795 24.5079C22.2986 24.5231 21.4394 24.2342 20.7466 23.69C19.1471 22.4099 19.1031 20.1862 19.5515 18.6717C19.7026 18.1674 19.9053 17.68 20.1566 17.2174C20.7819 15.9558 21.7817 14.9183 23.0192 14.2467C24.5603 13.447 26.4433 13.7502 27.6554 14.9933C28.2567 15.6523 28.7097 16.4327 28.9837 17.2817C29.1288 17.7126 28.9018 18.1802 28.4736 18.3328C28.0453 18.4853 27.5738 18.2664 27.4139 17.8408C27.2163 17.2136 26.8879 16.6354 26.4504 16.1444C25.7437 15.4217 24.6425 15.2573 23.7555 15.742C22.8275 16.2654 22.0816 17.0601 21.618 18.0194C21.4232 18.3789 21.2659 18.7574 21.1485 19.149C20.8246 20.2444 20.8958 21.674 21.7894 22.3896C22.7663 23.1741 24.4144 22.8424 25.3416 22.0425C26.0327 21.4204 26.6264 20.6981 27.1031 19.8997C27.2574 19.6411 27.5393 19.4859 27.8404 19.4938C28.1415 19.5016 28.4149 19.6713 28.5555 19.9377C28.6962 20.204 28.6822 20.5255 28.5189 20.7786C27.9543 21.7193 27.2515 22.5697 26.4339 23.3013C25.5227 24.0702 24.3717 24.4969 23.1795 24.5079Z" fill="#B69D74"/>
<path d="M47.5 50.5036H2.5C1.11992 50.5021 0.00151559 49.3837 0 48.0036V17.1703C1.31e-05 16.8471 0.186847 16.5531 0.479403 16.4159C0.771958 16.2786 1.11749 16.3229 1.366 16.5295L21.8136 33.5232C23.6637 35.0512 26.3381 35.0507 28.1877 33.522L48.6333 16.5295C48.8818 16.3225 49.2276 16.278 49.5205 16.4153C49.8133 16.5526 50.0002 16.8469 50 17.1703V48.0036C49.9985 49.3837 48.8801 50.5021 47.5 50.5036ZM1.66667 18.9464V48.0036C1.66726 48.4636 2.04001 48.8364 2.5 48.837H47.5C47.9601 48.8365 48.3329 48.4637 48.3333 48.0036V18.9464L29.2517 34.8047C26.7846 36.8436 23.2173 36.8442 20.7495 34.806L1.66667 18.9464Z" fill="#B69D74"/>
<path d="M0.834149 18.0033C0.471174 18.0036 0.149737 17.769 0.039454 17.4232C-0.0708286 17.0774 0.055414 16.6999 0.351566 16.4901L7.85157 11.1734C8.22706 10.9131 8.74209 11.0038 9.00622 11.3765C9.27034 11.7493 9.18508 12.2652 8.81507 12.5332L1.31507 17.8499C1.17463 17.9498 1.00651 18.0035 0.834149 18.0033Z" fill="#B69D74"/>
<path d="M49.1654 18.0033C48.993 18.0035 48.8249 17.9498 48.6844 17.8499L41.1844 12.5332C40.8144 12.2652 40.7292 11.7493 40.9933 11.3765C41.2574 11.0038 41.7724 10.9131 42.1479 11.1734L49.6479 16.4901C49.9441 16.6999 50.0703 17.0774 49.96 17.4232C49.8498 17.769 49.5283 18.0036 49.1654 18.0033Z" fill="#B69D74"/>
<path d="M32.6994 6.33686C32.5269 6.33695 32.3587 6.28333 32.218 6.18344L28.2347 3.35844C26.3856 1.79593 23.6836 1.77965 21.8158 3.31977L17.7825 6.18353C17.5396 6.35579 17.2232 6.38537 16.9526 6.26114C16.682 6.1369 16.4982 5.87772 16.4704 5.58122C16.4427 5.28472 16.5753 4.99595 16.8182 4.82369L20.8015 1.99869C23.2628 -0.013838 26.8058 0.00216964 29.2488 2.03686L33.1822 4.82336C33.4786 5.03318 33.605 5.41078 33.4946 5.75676C33.3843 6.10274 33.0626 6.33741 32.6994 6.33686Z" fill="#B69D74"/>
<path d="M1.37512 50.0533C1.02393 50.0536 0.710233 49.8337 0.590761 49.5035C0.471289 49.1732 0.571682 48.8035 0.841785 48.5791L19.8585 32.7791C20.087 32.5848 20.4023 32.5282 20.684 32.6311C20.9658 32.734 21.1706 32.9803 21.2201 33.2761C21.2697 33.572 21.1565 33.8716 20.9237 34.0607L1.90704 49.8607C1.75773 49.9852 1.5695 50.0533 1.37512 50.0533Z" fill="#B69D74"/>
<path d="M48.6236 50.0537C48.4294 50.0538 48.2413 49.9857 48.0922 49.8612L29.0755 34.0612C28.8427 33.8721 28.7295 33.5724 28.7791 33.2766C28.8287 32.9808 29.0334 32.7344 29.3152 32.6316C29.5969 32.5287 29.9122 32.5852 30.1408 32.7796L49.1569 48.5796C49.427 48.804 49.5274 49.1737 49.4079 49.504C49.2885 49.8342 48.9748 50.0541 48.6236 50.0538V50.0537Z" fill="#B69D74"/>
<path d="M41.6667 24.2371C41.2064 24.2371 40.8333 23.864 40.8333 23.4038V6.34364C40.8309 6.36114 40.7975 6.33756 40.7417 6.33714H9.25833C9.2215 6.33488 9.18535 6.34783 9.15833 6.37297L9.16667 23.4038C9.16667 23.864 8.79357 24.2371 8.33333 24.2371C7.8731 24.2371 7.5 23.864 7.5 23.4038V6.33714C7.52688 5.39205 8.31316 4.64677 9.25833 4.67047H40.7417C41.6868 4.64686 42.473 5.39209 42.5 6.33714V23.4038C42.5 23.864 42.1269 24.2371 41.6667 24.2371Z" fill="#B69D74"/>
</svg>
