<svg width="150" height="151" viewBox="0 0 150 151" fill="none" xmlns="http://www.w3.org/2000/svg">
<path d="M134.743 57.0488C134.743 55.6799 134.277 53.3527 130.951 50.5602C130.276 49.9213 129.477 49.4289 128.603 49.114C127.729 48.799 126.799 48.6683 125.872 48.73C124.945 48.7917 124.041 49.0445 123.216 49.4726C122.392 49.9006 121.665 50.4946 121.081 51.2172C116.794 49.9814 112.359 49.3321 107.898 49.2871C102.322 49.1984 96.8002 50.3857 91.7536 52.7583C86.7071 55.1309 82.2699 58.6259 78.7812 62.9762C70.8415 72.4081 68.3227 83.9207 71.4301 96.3504L57.3576 113.051C57.2293 113.208 57.135 113.391 57.0808 113.586C57.0266 113.782 57.0137 113.987 57.0428 114.187L59.8764 132.517C59.9269 132.856 60.1028 133.164 60.3692 133.38L64.476 136.884L62.7101 138.979C62.1378 139.015 61.5745 139.14 61.04 139.348C60.5503 138.492 59.8429 137.78 58.9895 137.284C58.1361 136.789 57.167 136.528 56.1804 136.528C55.907 136.507 55.6324 136.507 55.359 136.528C54.9795 135.413 54.261 134.443 53.3038 133.756C52.3466 133.069 51.1986 132.698 50.0202 132.695C49.4961 131.304 48.443 130.177 47.0908 129.56C47.1459 129.253 47.1733 128.942 47.1729 128.63C47.1707 127.55 46.8587 126.494 46.2739 125.586C45.689 124.678 44.856 123.958 43.8738 123.51C43.9289 123.203 43.9564 122.891 43.9559 122.579C43.9605 121.662 43.7346 120.758 43.2988 119.951C43.8932 119.411 44.3648 118.751 44.6815 118.013C44.9982 117.276 45.1527 116.479 45.1346 115.677C45.1164 114.875 44.926 114.086 44.5762 113.363C44.2264 112.641 43.7254 112.002 43.1072 111.491V108.753H48.5829C48.9295 108.748 49.2635 108.622 49.5274 108.397L63.4904 96.1998C63.6467 96.0697 63.772 95.9063 63.8573 95.7216C63.9425 95.5369 63.9855 95.3355 63.9832 95.1321V73.4211C74.3733 65.9057 79.8626 55.4746 79.8626 43.1543C79.9526 37.0819 78.558 31.0793 75.8001 25.6686C73.0422 20.2578 69.0045 15.6024 64.0379 12.1073C61.2311 10.0469 58.2168 8.28512 55.0442 6.85063C55.045 5.92707 54.8589 5.01291 54.4971 4.16317C54.1353 3.31344 53.6052 2.54572 52.9389 1.90623C52.2725 1.26675 51.4837 0.768729 50.6198 0.442166C49.7559 0.115603 48.8348 -0.0327496 47.9121 0.00604002C43.5726 0.00604002 41.6425 1.51185 40.8211 2.53854C33.9109 3.06413 27.1578 4.86497 20.9034 7.84994C11.3757 12.5043 0 22.2236 0 42.0455C0 57.0078 8.82952 86.371 9.19912 87.6167C9.28869 87.9311 9.48777 88.203 9.76038 88.3833L14.579 91.7235L28.8978 108.328C29.0318 108.485 29.1976 108.611 29.384 108.698C29.5705 108.785 29.7734 108.832 29.9793 108.835H35.3728V111.819C35.3728 111.901 35.3728 111.983 35.3728 112.079C34.5822 112.929 34.0768 114.005 33.927 115.156C33.7773 116.307 33.9909 117.476 34.5378 118.5C33.8495 119.125 33.3279 119.912 33.02 120.79C32.7122 121.667 32.6278 122.608 32.7746 123.526C32.9213 124.445 33.2945 125.312 33.8604 126.05C34.4264 126.788 35.1673 127.373 36.0162 127.753C35.9566 128.065 35.9245 128.381 35.9204 128.698C35.923 129.777 36.2369 130.833 36.8245 131.739C37.4121 132.645 38.2484 133.362 39.2332 133.804C39.178 134.116 39.1506 134.432 39.151 134.749C39.151 136.238 39.7419 137.667 40.7941 138.722C41.8462 139.777 43.2738 140.371 44.7636 140.375C45.1682 141.443 45.8874 142.362 46.826 143.012C47.7646 143.663 48.8784 144.013 50.0202 144.016C50.2982 144.037 50.5773 144.037 50.8553 144.016C51.2304 145.132 51.946 146.102 52.9013 146.789C53.8565 147.477 55.0034 147.847 56.1804 147.849C56.8693 147.849 57.552 147.719 58.1927 147.466C58.8084 148.533 59.7577 149.369 60.8947 149.845C62.0317 150.321 63.2935 150.41 64.4861 150.099C65.6787 149.788 66.7363 149.094 67.4961 148.124C68.2561 147.153 68.6763 145.96 68.6923 144.728C68.7059 144.523 68.7059 144.317 68.6923 144.112L70.4582 142.018L74.5649 145.495C74.818 145.718 75.1446 145.84 75.4821 145.837H75.7011L97.3985 142.305L103.216 142.894H103.353C103.63 142.892 103.901 142.811 104.134 142.661C105.215 141.949 130.882 125.166 140.519 113.736C153.278 98.5681 150.841 83.8112 146.543 74.1055C143.696 67.7403 139.695 61.9573 134.743 57.0488ZM61.2864 132.339L58.4528 113.968L72.5526 97.295C89.5272 111.641 102.012 118.253 112.251 118.253C120.109 118.253 126.597 114.338 132.785 107.001C146.967 90.1629 137.631 73.3116 129.198 66.2206C123.723 61.6347 115.947 59.5266 121.587 52.8326C122.126 52.0431 122.838 51.3865 123.668 50.9122C124.498 50.4379 125.425 50.1584 126.378 50.0947C127.745 50.1628 129.044 50.7106 130.047 51.6416C134.154 55.105 133.25 57.5827 133.25 57.5827C137.853 61.989 141.66 67.1574 144.503 72.8598C144.27 72.4218 144.024 71.9974 143.777 71.5867C142.621 69.6732 141.331 67.8434 139.917 66.1111C138.84 64.7693 137.689 63.4896 136.467 62.2781C135.468 61.2651 134.619 60.5396 134.044 60.0468C133.469 59.5539 133.141 59.3075 133.141 59.3075L133.866 60.211C134.346 60.7997 135.003 61.6895 135.824 62.8257C138.046 65.9544 139.975 69.2812 141.587 72.764C143.852 77.5381 145.158 82.7096 145.434 87.9863C145.53 90.8905 145.217 93.7938 144.503 96.6105C143.741 99.515 142.594 102.305 141.094 104.906C139.55 107.536 137.738 110 135.687 112.257C133.675 114.475 131.43 116.597 129.239 118.595C124.818 122.579 120.492 126.138 116.769 129.204L104.298 139.389L105.338 138.855C106.009 138.486 106.995 137.979 108.213 137.281C110.116 136.213 112.621 134.749 115.537 132.942C108.692 137.829 103.381 141.333 103.381 141.333L97.3848 140.731L75.4821 144.29L61.2864 132.339ZM83.3944 97.0212C80.3828 86.3573 81.8475 77.4046 87.7339 70.3958C93.2096 63.8797 100.656 60.5669 109.828 60.5669C113.603 60.5968 117.358 61.1168 120.999 62.1138C122.093 63.0014 123.236 63.8285 124.421 64.5916C125.739 65.4326 127.01 66.3467 128.226 67.3294C133.101 71.4778 136.533 77.0668 138.028 83.291C139.821 91.2718 137.672 98.9514 131.649 106.111C125.626 113.27 119.329 116.871 112.21 116.871C105.366 116.871 97.3163 113.667 87.3643 106.946C85.7146 103.763 84.3848 100.425 83.3944 96.9801V97.0212ZM116.358 57.5006C115.263 57.2405 114.099 57.0078 112.854 56.8161C110.461 56.4646 108.041 56.3409 105.626 56.4465C102.867 56.564 100.137 57.052 97.508 57.8976C94.6501 58.8027 91.9523 60.1516 89.5135 61.8948C88.8701 62.3192 88.2952 62.812 87.6928 63.2637C87.0905 63.7154 86.5156 64.3178 85.9269 64.8653C85.3383 65.4129 84.9002 65.9468 84.3937 66.4807L84.0378 66.8776L83.942 66.9735L83.8599 67.0693L83.6819 67.302L82.9564 68.2192C81.0766 70.6967 79.6281 73.4735 78.6717 76.4327C77.7476 79.2888 77.2855 82.2741 77.3027 85.2759C77.329 88.0108 77.6642 90.734 78.3021 93.3936C78.7782 95.364 79.3912 97.2989 80.1364 99.1841C77.6176 97.3087 75.7559 95.9398 74.5923 95.0773C73.5195 90.7604 73.2366 86.285 73.7573 81.8673C74.1247 78.9078 74.9177 76.0169 76.1118 73.2842C76.4266 72.586 76.7826 71.9153 77.1111 71.2171C77.4396 70.519 77.8777 69.8482 78.261 69.2185C78.6443 68.5888 79.1097 67.9454 79.5478 67.302C79.9858 66.6586 80.4923 66.07 80.9167 65.454C82.8493 63.0552 85.07 60.9034 87.5286 59.0474C89.9173 57.2633 92.5377 55.8126 95.3177 54.7354C97.9298 53.746 100.65 53.0705 103.422 52.723C105.903 52.4879 108.402 52.4925 110.882 52.7367C112.719 52.8446 114.548 53.0641 116.358 53.3938C116.01 54.7406 116.01 56.1537 116.358 57.5006ZM116.358 53.1748C114.553 52.7775 112.724 52.4986 110.882 52.3397C108.356 52.094 105.811 52.094 103.285 52.3397C97.4038 52.9349 91.7937 55.1108 87.0494 58.6368C84.5383 60.5201 82.2673 62.7038 80.287 65.1391C79.8079 65.7688 79.3014 66.3438 78.9181 67.0145C78.5348 67.6853 78.0146 68.3835 77.5492 68.9858C77.0837 69.5881 76.7552 70.3547 76.3856 71.0255C76.016 71.6962 75.7011 72.3944 75.3863 73.1336C74.1838 75.9311 73.3864 78.8857 73.018 81.9084C72.6677 84.7266 72.6677 87.5774 73.018 90.3956C73.2234 91.9425 73.5108 93.4073 73.8394 94.8036L72.977 94.1875L74.1679 96.9254L73.2781 96.1725C73.095 96.0237 72.8792 95.9205 72.6484 95.8713C70.3486 86.5764 70.5266 74.79 79.7394 63.8523C83.1108 59.6812 87.387 56.3317 92.2441 54.0572C97.1013 51.7828 102.412 50.6431 107.775 50.7244C110.866 50.7323 113.948 51.0533 116.974 51.6827C116.691 52.1442 116.483 52.6479 116.358 53.1748ZM67.4465 143.263C67.3284 143.406 67.1798 143.521 67.0117 143.599C66.8435 143.677 66.66 143.717 66.4746 143.715C66.1753 143.707 65.8867 143.601 65.6533 143.414L63.8463 141.881C63.717 141.775 63.6103 141.644 63.5327 141.495C63.4551 141.347 63.4081 141.185 63.3946 141.018C63.3809 140.851 63.4005 140.682 63.4521 140.523C63.5038 140.363 63.5866 140.215 63.6957 140.087L65.1605 138.349L67.4465 140.265L66.2967 143.003L68.8155 141.374L68.925 141.456L67.4465 143.263ZM39.9724 109.519L40.8485 112.353L41.7109 109.615V111.819C41.7109 112.157 41.5768 112.481 41.338 112.719C41.0993 112.958 40.7755 113.092 40.4378 113.092H38.0696C37.7319 113.092 37.4081 112.958 37.1694 112.719C36.9306 112.481 36.7965 112.157 36.7965 111.819V109.519H39.9724ZM47.9121 1.37496C50.294 1.37496 53.6479 2.44271 53.6479 7.7678C53.6479 12.6822 51.3344 13.75 48.049 13.75C45.4891 13.75 42.3269 13.0929 39.2058 13.0929C33.5125 13.1447 27.9344 14.7033 23.0389 17.6103L24.0382 16.9669C26.0859 15.6851 28.2547 14.6076 30.5132 13.75C32.2973 13.0701 34.127 12.5166 35.9888 12.0936C37.522 11.7514 38.7267 11.5323 39.6028 11.4228L40.9717 11.2722L39.6028 11.1764C38.3565 11.1282 37.1085 11.1556 35.8656 11.2585C33.9242 11.4197 32.0005 11.7495 30.1162 12.2442C27.6276 12.8414 25.2161 13.7233 22.9294 14.8725C20.1533 16.2269 17.6079 18.0101 15.3866 20.1565C12.8242 22.5995 10.7641 25.5198 9.32233 28.7533C8.56978 30.4205 7.96957 32.1524 7.52904 33.9278C7.0801 35.7754 6.78703 37.6574 6.65294 39.5541C6.65294 40.0332 6.65294 40.4575 6.65294 40.923V41.6074V42.3466C6.65294 43.2912 6.65294 44.2221 6.65294 45.1666C6.74204 47.0783 6.96619 48.9813 7.32371 50.8613C8.00167 54.7077 9.48008 58.3687 11.6632 61.6073C13.8786 64.7068 16.748 67.2817 20.0683 69.15C23.0751 70.8539 26.2984 72.1432 29.6507 72.983C32.5531 73.7579 35.5089 74.3161 38.4939 74.6531C41.2318 74.9953 43.7643 75.1733 45.9956 75.2417C48.2269 75.3102 50.1845 75.3239 51.7861 75.2417C53.3878 75.1596 54.6335 75.1596 55.4959 75.1185H56.8648L51.882 74.4614L49.281 74.0782C48.3365 73.9276 47.3098 73.8044 46.2146 73.6127C45.1195 73.4211 43.9696 73.2294 42.765 72.9967C41.5603 72.764 40.2872 72.5039 38.9594 72.2301L36.9608 71.7647L34.7705 71.1897C33.4016 70.7928 32.0327 70.3821 30.5268 69.8208H30.1162C38.0285 72.3122 48.6513 73.4895 62.6006 73.4895V95.2142L48.5692 107.411H29.9793L15.5372 90.5873L10.568 87.1924C10.568 87.1924 1.36892 56.9667 1.36892 42.0455C1.36892 5.09841 41.6425 3.90745 41.6425 3.90745C41.6425 3.90745 42.5459 1.37496 47.9121 1.37496ZM48.1037 15.1736C50.942 16.4835 53.6314 18.0943 56.1256 19.9785C64.1475 26.0155 68.2268 33.8183 68.2268 42.99C68.2268 52.1618 63.5862 59.9372 54.4145 66.1521C51.4404 68.1477 48.271 69.8356 44.9552 71.1897C34.9211 70.1357 27.5563 68.0412 22.3407 64.7832C14.9349 60.1563 11.6221 53.1474 11.6221 42.0455C11.6221 20.3071 29.6781 14.5713 39.2195 14.5713C40.7895 14.6031 42.3568 14.7173 43.9149 14.9135C45.2771 15.0925 46.648 15.1976 48.0216 15.2284L48.1037 15.1736ZM61.218 70.3958C59.3836 70.2726 56.6732 70.0946 53.114 69.8893L53.7984 69.506C55.8005 68.318 57.7171 66.9914 59.5342 65.5361C61.5564 63.9191 63.3929 62.0826 65.0099 60.0604C66.78 57.8884 68.2108 55.4607 69.2535 52.8599C70.3478 50.1812 70.9996 47.3425 71.1837 44.4548C71.2247 43.7298 71.2247 43.0032 71.1837 42.2782C71.1834 41.5555 71.1423 40.8334 71.0605 40.1153C70.6761 35.8818 69.3577 31.7863 67.2001 28.1236C65.8707 25.8754 64.2607 23.8054 62.4089 21.9635C60.7592 20.3134 58.9682 18.811 57.0565 17.4734C55.8929 16.6384 54.7567 15.9402 53.6752 15.3105C55.1302 14.5709 56.3207 13.3994 57.0838 11.9567C58.7786 13.0139 60.4061 14.1751 61.9572 15.4337C63.8628 16.9751 65.6266 18.6839 67.2275 20.5398C68.9772 22.5559 70.4842 24.7705 71.7176 27.138C73.0154 29.6538 73.9817 32.3272 74.5923 35.0914C75.206 37.9422 75.4862 40.8548 75.4273 43.7703V44.9476C75.4273 45.3309 75.4273 45.7416 75.4273 46.0838C75.3452 46.7819 75.3041 47.4527 75.1946 48.1919C75.0851 48.9311 74.9619 49.6293 74.825 50.3411C74.6881 51.053 74.4965 51.71 74.3048 52.4493C73.5341 55.1603 72.3965 57.7533 70.9236 60.1563C68.362 64.1612 65.075 67.6524 61.2317 70.4505L61.218 70.3958ZM69.6505 42.99C69.6505 28.4658 59.7258 20.047 52.2516 15.7623C52.6121 15.6974 52.9652 15.5965 53.3056 15.4611C54.4281 16.1319 55.6054 16.9122 56.8237 17.7883C58.6855 19.1454 60.426 20.6614 62.0256 22.3194C63.8164 24.1621 65.3749 26.217 66.6663 28.4384C68.042 30.8055 69.0658 33.3602 69.7053 36.0223C70.0309 37.3725 70.2551 38.7453 70.376 40.129C70.4719 40.8135 70.4582 41.4979 70.4855 42.2508C70.5129 43.0037 70.4855 43.6197 70.4855 44.3727C70.3481 47.187 69.7564 49.9607 68.7333 52.5862C67.7254 55.1329 66.3411 57.5139 64.6266 59.6498C61.5613 63.4566 57.8553 66.6994 53.6752 69.2322L52.498 69.9166L51.1291 69.8482C59.3973 65.276 69.6505 56.8572 69.6505 42.99ZM57.6862 10.3961C57.725 10.2063 57.7525 10.0143 57.7683 9.82118C59.7204 10.8794 61.5958 12.0733 63.3809 13.3941C61.5634 12.2483 59.6594 11.246 57.6862 10.3961ZM36.0436 115.871C36.0438 115.228 36.224 114.597 36.5638 114.051C37.0092 114.35 37.5329 114.512 38.0696 114.516H40.4378C41.1314 114.51 41.7967 114.241 42.2995 113.763C42.7681 114.366 43.0232 115.108 43.0251 115.871C43.0257 116.331 42.9354 116.787 42.7592 117.213C42.583 117.638 42.3244 118.024 41.9984 118.349C40.9835 117.478 39.6941 116.994 38.3571 116.98C37.6883 116.978 37.0248 117.099 36.3995 117.336C36.1739 116.88 36.0523 116.38 36.0436 115.871ZM39.548 119.362C39.1293 119.351 38.7163 119.263 38.3297 119.102C38.7473 119.121 39.1589 119.209 39.548 119.362ZM34.8663 122.647C34.8651 122.186 34.9566 121.729 35.1353 121.303C35.314 120.877 35.5763 120.492 35.9067 120.17C36.9155 121.041 38.2011 121.526 39.5343 121.539C40.2077 121.542 40.876 121.421 41.5056 121.183C41.7371 121.651 41.8589 122.166 41.8615 122.688C41.8749 122.834 41.8749 122.981 41.8615 123.126H41.6288C40.6708 123.127 39.7289 123.372 38.8926 123.839C38.0563 124.307 37.3536 124.98 36.8512 125.796C36.2561 125.513 35.7535 125.067 35.402 124.51C35.0506 123.952 34.8648 123.306 34.8663 122.647ZM40.4926 125.385C40.1821 125.633 39.8297 125.823 39.4522 125.946C39.7661 125.704 40.1175 125.514 40.4926 125.385ZM38.0833 128.684C38.0759 128.538 38.0759 128.392 38.0833 128.246H38.3297C39.2959 128.239 40.244 127.983 41.083 127.503C41.922 127.024 42.6237 126.337 43.1209 125.508C43.7152 125.797 44.215 126.249 44.5617 126.812C44.9084 127.374 45.0876 128.024 45.0784 128.684C45.0918 128.83 45.0918 128.977 45.0784 129.122H44.8457C43.881 129.128 42.9342 129.384 42.0971 129.863C41.2601 130.343 40.5612 131.031 40.0682 131.86C39.4719 131.571 38.9692 131.12 38.618 130.558C38.2669 129.996 38.0815 129.347 38.0833 128.684ZM43.7095 131.422C43.3951 131.66 43.0436 131.845 42.6691 131.97C42.9804 131.726 43.3327 131.541 43.7095 131.422ZM41.3002 134.721C41.2928 134.575 41.2928 134.429 41.3002 134.283H41.5329C42.4989 134.274 43.4465 134.018 44.2853 133.538C45.124 133.059 45.826 132.373 46.3242 131.545C47.0224 131.906 47.581 132.489 47.9121 133.202C46.9101 133.624 46.0514 134.326 45.4393 135.225C44.8273 136.123 44.4881 137.18 44.4624 138.267C43.5887 138.187 42.7773 137.781 42.1909 137.128C41.6044 136.476 41.2863 135.626 41.3002 134.749V134.721ZM48.1448 135.419C48.0492 135.879 47.8616 136.315 47.5935 136.701C47.3253 137.087 46.9821 137.414 46.5842 137.664C46.6921 137.204 46.892 136.77 47.172 136.389C47.452 136.008 47.8062 135.687 48.2133 135.447L48.1448 135.419ZM46.8991 139.909C47.8909 139.489 48.7421 138.794 49.3531 137.906C49.9641 137.019 50.3095 135.976 50.3488 134.899C51.0368 134.955 51.6927 135.214 52.2336 135.643C52.7746 136.072 53.1762 136.651 53.3878 137.308C52.5965 137.78 51.9331 138.438 51.4557 139.226C50.9784 140.014 50.7017 140.906 50.6499 141.826C50.4677 141.84 50.2846 141.84 50.1024 141.826C49.4556 141.835 48.8191 141.663 48.265 141.329C47.711 140.995 47.2615 140.513 46.9675 139.937L46.8991 139.909ZM56.1667 145.618C55.4316 145.614 54.7161 145.38 54.1216 144.948C53.5271 144.515 53.0836 143.907 52.8539 143.208C53.6459 142.738 54.31 142.08 54.7875 141.292C55.2649 140.504 55.5412 139.611 55.5917 138.691C55.774 138.677 55.957 138.677 56.1393 138.691C56.7642 138.695 57.3768 138.866 57.9136 139.186C58.4503 139.506 58.8917 139.964 59.192 140.512C58.6257 141.035 58.174 141.671 57.8654 142.377C57.5568 143.084 57.3979 143.847 57.3987 144.618C57.3846 144.883 57.3846 145.148 57.3987 145.412C57.0271 145.556 56.6335 145.635 56.2351 145.645L56.1667 145.618ZM63.0113 148.054C62.3854 148.055 61.7711 147.886 61.2335 147.566C60.696 147.245 60.2554 146.785 59.9586 146.234C60.5235 145.709 60.9743 145.074 61.2829 144.367C61.5914 143.661 61.751 142.898 61.7519 142.127C61.7721 141.863 61.7721 141.597 61.7519 141.333L61.9709 141.265C62.0637 141.918 62.3894 142.516 62.8881 142.948L64.7087 144.468C65.1893 144.878 65.8016 145.102 66.4335 145.098H66.5157C66.3957 145.917 65.9883 146.667 65.3665 147.213C64.7446 147.76 63.9486 148.068 63.1208 148.082L63.0113 148.054Z" fill="#B69D74" fill-opacity="0.46"/>
</svg>
