<svg width="8" height="8" viewBox="0 0 8 8" fill="none" xmlns="http://www.w3.org/2000/svg">
<path fill-rule="evenodd" clip-rule="evenodd" d="M0.130133 0.13018C-0.0433779 0.303744 -0.0433779 0.585149 0.130133 0.758713L0.542964 1.17154C2.10509 2.73365 2.10508 5.26635 0.542946 6.82844L0.130133 7.24125C-0.0433779 7.41484 -0.0433779 7.69627 0.130133 7.86987C0.303733 8.04338 0.585155 8.04338 0.758755 7.86987L4.31427 4.31427C4.48784 4.1407 4.48784 3.8593 4.31427 3.68573L0.758755 0.13018C0.585155 -0.0433933 0.303733 -0.0433933 0.130133 0.13018ZM3.68573 0.13018C3.51216 0.303744 3.51216 0.585149 3.68573 0.758713L4.09858 1.17156C5.66068 2.73366 5.66067 5.26633 4.09856 6.82842L3.68573 7.24125C3.51216 7.41484 3.51216 7.69627 3.68573 7.86987C3.8593 8.04338 4.1407 8.04338 4.31427 7.86987L7.86982 4.31427C8.04339 4.1407 8.04339 3.8593 7.86982 3.68573L4.31427 0.13018C4.1407 -0.0433933 3.8593 -0.0433933 3.68573 0.13018Z" fill="#B69D74"/>
</svg>
