<svg width="364" height="259" viewBox="0 0 364 259" fill="none" xmlns="http://www.w3.org/2000/svg">
<path d="M0.742188 217.606L1.33622 162.614L6.63301 164.573L6.03898 219.565L0.742188 217.606Z" fill="#B69D74" fill-opacity="0.15"/>
<path d="M6.04102 219.565L6.63505 164.573L25.6936 164.06L25.0996 219.051L6.04102 219.565Z" fill="#033A5B" fill-opacity="0.1"/>
<path d="M25.6932 164.059L6.63468 164.573L1.33789 162.614L20.4212 162.11L25.6932 164.059Z" fill="#B69D74" fill-opacity="0.15"/>
<path d="M30.4688 218.103L30.9885 179.908L36.2853 181.541L35.7655 219.736L30.4688 218.103Z" fill="#B69D74" fill-opacity="0.15"/>
<path d="M35.7676 219.736L36.2874 181.541L55.3707 181.113L54.8509 219.308L35.7676 219.736Z" fill="#B69D74"/>
<path d="M55.3684 181.113L36.2851 181.541L30.9883 179.908L50.0716 179.48L55.3684 181.113Z" fill="#B69D74" fill-opacity="0.15"/>
<path d="M82.3457 216.94L83.0635 114.433L88.3603 117.578L87.6425 220.07L82.3457 216.94Z" fill="#B69D74" fill-opacity="0.15"/>
<path d="M87.6445 220.07L88.3623 117.578L107.446 116.758L106.728 219.249L87.6445 220.07Z" fill="#033A5B" fill-opacity="0.1"/>
<path d="M107.443 116.758L88.3593 117.578L83.0625 114.434L102.146 113.613L107.443 116.758Z" fill="#B69D74" fill-opacity="0.15"/>
<path d="M112.123 216.902L112.692 144.361L117.989 147.179L117.42 219.721L112.123 216.902Z" fill="#B69D74" fill-opacity="0.15"/>
<path d="M117.422 219.721L117.991 147.179L137.074 146.454L136.505 218.982L117.422 219.721Z" fill="#B69D74"/>
<path d="M137.073 146.454L117.99 147.179L112.693 144.361L131.777 143.635L137.073 146.454Z" fill="#B69D74" fill-opacity="0.15"/>
<path d="M161.502 215.837L162.319 65.0176L167.616 69.0663L166.799 219.885L161.502 215.837Z" fill="#B69D74" fill-opacity="0.15"/>
<path d="M166.801 219.885L167.618 69.0662L186.701 68.01L185.884 218.829L166.801 219.885Z" fill="#033A5B" fill-opacity="0.1"/>
<path d="M186.698 68.01L167.615 69.0662L162.318 65.0175L181.402 63.9613L186.698 68.01Z" fill="#B69D74" fill-opacity="0.15"/>
<path d="M191.229 217.299L191.996 85.6979L197.293 89.3984L196.501 221L191.229 217.299Z" fill="#B69D74" fill-opacity="0.15"/>
<path d="M196.5 221L197.292 89.3985L216.375 88.4285L215.583 220.03L196.5 221Z" fill="#B69D74"/>
<path d="M216.374 88.4284L197.291 89.3984L191.994 85.6979L211.077 84.7458L216.374 88.4284Z" fill="#B69D74" fill-opacity="0.15"/>
<path d="M240.656 216.398L241.572 47.6718L246.869 51.6974L245.953 220.404L240.656 216.398Z" fill="#B69D74" fill-opacity="0.15"/>
<path d="M245.955 220.404L246.871 51.6975L265.954 50.6473L265.038 219.354L245.955 220.404Z" fill="#033A5B" fill-opacity="0.1"/>
<path d="M265.954 50.6472L246.871 51.6973L241.574 47.6717L260.658 46.641L265.954 50.6472Z" fill="#B69D74" fill-opacity="0.15"/>
<path d="M270.211 216.704L271.424 12.9512L276.721 16.5799L275.508 220.333L270.211 216.704Z" fill="#B69D74" fill-opacity="0.15"/>
<path d="M275.51 220.333L276.723 16.58L295.806 15.6288L294.593 219.382L275.51 220.333Z" fill="#B69D74"/>
<path d="M295.804 15.6287L276.721 16.5799L271.424 12.9512L290.507 12L295.804 15.6287Z" fill="#B69D74" fill-opacity="0.15"/>
<path d="M9.68 251.192C8.66667 251.192 7.872 250.909 7.296 250.344C6.72 249.779 6.432 248.995 6.432 247.992H7.792C7.792 248.557 7.93067 249.032 8.208 249.416C8.48533 249.8 8.97067 249.992 9.664 249.992C10.336 249.992 10.8 249.805 11.056 249.432C11.3227 249.059 11.456 248.595 11.456 248.04V239.8H12.8V248.04C12.8 249.032 12.5227 249.805 11.968 250.36C11.424 250.915 10.6613 251.192 9.68 251.192ZM13.98 251L18.108 239.8H19.532L23.644 251H22.22L21.196 248.12H16.428L15.388 251H13.98ZM16.828 247.032H20.796L18.812 241.496L16.828 247.032ZM25.309 251V239.8H26.653L32.621 248.776V239.8H33.965V251H32.621L26.653 242.024V251H25.309Z" fill="black"/>
<path d="M92.184 251V239.8H99V240.904H93.528V244.84H98.184V245.928H93.528V251H92.184ZM100.731 251V239.8H107.659V240.904H102.075V244.808H107.179V245.896H102.075V249.896H107.659V251H100.731ZM109.762 251V239.8H113.698C114.487 239.8 115.138 239.928 115.65 240.184C116.173 240.429 116.562 240.771 116.818 241.208C117.074 241.635 117.202 242.115 117.202 242.648C117.202 243.373 117.005 243.944 116.61 244.36C116.226 244.776 115.762 245.064 115.218 245.224C115.634 245.299 116.013 245.464 116.354 245.72C116.695 245.976 116.962 246.296 117.154 246.68C117.357 247.064 117.458 247.485 117.458 247.944C117.458 248.509 117.319 249.027 117.042 249.496C116.765 249.955 116.354 250.323 115.81 250.6C115.266 250.867 114.605 251 113.826 251H109.762ZM111.106 244.696H113.602C114.317 244.696 114.866 244.531 115.25 244.2C115.634 243.859 115.826 243.389 115.826 242.792C115.826 242.227 115.634 241.773 115.25 241.432C114.877 241.091 114.311 240.92 113.554 240.92H111.106V244.696ZM111.106 249.88H113.682C114.45 249.88 115.042 249.704 115.458 249.352C115.874 248.989 116.082 248.488 116.082 247.848C116.082 247.219 115.863 246.717 115.426 246.344C114.989 245.96 114.397 245.768 113.65 245.768H111.106V249.88Z" fill="black"/>
<path d="M172.184 251V239.8H173.752L177.784 247.608L181.784 239.8H183.368V251H182.024V242.2L178.28 249.4H177.272L173.528 242.216V251H172.184ZM185.027 251L189.155 239.8H190.579L194.691 251H193.267L192.243 248.12H187.475L186.435 251H185.027ZM187.875 247.032H191.843L189.859 241.496L187.875 247.032ZM196.356 251V239.8H199.972C200.847 239.8 201.561 239.944 202.116 240.232C202.671 240.52 203.081 240.915 203.348 241.416C203.615 241.917 203.748 242.472 203.748 243.08C203.748 243.784 203.556 244.419 203.172 244.984C202.799 245.549 202.212 245.949 201.412 246.184L203.86 251H202.276L200.004 246.376H199.908H197.7V251H196.356ZM197.7 245.32H199.876C200.74 245.32 201.369 245.112 201.764 244.696C202.159 244.28 202.356 243.747 202.356 243.096C202.356 242.435 202.159 241.912 201.764 241.528C201.38 241.133 200.745 240.936 199.86 240.936H197.7V245.32Z" fill="black"/>
<path d="M253.48 251L257.608 239.8H259.032L263.144 251H261.72L260.696 248.12H255.928L254.888 251H253.48ZM256.328 247.032H260.296L258.312 241.496L256.328 247.032ZM264.809 251V239.8H268.489C269.364 239.8 270.084 239.944 270.649 240.232C271.214 240.52 271.63 240.909 271.897 241.4C272.174 241.891 272.313 242.445 272.313 243.064C272.313 243.672 272.18 244.221 271.913 244.712C271.646 245.203 271.23 245.597 270.665 245.896C270.1 246.184 269.374 246.328 268.489 246.328H266.153V251H264.809ZM266.153 245.192H268.457C269.353 245.192 269.988 245.005 270.361 244.632C270.745 244.248 270.937 243.725 270.937 243.064C270.937 242.392 270.745 241.869 270.361 241.496C269.988 241.112 269.353 240.92 268.457 240.92H266.153V245.192ZM274.075 251V239.8H277.691C278.565 239.8 279.28 239.944 279.835 240.232C280.389 240.52 280.8 240.915 281.067 241.416C281.333 241.917 281.467 242.472 281.467 243.08C281.467 243.784 281.275 244.419 280.891 244.984C280.517 245.549 279.931 245.949 279.131 246.184L281.579 251H279.995L277.723 246.376H277.627H275.419V251H274.075ZM275.419 245.32H277.595C278.459 245.32 279.088 245.112 279.483 244.696C279.877 244.28 280.075 243.747 280.075 243.096C280.075 242.435 279.877 241.912 279.483 241.528C279.099 241.133 278.464 240.936 277.579 240.936H275.419V245.32Z" fill="black"/>
<path d="M329.552 225.192C328.56 225.192 327.701 224.952 326.976 224.472C326.261 223.981 325.712 223.304 325.328 222.44C324.944 221.565 324.752 220.552 324.752 219.4C324.752 218.248 324.944 217.24 325.328 216.376C325.712 215.501 326.261 214.824 326.976 214.344C327.701 213.853 328.56 213.608 329.552 213.608C330.544 213.608 331.397 213.853 332.112 214.344C332.827 214.824 333.376 215.501 333.76 216.376C334.144 217.24 334.336 218.248 334.336 219.4C334.336 220.552 334.144 221.565 333.76 222.44C333.376 223.304 332.827 223.981 332.112 224.472C331.397 224.952 330.544 225.192 329.552 225.192ZM329.552 224.008C330.203 224.008 330.784 223.827 331.296 223.464C331.819 223.091 332.224 222.563 332.512 221.88C332.811 221.187 332.96 220.36 332.96 219.4C332.96 218.44 332.811 217.619 332.512 216.936C332.224 216.253 331.819 215.731 331.296 215.368C330.784 214.995 330.203 214.808 329.552 214.808C328.891 214.808 328.304 214.995 327.792 215.368C327.28 215.731 326.875 216.253 326.576 216.936C326.277 217.619 326.128 218.44 326.128 219.4C326.128 220.36 326.277 221.187 326.576 221.88C326.875 222.563 327.28 223.091 327.792 223.464C328.304 223.827 328.891 224.008 329.552 224.008ZM338.294 219C337.814 219 337.376 218.893 336.982 218.68C336.598 218.456 336.294 218.147 336.07 217.752C335.846 217.347 335.734 216.867 335.734 216.312C335.734 215.757 335.846 215.283 336.07 214.888C336.304 214.483 336.614 214.173 336.998 213.96C337.392 213.736 337.83 213.624 338.31 213.624C338.79 213.624 339.222 213.736 339.606 213.96C339.99 214.173 340.294 214.483 340.518 214.888C340.742 215.283 340.854 215.757 340.854 216.312C340.854 216.867 340.736 217.347 340.502 217.752C340.278 218.147 339.974 218.456 339.59 218.68C339.206 218.893 338.774 219 338.294 219ZM337.302 225L343.814 213.8H345.158L338.646 225H337.302ZM338.294 217.96C338.667 217.96 338.992 217.821 339.27 217.544C339.558 217.267 339.702 216.856 339.702 216.312C339.702 215.757 339.563 215.341 339.286 215.064C339.008 214.776 338.683 214.632 338.31 214.632C337.936 214.632 337.6 214.776 337.302 215.064C337.014 215.341 336.87 215.757 336.87 216.312C336.87 216.856 337.014 217.267 337.302 217.544C337.59 217.821 337.92 217.96 338.294 217.96ZM344.278 225.192C343.798 225.192 343.36 225.085 342.966 224.872C342.582 224.648 342.278 224.339 342.054 223.944C341.83 223.539 341.718 223.059 341.718 222.504C341.718 221.949 341.83 221.475 342.054 221.08C342.288 220.675 342.598 220.365 342.982 220.152C343.366 219.928 343.798 219.816 344.278 219.816C344.758 219.816 345.19 219.928 345.574 220.152C345.958 220.365 346.262 220.675 346.486 221.08C346.71 221.475 346.822 221.949 346.822 222.504C346.822 223.059 346.71 223.539 346.486 223.944C346.262 224.339 345.958 224.648 345.574 224.872C345.19 225.085 344.758 225.192 344.278 225.192ZM344.262 224.152C344.646 224.152 344.976 224.013 345.254 223.736C345.542 223.459 345.686 223.048 345.686 222.504C345.686 221.949 345.547 221.533 345.27 221.256C344.992 220.979 344.662 220.84 344.278 220.84C343.904 220.84 343.574 220.979 343.286 221.256C342.998 221.533 342.854 221.949 342.854 222.504C342.854 223.048 342.992 223.459 343.27 223.736C343.558 224.013 343.888 224.152 344.262 224.152Z" fill="black"/>
<path d="M325.008 173V172.056C325.765 171.459 326.48 170.856 327.152 170.248C327.835 169.629 328.437 169.021 328.96 168.424C329.493 167.827 329.909 167.24 330.208 166.664C330.517 166.088 330.672 165.533 330.672 165C330.672 164.605 330.603 164.237 330.464 163.896C330.336 163.555 330.123 163.283 329.824 163.08C329.525 162.867 329.12 162.76 328.608 162.76C328.117 162.76 327.707 162.872 327.376 163.096C327.045 163.309 326.795 163.597 326.624 163.96C326.464 164.323 326.384 164.712 326.384 165.128H325.088C325.088 164.392 325.243 163.763 325.552 163.24C325.861 162.707 326.283 162.301 326.816 162.024C327.349 161.747 327.952 161.608 328.624 161.608C329.616 161.608 330.427 161.891 331.056 162.456C331.696 163.011 332.016 163.843 332.016 164.952C332.016 165.613 331.851 166.269 331.52 166.92C331.189 167.56 330.768 168.184 330.256 168.792C329.744 169.389 329.195 169.949 328.608 170.472C328.032 170.995 327.493 171.464 326.992 171.88H332.4V173H325.008ZM338.148 173.192C337.38 173.192 336.714 173.053 336.148 172.776C335.583 172.499 335.13 172.12 334.788 171.64C334.458 171.149 334.255 170.595 334.18 169.976H335.492C335.62 170.595 335.919 171.096 336.388 171.48C336.858 171.853 337.45 172.04 338.164 172.04C338.698 172.04 339.156 171.917 339.54 171.672C339.924 171.416 340.218 171.075 340.42 170.648C340.634 170.221 340.74 169.747 340.74 169.224C340.74 168.392 340.506 167.72 340.036 167.208C339.567 166.696 338.959 166.44 338.212 166.44C337.594 166.44 337.066 166.579 336.628 166.856C336.191 167.133 335.871 167.496 335.668 167.944H334.388L335.348 161.8H341.22V162.968H336.388L335.732 166.376C335.988 166.067 336.34 165.811 336.788 165.608C337.247 165.405 337.77 165.304 338.356 165.304C339.092 165.304 339.732 165.475 340.276 165.816C340.831 166.157 341.263 166.621 341.572 167.208C341.882 167.795 342.036 168.461 342.036 169.208C342.036 169.923 341.882 170.584 341.572 171.192C341.274 171.8 340.831 172.285 340.244 172.648C339.668 173.011 338.97 173.192 338.148 173.192ZM346.153 167C345.673 167 345.236 166.893 344.841 166.68C344.457 166.456 344.153 166.147 343.929 165.752C343.705 165.347 343.593 164.867 343.593 164.312C343.593 163.757 343.705 163.283 343.929 162.888C344.164 162.483 344.473 162.173 344.857 161.96C345.252 161.736 345.689 161.624 346.169 161.624C346.649 161.624 347.081 161.736 347.465 161.96C347.849 162.173 348.153 162.483 348.377 162.888C348.601 163.283 348.713 163.757 348.713 164.312C348.713 164.867 348.596 165.347 348.361 165.752C348.137 166.147 347.833 166.456 347.449 166.68C347.065 166.893 346.633 167 346.153 167ZM345.161 173L351.673 161.8H353.017L346.505 173H345.161ZM346.153 165.96C346.526 165.96 346.852 165.821 347.129 165.544C347.417 165.267 347.561 164.856 347.561 164.312C347.561 163.757 347.422 163.341 347.145 163.064C346.868 162.776 346.542 162.632 346.169 162.632C345.796 162.632 345.46 162.776 345.161 163.064C344.873 163.341 344.729 163.757 344.729 164.312C344.729 164.856 344.873 165.267 345.161 165.544C345.449 165.821 345.78 165.96 346.153 165.96ZM352.137 173.192C351.657 173.192 351.22 173.085 350.825 172.872C350.441 172.648 350.137 172.339 349.913 171.944C349.689 171.539 349.577 171.059 349.577 170.504C349.577 169.949 349.689 169.475 349.913 169.08C350.148 168.675 350.457 168.365 350.841 168.152C351.225 167.928 351.657 167.816 352.137 167.816C352.617 167.816 353.049 167.928 353.433 168.152C353.817 168.365 354.121 168.675 354.345 169.08C354.569 169.475 354.681 169.949 354.681 170.504C354.681 171.059 354.569 171.539 354.345 171.944C354.121 172.339 353.817 172.648 353.433 172.872C353.049 173.085 352.617 173.192 352.137 173.192ZM352.121 172.152C352.505 172.152 352.836 172.013 353.113 171.736C353.401 171.459 353.545 171.048 353.545 170.504C353.545 169.949 353.406 169.533 353.129 169.256C352.852 168.979 352.521 168.84 352.137 168.84C351.764 168.84 351.433 168.979 351.145 169.256C350.857 169.533 350.713 169.949 350.713 170.504C350.713 171.048 350.852 171.459 351.129 171.736C351.417 172.013 351.748 172.152 352.121 172.152Z" fill="black"/>
<path d="M328.992 121.192C328.224 121.192 327.557 121.053 326.992 120.776C326.427 120.499 325.973 120.12 325.632 119.64C325.301 119.149 325.099 118.595 325.024 117.976H326.336C326.464 118.595 326.763 119.096 327.232 119.48C327.701 119.853 328.293 120.04 329.008 120.04C329.541 120.04 330 119.917 330.384 119.672C330.768 119.416 331.061 119.075 331.264 118.648C331.477 118.221 331.584 117.747 331.584 117.224C331.584 116.392 331.349 115.72 330.88 115.208C330.411 114.696 329.803 114.44 329.056 114.44C328.437 114.44 327.909 114.579 327.472 114.856C327.035 115.133 326.715 115.496 326.512 115.944H325.232L326.192 109.8H332.064V110.968H327.232L326.576 114.376C326.832 114.067 327.184 113.811 327.632 113.608C328.091 113.405 328.613 113.304 329.2 113.304C329.936 113.304 330.576 113.475 331.12 113.816C331.675 114.157 332.107 114.621 332.416 115.208C332.725 115.795 332.88 116.461 332.88 117.208C332.88 117.923 332.725 118.584 332.416 119.192C332.117 119.8 331.675 120.285 331.088 120.648C330.512 121.011 329.813 121.192 328.992 121.192ZM339.349 121.192C338.357 121.192 337.498 120.952 336.773 120.472C336.058 119.981 335.509 119.304 335.125 118.44C334.741 117.565 334.549 116.552 334.549 115.4C334.549 114.248 334.741 113.24 335.125 112.376C335.509 111.501 336.058 110.824 336.773 110.344C337.498 109.853 338.357 109.608 339.349 109.608C340.341 109.608 341.194 109.853 341.909 110.344C342.624 110.824 343.173 111.501 343.557 112.376C343.941 113.24 344.133 114.248 344.133 115.4C344.133 116.552 343.941 117.565 343.557 118.44C343.173 119.304 342.624 119.981 341.909 120.472C341.194 120.952 340.341 121.192 339.349 121.192ZM339.349 120.008C340 120.008 340.581 119.827 341.093 119.464C341.616 119.091 342.021 118.563 342.309 117.88C342.608 117.187 342.757 116.36 342.757 115.4C342.757 114.44 342.608 113.619 342.309 112.936C342.021 112.253 341.616 111.731 341.093 111.368C340.581 110.995 340 110.808 339.349 110.808C338.688 110.808 338.101 110.995 337.589 111.368C337.077 111.731 336.672 112.253 336.373 112.936C336.074 113.619 335.925 114.44 335.925 115.4C335.925 116.36 336.074 117.187 336.373 117.88C336.672 118.563 337.077 119.091 337.589 119.464C338.101 119.827 338.688 120.008 339.349 120.008ZM348.091 115C347.611 115 347.173 114.893 346.779 114.68C346.395 114.456 346.091 114.147 345.867 113.752C345.643 113.347 345.531 112.867 345.531 112.312C345.531 111.757 345.643 111.283 345.867 110.888C346.101 110.483 346.411 110.173 346.795 109.96C347.189 109.736 347.627 109.624 348.107 109.624C348.587 109.624 349.019 109.736 349.403 109.96C349.787 110.173 350.091 110.483 350.315 110.888C350.539 111.283 350.651 111.757 350.651 112.312C350.651 112.867 350.533 113.347 350.299 113.752C350.075 114.147 349.771 114.456 349.387 114.68C349.003 114.893 348.571 115 348.091 115ZM347.099 121L353.611 109.8H354.955L348.443 121H347.099ZM348.091 113.96C348.464 113.96 348.789 113.821 349.067 113.544C349.355 113.267 349.499 112.856 349.499 112.312C349.499 111.757 349.36 111.341 349.083 111.064C348.805 110.776 348.48 110.632 348.107 110.632C347.733 110.632 347.397 110.776 347.099 111.064C346.811 111.341 346.667 111.757 346.667 112.312C346.667 112.856 346.811 113.267 347.099 113.544C347.387 113.821 347.717 113.96 348.091 113.96ZM354.075 121.192C353.595 121.192 353.157 121.085 352.763 120.872C352.379 120.648 352.075 120.339 351.851 119.944C351.627 119.539 351.515 119.059 351.515 118.504C351.515 117.949 351.627 117.475 351.851 117.08C352.085 116.675 352.395 116.365 352.779 116.152C353.163 115.928 353.595 115.816 354.075 115.816C354.555 115.816 354.987 115.928 355.371 116.152C355.755 116.365 356.059 116.675 356.283 117.08C356.507 117.475 356.619 117.949 356.619 118.504C356.619 119.059 356.507 119.539 356.283 119.944C356.059 120.339 355.755 120.648 355.371 120.872C354.987 121.085 354.555 121.192 354.075 121.192ZM354.059 120.152C354.443 120.152 354.773 120.013 355.051 119.736C355.339 119.459 355.483 119.048 355.483 118.504C355.483 117.949 355.344 117.533 355.067 117.256C354.789 116.979 354.459 116.84 354.075 116.84C353.701 116.84 353.371 116.979 353.083 117.256C352.795 117.533 352.651 117.949 352.651 118.504C352.651 119.048 352.789 119.459 353.067 119.736C353.355 120.013 353.685 120.152 354.059 120.152Z" fill="black"/>
<path d="M326.112 70L330.56 59.952H324.416V58.8H331.936V59.808L327.536 70H326.112ZM337.055 70.192C336.287 70.192 335.62 70.0533 335.055 69.776C334.489 69.4987 334.036 69.12 333.695 68.64C333.364 68.1493 333.161 67.5947 333.087 66.976H334.399C334.527 67.5947 334.825 68.096 335.295 68.48C335.764 68.8533 336.356 69.04 337.071 69.04C337.604 69.04 338.063 68.9173 338.447 68.672C338.831 68.416 339.124 68.0747 339.327 67.648C339.54 67.2213 339.647 66.7467 339.647 66.224C339.647 65.392 339.412 64.72 338.943 64.208C338.473 63.696 337.865 63.44 337.119 63.44C336.5 63.44 335.972 63.5787 335.535 63.856C335.097 64.1333 334.777 64.496 334.575 64.944H333.295L334.255 58.8H340.127V59.968H335.295L334.639 63.376C334.895 63.0667 335.247 62.8107 335.695 62.608C336.153 62.4053 336.676 62.304 337.263 62.304C337.999 62.304 338.639 62.4747 339.183 62.816C339.737 63.1573 340.169 63.6213 340.479 64.208C340.788 64.7947 340.943 65.4613 340.943 66.208C340.943 66.9227 340.788 67.584 340.479 68.192C340.18 68.8 339.737 69.2853 339.151 69.648C338.575 70.0107 337.876 70.192 337.055 70.192ZM345.059 64C344.579 64 344.142 63.8933 343.747 63.68C343.363 63.456 343.059 63.1467 342.835 62.752C342.611 62.3467 342.499 61.8667 342.499 61.312C342.499 60.7573 342.611 60.2827 342.835 59.888C343.07 59.4827 343.379 59.1733 343.763 58.96C344.158 58.736 344.595 58.624 345.075 58.624C345.555 58.624 345.987 58.736 346.371 58.96C346.755 59.1733 347.059 59.4827 347.283 59.888C347.507 60.2827 347.619 60.7573 347.619 61.312C347.619 61.8667 347.502 62.3467 347.267 62.752C347.043 63.1467 346.739 63.456 346.355 63.68C345.971 63.8933 345.539 64 345.059 64ZM344.067 70L350.579 58.8H351.923L345.411 70H344.067ZM345.059 62.96C345.433 62.96 345.758 62.8213 346.035 62.544C346.323 62.2667 346.467 61.856 346.467 61.312C346.467 60.7573 346.329 60.3413 346.051 60.064C345.774 59.776 345.449 59.632 345.075 59.632C344.702 59.632 344.366 59.776 344.067 60.064C343.779 60.3413 343.635 60.7573 343.635 61.312C343.635 61.856 343.779 62.2667 344.067 62.544C344.355 62.8213 344.686 62.96 345.059 62.96ZM351.043 70.192C350.563 70.192 350.126 70.0853 349.731 69.872C349.347 69.648 349.043 69.3387 348.819 68.944C348.595 68.5387 348.483 68.0587 348.483 67.504C348.483 66.9493 348.595 66.4747 348.819 66.08C349.054 65.6747 349.363 65.3653 349.747 65.152C350.131 64.928 350.563 64.816 351.043 64.816C351.523 64.816 351.955 64.928 352.339 65.152C352.723 65.3653 353.027 65.6747 353.251 66.08C353.475 66.4747 353.587 66.9493 353.587 67.504C353.587 68.0587 353.475 68.5387 353.251 68.944C353.027 69.3387 352.723 69.648 352.339 69.872C351.955 70.0853 351.523 70.192 351.043 70.192ZM351.027 69.152C351.411 69.152 351.742 69.0133 352.019 68.736C352.307 68.4587 352.451 68.048 352.451 67.504C352.451 66.9493 352.313 66.5333 352.035 66.256C351.758 65.9787 351.427 65.84 351.043 65.84C350.67 65.84 350.339 65.9787 350.051 66.256C349.763 66.5333 349.619 66.9493 349.619 67.504C349.619 68.048 349.758 68.4587 350.035 68.736C350.323 69.0133 350.654 69.152 351.027 69.152Z" fill="black"/>
<path d="M326.288 19V9.304L324.48 9.704V8.776L326.736 7.8H327.648V19H326.288ZM334.38 19.192C333.388 19.192 332.529 18.952 331.804 18.472C331.089 17.9813 330.54 17.304 330.156 16.44C329.772 15.5653 329.58 14.552 329.58 13.4C329.58 12.248 329.772 11.24 330.156 10.376C330.54 9.50133 331.089 8.824 331.804 8.344C332.529 7.85333 333.388 7.608 334.38 7.608C335.372 7.608 336.225 7.85333 336.94 8.344C337.655 8.824 338.204 9.50133 338.588 10.376C338.972 11.24 339.164 12.248 339.164 13.4C339.164 14.552 338.972 15.5653 338.588 16.44C338.204 17.304 337.655 17.9813 336.94 18.472C336.225 18.952 335.372 19.192 334.38 19.192ZM334.38 18.008C335.031 18.008 335.612 17.8267 336.124 17.464C336.647 17.0907 337.052 16.5627 337.34 15.88C337.639 15.1867 337.788 14.36 337.788 13.4C337.788 12.44 337.639 11.6187 337.34 10.936C337.052 10.2533 336.647 9.73067 336.124 9.368C335.612 8.99467 335.031 8.808 334.38 8.808C333.719 8.808 333.132 8.99467 332.62 9.368C332.108 9.73067 331.703 10.2533 331.404 10.936C331.105 11.6187 330.956 12.44 330.956 13.4C330.956 14.36 331.105 15.1867 331.404 15.88C331.703 16.5627 332.108 17.0907 332.62 17.464C333.132 17.8267 333.719 18.008 334.38 18.008ZM345.474 19.192C344.482 19.192 343.623 18.952 342.898 18.472C342.183 17.9813 341.634 17.304 341.25 16.44C340.866 15.5653 340.674 14.552 340.674 13.4C340.674 12.248 340.866 11.24 341.25 10.376C341.634 9.50133 342.183 8.824 342.898 8.344C343.623 7.85333 344.482 7.608 345.474 7.608C346.466 7.608 347.319 7.85333 348.034 8.344C348.749 8.824 349.298 9.50133 349.682 10.376C350.066 11.24 350.258 12.248 350.258 13.4C350.258 14.552 350.066 15.5653 349.682 16.44C349.298 17.304 348.749 17.9813 348.034 18.472C347.319 18.952 346.466 19.192 345.474 19.192ZM345.474 18.008C346.125 18.008 346.706 17.8267 347.218 17.464C347.741 17.0907 348.146 16.5627 348.434 15.88C348.733 15.1867 348.882 14.36 348.882 13.4C348.882 12.44 348.733 11.6187 348.434 10.936C348.146 10.2533 347.741 9.73067 347.218 9.368C346.706 8.99467 346.125 8.808 345.474 8.808C344.813 8.808 344.226 8.99467 343.714 9.368C343.202 9.73067 342.797 10.2533 342.498 10.936C342.199 11.6187 342.05 12.44 342.05 13.4C342.05 14.36 342.199 15.1867 342.498 15.88C342.797 16.5627 343.202 17.0907 343.714 17.464C344.226 17.8267 344.813 18.008 345.474 18.008ZM354.216 13C353.736 13 353.298 12.8933 352.904 12.68C352.52 12.456 352.216 12.1467 351.992 11.752C351.768 11.3467 351.656 10.8667 351.656 10.312C351.656 9.75733 351.768 9.28267 351.992 8.888C352.226 8.48267 352.536 8.17333 352.92 7.96C353.314 7.736 353.752 7.624 354.232 7.624C354.712 7.624 355.144 7.736 355.528 7.96C355.912 8.17333 356.216 8.48267 356.44 8.888C356.664 9.28267 356.776 9.75733 356.776 10.312C356.776 10.8667 356.658 11.3467 356.424 11.752C356.2 12.1467 355.896 12.456 355.512 12.68C355.128 12.8933 354.696 13 354.216 13ZM353.224 19L359.736 7.8H361.08L354.568 19H353.224ZM354.216 11.96C354.589 11.96 354.914 11.8213 355.192 11.544C355.48 11.2667 355.624 10.856 355.624 10.312C355.624 9.75733 355.485 9.34133 355.208 9.064C354.93 8.776 354.605 8.632 354.232 8.632C353.858 8.632 353.522 8.776 353.224 9.064C352.936 9.34133 352.792 9.75733 352.792 10.312C352.792 10.856 352.936 11.2667 353.224 11.544C353.512 11.8213 353.842 11.96 354.216 11.96ZM360.2 19.192C359.72 19.192 359.282 19.0853 358.888 18.872C358.504 18.648 358.2 18.3387 357.976 17.944C357.752 17.5387 357.64 17.0587 357.64 16.504C357.64 15.9493 357.752 15.4747 357.976 15.08C358.21 14.6747 358.52 14.3653 358.904 14.152C359.288 13.928 359.72 13.816 360.2 13.816C360.68 13.816 361.112 13.928 361.496 14.152C361.88 14.3653 362.184 14.6747 362.408 15.08C362.632 15.4747 362.744 15.9493 362.744 16.504C362.744 17.0587 362.632 17.5387 362.408 17.944C362.184 18.3387 361.88 18.648 361.496 18.872C361.112 19.0853 360.68 19.192 360.2 19.192ZM360.184 18.152C360.568 18.152 360.898 18.0133 361.176 17.736C361.464 17.4587 361.608 17.048 361.608 16.504C361.608 15.9493 361.469 15.5333 361.192 15.256C360.914 14.9787 360.584 14.84 360.2 14.84C359.826 14.84 359.496 14.9787 359.208 15.256C358.92 15.5333 358.776 15.9493 358.776 16.504C358.776 17.048 358.914 17.4587 359.192 17.736C359.48 18.0133 359.81 18.152 360.184 18.152Z" fill="black"/>
</svg>
