<svg height="512" viewBox="0 0 50 50" width="512" xmlns="http://www.w3.org/2000/svg"><g id="Icons"><path d="m25 16a10 10 0 1 0 10 10 10 10 0 0 0 -10-10zm0 18a8 8 0 1 1 8-8 8 8 0 0 1 -8 8z"/><path d="m38 12h-4.38l-.83-1.66a4.58 4.58 0 0 0 -3.79-2.34h-8a4.58 4.58 0 0 0 -3.79 2.34l-.83 1.66h-4.38a7 7 0 0 0 -7 7v16a7 7 0 0 0 7 7h26a7 7 0 0 0 7-7v-16a7 7 0 0 0 -7-7zm5 23a5 5 0 0 1 -5 5h-26a5 5 0 0 1 -5-5v-16a5 5 0 0 1 5-5h5a1 1 0 0 0 .89-.55l1.11-2.21a2.56 2.56 0 0 1 2-1.24h8a2.56 2.56 0 0 1 2 1.24l1.11 2.21a1 1 0 0 0 .89.55h5a5 5 0 0 1 5 5z"/></g></svg>