<svg id="Layer_2" enable-background="new 0 0 64 64" height="100" viewBox="0 0 64 64" width="100" xmlns="http://www.w3.org/2000/svg"><g><g id="LINE_366_"><g><path d="m58 48.5c-.552 0-1-.448-1-1v-15c0-.552.448-1 1-1s1 .448 1 1v15c0 .552-.448 1-1 1z"/></g></g><g id="LINE_367_"><g><path d="m6 48.5c-.552 0-1-.448-1-1v-15c0-.552.448-1 1-1s1 .448 1 1v15c0 .552-.448 1-1 1z"/></g></g><g id="LINE_368_"><g><path d="m50 31.5c-.552 0-1-.448-1-1v-6c0-.552.448-1 1-1s1 .448 1 1v6c0 .552-.448 1-1 1z"/></g></g><g id="LINE_369_"><g><path d="m14 31.5c-.552 0-1-.448-1-1v-6c0-.552.448-1 1-1s1 .448 1 1v6c0 .552-.448 1-1 1z"/></g></g><g id="LINE_370_"><g><path d="m35 31.5c-.552 0-1-.448-1-1v-6c0-.552.448-1 1-1s1 .448 1 1v6c0 .552-.448 1-1 1z"/></g></g><g id="LINE_371_"><g><path d="m29 31.5c-.552 0-1-.448-1-1v-6c0-.552.448-1 1-1s1 .448 1 1v6c0 .552-.448 1-1 1z"/></g></g><g id="ARC_288_"><g><path d="m29 25.5c-.552 0-1-.448-1-1 0-.551-.449-1-1-1-.552 0-1-.448-1-1s.448-1 1-1c1.654 0 3 1.346 3 3 0 .552-.448 1-1 1z"/></g></g><g id="LINE_372_"><g><path d="m27 23.5h-11c-.552 0-1-.448-1-1s.448-1 1-1h11c.552 0 1 .448 1 1s-.448 1-1 1z"/></g></g><g id="ARC_289_"><g><path d="m35 25.5c-.552 0-1-.448-1-1 0-1.654 1.346-3 3-3 .552 0 1 .448 1 1s-.448 1-1 1c-.551 0-1 .449-1 1 0 .552-.448 1-1 1z"/></g></g><g id="LINE_373_"><g><path d="m48 23.5h-11c-.552 0-1-.448-1-1s.448-1 1-1h11c.552 0 1 .448 1 1s-.448 1-1 1z"/></g></g><g id="ARC_290_"><g><path d="m14 25.5c-.552 0-1-.448-1-1 0-1.654 1.346-3 3-3 .552 0 1 .448 1 1s-.448 1-1 1c-.551 0-1 .449-1 1 0 .552-.448 1-1 1z"/></g></g><g id="ARC_291_"><g><path d="m50 25.5c-.552 0-1-.448-1-1 0-.551-.449-1-1-1-.552 0-1-.448-1-1s.448-1 1-1c1.654 0 3 1.346 3 3 0 .552-.448 1-1 1z"/></g></g><g id="LINE_374_"><g><path d="m56 27.5c-.552 0-1-.448-1-1v-6c0-.552.448-1 1-1s1 .448 1 1v6c0 .552-.448 1-1 1z"/></g></g><g id="LINE_375_"><g><path d="m8 27.5c-.552 0-1-.448-1-1v-6c0-.552.448-1 1-1s1 .448 1 1v6c0 .552-.448 1-1 1z"/></g></g><g id="LINE_376_"><g><path d="m56 31.5h-48c-.552 0-1-.448-1-1s.448-1 1-1h48c.552 0 1 .448 1 1s-.448 1-1 1z"/></g></g><g id="ARC_292_"><g><path d="m6 33.5c-.552 0-1-.448-1-1 0-1.654 1.346-3 3-3 .552 0 1 .448 1 1s-.448 1-1 1c-.551 0-1 .449-1 1 0 .552-.448 1-1 1z"/></g></g><g id="ARC_293_"><g><path d="m58 33.5c-.552 0-1-.448-1-1 0-.551-.449-1-1-1-.552 0-1-.448-1-1s.448-1 1-1c1.654 0 3 1.346 3 3 0 .552-.448 1-1 1z"/></g></g><g id="ARC_294_"><g><path d="m8 21.5c-.552 0-1-.448-1-1 0-2.757 2.243-5 5-5 .552 0 1 .448 1 1s-.448 1-1 1c-1.654 0-3 1.346-3 3 0 .552-.448 1-1 1z"/></g></g><g id="ARC_295_"><g><path d="m56 21.5c-.552 0-1-.448-1-1 0-1.654-1.346-3-3-3-.552 0-1-.448-1-1s.448-1 1-1c2.757 0 5 2.243 5 5 0 .552-.448 1-1 1z"/></g></g><g id="LINE_377_"><g><path d="m58 42.5h-52c-.552 0-1-.448-1-1s.448-1 1-1h52c.552 0 1 .448 1 1s-.448 1-1 1z"/></g></g><g id="LINE_378_"><g><path d="m52 17.5h-40c-.552 0-1-.448-1-1s.448-1 1-1h40c.552 0 1 .448 1 1s-.448 1-1 1z"/></g></g></g></svg>