<?xml version="1.0" encoding="iso-8859-1"?>
<!-- Generator: Adobe Illustrator 19.0.0, SVG Export Plug-In . SVG Version: 6.00 Build 0)  -->
<svg version="1.1" id="Capa_1" xmlns="http://www.w3.org/2000/svg" xmlns:xlink="http://www.w3.org/1999/xlink" x="0px" y="0px"
	 viewBox="0 0 512 512" style="enable-background:new 0 0 512 512;" xml:space="preserve">
<g>
	<g>
		<path d="M198.649,109.692c-0.014-0.021-0.039-0.065-0.052-0.087c-2.123-3.539-6.702-4.688-10.251-2.582
			c-3.55,2.105-4.726,6.694-2.639,10.255c0.014,0.021,0.039,0.065,0.052,0.087c1.404,2.341,3.881,3.635,6.425,3.635
			c1.303,0,2.624-0.34,3.826-1.053C199.56,117.842,200.736,113.253,198.649,109.692z"/>
	</g>
</g>
<g>
	<g>
		<path d="M215.615,140.396l-0.045-0.086c-1.852-3.703-6.334-5.162-10.04-3.31c-3.705,1.853-5.185,6.401-3.332,10.106
			c1.314,2.628,3.963,4.147,6.714,4.147c1.127,0,2.271-0.256,3.349-0.794C215.965,148.606,217.467,144.102,215.615,140.396z"/>
	</g>
</g>
<g>
	<g>
		<path d="M240.551,206.381c-0.994-4.001-5.041-6.452-9.046-5.481c-4.026,0.977-6.498,5.03-5.522,9.056
			c0.021,0.089,0.069,0.273,0.094,0.359c0.931,3.309,3.939,5.472,7.216,5.472c0.672,0,1.355-0.091,2.034-0.282
			C239.271,214.395,241.587,210.33,240.551,206.381z"/>
	</g>
</g>
<g>
	<g>
		<path d="M229.89,172.717c-0.009-0.024-0.054-0.141-0.063-0.165c-1.491-3.85-5.795-5.721-9.648-4.257
			c-3.855,1.47-5.783,5.824-4.334,9.689c1.129,3.011,3.986,4.868,7.023,4.868c0.875,0,1.765-0.154,2.633-0.479
			C229.379,180.919,231.344,176.596,229.89,172.717z"/>
	</g>
</g>
<g>
	<g>
		<path d="M247.468,240.773c-0.018-0.098-0.038-0.196-0.059-0.289c-0.898-4.044-4.905-6.595-8.949-5.694
			c-3.956,0.879-6.482,4.731-5.748,8.685c0.018,0.099,0.038,0.197,0.059,0.291c0.776,3.496,3.876,5.875,7.315,5.875
			c0.539,0,1.086-0.059,1.634-0.181C245.676,248.581,248.202,244.727,247.468,240.773z"/>
	</g>
</g>
<g>
	<g>
		<path d="M222.753,88.322c-2.573-3.022-7.094-3.525-10.278-1.075c-3.445,2.65-3.972,7.736-0.924,11.049
			c2.79,3.044,7.531,3.267,10.596,0.46C225.146,96.007,225.398,91.38,222.753,88.322z"/>
	</g>
</g>
<g>
	<g>
		<path d="M299.152,206.514c-1.703-3.773-6.136-5.441-9.911-3.739c-3.763,1.695-5.441,6.12-3.771,9.889
			c1.221,2.829,3.982,4.53,6.89,4.53C297.718,217.194,301.504,211.624,299.152,206.514z"/>
	</g>
</g>
<g>
	<g>
		<path d="M265.596,144.395l-0.021-0.03c-2.24-3.484-6.881-4.493-10.364-2.253c-3.484,2.239-4.493,6.88-2.253,10.364
			c1.435,2.272,3.841,3.521,6.357,3.521C265.206,155.997,268.86,149.416,265.596,144.395z"/>
	</g>
</g>
<g>
	<g>
		<path d="M245.202,115.659c-2.414-3.379-7.303-4.217-10.715-1.566c-5.748,4.471-2.314,13.53,4.694,13.53
			C245.256,127.623,248.895,120.644,245.202,115.659z"/>
	</g>
</g>
<g>
	<g>
		<path d="M283.714,174.8l-0.012-0.021c-1.949-3.655-6.491-5.038-10.146-3.088c-3.666,1.955-5.104,6.57-2.991,10.328
			c1.99,3.608,6.511,4.917,10.141,2.941C284.329,182.986,285.667,178.435,283.714,174.8z"/>
	</g>
</g>
<g>
	<g>
		<path d="M311.924,239.479c-1.454-3.878-5.775-5.842-9.656-4.389c-3.827,1.435-5.79,5.662-4.446,9.5
			c1.345,3.886,5.567,5.962,9.46,4.662C311.222,247.939,313.454,243.605,311.924,239.479z"/>
	</g>
</g>
<g>
	<g>
		<path d="M243.788,63.935c-3.056-2.659-7.694-2.412-10.449,0.592c-2.799,3.054-2.593,7.798,0.46,10.597
			c3.302,3.008,8.193,2.507,10.863-0.698C247.29,71.274,246.892,66.6,243.788,63.935z"/>
	</g>
</g>
<g>
	<g>
		<path d="M341.782,175.086c-0.071-0.112-0.145-0.223-0.22-0.331c-2.35-3.41-7.015-4.26-10.423-1.911
			c-3.392,2.336-4.258,6.973-1.958,10.379c1.437,2.184,3.829,3.377,6.272,3.377c1.372,0,2.761-0.376,4.006-1.165
			C342.959,183.219,343.999,178.585,341.782,175.086z"/>
	</g>
</g>
<g>
	<g>
		<path d="M320.092,144.883l-0.166-0.216c-2.56-3.257-7.293-3.849-10.551-1.289c-5.697,4.476-2.281,13.505,4.723,13.505
			c1.565,0,3.146-0.488,4.494-1.5C321.906,152.898,322.577,148.197,320.092,144.883z"/>
	</g>
</g>
<g>
	<g>
		<path d="M361.383,206.238l-0.013-0.023c-2.08-3.583-6.671-4.798-10.252-2.721c-3.582,2.08-4.8,6.67-2.721,10.252l0.108,0.184
			c1.402,2.337,3.871,3.626,6.409,3.626c1.305,0,2.627-0.341,3.832-1.055C362.296,214.397,363.467,209.799,361.383,206.238z"/>
	</g>
</g>
<g>
	<g>
		<path d="M296.486,116.117c-2.691-3.118-7.4-3.484-10.54-0.808c-3.153,2.686-3.532,7.419-0.846,10.572
			c2.915,3.44,7.822,3.535,10.864,0.726C298.972,123.831,299.193,119.164,296.486,116.117z"/>
	</g>
</g>
<g>
	<g>
		<path d="M271.054,89.07l-0.013-0.013c-2.93-2.928-7.678-2.928-10.607,0c-2.929,2.93-2.929,7.678,0,10.608l0.18,0.176
			c2.985,2.871,7.756,2.798,10.626-0.187C274.111,96.668,274.04,91.941,271.054,89.07z"/>
	</g>
</g>
<g>
	<g>
		<path d="M379.26,238.783c-0.055-0.108-0.136-0.263-0.195-0.369c-2.03-3.611-6.604-4.889-10.214-2.86
			c-3.55,1.997-4.847,6.45-2.96,10.03c1.329,2.572,3.948,4.056,6.667,4.056c1.127,0,2.272-0.256,3.349-0.794
			C379.611,246.993,381.113,242.489,379.26,238.783z"/>
	</g>
</g>
<g>
	<g>
		<path d="M490.116,276.284h-54.755c-4.142,0-7.5,3.357-7.5,7.5s3.358,7.5,7.5,7.5h54.755c3.796,0,6.884,3.088,6.884,6.883
			s-3.088,6.883-6.884,6.883c-23.361,0-444.588,0-468.232,0c-3.796,0-6.884-3.088-6.884-6.883s3.088-6.883,6.884-6.883
			c23.394,0,366.528,0,377.02,0c4.143,0,7.5-3.357,7.5-7.5s-3.357-7.5-7.5-7.5H188.998v-8.48c0-11.186-9.1-20.285-20.285-20.285
			h-11.036v-13.766h17.681l6.578,6.42c2.964,2.891,7.712,2.836,10.607-0.13c2.893-2.965,2.834-7.713-0.13-10.607
			c-7.571-6.716-9.086-10.684-14.002-10.684h-38.213c-4.143,0-7.5,3.357-7.5,7.5s3.357,7.5,7.5,7.5h2.48v13.766H124.65V58.398
			c0-9.453,11.211-15.909,20.017-7.701l6.235,5.916c-7.114,8.588-6.658,21.378,1.382,29.418c4.267,4.267,9.87,6.398,15.475,6.398
			c5.603,0,11.208-2.133,15.473-6.398l28.662-28.66c13.7-13.7,3.968-37.357-15.474-37.357c-5.446,0-10.573,1.998-14.593,5.61
			c-4.172-3.02-17.734-22.49-45.676-22.49c-30.475,0-55.268,24.792-55.268,55.265v101.902c0,4.143,3.358,7.5,7.5,7.5
			c4.143,0,7.5-3.357,7.5-7.5V58.398c0-22.202,18.063-40.265,40.268-40.265c21.051,0,30.014,14.348,35.023,18.06l-9.738,9.737
			c-5.359-4.122-11.013-14.032-25.285-14.032c-14.612,0-26.501,11.888-26.501,26.499c0,10.967,0,207.99,0,217.887H95.882
			c0-13.382,0-61.387,0-80.983c0-4.143-3.357-7.5-7.5-7.5c-4.142,0-7.5,3.357-7.5,7.5v23.452H41.147
			c-11.186,0-20.285,9.1-20.285,20.284v37.273C9.269,276.846,0,286.444,0,298.167c0,11.724,9.269,21.321,20.862,21.857
			c0,15.236,0,28.195,0,43.426c0,46.892,34.009,85.988,78.657,93.924l-7.753,19.789c-5.981,15.269,5.326,31.701,21.619,31.701
			c9.627,0,18.116-5.792,21.629-14.757l13.815-35.262h216.136l13.815,35.263c4.807,12.267,18.404,17.734,30.096,13.15
			c11.95-4.681,17.835-18.142,13.152-30.096l-7.753-19.789c44.648-7.936,78.658-47.033,78.658-93.924c0-14.035,0-30.013,0-43.588
			c10.74-1.385,19.067-10.582,19.067-21.694C512,286.101,502.183,276.284,490.116,276.284z M162.889,65.69l28.662-28.66
			c4.31-4.314,11.75-1.252,11.75,4.867c0,4.998-2.238,4.15-30.678,33.526c-1.3,1.301-3.028,2.017-4.867,2.017
			c-1.838,0-3.566-0.716-4.866-2.017C160.201,72.735,160.198,68.38,162.889,65.69z M124.648,262.519h44.065
			c2.914,0,5.285,2.371,5.285,5.285v8.48h-49.35V262.519z M35.862,239.038c0-2.864,2.42-5.284,5.285-5.284h39.734v42.531H35.862
			V239.038z M121.048,488.637c-1.244,3.177-4.252,5.229-7.662,5.229c-5.787,0-9.762-5.845-7.652-11.229l9.32-23.79
			c16.291,0.001,17.744,0.001,17.665,0.001c0,0,0.001,0,0.001,0L121.048,488.637z M407.94,488.93
			c-2.909,6.654-12.501,6.579-15.193-0.292l-11.672-29.791c0,0,0,0,0.001,0c-0.077,0,1.381,0,17.665-0.001
			C406.857,481.451,410.252,483.641,407.94,488.93z M397.573,443.847c-13.011,0-272.44,0-281.351,0
			c-44.314-0.021-80.36-36.077-80.36-80.396v-14.634h63.786c4.143,0,7.5-3.357,7.5-7.5s-3.357-7.5-7.5-7.5H35.862V320.05h442.07
			v13.767H134.648c-4.143,0-7.5,3.357-7.5,7.5s3.358,7.5,7.5,7.5h343.284v14.634h0.001
			C477.933,407.769,441.887,443.826,397.573,443.847z"/>
	</g>
</g>
<g>
</g>
<g>
</g>
<g>
</g>
<g>
</g>
<g>
</g>
<g>
</g>
<g>
</g>
<g>
</g>
<g>
</g>
<g>
</g>
<g>
</g>
<g>
</g>
<g>
</g>
<g>
</g>
<g>
</g>
</svg>
