<svg id="Layer_1" height="512" viewBox="0 0 512 512" width="512" xmlns="http://www.w3.org/2000/svg" data-name="Layer 1"><path d="m504.787 226.6-235-204.538a21 21 0 0 0 -27.574 0l-235 204.538a21 21 0 1 0 27.574 31.681l4.509-3.924v219.736a21 21 0 0 0 21 21h391.404a21 21 0 0 0 21-21v-219.732l4.509 3.924a21 21 0 1 0 27.578-31.685zm-74.087 226.493h-349.4v-235.288l174.7-152.058 174.7 152.058zm-174.7-252.578a21 21 0 0 1 21 21v64.427h64.429a21 21 0 0 1 0 42h-64.429v64.43a21 21 0 1 1 -42 0v-64.43h-64.429a21 21 0 0 1 0-42h64.429v-64.427a21 21 0 0 1 21-21z"/></svg>