<svg width="50" height="50" viewBox="0 0 50 50" fill="none" xmlns="http://www.w3.org/2000/svg">
<path d="M4.99999 49.9999H25C26.3256 49.9986 27.5966 49.4714 28.534 48.534C29.4714 47.5966 29.9986 46.3256 30 44.9999C30 44.7789 29.9122 44.567 29.7559 44.4107C29.5996 44.2544 29.3876 44.1666 29.1666 44.1666C28.9456 44.1666 28.7337 44.2544 28.5774 44.4107C28.4211 44.567 28.3333 44.7789 28.3333 44.9999C28.3333 45.884 27.9821 46.7318 27.357 47.357C26.7319 47.9821 25.884 48.3333 25 48.3333H4.99999C4.11594 48.3333 3.26809 47.9821 2.64297 47.357C2.01785 46.7318 1.66666 45.884 1.66666 44.9999V4.99999C1.66666 4.11594 2.01785 3.26809 2.64297 2.64297C3.26809 2.01785 4.11594 1.66666 4.99999 1.66666H5.31833L7.12749 5.28499C7.33384 5.70121 7.65268 6.05127 8.04787 6.29548C8.44306 6.53969 8.89877 6.66828 9.36332 6.66666H20.6366C21.1012 6.66828 21.5569 6.53969 21.9521 6.29548C22.3473 6.05127 22.6661 5.70121 22.8725 5.28499L24.6816 1.66666H25C25.884 1.66666 26.7319 2.01785 27.357 2.64297C27.9821 3.26809 28.3333 4.11594 28.3333 4.99999V6.66666C28.3333 6.88767 28.4211 7.09963 28.5774 7.25591C28.7337 7.41219 28.9456 7.49999 29.1666 7.49999C29.3876 7.49999 29.5996 7.41219 29.7559 7.25591C29.9122 7.09963 30 6.88767 30 6.66666V4.99999C29.9986 3.67432 29.4714 2.40332 28.534 1.46593C27.5966 0.528532 26.3256 0.00132369 25 0L4.99999 0C3.67432 0.00132369 2.40332 0.528532 1.46593 1.46593C0.528532 2.40332 0.00132369 3.67432 0 4.99999L0 44.9999C0.00132369 46.3256 0.528532 47.5966 1.46593 48.534C2.40332 49.4714 3.67432 49.9986 4.99999 49.9999ZM21.3816 4.53916C21.3129 4.67793 21.2067 4.79466 21.075 4.87612C20.9434 4.95757 20.7915 5.00049 20.6366 4.99999H9.36332C9.20848 5.00049 9.0566 4.95757 8.92492 4.87612C8.79324 4.79466 8.68702 4.67793 8.61832 4.53916L7.18166 1.66666H22.8183L21.3816 4.53916Z" fill="#C8242F"/>
<path d="M21.6666 46.6667C21.8877 46.6667 22.0996 46.5789 22.2559 46.4226C22.4122 46.2663 22.5 46.0543 22.5 45.8333C22.5 45.6123 22.4122 45.4004 22.2559 45.2441C22.0996 45.0878 21.8877 45 21.6666 45H8.33333C8.11232 45 7.90036 45.0878 7.74408 45.2441C7.5878 45.4004 7.5 45.6123 7.5 45.8333C7.5 46.0543 7.5878 46.2663 7.74408 46.4226C7.90036 46.5789 8.11232 46.6667 8.33333 46.6667H21.6666Z" fill="#C8242F"/>
<path d="M41.6363 27.7399C41.0007 27.1327 40.1554 26.7939 39.2763 26.7939C38.3973 26.7939 37.552 27.1327 36.9163 27.7399L35.2647 29.3916C35.2311 29.428 35.1859 29.4517 35.1368 29.4585C35.0877 29.4654 35.0378 29.455 34.9955 29.4291C32.963 27.9771 31.1845 26.1989 29.7322 24.1666C29.7079 24.1254 29.6983 24.0772 29.705 24.0298C29.7117 23.9824 29.7342 23.9387 29.7688 23.9058L31.4247 22.2499C32.0494 21.6234 32.4002 20.7747 32.4002 19.8899C32.4002 19.0052 32.0494 18.1565 31.4247 17.5299L29.038 15.1416C28.4025 14.5351 27.5577 14.1968 26.6793 14.1968C25.8008 14.1968 24.9561 14.5351 24.3205 15.1416C22.0372 17.425 21.1539 20.9949 21.9522 24.6949C22.4905 27.1716 23.8414 29.4374 26.2155 31.8383C26.9655 32.5608 26.8205 32.4299 27.3363 32.9591C29.7238 35.3208 31.9905 36.6716 34.4705 37.2091C37.8872 37.9416 41.5705 37.2924 44.0205 34.8399C44.3309 34.5303 44.5772 34.1625 44.7452 33.7575C44.9133 33.3525 44.9998 32.9184 44.9998 32.4799C44.9998 32.0415 44.9133 31.6073 44.7452 31.2024C44.5772 30.7974 44.3309 30.4296 44.0205 30.1199L41.6363 27.7399ZM42.8438 33.6666C42.085 34.3969 41.1858 34.9654 40.2007 35.3379C39.2156 35.7103 38.1652 35.8788 37.113 35.8333C33.613 35.8333 30.9897 34.2308 28.5197 31.7883C27.6697 30.9108 27.708 30.9699 27.388 30.6574C25.5334 28.9673 24.2112 26.7735 23.583 24.3441C22.903 21.2016 23.6197 18.2033 25.4997 16.3225C25.6545 16.1669 25.8386 16.0434 26.0413 15.9592C26.2441 15.8749 26.4614 15.8316 26.6809 15.8316C26.9005 15.8316 27.1178 15.8749 27.3205 15.9592C27.5232 16.0434 27.7073 16.1669 27.8622 16.3225L30.2497 18.7066C30.4054 18.8615 30.529 19.0456 30.6133 19.2484C30.6976 19.4512 30.741 19.6687 30.741 19.8883C30.741 20.1079 30.6976 20.3254 30.6133 20.5281C30.529 20.7309 30.4054 20.9151 30.2497 21.0699L28.583 22.7299C28.2669 23.0426 28.0727 23.4578 28.0356 23.9009C27.9985 24.344 28.1208 24.7857 28.3805 25.1466C29.9363 27.3214 31.8396 29.2251 34.0138 30.7816C34.3755 31.0425 34.8185 31.1654 35.2629 31.1279C35.7072 31.0905 36.1235 30.8952 36.4363 30.5774L38.0947 28.9166C38.4082 28.6035 38.8332 28.4277 39.2763 28.4277C39.7194 28.4277 40.1444 28.6035 40.458 28.9166L42.8422 31.3008C42.9984 31.4556 43.1224 31.6398 43.2071 31.8427C43.2917 32.0457 43.3354 32.2634 43.3356 32.4833C43.3357 32.7033 43.2924 32.921 43.208 33.1241C43.1236 33.3272 42.9998 33.5116 42.8438 33.6666Z" fill="#C8242F"/>
<path d="M44.9998 9.16699H21.6665C20.3408 9.16832 19.0698 9.69552 18.1324 10.6329C17.195 11.5703 16.6678 12.8413 16.6665 14.167V19.5003L7.54318 24.3661C7.27777 24.5087 7.05595 24.7205 6.90132 24.979C6.7467 25.2376 6.66504 25.5332 6.66504 25.8345C6.66504 26.1357 6.7467 26.4314 6.90132 26.6899C7.05595 26.9485 7.27777 27.1603 7.54318 27.3028L16.6665 32.167V37.5003C16.6678 38.826 17.195 40.097 18.1324 41.0344C19.0698 41.9718 20.3408 42.499 21.6665 42.5003H44.9998C46.3255 42.499 47.5965 41.9718 48.5339 41.0344C49.4713 40.097 49.9985 38.826 49.9998 37.5003V14.167C49.9985 12.8413 49.4713 11.5703 48.5339 10.6329C47.5965 9.69552 46.3255 9.16832 44.9998 9.16699ZM48.3331 37.5003C48.3331 38.3843 47.9819 39.2322 47.3568 39.8573C46.7317 40.4824 45.8839 40.8336 44.9998 40.8336H21.6665C20.7824 40.8336 19.9346 40.4824 19.3095 39.8573C18.6844 39.2322 18.3332 38.3843 18.3332 37.5003V31.667C18.3331 31.516 18.2921 31.3679 18.2145 31.2385C18.1368 31.109 18.0255 31.0031 17.8923 30.932L8.33318 25.8336L17.8948 20.7336C18.0273 20.6623 18.138 20.5565 18.2151 20.4274C18.2923 20.2983 18.3331 20.1507 18.3332 20.0003V14.167C18.3332 13.2829 18.6844 12.4351 19.3095 11.81C19.9346 11.1848 20.7824 10.8337 21.6665 10.8337H44.9998C45.8839 10.8337 46.7317 11.1848 47.3568 11.81C47.9819 12.4351 48.3331 13.2829 48.3331 14.167V37.5003Z" fill="#C8242F"/>
</svg>
