<svg width="35" height="24" viewBox="0 0 35 24" fill="none" xmlns="http://www.w3.org/2000/svg">
<path d="M30.4119 0H4.5881C2.05822 0 0 2.05822 0 4.5881V18.831C0 21.3608 2.05822 23.4191 4.5881 23.4191H30.4119C32.9418 23.4191 35 21.3608 35 18.831V4.5881C35 2.05822 32.9418 0 30.4119 0ZM32.9463 18.831C32.9463 20.2284 31.8094 21.3654 30.4119 21.3654H4.5881C3.19062 21.3654 2.0537 20.2284 2.0537 18.831V4.5881C2.0537 3.19062 3.19062 2.0537 4.5881 2.0537H30.4119C31.8094 2.0537 32.9463 3.19062 32.9463 4.5881V18.831Z" fill="#C8242F"/>
<path d="M12.6559 11.0837C13.2901 10.408 13.6796 9.50009 13.6796 8.50254C13.6796 6.42037 11.9856 4.72641 9.90351 4.72641C7.82134 4.72641 6.12738 6.42037 6.12738 8.50254C6.12738 9.50016 6.51696 10.408 7.15101 11.0837C5.52626 12.0336 4.43164 13.7957 4.43164 15.8098V17.529C4.43164 18.0961 4.89139 18.5559 5.45849 18.5559H14.3484C14.9155 18.5559 15.3752 18.0961 15.3752 17.529V15.8098C15.3753 13.7957 14.2807 12.0336 12.6559 11.0837ZM9.90351 6.78011C10.8532 6.78011 11.6259 7.55278 11.6259 8.50254C11.6259 9.45224 10.8532 10.2249 9.90351 10.2249C8.95374 10.2249 8.18108 9.45224 8.18108 8.50254C8.18108 7.55278 8.95374 6.78011 9.90351 6.78011ZM13.3216 16.5022H6.48534V15.8098C6.48534 13.9251 8.0187 12.3917 9.90351 12.3917C11.7883 12.3917 13.3216 13.9251 13.3216 15.8098V16.5022Z" fill="#C8242F"/>
<path d="M29.5415 14.7901H19.0171C18.45 14.7901 17.9902 15.2499 17.9902 15.817C17.9902 16.3841 18.45 16.8438 19.0171 16.8438H29.5415C30.1086 16.8438 30.5683 16.3841 30.5683 15.817C30.5683 15.2499 30.1086 14.7901 29.5415 14.7901Z" fill="#C8242F"/>
<path d="M29.5415 10.6827H19.0171C18.45 10.6827 17.9902 11.1425 17.9902 11.7096C17.9902 12.2767 18.45 12.7364 19.0171 12.7364H29.5415C30.1086 12.7364 30.5683 12.2767 30.5683 11.7096C30.5683 11.1424 30.1086 10.6827 29.5415 10.6827Z" fill="#C8242F"/>
<path d="M29.5415 6.57538H19.0171C18.45 6.57538 17.9902 7.03513 17.9902 7.60223C17.9902 8.16932 18.45 8.62908 19.0171 8.62908H29.5415C30.1086 8.62908 30.5683 8.16932 30.5683 7.60223C30.5683 7.03513 30.1086 6.57538 29.5415 6.57538Z" fill="#C8242F"/>
</svg>
