<svg width="34" height="31" viewBox="0 0 34 31" fill="none" xmlns="http://www.w3.org/2000/svg">
<path d="M3.2752 17.1695C2.91362 17.1695 2.62012 17.463 2.62012 17.8246C2.62012 18.1862 2.91362 18.4797 3.2752 18.4797C3.63677 18.4797 3.93028 18.1862 3.93028 17.8246C3.93028 17.463 3.63677 17.1695 3.2752 17.1695Z" fill="#C8242F"/>
<path d="M30.1086 19.4411L23.933 21.5642C23.9603 21.4122 23.9757 21.2571 23.9757 21.0997C23.9757 19.655 22.8004 18.4794 21.3554 18.4794H17.1132C17.0006 18.4794 16.8896 18.4505 16.7916 18.3952L13.3306 16.4487C12.6464 16.063 11.8687 15.8591 11.0819 15.8591H6.43796C6.16774 15.0968 5.43947 14.5492 4.58556 14.5492H0.65508C0.293251 14.5492 0 14.8424 0 15.2043V26.9955C0 27.3573 0.293251 27.6505 0.65508 27.6505H4.58556C5.42002 27.6505 6.13549 27.1262 6.41953 26.3898C7.1611 26.4819 8.0191 26.7012 8.55827 27.0246L11.9841 29.0802C13.282 29.8591 14.768 30.2709 16.2818 30.2709C17.4814 30.2709 18.6437 30.0191 19.7366 29.5226L31.9633 24.139C33.3175 23.5896 33.9861 21.9649 33.2121 20.5329C32.6427 19.4792 31.3093 19.0104 30.1086 19.4411ZM5.24064 25.6884C5.23911 26.0482 4.9456 26.3404 4.58556 26.3404H1.31016V15.8594H4.58556C4.94662 15.8594 5.24064 16.1531 5.24064 16.5144V25.6884ZM31.4656 22.9273C31.4587 22.9299 31.4518 22.9329 31.4449 22.9358C31.4449 22.9358 19.2 28.3274 19.1977 28.3284C18.2752 28.7481 17.2941 28.9607 16.2818 28.9607C15.0054 28.9607 13.7526 28.6137 12.6584 27.9568L9.23228 25.9013C8.4989 25.4614 7.44872 25.1932 6.5508 25.0858V17.1695H11.0819C11.6438 17.1695 12.1991 17.3149 12.6881 17.5905L16.149 19.537C16.4423 19.7023 16.7759 19.7898 17.1132 19.7898H21.3554C22.0777 19.7898 22.6655 20.3774 22.6655 21.1C22.6655 21.8198 22.0775 22.4102 21.3554 22.4102H14.6961C14.3342 22.4102 14.041 22.7034 14.041 23.0652C14.041 23.4268 14.3342 23.7201 14.6961 23.7201H21.3554C21.785 23.7201 22.208 23.6134 22.5834 23.4133C22.5834 23.4133 30.5454 20.6762 30.5485 20.6752C31.1355 20.4633 31.7993 20.6742 32.0595 21.1558C32.4498 21.8777 32.1271 22.6625 31.4656 22.9273Z" fill="#C8242F"/>
<path d="M19.0786 15.8893C19.2019 15.996 19.3547 16.0492 19.5077 16.0492C19.6607 16.0492 19.8137 15.996 19.9368 15.8893C25.2816 11.2571 28.5877 8.91293 28.5877 5.27007C28.5877 2.38823 26.5475 0 23.6813 0C21.7989 0 20.3575 1.08498 19.4291 2.71321C18.5028 1.08856 17.0629 0 15.1778 0C12.9835 0 11.149 1.42199 10.5042 3.62239C10.4023 3.96963 10.6014 4.33351 10.9487 4.43535C11.2959 4.5372 11.6598 4.33812 11.7614 3.99087C12.2386 2.36238 13.5795 1.31016 15.1778 1.31016C17.0465 1.31016 18.3575 2.96961 18.7979 4.51468C18.8764 4.79846 19.1349 4.99499 19.4291 4.99499C19.7237 4.99499 19.9819 4.79846 20.0604 4.51468C20.0694 4.48269 20.9793 1.31016 23.6813 1.31016C25.7315 1.31016 27.2776 3.01235 27.2776 5.27007C27.2776 8.18415 24.429 10.285 19.5072 14.5287C16.5084 11.9534 14.1263 10.1407 12.7724 8.36737C12.5528 8.07975 12.1419 8.02448 11.8543 8.24403C11.5666 8.46359 11.5116 8.87455 11.7309 9.16243C13.2571 11.1612 15.8334 13.0763 19.0786 15.8893Z" fill="#C8242F"/>
<path d="M11.0711 5.77112C10.7095 5.77112 10.416 6.06462 10.416 6.4262C10.416 6.78777 10.7095 7.08128 11.0711 7.08128C11.4327 7.08128 11.7262 6.78777 11.7262 6.4262C11.7262 6.06462 11.4327 5.77112 11.0711 5.77112Z" fill="#C8242F"/>
</svg>
