<svg width="158" height="323" viewBox="0 0 158 323" fill="none" xmlns="http://www.w3.org/2000/svg">
<path d="M3.83849 149.47C3.82355 149.358 3.82355 149.246 3.83849 149.134C3.83849 148.748 3.99129 148.377 4.26358 148.103C4.53589 147.829 4.90558 147.673 5.29201 147.671L24.503 101.31V90.7897C24.2664 90.5253 24.1119 90.1978 24.0581 89.8471C24.0044 89.4964 24.0538 89.1376 24.2002 88.8144C24.3467 88.4913 24.584 88.2177 24.8832 88.027C25.1824 87.8363 25.5306 87.7367 25.8854 87.7403C26.2449 87.7321 26.5988 87.8312 26.9018 88.025L37.971 94.9673L37.4628 74.2113C32.2789 69.4238 26.6681 63.7114 25.1332 60.6823C22.0838 54.6852 22.9173 42.3353 23.2019 40.3532C23.3202 38.7426 23.3202 37.1255 23.2019 35.5149C22.9671 32.8564 23.0695 30.1788 23.5069 27.5459C24.3709 23.8867 27.5727 19.4143 29.3617 17.0968L29.7174 16.619C31.5979 14.0372 33.6511 13.8746 35.4604 13.7221C35.9279 13.7221 36.3955 13.651 36.9342 13.5798L37.6153 13.4884C37.6153 12.3093 37.7677 11.2013 37.8592 10.5C37.5722 9.60352 37.398 8.67477 37.3408 7.73522C37.3322 7.55204 37.3598 7.36897 37.4221 7.1965C37.378 7.06186 37.354 6.92142 37.351 6.77975C37.3399 6.33988 37.4719 5.90831 37.7271 5.54984C37.4567 5.26742 37.2447 4.93436 37.1034 4.56979C36.9622 4.20522 36.8943 3.81633 36.9037 3.42545C36.9037 1.39254 38.4691 0 40.7968 0C43.1244 0 44.6898 1.38238 44.6898 3.42545C44.7006 3.81563 44.6343 4.2041 44.4948 4.56864C44.3553 4.93317 44.1452 5.2666 43.8766 5.54984C44.1282 5.90955 44.2566 6.34103 44.2425 6.77975C44.243 6.92092 44.2225 7.06138 44.1816 7.1965C44.2439 7.36897 44.2715 7.55204 44.2629 7.73522C44.167 8.68014 43.9518 9.60911 43.6225 10.5C43.6835 10.9574 43.7546 11.6079 43.8055 12.3194C44.2364 12.258 44.6712 12.2274 45.1065 12.2279C49.0199 12.2279 50.4734 14.4133 50.5242 16.2938C50.5096 17.0387 50.3175 17.7694 49.964 18.4252C49.6104 19.0811 49.1056 19.6431 48.4913 20.0648C48.4438 20.2929 48.3793 20.5172 48.2982 20.7357C48.6213 21.4162 48.7581 22.1703 48.6946 22.921C48.6306 23.5485 48.433 24.155 48.1152 24.6998C48.348 25.8053 48.1824 26.9574 47.6477 27.9525C47.7135 28.3598 47.7135 28.7751 47.6477 29.1824C47.5136 30.0586 47.0853 30.8632 46.4331 31.4636C45.781 32.064 44.9439 32.4245 44.0596 32.4859C44.0596 32.9738 44.0596 33.5023 44.0596 33.9597C44.0596 36.3687 43.7445 39.7434 43.5818 41.4815C43.9013 42.1098 44.0519 42.8103 44.0189 43.5144C44.008 43.8642 43.9321 44.2088 43.7953 44.5309C44.1498 45.5925 44.3284 46.7049 44.3239 47.8242L44.1206 57.1959C47.1699 59.9403 52.4047 64.0875 53.7159 64.6872C54.869 65.0798 56.052 65.379 57.2532 65.5816C59.695 66.0247 62.0979 66.6603 64.4395 67.4824C66.7924 68.3457 68.9665 69.6343 70.8533 71.284L71.3819 71.2128L72.2662 71.1112C72.7071 70.7336 73.1214 70.326 73.5063 69.8914C73.9544 69.4141 74.3002 68.8503 74.5227 68.2346C74.7695 67.6475 74.8436 67.0022 74.7362 66.3745C74.6042 65.7306 74.6042 65.0667 74.7362 64.4229C74.8353 64.0788 75.0332 63.7713 75.3054 63.5386C75.2342 63.3658 75.1631 63.193 75.0919 62.9998C74.0429 60.1517 73.2337 57.2209 72.6728 54.238C71.9891 53.8421 71.4031 53.2977 70.958 52.645C70.5129 51.9923 70.2201 51.248 70.1012 50.467C69.7596 49.254 69.8022 47.965 70.2231 46.7772C69.5374 45.9953 69.0556 45.056 68.8204 44.043C68.7112 43.6176 68.5649 43.2027 68.3833 42.8029C67.9284 42.0208 67.7474 41.1093 67.8689 40.2127C67.9904 39.316 68.4075 38.4856 69.0542 37.8528C69.0612 36.8533 69.4213 35.8885 70.0707 35.1287C69.3998 33.2279 69.4506 31.3068 71.4124 28.542C71.8987 27.7642 72.5377 27.0929 73.2906 26.5688C74.0436 26.0447 74.8949 25.6786 75.7933 25.4927C76.0591 25.4279 76.3205 25.3465 76.576 25.2487C76.8313 24.999 77.0595 24.723 77.257 24.4254C77.9896 23.3166 78.9939 22.4138 80.1742 21.8029C81.4624 21.28 82.8529 21.0575 84.24 21.1524C85.4452 21.2004 86.6508 21.0702 87.818 20.7662C88.5792 20.5315 89.3695 20.4049 90.166 20.3901C92.4157 20.488 94.5792 21.2837 96.3562 22.6669L96.7018 22.9007C96.9457 22.9617 97.4234 23.0227 97.7792 23.0735C100.442 23.4496 105.982 24.2323 107.12 29.9549C107.527 31.9878 107.934 32.4757 108.432 33.0043C109.513 34.1171 110.223 35.5374 110.465 37.0701C110.668 37.9004 110.696 38.7638 110.547 39.6056C110.398 40.4473 110.076 41.2488 109.601 41.9592C109.451 42.1753 109.284 42.3793 109.103 42.5691C109.444 43.3783 109.677 44.2295 109.794 45.1001C109.965 46.2676 109.693 47.4568 109.031 48.4341C109.895 51.5749 107.405 55.6407 106.551 56.9011C106.358 57.1959 106.155 57.4703 105.962 57.7346C106.41 58.4085 106.614 59.2155 106.541 60.0216C106.335 60.9397 105.897 61.7898 105.27 62.4916C104.986 62.8432 104.754 63.2334 104.579 63.6504C104.441 64.0797 104.399 64.5345 104.457 64.9819C104.604 65.9795 104.988 66.9275 105.575 67.7467C106.101 68.5219 106.576 69.33 106.998 70.1658C107.214 70.5721 107.391 70.9974 107.527 71.4364C107.587 71.7145 107.628 71.9964 107.649 72.2801C107.758 72.8138 107.921 73.3349 108.137 73.8353C108.315 74.282 108.593 74.6819 108.95 75.0042C109.333 75.2942 109.763 75.5176 110.221 75.6649C110.764 75.8429 111.255 76.1498 111.654 76.5593C111.986 76.9824 112.225 77.4708 112.355 77.9925C112.472 78.4162 112.629 78.828 112.823 79.2225C117.045 80.4309 120.786 82.925 123.526 86.358C126.291 89.8342 128.181 97.0002 129.696 102.753C130.245 104.786 130.763 106.819 131.129 107.764C133.929 114.423 137.193 120.876 140.897 127.077C144.963 133.765 150.228 147.62 151.336 152.783C151.397 153.037 151.458 153.292 151.529 153.556C151.928 153.309 152.383 153.169 152.851 153.149C153.739 153.147 154.601 153.452 155.29 154.013C158.187 156.046 156.418 160.508 155.29 162.938C156.032 164.414 156.468 166.025 156.571 167.674C156.578 168.764 156.673 169.852 156.856 170.927C157.078 172.306 157.211 173.698 157.252 175.094C157.252 178.794 155.432 181.407 153.359 183.968C152.673 184.844 151.797 185.551 150.796 186.038C149.796 186.524 148.698 186.775 147.585 186.774C147.335 186.791 147.084 186.791 146.833 186.774C146.478 188.003 145.959 189.742 145.532 191.032C145.736 191.236 146.04 191.51 146.274 191.713C147.169 192.402 147.922 193.258 148.49 194.234C148.818 194.872 148.933 195.599 148.817 196.307C148.702 197.015 148.363 197.667 147.85 198.168C147.738 198.292 147.636 198.425 147.545 198.564C147.399 198.805 147.193 199.004 146.947 199.141C146.701 199.278 146.424 199.349 146.142 199.347C145.23 199.211 144.376 198.816 143.682 198.209L117.742 271.8C117.935 273.172 118.078 274.697 118.149 276.435C118.484 284.638 116.716 287.616 114.906 289.537C116.561 290.763 118.45 291.635 120.456 292.099C121.14 292.205 121.78 292.5 122.304 292.951C122.829 293.402 123.217 293.99 123.424 294.65C123.683 295.629 123.608 296.666 123.211 297.598C123.945 297.495 124.685 297.441 125.427 297.435C126.511 297.429 127.59 297.583 128.629 297.892C131.444 298.756 132.186 300.728 131.963 302.283C131.302 306.674 123.292 308.23 116.634 308.23C115.526 308.23 114.378 308.23 113.219 308.108C108.137 307.762 105.169 306.695 103.471 304.642C101.774 302.588 102.008 300.047 102.201 298.411C102.201 298.248 102.201 298.065 102.201 297.882L101.977 297.099C101.911 296.867 101.911 296.621 101.977 296.388L101.794 296.164H101.733C101.436 299.72 101.648 303.3 102.363 306.796C103.197 310.537 103.085 317.225 100.727 320.061C99.8121 321.149 98.0333 322.46 94.7095 322.46C93.3857 322.444 92.0685 322.27 90.786 321.942C86.7202 320.925 87.3199 316.941 87.5435 315.436C87.6335 314.884 87.6945 314.328 87.7265 313.769C87.7265 313.241 87.7265 312.672 87.7265 312.062C87.6609 308.651 87.9642 305.243 88.6311 301.897C89.3325 298.461 89.983 293.328 90.3388 290.31C89.5005 290.331 88.6649 290.413 87.8383 290.554C86.4645 290.899 85.1816 291.537 84.0774 292.424C82.5832 293.44 80.8857 294.599 78.7613 294.599C77.4221 294.584 76.1226 294.142 75.0513 293.339C74.1771 292.719 73.4249 292.129 72.7744 291.59C72.1036 292.841 71.3209 294.081 70.589 295.239L69.8674 296.378C67.8344 299.641 63.4739 301.165 61.1462 301.165H60.8311C58.2188 301.003 56.3384 299.132 55.7488 296.266C55.6933 295.982 55.6046 295.706 55.4845 295.443C55.1944 294.828 55.0305 294.161 55.0026 293.482C54.9746 292.803 55.0832 292.125 55.3219 291.489C55.8403 289.994 57.2023 288.917 58.788 287.667C59.557 287.105 60.2686 286.468 60.9124 285.766C61.6341 284.577 63.6467 277.584 64.1346 274.839C64.2887 273.347 64.196 271.839 63.8601 270.377C63.6772 269.259 63.4637 267.876 63.2807 266.189C63.0041 263.78 62.8615 261.357 62.8538 258.932C59.2149 258.667 53.1873 257.295 50.7479 251.318C49.6602 248.665 47.6985 246.795 45.8181 244.986C43.3176 242.587 40.4715 239.904 40.8577 235.634C41.3558 230.115 45.503 223.122 49.4366 223.122C49.6549 223.122 49.8727 223.142 50.0872 223.183C51.6947 223.651 53.1986 224.42 54.5189 225.45C54.9152 225.024 55.1922 224.502 55.3219 223.935C55.6291 221.6 55.7819 219.247 55.7793 216.891C55.9623 211.25 56.1859 204.246 57.6292 199.784C58.5568 196.897 59.03 193.882 59.032 190.85C59.0779 188.705 59.2612 186.566 59.5808 184.446C59.7993 182.794 59.9181 181.131 59.9366 179.465C58.3713 179.465 56.6941 179.536 54.8543 179.536C43.8563 179.536 38.2251 178.703 35.3994 176.65C33.1225 174.993 32.2077 174.251 32.2077 172.35C32.2077 170.663 33.8239 170.226 35.3486 170.063C35.338 169.951 35.338 169.839 35.3486 169.728C35.3486 169.342 35.5017 168.972 35.7743 168.7C36.0469 168.427 36.4166 168.274 36.8021 168.274L41.5388 156.849C38.3979 158.364 32.8989 158.994 23.3646 158.994C12.3767 158.994 6.74553 158.15 3.91978 156.097C1.64293 154.45 0.717972 153.698 0.717972 151.797C0.717972 150.069 2.31381 149.622 3.83849 149.47ZM74.9191 279.545L76.3015 275.815L74.4109 286.813C75.2546 286.874 76.5048 287.148 78.0905 287.362C78.0905 287.209 78.0905 287.067 78.0905 286.894C78.0905 286.447 78.0905 285.878 78.0905 285.349C78.0905 284.821 78.2023 284.18 78.2734 283.57C78.3446 282.961 78.5072 282.391 78.6394 281.832C78.7667 281.33 78.9193 280.835 79.0968 280.348C79.2391 279.921 79.422 279.576 79.5237 279.332L79.7066 278.956C79.7066 278.956 79.7066 279.108 79.7066 279.373C79.7066 279.637 79.7066 280.023 79.6152 280.47C79.5237 280.918 79.5237 281.436 79.4322 281.985C79.3407 282.534 79.2594 283.123 79.1882 283.713C79.1171 284.302 78.985 284.882 78.8935 285.441C78.802 286 78.68 286.457 78.6089 286.945C78.6089 287.108 78.5377 287.26 78.5072 287.402C79.7274 287.556 80.9574 287.618 82.1868 287.585C82.3673 285.482 82.6557 283.388 83.0508 281.314C83.6293 278.281 84.4172 275.293 85.409 272.369C85.1623 275.412 85.1283 278.469 85.3073 281.517C85.4191 283.55 85.6834 285.583 85.9273 287.169C87.387 286.829 88.8075 286.338 90.166 285.705C90.0541 283.194 89.983 279.789 90.166 276.394C90.3951 271.975 90.9078 267.575 91.7008 263.221C91.3896 267.589 91.3556 271.972 91.5992 276.343C91.5992 277.472 91.7415 278.6 91.8431 279.688C91.8431 278.387 91.7923 277.055 91.8431 275.713C91.9041 273.579 92.0261 271.414 92.2294 269.238C92.4326 267.063 92.7986 264.919 93.2458 262.794C93.6821 260.7 94.3327 258.656 95.1872 256.695C96.0327 254.86 97.1273 253.15 98.4399 251.613C99.5784 250.27 100.79 248.991 102.069 247.781C103.938 246.017 105.69 244.132 107.314 242.14C107.893 241.408 108.33 240.829 108.635 240.412L109.103 239.792L108.767 240.493C108.564 240.961 108.228 241.621 107.751 242.445C106.85 244.037 105.831 245.559 104.701 246.998C105.488 246.349 106.238 245.657 106.948 244.925C107.726 244.101 108.443 243.221 109.092 242.292C109.529 241.652 109.916 241.022 110.271 240.402C110.973 234.598 113.321 227.523 115.191 224.311C117.641 220.103 122.245 201.593 121.757 190.341C121.605 186.926 121.32 183.887 120.965 181.092C120.904 181.529 120.843 181.966 120.782 182.433C120.609 183.246 120.466 184.09 120.263 184.944C120.06 185.798 119.846 186.662 119.531 187.526C118.967 189.317 118.26 191.061 117.417 192.74C116.555 194.447 115.602 196.106 114.561 197.711C113.494 199.306 112.386 200.841 111.339 202.356C110.292 203.87 109.306 205.354 108.289 206.818C106.551 209.461 105.025 212.238 103.725 215.122C102.823 217.186 102.119 219.33 101.621 221.526C101.428 222.319 101.337 222.959 101.266 223.396L101.154 224.077C101.154 224.077 101.154 223.833 101.154 223.396C101.114 222.75 101.114 222.101 101.154 221.455C101.234 219.124 101.62 216.814 102.302 214.584C103.279 211.435 104.616 208.41 106.287 205.568C107.181 204.013 108.127 202.407 109.174 200.862C110.221 199.317 111.298 197.751 112.294 196.186C113.326 194.673 114.276 193.105 115.14 191.49C115.963 189.935 116.692 188.333 117.326 186.692C117.651 185.899 117.875 185.086 118.169 184.304C118.464 183.521 118.627 182.728 118.85 181.966L119.379 179.709C119.521 178.977 119.663 178.266 119.796 177.575C119.928 176.883 120.06 175.938 120.162 175.186C119.501 171.242 118.769 167.613 118.21 163.781C117.275 157.296 113.849 145.77 111.857 140.128C109.418 141.917 104.183 142.944 96.224 143.178C95.1059 143.178 94.0183 143.229 92.9409 143.229C85.1425 143.327 77.3678 142.349 69.8369 140.322C70.5281 140.647 71.2599 140.962 72.0121 141.257C74.2729 142.133 76.6061 142.81 78.985 143.279C76.5365 143.267 74.0941 143.036 71.6868 142.588C70.3134 142.327 68.9559 141.987 67.621 141.572C67.3059 144.235 67.0416 147.203 66.8282 150.191L72.9269 168.213C73.123 168.229 73.314 168.284 73.4886 168.375C73.6631 168.465 73.8178 168.59 73.9433 168.742C73.5368 167.725 73.1302 166.709 72.7439 165.692C71.8088 162.968 70.9651 160.203 70.2841 157.561C69.6031 154.918 69.1355 152.478 68.7899 150.323C68.5968 149.307 68.4748 148.291 68.3732 147.406C68.2715 146.522 68.18 145.78 68.1292 145.15L67.9564 143.178C67.9564 143.178 68.0886 143.889 68.302 145.129C68.3935 145.749 68.546 146.502 68.7188 147.355C68.8916 148.209 69.0745 149.175 69.2981 150.232C69.7149 152.336 70.3756 154.755 71.0566 157.347C71.7376 159.939 72.6423 162.663 73.6181 165.347C74.1975 166.973 74.8073 168.579 75.4477 170.134C76.576 170.409 77.4806 170.968 77.4806 172.248C77.5021 172.854 77.3617 173.454 77.074 173.987C78.0397 176.111 78.9646 178.052 79.8591 179.76C80.347 180.726 80.8146 181.59 81.2415 182.352C81.6684 183.114 82.014 183.795 82.3393 184.334L83.3557 186.052C83.3557 186.052 82.939 185.462 82.2275 184.426C81.8717 183.907 81.4549 183.267 80.9772 182.535C80.4995 181.803 79.9608 180.949 79.4525 180.014C78.5377 178.459 77.5619 176.65 76.5861 174.688C75.8906 175.378 75.1317 176 74.3194 176.548C73.9984 176.785 73.6584 176.996 73.303 177.178L73.364 177.29C73.8824 178.306 74.4922 179.374 75.0716 180.411C75.651 181.447 76.2507 182.443 76.9012 183.46C77.5518 184.476 78.1413 185.432 78.7613 186.367C79.3814 187.302 79.9811 188.197 80.6011 189.03C81.2212 189.864 81.7599 190.667 82.3088 191.378L86.0087 196.227C86.0087 196.227 85.4903 195.901 84.6059 195.271C84.1587 194.976 83.6403 194.57 83.0508 194.092C82.4612 193.614 81.8107 193.076 81.1398 192.445C80.469 191.815 79.727 191.114 79.0053 190.331C78.2836 189.548 77.5416 188.705 76.7996 187.8C76.0576 186.895 75.3257 185.95 74.665 184.913C74.0043 183.877 73.3335 182.88 72.6829 181.783C72.0324 180.685 71.4937 179.597 70.9855 178.479C70.9218 178.364 70.8641 178.245 70.8127 178.123C69.0494 178.578 67.2505 178.881 65.4356 179.028C65.029 193.391 65.8219 197.67 65.4356 205.009C65.1713 210.294 67.5397 217.206 68.1394 220.723C68.8673 221.204 69.6206 221.645 70.3959 222.044C71.5648 222.675 72.7948 223.274 74.0145 223.915C75.2378 224.547 76.4072 225.277 77.5111 226.1C78.2303 226.64 78.9097 227.231 79.544 227.869C80.748 228.726 81.8557 229.711 82.8475 230.806C83.2908 231.313 83.6983 231.849 84.0672 232.412C84.4357 232.988 84.775 233.581 85.0837 234.191C85.3698 234.835 85.6142 235.498 85.8155 236.173C86.0055 236.841 86.1549 237.52 86.2628 238.206C86.713 240.991 86.846 243.818 86.6592 246.633C86.4683 249.546 85.943 252.428 85.0939 255.222C84.6565 256.669 84.0671 258.066 83.3354 259.389C82.573 260.7 81.7091 261.859 80.9162 262.977C79.3424 265.064 78.06 267.355 77.1045 269.787C76.6699 270.951 76.33 272.147 76.0881 273.365C75.8441 274.616 75.6002 275.835 75.3664 277.014C75.2444 277.909 75.0716 278.732 74.9191 279.545ZM146.356 197.863C146.864 197.019 148.012 196.399 147.24 194.814C146.732 193.736 145.207 192.669 144.445 191.866L144.394 191.927C144.176 191.622 143.899 191.362 143.581 191.165C143.232 190.914 142.865 190.689 142.483 190.494C142.926 190.464 143.371 190.464 143.814 190.494C143.951 190.501 144.087 190.518 144.221 190.545C144.943 188.369 145.939 184.873 145.939 184.873C145.684 184.582 145.401 184.316 145.095 184.08L142.483 187.414L142.574 185.859L140.663 188.674L141.08 185.239C140.633 186.316 140.064 187.8 139.484 189.304L139.606 189.365C140.206 189.67 140.745 190.026 140.745 190.026C140.318 190.003 139.891 190.003 139.464 190.026C139.065 190.037 138.669 190.099 138.285 190.209V190.118C136.659 190.412 133.924 189.965 133.68 191.348C133.542 192.308 133.542 193.284 133.68 194.244C134.373 194.129 135.072 194.064 135.774 194.051C134.758 193.879 133.985 193.736 133.985 193.736C134.621 193.392 135.307 193.152 136.018 193.025C137.147 192.792 138.309 192.775 139.444 192.974C139.883 193.053 140.315 193.169 140.735 193.319L141.019 193.421L141.192 193.482L141.334 193.553L141.914 193.828C142.264 194.019 142.603 194.229 142.93 194.458C143.538 194.856 144.1 195.32 144.607 195.84C145.116 196.334 145.551 196.899 145.898 197.517L144.018 196.674L143.499 196.44C144.284 197.08 145.166 197.591 146.112 197.954C146.157 197.967 146.205 197.964 146.248 197.948C146.292 197.932 146.33 197.902 146.356 197.863ZM127.043 103.333L126.962 103.536C126.363 104.531 125.608 105.424 124.725 106.179C123.681 107.025 122.516 107.71 121.269 108.212C120.008 108.618 118.7 108.864 117.376 108.944C116.797 108.944 116.228 108.944 115.699 108.862L115.923 109.116C116.299 109.564 116.726 110.062 117.163 110.621C116.95 110.621 116.736 110.712 116.533 110.733C116.065 110.804 115.659 110.905 115.384 110.936L114.937 111.007L115.374 111.109C115.766 111.189 116.164 111.236 116.563 111.251C117.128 111.3 117.696 111.3 118.261 111.251C118.908 111.155 119.549 111.023 120.182 110.855L121.107 110.509H121.259C122.073 110.265 122.855 109.924 123.587 109.492C124.268 109.162 124.912 108.759 125.508 108.293C125.98 107.993 126.426 107.653 126.84 107.277C127.165 107.022 127.348 106.86 127.348 106.86C127.348 106.86 127.277 107.083 127.124 107.49C126.868 108.026 126.573 108.543 126.24 109.035C125.699 109.67 125.092 110.245 124.431 110.753C123.622 111.328 122.744 111.799 121.818 112.156C120.87 112.422 119.895 112.579 118.911 112.623H118.627C118.82 112.887 119.013 113.162 119.206 113.457C118.978 113.506 118.747 113.544 118.515 113.568C118.159 113.568 117.854 113.69 117.641 113.701L117.305 113.762L117.61 113.802C117.899 113.894 118.195 113.962 118.495 114.006C118.918 114.068 119.347 114.092 119.775 114.077C120.266 114.04 120.755 113.976 121.239 113.884C121.713 113.745 122.178 113.579 122.632 113.385C123.023 113.203 123.397 112.985 123.75 112.735L123.861 112.674C124.682 112.282 125.433 111.76 126.087 111.129C126.727 110.599 127.294 109.987 127.775 109.31C128.015 109.015 128.233 108.702 128.425 108.374C128.029 107.226 127.551 105.406 126.992 103.292L127.043 103.333ZM109.906 81.3468C106.307 80.4625 101.388 76.1324 98.0841 74.5163L97.6979 67.1978C94.5241 69.7842 90.5284 71.1474 86.4356 71.04C85.7974 71.0347 85.161 70.9701 84.5348 70.8469C84.2616 74.1083 84.282 77.3877 84.5958 80.6455C83.1986 79.5394 81.8713 78.3479 80.6215 77.0777C78.5072 74.6586 75.2647 77.5555 72.1646 76.3256C71.0455 75.9522 70.0693 75.2422 69.3693 74.2927C69.5116 74.7602 69.6641 75.2481 69.847 75.7665C70.4864 77.7385 71.3278 79.6392 72.3577 81.4383C73.4848 83.5202 74.8161 85.4849 76.332 87.3033C77.7899 89.1821 79.3941 90.9427 81.1297 92.5685C82.491 93.9579 83.9555 95.2423 85.5106 96.4107H85.7952C86.1331 96.2098 86.4951 96.0527 86.8727 95.9431C87.3515 95.877 87.8372 95.877 88.316 95.9431C88.781 96.0892 89.2226 96.3015 89.6272 96.5733C89.9334 96.8564 90.2063 97.1736 90.4404 97.5186C90.5259 97.7097 90.5972 97.9067 90.6539 98.1082C91.0924 97.9921 91.5235 97.8495 91.9448 97.6813C93.5712 97.1042 95.1401 96.376 96.6306 95.5061C98.3406 94.5531 99.9542 93.4365 101.449 92.1721C103 90.9579 104.429 89.5962 105.718 88.1063C106.891 86.843 107.955 85.4829 108.899 84.0405C109.474 83.2213 110.007 82.3731 110.495 81.4993L109.906 81.3468ZM101.276 69.7186C101.363 68.9859 101.363 68.2456 101.276 67.5129C101.205 66.8689 101.076 66.2326 100.89 65.6121L100.768 65.2665C100.646 65.4495 100.513 65.6223 100.402 65.7748L100.778 72.8899C101.032 73.0322 101.286 73.205 101.54 73.3677C101.377 72.9724 101.278 72.5539 101.245 72.1276C101.208 71.3247 101.218 70.5203 101.276 69.7186ZM95.3397 41.634C93.5304 41.1461 93.4288 39.4893 93.3678 38.5033C93.2966 37.2835 93.2763 37.1921 92.4022 37.2327C91.4404 37.288 90.4849 37.424 89.5459 37.6393C88.324 38.0183 87.0101 37.9753 85.8155 37.5173C84.5856 37.0498 84.2299 37.2124 82.2681 38.3102C81.7802 38.5846 81.2516 38.9099 80.53 39.2656C79.1051 39.9886 77.5076 40.3017 75.9153 40.1703C75.6917 40.1703 75.3969 40.1703 75.2139 40.1703C75.2193 40.4831 75.243 40.7954 75.2851 41.1054C75.3969 41.5933 75.4985 42.1829 75.59 42.8639C75.59 43.0468 75.59 43.2501 75.59 43.4433C75.6604 43.3867 75.7352 43.3357 75.8136 43.2908C76.3972 42.9425 77.037 42.6983 77.7042 42.5691C79.1578 42.3353 80.7536 42.2845 82.4714 42.1524C84.1892 42.0202 86.0696 42.1524 87.9298 42.1524C89.7899 42.1524 91.65 42.5386 93.378 42.8537C94.9394 43.1881 96.4802 43.6123 97.9927 44.1243C99.0091 44.5004 99.7918 44.8663 100.452 45.1407C100.361 44.9247 100.223 44.732 100.047 44.5771C99.8707 44.4222 99.6619 44.3091 99.436 44.2463C98.6624 43.9358 97.9679 43.4566 97.4031 42.8436C96.8502 42.245 96.1321 41.8241 95.3397 41.634ZM75.5392 65.0124C75.5647 65.371 75.6725 65.7188 75.8543 66.0289C76.086 66.4392 76.3405 66.8363 76.6166 67.2181C76.8813 67.676 77.0701 68.1738 77.1757 68.692C77.2365 69.0486 77.2365 69.4129 77.1757 69.7694C77.6432 69.5865 78.0905 69.434 78.4971 69.3019V68.9969C77.3008 67.5991 76.3209 66.0299 75.59 64.3416C75.5293 64.5597 75.512 64.7876 75.5392 65.0124ZM102.069 47.9868C101.503 47.3194 101.049 46.5641 100.727 45.7506C99.9747 45.5575 98.9685 45.3135 97.7487 45.1102C96.2324 44.7883 94.6982 44.5574 93.1543 44.4191C91.4772 44.1954 89.6679 44.0531 87.8586 43.982C86.5271 43.8702 85.2057 43.8092 83.9046 43.7685L85.4699 44.1548C86.7019 44.5251 87.9542 44.8237 89.2207 45.0493C90.3248 45.2993 91.4409 45.4927 92.5648 45.6286C93.5812 45.8014 94.3842 45.9031 94.9738 45.9641L95.9089 46.0962L94.984 46.3198C94.4046 46.4215 93.5508 46.5536 92.5241 46.6553C91.3492 46.7153 90.172 46.7153 88.997 46.6553C87.6488 46.5052 86.3112 46.271 84.9922 45.9539C83.681 45.5575 82.4206 45.1204 81.2415 44.8358C80.1852 44.4775 79.083 44.2722 77.9685 44.2259C77.1856 44.153 76.396 44.2079 75.6307 44.3886C75.6307 44.9883 75.6307 45.6185 75.6307 46.269C75.6307 46.9195 75.4985 47.5294 75.4375 48.1799C75.4328 48.2 75.4328 48.2209 75.4375 48.2409H75.9864C76.5498 47.9445 77.1341 47.6897 77.7347 47.4786C78.7385 47.1163 79.7776 46.8607 80.8349 46.7162C82.0597 46.5794 83.2932 46.5352 84.5246 46.5841C85.7448 46.6674 86.9595 46.8167 88.1635 47.0313C89.302 47.2245 90.3489 47.4786 91.2129 47.6209C92.0769 47.7632 92.8697 47.9055 93.4084 47.9462C93.9472 47.9868 94.2623 48.0173 94.2623 48.0173C94.2623 48.0173 93.9573 48.0173 93.4084 48.119C92.6571 48.1673 91.9033 48.1673 91.1519 48.119C90.2168 48.0478 89.119 47.9563 87.9907 47.7937C86.8078 47.6281 85.6169 47.5263 84.423 47.4888C83.2389 47.3972 82.0495 47.3972 80.8654 47.4888C79.8393 47.5731 78.8203 47.7294 77.816 47.9563L77.0029 48.1596C77.7144 48.1596 78.5072 48.1596 79.3001 48.1596C80.9358 48.2441 82.5613 48.4685 84.1587 48.8305C82.8375 48.9167 81.5235 49.0899 80.225 49.3489C82.2579 49.4302 84.2909 49.6436 86.4254 49.8876H86.5779C87.5943 49.8876 88.6718 49.8876 89.7391 49.8876C91.0096 49.8876 92.27 49.8063 93.4491 49.6945C94.6282 49.5826 95.7361 49.5013 96.6713 49.359C97.6064 49.2167 98.4094 49.1456 98.9583 49.0541L99.8324 48.9321L98.9989 49.2269C98.4704 49.3895 97.7081 49.6538 96.7627 49.8673C95.6964 50.1278 94.6176 50.3348 93.5304 50.4873C92.8291 50.5788 92.0769 50.6398 91.3247 50.7007C91.9956 50.8126 92.6563 50.9142 93.2865 50.9955C95.1816 51.3791 97.1343 51.3791 99.0294 50.9955C100.366 50.6631 101.604 50.0147 102.638 49.1049L103.024 48.8406C102.662 48.6083 102.34 48.3201 102.069 47.9868ZM89.7492 97.6609C89.5797 97.411 89.3662 97.1941 89.119 97.0206C88.8365 96.8059 88.5133 96.6511 88.1691 96.5655C87.8248 96.4798 87.4667 96.4652 87.1166 96.5225C86.8175 96.5724 86.5289 96.672 86.2628 96.8173C86.0786 96.9249 85.9109 97.0584 85.7647 97.2137L85.6224 97.3967H85.8562C85.9883 97.3967 86.2018 97.3967 86.4152 97.3458C86.6657 97.3306 86.9169 97.3306 87.1674 97.3458C87.4355 97.3558 87.7016 97.3967 87.9603 97.4678C88.2284 97.5105 88.4887 97.5927 88.7328 97.7118C88.966 97.8027 89.1935 97.908 89.4138 98.0269C89.5967 98.1488 89.7899 98.2302 89.9017 98.3216L90.0948 98.4436V98.22C90.0075 98.0178 89.8911 97.8294 89.7492 97.6609ZM91.9041 100.253C91.2332 100.111 90.5929 99.9886 89.983 99.8463C89.983 100.7 89.983 101.818 90.1456 103.15C90.1456 103.668 90.2473 104.227 90.3184 104.807C90.5821 105.073 90.8604 105.324 91.1519 105.559C91.9601 106.251 92.8352 106.86 93.7642 107.378C94.6892 108.008 95.665 108.618 96.5696 109.259C97.3725 109.893 98.1174 110.597 98.7957 111.363C99.2394 111.939 99.6114 112.567 99.9036 113.233C99.9959 113.489 100.074 113.751 100.137 114.016C99.9719 113.807 99.7919 113.61 99.5987 113.426C99.1492 112.922 98.6368 112.478 98.074 112.105C97.325 111.529 96.5255 111.022 95.6853 110.59C94.801 110.052 93.7947 109.574 92.7782 108.933C92.0491 108.445 91.353 107.908 90.6945 107.327C91.0812 109.524 91.7084 111.672 92.5648 113.731C93.3224 115.518 94.351 117.177 95.6142 118.651C96.752 119.918 98.0585 121.022 99.497 121.934C100.545 122.597 101.647 123.171 102.79 123.652C103.624 123.997 104.122 124.15 104.122 124.15C104.122 124.15 103.603 124.068 102.719 123.845C101.493 123.526 100.296 123.105 99.1413 122.584C97.4738 121.846 95.92 120.874 94.5266 119.698C92.9314 118.283 91.5605 116.635 90.4607 114.809C88.8348 112.059 87.5901 109.101 86.7608 106.016C85.564 108.496 83.9322 110.74 81.9428 112.643C79.1198 115.307 75.4408 116.878 71.5648 117.075C70.3353 117.117 69.1056 117.001 67.9056 116.73C67.0416 116.536 66.5741 116.384 66.5741 116.384C66.5741 116.384 67.0619 116.465 67.9361 116.537C69.1211 116.63 70.3132 116.572 71.4835 116.364C73.1088 116.071 74.6684 115.49 76.0881 114.646C77.6914 113.72 79.1108 112.507 80.2759 111.068C81.9679 108.868 83.2112 106.357 83.9351 103.678C83.1902 104.25 82.3979 104.756 81.5668 105.193C79.8464 106.102 77.9889 106.724 76.0677 107.033C75.4483 107.131 74.824 107.196 74.1975 107.226H73.4859L74.1771 107.083C74.7711 106.989 75.3585 106.857 75.9356 106.687C77.6879 106.104 79.3301 105.231 80.7943 104.105C82.2187 103.031 83.4376 101.709 84.3925 100.202L84.5856 99.887C82.42 100.026 80.2485 100.049 78.0803 99.9581L68.7391 99.6735L78.0397 98.5554C79.2391 98.4131 80.4283 98.2607 81.5261 98.0879C78.3844 97.2583 75.3413 96.0928 72.4492 94.6116C70.8918 93.7829 69.4267 92.7914 68.0784 91.6537C66.082 89.9596 64.441 87.8868 63.2502 85.555C62.9046 84.8638 62.742 84.4572 62.742 84.4572C62.742 84.4572 62.9453 84.8435 63.3519 85.4736C63.9226 86.3643 64.5687 87.2043 65.2831 87.9843C66.2772 89.0921 67.3959 90.0812 68.6171 90.932C70.0022 91.894 71.4883 92.7018 73.0489 93.341C74.1282 93.784 75.231 94.1674 76.3523 94.4896C72.6562 92.2951 69.2975 89.5766 66.3809 86.419C65.0494 84.9756 64.2565 83.9388 64.2565 83.9388C64.2565 83.9388 65.1815 84.8638 66.6859 86.1039C68.5084 87.6125 70.4493 88.9722 72.4898 90.1697C73.7197 90.8914 74.97 91.5317 76.1592 92.0806C74.2381 90.4949 72.6118 89.1329 71.2091 88.0148C65.8219 83.4814 63.7991 81.7941 60.0281 80.056C59.7333 79.9238 59.4589 79.812 59.1844 79.7104C59.032 79.9137 58.8897 80.1068 58.727 80.2897C57.992 81.0847 57.1664 81.7908 56.2672 82.3938H56.2062L56.4197 82.6073C57.5821 83.8685 58.5484 85.2974 59.2861 86.8459C59.469 87.2728 59.6622 87.7505 59.7943 88.1774L59.9569 88.6857L60.1297 89.326C60.3432 90.1493 60.4957 90.9015 60.638 91.6537C60.9327 93.4528 61.136 95.0893 61.4105 96.5835C61.5426 96.8071 61.6646 97.0409 61.8069 97.2544C62.5202 98.5742 63.3323 99.8382 64.2362 101.036C64.9861 102.112 65.8151 103.131 66.7164 104.085C67.348 104.807 68.0271 105.486 68.7493 106.118C69.2473 106.596 69.5523 106.85 69.5523 106.85C69.5523 106.85 69.1863 106.707 68.5358 106.413C67.6735 105.959 66.8417 105.45 66.0455 104.888C65.2246 104.234 64.4439 103.532 63.7076 102.784C64.106 103.608 64.3996 104.479 64.5818 105.376C64.7355 106.115 64.8509 106.861 64.9274 107.612C65.2477 110.347 65.2477 113.11 64.9274 115.845C64.9274 116.049 64.8562 116.252 64.8156 116.455L65.0595 116.719C65.3441 117.055 65.7202 117.441 66.1471 117.878C66.5741 118.315 67.0213 118.834 67.5499 119.352C68.5663 120.43 69.8572 121.598 71.2091 122.828C71.9003 123.428 72.6321 124.028 73.3741 124.638C74.1161 125.248 74.8988 125.817 75.6815 126.396C76.4641 126.975 77.2468 127.545 78.0702 128.043C78.8935 128.541 79.6761 129.059 80.4588 129.547C81.2415 130.035 82.014 130.462 82.7662 130.838C83.5183 131.214 84.2197 131.621 84.8906 131.936C85.5614 132.251 86.1815 132.566 86.7405 132.82C87.2996 133.074 87.757 133.318 88.1839 133.491C88.997 133.847 89.4544 134.081 89.4544 134.081C89.4544 134.081 88.9462 134.081 88.0517 134.02C87.5098 133.986 86.9702 133.921 86.4356 133.826C85.7494 133.737 85.0702 133.602 84.4027 133.42C83.5843 133.242 82.7794 133.008 81.9937 132.718C81.1041 132.43 80.2318 132.091 79.3814 131.702C78.5174 131.265 77.5823 130.869 76.7183 130.32C75.8543 129.771 74.97 129.212 74.0958 128.642C73.2217 128.073 72.4492 127.372 71.6868 126.681C70.9245 125.99 70.2333 125.258 69.5421 124.577C68.6654 123.613 67.8506 122.594 67.1026 121.527C67.3974 122.086 67.7023 122.645 68.0276 123.204C69.481 125.77 71.09 128.245 72.8456 130.614C70.6902 128.526 68.6669 126.306 66.7875 123.967C65.6694 122.584 64.6428 121.131 63.7381 119.901C63.6467 120.145 63.545 120.389 63.4434 120.633L63.2502 121.039L63.1588 121.243V121.344C63.1588 121.344 63.2604 121.029 63.2096 121.192L63.0673 121.578C63.0233 121.68 62.9892 121.785 62.9656 121.893C62.9656 122.025 62.8945 122.086 62.8742 122.29C62.7577 123.146 62.7577 124.015 62.8742 124.871C62.9823 125.715 63.1487 126.551 63.3722 127.372C63.722 128.758 64.216 130.104 64.8461 131.387C65.2285 132.161 65.6846 132.896 66.2081 133.582C70.5586 135.371 80.7841 138.024 94.8112 137.577C101.245 137.374 104.813 136.642 106.785 135.941C105.67 135.895 104.567 135.686 103.512 135.321C102.594 135.021 101.706 134.637 100.859 134.172C99.9075 133.677 98.9936 133.113 98.1248 132.485C97.1957 131.826 96.3064 131.114 95.4617 130.35C94.5977 129.567 93.7642 128.744 92.951 127.9C92.1379 127.057 91.406 126.132 90.6945 125.227C89.983 124.323 89.3426 123.387 88.7226 122.483C87.617 120.823 86.6547 119.071 85.846 117.248C85.2557 115.961 84.7927 114.62 84.4636 113.243C84.3518 112.745 84.2705 112.349 84.24 112.074V111.658L84.4433 112.023C84.5653 112.267 84.7686 112.613 85.0125 113.04C85.5309 113.894 86.3034 115.073 87.2691 116.465C88.2347 117.858 89.4341 119.413 90.7453 121.06C91.3857 121.883 92.1074 122.696 92.7782 123.54C93.4491 124.384 94.2318 125.227 95.0246 126C95.8174 126.772 96.5391 127.626 97.3218 128.378C98.1045 129.13 98.877 129.883 99.6698 130.553C100.463 131.224 101.215 131.865 101.987 132.403C102.76 132.942 103.492 133.42 104.203 133.857C105.353 134.532 106.591 135.041 107.883 135.371H108.045C108.59 135.139 109.058 134.759 109.397 134.274C108.999 133.221 108.74 132.12 108.625 131.001C108.229 130.797 107.855 130.556 107.507 130.279C107.176 129.994 106.867 129.685 106.582 129.354C106.323 129.037 106.095 128.697 105.901 128.338C105.553 127.763 105.267 127.153 105.047 126.518C104.877 126.072 104.731 125.618 104.61 125.156L104.457 124.597C104.649 124.649 104.836 124.717 105.016 124.8C105.473 125.003 105.906 125.255 106.307 125.552C106.828 125.945 107.327 126.366 107.801 126.813C108.035 127.057 108.31 127.26 108.533 127.494C108.757 127.716 108.998 127.92 109.255 128.104C109.475 128.31 109.714 128.497 109.966 128.663C110.21 128.805 110.434 128.988 110.668 129.1C110.902 129.212 111.125 129.334 111.359 129.425C111.585 129.5 111.816 129.561 112.05 129.608C112.231 129.642 112.415 129.663 112.599 129.669C112.823 129.238 112.908 128.748 112.843 128.266C112.701 124.688 110.81 127.036 111.715 123.52C111.833 123.124 111.891 122.713 111.888 122.3C111.82 122.133 111.731 121.976 111.623 121.832C111.365 121.382 111.02 120.988 110.607 120.673C110.239 120.279 109.818 119.937 109.357 119.657C108.951 119.333 108.523 119.037 108.076 118.773C107.69 118.478 107.354 118.244 107.12 118.082L106.765 117.777H107.232C107.527 117.777 107.934 117.777 108.442 117.848C109.012 117.951 109.573 118.101 110.119 118.295C110.6 118.528 111.059 118.803 111.491 119.118C113.138 116.567 110.475 117.157 110.17 111.637C110.17 111.129 110.17 110.621 110.119 110.204C109.103 105.386 104.356 103.221 96.7221 101.269C94.8518 100.842 93.2865 100.527 91.9041 100.253ZM43.7648 61.2211H39.3432V62.1257H39.4449L41.1322 62.2375L43.5717 62.3798L41.1322 62.5628L39.4754 62.6746L39.5974 62.9389H43.3074L43.7343 62.3696V61.2109L43.7648 61.2211ZM45.1167 24.4762C44.7739 24.2566 44.4006 24.0888 44.0088 23.9782C43.1044 23.6775 42.1709 23.4731 41.2237 23.3683C40.2681 23.2243 39.3033 23.1496 38.3369 23.1447C37.412 23.1447 36.5378 23.1447 35.7856 23.1447C35.0335 23.1447 34.4033 23.1447 33.956 23.1447H33.2445L33.9154 22.982C34.3524 22.8906 34.9318 22.7381 35.7145 22.6263C36.5792 22.4779 37.4512 22.3762 38.3268 22.3213C39.3446 22.2822 40.3639 22.3195 41.3761 22.4331C42.3809 22.581 43.3662 22.8401 44.3137 23.2057C44.6771 23.3521 45.019 23.547 45.3302 23.785C45.5557 23.6013 45.7302 23.3628 45.837 23.0922C45.9438 22.8217 45.9792 22.5282 45.94 22.24C45.9154 22.1355 45.8813 22.0335 45.8384 21.9351C45.7808 21.8025 45.7092 21.6764 45.6249 21.559L45.5233 21.4167C45.1576 21.0014 44.7023 20.6746 44.1917 20.4612C43.3363 20.1435 42.4309 19.9817 41.5184 19.9835C40.5757 19.8981 39.6288 19.8676 38.6825 19.892C37.7677 19.892 36.9139 19.892 36.1922 19.9733C35.4705 20.0546 34.8403 20.0546 34.4134 20.1055L33.7324 20.1665L34.3728 19.9327C34.7895 19.8107 35.3892 19.6074 36.1211 19.4549C36.9533 19.2829 37.7951 19.1607 38.6419 19.089C39.6203 19.0329 40.6011 19.0329 41.5794 19.089C42.5951 19.1278 43.5947 19.3553 44.5272 19.7599C44.8683 19.9301 45.1804 20.1531 45.4521 20.4206C45.7674 19.9109 45.8866 19.304 45.7876 18.7129C45.707 18.5639 45.6152 18.4212 45.5131 18.286C44.9142 17.6441 44.1149 17.2248 43.2464 17.0968C42.1974 16.9127 41.1385 16.7906 40.0751 16.7308C38.9875 16.6292 37.8897 16.558 36.8631 16.5479C36.0398 16.5479 35.2774 16.5479 34.5761 16.5479C34.0216 16.6002 33.4872 16.782 33.0158 17.0786C32.5444 17.3752 32.1493 17.7783 31.8621 18.2555L30.3578 20.9796C29.8902 21.8436 29.3413 22.9007 28.7314 24.1205C28.4468 24.7202 28.1622 25.3809 27.8979 26.0721C27.6108 26.7611 27.3895 27.4758 27.2373 28.2066C27.1697 28.5898 27.1256 28.9768 27.1051 29.3654C27.1051 29.7211 27.1051 30.1684 27.1051 30.5851C27.1051 31.4491 27.1559 32.3639 27.2271 33.3092C27.3592 35.21 27.6235 37.2226 27.6134 39.4893C27.6134 39.784 27.6134 40.0686 27.6134 40.3736L27.5422 41.2376C27.5422 41.695 27.4711 42.254 27.4507 42.7521C27.4507 43.7685 27.4507 44.8663 27.4507 45.9437C27.4504 48.1165 27.5624 50.2878 27.7861 52.449C27.939 54.4922 28.3769 56.504 29.0872 58.4258L29.199 58.6799L29.26 58.7917L29.321 58.8425C29.5954 59.0763 29.8597 59.3304 30.1443 59.5541C30.4289 59.7777 30.683 60.0318 30.9473 60.2554C31.2116 60.479 31.4657 60.7128 31.7198 60.9161C31.9739 61.1194 32.1976 61.343 32.4212 61.5362C33.3157 62.3087 33.956 62.9694 33.956 62.9694C33.7547 63.0097 33.551 63.0369 33.3462 63.0507C33.0382 63.0712 32.7292 63.0712 32.4212 63.0507C32.4212 63.1117 32.5228 63.1828 32.5838 63.2438L35.2469 66.2423L37.2798 67.8992L37.1782 63.6199L37.0867 63.5081C36.8533 63.1969 36.7251 62.8195 36.7208 62.4306V61.2719C36.6868 60.9579 36.7518 60.6411 36.9067 60.3659C37.0616 60.0907 37.2987 59.8708 37.5848 59.737L37.3408 48.1393C36.9167 46.2247 36.3666 44.3401 35.6942 42.498C34.4846 39.6519 33.2343 38.5643 32.9396 33.9496C32.6855 34.0817 32.4517 34.2139 32.2484 34.346C31.8564 34.5212 31.4761 34.7215 31.11 34.9457L30.6424 35.1693L30.8457 34.6916C31.0672 34.2982 31.3116 33.918 31.5775 33.5532C31.9933 33.0724 32.4416 32.6207 32.9192 32.2013C33.336 31.8862 33.8036 31.5914 34.2813 31.2966C33.823 31.1952 33.4011 30.9702 33.0615 30.6461C32.9311 30.4976 32.8309 30.3249 32.7668 30.1379C32.915 30.2383 33.0804 30.3106 33.2547 30.3513C33.6579 30.4805 34.0915 30.4805 34.4948 30.3513C35.109 30.1962 35.7078 29.9853 36.2837 29.7211C37.0596 29.5029 37.8515 29.3466 38.652 29.2536C39.4576 29.2332 40.2635 29.2808 41.061 29.3959L41.4168 29.4873C42.1283 29.4873 43.0635 29.8126 43.9986 29.8126C44.2577 29.7823 44.499 29.6655 44.6835 29.481C44.868 29.2966 44.9848 29.0553 45.0151 28.7962C44.9116 28.5518 44.7547 28.3337 44.5559 28.1578C44.3572 27.9819 44.1216 27.8527 43.8665 27.7797C43.0626 27.5005 42.2251 27.3296 41.3761 27.2715C40.5133 27.1623 39.6427 27.1283 38.774 27.1698C37.9304 27.1698 37.1375 27.1698 36.4667 27.2715C35.7958 27.3731 35.2063 27.3325 34.8099 27.363H34.1796L34.7794 27.1698C35.1656 27.0682 35.7145 26.8751 36.3854 26.7429C37.1564 26.566 37.937 26.4337 38.7232 26.3465C39.6364 26.2701 40.5544 26.2701 41.4676 26.3465C42.3988 26.4563 43.3113 26.6887 44.1816 27.0377C44.396 27.14 44.6003 27.2625 44.7914 27.4036C45.2202 27.0568 45.4949 26.5549 45.5558 26.0068C45.6167 25.4587 45.4589 24.9087 45.1167 24.4762ZM42.9008 7.62341L42.4536 7.17617L42.8805 6.73909C42.8991 6.5964 42.8691 6.45161 42.7953 6.32806C42.7216 6.2045 42.6084 6.1094 42.4739 6.05807H40.1259L40.502 6.99321L41.2237 7.07452L42.3214 7.17617L41.2237 7.29814L40.5122 7.36929L39.9938 9.94092H42.2401C42.6874 9.94092 42.9008 7.62341 42.9008 7.62341ZM38.835 6.30202C38.8843 6.23368 38.9424 6.17216 39.0078 6.11906C39.0531 6.09529 39.0943 6.0644 39.1298 6.02757C39.1339 6.00745 39.1339 5.98671 39.1298 5.96659C39.1369 5.95423 39.1407 5.9402 39.1407 5.92593C39.1407 5.91166 39.1369 5.89763 39.1298 5.88527C39.1298 5.97675 38.9773 5.95642 38.8858 5.98692C38.7786 6.00743 38.6777 6.05267 38.5911 6.11906C38.4939 6.19338 38.4227 6.29657 38.3878 6.41383C38.3463 6.5176 38.3223 6.6275 38.3166 6.73909V6.81024L38.3776 6.8814L38.652 7.17617C38.5606 7.27781 38.4589 7.37946 38.3674 7.49127L38.3065 7.56242V7.63357C38.3194 7.73082 38.3432 7.8263 38.3776 7.91818C38.3776 8.00966 38.4996 9.61566 38.5504 9.69698C38.6049 9.77686 38.6738 9.84582 38.7537 9.90027L38.896 9.95109C38.9399 9.95651 38.9843 9.95651 39.0281 9.95109C38.9537 9.9241 38.8897 9.8743 38.8452 9.80879C38.8077 9.74562 38.7803 9.67705 38.7639 9.60549C38.7639 9.53434 38.6927 7.93851 38.6825 7.85719C38.6876 7.80649 38.6876 7.75542 38.6825 7.70472C38.8287 7.5876 38.9678 7.46203 39.0993 7.32864L39.2518 7.18633L39.1399 7.07452L38.7537 6.7086C38.7276 6.56893 38.7529 6.42454 38.8248 6.30202H38.835ZM38.4894 52.4999C38.4894 51.4834 38.4894 50.5178 38.4183 49.5623C38.4183 49.0947 38.4183 48.6272 38.3573 48.1799C38.2963 47.7327 38.3573 47.316 38.3573 46.9602C38.3764 46.5095 38.448 46.0627 38.5707 45.6286H38.3674C38.2028 46.0294 38.0901 46.4495 38.032 46.8789C37.9859 47.3076 37.9655 47.7386 37.971 48.1698V49.5623C37.971 50.5178 37.971 51.5139 37.971 52.4999C37.971 54.4311 38.093 56.3217 38.1743 57.7041C38.2556 59.0865 38.3268 59.9302 38.3268 59.9302C38.3268 59.9302 38.3878 59.0357 38.4284 57.6736C38.4691 56.3116 38.4996 54.4311 38.4792 52.4999H38.4894ZM37.1477 39.286C37.3916 39.7637 37.6661 40.3024 37.9405 40.9225C37.7779 39.0827 37.5543 36.1553 37.5136 33.9902C37.5136 33.7666 37.5136 33.5532 37.5136 33.3295C36.9399 33.7638 36.3235 34.1384 35.6738 34.4476C35.796 36.1428 36.2961 37.789 37.1375 39.2656L37.1477 39.286ZM40.0853 34.7119C40.0819 36.9294 40.2382 39.1442 40.5528 41.3392H42.2808C42.4231 39.6621 42.6772 36.3179 42.7077 33.9902C42.7187 33.7973 42.7187 33.6038 42.7077 33.4109C41.8329 33.5565 40.9674 33.7533 40.1157 34.0004L40.0853 34.7119ZM40.0853 43.5144H42.7382C42.7382 42.5996 42.1995 42.4166 42.1995 42.4166H40.441C40.2906 42.7665 40.1649 43.1266 40.0649 43.4941L40.0853 43.5144ZM38.3268 34.7322C38.3268 34.8644 38.3268 34.9864 38.3268 35.1185C38.3878 36.694 38.5504 38.1679 38.7029 39.3266C38.8553 40.4854 39.018 41.1461 39.018 41.1461C39.018 41.1461 39.018 40.4041 39.018 39.2758C39.018 38.1475 38.9367 36.6229 38.8858 35.088C38.8858 34.8542 38.8858 34.6306 38.8858 34.4171C38.6917 34.5078 38.5048 34.6131 38.3268 34.7322ZM43.3074 64.2907C42.1607 64.477 41.0027 64.5856 39.8413 64.616C39.8413 69.5255 39.9836 86.8662 40.0446 95.2215C40.1326 95.2159 40.2209 95.2159 40.3089 95.2215C40.3089 95.0791 40.3089 94.9368 40.3089 94.7844C40.2072 92.1009 40.1157 88.3197 40.0954 84.2946C40.0954 79.995 40.0954 75.3904 40.2174 71.7312C40.2174 69.8203 40.3394 68.1939 40.3699 67.025C40.4004 65.8561 40.4613 65.1649 40.4613 65.1649C40.4613 65.1649 40.4613 65.8459 40.5528 67.025C40.6443 68.2041 40.685 69.8203 40.7358 71.7312C40.8578 75.3904 40.9289 79.995 40.9289 84.2946C40.9289 88.3604 40.8476 92.1009 40.7561 94.7844C40.7561 94.9267 40.7561 95.0588 40.7561 95.191C41.4906 95.2054 42.2019 95.4508 42.789 95.8923C42.8907 87.6184 43.1956 69.8406 43.2871 64.2907H43.3074ZM2.4256 151.807H2.8017C4.02145 151.909 5.77991 151.919 7.88397 151.929H15.0906C16.412 151.929 17.7741 151.929 19.1564 151.929H20.7218C20.7218 151.929 20.7218 151.929 20.7218 151.879C20.7229 151.539 20.8455 151.211 21.0674 150.954H14.0742C5.66811 150.954 2.4256 151.035 2.4256 151.746V151.807ZM55.1288 228.814L54.7832 228.967C53.0313 230.841 52.0012 233.275 51.8761 235.838C51.276 233.194 51.5876 230.425 52.7604 227.981L52.4657 227.767C51.9174 227.394 51.3471 227.055 50.758 226.751C50.3725 226.514 49.9443 226.355 49.4976 226.283C49.0806 226.372 48.6968 226.577 48.3897 226.873C47.6699 227.54 47.0411 228.298 46.5194 229.129C45.4867 230.756 44.7503 232.552 44.3442 234.435C44.2324 234.892 44.1917 235.35 44.1206 235.807C44.1206 236.041 44.1206 236.255 44.1206 236.478C44.1024 236.696 44.1195 236.916 44.1714 237.129C44.3162 237.997 44.6645 238.819 45.1879 239.527C46.167 240.886 47.2732 242.149 48.4913 243.299C49.654 244.418 50.7184 245.636 51.6728 246.937C52.1048 247.557 52.4986 248.202 52.8519 248.869L53.7362 250.78C53.9267 251.221 54.1653 251.641 54.4477 252.03V251.766C54.7291 249.084 55.2081 246.428 55.8809 243.817C56.5604 241.208 57.6222 238.715 59.032 236.417C59.6113 235.492 60.1399 234.77 60.5261 234.272L61.1462 233.51L60.6989 234.374C59.1857 237.442 58.3174 240.787 58.1476 244.203C58.027 246.749 58.0882 249.3 58.3306 251.837C58.5034 253.595 58.6152 254.886 58.6559 255.232C59.9956 255.712 61.3939 256.01 62.8132 256.116C62.8982 255.135 63.0925 254.167 63.3926 253.229C63.9313 251.776 64.7241 250.404 65.2628 249.042C65.8832 247.743 66.2916 246.353 66.4724 244.925C66.5537 244.447 66.6147 243.969 66.6554 243.502C66.4826 242.353 66.2691 241.194 65.9947 240.056C65.7202 238.918 65.3645 237.484 65.0697 236.244C64.7749 235.004 64.4802 233.774 64.2464 232.595C64.0126 231.416 63.8398 230.298 63.7178 229.251C63.6568 228.702 63.606 228.174 63.5755 227.676C63.1537 226.923 62.6922 226.194 62.1931 225.49C61.989 226.599 61.6862 227.688 61.2885 228.743C60.6753 230.315 59.9763 231.852 59.1946 233.347C58.3916 234.862 57.5683 236.397 56.8872 237.779C56.2359 239.065 55.6788 240.397 55.2203 241.764C54.9038 242.736 54.6626 243.732 54.4986 244.742C54.431 245.129 54.3834 245.519 54.3563 245.911C54.3563 245.911 54.3563 245.484 54.3563 244.732C54.3825 243.687 54.5188 242.648 54.7628 241.632C55.1127 240.195 55.5924 238.793 56.1961 237.444C56.8568 235.97 57.6597 234.445 58.4221 232.921C59.2217 231.472 59.9444 229.983 60.5871 228.458C61.0559 227.284 61.4298 226.074 61.7052 224.84C60.9531 223.823 60.1704 222.888 59.4385 222.044C59.4385 221.455 59.53 220.845 59.5605 220.235C59.5605 219.341 59.5605 218.446 59.5605 217.603C59.5605 216.759 59.4385 215.976 59.3674 215.316C59.2962 214.655 59.1743 214.096 59.1133 213.71L58.9811 213.1C58.9811 213.1 58.9811 213.323 58.9811 213.72C58.9811 214.116 58.91 214.665 58.8897 215.336C58.8693 216.007 58.8897 216.779 58.8083 217.613C58.727 218.446 58.8083 219.32 58.7169 220.205C58.6254 221.089 58.7169 221.983 58.6355 222.797C58.6155 223.534 58.5167 224.266 58.3408 224.982C58.2595 225.267 58.168 225.531 58.0867 225.765C57.8073 226.409 57.4188 227.001 56.9381 227.513C56.6013 227.876 56.2186 228.194 55.7996 228.458C55.5788 228.595 55.3477 228.714 55.1084 228.814H55.1288ZM73.6892 169.707C73.6894 169.53 73.6362 169.356 73.5365 169.209C73.4368 169.063 73.2952 168.949 73.1302 168.884L73.3538 169.524C73.4098 169.665 73.4098 169.821 73.3538 169.961H73.6689C73.6897 169.878 73.6966 169.792 73.6892 169.707ZM110.597 137.181C110.444 136.896 110.302 136.591 110.16 136.276C107.995 138.146 102.882 139.224 94.9128 139.468C93.7947 139.468 92.7071 139.519 91.6601 139.519C79.0561 139.519 70.6704 137.181 66.818 135.808C66.748 136.32 66.7175 136.837 66.7265 137.354C70.3248 138.746 80.2759 141.887 96.0716 141.419C107.253 141.074 110.302 139.203 111.085 138.37C110.891 137.791 110.719 137.394 110.597 137.181ZM46.2145 81.8449C46.0417 81.7229 45.8485 81.5908 45.7062 81.4688L45.2895 81.1232L44.4865 80.4422L44.0494 80.0966L43.6428 96.8376C44.0143 97.4095 44.212 98.0768 44.2121 98.7587C44.2176 98.8264 44.2176 98.8944 44.2121 98.962L56.9889 106.982C57.4005 107.241 57.6926 107.653 57.8012 108.128C57.9098 108.602 57.826 109.1 57.5683 109.513C57.4635 109.681 57.3292 109.829 57.1718 109.95V121.934L63.047 139.214C63.3317 138.51 63.6715 137.83 64.0634 137.181C64.0606 136.691 64.0912 136.202 64.1549 135.717C60.1501 131.956 57.2328 123.835 58.8083 119.708C59.8248 117.106 60.1907 115.052 59.6622 110.428C59.5605 109.797 59.4385 109.157 59.3166 108.507C59.1946 107.856 59.0523 107.317 58.91 106.819C58.7961 106.398 58.6251 105.995 58.4018 105.62C58.1985 105.264 57.7207 104.603 57.3243 103.831C57.1312 103.475 56.9381 103.079 56.7551 102.682L56.5416 102.204L56.4197 101.91L56.3079 101.615C55.0576 98.4944 54.834 95.3942 54.3563 92.8429C54.2445 92.2026 54.1225 91.5724 53.9903 91.0337L53.8887 90.6474L53.7362 90.1392C53.6752 89.9054 53.5838 89.7224 53.5126 89.4988C53.051 88.5154 52.4633 87.5962 51.7643 86.7646C50.9819 85.8461 50.1398 84.9802 49.2435 84.1726C48.7861 83.7762 48.3185 83.3798 47.8408 83.0138L47.1699 82.5056L46.7634 82.221L46.2145 81.8449ZM21.2808 151.98H21.6163C21.6163 151.98 21.6163 151.929 21.6163 151.899V151.228C21.505 151.309 21.414 151.414 21.3505 151.536C21.287 151.657 21.2527 151.792 21.2504 151.929C21.2504 151.929 21.2808 151.919 21.2808 151.94V151.98ZM23.0495 151.929C23.0507 151.81 23.0269 151.691 22.9797 151.58C22.9324 151.47 22.8627 151.371 22.775 151.289V151.96H23.08C23.08 151.96 23.08 151.909 23.08 151.889L23.0495 151.929ZM42.169 149.175C42.1692 148.997 42.116 148.824 42.0163 148.677C41.9166 148.53 41.775 148.417 41.6099 148.352L41.8234 148.992C41.8533 149.061 41.8688 149.135 41.8688 149.21C41.8688 149.286 41.8533 149.36 41.8234 149.429H42.1487C42.1666 149.332 42.1734 149.233 42.169 149.134V149.175ZM40.3902 149.175C40.3817 149.239 40.3817 149.304 40.3902 149.368H40.7154L40.502 148.728C40.421 148.849 40.372 148.989 40.3597 149.134L40.3902 149.175ZM23.3341 149.297H32.6245C35.6738 149.297 38.0523 149.297 39.8413 149.358C39.8364 149.3 39.8364 149.243 39.8413 149.185C39.8411 148.979 39.8855 148.774 39.9714 148.587C40.0574 148.399 40.1829 148.232 40.3394 148.097L25.4585 104.39L22.9173 149.277L23.3341 149.297ZM38.0218 98.6977C38.0198 99.2188 38.1725 99.7288 38.4606 100.163C38.7486 100.597 39.1591 100.936 39.6399 101.137C40.1208 101.338 40.6505 101.392 41.1618 101.291C41.6731 101.191 42.1432 100.941 42.5124 100.573C42.8816 100.205 43.1333 99.7362 43.2357 99.2252C43.3381 98.7143 43.2866 98.1844 43.0876 97.7028C42.8887 97.2212 42.5513 96.8094 42.1181 96.5197C41.685 96.2299 41.1756 96.0753 40.6545 96.0753C39.958 96.0753 39.2899 96.3512 38.7965 96.8428C38.3031 97.3343 38.0245 98.0013 38.0218 98.6977ZM56.4603 107.704L43.9783 99.8768C43.932 100.012 43.8777 100.144 43.8156 100.273L55.7996 108.517L43.3074 101.015C43.1898 101.148 43.0642 101.274 42.9313 101.391L55.4744 109.259C55.6208 109.35 55.7896 109.4 55.9623 109.401C56.1195 109.402 56.2743 109.363 56.4115 109.286C56.5488 109.21 56.6637 109.098 56.7449 108.964C56.8714 108.758 56.9124 108.511 56.8592 108.276C56.806 108.04 56.6629 107.835 56.4603 107.704ZM75.773 172.309C75.773 171.598 72.5305 171.517 64.1244 171.517H54.7832C55.005 171.778 55.1274 172.109 55.1288 172.452C55.1278 172.469 55.1278 172.486 55.1288 172.502H59.0523C60.4448 172.502 61.8069 172.502 63.1181 172.502H70.3248C72.4288 172.502 74.1873 172.502 75.407 172.37H75.7831L75.773 172.309ZM72.0324 169.26C71.9388 169.392 71.8826 169.546 71.8698 169.707C71.864 169.771 71.864 169.836 71.8698 169.9H72.2052L72.0324 169.26ZM54.5494 172.533C54.5484 172.516 54.5484 172.499 54.5494 172.482C54.5482 172.363 54.5234 172.244 54.4763 172.135C54.4292 172.025 54.3608 171.925 54.275 171.842V172.513L54.5494 172.533ZM65.9642 169.839H67.8649L67.7125 169.189C67.499 168.284 67.3567 167.451 67.2551 166.699C67.1534 165.946 67.062 165.306 67.0213 164.767C66.94 163.68 66.9095 163.07 66.9095 163.07L69.227 168.691C69.3795 169.057 69.5523 169.443 69.7251 169.839H71.3615C71.356 169.782 71.356 169.724 71.3615 169.667C71.364 169.461 71.4107 169.258 71.4984 169.073C71.5861 168.887 71.7128 168.722 71.8698 168.589L66.6147 153.18C66.1675 160.142 66.0048 166.79 65.9845 169.799L65.9642 169.839ZM74.4312 170.063C74.3601 169.911 74.2991 169.748 74.228 169.595C74.228 169.595 74.228 169.677 74.228 169.717C74.2384 169.826 74.2384 169.935 74.228 170.043L74.4312 170.063ZM47.2208 176.822H47.9831H51.3679H58.3611H61.7357L64.8867 176.721C65.9032 176.66 66.8282 176.609 67.6922 176.528C69.0904 176.423 70.4737 176.171 71.819 175.775C72.198 175.66 72.5683 175.517 72.9269 175.349L73.303 175.155C75.3359 173.692 75.7018 173.275 75.7831 172.604L75.4782 172.685C73.8025 173.054 72.1049 173.316 70.3959 173.468C69.3795 173.58 68.1902 173.682 66.9806 173.763C65.7711 173.844 64.4903 173.936 63.1689 173.987C61.8475 174.037 60.4753 174.108 59.1031 174.129L54.895 174.19L50.6767 174.129C49.2842 174.129 47.9221 174.037 46.6109 173.987C45.2997 173.936 44.0088 173.844 42.7992 173.763C41.5896 173.682 40.441 173.58 39.3839 173.468C38.5402 173.377 37.7677 173.285 37.046 173.184C40.1121 175.164 43.5942 176.409 47.2208 176.822ZM52.8011 172.452H53.1365C53.1365 172.452 53.1365 172.452 53.1365 172.37V171.71C53.0222 171.788 52.9284 171.892 52.8629 172.014C52.7975 172.137 52.7623 172.273 52.7604 172.411L52.8011 172.452ZM54.834 169.768H59.9163C59.9163 163.883 59.8451 157.296 60.3229 151.787C60.5862 148.06 61.2681 144.374 62.3558 140.799L56.9279 124.892L54.3868 169.768H54.834ZM55.9623 115.896V110.326C55.6043 110.333 55.2518 110.237 54.9458 110.052L42.0368 101.92C41.589 102.12 41.1043 102.224 40.6138 102.225C39.6972 102.223 38.8169 101.866 38.1575 101.229C37.4981 100.593 37.1107 99.7255 37.0765 98.8095L25.5703 91.5825V101.31L41.3761 147.681C41.742 147.709 42.0835 147.874 42.3324 148.144C42.5813 148.414 42.7189 148.767 42.7179 149.134C42.7327 149.239 42.7327 149.345 42.7179 149.449C43.3012 149.496 43.8775 149.609 44.4357 149.785L55.9928 121.853L55.9623 115.896ZM43.7648 151.37C42.5654 151.015 39.1603 150.964 32.5838 150.964H23.2426C23.4616 151.222 23.5807 151.55 23.578 151.889V151.94H27.4914C28.8839 151.94 30.246 151.94 31.5572 151.94H38.774C40.6951 151.94 42.3113 151.94 43.5107 151.838L43.7648 151.37ZM5.80023 149.378H6.11534C6.12112 149.314 6.12112 149.249 6.11534 149.185C6.11292 149.047 6.07811 148.911 6.0137 148.789L5.80023 149.378ZM6.70488 149.378C8.50401 149.327 10.8927 149.317 14.064 149.317H21.7586L24.2896 104.796L6.30847 148.179C6.57408 148.451 6.72354 148.815 6.72522 149.195C6.71719 149.233 6.707 149.27 6.69472 149.307L6.70488 149.378ZM25.062 89.0922C24.9334 89.3 24.8921 89.5502 24.9474 89.7883C25.0026 90.0264 25.1498 90.2329 25.3568 90.3628L36.7614 97.478C36.783 97.3188 36.8205 97.1622 36.8733 97.0104L25.3162 89.0414L37.3103 96.2786C37.3916 96.1363 37.4831 96.0041 37.5848 95.8415L26.4038 88.7975C26.2578 88.7049 26.0887 88.6556 25.9159 88.6552C25.7472 88.643 25.5784 88.6773 25.4279 88.7544C25.2773 88.8314 25.1508 88.9483 25.062 89.0922ZM140.064 196.135C138.999 195.723 137.871 195.499 136.73 195.474L103.38 296.764L104.234 299.722L107.192 297.689L142.493 197.436C141.723 196.932 140.91 196.497 140.064 196.135ZM135.276 195.474C134.473 195.525 133.955 195.617 133.945 195.617C133.86 195.627 133.775 195.627 133.691 195.617C133.407 195.615 133.13 195.526 132.898 195.363C132.746 195.257 132.617 195.121 132.519 194.964C132.421 194.807 132.356 194.631 132.328 194.448C132.161 193.336 132.161 192.205 132.328 191.093C132.705 189.061 135.073 188.928 136.648 188.857C137.173 188.859 137.697 188.815 138.214 188.725C138.834 187.028 139.505 185.381 139.962 184.304C139.321 183.792 138.813 183.133 138.482 182.382C138.151 181.632 138.007 180.812 138.061 179.994C137.99 176.141 140.968 172.035 142.554 170.398C142.601 170.356 142.642 170.309 142.676 170.256C142.839 169.738 142.188 167.41 141.548 165.174L141.365 164.523C140.115 160.041 135.805 152.783 132.959 147.986L132.156 146.634C129.23 141.703 126.653 136.575 124.441 131.285C123.015 128.154 121.424 125.1 119.674 122.137C118.454 119.931 117.295 117.848 116.441 116.171C115.393 114.169 114.211 112.24 112.904 110.397C112.904 110.753 112.904 111.129 112.955 111.515C112.96 112.778 113.311 114.016 113.971 115.093C114.5 115.845 114.794 116.737 114.816 117.656C114.838 118.576 114.586 119.481 114.093 120.257C114.416 120.879 114.609 121.56 114.66 122.259C114.71 122.958 114.618 123.66 114.388 124.323C114.384 124.38 114.384 124.438 114.388 124.495C115.243 125.559 115.69 126.892 115.648 128.256C115.71 128.892 115.643 129.533 115.453 130.142C115.263 130.751 114.952 131.316 114.541 131.804C114.196 132.157 113.783 132.437 113.327 132.626C112.871 132.815 112.381 132.909 111.888 132.901C112.208 133.918 112.616 134.904 113.107 135.849C114.652 138.827 119.765 155.314 120.924 163.365C121.28 165.774 121.686 168.081 122.133 170.48C123.427 176.961 124.242 183.528 124.573 190.128C125.091 202.122 120.304 221.028 117.641 225.612C115.354 229.536 112.345 239.731 112.955 244.874C113.101 245.777 113.36 246.658 113.727 247.497C115.111 250.635 115.501 254.122 114.845 257.488C114.845 257.539 114.845 257.59 114.845 257.651L135.276 195.474ZM33.9255 172.36H34.3016C35.5214 172.452 37.2798 172.472 39.3839 172.482H46.6007C47.9119 172.482 49.2842 172.482 50.6665 172.482H52.2319C52.2332 172.139 52.3556 171.808 52.5775 171.547H45.5944C37.1782 171.547 33.9357 171.628 33.9357 172.34L33.9255 172.36ZM37.3103 169.89H37.6153C37.6249 169.823 37.6249 169.754 37.6153 169.687C37.6128 169.549 37.578 169.413 37.5136 169.29L37.3103 169.89ZM38.2048 169.89C40.0039 169.839 42.3926 169.829 45.5741 169.829H53.2687L55.7996 125.288L45.442 150.395C45.6317 150.572 45.7809 150.788 45.8791 151.029C45.9774 151.269 46.0224 151.528 46.0112 151.787C46.0112 153.576 45.1879 154.349 43.1956 155.853L37.8186 168.691C37.9519 168.824 38.0574 168.983 38.129 169.157C38.2005 169.332 38.2367 169.519 38.2353 169.707C38.232 169.758 38.2252 169.809 38.215 169.86L38.2048 169.89ZM43.3481 152.356C42.1791 152.6 40.6646 152.824 38.8553 153.017C37.8389 153.129 36.6496 153.231 35.4401 153.312C34.2305 153.393 32.9497 153.485 31.6283 153.525C30.307 153.566 28.9348 153.647 27.5625 153.668L23.3544 153.739L19.1361 153.668C17.7436 153.668 16.3714 153.576 15.0703 153.525C13.7692 153.474 12.4682 153.393 11.2586 153.302C10.049 153.21 8.90042 153.119 7.84331 153.007C6.98949 152.926 6.21698 152.824 5.4953 152.722C8.58163 154.703 12.0853 155.942 15.731 156.341H16.4933H19.868H26.8612H30.246L33.397 156.249C34.4134 156.178 35.3384 156.138 36.2024 156.046C37.6005 155.94 38.9837 155.688 40.3292 155.294C40.7098 155.183 41.0804 155.04 41.4371 154.867L41.8132 154.674C42.1588 154.43 42.4333 154.216 42.6975 154.023L43.3481 152.356ZM4.35687 149.165C4.34151 149.259 4.34151 149.355 4.35687 149.449H4.70247C4.66974 149.374 4.65285 149.293 4.65285 149.21C4.65285 149.128 4.66974 149.047 4.70247 148.972L4.96674 148.352C4.79964 148.407 4.653 148.511 4.54601 148.65C4.43901 148.79 4.37663 148.959 4.36703 149.134L4.35687 149.165ZM38.3268 77.8502C38.3268 80.0153 38.3878 82.2515 38.4183 84.4064C38.4488 86.5613 38.5097 88.4722 38.5504 90.3526C38.5911 92.2331 38.6622 93.7476 38.7029 95.0995C38.7029 95.2316 38.7029 95.3434 38.7029 95.4654L38.9062 95.5975V95.0995C38.9062 93.7476 38.9062 92.1314 38.9062 90.3526C38.9062 88.5738 38.9062 86.4901 38.8452 84.4064C38.7842 82.3226 38.7537 80.0153 38.713 77.8502C38.6724 75.6852 38.6012 73.4592 38.5504 71.5584C38.4996 69.6576 38.4183 67.9398 38.3776 66.7404C38.337 65.541 38.3065 64.8295 38.3065 64.8295C38.3065 64.8295 38.3065 65.5308 38.3065 66.7404C38.3065 67.95 38.3065 69.6068 38.3065 71.5584C38.3065 73.51 38.3268 75.614 38.3268 77.8502ZM38.3268 13.3359H38.652C38.652 12.9191 38.652 12.5227 38.652 12.1771V11.3945H38.5504C38.4996 11.5876 38.4488 11.8417 38.3979 12.1466C38.3471 12.4516 38.276 12.9191 38.2353 13.3765L38.3268 13.3359ZM43.2972 2.67328C43.2639 2.50305 43.2057 2.33866 43.1245 2.18538C42.8925 1.79125 42.5343 1.48685 42.108 1.32139C41.8861 1.2136 41.6499 1.13829 41.4066 1.09777C41.1616 1.05395 40.9135 1.03015 40.6646 1.02662C40.168 1.02126 39.676 1.12175 39.2213 1.32139C38.8175 1.4982 38.4822 1.80142 38.2658 2.18538C38.186 2.34032 38.1246 2.50407 38.0828 2.67328C38.0744 2.80189 38.0744 2.93092 38.0828 3.05953C38.0768 3.14073 38.0768 3.22227 38.0828 3.30348C38.0828 3.30348 38.0828 3.16117 38.0828 3.05953C38.1121 2.9419 38.1495 2.82643 38.1946 2.71393C38.2595 2.57452 38.3378 2.44175 38.4284 2.31752C38.6635 2.02065 38.9768 1.79534 39.3331 1.66699C39.5234 1.59477 39.7211 1.54364 39.9226 1.51452C39.6418 1.73145 39.4181 2.0135 39.2707 2.33629C39.1233 2.65908 39.0568 3.0129 39.0768 3.36717C39.0968 3.72144 39.2028 4.06551 39.3856 4.36965C39.5684 4.67378 39.8225 4.92884 40.1259 5.11277H42.3723C42.6772 4.6147 43.2363 4.39108 43.2363 3.38479V3.30348C43.2423 3.22227 43.2423 3.14073 43.2363 3.05953C43.2697 2.93319 43.2901 2.80377 43.2972 2.67328ZM42.3926 11.1403C41.7726 11.2318 40.9797 11.2928 40.2276 11.3436C40.1174 11.9449 40.0461 12.5526 40.0141 13.1631C40.7731 13.0709 41.5218 12.9076 42.2503 12.6752L42.5146 12.5939C42.4841 12.0145 42.3926 11.5063 42.3926 11.1403ZM47.6883 16.3649C47.6883 15.3485 46.3263 15.0029 45.0252 15.0029C44.4044 14.9938 43.7864 15.0865 43.1956 15.2773C42.2705 15.5805 41.3169 15.7882 40.3495 15.8973C41.3953 15.9964 42.434 16.1593 43.4599 16.3852C44.4757 16.6012 45.3703 17.1976 45.9604 18.0522L46.1332 18.3673C46.7125 18.0319 47.7188 17.3915 47.6883 16.3141V16.3649ZM43.0635 47.875C43.0459 46.9758 42.8775 46.0859 42.5654 45.2424C41.9184 45.3825 41.2632 45.4809 40.6036 45.5372C40.6036 45.9641 40.5426 46.6146 40.6036 47.4176C40.6646 48.2206 40.7154 48.9626 40.7561 49.8368C40.7968 50.7109 40.8171 51.6359 40.8171 52.5507C40.8171 54.3397 40.8171 56.088 40.6646 57.3789C40.5122 58.6698 40.4512 59.4829 40.4512 59.4829C40.4512 59.4829 40.3089 58.6494 40.2174 57.3789C40.1259 56.1083 40.0446 54.3295 40.0446 52.5507C40.0446 50.7719 40.1259 48.8508 40.2479 47.3973C40.2933 46.7733 40.3919 46.1544 40.5427 45.5473H40.0039C39.8488 46.214 39.767 46.8957 39.76 47.5802C39.76 48.9829 39.8311 57.7448 39.8413 60.2351H42.8907C42.9313 57.389 43.0431 49.2066 43.0635 47.8343V47.875ZM52.5571 67.2181C49.8466 65.5392 47.2798 63.6387 44.8829 61.5362V62.3798C44.8786 62.7687 44.7504 63.1461 44.517 63.4573L44.4255 63.5691L44.1917 73.3067C44.9236 73.8657 45.6554 74.4451 46.4178 75.0042L47.9221 76.102C48.1762 76.2951 48.4202 76.4577 48.6641 76.6305L49.0402 76.8846L49.3451 77.0676L49.7111 77.281L50.1481 77.5351L50.6157 77.8197L50.4531 78.0637C50.1177 78.5109 49.8534 78.9683 49.5789 79.3241C49.3045 79.6799 49.091 80.0051 48.9284 80.2186L48.6845 80.5642L49.0504 80.3507C49.3643 80.1442 49.6663 79.9203 49.955 79.6799C50.3586 79.3323 50.7357 78.9552 51.0833 78.5516C51.4691 78.0768 51.8288 77.5814 52.1607 77.0676C52.4657 76.5187 52.7401 75.9596 52.9739 75.4209L53.0349 75.2278C53.2393 74.776 53.4125 74.3107 53.5533 73.8353C53.9136 72.9225 54.1661 71.9707 54.3055 70.9993C54.4845 70.1434 54.5764 69.2716 54.5799 68.3972C54.59 68.2144 54.59 68.0312 54.5799 67.8483C53.8877 67.7008 53.2106 67.4898 52.5571 67.2181ZM56.8669 68.3362V68.3972L56.9381 68.4887L56.8466 68.4175L56.7348 68.3261L55.4642 68.0516C55.4926 68.1315 55.5163 68.213 55.5354 68.2956C55.7284 69.2387 55.8238 70.1993 55.82 71.162C55.7509 72.2729 55.5496 73.3717 55.2203 74.435C54.8122 75.4758 54.2834 76.4651 53.6448 77.3827C53.1989 77.9423 52.7132 78.4688 52.1912 78.9582L52.8926 79.4664L53.8277 80.2186C53.8277 80.1068 53.9395 80.0051 53.9903 79.8832C54.3147 79.3225 54.6032 78.742 54.8543 78.145C55.1924 77.4856 55.4911 76.8068 55.7488 76.1121C56.0793 75.4798 56.3712 74.8281 56.623 74.1605C56.8912 73.5703 57.1187 72.9623 57.304 72.3411C57.4927 71.9037 57.6556 71.4557 57.7919 70.9993C57.924 70.6639 58.0053 70.4809 58.0053 70.4809L58.1476 71.0197C58.2086 71.3754 58.2798 71.8837 58.3306 72.5037C58.3123 73.201 58.2546 73.8967 58.1578 74.5874C57.9762 75.3736 57.7454 76.1477 57.4666 76.9049C57.1047 77.6063 56.7007 78.2851 56.257 78.9379C55.8124 79.4826 55.3373 80.0019 54.834 80.493L54.4986 80.7471L55.017 81.235C54.712 81.5603 54.4376 81.8856 54.1733 82.1397C53.909 82.3938 53.6549 82.7089 53.472 82.8715L53.2077 83.1663L53.5736 83.024C53.8927 82.8865 54.2018 82.7269 54.4986 82.5463C54.9131 82.2925 55.3073 82.0071 55.6777 81.6924C56.0941 81.3166 56.4911 80.9197 56.8669 80.5032C57.2147 80.0646 57.5371 79.6064 57.8325 79.131C58.0802 78.7094 58.291 78.2673 58.4627 77.8096C58.5945 77.4806 58.6966 77.1404 58.7677 76.7931L58.8388 76.4069V76.3154C59.2397 75.3077 59.4633 74.2382 59.4995 73.1542C59.5781 72.1764 59.5303 71.1925 59.3572 70.2268C59.2962 69.6881 59.2251 69.2104 59.1539 68.7835L56.8669 68.3362ZM59.9163 69.0173C60.0586 69.3222 60.2212 69.6576 60.3838 70.0337C60.7666 71.0545 61.016 72.1204 61.1259 73.205C61.1932 74.481 61.0455 75.7593 60.6888 76.9863C60.5387 77.3658 60.3656 77.7358 60.1704 78.0942C60.3838 78.1755 60.577 78.2365 60.7904 78.3381C64.8562 80.1779 67.0518 82.0482 72.4288 86.5613L75.6713 89.2752C75.4172 88.9906 75.1631 88.706 74.9191 88.4112C73.3961 86.45 72.0716 84.3424 70.9651 82.1194C70.0849 80.1597 69.4039 78.1165 68.9322 76.0206C68.7434 75.053 68.6077 74.0757 68.5256 73.0932C67.939 72.4491 67.2526 71.9034 66.4927 71.4771C66.3708 71.4059 66.2488 71.3348 66.1166 71.2738L65.6999 71.04C65.006 70.6895 64.2934 70.3773 63.5653 70.1049C62.3879 69.6733 61.1865 69.3101 59.9671 69.0173H59.9163ZM74.0856 70.4301C73.9084 70.6068 73.7181 70.7699 73.5164 70.918L74.5329 70.7351C74.6662 70.6071 74.7917 70.4713 74.909 70.3285C75.0716 70.115 75.2851 69.9321 75.4172 69.7389C75.5493 69.5458 75.712 69.4137 75.7933 69.2917L75.9356 69.0782V69.3222C75.9279 69.5283 75.8973 69.7328 75.8441 69.9321L75.7018 70.3793L76.0169 70.2573L76.6268 70.0947C76.5879 69.7116 76.5096 69.3335 76.393 68.9664C76.2692 68.5417 76.077 68.14 75.8238 67.7772C75.7526 67.645 75.6713 67.5129 75.6002 67.3706C75.5843 67.79 75.5055 68.2046 75.3664 68.6005C75.0654 69.2895 74.63 69.9115 74.0856 70.4301ZM75.2139 64.5144C75.298 64.3758 75.4044 64.2521 75.529 64.1484L75.407 63.8435C75.3068 64.0552 75.2416 64.2818 75.2139 64.5144ZM73.6079 51.5647C73.6079 51.3716 73.6079 51.1785 73.6079 50.9854L73.3945 50.7821C73.2346 50.6037 73.0884 50.4134 72.9574 50.2128L72.7846 49.8876C72.888 50.5155 73.1744 51.0989 73.6079 51.5647ZM107.253 52.815C107.381 52.4334 107.479 52.0426 107.547 51.646C107.608 51.2425 107.629 50.8339 107.608 50.4263C107.58 50.0189 107.491 49.6179 107.344 49.2371C107.255 49.0541 107.153 48.8775 107.039 48.7085C106.91 48.5568 106.767 48.4173 106.612 48.2917C106.456 48.1921 106.289 48.1103 106.114 48.0478L105.657 47.9868C105.942 47.8558 106.212 47.692 106.46 47.4989C106.763 47.2609 107 46.9489 107.148 46.5929C107.295 46.2368 107.349 45.8488 107.303 45.466C107.238 44.7326 107.063 44.0131 106.785 43.3315C106.657 42.9805 106.501 42.6405 106.317 42.315C106.226 42.1524 106.145 41.9999 106.043 41.8373C106.734 41.647 107.345 41.2363 107.781 40.6676C108.218 40.0989 108.457 39.4032 108.462 38.6863C108.471 38.2878 108.441 37.8894 108.371 37.497C108.309 37.1285 108.221 36.765 108.106 36.4094C107.869 35.6461 107.454 34.9496 106.897 34.3765C106.464 33.911 106.119 33.3701 105.88 32.7807C105.637 32.1697 105.453 31.5365 105.331 30.8901L105.108 29.8736C105.01 29.4724 104.867 29.0836 104.681 28.7148C104.311 27.976 103.779 27.3298 103.126 26.8242C101.862 25.9283 100.401 25.3496 98.8668 25.1369C98.1451 24.9946 97.4234 24.9133 96.7729 24.8015C96.4998 24.7622 96.231 24.6976 95.9699 24.6084L95.6345 24.3847L95.2177 24.1001C93.9633 23.164 92.4967 22.5529 90.9486 22.3213C90.1352 22.2252 89.3109 22.2839 88.5193 22.4941C87.8797 22.6802 87.2275 22.8194 86.5677 22.9109C85.2565 23.104 83.9453 22.9109 82.3291 23.1243C81.8989 23.1836 81.4784 23.2998 81.0788 23.4699C80.8856 23.5623 80.6989 23.6676 80.5198 23.785C80.326 23.909 80.1424 24.0484 79.9709 24.2018C79.442 24.7407 78.9624 25.3258 78.5377 25.9501C78.232 26.4272 77.8037 26.8134 77.2976 27.0682C76.7488 27.3325 76.1084 27.3934 75.2647 27.739C74.5071 28.0937 73.8553 28.6404 73.3741 29.3247L73.0387 29.8024L72.7439 30.2497C72.5394 30.5764 72.3561 30.9159 72.195 31.2661C71.8257 32.0227 71.7116 32.8787 71.8698 33.7056C71.9583 34.091 72.0878 34.4659 72.256 34.8237C72.4126 35.1648 72.6295 35.4747 72.8964 35.7385C72.6052 35.899 72.3296 36.0861 72.0731 36.2976C71.7041 36.5934 71.4462 37.0054 71.3412 37.4665C71.2837 37.8506 71.2837 38.2412 71.3412 38.6253C71.3412 38.7472 71.3412 38.7472 71.3412 38.7574C71.3444 38.798 71.3444 38.8388 71.3412 38.8794C71.2593 38.9893 71.1674 39.0913 71.0668 39.1843C70.7348 39.4524 70.479 39.8029 70.3248 40.2008C70.2192 40.6267 70.266 41.0762 70.4569 41.4713C70.6297 41.8474 70.7822 42.1117 70.9143 42.4268C71.1888 43.057 71.3311 43.738 71.6767 44.4597C71.8481 44.8 72.1079 45.0879 72.4288 45.2932C72.745 45.4774 73.0879 45.6112 73.4453 45.6896L73.9027 47.0415C73.8214 47.1533 73.7502 47.2753 73.6791 47.3973C73.5273 47.6618 73.437 47.9571 73.4148 48.2613C73.3591 48.5739 73.3591 48.8939 73.4148 49.2066C73.4148 49.5217 73.4758 49.8368 73.5368 50.101C73.5977 50.3653 73.6181 50.6093 73.6486 50.7719C73.6486 50.5381 73.6486 50.3145 73.5977 50.0705C73.6273 49.3887 73.702 48.7096 73.8214 48.0376C73.8824 47.6819 73.9332 47.3464 73.9942 47.0212L73.9332 47.0923L73.6283 45.649H73.5774C73.3527 45.5687 73.1378 45.463 72.9371 45.3339C73.8722 44.6325 73.801 43.5042 73.6079 41.8373C73.5378 41.3318 73.4971 40.8227 73.4859 40.3126V40.2618C73.3121 39.8323 73.1827 39.3861 73.0997 38.9302C72.9389 38.3168 72.8671 37.6836 72.8862 37.0498C73.2618 37.4159 73.6818 37.7335 74.1365 37.9951C74.3519 38.1263 74.58 38.2353 74.8175 38.3203C75.1995 38.2842 75.5841 38.2842 75.9661 38.3203C77.2491 38.4264 78.5358 38.1655 79.6761 37.5682C80.3368 37.2226 80.8857 36.9176 81.3635 36.6432C82.8678 35.7995 83.8233 35.271 85.0532 35.3828C84.769 34.617 84.685 33.7913 84.8092 32.9839C84.9646 32.0262 85.4161 31.1411 86.1001 30.453C86.7507 29.8024 87.4215 29.3552 87.8891 28.8368C88.3314 28.3662 88.6157 27.7692 88.7023 27.1292C88.7672 26.6523 88.7291 26.167 88.5905 25.7061C88.5395 25.5272 88.4714 25.3536 88.3872 25.1877C88.5064 25.3371 88.6119 25.497 88.7023 25.6655C89.0058 26.2368 89.1561 26.877 89.1383 27.5238C89.1204 28.1705 88.9352 28.8015 88.6006 29.3552C88.1635 30.0871 87.5842 30.6969 87.1674 31.317C86.8162 31.8637 86.6488 32.5082 86.6897 33.1567C86.7215 33.6695 86.8977 34.1629 87.1979 34.5798L87.2894 34.6814C87.4723 34.1838 87.7368 33.72 88.0721 33.3092C88.5178 32.786 89.0344 32.3276 89.6069 31.9472C90.5886 31.3962 91.4659 30.6772 92.1989 29.8228C92.4233 29.5172 92.5887 29.1725 92.6868 28.8063C92.727 28.6703 92.7543 28.5308 92.7681 28.3896C92.781 28.535 92.781 28.6812 92.7681 28.8266C92.7652 29.2224 92.693 29.6146 92.5546 29.9854C92.047 31.0689 91.3597 32.0587 90.5217 32.9128C90.1623 33.3214 89.8644 33.7803 89.6374 34.2748C89.4853 34.627 89.4191 35.0102 89.4443 35.3929C89.4572 35.4935 89.481 35.5923 89.5154 35.6877C90.4301 35.4995 91.3577 35.3805 92.2904 35.332C92.6313 35.3087 92.9739 35.3361 93.3068 35.4133C94.1414 34.3948 94.8766 33.2988 95.5023 32.1403C96.1696 30.9021 96.7143 29.6016 97.1287 28.2574C96.8572 29.6484 96.4521 31.01 95.9191 32.3232C95.4622 33.5336 94.8975 34.7004 94.2318 35.8097C94.574 36.1352 94.842 36.5307 95.0174 36.9693C95.1928 37.4078 95.2716 37.8791 95.2482 38.3508C95.2482 38.544 95.2482 38.6964 95.2482 38.8387C95.5041 38.8142 95.7585 38.7769 96.0106 38.7269C96.9439 38.559 97.8434 38.2397 98.6737 37.7816C99.5401 37.3148 100.301 36.6747 100.91 35.9012C101.111 35.6344 101.291 35.3523 101.449 35.0575L101.611 34.7018V35.088C101.552 35.4348 101.46 35.7751 101.337 36.1045C100.947 37.1344 100.349 38.0724 99.5783 38.8591C98.9735 39.498 98.2905 40.0581 97.5454 40.526C98.0117 40.8121 98.4417 41.1534 98.8262 41.5425C99.209 41.985 99.6891 42.3329 100.229 42.5589C100.742 42.7608 101.202 43.0787 101.573 43.4878C101.943 43.8969 102.214 44.3861 102.363 44.9171C102.618 45.6025 102.99 46.2387 103.461 46.7976C103.592 46.978 103.759 47.1292 103.951 47.2412C104.144 47.3532 104.358 47.4237 104.579 47.4481C105.421 47.4105 106.223 47.0797 106.846 46.513C106.741 46.83 106.559 47.1163 106.317 47.3464C106.019 47.6313 105.676 47.8649 105.301 48.0376C105.184 48.0553 105.068 48.0825 104.955 48.119C104.788 48.1948 104.625 48.2796 104.467 48.3731L104.976 48.4849C105.143 48.5414 105.306 48.6093 105.464 48.6882L105.687 48.8508L105.84 49.0643C105.456 49.1942 105.055 49.2628 104.65 49.2675H104.406C104.052 49.239 103.704 49.1497 103.38 49.0033C103.258 49.1456 103.136 49.2879 103.004 49.4607C102.648 49.8571 102.252 50.345 101.693 50.8735C101.052 51.4882 100.304 51.9808 99.4868 52.3271C97.4415 53.0204 95.2773 53.2935 93.1238 53.1301C90.8775 52.9166 88.6311 52.5507 86.3441 52.2559C85.846 52.2559 85.0227 52.2559 84.0367 52.3271C84.0367 52.4389 84.0367 52.5609 84.0367 52.6828C83.8514 53.5834 83.5826 54.4648 83.2337 55.3154C83.0608 55.734 82.9776 56.1842 82.9898 56.6368C82.9991 56.9495 83.1057 57.2515 83.2947 57.5008L83.7115 57.5923C83.8669 57.6078 84.0236 57.6078 84.179 57.5923H84.7584C85.1612 57.6169 85.5652 57.6169 85.968 57.5923C86.4138 57.5912 86.8591 57.6252 87.2996 57.694C87.6449 57.7929 87.9843 57.9117 88.316 58.0497C88.526 58.1267 88.7565 58.1267 88.9665 58.0497C89.0598 57.9311 89.1226 57.7915 89.1495 57.6431C89.2064 57.3888 89.2064 57.125 89.1495 56.8706C89.0921 56.635 89.0174 56.404 88.9259 56.1794C89.0695 56.38 89.1985 56.5906 89.3121 56.8096C89.4512 57.0806 89.5276 57.3793 89.5358 57.6838C89.5389 57.9053 89.4832 58.1237 89.3742 58.3166C89.2653 58.5094 89.1071 58.6699 88.9157 58.7816C88.4761 58.9684 88.0005 59.0552 87.5232 59.0357C87.0759 59.0357 86.588 59.0357 86.09 59.0357C85.5919 59.0357 85.0735 59.0357 84.5348 59.0357C83.9004 59.0345 83.2822 58.8356 82.7662 58.4665C82.52 58.2428 82.3238 57.9696 82.1907 57.6648C82.0576 57.36 81.9904 57.0304 81.9937 56.6978C82.0022 56.1232 82.1267 55.5562 82.3596 55.0308C82.7483 54.2324 83.0877 53.4109 83.376 52.571L83.437 52.3677C80.7408 52.3136 78.0447 52.4836 75.3765 52.876C75.3765 53.1809 75.3765 53.496 75.4477 53.7908C75.5188 54.0855 75.4477 54.3701 75.4477 54.6548C75.973 57.1702 76.683 59.6435 77.5721 62.0545C78.1576 63.6567 78.9762 65.1637 80.0014 66.5269C81.7322 68.1664 84.0022 69.1171 86.3848 69.2002C88.5115 69.2619 90.6277 68.8777 92.5971 68.0725C94.5665 67.2672 96.3456 66.0586 97.8199 64.5245L97.9723 64.3314C98.0704 64.1534 98.1587 63.9702 98.2366 63.7825C98.6119 63.101 98.9151 62.3822 99.1413 61.6378C99.4582 60.8048 99.7097 59.9484 99.8934 59.0763C100.168 58.192 100.391 57.2772 100.595 56.4132L101.347 54.0449C101.632 53.3639 101.886 52.8048 102.079 52.4186L102.475 51.7985V52.4795C102.475 52.8963 102.424 53.496 102.414 54.2278C102.409 54.3159 102.409 54.4041 102.414 54.4921C102.442 54.3841 102.48 54.2787 102.526 54.177C102.763 53.8792 102.93 53.5318 103.014 53.1606C103.093 52.8277 103.131 52.4863 103.126 52.1441C103.118 51.8866 103.08 51.6308 103.014 51.3818C103.001 51.2779 102.977 51.1757 102.943 51.0768C103.028 51.1397 103.106 51.2112 103.177 51.2903C103.373 51.5076 103.528 51.7591 103.634 52.0323C103.786 52.4339 103.842 52.8656 103.797 53.2927C103.744 53.7806 103.581 54.25 103.319 54.6649C103.237 54.8009 103.188 54.954 103.177 55.1122C103.16 55.3998 103.065 55.6774 102.902 55.9152C102.758 56.0764 102.598 56.2228 102.424 56.3522L102.262 56.525V56.708C102.191 57.2162 102.109 57.7244 102.008 58.2835C102.517 57.802 102.976 57.2708 103.38 56.6978L103.431 56.6063C103.675 56.1489 103.888 55.5899 104.173 55.0004C104.457 54.4108 104.722 53.7908 104.976 53.1402C105.267 52.6342 105.434 52.0664 105.464 51.4834C105.474 51.2667 105.434 51.0505 105.348 50.8514C105.261 50.6523 105.131 50.4756 104.966 50.3348C104.816 50.2384 104.645 50.1805 104.468 50.1663C104.29 50.1521 104.112 50.1821 103.949 50.2535C103.799 50.3062 103.671 50.4061 103.583 50.5381C103.598 50.3552 103.669 50.1813 103.786 50.0401C103.961 49.841 104.188 49.6952 104.441 49.6197C104.695 49.5441 104.965 49.5419 105.22 49.6131C105.593 49.7458 105.921 49.9796 106.169 50.2884C106.417 50.5971 106.574 50.9686 106.622 51.3614C106.682 52.1634 106.539 52.9674 106.206 53.6993C105.88 54.3498 105.545 54.9902 105.189 55.5696C104.862 56.0904 104.484 56.5773 104.061 57.0231C104.612 56.6542 105.111 56.2132 105.545 55.7119C106.307 54.8738 106.888 53.8877 107.253 52.815ZM111.176 77.2099C110.843 76.9068 110.448 76.6812 110.017 76.5492C109.469 76.3807 108.953 76.1194 108.493 75.7767C108.074 75.4239 107.728 74.9922 107.476 74.5061C107.481 74.533 107.481 74.5605 107.476 74.5874C107.378 74.9013 107.242 75.2017 107.07 75.4819C106.937 75.675 106.866 75.797 106.866 75.797V75.4311C106.866 75.1973 106.866 74.872 106.937 74.4959C106.962 74.0694 106.962 73.6418 106.937 73.2152C106.937 73.0831 106.937 72.9509 106.887 72.8188C106.734 72.2394 106.602 71.6702 106.419 71.1518C106.009 70.1634 105.498 69.2198 104.894 68.3362C104.259 67.3968 103.855 66.3206 103.715 65.1954C103.653 64.6307 103.727 64.0593 103.929 63.5284C104.147 63.0492 104.439 62.6069 104.793 62.2172C105.407 61.6263 105.852 60.8825 106.084 60.0623C106.184 59.4102 106.07 58.7432 105.758 58.1615C105.044 59.1852 104.181 60.0965 103.197 60.8653C102.593 62.2879 101.855 63.6494 100.991 64.9311C101.112 65.1099 101.221 65.2967 101.316 65.4902C101.637 66.1096 101.873 66.7694 102.018 67.4519C102.157 68.2434 102.205 69.0483 102.16 69.8508C102.067 70.5995 102.017 71.3529 102.008 72.1073C102 72.7205 102.103 73.33 102.313 73.9064C102.872 74.2723 103.441 74.6586 104.01 75.055L105.077 75.7665C104.921 75.4809 104.811 75.1721 104.752 74.8517C104.648 74.3666 104.687 73.8618 104.864 73.3982C104.928 73.2267 105.017 73.0657 105.128 72.9204C105.075 73.0885 105.045 73.2628 105.037 73.4388C105.007 73.8723 105.076 74.307 105.24 74.7094C105.456 75.2548 105.805 75.7372 106.256 76.1121C106.797 76.5518 107.409 76.8956 108.066 77.1286C108.737 77.4335 109.448 77.6775 110.099 77.9519C110.728 78.2102 111.319 78.5521 111.857 78.9683L111.938 79.0293C111.847 78.826 111.755 78.6126 111.684 78.3991C111.598 77.9722 111.425 77.5675 111.176 77.2099ZM121.341 88.0758C118.683 84.8547 115.034 82.6032 110.963 81.6721C110.617 82.6844 110.22 83.6784 109.773 84.6503C108.954 86.2474 107.998 87.7709 106.917 89.204C105.622 90.8223 104.172 92.31 102.587 93.6459C100.955 94.9198 99.2018 96.0297 97.3523 96.9596C95.8786 97.6101 94.356 98.1437 92.7986 98.5554C94.0793 98.8095 95.5023 99.1043 97.21 99.5719C103.39 101.158 107.974 102.997 110.353 106.27C110.444 105.681 110.536 105.193 110.627 104.817C110.622 104.725 110.622 104.634 110.627 104.542C110.632 104.305 110.693 104.072 110.806 103.863C110.92 103.655 111.081 103.476 111.278 103.343C111.478 103.212 111.703 103.122 111.938 103.079C112.147 103.043 112.357 103.02 112.569 103.007C113.015 102.995 113.459 102.93 113.89 102.814C114.702 102.667 115.482 102.382 116.197 101.971C116.75 101.698 117.266 101.357 117.732 100.954C117.931 100.813 118.121 100.66 118.301 100.497C118.219 100.73 118.12 100.958 118.007 101.178C117.678 101.763 117.275 102.302 116.807 102.784C116.082 103.434 115.25 103.953 114.347 104.319C113.818 104.505 113.269 104.631 112.711 104.695C112.518 104.695 112.609 104.695 112.579 104.695C112.579 104.695 112.548 104.695 112.579 104.695V104.766L112.985 105.427L113.758 106.687L114.51 107.449C115.417 107.466 116.322 107.391 117.214 107.226C118.381 107.085 119.526 106.794 120.619 106.362C121.714 106.03 122.755 105.541 123.709 104.908C124.587 104.362 125.37 103.675 126.026 102.875C126.252 102.628 126.463 102.366 126.657 102.093C125.345 97.0612 123.577 90.81 121.361 88.025L121.341 88.0758ZM154.548 155.162C154.095 154.754 153.52 154.507 152.912 154.46H152.719C152.83 154.532 152.942 154.593 153.054 154.674C153.397 154.926 153.705 155.223 153.969 155.558C154.208 155.874 154.413 156.215 154.579 156.575C154.707 156.877 154.809 157.19 154.884 157.51C154.939 157.727 154.98 157.948 155.006 158.17V158.414L154.863 158.211C154.762 158.089 154.65 157.896 154.467 157.703C154.274 157.482 154.064 157.278 153.837 157.093C153.593 156.898 153.327 156.735 153.044 156.605C152.888 156.533 152.724 156.478 152.556 156.443C153.054 157.703 153.572 158.984 154.162 160.193C154.294 160.508 154.426 160.793 154.548 161.088C155.453 159.055 156.235 156.331 154.569 155.131L154.548 155.162ZM151.194 182.26C153.024 179.984 154.497 177.961 154.467 175.145C154.436 172.33 153.725 169.921 153.796 167.542C153.867 165.164 149.73 158.292 148.622 153.312C147.514 148.331 142.371 134.741 138.529 128.48L138.041 127.667L137.553 130.208L136.008 124.109C133.03 118.702 130.082 112.542 128.801 109.381L128.679 109.797C128.325 110.665 127.856 111.482 127.287 112.227C126.559 113.033 125.708 113.719 124.766 114.26C123.775 114.729 122.714 115.034 121.625 115.164C121.195 115.19 120.764 115.19 120.334 115.164L121.351 116.791C122.367 118.417 123.567 120.165 124.746 122.066C125.762 123.703 126.779 125.4 127.795 127.291L132.552 131.489H129.808L129.869 131.631C130.397 132.718 130.956 133.826 131.515 134.945C132.674 137.16 133.863 139.427 135.114 141.643C136.364 143.859 137.685 146.054 138.956 148.362C140.226 150.669 141.405 152.834 142.483 155.07C143.551 157.237 144.459 159.479 145.197 161.779C145.37 162.338 145.512 162.938 145.644 163.487C145.776 164.035 145.878 164.503 145.99 165.052L146.071 165.641C146.505 167.123 146.781 168.646 146.894 170.185C146.994 171.72 146.922 173.261 146.681 174.779C146.54 173.842 146.336 172.915 146.071 172.004C145.886 172.323 145.656 172.614 145.39 172.868C145.034 173.214 144.78 173.427 144.526 173.692C143.602 174.614 142.783 175.637 142.086 176.741C141.62 177.466 141.251 178.248 140.989 179.069C140.922 179.289 140.867 179.513 140.826 179.74C140.831 179.817 140.831 179.896 140.826 179.973C140.834 180.295 140.875 180.615 140.948 180.929C141.06 180.868 141.151 180.807 141.283 180.746C141.73 180.524 142.211 180.38 142.706 180.319C143.242 180.244 143.787 180.272 144.312 180.4C144.563 180.455 144.808 180.533 145.044 180.634C145.269 180.726 145.486 180.835 145.695 180.959C146.056 181.163 146.396 181.401 146.711 181.671C146.925 181.849 147.129 182.039 147.321 182.24L147.545 182.464L147.25 182.342C147.006 182.228 146.754 182.13 146.498 182.047C146.149 181.921 145.788 181.832 145.42 181.783C145.269 181.762 145.115 181.762 144.963 181.783C145.209 181.848 145.448 181.94 145.675 182.057C147.138 182.789 147.169 183.44 147.047 183.765L147.342 184.039H147.585C148.288 184.035 148.981 183.87 149.61 183.557C150.239 183.243 150.788 182.789 151.214 182.23L151.194 182.26ZM115.405 278.407L112.02 288.012L112.284 288.287C113.341 287.159 115.425 285.756 115.425 278.376L115.405 278.407ZM113.372 305.394C114.496 305.475 115.574 305.516 116.604 305.516C126.992 305.516 131.851 301.806 127.785 300.576C127.561 300.505 127.338 300.454 127.114 300.403C126.602 300.333 126.085 300.306 125.569 300.322C124.961 300.363 124.357 300.445 123.76 300.566C123.119 300.677 122.449 300.881 121.727 301.033C121.005 301.186 120.284 301.389 119.501 301.562C118.713 301.697 117.92 301.792 117.122 301.846C116.354 301.908 115.583 301.908 114.815 301.846C113.457 301.75 112.117 301.477 110.83 301.033C109.937 300.724 109.081 300.314 108.279 299.813C107.969 299.631 107.671 299.431 107.385 299.214L108.452 299.285C109.113 299.336 110.058 299.407 111.166 299.437C112.274 299.468 113.544 299.437 114.886 299.376C115.557 299.376 116.248 299.244 116.919 299.173C117.63 299.088 118.336 298.963 119.033 298.797H119.298C120.141 297.72 120.975 296.388 120.792 295.565C120.528 295.58 120.263 295.58 119.999 295.565C119.589 295.541 119.181 295.487 118.779 295.402C118.298 295.327 117.825 295.208 117.366 295.046C116.844 294.883 116.335 294.682 115.842 294.447C115.315 294.199 114.806 293.917 114.317 293.603C113.809 293.278 113.3 292.901 112.853 292.536C112.406 292.17 111.969 291.712 111.572 291.265C111.4 291.091 111.24 290.904 111.095 290.706L110.861 291.367C111.257 291.824 111.674 292.281 112.121 292.719C112.717 293.331 113.352 293.905 114.022 294.436C114.673 294.924 115.262 295.453 115.821 295.778C116.38 296.103 116.838 296.449 117.173 296.642L117.702 296.967L117.102 296.805C116.577 296.648 116.065 296.454 115.567 296.225C114.86 295.897 114.18 295.513 113.534 295.077C112.819 294.554 112.14 293.983 111.501 293.369C111.176 293.023 110.861 292.658 110.566 292.302L109.55 295.148C109.773 295.493 109.946 295.819 110.088 296.022L110.322 296.408L109.966 296.144C109.814 296.022 109.601 295.849 109.377 295.636L108.493 298.146C108.399 298.424 108.217 298.663 107.974 298.827L105.016 300.86L104.854 300.932C105.016 303.025 106.531 304.896 113.402 305.363L113.372 305.394ZM102.922 293.552L112.752 263.739C112.304 262.527 112.01 261.264 111.877 259.979C110.445 266.915 108.516 273.74 106.104 280.399C104.602 284.576 103.353 288.839 102.363 293.166C102.567 293.272 102.764 293.391 102.953 293.522L102.922 293.552ZM91.3857 319.289L91.8736 319.4C91.9032 319.297 91.927 319.192 91.9448 319.085C91.9868 318.598 91.9868 318.109 91.9448 317.622C91.9448 317.103 92.0159 316.605 92.0464 316.087C92.0769 315.568 92.1785 315.142 92.2192 314.745C92.2599 314.349 92.3717 314.034 92.4123 313.8L92.514 313.444L92.5953 313.81C92.5953 314.034 92.7071 314.369 92.7376 314.765C92.7681 315.162 92.8392 315.619 92.8494 316.107C92.8596 316.595 92.8494 317.124 92.8494 317.652C92.8359 318.192 92.7747 318.729 92.6664 319.258C92.6433 319.357 92.6092 319.452 92.5648 319.543C93.1156 319.639 93.6728 319.693 94.2318 319.705C94.2686 319.562 94.2925 319.416 94.3029 319.268C94.3316 318.896 94.3316 318.522 94.3029 318.15C94.3029 317.744 94.3029 317.337 94.3029 316.951C94.3029 316.565 94.3842 316.219 94.4147 315.934C94.4452 315.65 94.5265 315.375 94.557 315.192L94.6384 314.918L94.74 315.192C94.74 315.365 94.8823 315.619 94.9331 315.924C94.984 316.229 95.0754 316.575 95.1059 316.941C95.1364 317.307 95.1771 317.723 95.2076 318.13C95.2147 318.555 95.1875 318.98 95.1263 319.4C95.1064 319.513 95.0723 319.622 95.0246 319.726C95.4309 319.71 95.8354 319.663 96.2342 319.583C96.2385 319.533 96.2385 319.482 96.2342 319.431C96.2744 319.11 96.2744 318.786 96.2342 318.465V317.398C96.24 317.082 96.2638 316.766 96.3053 316.453C96.3309 316.227 96.3717 316.003 96.4273 315.782L96.4985 315.528L96.6001 315.772C96.6876 315.98 96.7623 316.194 96.8237 316.412C96.8237 316.687 96.9864 317.002 97.027 317.337C97.0677 317.672 97.1185 318.049 97.1592 318.404C97.1607 318.711 97.1369 319.017 97.088 319.319C97.2902 319.248 97.4844 319.156 97.6674 319.045C97.678 318.961 97.6985 318.879 97.7284 318.801C97.7926 318.562 97.8301 318.316 97.8402 318.069C97.8996 317.819 97.9337 317.563 97.9418 317.307C97.9418 317.052 98.013 316.809 98.0333 316.595C98.0536 316.382 98.1248 316.199 98.1451 316.066L98.2061 315.863L98.3179 316.046C98.4052 316.208 98.4832 316.374 98.5517 316.544C98.6353 316.785 98.6965 317.034 98.7347 317.286C98.7347 317.51 98.7347 317.764 98.7347 318.008C100.066 315.914 100.31 310.781 99.5682 307.437C99.1039 305.13 98.8521 302.786 98.816 300.433L98.2874 301.623L97.8808 302.416C97.8808 302.416 97.8808 302.1 97.9418 301.531L98.2976 299.183C98.4704 298.248 98.6737 297.15 98.8973 295.971C98.9989 295.544 99.1108 295.097 99.2226 294.66C99.3344 294.223 99.3649 293.867 99.4564 293.491C100.476 288.731 101.835 284.05 103.522 279.484C106.744 269.97 110.383 259.155 110.475 246.744C110.327 246.26 110.221 245.763 110.16 245.26C110.16 245.057 110.16 244.833 110.16 244.62C109.767 245.276 109.325 245.901 108.838 246.49C107.994 247.524 107.074 248.492 106.084 249.387C105.067 250.282 104.051 251.135 103.166 252.02C102.233 252.858 101.363 253.765 100.564 254.734C100.483 254.835 100.412 254.937 100.331 255.028C99.8731 256.685 99.2429 259.003 98.6838 261.818C98.3992 263.252 98.1248 264.817 97.8402 266.464C97.5556 268.11 97.3116 269.879 97.027 271.688C96.7424 273.497 96.5188 275.398 96.2037 277.309C95.8886 279.22 95.5938 281.172 95.1872 283.123C94.7807 285.075 94.3842 287.016 93.9167 288.927C93.9167 289.08 93.8455 289.232 93.8049 289.385C93.6727 290.655 93.5203 291.875 93.3576 293.023C93.0053 295.607 92.5099 298.169 91.8736 300.698C91.6398 301.613 91.4365 302.324 91.2841 302.812L91.1824 303.137V303.3C91.1824 303.595 91.1824 303.889 91.1113 304.174C90.908 306.99 90.725 309.368 90.5014 311.076C90.5014 312.092 90.5014 313.037 90.5014 313.851C90.3693 316.453 89.1495 318.699 91.4162 319.258L91.3857 319.289ZM63.2604 287.179C62.5895 288.277 60.8412 289.496 59.5097 290.604C59.3979 290.757 59.2962 290.94 59.1539 291.102C59.0116 291.265 58.8185 291.55 58.666 291.783C58.5136 292.017 58.3103 292.231 58.1578 292.454C58.0053 292.678 57.8935 292.81 57.7716 292.973C57.7211 293.378 57.7845 293.79 57.9545 294.162C58.042 293.86 58.1507 293.564 58.2798 293.278C58.4573 293.003 58.6544 292.741 58.8693 292.495C59.0753 292.299 59.304 292.128 59.5503 291.987C59.7239 291.883 59.9125 291.808 60.1094 291.763L60.333 291.712L60.211 291.905C60.1196 292.007 60.0281 292.2 59.8959 292.373C59.7638 292.546 59.652 292.79 59.4995 293.003C59.3407 293.228 59.2012 293.466 59.0828 293.715C58.9362 293.949 58.8071 294.193 58.6965 294.447C58.605 294.69 58.4526 294.914 58.3814 295.117C58.3814 295.117 58.3814 295.189 58.3814 295.229C58.3814 295.27 58.4627 295.554 58.5034 295.737C58.4986 295.822 58.4986 295.907 58.5034 295.992C58.6815 295.574 58.9176 295.184 59.2048 294.833C59.5199 294.467 59.835 294.101 60.1399 293.765C60.4448 293.43 60.7701 293.145 61.0242 292.891C61.2783 292.637 61.5426 292.454 61.7052 292.312L61.9797 292.119L61.8475 292.434C61.7357 292.617 61.6239 292.912 61.4308 293.217C61.2377 293.522 61.0344 293.908 60.7599 294.233L59.9163 295.382C59.6156 295.676 59.368 296.02 59.1844 296.398C59.0757 296.687 59.034 296.996 59.0625 297.303C59.2537 297.586 59.5032 297.825 59.7943 298.004C59.7916 297.762 59.8437 297.522 59.9468 297.303C60.0744 297.028 60.2385 296.771 60.4347 296.54C60.8412 296.144 61.2173 295.829 61.5833 295.524C61.9492 295.219 62.3253 294.924 62.5997 294.68C62.8742 294.436 63.1994 294.264 63.3824 294.131L63.7076 293.938L63.5145 294.264C63.3722 294.447 63.2096 294.741 62.9555 295.046C62.7014 295.351 62.4473 295.727 62.1118 296.063C61.7764 296.398 61.4003 296.815 61.0954 297.171C60.937 297.288 60.8085 297.442 60.7202 297.618C60.6319 297.795 60.5863 297.99 60.5871 298.187C60.5751 298.244 60.5751 298.303 60.5871 298.36C60.6717 298.365 60.7566 298.365 60.8412 298.36H60.9937C62.4777 298.36 65.9134 297.232 67.3669 294.894C68.8194 292.761 70.091 290.51 71.1684 288.165C71.1684 288.104 71.1684 288.043 71.1684 287.982C70.8884 288.5 70.5796 289.002 70.2435 289.486C70.0198 289.791 69.8165 290.015 69.6844 290.177L69.4811 290.411C69.4811 290.411 69.6742 290.015 69.9283 289.313C70.3213 288.364 70.6274 287.381 70.8432 286.376C71.1956 284.983 71.4436 283.567 71.5852 282.137C71.8088 280.572 71.9613 278.885 72.0934 277.177C72.2255 275.469 72.5406 273.741 72.8557 272.095C73.1899 270.626 73.6351 269.186 74.1873 267.785C74.6837 266.821 75.269 265.906 75.9356 265.051C76.1094 264.81 76.296 264.58 76.4947 264.359L76.6979 264.116C76.6979 264.116 76.5048 264.512 76.2507 265.223C75.9652 265.913 75.7308 266.624 75.5493 267.348C76.4193 265.277 77.5243 263.312 78.8427 261.493C79.6457 260.334 80.4385 259.216 81.0788 258.088C81.7001 256.927 82.1975 255.704 82.5629 254.439C83.3658 251.848 83.8705 249.175 84.0672 246.47C84.2211 244.44 84.2211 242.401 84.0672 240.371C80.7739 233.358 74.7362 229.312 69.3591 226.649C69.5624 228.204 69.8064 230.176 70.0402 232.463C70.1825 233.886 70.3451 235.431 70.4772 237.058C70.6094 238.684 70.772 240.402 70.8838 242.14C71.1129 244.057 71.1129 245.996 70.8838 247.913C70.6936 248.973 70.3513 250 69.8674 250.963C69.41 251.898 68.8509 252.731 68.4138 253.534C67.9458 254.268 67.5412 255.04 67.2043 255.842C66.9167 256.607 66.7321 257.406 66.6554 258.22C66.5602 259.922 66.6728 261.628 66.9908 263.302C67.2652 265.02 67.6007 266.748 67.743 268.446C67.8846 270.04 67.8506 271.646 67.6413 273.233C67.3642 275.48 66.733 277.669 65.771 279.718C65.1784 282.267 64.348 284.755 63.2909 287.148L63.2604 287.179ZM35.8873 169.707C35.8919 169.805 35.9126 169.901 35.9483 169.992H36.2837C36.2484 169.917 36.2301 169.836 36.2301 169.753C36.2301 169.67 36.2484 169.589 36.2837 169.514L36.5378 168.894C36.3565 168.942 36.1954 169.047 36.0783 169.193C35.9611 169.34 35.8942 169.52 35.8873 169.707Z" fill="#3C3B45" fill-opacity="0.25"/>
</svg>
