<svg width="228" height="457" viewBox="0 0 228 457" fill="none" xmlns="http://www.w3.org/2000/svg">
<path d="M223.196 230.124C223.219 229.952 223.219 229.779 223.196 229.607C223.196 229.012 222.96 228.441 222.541 228.019C222.122 227.597 221.553 227.358 220.958 227.354L191.381 155.977V139.78C191.745 139.373 191.983 138.869 192.065 138.329C192.148 137.789 192.072 137.236 191.847 136.739C191.621 136.241 191.256 135.82 190.795 135.527C190.335 135.233 189.798 135.08 189.252 135.085C188.699 135.072 188.154 135.225 187.687 135.523L170.645 146.212L171.428 114.256C179.409 106.885 188.047 98.0901 190.41 93.4266C195.105 84.1935 193.822 65.1796 193.384 62.1279C193.202 59.6482 193.202 57.1585 193.384 54.6788C193.745 50.5857 193.587 46.4633 192.914 42.4097C191.584 36.776 186.654 29.8903 183.9 26.3222L183.352 25.5867C180.457 21.6118 177.296 21.3614 174.511 21.1266C173.791 21.1266 173.071 21.0171 172.241 20.9075L171.193 20.7667C171.193 18.9514 170.958 17.2456 170.817 16.1658C171.259 14.7856 171.527 13.3557 171.615 11.9092C171.629 11.6271 171.586 11.3453 171.49 11.0797C171.558 10.8725 171.595 10.6562 171.6 10.4381C171.617 9.7609 171.414 9.09644 171.021 8.54455C171.437 8.10974 171.763 7.59695 171.981 7.03566C172.198 6.47437 172.303 5.87563 172.288 5.27383C172.288 2.14396 169.878 0 166.295 0C162.711 0 160.301 2.12831 160.301 5.27383C160.284 5.87455 160.386 6.47265 160.601 7.03388C160.816 7.59512 161.139 8.10847 161.553 8.54455C161.166 9.09836 160.968 9.76266 160.989 10.4381C160.989 10.6555 161.02 10.8717 161.083 11.0797C160.987 11.3453 160.945 11.6271 160.958 11.9092C161.106 13.364 161.437 14.7942 161.944 16.1658C161.85 16.87 161.741 17.8716 161.662 18.967C160.999 18.8725 160.329 18.8254 159.659 18.8262C153.634 18.8262 151.396 22.1908 151.318 25.0859C151.341 26.2328 151.636 27.3578 152.181 28.3675C152.725 29.3772 153.502 30.2426 154.448 30.8918C154.521 31.2431 154.621 31.5883 154.745 31.9247C154.248 32.9725 154.037 34.1335 154.135 35.2893C154.234 36.2553 154.538 37.1891 155.027 38.0279C154.669 39.7298 154.924 41.5037 155.747 43.0357C155.646 43.6628 155.646 44.3022 155.747 44.9293C155.953 46.2783 156.613 47.517 157.617 48.4414C158.621 49.3657 159.91 49.9208 161.271 50.0153C161.271 50.7665 161.271 51.5803 161.271 52.2845C161.271 55.9934 161.756 61.189 162.007 63.865C161.515 64.8323 161.283 65.9109 161.334 66.9949C161.351 67.5333 161.467 68.064 161.678 68.5598C161.132 70.1943 160.857 71.907 160.864 73.6302L161.177 88.0589C156.482 92.2842 148.423 98.6692 146.404 99.5925C144.629 100.197 142.808 100.658 140.958 100.97C137.199 101.652 133.499 102.63 129.894 103.896C126.272 105.225 122.924 107.209 120.019 109.749L119.206 109.639L117.844 109.483C117.165 108.902 116.527 108.274 115.935 107.605C115.245 106.87 114.713 106.002 114.37 105.054C113.99 104.15 113.876 103.157 114.041 102.19C114.245 101.199 114.245 100.177 114.041 99.1856C113.889 98.6558 113.584 98.1824 113.165 97.8241C113.275 97.5581 113.384 97.292 113.494 96.9947C115.109 92.6097 116.355 88.0974 117.218 83.5049C118.271 82.8954 119.173 82.0573 119.858 81.0524C120.544 80.0475 120.994 78.9015 121.178 77.699C121.703 75.8315 121.638 73.847 120.99 72.0183C122.045 70.8144 122.787 69.3683 123.149 67.8086C123.318 67.1538 123.543 66.515 123.822 65.8994C124.523 64.6953 124.801 63.2919 124.614 61.9115C124.427 60.5311 123.785 59.2525 122.789 58.2782C122.779 56.7394 122.224 55.2539 121.224 54.0842C122.257 51.1577 122.179 48.2 119.159 43.9434C118.41 42.7458 117.426 41.7123 116.267 40.9054C115.108 40.0985 113.797 39.5349 112.414 39.2486C112.005 39.1489 111.602 39.0235 111.209 38.873C110.816 38.4885 110.464 38.0636 110.16 37.6054C109.032 35.8983 107.486 34.5083 105.669 33.5679C103.686 32.7627 101.545 32.4201 99.4093 32.5663C97.5538 32.6401 95.6976 32.4398 93.9007 31.9716C92.7288 31.6103 91.5119 31.4154 90.2857 31.3926C86.822 31.5433 83.4911 32.7685 80.7553 34.8981L80.2232 35.258C79.8476 35.3519 79.1121 35.4458 78.5643 35.524C74.4642 36.1031 65.9353 37.3081 64.1826 46.1186C63.5566 49.2485 62.9306 49.9997 62.1638 50.8134C60.4991 52.5267 59.4057 54.7134 59.034 57.0732C58.7213 58.3515 58.6781 59.6809 58.9071 60.9768C59.1361 62.2727 59.6323 63.5068 60.3642 64.6005C60.5946 64.9332 60.851 65.2472 61.131 65.5395C60.6046 66.7853 60.2467 68.0957 60.0668 69.4362C59.8036 71.2337 60.2223 73.0647 61.2405 74.5692C59.9103 79.4048 63.7444 85.6645 65.059 87.6051C65.3563 88.0589 65.6693 88.4814 65.9666 88.8883C65.2763 89.9259 64.9615 91.1683 65.0746 92.4094C65.3925 93.8228 66.0658 95.1317 67.0308 96.2122C67.4681 96.7535 67.8264 97.3542 68.0949 97.9962C68.3084 98.6573 68.3726 99.3575 68.2827 100.046C68.0566 101.582 67.4663 103.042 66.5613 104.303C65.7524 105.496 65.0206 106.741 64.3704 108.027C64.0391 108.653 63.7667 109.308 63.5566 109.984C63.4645 110.412 63.4018 110.846 63.3688 111.283C63.2011 112.104 62.9494 112.907 62.6177 113.677C62.3436 114.365 61.9153 114.98 61.3657 115.477C60.7754 115.923 60.1141 116.267 59.4095 116.494C58.5736 116.768 57.8165 117.24 57.203 117.871C56.6918 118.522 56.3239 119.274 56.1232 120.077C55.943 120.73 55.702 121.364 55.4033 121.971C48.9022 123.832 43.1423 127.671 38.9245 132.957C34.6679 138.309 31.7571 149.342 29.4254 158.199C28.5803 161.329 27.7822 164.459 27.2188 165.914C22.9077 176.165 17.8823 186.101 12.1798 195.648C5.92006 205.945 -2.1863 227.276 -3.89208 235.225C-3.98597 235.617 -4.07987 236.008 -4.18941 236.415C-4.80273 236.035 -5.50327 235.82 -6.22383 235.789C-7.59171 235.786 -8.91858 236.256 -9.97968 237.119C-14.4397 240.249 -11.7168 247.119 -9.97968 250.859C-11.1221 253.132 -11.7928 255.613 -11.9515 258.152C-11.9618 259.83 -12.1083 261.505 -12.3897 263.159C-12.7324 265.283 -12.9363 267.426 -13 269.576C-13 275.272 -10.1988 279.294 -7.0063 283.238C-5.9503 284.586 -4.60092 285.675 -3.06069 286.424C-1.52046 287.172 0.170098 287.56 1.88253 287.557C2.26808 287.584 2.65504 287.584 3.04058 287.557C3.58831 289.45 4.38643 292.126 5.0437 294.114C4.73071 294.427 4.26123 294.849 3.9013 295.162C2.52329 296.223 1.3646 297.541 0.48974 299.043C-0.0150833 300.026 -0.191738 301.144 -0.0142937 302.234C0.163152 303.324 0.68535 304.328 1.47565 305.1C1.64767 305.291 1.80463 305.495 1.94513 305.71C2.17 306.081 2.48723 306.387 2.86579 306.598C3.24434 306.809 3.67126 306.918 4.10474 306.915C5.50884 306.705 6.82324 306.097 7.89188 305.162L47.829 418.464C47.5317 420.576 47.3126 422.924 47.2031 425.6C46.6866 438.229 49.4096 442.814 52.1952 445.772C49.6478 447.659 46.7393 449.001 43.6507 449.715C42.5986 449.879 41.6132 450.334 40.8057 451.028C39.9983 451.722 39.4009 452.628 39.081 453.643C38.683 455.151 38.7986 456.748 39.4097 458.182C38.2792 458.024 37.1396 457.94 35.9981 457.931C34.3292 457.922 32.668 458.159 31.0686 458.635C26.7337 459.966 25.5913 463.002 25.9356 465.396C26.9528 472.157 39.2845 474.551 49.5348 474.551C51.2406 474.551 53.009 474.551 54.793 474.363C62.6177 473.831 67.1873 472.188 69.8007 469.027C72.4142 465.866 72.0542 461.953 71.7569 459.434C71.7569 459.183 71.7569 458.902 71.7569 458.62L72.1012 457.415C72.203 457.057 72.203 456.677 72.1012 456.319L72.3829 455.975H72.4768C72.9341 461.45 72.6074 466.962 71.5065 472.344C70.2233 478.103 70.3954 488.401 74.026 492.767C75.4345 494.441 78.1731 496.46 83.2905 496.46C85.3286 496.436 87.3566 496.168 89.3311 495.662C95.5908 494.097 94.6675 487.962 94.3232 485.646C94.1847 484.796 94.0907 483.94 94.0416 483.08C94.0416 482.266 94.0416 481.39 94.0416 480.451C94.1426 475.199 93.6756 469.952 92.6488 464.801C91.569 459.512 90.5674 451.609 90.0197 446.961C91.3102 446.995 92.5967 447.12 93.8694 447.337C95.9844 447.868 97.9596 448.85 99.6597 450.216C101.96 451.781 104.574 453.565 107.844 453.565C109.906 453.542 111.907 452.862 113.556 451.625C114.902 450.67 116.06 449.762 117.062 448.933C118.095 450.858 119.3 452.767 120.426 454.551L121.537 456.304C124.667 461.327 131.381 463.675 134.965 463.675H135.45C139.472 463.424 142.367 460.545 143.274 456.132C143.36 455.695 143.496 455.269 143.681 454.864C144.128 453.918 144.38 452.891 144.423 451.846C144.466 450.8 144.299 449.756 143.932 448.776C143.134 446.476 141.037 444.817 138.595 442.892C137.411 442.027 136.316 441.047 135.325 439.966C134.213 438.135 131.115 427.368 130.364 423.143C130.126 420.845 130.269 418.524 130.786 416.273C131.068 414.551 131.397 412.423 131.678 409.825C132.104 406.116 132.324 402.385 132.336 398.652C137.938 398.245 147.218 396.132 150.974 386.93C152.648 382.846 155.669 379.966 158.564 377.181C162.414 373.487 166.795 369.356 166.201 362.783C165.434 354.286 159.049 343.519 152.993 343.519C152.657 343.518 152.321 343.55 151.991 343.613C149.516 344.333 147.201 345.518 145.168 347.103C144.558 346.448 144.131 345.643 143.932 344.771C143.459 341.175 143.224 337.552 143.227 333.926C142.946 325.24 142.602 314.458 140.379 307.588C138.951 303.142 138.223 298.502 138.22 293.832C138.149 290.531 137.867 287.238 137.375 283.973C137.038 281.43 136.855 278.87 136.827 276.305C139.237 276.305 141.819 276.414 144.652 276.414C161.584 276.414 170.254 275.131 174.604 271.97C178.11 269.419 179.518 268.277 179.518 265.35C179.518 262.753 177.03 262.08 174.683 261.829C174.699 261.658 174.699 261.485 174.683 261.313C174.683 260.719 174.447 260.15 174.027 259.73C173.608 259.311 173.038 259.075 172.445 259.075L165.152 241.485C169.988 243.817 178.454 244.787 193.133 244.787C210.05 244.787 218.72 243.488 223.07 240.327C226.576 237.792 228 236.634 228 233.707C228 231.047 225.543 230.358 223.196 230.124ZM113.76 430.388L111.631 424.645L114.542 441.578C113.243 441.672 111.318 442.094 108.877 442.423C108.877 442.188 108.877 441.969 108.877 441.703C108.877 441.014 108.877 440.138 108.877 439.324C108.877 438.51 108.705 437.525 108.595 436.586C108.486 435.647 108.236 434.77 108.032 433.91C107.836 433.137 107.601 432.374 107.328 431.625C107.109 430.967 106.827 430.435 106.671 430.06L106.389 429.481C106.389 429.481 106.389 429.716 106.389 430.122C106.389 430.529 106.389 431.124 106.53 431.813C106.671 432.501 106.671 433.299 106.811 434.144C106.952 434.989 107.077 435.897 107.187 436.805C107.297 437.712 107.5 438.604 107.641 439.465C107.782 440.326 107.969 441.03 108.079 441.781C108.079 442.032 108.189 442.266 108.236 442.485C106.357 442.722 104.463 442.816 102.57 442.767C102.293 439.528 101.849 436.305 101.24 433.111C100.35 428.443 99.1365 423.841 97.6096 419.34C97.9894 424.025 98.0417 428.732 97.7661 433.424C97.594 436.554 97.1871 439.684 96.8115 442.125C94.5642 441.602 92.3772 440.847 90.2857 439.872C90.4579 436.007 90.5674 430.764 90.2857 425.537C89.9329 418.733 89.1436 411.959 87.9227 405.256C88.4018 411.98 88.4541 418.728 88.0792 425.459C88.0792 427.196 87.8601 428.933 87.7036 430.608C87.7036 428.604 87.7818 426.554 87.7036 424.489C87.6097 421.202 87.4219 417.869 87.1089 414.52C86.7959 411.171 86.2325 407.869 85.544 404.598C84.8722 401.374 83.8706 398.228 82.5549 395.209C81.2532 392.383 79.5681 389.75 77.5471 387.384C75.7943 385.317 73.9293 383.347 71.9603 381.484C69.0828 378.768 66.3854 375.866 63.8853 372.799C62.9932 371.672 62.3203 370.78 61.8508 370.138L61.131 369.184L61.6474 370.264C61.9604 370.984 62.4768 372.001 63.2123 373.268C64.5992 375.72 66.1685 378.063 67.9071 380.279C66.6961 379.28 65.5415 378.214 64.4486 377.087C63.2503 375.818 62.1467 374.464 61.1466 373.034C60.4737 372.048 59.879 371.077 59.3313 370.123C58.2515 361.187 54.6365 350.295 51.757 345.35C47.9855 338.871 40.8964 310.374 41.6475 293.05C41.8823 287.792 42.3205 283.112 42.8682 278.809C42.9621 279.482 43.056 280.155 43.1499 280.875C43.4159 282.127 43.635 283.425 43.948 284.74C44.261 286.055 44.5896 287.385 45.0747 288.715C45.9442 291.473 47.0327 294.158 48.3298 296.743C49.6571 299.371 51.1251 301.926 52.7273 304.396C54.3705 306.852 56.0762 309.216 57.6881 311.547C59.3 313.879 60.818 316.164 62.3829 318.417C65.0597 322.487 67.4093 326.762 69.4095 331.203C70.7989 334.379 71.8836 337.68 72.6489 341.062C72.9462 342.283 73.0871 343.269 73.1966 343.941L73.3688 344.99C73.3688 344.99 73.3688 344.614 73.3688 343.941C73.4295 342.946 73.4295 341.948 73.3688 340.952C73.2449 337.364 72.6504 333.807 71.6004 330.373C70.0968 325.526 68.0383 320.868 65.4658 316.492C64.0887 314.098 62.6333 311.626 61.0214 309.247C59.4095 306.868 57.7507 304.458 56.2171 302.048C54.628 299.718 53.1653 297.305 51.8353 294.818C50.5692 292.424 49.4457 289.958 48.4706 287.432C47.9699 286.211 47.6256 284.959 47.1718 283.754C46.7179 282.549 46.4675 281.328 46.1232 280.155L45.3095 276.681C45.0904 275.554 44.8713 274.458 44.6679 273.394C44.4644 272.33 44.261 270.875 44.1045 269.717C45.1217 263.645 46.2484 258.058 47.1092 252.158C48.5489 242.174 53.8227 224.427 56.89 215.742C60.6458 218.496 68.7053 220.077 80.9587 220.437C82.6801 220.437 84.3546 220.515 86.0134 220.515C98.0199 220.666 109.99 219.16 121.584 216.039C120.52 216.54 119.394 217.025 118.235 217.479C114.755 218.828 111.163 219.871 107.5 220.593C111.27 220.574 115.03 220.218 118.736 219.529C120.851 219.126 122.941 218.604 124.996 217.964C125.481 222.064 125.888 226.634 126.217 231.235L116.827 258.981C116.525 259.005 116.231 259.09 115.962 259.23C115.693 259.369 115.455 259.562 115.262 259.795C115.888 258.23 116.514 256.665 117.109 255.1C118.548 250.906 119.847 246.649 120.896 242.581C121.944 238.512 122.664 234.756 123.196 231.438C123.494 229.873 123.681 228.308 123.838 226.947C123.994 225.585 124.135 224.443 124.214 223.473L124.48 220.437C124.48 220.437 124.276 221.532 123.947 223.441C123.807 224.396 123.572 225.554 123.306 226.869C123.04 228.183 122.758 229.67 122.414 231.297C121.772 234.537 120.755 238.261 119.706 242.252C118.658 246.243 117.265 250.437 115.763 254.568C114.871 257.072 113.932 259.544 112.946 261.939C111.209 262.361 109.816 263.222 109.816 265.194C109.783 266.126 109.999 267.049 110.442 267.87C108.955 271.141 107.531 274.13 106.154 276.759C105.403 278.245 104.683 279.576 104.026 280.749C103.369 281.923 102.836 282.972 102.336 283.801L100.771 286.446C100.771 286.446 101.412 285.538 102.508 283.942C103.056 283.144 103.697 282.158 104.433 281.031C105.168 279.904 105.998 278.59 106.78 277.15C108.189 274.756 109.691 271.97 111.193 268.95C112.264 270.012 113.432 270.971 114.683 271.814C115.177 272.179 115.701 272.504 116.248 272.784L116.154 272.956C115.356 274.521 114.417 276.164 113.525 277.76C112.633 279.357 111.71 280.89 110.708 282.455C109.707 284.02 108.799 285.491 107.844 286.931C106.89 288.371 105.966 289.748 105.012 291.031C104.057 292.314 103.228 293.551 102.383 294.646L96.6863 302.111C96.6863 302.111 97.4844 301.61 98.8459 300.64C99.5345 300.186 100.333 299.56 101.24 298.824C102.148 298.089 103.149 297.259 104.182 296.289C105.215 295.319 106.358 294.239 107.469 293.034C108.58 291.829 109.722 290.53 110.865 289.137C112.007 287.745 113.134 286.289 114.151 284.693C115.168 283.097 116.201 281.563 117.203 279.873C118.204 278.183 119.034 276.508 119.816 274.787C119.914 274.609 120.003 274.426 120.082 274.239C122.797 274.939 125.566 275.405 128.361 275.632C128.987 297.745 127.766 304.333 128.361 315.632C128.767 323.769 125.121 334.411 124.198 339.826C123.077 340.566 121.917 341.245 120.724 341.86C118.924 342.83 117.03 343.754 115.153 344.74C113.269 345.712 111.469 346.837 109.769 348.104C108.662 348.935 107.616 349.846 106.639 350.827C104.786 352.147 103.08 353.663 101.553 355.35C100.871 356.13 100.243 356.956 99.6753 357.822C99.108 358.708 98.5857 359.622 98.1104 360.561C97.6699 361.553 97.2936 362.572 96.9836 363.613C96.6911 364.641 96.4612 365.686 96.2951 366.743C95.6019 371.03 95.3971 375.382 95.6847 379.716C95.9787 384.202 96.7873 388.639 98.0947 392.94C98.7681 395.168 99.6756 397.319 100.802 399.356C101.976 401.375 103.306 403.159 104.527 404.88C106.95 408.092 108.924 411.62 110.395 415.365C111.064 417.156 111.588 418.998 111.96 420.874C112.336 422.799 112.711 424.676 113.071 426.492C113.259 427.869 113.525 429.136 113.76 430.388ZM3.7761 304.63C2.99364 303.331 1.22526 302.377 2.41461 299.935C3.19708 298.277 5.54448 296.633 6.71818 295.397L6.79643 295.491C7.13199 295.021 7.55753 294.622 8.04838 294.317C8.58504 293.931 9.15001 293.586 9.73851 293.284C9.05591 293.239 8.37103 293.239 7.68844 293.284C7.47814 293.295 7.26891 293.321 7.06247 293.363C5.95136 290.014 4.41773 284.63 4.41773 284.63C4.81031 284.183 5.24531 283.774 5.71662 283.41L9.73851 288.543L9.59766 286.148L12.5397 290.483L11.8981 285.194C12.5867 286.853 13.4631 289.137 14.3551 291.454L14.1673 291.547C13.244 292.017 12.4145 292.565 12.4145 292.565C13.0713 292.528 13.7296 292.528 14.3864 292.565C15.0009 292.582 15.6108 292.676 16.2017 292.846V292.705C18.7056 293.159 22.9153 292.471 23.2908 294.599C23.5038 296.078 23.5038 297.58 23.2908 299.059C22.2251 298.881 21.1475 298.781 20.0671 298.762C21.632 298.496 22.8214 298.277 22.8214 298.277C21.8431 297.747 20.7865 297.377 19.6915 297.181C17.9542 296.823 16.1649 296.797 14.4177 297.103C13.7416 297.225 13.0768 297.403 12.4302 297.635L11.992 297.792L11.726 297.885L11.5069 297.995L10.6149 298.417C10.0756 298.712 9.55316 299.036 9.04994 299.388C8.11424 300.001 7.24839 300.715 6.46779 301.516C5.68468 302.277 5.01531 303.146 4.48033 304.098L7.37546 302.799L8.17357 302.439C6.96486 303.425 5.60732 304.212 4.15169 304.771C4.08222 304.79 4.00863 304.786 3.94127 304.761C3.8739 304.736 3.81614 304.69 3.7761 304.63ZM33.5099 159.091L33.6351 159.404C34.557 160.936 35.7195 162.31 37.0779 163.473C38.6853 164.776 40.4788 165.831 42.3987 166.603C44.3414 167.228 46.3552 167.607 48.3924 167.73C49.2844 167.73 50.1608 167.73 50.9745 167.605L50.6303 167.996C50.0512 168.684 49.394 169.451 48.721 170.312C49.0497 170.312 49.3783 170.453 49.6913 170.484C50.4112 170.594 51.0371 170.75 51.4597 170.797L52.1482 170.907L51.4753 171.063C50.872 171.186 50.2596 171.259 49.6443 171.282C48.7748 171.358 47.9004 171.358 47.0309 171.282C46.0343 171.134 45.0469 170.931 44.0732 170.672L42.6491 170.14H42.4144C41.1611 169.764 39.9578 169.239 38.8307 168.575C37.7824 168.065 36.791 167.446 35.8729 166.728C35.1461 166.266 34.4602 165.743 33.8229 165.163C33.3221 164.772 33.0404 164.522 33.0404 164.522C33.0404 164.522 33.1499 164.866 33.3847 165.492C33.7789 166.317 34.2339 167.113 34.7462 167.871C35.5794 168.847 36.5131 169.734 37.5318 170.515C38.7769 171.4 40.128 172.126 41.5536 172.675C43.0132 173.085 44.5149 173.326 46.0294 173.395H46.4675C46.1702 173.802 45.8729 174.224 45.5755 174.678C45.9269 174.755 46.2821 174.812 46.6397 174.85C47.1874 174.85 47.6569 175.038 47.9855 175.054L48.5019 175.148L48.0325 175.21C47.5879 175.351 47.1326 175.456 46.671 175.523C46.0183 175.619 45.3584 175.656 44.6992 175.633C43.9429 175.577 43.1905 175.477 42.4457 175.335C41.7164 175.123 41.0005 174.867 40.3017 174.568C39.6987 174.288 39.1225 173.952 38.5803 173.567L38.4081 173.473C37.1453 172.87 35.988 172.066 34.9809 171.094C33.9964 170.278 33.123 169.336 32.3831 168.293C32.0132 167.839 31.6784 167.358 31.3816 166.853C31.9919 165.085 32.7274 162.284 33.5881 159.029L33.5099 159.091ZM59.8947 125.242C65.4345 123.88 73.0088 117.214 78.0949 114.725L78.6895 103.458C83.5759 107.44 89.7277 109.539 96.029 109.373C97.0116 109.365 97.9913 109.266 98.9555 109.076C99.3761 114.097 99.3447 119.146 98.8616 124.162C101.013 122.459 103.056 120.625 104.98 118.669C108.236 114.944 113.228 119.405 118.001 117.511C119.724 116.936 121.227 115.843 122.304 114.381C122.085 115.101 121.85 115.852 121.569 116.65C120.584 119.686 119.289 122.613 117.703 125.383C115.968 128.588 113.918 131.613 111.584 134.412C109.34 137.305 106.87 140.015 104.198 142.519C102.102 144.658 99.8474 146.635 97.4531 148.434H97.0149C96.4948 148.125 95.9373 147.883 95.3561 147.714C94.6189 147.612 93.8711 147.612 93.1339 147.714C92.4179 147.939 91.738 148.266 91.1151 148.684C90.6437 149.12 90.2236 149.609 89.8632 150.14C89.7316 150.434 89.6217 150.737 89.5345 151.048C88.8594 150.869 88.1957 150.649 87.5471 150.39C85.0429 149.502 82.6276 148.381 80.3327 147.041C77.7 145.574 75.2158 143.855 72.9149 141.908C70.527 140.039 68.3258 137.943 66.3422 135.649C64.5361 133.704 62.8975 131.61 61.444 129.389C60.5585 128.128 59.7385 126.822 58.987 125.476L59.8947 125.242ZM73.181 107.339C73.0474 106.211 73.0474 105.071 73.181 103.943C73.2896 102.951 73.4887 101.972 73.7757 101.017L73.9634 100.484C74.1512 100.766 74.3547 101.032 74.5268 101.267L73.9478 112.221C73.5566 112.441 73.1653 112.707 72.7741 112.957C73.0248 112.348 73.178 111.704 73.2279 111.048C73.2856 109.812 73.2699 108.573 73.181 107.339ZM82.3202 64.0997C85.1058 63.3486 85.2623 60.7977 85.3562 59.2797C85.4657 57.4018 85.497 57.261 86.8429 57.3236C88.3236 57.4086 89.7946 57.618 91.2403 57.9495C93.1216 58.533 95.1445 58.4669 96.9836 57.7618C98.8772 57.0419 99.4249 57.2923 102.445 58.9824C103.196 59.4049 104.01 59.9057 105.121 60.4534C107.315 61.5665 109.775 62.0486 112.226 61.8462C112.57 61.8462 113.024 61.8462 113.306 61.8462C113.298 62.3279 113.261 62.8086 113.196 63.286C113.024 64.0371 112.868 64.9448 112.727 65.9933C112.727 66.275 112.727 66.588 112.727 66.8853C112.618 66.7982 112.503 66.7197 112.383 66.6506C111.484 66.1144 110.499 65.7384 109.472 65.5395C107.234 65.1795 104.777 65.1013 102.132 64.8979C99.4875 64.6944 96.5924 64.8979 93.7286 64.8979C90.8647 64.8979 88.0009 65.4925 85.3405 65.9777C82.9366 66.4925 80.5644 67.1456 78.2357 67.9338C76.6708 68.5129 75.4658 69.0762 74.4486 69.4988C74.5887 69.1661 74.8023 68.8694 75.0733 68.6309C75.3443 68.3925 75.6657 68.2184 76.0135 68.1216C77.2045 67.6436 78.2738 66.9058 79.1434 65.962C79.9947 65.0405 81.1003 64.3924 82.3202 64.0997ZM112.805 100.093C112.766 100.645 112.6 101.181 112.32 101.658C111.963 102.29 111.571 102.901 111.146 103.489C110.739 104.194 110.448 104.96 110.286 105.758C110.192 106.307 110.192 106.868 110.286 107.417C109.566 107.135 108.877 106.901 108.251 106.697V106.228C110.093 104.076 111.602 101.66 112.727 99.0604C112.82 99.3962 112.847 99.7472 112.805 100.093ZM71.9603 73.8806C72.8317 72.853 73.5294 71.6901 74.026 70.4377C75.1841 70.1404 76.7334 69.7648 78.6113 69.4518C80.9458 68.9561 83.3078 68.6007 85.6848 68.3877C88.267 68.0434 91.0525 67.8243 93.8381 67.7147C95.8882 67.5426 97.9226 67.4487 99.9257 67.3861L97.5157 67.9808C95.619 68.5508 93.6909 69.0107 91.7411 69.3579C90.0412 69.7429 88.3228 70.0406 86.5925 70.2499C85.0275 70.516 83.7912 70.6725 82.8836 70.7664L81.4438 70.9698L82.8679 71.3141C83.7599 71.4706 85.0745 71.674 86.6551 71.8305C88.464 71.9229 90.2765 71.9229 92.0854 71.8305C94.1612 71.5995 96.2205 71.2389 98.2512 70.7507C100.27 70.1404 102.211 69.4675 104.026 69.0293C105.652 68.4777 107.349 68.1615 109.065 68.0903C110.27 67.978 111.486 68.0625 112.664 68.3407C112.664 69.264 112.664 70.2343 112.664 71.2358C112.664 72.2374 112.868 73.1764 112.962 74.1779C112.969 74.2088 112.969 74.2409 112.962 74.2718H112.117C111.249 73.8155 110.35 73.4232 109.425 73.0981C107.88 72.5403 106.28 72.1469 104.652 71.9244C102.766 71.7137 100.867 71.6457 98.9711 71.721C97.0926 71.8493 95.2223 72.0791 93.3686 72.4095C91.6159 72.7069 90.004 73.0981 88.6738 73.3172C87.3436 73.5363 86.123 73.7554 85.2936 73.818C84.4642 73.8806 83.979 73.9275 83.979 73.9275C83.979 73.9275 84.4485 73.9275 85.2936 74.084C86.4504 74.1585 87.6109 74.1585 88.7677 74.084C90.2075 73.9745 91.8976 73.8336 93.6347 73.5833C95.4559 73.3283 97.2895 73.1716 99.1276 73.1138C100.951 72.9729 102.782 72.9729 104.605 73.1138C106.185 73.2436 107.754 73.4842 109.3 73.8336L110.552 74.1466C109.456 74.1466 108.236 74.1466 107.015 74.1466C104.496 74.2766 101.994 74.6222 99.5345 75.1795C101.569 75.3123 103.592 75.5789 105.591 75.9776C102.461 76.1028 99.331 76.4314 96.0447 76.807H95.8099C94.245 76.807 92.5862 76.807 90.943 76.807C88.9868 76.807 87.0463 76.6818 85.231 76.5097C83.4156 76.3375 81.7099 76.2123 80.2701 75.9932C78.8304 75.7742 77.5941 75.6646 76.749 75.5238L75.4032 75.336L76.6864 75.7898C77.5002 76.0402 78.6739 76.4471 80.1293 76.7757C81.7711 77.1769 83.432 77.4955 85.1058 77.7303C86.1856 77.8712 87.3436 77.9651 88.5017 78.059C87.4688 78.2311 86.4516 78.3876 85.4814 78.5128C82.5637 79.1034 79.5572 79.1034 76.6395 78.5128C74.5815 78.0009 72.6763 77.0027 71.084 75.602L70.4893 75.1951C71.046 74.8375 71.5425 74.3938 71.9603 73.8806ZM90.9273 150.359C91.1883 149.974 91.5171 149.64 91.8976 149.373C92.3325 149.043 92.8301 148.804 93.3601 148.672C93.8902 148.541 94.4415 148.518 94.9805 148.606C95.441 148.683 95.8853 148.836 96.2951 149.06C96.5786 149.226 96.8368 149.431 97.0619 149.67L97.281 149.952H96.921C96.7176 149.952 96.389 149.952 96.0603 149.874C95.6747 149.85 95.2879 149.85 94.9023 149.874C94.4895 149.889 94.0799 149.952 93.6816 150.062C93.2688 150.127 92.868 150.254 92.4923 150.437C92.1331 150.577 91.783 150.739 91.4438 150.922C91.1621 151.11 90.8647 151.235 90.6926 151.376L90.3953 151.564V151.22C90.5297 150.908 90.7089 150.618 90.9273 150.359ZM87.6097 154.35C88.6425 154.13 89.6284 153.943 90.5674 153.724C90.5674 155.038 90.5674 156.76 90.317 158.81C90.317 159.608 90.1605 160.468 90.051 161.36C89.645 161.77 89.2166 162.157 88.7677 162.519C87.5234 163.583 86.1762 164.522 84.7458 165.32C83.3218 166.29 81.8194 167.229 80.4266 168.215C79.1906 169.191 78.0437 170.275 76.9994 171.454C76.3163 172.341 75.7435 173.308 75.2936 174.334C75.1516 174.729 75.0314 175.131 74.9337 175.539C75.1885 175.217 75.4656 174.914 75.7631 174.631C76.455 173.855 77.244 173.171 78.1105 172.597C79.2637 171.71 80.4946 170.93 81.7881 170.265C83.1496 169.436 84.6989 168.7 86.2638 167.714C87.3865 166.961 88.4582 166.135 89.472 165.241C88.8766 168.624 87.9109 171.93 86.5925 175.101C85.426 177.852 83.8425 180.406 81.8977 182.675C80.1459 184.626 78.1344 186.326 75.9196 187.73C74.3057 188.75 72.6098 189.635 70.8492 190.374C69.566 190.906 68.7992 191.141 68.7992 191.141C68.7992 191.141 69.5973 191.016 70.9588 190.672C72.8464 190.181 74.6892 189.532 76.4673 188.731C79.0345 187.594 81.4268 186.098 83.5721 184.287C86.028 182.109 88.1387 179.571 89.8319 176.759C92.3352 172.526 94.2516 167.972 95.5282 163.223C97.3709 167.04 99.8832 170.496 102.946 173.426C107.292 177.526 112.957 179.945 118.924 180.249C120.817 180.313 122.71 180.134 124.558 179.717C125.888 179.42 126.608 179.185 126.608 179.185C126.608 179.185 125.857 179.31 124.511 179.42C122.686 179.564 120.851 179.474 119.049 179.154C116.547 178.704 114.146 177.808 111.96 176.509C109.492 175.083 107.306 173.216 105.513 171C102.907 167.614 100.993 163.748 99.8788 159.623C101.026 160.503 102.245 161.283 103.525 161.955C106.174 163.355 109.034 164.312 111.991 164.788C112.945 164.939 113.906 165.039 114.871 165.085H115.966L114.902 164.866C113.988 164.72 113.083 164.517 112.195 164.256C109.497 163.357 106.969 162.014 104.714 160.281C102.521 158.627 100.645 156.591 99.1745 154.271L98.8772 153.786C102.211 154 105.555 154.036 108.893 153.896L123.275 153.458L108.955 151.736C107.109 151.517 105.278 151.282 103.588 151.016C108.425 149.739 113.11 147.945 117.563 145.664C119.96 144.388 122.216 142.862 124.292 141.11C127.365 138.502 129.892 135.311 131.725 131.721C132.257 130.656 132.508 130.03 132.508 130.03C132.508 130.03 132.195 130.625 131.569 131.595C130.69 132.967 129.695 134.26 128.595 135.461C127.065 137.166 125.342 138.689 123.462 139.999C121.33 141.48 119.042 142.724 116.639 143.708C114.977 144.39 113.28 144.98 111.553 145.476C117.244 142.098 122.415 137.912 126.905 133.051C128.955 130.829 130.176 129.232 130.176 129.232C130.176 129.232 128.752 130.656 126.436 132.566C123.63 134.888 120.642 136.982 117.5 138.825C115.606 139.936 113.681 140.922 111.851 141.767C114.808 139.326 117.312 137.229 119.472 135.508C127.766 128.528 130.88 125.93 136.686 123.254C137.14 123.051 137.562 122.879 137.985 122.722C138.22 123.035 138.439 123.333 138.689 123.614C139.821 124.838 141.092 125.925 142.476 126.854H142.57L142.242 127.182C140.452 129.124 138.964 131.324 137.828 133.708C137.547 134.365 137.249 135.101 137.046 135.758L136.796 136.541L136.53 137.526C136.201 138.794 135.966 139.952 135.747 141.11C135.293 143.88 134.98 146.4 134.558 148.7C134.354 149.044 134.167 149.404 133.947 149.733C132.849 151.765 131.599 153.711 130.207 155.555C129.053 157.212 127.776 158.781 126.389 160.249C125.416 161.361 124.371 162.407 123.259 163.379C122.492 164.115 122.023 164.506 122.023 164.506C122.023 164.506 122.586 164.287 123.588 163.833C124.915 163.135 126.196 162.35 127.422 161.486C128.685 160.479 129.887 159.397 131.021 158.246C130.408 159.515 129.956 160.856 129.675 162.237C129.438 163.374 129.261 164.524 129.143 165.68C128.65 169.891 128.65 174.145 129.143 178.356C129.143 178.669 129.253 178.982 129.315 179.295L128.94 179.701C128.501 180.218 127.922 180.813 127.265 181.486C126.608 182.158 125.919 182.957 125.106 183.755C123.541 185.414 121.553 187.213 119.472 189.107C118.408 190.03 117.281 190.953 116.138 191.892C114.996 192.831 113.791 193.708 112.586 194.6C111.381 195.492 110.176 196.368 108.908 197.135C107.641 197.902 106.436 198.7 105.231 199.451C104.026 200.202 102.836 200.859 101.678 201.438C100.52 202.017 99.4406 202.643 98.4077 203.129C97.3749 203.614 96.4203 204.099 95.5596 204.49C94.6988 204.881 93.9946 205.257 93.3373 205.523C92.0854 206.071 91.3812 206.431 91.3812 206.431C91.3812 206.431 92.1636 206.431 93.5408 206.337C94.3752 206.285 95.2059 206.186 96.029 206.039C97.0854 205.902 98.1311 205.693 99.1589 205.413C100.419 205.14 101.658 204.779 102.868 204.334C104.237 203.89 105.58 203.367 106.89 202.769C108.22 202.096 109.66 201.485 110.99 200.64C112.32 199.795 113.681 198.935 115.027 198.058C116.373 197.182 117.563 196.102 118.736 195.038C119.91 193.974 120.974 192.847 122.038 191.798C123.388 190.314 124.643 188.746 125.794 187.104C125.34 187.964 124.871 188.825 124.37 189.686C122.132 193.636 119.655 197.446 116.952 201.094C120.271 197.88 123.386 194.461 126.279 190.859C128.001 188.731 129.581 186.493 130.974 184.6C131.115 184.975 131.271 185.351 131.428 185.727L131.725 186.352L131.866 186.665V186.822C131.866 186.822 131.71 186.337 131.788 186.587L132.007 187.182C132.075 187.338 132.127 187.501 132.163 187.667C132.163 187.87 132.273 187.964 132.304 188.277C132.483 189.596 132.483 190.933 132.304 192.252C132.138 193.552 131.881 194.838 131.537 196.102C130.999 198.236 130.238 200.308 129.268 202.284C128.68 203.475 127.977 204.607 127.171 205.664C120.473 208.418 104.73 212.503 83.134 211.814C73.2279 211.501 67.735 210.374 64.699 209.294C66.4163 209.224 68.114 208.902 69.7381 208.34C71.1517 207.879 72.5191 207.287 73.8226 206.571C75.2877 205.81 76.6947 204.942 78.0323 203.974C79.4627 202.96 80.8318 201.863 82.1324 200.687C83.4626 199.482 84.7458 198.215 85.9978 196.916C87.2497 195.617 88.3765 194.193 89.472 192.8C90.5674 191.407 91.5533 189.967 92.5079 188.575C94.21 186.019 95.6917 183.322 96.9367 180.515C97.8456 178.534 98.5585 176.469 99.065 174.349C99.2371 173.583 99.3623 172.972 99.4093 172.55V171.908L99.0963 172.471C98.9085 172.847 98.5955 173.379 98.2199 174.036C97.4218 175.351 96.2325 177.166 94.7458 179.31C93.2591 181.454 91.4125 183.849 89.3937 186.384C88.4078 187.651 87.2967 188.903 86.2638 190.202C85.231 191.501 84.026 192.8 82.8053 193.989C81.5847 195.179 80.4736 196.493 79.2686 197.651C78.0636 198.809 76.8742 199.967 75.6536 201C74.4329 202.033 73.2749 203.019 72.0855 203.848C70.8962 204.678 69.7694 205.413 68.674 206.086C66.9041 207.125 64.9971 207.91 63.0089 208.418H62.7585C61.9202 208.061 61.199 207.475 60.6771 206.728C61.2896 205.107 61.6894 203.413 61.8665 201.689C62.4753 201.376 63.0519 201.004 63.5879 200.578C64.0972 200.139 64.5732 199.663 65.012 199.154C65.4098 198.666 65.7609 198.142 66.0605 197.589C66.5961 196.704 67.0367 195.765 67.3751 194.787C67.6367 194.101 67.8614 193.401 68.048 192.69L68.2827 191.83C67.9877 191.91 67.6999 192.015 67.422 192.143C66.7192 192.455 66.0527 192.843 65.4345 193.301C64.6329 193.905 63.865 194.553 63.1341 195.241C62.7742 195.617 62.3516 195.93 62.0073 196.29C61.6628 196.632 61.2912 196.946 60.8962 197.229C60.5568 197.547 60.1902 197.835 59.8008 198.089C59.4252 198.309 59.0809 198.59 58.721 198.762C58.361 198.935 58.0168 199.122 57.6568 199.263C57.3083 199.379 56.9529 199.473 56.5927 199.545C56.3138 199.598 56.0313 199.629 55.7476 199.639C55.4029 198.975 55.2717 198.221 55.372 197.479C55.5911 191.971 58.5019 195.586 57.1091 190.171C56.9267 189.562 56.837 188.929 56.8431 188.293C56.9477 188.037 57.0844 187.795 57.2499 187.573C57.6475 186.88 58.1795 186.274 58.8149 185.789C59.3813 185.181 60.0291 184.655 60.7397 184.224C61.3646 183.725 62.0235 183.27 62.7116 182.863C63.3062 182.409 63.8227 182.049 64.1826 181.799L64.7303 181.329H64.0105C63.5566 181.329 62.9306 181.329 62.1482 181.439C61.2702 181.598 60.4067 181.828 59.566 182.127C58.8252 182.485 58.1182 182.91 57.4534 183.395C54.9182 179.467 59.0183 180.374 59.4878 171.877C59.4878 171.094 59.4878 170.312 59.566 169.67C61.131 162.252 68.4392 158.919 80.1919 155.914C83.0714 155.257 85.4814 154.772 87.6097 154.35ZM161.725 94.256H168.532V95.6488H168.376L165.778 95.821L162.022 96.0401L165.778 96.3218L168.329 96.4939L168.141 96.9008H162.429L161.772 96.0244V94.2404L161.725 94.256ZM159.644 37.6836C160.171 37.3455 160.746 37.0871 161.349 36.9168C162.742 36.4539 164.179 36.1392 165.637 35.9779C167.109 35.7562 168.594 35.6411 170.082 35.6336C171.506 35.6336 172.852 35.6336 174.01 35.6336C175.168 35.6336 176.138 35.6336 176.827 35.6336H177.922L176.889 35.3832C176.216 35.2423 175.324 35.0076 174.119 34.8355C172.788 34.6071 171.445 34.4504 170.097 34.366C168.53 34.3057 166.961 34.3632 165.403 34.5381C163.856 34.7657 162.339 35.1646 160.88 35.7275C160.321 35.953 159.794 36.253 159.315 36.6195C158.968 36.3367 158.699 35.9694 158.535 35.5528C158.37 35.1363 158.316 34.6845 158.376 34.2408C158.414 34.0799 158.466 33.9228 158.533 33.7713C158.621 33.5672 158.731 33.373 158.861 33.1923L159.018 32.9732C159.581 32.3337 160.282 31.8307 161.068 31.5021C162.385 31.0129 163.779 30.7638 165.184 30.7666C166.635 30.6352 168.093 30.5882 169.55 30.6258C170.958 30.6258 172.273 30.6258 173.384 30.751C174.495 30.8762 175.465 30.8762 176.122 30.9544L177.171 31.0483L176.185 30.6884C175.543 30.5006 174.62 30.1876 173.493 29.9529C172.212 29.688 170.916 29.4998 169.612 29.3895C168.106 29.3031 166.596 29.3031 165.09 29.3895C163.526 29.4493 161.987 29.7995 160.551 30.4223C160.026 30.6845 159.546 31.0278 159.127 31.4395C158.642 30.6549 158.458 29.7204 158.611 28.8105C158.735 28.581 158.876 28.3613 159.033 28.1532C159.955 27.1649 161.186 26.5193 162.523 26.3222C164.138 26.0389 165.769 25.8508 167.406 25.7588C169.08 25.6023 170.77 25.4928 172.351 25.4771C173.619 25.4771 174.792 25.4771 175.872 25.4771C176.726 25.5577 177.548 25.8376 178.274 26.2943C179 26.7509 179.608 27.3715 180.05 28.1062L182.366 32.3003C183.086 33.6305 183.931 35.258 184.87 37.1359C185.309 38.0592 185.747 39.0764 186.154 40.1406C186.596 41.2014 186.936 42.3018 187.171 43.4269C187.275 44.0169 187.343 44.6127 187.374 45.211C187.374 45.7587 187.374 46.4473 187.374 47.0889C187.374 48.4191 187.296 49.8275 187.186 51.2829C186.983 54.2094 186.576 57.3079 186.592 60.7977C186.592 61.2516 186.592 61.6897 186.592 62.1592L186.701 63.4894C186.701 64.1936 186.811 65.0543 186.842 65.8212C186.842 67.3861 186.842 69.0762 186.842 70.7351C186.843 74.0803 186.67 77.4232 186.326 80.7506C186.091 83.8963 185.416 86.9936 184.323 89.9525L184.151 90.3437L184.057 90.5158L183.963 90.5941C183.54 90.954 183.133 91.3453 182.695 91.6895C182.257 92.0338 181.866 92.4251 181.459 92.7693C181.052 93.1136 180.661 93.4736 180.269 93.7866C179.878 94.0995 179.534 94.4438 179.19 94.7412C177.813 95.9305 176.827 96.9477 176.827 96.9477C177.137 97.0099 177.45 97.0517 177.766 97.0729C178.24 97.1045 178.715 97.1045 179.19 97.0729C179.19 97.1668 179.033 97.2764 178.939 97.3703L174.839 101.987L171.709 104.538L171.866 97.9493L172.007 97.7771C172.366 97.2981 172.563 96.7171 172.57 96.1183V94.3343C172.622 93.8509 172.522 93.3632 172.284 92.9395C172.045 92.5158 171.68 92.1773 171.24 91.9712L171.615 74.1153C172.268 71.1676 173.115 68.2661 174.151 65.4299C176.013 61.0481 177.938 59.3736 178.392 52.2688C178.783 52.4723 179.143 52.6757 179.456 52.8792C180.059 53.1489 180.645 53.4573 181.208 53.8025L181.928 54.1468L181.615 53.4112C181.274 52.8055 180.898 52.2203 180.489 51.6585C179.848 50.9183 179.158 50.2229 178.423 49.5771C177.781 49.092 177.061 48.6382 176.326 48.1843C177.032 48.0282 177.681 47.6818 178.204 47.1828C178.405 46.9541 178.559 46.6883 178.658 46.4003C178.429 46.5549 178.175 46.6663 177.906 46.729C177.286 46.9278 176.618 46.9278 175.997 46.729C175.051 46.4901 174.13 46.1654 173.243 45.7587C172.048 45.4227 170.829 45.182 169.597 45.0388C168.356 45.0075 167.116 45.0808 165.888 45.2579L165.34 45.3988C164.245 45.3988 162.805 45.8995 161.365 45.8995C160.966 45.8529 160.595 45.6731 160.311 45.3891C160.027 45.1051 159.847 44.7335 159.8 44.3346C159.959 43.9584 160.201 43.6225 160.507 43.3518C160.813 43.081 161.176 42.8821 161.569 42.7697C162.806 42.3398 164.096 42.0767 165.403 41.9872C166.731 41.8192 168.071 41.7668 169.409 41.8307C170.708 41.8307 171.928 41.8307 172.961 41.9872C173.994 42.1437 174.902 42.0811 175.512 42.128H176.482L175.559 41.8307C174.964 41.6742 174.119 41.3769 173.086 41.1734C171.899 40.9011 170.698 40.6973 169.487 40.5631C168.081 40.4455 166.668 40.4455 165.262 40.5631C163.828 40.7322 162.423 41.09 161.083 41.6273C160.753 41.7847 160.439 41.9734 160.144 42.1906C159.484 41.6567 159.061 40.8839 158.968 40.0401C158.874 39.1962 159.117 38.3494 159.644 37.6836ZM163.055 11.737L163.744 11.0484L163.086 10.3755C163.058 10.1558 163.104 9.93291 163.218 9.74269C163.331 9.55246 163.505 9.40604 163.712 9.32701H167.327L166.748 10.7668L165.637 10.8919L163.947 11.0484L165.637 11.2362L166.733 11.3458L167.531 15.3051H164.072C163.384 15.3051 163.055 11.737 163.055 11.737ZM169.315 9.7026C169.239 9.59738 169.15 9.50266 169.049 9.42091C168.979 9.38432 168.916 9.33676 168.861 9.28006C168.855 9.24909 168.855 9.21715 168.861 9.18617C168.85 9.16714 168.844 9.14555 168.844 9.12357C168.844 9.10159 168.85 9.08001 168.861 9.06097C168.861 9.20182 169.096 9.17052 169.237 9.21747C169.402 9.24904 169.557 9.31871 169.691 9.42091C169.84 9.53534 169.95 9.69421 170.004 9.87474C170.067 10.0345 170.104 10.2037 170.113 10.3755V10.4851L170.019 10.5946L169.597 11.0484C169.737 11.2049 169.894 11.3614 170.035 11.5336L170.129 11.6431V11.7527C170.109 11.9024 170.072 12.0494 170.019 12.1908C170.019 12.3317 169.831 14.8043 169.753 14.9295C169.669 15.0525 169.563 15.1586 169.44 15.2425L169.221 15.3207C169.153 15.3291 169.085 15.3291 169.018 15.3207C169.132 15.2792 169.231 15.2025 169.299 15.1016C169.357 15.0044 169.399 14.8988 169.424 14.7886C169.424 14.6791 169.534 12.2221 169.55 12.0969C169.542 12.0189 169.542 11.9403 169.55 11.8622C169.325 11.6819 169.11 11.4885 168.908 11.2832L168.673 11.0641L168.845 10.8919L169.44 10.3286C169.48 10.1135 169.441 9.89124 169.331 9.7026H169.315ZM169.847 80.8289C169.847 79.264 169.847 77.7773 169.957 76.3062C169.957 75.5864 169.957 74.8665 170.05 74.1779C170.144 73.4893 170.05 72.8477 170.05 72.3C170.021 71.6062 169.911 70.9182 169.722 70.2499H170.035C170.288 70.8669 170.462 71.5138 170.551 72.1748C170.622 72.8348 170.654 73.4985 170.645 74.1623V76.3062C170.645 77.7773 170.645 79.3109 170.645 80.8289C170.645 83.8023 170.457 86.7131 170.332 88.8414C170.207 90.9697 170.097 92.2686 170.097 92.2686C170.097 92.2686 170.004 90.8914 169.941 88.7944C169.878 86.6974 169.831 83.8023 169.863 80.8289H169.847ZM171.913 60.4847C171.537 61.2203 171.115 62.0497 170.692 63.0043C170.942 60.1718 171.287 55.6647 171.349 52.3314C171.349 51.9871 171.349 51.6585 171.349 51.3142C172.233 51.9828 173.182 52.5595 174.182 53.0356C173.994 55.6455 173.224 58.18 171.928 60.4534L171.913 60.4847ZM167.39 53.4425C167.395 56.8565 167.155 60.2665 166.67 63.6459H164.01C163.791 61.0638 163.399 55.9151 163.353 52.3314C163.336 52.0343 163.336 51.7365 163.353 51.4394C164.699 51.6636 166.032 51.9667 167.343 52.3471L167.39 53.4425ZM167.39 66.9949H163.306C163.306 65.5864 164.135 65.3047 164.135 65.3047H166.842C167.074 65.8434 167.267 66.3978 167.421 66.9636L167.39 66.9949ZM170.097 53.4738C170.097 53.6773 170.097 53.8651 170.097 54.0685C170.004 56.4942 169.753 58.7633 169.518 60.5473C169.284 62.3314 169.033 63.3486 169.033 63.3486C169.033 63.3486 169.033 62.2062 169.033 60.4691C169.033 58.732 169.158 56.3846 169.237 54.0216C169.237 53.6616 169.237 53.3173 169.237 52.9887C169.536 53.1283 169.823 53.2904 170.097 53.4738ZM162.429 98.9821C164.195 99.2689 165.978 99.4362 167.766 99.4829C167.766 107.042 167.547 133.739 167.453 146.603C167.317 146.595 167.181 146.595 167.046 146.603C167.046 146.384 167.046 146.165 167.046 145.93C167.202 141.799 167.343 135.977 167.374 129.78C167.374 123.16 167.374 116.071 167.187 110.437C167.187 107.495 166.999 104.992 166.952 103.192C166.905 101.392 166.811 100.328 166.811 100.328C166.811 100.328 166.811 101.376 166.67 103.192C166.529 105.007 166.467 107.495 166.389 110.437C166.201 116.071 166.091 123.16 166.091 129.78C166.091 136.04 166.216 141.799 166.357 145.93C166.357 146.149 166.357 146.353 166.357 146.556C165.226 146.578 164.131 146.956 163.227 147.636C163.071 134.897 162.601 107.527 162.461 98.9821H162.429ZM225.371 233.723H224.792C222.914 233.88 220.207 233.895 216.967 233.911H205.872C203.837 233.911 201.74 233.911 199.612 233.911H197.202C197.202 233.911 197.202 233.911 197.202 233.833C197.2 233.31 197.012 232.805 196.67 232.409H207.437C220.379 232.409 225.371 232.534 225.371 233.629V233.723ZM144.229 352.283L144.761 352.517C147.458 355.403 149.044 359.151 149.237 363.096C150.161 359.026 149.681 354.763 147.875 350.999L148.329 350.671C149.173 350.097 150.051 349.574 150.958 349.106C151.552 348.741 152.211 348.496 152.899 348.386C153.541 348.523 154.132 348.838 154.605 349.294C155.713 350.32 156.681 351.488 157.484 352.768C159.074 355.272 160.208 358.037 160.833 360.937C161.005 361.641 161.068 362.345 161.177 363.049C161.177 363.409 161.177 363.738 161.177 364.082C161.205 364.418 161.179 364.756 161.099 365.084C160.876 366.421 160.34 367.687 159.534 368.777C158.027 370.869 156.324 372.813 154.448 374.583C152.658 376.307 151.019 378.181 149.55 380.185C148.885 381.139 148.279 382.132 147.734 383.159L146.373 386.101C146.08 386.781 145.712 387.426 145.278 388.026V387.619C144.844 383.491 144.107 379.4 143.071 375.381C142.025 371.365 140.39 367.526 138.22 363.988C137.328 362.564 136.514 361.453 135.919 360.686L134.965 359.513L135.653 360.843C137.983 365.566 139.32 370.716 139.581 375.976C139.767 379.895 139.673 383.822 139.299 387.728C139.033 390.436 138.861 392.423 138.799 392.955C136.736 393.695 134.583 394.153 132.398 394.317C132.267 392.807 131.968 391.316 131.506 389.872C130.677 387.634 129.456 385.522 128.627 383.425C127.671 381.425 127.043 379.285 126.764 377.087C126.639 376.351 126.545 375.616 126.483 374.896C126.749 373.128 127.077 371.343 127.5 369.591C127.922 367.838 128.47 365.631 128.924 363.722C129.378 361.813 129.832 359.919 130.192 358.104C130.551 356.289 130.818 354.567 131.005 352.955C131.099 352.11 131.177 351.297 131.224 350.53C131.874 349.371 132.584 348.248 133.353 347.165C133.667 348.873 134.133 350.549 134.746 352.173C135.69 354.593 136.766 356.96 137.969 359.262C139.206 361.594 140.473 363.957 141.522 366.085C142.524 368.065 143.382 370.116 144.088 372.22C144.575 373.718 144.947 375.25 145.199 376.805C145.303 377.401 145.377 378.001 145.418 378.605C145.418 378.605 145.418 377.947 145.418 376.789C145.378 375.181 145.168 373.581 144.792 372.016C144.254 369.805 143.515 367.647 142.586 365.569C141.569 363.3 140.332 360.952 139.159 358.605C137.928 356.375 136.815 354.082 135.825 351.735C135.104 349.927 134.528 348.064 134.104 346.164C135.262 344.599 136.467 343.159 137.594 341.86C137.594 340.952 137.453 340.013 137.406 339.074C137.406 337.697 137.406 336.32 137.406 335.021C137.406 333.722 137.594 332.517 137.703 331.5C137.813 330.483 138.001 329.622 138.094 329.028L138.298 328.089C138.298 328.089 138.298 328.433 138.298 329.043C138.298 329.654 138.407 330.499 138.439 331.531C138.47 332.564 138.439 333.754 138.564 335.037C138.689 336.32 138.564 337.666 138.705 339.028C138.846 340.389 138.705 341.766 138.83 343.018C138.861 344.153 139.013 345.281 139.284 346.383C139.409 346.821 139.55 347.228 139.675 347.588C140.105 348.58 140.703 349.491 141.443 350.279C141.962 350.839 142.551 351.328 143.196 351.735C143.536 351.945 143.892 352.128 144.26 352.283H144.229ZM115.653 261.282C115.653 261.008 115.735 260.741 115.888 260.515C116.042 260.289 116.26 260.115 116.514 260.014L116.17 261C116.084 261.216 116.084 261.457 116.17 261.673H115.685C115.653 261.545 115.642 261.413 115.653 261.282ZM58.8305 211.204C59.0653 210.765 59.2844 210.296 59.5034 209.811C62.8368 212.69 70.7084 214.349 82.9775 214.725C84.6989 214.725 86.3734 214.803 87.9853 214.803C107.39 214.803 120.301 211.204 126.232 209.091C126.34 209.879 126.387 210.674 126.373 211.47C120.833 213.614 105.513 218.449 81.1934 217.729C63.9792 217.197 59.2843 214.318 58.0793 213.035C58.3767 212.143 58.6427 211.532 58.8305 211.204ZM157.954 126.009C158.22 125.821 158.517 125.617 158.736 125.43L159.378 124.897L160.614 123.849L161.287 123.317L161.913 149.091C161.341 149.972 161.036 150.999 161.036 152.049C161.028 152.153 161.028 152.258 161.036 152.362L141.365 164.709C140.731 165.109 140.282 165.743 140.115 166.474C139.947 167.204 140.076 167.971 140.473 168.606C140.634 168.865 140.841 169.093 141.084 169.279V187.73L132.038 214.334C131.6 213.251 131.077 212.204 130.473 211.204C130.478 210.45 130.431 209.697 130.332 208.95C136.498 203.16 140.99 190.656 138.564 184.302C136.999 180.296 136.436 177.135 137.249 170.015C137.406 169.044 137.594 168.058 137.781 167.057C137.969 166.055 138.188 165.226 138.407 164.459C138.583 163.811 138.846 163.189 139.19 162.612C139.503 162.065 140.238 161.047 140.849 159.858C141.146 159.31 141.443 158.7 141.725 158.09L142.054 157.354L142.242 156.9L142.414 156.447C144.339 151.642 144.683 146.869 145.418 142.941C145.591 141.955 145.778 140.985 145.982 140.156L146.138 139.561L146.373 138.778C146.467 138.419 146.608 138.137 146.717 137.793C147.428 136.278 148.333 134.863 149.409 133.583C150.614 132.169 151.91 130.836 153.29 129.592C153.994 128.982 154.714 128.372 155.45 127.808L156.482 127.026L157.108 126.588L157.954 126.009ZM196.341 233.989H195.825C195.825 233.989 195.825 233.911 195.825 233.864V232.831C195.996 232.955 196.136 233.117 196.234 233.304C196.332 233.492 196.385 233.699 196.388 233.911C196.388 233.911 196.341 233.895 196.341 233.927V233.989ZM193.618 233.911C193.617 233.726 193.653 233.543 193.726 233.373C193.799 233.204 193.906 233.051 194.041 232.925V233.958H193.571C193.571 233.958 193.571 233.88 193.571 233.848L193.618 233.911ZM164.182 229.67C164.182 229.397 164.264 229.13 164.417 228.904C164.571 228.677 164.789 228.503 165.043 228.402L164.714 229.388C164.668 229.494 164.644 229.609 164.644 229.725C164.644 229.84 164.668 229.955 164.714 230.061H164.213C164.186 229.912 164.175 229.759 164.182 229.607V229.67ZM166.921 229.67C166.934 229.769 166.934 229.869 166.921 229.967H166.42L166.748 228.981C166.873 229.168 166.949 229.383 166.968 229.607L166.921 229.67ZM193.18 229.858H178.877C174.182 229.858 170.52 229.858 167.766 229.952C167.773 229.863 167.773 229.774 167.766 229.686C167.766 229.368 167.698 229.053 167.565 228.764C167.433 228.475 167.24 228.218 166.999 228.011L189.909 160.719L193.822 229.826L193.18 229.858ZM170.567 151.955C170.57 152.757 170.335 153.543 169.891 154.211C169.448 154.88 168.816 155.402 168.076 155.711C167.335 156.02 166.52 156.103 165.733 155.948C164.945 155.793 164.222 155.409 163.653 154.842C163.085 154.276 162.697 153.554 162.54 152.767C162.382 151.981 162.461 151.165 162.768 150.423C163.074 149.682 163.593 149.048 164.26 148.602C164.927 148.156 165.711 147.918 166.514 147.918C167.586 147.918 168.615 148.343 169.374 149.099C170.134 149.856 170.563 150.883 170.567 151.955ZM142.179 165.821L161.396 153.771C161.468 153.979 161.551 154.183 161.647 154.381L143.196 167.072L162.429 155.523C162.61 155.728 162.804 155.921 163.008 156.102L143.697 168.215C143.472 168.356 143.212 168.432 142.946 168.434C142.704 168.436 142.465 168.375 142.254 168.257C142.043 168.139 141.866 167.968 141.741 167.761C141.546 167.444 141.483 167.064 141.565 166.702C141.647 166.339 141.867 166.023 142.179 165.821ZM112.445 265.288C112.445 264.192 117.437 264.067 130.379 264.067H144.761C144.42 264.469 144.231 264.979 144.229 265.507C144.231 265.533 144.231 265.559 144.229 265.585H138.188C136.044 265.585 133.947 265.585 131.929 265.585H120.833C117.594 265.585 114.886 265.585 113.009 265.382H112.43L112.445 265.288ZM118.204 260.593C118.348 260.796 118.435 261.034 118.455 261.282C118.463 261.38 118.463 261.48 118.455 261.579H117.938L118.204 260.593ZM145.121 265.632C145.123 265.606 145.123 265.58 145.121 265.554C145.123 265.37 145.161 265.188 145.234 265.019C145.306 264.849 145.411 264.696 145.544 264.568V265.601L145.121 265.632ZM127.547 261.485H124.62L124.855 260.483C125.184 259.091 125.403 257.807 125.559 256.649C125.716 255.491 125.857 254.505 125.919 253.676C126.044 252.002 126.091 251.063 126.091 251.063L122.523 259.717C122.289 260.28 122.023 260.875 121.757 261.485H119.237C119.246 261.397 119.246 261.307 119.237 261.219C119.233 260.903 119.161 260.591 119.026 260.304C118.891 260.018 118.696 259.764 118.455 259.56L126.545 235.836C127.234 246.556 127.484 256.79 127.516 261.422L127.547 261.485ZM114.511 261.829C114.62 261.595 114.714 261.344 114.824 261.109C114.824 261.109 114.824 261.235 114.824 261.297C114.808 261.464 114.808 261.631 114.824 261.798L114.511 261.829ZM156.404 272.236H155.231H150.019H139.253H134.057L129.206 272.08C127.641 271.986 126.217 271.908 124.886 271.782C122.734 271.621 120.604 271.233 118.533 270.624C117.949 270.446 117.379 270.227 116.827 269.967L116.248 269.67C113.118 267.416 112.555 266.775 112.43 265.742L112.899 265.867C115.479 266.435 118.092 266.837 120.724 267.072C122.289 267.244 124.12 267.4 125.982 267.526C127.844 267.651 129.816 267.792 131.85 267.87C133.885 267.948 135.997 268.058 138.11 268.089L144.589 268.183L151.083 268.089C153.227 268.089 155.324 267.948 157.343 267.87C159.362 267.792 161.349 267.651 163.212 267.526C165.074 267.4 166.842 267.244 168.47 267.072C169.769 266.931 170.958 266.79 172.069 266.634C167.349 269.683 161.988 271.6 156.404 272.236ZM147.813 265.507H147.296C147.296 265.507 147.296 265.507 147.296 265.382V264.365C147.472 264.485 147.617 264.646 147.718 264.834C147.818 265.022 147.872 265.231 147.875 265.444L147.813 265.507ZM144.683 261.375H136.858C136.858 252.314 136.968 242.174 136.232 233.692C135.827 227.953 134.777 222.279 133.102 216.775L141.459 192.284L145.371 261.375H144.683ZM142.946 178.434V169.858C143.497 169.868 144.04 169.722 144.511 169.436L164.385 156.916C165.075 157.224 165.821 157.384 166.576 157.386C167.988 157.382 169.343 156.833 170.358 155.853C171.373 154.873 171.97 153.538 172.022 152.127L189.737 141.001V155.977L165.403 227.369C164.839 227.413 164.313 227.668 163.93 228.083C163.547 228.498 163.335 229.042 163.337 229.607C163.314 229.768 163.314 229.932 163.337 230.092C162.439 230.165 161.552 230.338 160.692 230.609L142.899 187.604L142.946 178.434ZM161.725 233.05C163.572 232.502 168.814 232.424 178.939 232.424H193.321C192.984 232.822 192.801 233.327 192.805 233.848V233.927H186.78C184.636 233.927 182.539 233.927 180.52 233.927H169.409C166.451 233.927 163.963 233.926 162.116 233.77L161.725 233.05ZM220.175 229.983H219.69C219.681 229.884 219.681 229.784 219.69 229.686C219.694 229.473 219.748 229.264 219.847 229.075L220.175 229.983ZM218.783 229.983C216.013 229.905 212.335 229.889 207.452 229.889H195.606L191.709 161.345L219.393 228.136C218.984 228.555 218.754 229.116 218.751 229.701C218.764 229.759 218.779 229.817 218.798 229.873L218.783 229.983ZM190.52 137.167C190.718 137.486 190.781 137.872 190.696 138.238C190.611 138.605 190.385 138.923 190.066 139.123L172.507 150.077C172.474 149.832 172.417 149.591 172.335 149.357L190.129 137.088L171.662 148.231C171.537 148.012 171.396 147.808 171.24 147.558L188.454 136.713C188.679 136.57 188.939 136.494 189.205 136.494C189.465 136.475 189.725 136.528 189.957 136.646C190.188 136.765 190.383 136.945 190.52 137.167ZM13.4631 301.97C15.1018 301.335 16.8389 300.99 18.596 300.953L69.9416 456.898L68.627 461.452L64.0731 458.323L9.72286 303.973C10.9084 303.197 12.16 302.527 13.4631 301.97ZM20.8339 300.953C22.0702 301.031 22.8683 301.172 22.884 301.172C23.0139 301.187 23.1452 301.187 23.2752 301.172C23.7125 301.169 24.1384 301.032 24.4958 300.781C24.73 300.618 24.9285 300.409 25.0792 300.167C25.2299 299.924 25.3296 299.654 25.3722 299.372C25.6305 297.66 25.6305 295.92 25.3722 294.208C24.7932 291.078 21.1469 290.874 18.7212 290.765C17.9135 290.767 17.1071 290.699 16.3112 290.562C15.3566 287.948 14.3238 285.413 13.6195 283.754C14.6066 282.966 15.3883 281.951 15.8979 280.796C16.4075 279.64 16.6298 278.379 16.546 277.119C16.6555 271.188 12.0703 264.865 9.62896 262.346C9.55711 262.281 9.49398 262.208 9.44117 262.127C9.19078 261.329 10.1923 257.745 11.1782 254.302L11.4599 253.3C13.3848 246.399 20.0201 235.225 24.4019 227.839L25.6382 225.758C30.142 218.166 34.1109 210.27 37.5161 202.127C39.7114 197.305 42.1613 192.604 44.8557 188.043C46.7336 184.647 48.5176 181.439 49.8321 178.856C51.4464 175.775 53.2659 172.805 55.2781 169.968C55.2781 170.515 55.2781 171.094 55.1999 171.689C55.1922 173.634 54.6509 175.539 53.6349 177.198C52.8204 178.355 52.3677 179.729 52.3343 181.144C52.3008 182.559 52.6881 183.953 53.4471 185.147C52.9498 186.105 52.653 187.154 52.575 188.231C52.4969 189.307 52.6393 190.388 52.9933 191.407C52.9989 191.496 52.9989 191.585 52.9933 191.673C51.6769 193.31 50.9887 195.364 51.0528 197.464C50.9587 198.442 51.0612 199.429 51.3541 200.367C51.647 201.305 52.1245 202.174 52.7586 202.925C53.2886 203.47 53.9242 203.901 54.6265 204.191C55.3289 204.482 56.0831 204.626 56.8431 204.615C56.35 206.18 55.7217 207.698 54.9651 209.154C52.5864 213.739 44.7148 239.122 42.9308 251.516C42.3831 255.225 41.7571 258.778 41.0685 262.471C39.0776 272.449 37.8223 282.559 37.3127 292.721C36.5145 311.187 43.8854 340.295 47.9855 347.353C51.5066 353.394 56.1388 369.09 55.1999 377.009C54.9755 378.399 54.5758 379.756 54.0105 381.046C51.88 385.878 51.2793 391.246 52.2891 396.429C52.2891 396.508 52.2891 396.586 52.2891 396.68L20.8339 300.953ZM176.874 265.366H176.295C174.417 265.507 171.709 265.538 168.47 265.554H157.359C155.34 265.554 153.227 265.554 151.099 265.554H148.689C148.687 265.026 148.499 264.516 148.157 264.114H158.908C171.866 264.114 176.858 264.239 176.858 265.335L176.874 265.366ZM171.662 261.563H171.193C171.178 261.459 171.178 261.354 171.193 261.25C171.197 261.037 171.25 260.828 171.349 260.64L171.662 261.563ZM170.285 261.563C167.515 261.485 163.838 261.469 158.939 261.469H147.093L143.196 192.894L159.143 231.548C158.851 231.821 158.621 232.154 158.47 232.524C158.319 232.894 158.249 233.292 158.266 233.692C158.266 236.446 159.534 237.635 162.601 239.951L170.88 259.717C170.675 259.922 170.512 260.166 170.402 260.435C170.292 260.703 170.236 260.991 170.238 261.282C170.243 261.36 170.254 261.439 170.27 261.516L170.285 261.563ZM162.367 234.568C164.166 234.944 166.498 235.288 169.284 235.585C170.849 235.757 172.68 235.914 174.542 236.039C176.404 236.164 178.376 236.305 180.41 236.368C182.445 236.43 184.557 236.556 186.67 236.587L193.149 236.696L199.643 236.587C201.787 236.587 203.9 236.446 205.903 236.368C207.906 236.29 209.909 236.164 211.772 236.024C213.634 235.883 215.402 235.742 217.03 235.57C218.344 235.445 219.534 235.288 220.645 235.132C215.893 238.182 210.499 240.089 204.886 240.703H203.712H198.517H187.75H182.539L177.687 240.562C176.122 240.452 174.698 240.39 173.368 240.249C171.216 240.086 169.086 239.698 167.014 239.091C166.429 238.92 165.858 238.7 165.309 238.434L164.73 238.136C164.198 237.761 163.775 237.432 163.368 237.135L162.367 234.568ZM222.398 229.654C222.421 229.799 222.421 229.947 222.398 230.092H221.865C221.916 229.976 221.942 229.851 221.942 229.725C221.942 229.598 221.916 229.473 221.865 229.357L221.459 228.402C221.716 228.487 221.942 228.647 222.106 228.862C222.271 229.077 222.367 229.337 222.382 229.607L222.398 229.654ZM170.097 119.858C170.097 123.192 170.004 126.635 169.957 129.952C169.91 133.27 169.816 136.212 169.753 139.107C169.691 142.002 169.581 144.334 169.518 146.415C169.518 146.619 169.518 146.791 169.518 146.979L169.205 147.182V146.415C169.205 144.334 169.205 141.846 169.205 139.107C169.205 136.368 169.205 133.16 169.299 129.952C169.393 126.744 169.44 123.192 169.503 119.858C169.565 116.525 169.675 113.098 169.753 110.171C169.831 107.245 169.957 104.6 170.019 102.754C170.082 100.907 170.129 99.8116 170.129 99.8116C170.129 99.8116 170.129 100.891 170.129 102.754C170.129 104.616 170.129 107.167 170.129 110.171C170.129 113.176 170.097 116.416 170.097 119.858ZM170.097 20.5319H169.597C169.597 19.8903 169.597 19.28 169.597 18.7479V17.5429H169.753C169.831 17.8403 169.91 18.2315 169.988 18.701C170.066 19.1705 170.176 19.8903 170.238 20.5945L170.097 20.5319ZM162.445 4.11578C162.496 3.8537 162.586 3.6006 162.711 3.36461C163.068 2.75781 163.619 2.28916 164.276 2.03442C164.617 1.86846 164.981 1.75251 165.356 1.69013C165.733 1.62266 166.115 1.58603 166.498 1.58058C167.263 1.57233 168.02 1.72704 168.72 2.03442C169.342 2.30663 169.858 2.77347 170.191 3.36461C170.314 3.60317 170.409 3.85527 170.473 4.11578C170.486 4.31379 170.486 4.51244 170.473 4.71045C170.482 4.83548 170.482 4.96101 170.473 5.08604C170.473 5.08604 170.473 4.86695 170.473 4.71045C170.428 4.52936 170.37 4.35158 170.301 4.17838C170.201 3.96373 170.08 3.75933 169.941 3.56805C169.579 3.111 169.097 2.76411 168.548 2.56649C168.255 2.45531 167.951 2.37659 167.64 2.33175C168.073 2.66575 168.417 3.1 168.644 3.59696C168.871 4.09393 168.973 4.63866 168.943 5.1841C168.912 5.72954 168.749 6.25927 168.467 6.72752C168.186 7.19577 167.795 7.58845 167.327 7.87162H163.869C163.399 7.10481 162.539 6.76052 162.539 5.21123V5.08604C162.53 4.96101 162.53 4.83548 162.539 4.71045C162.487 4.51594 162.456 4.31668 162.445 4.11578ZM163.838 17.1517C164.792 17.2925 166.013 17.3864 167.171 17.4647C167.341 18.3904 167.45 19.3261 167.5 20.2659C166.331 20.124 165.178 19.8725 164.057 19.5147L163.65 19.3895C163.697 18.4975 163.838 17.7151 163.838 17.1517ZM155.684 25.1955C155.684 23.6305 157.781 23.0984 159.784 23.0984C160.74 23.0844 161.692 23.2272 162.601 23.521C164.026 23.9877 165.494 24.3076 166.983 24.4756C165.373 24.6281 163.774 24.8789 162.194 25.2268C160.631 25.5592 159.253 26.4775 158.345 27.7932L158.079 28.2784C157.187 27.7619 155.637 26.776 155.684 25.1172V25.1955ZM162.805 73.7084C162.832 72.324 163.091 70.9539 163.572 69.6553C164.568 69.8709 165.577 70.0225 166.592 70.1091C166.592 70.7664 166.686 71.7679 166.592 73.0042C166.498 74.2405 166.42 75.3829 166.357 76.7288C166.295 78.0746 166.263 79.4987 166.263 80.9071C166.263 83.6614 166.263 86.3531 166.498 88.3406C166.733 90.3281 166.827 91.58 166.827 91.58C166.827 91.58 167.046 90.2968 167.187 88.3406C167.327 86.3844 167.453 83.6458 167.453 80.9071C167.453 78.1685 167.327 75.2108 167.14 72.9729C167.07 72.0123 166.918 71.0595 166.686 70.1247H167.515C167.754 71.1512 167.88 72.2007 167.891 73.2546C167.891 75.4142 167.781 88.904 167.766 92.7381H163.071C163.008 88.3562 162.836 75.7585 162.805 73.6458V73.7084ZM148.188 103.489C152.361 100.904 156.313 97.9783 160.004 94.7412V96.0401C160.01 96.6388 160.208 97.2199 160.567 97.6989L160.708 97.871L161.068 112.863C159.941 113.724 158.814 114.616 157.641 115.477L155.324 117.167C154.933 117.464 154.558 117.714 154.182 117.98L153.603 118.372L153.134 118.653L152.57 118.982L151.897 119.373L151.177 119.811L151.428 120.187C151.944 120.876 152.351 121.58 152.774 122.128C153.196 122.675 153.525 123.176 153.775 123.505L154.151 124.037L153.587 123.708C153.104 123.39 152.639 123.045 152.195 122.675C151.573 122.14 150.993 121.56 150.457 120.938C149.864 120.207 149.31 119.444 148.799 118.653C148.329 117.808 147.907 116.948 147.547 116.118L147.453 115.821C147.138 115.125 146.871 114.409 146.655 113.677C146.1 112.272 145.711 110.806 145.497 109.311C145.221 107.993 145.079 106.651 145.074 105.304C145.059 105.023 145.059 104.741 145.074 104.459C146.14 104.232 147.182 103.907 148.188 103.489ZM141.553 105.211V105.304L141.443 105.445L141.584 105.336L141.756 105.195L143.713 104.772C143.669 104.895 143.632 105.021 143.603 105.148C143.306 106.6 143.159 108.079 143.165 109.561C143.271 111.272 143.581 112.963 144.088 114.6C144.716 116.203 145.531 117.726 146.514 119.139C147.2 120 147.948 120.811 148.752 121.564L147.672 122.347L146.232 123.505C146.232 123.333 146.06 123.176 145.982 122.988C145.482 122.125 145.038 121.231 144.652 120.312C144.131 119.297 143.671 118.252 143.274 117.182C142.766 116.209 142.316 115.205 141.929 114.178C141.516 113.269 141.165 112.333 140.88 111.376C140.59 110.703 140.339 110.013 140.129 109.311C139.925 108.794 139.8 108.513 139.8 108.513L139.581 109.342C139.487 109.89 139.378 110.672 139.299 111.627C139.328 112.7 139.416 113.771 139.566 114.835C139.845 116.045 140.201 117.237 140.63 118.403C141.187 119.483 141.809 120.528 142.492 121.533C143.177 122.372 143.908 123.171 144.683 123.927L145.199 124.318L144.401 125.07C144.871 125.57 145.293 126.071 145.7 126.462C146.107 126.854 146.498 127.339 146.78 127.589L147.187 128.043L146.623 127.824C146.132 127.612 145.656 127.366 145.199 127.088C144.561 126.698 143.954 126.258 143.384 125.774C142.743 125.195 142.132 124.584 141.553 123.943C141.018 123.268 140.521 122.562 140.066 121.83C139.685 121.181 139.36 120.501 139.096 119.796C138.893 119.289 138.736 118.765 138.627 118.231L138.517 117.636V117.495C137.9 115.944 137.556 114.297 137.5 112.628C137.379 111.123 137.452 109.608 137.719 108.121C137.813 107.292 137.922 106.556 138.032 105.899L141.553 105.211ZM136.858 106.259C136.639 106.729 136.389 107.245 136.138 107.824C135.549 109.396 135.165 111.037 134.996 112.707C134.892 114.671 135.12 116.639 135.669 118.528C135.9 119.112 136.166 119.682 136.467 120.234C136.138 120.359 135.841 120.453 135.512 120.61C129.253 123.442 125.872 126.322 117.594 133.27L112.602 137.448C112.993 137.01 113.384 136.572 113.76 136.118C116.105 133.099 118.144 129.854 119.847 126.431C121.202 123.414 122.251 120.268 122.977 117.041C123.268 115.552 123.477 114.047 123.603 112.534C124.506 111.543 125.563 110.703 126.733 110.046C126.921 109.937 127.109 109.827 127.312 109.733L127.954 109.373C129.022 108.834 130.119 108.353 131.24 107.934C133.053 107.269 134.903 106.71 136.78 106.259H136.858ZM115.043 108.434C115.316 108.706 115.609 108.957 115.919 109.186L114.354 108.904C114.149 108.707 113.956 108.498 113.775 108.278C113.525 107.949 113.196 107.668 112.993 107.37C112.789 107.073 112.539 106.869 112.414 106.682L112.195 106.353V106.729C112.207 107.046 112.254 107.361 112.336 107.668L112.555 108.356L112.07 108.168L111.131 107.918C111.19 107.328 111.311 106.746 111.491 106.181C111.681 105.527 111.977 104.908 112.367 104.35C112.476 104.146 112.602 103.943 112.711 103.724C112.736 104.37 112.857 105.008 113.071 105.617C113.535 106.678 114.205 107.636 115.043 108.434ZM113.306 99.3264C113.177 99.1131 113.013 98.9227 112.821 98.7631L113.009 98.2936C113.163 98.6195 113.263 98.9683 113.306 99.3264ZM115.779 79.3892C115.779 79.0918 115.779 78.7945 115.779 78.4971L116.107 78.1842C116.353 77.9095 116.578 77.6165 116.78 77.3078L117.046 76.807C116.887 77.7737 116.446 78.672 115.779 79.3892ZM63.9792 81.314C63.7821 80.7266 63.6304 80.125 63.5253 79.5144C63.4313 78.8931 63.3998 78.264 63.4314 77.6364C63.4743 77.0091 63.6115 76.3919 63.8383 75.8055C63.9761 75.5238 64.133 75.2519 64.3078 74.9917C64.5068 74.7582 64.7268 74.5434 64.9651 74.3501C65.2059 74.1967 65.4631 74.0707 65.7319 73.9745L66.4361 73.8806C65.9964 73.6788 65.5815 73.4267 65.1998 73.1294C64.733 72.763 64.3682 72.2826 64.1408 71.7345C63.9133 71.1863 63.8307 70.5889 63.9009 69.9995C64.0013 68.8704 64.2703 67.7626 64.699 66.7132C64.896 66.1728 65.1367 65.6494 65.4189 65.1482C65.5597 64.8979 65.6849 64.6631 65.8414 64.4127C64.7772 64.1198 63.8376 63.4875 63.1653 62.6119C62.4931 61.7363 62.125 60.6653 62.1169 59.5614C62.1027 58.9479 62.1498 58.3346 62.2577 57.7305C62.3521 57.1631 62.4881 56.6034 62.6646 56.056C63.0305 54.8807 63.6686 53.8084 64.5269 52.9261C65.194 52.2094 65.7244 51.3767 66.0918 50.4692C66.467 49.5285 66.75 48.5537 66.9369 47.5584L67.2812 45.9934C67.4317 45.3757 67.6522 44.7772 67.9384 44.2094C68.5082 43.0719 69.3265 42.077 70.3328 41.2986C72.2785 39.9193 74.5274 39.0283 76.8899 38.7008C78.001 38.4818 79.1121 38.3566 80.1136 38.1844C80.5341 38.124 80.948 38.0245 81.3499 37.8871L81.8664 37.5428L82.508 37.1046C84.4393 35.6633 86.6974 34.7225 89.0807 34.366C90.3331 34.218 91.6021 34.3083 92.8209 34.632C93.8056 34.9184 94.8098 35.1329 95.8256 35.2736C97.8444 35.571 99.8631 35.2736 102.351 35.6023C103.014 35.6935 103.661 35.8725 104.276 36.1343C104.574 36.2765 104.861 36.4386 105.137 36.6195C105.435 36.8103 105.718 37.0249 105.982 37.2611C106.796 38.0908 107.535 38.9916 108.189 39.9528C108.659 40.6873 109.319 41.2819 110.098 41.6742C110.943 42.0811 111.929 42.175 113.228 42.7071C114.394 43.2531 115.398 44.0947 116.138 45.1484L116.655 45.8839L117.109 46.5725C117.424 47.0755 117.706 47.5982 117.954 48.1374C118.522 49.3023 118.698 50.6201 118.455 51.8932C118.318 52.4866 118.119 53.0637 117.86 53.6147C117.619 54.1398 117.285 54.617 116.874 55.0231C117.322 55.2701 117.747 55.5583 118.142 55.8838C118.71 56.3393 119.107 56.9736 119.268 57.6835C119.357 58.2749 119.357 58.8762 119.268 59.4675C119.268 59.6553 119.268 59.6553 119.268 59.671C119.263 59.7335 119.263 59.7963 119.268 59.8588C119.394 60.0279 119.536 60.1851 119.691 60.3282C120.202 60.741 120.596 61.2806 120.833 61.8932C120.996 62.549 120.924 63.241 120.63 63.8493C120.364 64.4284 120.129 64.8353 119.926 65.3204C119.503 66.2906 119.284 67.3392 118.752 68.4503C118.488 68.9741 118.088 69.4173 117.594 69.7335C117.107 70.0171 116.579 70.223 116.029 70.3438L115.325 72.4252C115.45 72.5973 115.559 72.7851 115.669 72.9729C115.903 73.3802 116.042 73.8348 116.076 74.3031C116.162 74.7845 116.162 75.2772 116.076 75.7585C116.076 76.2436 115.982 76.7288 115.888 77.1357C115.794 77.5425 115.763 77.9181 115.716 78.1685C115.716 77.8086 115.716 77.4643 115.794 77.0887C115.749 76.0389 115.634 74.9934 115.45 73.9588C115.356 73.4111 115.278 72.8947 115.184 72.3939L115.278 72.5034L115.747 70.2812H115.825C116.172 70.1576 116.502 69.9949 116.811 69.7961C115.372 68.7163 115.481 66.9792 115.779 64.4127C115.886 63.6345 115.949 62.8508 115.966 62.0653V61.9871C116.234 61.3258 116.433 60.6389 116.561 59.937C116.808 58.9927 116.919 58.0177 116.89 57.0419C116.311 57.6056 115.665 58.0945 114.965 58.4973C114.633 58.6993 114.282 58.8671 113.916 58.9981C113.328 58.9424 112.736 58.9424 112.148 58.9981C110.173 59.1613 108.192 58.7597 106.436 57.84C105.419 57.3079 104.574 56.8384 103.838 56.4159C101.522 55.117 100.051 54.3032 98.1573 54.4754C98.5949 53.2964 98.7242 52.0251 98.5329 50.7821C98.2937 49.3076 97.5987 47.9449 96.5455 46.8855C95.5439 45.8839 94.511 45.1953 93.7912 44.3972C93.1102 43.6726 92.6725 42.7535 92.5392 41.7681C92.4392 41.0339 92.4979 40.2868 92.7114 39.5772C92.7898 39.3017 92.8946 39.0345 93.0244 38.7791C92.8407 39.0091 92.6784 39.2553 92.5392 39.5146C92.0718 40.3942 91.8405 41.3799 91.868 42.3756C91.8954 43.3713 92.1806 44.3428 92.6957 45.1953C93.3686 46.3221 94.2606 47.261 94.9023 48.2156C95.443 49.0573 95.7007 50.0498 95.6378 51.0482C95.5888 51.8377 95.3175 52.5972 94.8553 53.2391L94.7145 53.3956C94.4328 52.6294 94.0256 51.9154 93.5095 51.2829C92.8232 50.4774 92.0278 49.7716 91.1464 49.1859C89.635 48.3377 88.2843 47.2306 87.1558 45.9152C86.8104 45.4448 86.5556 44.9141 86.4047 44.3503C86.3427 44.1408 86.3008 43.926 86.2795 43.7086C86.2596 43.9325 86.2596 44.1577 86.2795 44.3816C86.2839 44.9909 86.3951 45.5947 86.6081 46.1656C87.3896 47.8338 88.4478 49.3576 89.738 50.6726C90.2913 51.3017 90.7499 52.0082 91.0995 52.7696C91.3337 53.3117 91.4356 53.9018 91.3968 54.491C91.3769 54.6459 91.3402 54.798 91.2873 54.9449C89.879 54.655 88.4509 54.4719 87.015 54.3971C86.49 54.3613 85.9627 54.4035 85.4501 54.5223C84.1651 52.9543 83.0332 51.2669 82.0698 49.4832C81.0424 47.5769 80.2038 45.5747 79.5659 43.5052C79.9839 45.6468 80.6076 47.7431 81.4282 49.7649C82.1316 51.6284 83.001 53.4248 84.026 55.1327C83.4991 55.6338 83.0865 56.2428 82.8164 56.918C82.5463 57.5932 82.4251 58.3187 82.461 59.045C82.461 59.3423 82.461 59.5771 82.461 59.7962C82.0672 59.7584 81.6754 59.701 81.2873 59.624C79.8505 59.3656 78.4655 58.874 77.1872 58.1686C75.8532 57.4499 74.6813 56.4644 73.7444 55.2735C73.4346 54.8627 73.1573 54.4285 72.9149 53.9746L72.6646 53.4269V54.0216C72.7555 54.5554 72.897 55.0794 73.0871 55.5865C73.6864 57.1722 74.6083 58.6163 75.7944 59.8275C76.7256 60.8112 77.7772 61.6735 78.9243 62.394C78.2065 62.8344 77.5444 63.3598 76.9525 63.9589C76.363 64.6402 75.6238 65.1758 74.7929 65.5238C74.0022 65.8346 73.2941 66.324 72.724 66.9539C72.1539 67.5837 71.7372 68.3369 71.5065 69.1545C71.1142 70.2097 70.5424 71.1892 69.8164 72.0496C69.6152 72.3275 69.3582 72.5601 69.0617 72.7326C68.7652 72.9051 68.4359 73.0136 68.0949 73.0512C66.7993 72.9933 65.5647 72.484 64.6051 71.6114C64.7669 72.0995 65.0463 72.5403 65.4189 72.8947C65.8783 73.3333 66.4071 73.6928 66.9838 73.9588C67.1643 73.986 67.3423 74.0279 67.5159 74.084C67.7732 74.2008 68.0239 74.3314 68.2671 74.4753L67.4846 74.6474C67.2273 74.7344 66.9763 74.8389 66.7334 74.9604L66.3892 75.2108L66.1544 75.5394C66.7445 75.7395 67.3624 75.8451 67.9854 75.8524H68.361C68.9073 75.8085 69.442 75.6709 69.9416 75.4455C70.1293 75.6646 70.3171 75.8837 70.5206 76.1497C71.0683 76.7601 71.6786 77.5112 72.5394 78.325C73.5258 79.2713 74.6766 80.0297 75.9353 80.5629C79.0842 81.6303 82.4163 82.0508 85.7318 81.7992C89.1903 81.4705 92.6488 80.9071 96.1699 80.4533C96.9367 80.4533 98.2043 80.4533 99.7223 80.5629C99.7223 80.735 99.7223 80.9228 99.7223 81.1106C100.008 82.4971 100.421 83.854 100.959 85.1638C101.225 85.8081 101.353 86.5012 101.334 87.1982C101.32 87.6796 101.156 88.1446 100.865 88.5284L100.223 88.6692C99.9837 88.6931 99.7425 88.6931 99.5032 88.6692H98.6112C97.991 88.707 97.3691 88.707 96.7489 88.6692C96.0625 88.6675 95.377 88.7198 94.6988 88.8257C94.1671 88.9781 93.6446 89.161 93.1339 89.3734C92.8106 89.4919 92.4557 89.4919 92.1323 89.3734C91.9888 89.1909 91.8921 88.976 91.8507 88.7475C91.763 88.3559 91.763 87.9497 91.8507 87.5581C91.939 87.1954 92.0541 86.8397 92.1949 86.494C91.9739 86.8028 91.7751 87.1271 91.6003 87.4642C91.3861 87.8814 91.2685 88.3413 91.256 88.8101C91.2511 89.1511 91.3369 89.4873 91.5046 89.7843C91.6724 90.0812 91.916 90.3283 92.2106 90.5002C92.8874 90.7879 93.6197 90.9215 94.3545 90.8914C95.0431 90.8914 95.7943 90.8914 96.5611 90.8914C97.3279 90.8914 98.126 90.8914 98.9555 90.8914C99.9322 90.8897 100.884 90.5833 101.678 90.0151C102.058 89.6707 102.359 89.2501 102.564 88.7808C102.769 88.3115 102.873 87.8042 102.868 87.2921C102.855 86.4074 102.663 85.5344 102.304 84.7256C101.706 83.4963 101.183 82.2316 100.739 80.9384L100.646 80.6255C104.797 80.5421 108.948 80.8038 113.056 81.4079C113.056 81.8774 113.056 82.3625 112.946 82.8164C112.836 83.2702 112.946 83.7084 112.946 84.1466C112.137 88.0194 111.044 91.8273 109.675 95.5393C108.774 98.0059 107.513 100.326 105.935 102.425C103.27 104.949 99.7754 106.413 96.1073 106.541C92.8329 106.636 89.5748 106.044 86.5427 104.804C83.5106 103.565 80.7716 101.704 78.5018 99.3421L78.267 99.0447C78.116 98.7707 77.9801 98.4886 77.8601 98.1997C77.2822 97.1505 76.8155 96.0438 76.4673 94.8977C75.9794 93.6152 75.5922 92.2967 75.3093 90.954C74.8868 89.5925 74.5425 88.1841 74.2295 86.8539L73.0714 83.2076C72.6332 82.1591 72.242 81.2984 71.9447 80.7037L71.3344 79.7491V80.7976C71.3344 81.4392 71.4126 82.3625 71.4282 83.4893C71.436 83.6248 71.436 83.7607 71.4282 83.8962C71.3848 83.7298 71.3273 83.5675 71.2561 83.411C70.8912 82.9525 70.6345 82.4176 70.5049 81.8461C70.3827 81.3336 70.3249 80.8079 70.3328 80.2812C70.3453 79.8847 70.4031 79.4909 70.5049 79.1075C70.525 78.9476 70.5617 78.7902 70.6145 78.638C70.4834 78.7347 70.3628 78.8449 70.2545 78.9666C69.952 79.3012 69.7133 79.6884 69.5503 80.109C69.3162 80.7274 69.2304 81.392 69.2999 82.0495C69.3805 82.8007 69.6321 83.5234 70.0355 84.1622C70.1612 84.3715 70.2362 84.6073 70.2545 84.8508C70.2805 85.2936 70.4265 85.721 70.6771 86.0871C70.8993 86.3353 71.1457 86.5607 71.4126 86.76L71.663 87.026V87.3077C71.7725 88.0902 71.8977 88.8727 72.0542 89.7334C71.2705 88.992 70.5627 88.1742 69.9416 87.2921L69.8633 87.1512C69.4877 86.447 69.1591 85.5863 68.7209 84.6786C68.2827 83.771 67.8758 82.8164 67.4846 81.8148C67.0365 81.0357 66.7791 80.1616 66.7334 79.264C66.718 78.9302 66.779 78.5974 66.9119 78.2909C67.0448 77.9844 67.2461 77.7124 67.5003 77.4956C67.7305 77.3471 67.9939 77.258 68.267 77.2361C68.5401 77.2143 68.8143 77.2604 69.0652 77.3704C69.2955 77.4515 69.4932 77.6053 69.6286 77.8086C69.6054 77.5269 69.4961 77.2592 69.3156 77.0418C69.0472 76.7352 68.6976 76.5108 68.3072 76.3945C67.9168 76.2782 67.5014 76.2747 67.109 76.3845C66.5349 76.5888 66.0289 76.9487 65.6475 77.424C65.2661 77.8994 65.0244 78.4714 64.9494 79.0762C64.8576 80.3108 65.0783 81.5487 65.591 82.6755C66.0918 83.6771 66.6083 84.663 67.156 85.555C67.6592 86.3568 68.2411 87.1065 68.8931 87.7929C68.0448 87.2249 67.2764 86.5459 66.6082 85.7741C65.4347 84.4838 64.5398 82.9656 63.9792 81.314ZM57.9385 118.872C58.4508 118.406 59.0601 118.059 59.7225 117.855C60.5672 117.596 61.3612 117.194 62.0699 116.666C62.7148 116.123 63.2465 115.458 63.6349 114.71C63.6279 114.751 63.6279 114.793 63.6349 114.835C63.7858 115.318 63.996 115.781 64.2608 116.212C64.4643 116.509 64.5738 116.697 64.5738 116.697V116.134C64.5738 115.774 64.5738 115.273 64.4643 114.694C64.4266 114.037 64.4266 113.379 64.4643 112.722C64.4643 112.519 64.4643 112.315 64.5425 112.112C64.7773 111.22 64.9807 110.344 65.2624 109.545C65.8937 108.024 66.6804 106.571 67.6098 105.211C68.5874 103.764 69.2094 102.107 69.4251 100.375C69.5203 99.5055 69.4077 98.6259 69.0965 97.8084C68.7604 97.0707 68.3116 96.3896 67.7663 95.7897C66.8209 94.8799 66.1349 93.7348 65.7788 92.472C65.6248 91.468 65.8005 90.4412 66.2796 89.5456C67.3797 91.1217 68.7089 92.5247 70.2233 93.7083C71.1527 95.8986 72.2898 97.9947 73.6192 99.968C73.4329 100.243 73.2656 100.531 73.1184 100.829C72.6242 101.782 72.261 102.798 72.0386 103.849C71.824 105.068 71.7505 106.307 71.8195 107.542C71.9621 108.695 72.0405 109.855 72.0542 111.017C72.0661 111.961 71.9071 112.899 71.5847 113.786C70.724 114.35 69.8477 114.944 68.9713 115.555L67.3281 116.65C67.5692 116.211 67.7383 115.735 67.8289 115.242C67.9886 114.495 67.9288 113.718 67.6568 113.004C67.5585 112.74 67.4213 112.492 67.2499 112.268C67.3312 112.527 67.3786 112.796 67.3907 113.067C67.4371 113.734 67.33 114.403 67.0777 115.023C66.7455 115.862 66.2073 116.605 65.5128 117.182C64.6805 117.859 63.7383 118.389 62.7272 118.747C61.6944 119.217 60.5989 119.592 59.5973 120.015C58.6287 120.413 57.7181 120.939 56.89 121.58L56.7648 121.674C56.9057 121.361 57.0465 121.032 57.156 120.703C57.2892 120.046 57.5555 119.423 57.9385 118.872ZM42.2892 135.602C46.3816 130.642 51.9993 127.176 58.2671 125.743C58.7992 127.301 59.4104 128.831 60.0981 130.328C61.36 132.787 62.8313 135.132 64.4956 137.339C66.4896 139.83 68.7224 142.121 71.1622 144.177C73.6746 146.139 76.3741 147.847 79.2216 149.279C81.4906 150.281 83.8348 151.102 86.2325 151.736C84.2607 152.127 82.0698 152.581 79.4407 153.301C69.9259 155.742 62.868 158.575 59.2061 163.614C59.0653 162.706 58.9244 161.955 58.7836 161.376C58.7912 161.235 58.7912 161.094 58.7836 160.954C58.7765 160.588 58.6819 160.23 58.5076 159.908C58.3333 159.587 58.0845 159.312 57.782 159.107C57.4732 158.905 57.1275 158.767 56.7648 158.7C56.4436 158.646 56.1197 158.609 55.7945 158.591C55.1072 158.571 54.4245 158.471 53.7601 158.293C52.5104 158.067 51.3088 157.627 50.2077 156.994C49.3571 156.575 48.563 156.049 47.8447 155.429C47.5393 155.212 47.2467 154.977 46.9683 154.725C47.0952 155.085 47.2469 155.435 47.4221 155.774C47.9286 156.674 48.5493 157.505 49.2688 158.246C50.3851 159.247 51.6665 160.046 53.0559 160.609C53.8716 160.895 54.7167 161.09 55.5755 161.188C55.8728 161.188 55.7319 161.188 55.7789 161.188C55.7789 161.188 55.8258 161.188 55.7789 161.188V161.298L55.1529 162.315L53.9636 164.256L52.8055 165.429C51.4099 165.454 50.0153 165.339 48.6428 165.085C46.8456 164.868 45.0837 164.421 43.4003 163.755C41.714 163.244 40.1112 162.491 38.6429 161.517C37.2906 160.675 36.0853 159.618 35.0748 158.387C34.7269 158.006 34.4028 157.603 34.1045 157.182C36.1233 149.436 38.8463 139.811 42.2579 135.523L42.2892 135.602ZM-8.83727 238.887C-8.13947 238.259 -7.25367 237.88 -6.31773 237.808H-6.02039C-6.19253 237.917 -6.36468 238.011 -6.53682 238.136C-7.06564 238.524 -7.53943 238.982 -7.94526 239.498C-8.31423 239.984 -8.62908 240.508 -8.88422 241.063C-9.0811 241.528 -9.23816 242.01 -9.3537 242.502C-9.43908 242.837 -9.50182 243.177 -9.54149 243.52V243.895L-9.3224 243.582C-9.16591 243.394 -8.99377 243.097 -8.71208 242.8C-8.41576 242.46 -8.09118 242.146 -7.74182 241.861C-7.36734 241.561 -6.95736 241.309 -6.52117 241.11C-6.28094 240.998 -6.02897 240.914 -5.77 240.859C-6.53682 242.8 -7.33494 244.771 -8.2426 246.634C-8.44604 247.119 -8.64948 247.557 -8.83727 248.011C-10.2301 244.881 -11.4351 240.687 -8.86857 238.84L-8.83727 238.887ZM-3.67299 280.609C-6.48987 277.103 -8.75903 273.989 -8.71208 269.654C-8.66513 265.319 -7.56967 261.61 -7.67922 257.948C-7.78877 254.286 -1.41948 243.707 0.286299 236.039C1.99208 228.371 9.91065 207.448 15.8261 197.808L16.5773 196.556L17.3284 200.468L19.7071 191.079C24.2924 182.753 28.8307 173.27 30.8025 168.403L30.9903 169.044C31.5365 170.38 32.2574 171.638 33.1343 172.784C34.2555 174.025 35.5652 175.081 37.0153 175.914C38.5415 176.636 40.1745 177.107 41.851 177.307C42.5129 177.347 43.1765 177.347 43.8384 177.307L42.2735 179.811C40.7086 182.315 38.8619 185.007 37.0466 187.933C35.4817 190.453 33.9168 193.066 32.3518 195.977L25.0279 202.44H29.2532L29.1594 202.659C28.3456 204.334 27.4849 206.039 26.6242 207.761C24.8401 211.172 23.0092 214.662 21.0843 218.074C19.1594 221.485 17.125 224.866 15.1688 228.418C13.2127 231.97 11.3973 235.304 9.73851 238.747C8.09331 242.082 6.69672 245.534 5.56013 249.075C5.29409 249.936 5.075 250.859 4.87156 251.704C4.66812 252.549 4.51162 253.269 4.33948 254.114L4.21429 255.022C3.54533 257.302 3.12042 259.647 2.94669 262.017C2.79359 264.38 2.90382 266.752 3.27532 269.091C3.49202 267.647 3.80572 266.22 4.21429 264.818C4.49975 265.309 4.85271 265.756 5.26279 266.149C5.81052 266.681 6.20175 267.009 6.59299 267.416C8.01604 268.836 9.27582 270.411 10.3488 272.111C11.0664 273.227 11.6346 274.431 12.039 275.695C12.1422 276.034 12.2258 276.379 12.2894 276.727C12.2814 276.847 12.2814 276.968 12.2894 277.087C12.2776 277.583 12.2146 278.076 12.1016 278.558C11.9294 278.465 11.7886 278.371 11.5851 278.277C10.8972 277.935 10.1564 277.713 9.39422 277.62C8.56955 277.504 7.73039 277.546 6.92162 277.745C6.53552 277.829 6.15825 277.949 5.79487 278.105C5.44895 278.246 5.11416 278.414 4.79331 278.605C4.23723 278.919 3.71309 279.286 3.22838 279.701C2.8992 279.975 2.58572 280.268 2.28942 280.577L1.94513 280.922L2.39896 280.734C2.77517 280.559 3.16194 280.407 3.55701 280.28C4.09395 280.086 4.65003 279.949 5.21585 279.873C5.44952 279.841 5.68639 279.841 5.92006 279.873C5.5406 279.973 5.17327 280.115 4.82461 280.296C2.57111 281.422 2.52416 282.424 2.71195 282.925L2.25812 283.347H1.88253C0.800254 283.341 -0.266226 283.087 -1.2348 282.604C-2.20338 282.121 -3.04822 281.422 -3.70429 280.562L-3.67299 280.609ZM51.4284 428.636L56.6396 443.424L56.2327 443.847C54.6052 442.11 51.3971 439.95 51.3971 428.589L51.4284 428.636ZM54.5582 470.185C52.8264 470.31 51.1676 470.372 49.5818 470.372C33.5881 470.372 26.1077 464.661 32.3675 462.767C32.7118 462.657 33.056 462.579 33.4003 462.501C34.1884 462.394 34.984 462.352 35.779 462.376C36.7148 462.44 37.6453 462.565 38.5646 462.751C39.5505 462.923 40.5834 463.236 41.6945 463.471C42.8056 463.706 43.9167 464.019 45.1217 464.285C46.334 464.493 47.5563 464.64 48.7836 464.723C49.9659 464.817 51.1538 464.817 52.336 464.723C54.4268 464.576 56.4892 464.155 58.4706 463.471C59.8463 462.995 61.1639 462.365 62.3986 461.593C62.8755 461.313 63.3353 461.005 63.7757 460.67L62.1325 460.779C61.1153 460.858 59.6599 460.967 57.9542 461.014C56.2484 461.061 54.2922 461.014 52.2265 460.92C51.1936 460.92 50.1295 460.717 49.0966 460.607C48.0014 460.477 46.9146 460.284 45.8416 460.028H45.4347C44.1358 458.369 42.8525 456.319 43.1342 455.052C43.5408 455.075 43.9483 455.075 44.3549 455.052C44.9863 455.016 45.614 454.932 46.2328 454.801C46.973 454.685 47.7012 454.502 48.4081 454.254C49.2114 454.002 49.9959 453.693 50.7555 453.33C51.5654 452.949 52.3496 452.515 53.1029 452.032C53.8853 451.531 54.6678 450.952 55.3564 450.388C56.0449 449.825 56.7179 449.121 57.3282 448.432C57.5943 448.164 57.8402 447.876 58.0637 447.571L58.4236 448.589C57.8133 449.293 57.1717 449.997 56.4831 450.67C55.5656 451.614 54.588 452.497 53.5567 453.315C52.5551 454.066 51.6475 454.88 50.7868 455.38C49.926 455.881 49.2218 456.413 48.7054 456.711L47.8916 457.211L48.8149 456.961C49.6225 456.719 50.4122 456.421 51.178 456.069C52.2666 455.564 53.3132 454.972 54.3079 454.301C55.4087 453.495 56.4543 452.617 57.4377 451.672C57.9385 451.139 58.4236 450.576 58.8775 450.028L60.4424 454.41C60.0981 454.942 59.8321 455.443 59.613 455.756L59.2531 456.351L59.8008 455.944C60.0355 455.756 60.3642 455.49 60.7084 455.161L62.0699 459.027C62.2144 459.454 62.4947 459.822 62.868 460.075L67.422 463.205L67.6724 463.315C67.422 466.538 65.0903 469.418 54.5113 470.138L54.5582 470.185ZM70.6458 451.953L55.5129 406.054C56.2025 404.188 56.6546 402.242 56.8587 400.263C59.0639 410.943 62.0345 421.45 65.7475 431.703C68.06 438.133 69.9831 444.697 71.5065 451.359C71.1929 451.522 70.8897 451.705 70.5988 451.906L70.6458 451.953ZM88.4078 491.577L87.6566 491.75C87.611 491.59 87.5744 491.428 87.5471 491.264C87.4823 490.515 87.4823 489.761 87.5471 489.011C87.5471 488.213 87.4375 487.446 87.3906 486.648C87.3436 485.85 87.1871 485.192 87.1245 484.582C87.062 483.972 86.8898 483.487 86.8272 483.127L86.6707 482.579L86.5455 483.142C86.5455 483.487 86.3734 484.003 86.3264 484.613C86.2795 485.224 86.1699 485.928 86.1543 486.679C86.1386 487.43 86.1543 488.244 86.1543 489.058C86.175 489.889 86.2693 490.716 86.436 491.53C86.4716 491.682 86.5241 491.829 86.5925 491.969C85.7444 492.116 84.8865 492.2 84.026 492.219C83.9692 491.999 83.9326 491.773 83.9164 491.546C83.8722 490.973 83.8722 490.398 83.9164 489.825C83.9164 489.199 83.9164 488.573 83.9164 487.978C83.9164 487.383 83.7912 486.851 83.7443 486.413C83.6973 485.975 83.5721 485.552 83.5252 485.271L83.4 484.848L83.2435 485.271C83.2435 485.537 83.0244 485.928 82.9462 486.397C82.8679 486.867 82.7271 487.399 82.6801 487.962C82.6332 488.526 82.5706 489.167 82.5236 489.793C82.5127 490.448 82.5546 491.102 82.6488 491.75C82.6793 491.922 82.7319 492.091 82.8053 492.25C82.1798 492.226 81.5571 492.153 80.9431 492.031C80.9364 491.953 80.9364 491.875 80.9431 491.796C80.8812 491.303 80.8812 490.803 80.9431 490.31V488.667C80.9341 488.18 80.8975 487.694 80.8335 487.211C80.7941 486.863 80.7314 486.518 80.6457 486.178L80.5362 485.787L80.3797 486.163C80.2449 486.484 80.1299 486.813 80.0354 487.149C80.0354 487.571 79.785 488.056 79.7224 488.573C79.6598 489.089 79.5816 489.668 79.519 490.216C79.5165 490.688 79.5532 491.159 79.6285 491.624C79.3171 491.515 79.0182 491.374 78.7365 491.202C78.7201 491.073 78.6886 490.947 78.6426 490.826C78.5437 490.458 78.486 490.08 78.4705 489.699C78.379 489.314 78.3265 488.921 78.314 488.526C78.314 488.135 78.2044 487.759 78.1731 487.43C78.1418 487.102 78.0323 486.82 78.001 486.617L77.9071 486.304L77.7349 486.585C77.6006 486.834 77.4804 487.09 77.375 487.352C77.2463 487.723 77.152 488.106 77.0933 488.494C77.0933 488.839 77.0933 489.23 77.0933 489.606C75.0433 486.382 74.6677 478.479 75.8101 473.33C76.5249 469.779 76.9125 466.17 76.9681 462.548L77.7819 464.379L78.4079 465.599C78.4079 465.599 78.4079 465.114 78.314 464.238L77.7662 460.623C77.5002 459.183 77.1872 457.493 76.8429 455.678C76.6864 455.021 76.5143 454.332 76.3421 453.659C76.17 452.986 76.1231 452.438 75.9822 451.859C74.4124 444.531 72.3205 437.324 69.7225 430.295C64.7616 415.647 59.1592 398.996 59.0183 379.888C59.246 379.142 59.4083 378.377 59.5034 377.603C59.5034 377.29 59.5034 376.946 59.5034 376.617C60.1084 377.627 60.7885 378.589 61.5379 379.497C62.8369 381.088 64.2546 382.579 65.7788 383.957C67.3438 385.334 68.9087 386.649 70.2702 388.01C71.708 389.301 73.0472 390.698 74.2764 392.188C74.4016 392.345 74.5112 392.501 74.6364 392.642C75.3406 395.193 76.3108 398.761 77.1716 403.096C77.6097 405.303 78.0323 407.713 78.4705 410.248C78.9086 412.783 79.2842 415.506 79.7224 418.291C80.1606 421.077 80.5049 424.003 80.99 426.946C81.4751 429.888 81.929 432.892 82.5549 435.897C83.1809 438.902 83.7912 441.891 84.5111 444.833C84.5111 445.068 84.6207 445.302 84.6832 445.537C84.8867 447.493 85.1214 449.371 85.3718 451.139C85.9142 455.117 86.677 459.062 87.6566 462.955C88.0166 464.363 88.3296 465.459 88.5643 466.21L88.7208 466.711V466.961C88.7208 467.415 88.7208 467.869 88.8303 468.307C89.1433 472.642 89.425 476.304 89.7693 478.933C89.7693 480.498 89.7693 481.953 89.7693 483.205C89.9727 487.211 91.8506 490.67 88.3608 491.53L88.4078 491.577ZM131.71 442.141C132.742 443.831 135.434 445.709 137.484 447.415C137.656 447.65 137.813 447.931 138.032 448.182C138.251 448.432 138.548 448.87 138.783 449.23C139.018 449.59 139.331 449.919 139.566 450.263C139.8 450.607 139.972 450.811 140.16 451.061C140.238 451.686 140.14 452.32 139.879 452.892C139.744 452.427 139.576 451.972 139.378 451.531C139.104 451.108 138.801 450.705 138.47 450.326C138.153 450.024 137.801 449.761 137.422 449.543C137.154 449.384 136.864 449.268 136.561 449.199L136.217 449.121L136.404 449.418C136.545 449.575 136.686 449.872 136.889 450.138C137.093 450.404 137.265 450.78 137.5 451.108C137.744 451.454 137.959 451.821 138.141 452.204C138.367 452.564 138.566 452.941 138.736 453.33C138.877 453.706 139.112 454.05 139.221 454.363C139.221 454.363 139.221 454.473 139.221 454.535C139.221 454.598 139.096 455.036 139.033 455.318C139.041 455.448 139.041 455.579 139.033 455.709C138.759 455.067 138.396 454.466 137.954 453.925C137.469 453.362 136.983 452.798 136.514 452.282C136.044 451.765 135.544 451.327 135.152 450.936C134.761 450.545 134.354 450.263 134.104 450.044L133.681 449.747L133.885 450.232C134.057 450.513 134.229 450.967 134.526 451.437C134.824 451.906 135.137 452.501 135.559 453.002L136.858 454.77C137.321 455.223 137.702 455.752 137.985 456.335C138.152 456.779 138.217 457.255 138.173 457.728C137.878 458.164 137.494 458.532 137.046 458.808C137.05 458.435 136.97 458.065 136.811 457.728C136.615 457.305 136.362 456.91 136.06 456.554C135.434 455.944 134.855 455.459 134.292 454.989C133.728 454.52 133.149 454.066 132.727 453.69C132.304 453.315 131.803 453.049 131.522 452.845L131.021 452.548L131.318 453.049C131.537 453.33 131.788 453.784 132.179 454.254C132.57 454.723 132.961 455.302 133.478 455.819C133.994 456.335 134.573 456.977 135.043 457.524C135.287 457.706 135.485 457.942 135.62 458.214C135.756 458.486 135.827 458.785 135.825 459.089C135.844 459.177 135.844 459.268 135.825 459.355C135.695 459.364 135.564 459.364 135.434 459.355H135.199C132.915 459.355 127.625 457.618 125.387 454.019C123.151 450.735 121.193 447.27 119.534 443.659C119.534 443.565 119.534 443.471 119.534 443.377C119.966 444.175 120.441 444.949 120.958 445.693C121.303 446.163 121.616 446.507 121.819 446.758L122.132 447.118C122.132 447.118 121.835 446.507 121.444 445.427C120.839 443.965 120.367 442.452 120.035 440.905C119.493 438.761 119.111 436.58 118.893 434.379C118.548 431.969 118.314 429.371 118.11 426.742C117.907 424.113 117.422 421.453 116.937 418.917C116.422 416.657 115.737 414.439 114.886 412.282C114.122 410.798 113.221 409.389 112.195 408.072C111.927 407.703 111.64 407.347 111.334 407.008L111.021 406.633C111.021 406.633 111.318 407.243 111.71 408.339C112.149 409.401 112.51 410.494 112.789 411.609C111.45 408.42 109.749 405.396 107.719 402.595C106.483 400.811 105.262 399.09 104.276 397.353C103.32 395.565 102.554 393.682 101.991 391.735C100.755 387.746 99.9783 383.63 99.6753 379.465C99.4385 376.34 99.4385 373.201 99.6753 370.076C104.746 359.278 114.041 353.049 122.32 348.949C122.007 351.344 121.631 354.38 121.271 357.901C121.052 360.092 120.802 362.47 120.599 364.974C120.395 367.478 120.145 370.123 119.973 372.799C119.62 375.751 119.62 378.735 119.973 381.688C120.265 383.32 120.792 384.901 121.537 386.382C122.242 387.822 123.102 389.105 123.775 390.342C124.496 391.471 125.119 392.659 125.638 393.894C126.08 395.072 126.365 396.303 126.483 397.556C126.629 400.176 126.456 402.803 125.966 405.381C125.544 408.025 125.027 410.686 124.808 413.299C124.59 415.755 124.643 418.226 124.965 420.67C125.391 424.129 126.363 427.499 127.844 430.654C128.757 434.579 130.035 438.409 131.663 442.094L131.71 442.141ZM173.853 261.282C173.846 261.432 173.814 261.58 173.759 261.72H173.243C173.297 261.605 173.325 261.479 173.325 261.352C173.325 261.225 173.297 261.099 173.243 260.984L172.852 260.03C173.131 260.103 173.379 260.265 173.559 260.49C173.74 260.716 173.843 260.993 173.853 261.282Z" fill="#3C3B45"/>
</svg>
