<svg width="30" height="30" viewBox="0 0 30 30" fill="none" xmlns="http://www.w3.org/2000/svg">
<path d="M15 23.5168C10.2739 23.5168 6.42857 19.6714 6.42857 14.9454C6.42857 10.2193 10.2739 6.37393 15 6.37393C19.7261 6.37393 23.5714 10.2193 23.5714 14.9454C23.5714 19.6714 19.7261 23.5168 15 23.5168ZM13.9286 0V4.28571C8.52214 4.82571 4.28571 9.39964 4.28571 14.9454C4.28571 16.5129 4.63286 17.9989 5.24036 19.3425L1.52357 21.4886C0.557142 19.5086 0 17.2929 0 14.9454C0 7.03607 6.1575 0.552857 13.9286 0ZM15 29.9454C9.84214 29.9454 5.28428 27.3279 2.58428 23.3507L6.31607 21.1961C8.26393 23.8939 11.4257 25.6596 15 25.6596C18.5743 25.6596 21.7361 23.8939 23.6839 21.1961L27.4157 23.3507C24.7157 27.3279 20.1579 29.9454 15 29.9454ZM28.4764 21.4886L24.7596 19.3425C25.3671 17.9989 25.7143 16.5129 25.7143 14.9454C25.7143 9.39964 21.4779 4.82464 16.0714 4.28571V0C23.8425 0.552857 30 7.03607 30 14.9454C30 17.2929 29.4429 19.5086 28.4764 21.4886Z" fill="#C8242F"/>
</svg>
