<svg width="50" height="50" viewBox="0 0 50 50" fill="none" xmlns="http://www.w3.org/2000/svg">
<path d="M49.9954 22.547C49.9898 22.4872 49.9776 22.4282 49.9593 22.3711C49.9478 22.3119 49.93 22.2542 49.9063 22.1988C49.9063 22.1855 49.9063 22.1711 49.893 22.1578L42.6635 8.90482C42.6539 8.88554 42.631 8.87952 42.6202 8.86145C42.5417 8.73248 42.4318 8.62556 42.3007 8.55074C42.1696 8.47593 42.0216 8.43566 41.8707 8.43373H30.6337C30.4431 7.24858 29.8836 6.15371 29.0347 5.3049C28.1858 4.4561 27.0909 3.89661 25.9056 3.70602V0.903615C25.9056 0.663961 25.8104 0.434123 25.6409 0.264662C25.4715 0.0952018 25.2416 0 25.0019 0C24.7623 0 24.5324 0.0952018 24.3629 0.264662C24.1935 0.434123 24.0982 0.663961 24.0982 0.903615V3.70602C22.913 3.89661 21.818 4.4561 20.9692 5.3049C20.1203 6.15371 19.5608 7.24858 19.3702 8.43373H8.13316C7.98222 8.43566 7.83425 8.47593 7.70315 8.55074C7.57205 8.62556 7.46213 8.73248 7.3837 8.86145C7.37286 8.87952 7.34996 8.88554 7.34032 8.90482L0.110852 22.1578C0.103622 22.1711 0.103622 22.1855 0.0975977 22.1988C0.0738209 22.2542 0.0560477 22.3119 0.044582 22.3711C0.026207 22.4282 0.0140867 22.4872 0.00843435 22.547C0.00843435 22.5627 0 22.5747 0 22.5904C4.54564e-08 24.7472 0.856884 26.8158 2.38215 28.3409C3.90741 29.8661 5.97611 30.7229 8.13316 30.7229C10.2902 30.7229 12.3589 29.8661 13.8842 28.3409C15.4094 26.8158 16.2663 24.7472 16.2663 22.5904C16.2663 22.5747 16.2579 22.5627 16.2579 22.547C16.2522 22.4872 16.2401 22.4282 16.2217 22.3711C16.2103 22.3119 16.1925 22.2542 16.1687 22.1988C16.1687 22.1855 16.1687 22.1711 16.1555 22.1578L9.64894 10.241H19.3641C19.5039 11.1032 19.8399 11.9218 20.3464 12.6335C20.8528 13.3453 21.516 13.9311 22.2849 14.3458V44.5783H16.5675C15.8485 44.5783 15.159 44.8639 14.6505 45.3723C14.1421 45.8807 13.8565 46.5702 13.8565 47.2892C13.8565 48.0081 14.1421 48.6976 14.6505 49.206C15.159 49.7144 15.8485 50 16.5675 50H33.4363C34.1553 50 34.8449 49.7144 35.3533 49.206C35.8617 48.6976 36.1474 48.0081 36.1474 47.2892C36.1474 46.5702 35.8617 45.8807 35.3533 45.3723C34.8449 44.8639 34.1553 44.5783 33.4363 44.5783H27.713V14.3458C28.4818 13.9311 29.145 13.3453 29.6515 12.6335C30.1579 11.9218 30.4939 11.1032 30.6337 10.241H40.3489L33.8424 22.1578C33.8351 22.1711 33.8351 22.1855 33.8291 22.1988C33.8053 22.2542 33.7876 22.3119 33.7761 22.3711C33.7577 22.4282 33.7456 22.4872 33.7399 22.547C33.7399 22.5627 33.7315 22.5747 33.7315 22.5904C33.7315 24.7472 34.5884 26.8158 36.1137 28.3409C37.6389 29.8661 39.7076 30.7229 41.8647 30.7229C44.0217 30.7229 46.0904 29.8661 47.6157 28.3409C49.1409 26.8158 49.9978 24.7472 49.9978 22.5904C50.0039 22.5747 49.9954 22.5627 49.9954 22.547ZM47.5784 21.6867H36.163L41.8707 11.2241L47.5784 21.6867ZM8.13316 11.2241L13.8408 21.6867H2.42549L8.13316 11.2241ZM8.13316 28.9157C6.61185 28.9145 5.14173 28.3661 3.99136 27.3707C2.84099 26.3753 2.08718 24.9992 1.86761 23.494H14.3987C14.1791 24.9992 13.4253 26.3753 12.275 27.3707C11.1246 28.3661 9.65447 28.9145 8.13316 28.9157ZM34.34 47.2892C34.34 47.5288 34.2448 47.7587 34.0753 47.9281C33.9058 48.0976 33.676 48.1928 33.4363 48.1928H16.5675C16.3279 48.1928 16.098 48.0976 15.9285 47.9281C15.7591 47.7587 15.6639 47.5288 15.6639 47.2892C15.6639 47.0495 15.7591 46.8197 15.9285 46.6502C16.098 46.4807 16.3279 46.3855 16.5675 46.3855H33.4363C33.676 46.3855 33.9058 46.4807 34.0753 46.6502C34.2448 46.8197 34.34 47.0495 34.34 47.2892ZM25.9056 44.5783H24.0982V14.9687C24.6945 15.0908 25.3093 15.0908 25.9056 14.9687V44.5783ZM25.0019 13.253C24.2274 13.253 23.4703 13.0234 22.8263 12.5931C22.1824 12.1628 21.6804 11.5513 21.384 10.8358C21.0877 10.1203 21.0101 9.33301 21.1612 8.57344C21.3123 7.81388 21.6853 7.11617 22.2329 6.56856C22.7806 6.02094 23.4783 5.64801 24.238 5.49692C24.9976 5.34584 25.785 5.42338 26.5005 5.71975C27.2161 6.01612 27.8276 6.518 28.2579 7.16192C28.6882 7.80585 28.9179 8.5629 28.9179 9.33735C28.9166 10.3755 28.5036 11.3707 27.7695 12.1047C27.0354 12.8388 26.0401 13.2517 25.0019 13.253ZM41.8707 28.9157C40.3494 28.9145 38.8793 28.3661 37.7289 27.3707C36.5785 26.3753 35.8247 24.9992 35.6052 23.494H48.1362C47.9167 24.9992 47.1629 26.3753 46.0125 27.3707C44.8621 28.3661 43.392 28.9145 41.8707 28.9157Z" fill="white"/>
</svg>
