<svg width="20" height="23" viewBox="0 0 20 23" fill="none" xmlns="http://www.w3.org/2000/svg">
<path d="M16.8889 11.8048V9.6776C16.8889 6.57441 14.8262 3.94424 12 3.08517V2.12206C12 1.01927 11.1028 0.12207 10 0.12207C8.89722 0.12207 8.00003 1.01927 8.00003 2.12206V3.08517C5.17381 3.94424 3.11115 6.57436 3.11115 9.6776V11.8048C3.11115 14.5306 2.07213 17.1154 0.185518 19.0828C0.00062972 19.2756 -0.0513257 19.5601 0.053474 19.8058C0.158274 20.0515 0.399606 20.2109 0.666717 20.2109H6.73377C7.04345 21.7305 8.39029 22.8776 10 22.8776C11.6098 22.8776 12.9565 21.7305 13.2663 20.2109H19.3333C19.6004 20.2109 19.8417 20.0515 19.9465 19.8058C20.0513 19.5601 19.9994 19.2756 19.8145 19.0828C17.9279 17.1154 16.8889 14.5306 16.8889 11.8048ZM9.33336 2.12206C9.33336 1.75447 9.63242 1.4554 10 1.4554C10.3676 1.4554 10.6667 1.75447 10.6667 2.12206V2.82108C10.4473 2.79993 10.2249 2.78873 10 2.78873C9.77513 2.78873 9.55278 2.79993 9.33336 2.82108V2.12206ZM10 21.5442C9.13091 21.5442 8.38989 20.9869 8.11469 20.2109H11.8853C11.6101 20.9869 10.8691 21.5442 10 21.5442ZM2.1036 18.8776C3.62186 16.8424 4.44448 14.3794 4.44448 11.8048V9.6776C4.44448 6.61427 6.9367 4.12206 10 4.12206C13.0633 4.12206 15.5556 6.61427 15.5556 9.6776V11.8048C15.5556 14.3794 16.3782 16.8424 17.8965 18.8776H2.1036Z" fill="#B69D74"/>
<path d="M18.6669 9.67747C18.6669 10.0456 18.9654 10.3441 19.3336 10.3441C19.7018 10.3441 20.0003 10.0456 20.0003 9.67747C20.0003 7.00637 18.9601 4.49513 17.0714 2.60638C16.811 2.34607 16.3889 2.34603 16.1286 2.60638C15.8682 2.86674 15.8682 3.28882 16.1286 3.54918C17.7655 5.18611 18.6669 7.3625 18.6669 9.67747Z" fill="white"/>
<path d="M0.666665 10.3441C1.03484 10.3441 1.33333 10.0456 1.33333 9.67744C1.33333 7.36252 2.23484 5.18612 3.87172 3.5492C4.13208 3.28884 4.13208 2.86675 3.87172 2.6064C3.61141 2.34604 3.18928 2.34604 2.92892 2.6064C1.04017 4.49515 0 7.00634 0 9.67744C0 10.0456 0.298488 10.3441 0.666665 10.3441Z" fill="white"/>
</svg>
