<svg width="118" height="56" viewBox="0 0 118 56" fill="none" xmlns="http://www.w3.org/2000/svg">
<path d="M198.82 160.79L199.832 140.472L199.711 140.362L196.204 149.187L196.153 136.558C191.251 131.712 185.231 126.918 178.188 120.487L175.014 132.392L175.705 118.22C169.618 112.506 163.895 106.415 158.571 99.9838L154.663 109.775L156.294 97.1277C156.052 96.9066 155.809 96.6854 155.567 96.4643L154.068 98.7956L153.191 93.5546C146.997 86.3911 139.98 79.9834 132.284 74.4642L125.721 94.7829L129.327 72.3934C126.312 70.3058 123.298 68.2569 120.013 65.7754L117.021 73.5906L117.502 63.7422C114.164 61.0999 110.963 58.2883 107.912 55.3184L102.87 65.2579L104.994 52.3947C95.8056 43.6389 85.6155 35.9987 74.6354 29.6328L70.7646 38.5325L72.2672 28.1735C67.8959 25.6252 63.5131 23.2516 59.2383 21.1245L54.7315 29.2214L54.7319 19.008C48.6125 16.0689 42.3338 13.4739 35.9251 11.2349C35.495 14.5428 35.4326 17.0023 35.4326 17.0023C35.4326 17.0023 34.8062 14.284 34.2939 10.6706C32.468 10.0765 30.8017 9.59125 29.3338 9.21301C12.9899 4.98402 5.65812 0.287683 1.91144 0.419162C-1.83524 0.55064 4.11517 11.461 3.80243 21.6112C3.61268 27.655 7.8032 31.3334 14.2434 38.5462L45.4099 43.3206L18.1346 42.8765C22.4696 48.0288 26.3687 53.5325 29.7917 59.3307C31.0903 61.5156 32.3177 63.4136 33.5364 65.1185C35.3343 65.0949 37.2866 65.0642 39.1766 64.9397C46.8411 64.6109 54.5416 63.797 54.5416 63.797C54.5416 63.797 47.1999 66.1228 39.6425 67.9555L36.3871 68.6836C39.6742 72.6262 43.5553 76.0327 47.8909 78.7808L63.4558 78.6348L51.1031 80.9368C52.7974 82.0398 54.5707 83.1779 56.4668 84.4652L65.794 84.5445L58.4857 85.9016C64.8238 90.5935 70.6215 95.9744 75.7725 101.945C76.671 102.988 77.6063 103.99 78.36 104.826L94.7514 104.991L80.8816 107.536C82.2846 109.039 83.6016 110.352 84.715 111.443L111.538 112.14L89.2925 115.549C99.381 123.873 102.414 120.388 117.246 130.934C119.985 132.879 122.413 134.8 124.668 136.748L139.208 136.185L128.118 139.899C134.931 146.379 140.048 152.975 146.573 159.933L161.742 160.018L149.478 162.993C153.436 167.031 157.659 170.8 162.119 174.276L184.009 174.133L166.586 177.652C183.688 190.048 181.654 182.751 201.515 187.343C208.691 193.71 215.755 199.753 222.563 205.266C227.242 209.058 231.958 208.553 234.188 206.111C234.698 205.562 235.077 204.904 235.296 204.187C235.515 203.47 235.568 202.713 235.451 201.973C235.395 201.64 235.309 201.314 235.194 200.998C235.149 200.416 234.906 199.867 234.504 199.443C234.351 199.248 234.167 199.08 233.959 198.945C233.354 198.33 232.666 197.801 231.915 197.375C225.15 192.269 218.646 186.825 212.43 181.063C212.382 171.629 210.727 162.271 207.537 153.392C206.448 150.423 205.001 147.598 203.228 144.98L198.82 160.79ZM25.6057 29.3449C25.0529 29.0992 24.2062 28.7701 23.2568 28.3103C22.3074 27.8505 21.2019 27.3591 19.9919 26.6983C18.7819 26.0376 17.5132 25.3601 16.3067 24.7766L12.7304 22.6952C11.559 22.0327 10.5403 21.3245 9.62604 20.7857C8.71176 20.247 8.00895 19.6792 7.49127 19.3546C6.97359 19.0299 6.76478 18.6912 6.76478 18.6912L7.69046 19.0554C8.26342 19.3195 9.07153 19.6503 10.0209 20.1101C10.9703 20.5699 11.9872 21.2395 13.2305 21.7827L16.8973 23.7246C18.1274 24.4037 19.3392 25.1031 20.4921 25.7858C21.645 26.4685 22.6821 27.1564 23.5964 27.6952C24.5107 28.234 25.2135 28.8017 25.7312 29.1264L26.4577 29.7898L25.6057 29.3449ZM160.184 114.631L160.113 115.195C160.068 115.679 160 116.16 159.907 116.636C159.779 117.222 159.695 117.922 159.476 118.648L158.863 120.9L158.093 123.121C157.834 123.81 157.554 124.442 157.308 124.994C157.062 125.547 156.811 125.984 156.671 126.3L156.302 126.704L156.335 126.141C156.396 125.79 156.451 125.285 156.579 124.699C156.707 124.113 156.791 123.412 156.991 122.707L157.605 120.455L158.374 118.234C158.613 117.527 158.932 116.893 159.16 116.36C159.346 115.903 159.565 115.46 159.815 115.035L160.184 114.631ZM134.036 101.524L135.061 98.1307L136.205 94.771C136.562 93.6909 137.002 92.7231 137.331 91.8764C137.66 91.0296 137.996 90.3374 138.206 89.8636L138.578 89.0923L138.442 89.9303C138.31 90.4392 138.209 91.1981 137.959 92.08C137.709 92.9618 137.543 93.9945 137.206 95.0931L136.219 98.4844L135.037 101.846C134.679 102.926 134.258 103.874 133.929 104.72C133.6 105.567 133.264 106.259 133.053 106.733L132.682 107.504L132.838 106.685C132.95 106.157 133.051 105.398 133.283 104.537C133.514 103.675 133.778 102.657 134.036 101.524ZM94.5392 79.4476C71.1387 55.7119 14.4233 11.8439 14.4233 11.8439L17.0407 13.6787C18.7402 14.8976 21.2382 16.6604 24.397 18.9156C27.5557 21.1707 31.34 23.9971 35.7025 27.2034C40.065 30.4098 44.8768 34.1373 50.1492 38.2115C52.7568 40.2595 55.5023 42.3593 58.2933 44.6118C61.0844 46.8643 63.993 49.1502 66.8078 51.4983C68.2204 52.7882 69.762 53.9368 71.2887 55.1828C72.8154 56.4289 74.1745 57.8179 75.7767 59.0218C78.8336 61.5911 81.9967 64.3683 85.0001 67.0367C88.0035 69.7051 91.1753 72.6754 94.3235 75.55C95.8975 76.9873 97.4716 78.4246 98.9553 80.0014C100.439 81.5782 102.032 82.9954 103.57 84.5116C106.613 87.6232 109.737 90.8084 112.724 93.9805C115.712 97.1525 118.821 100.435 121.907 103.661C128.116 110.033 134.398 116.324 140.635 122.463C146.871 128.602 153.12 134.566 159.164 140.308C165.208 146.049 171.162 151.485 176.831 156.624C182.5 161.764 187.809 166.649 192.899 170.963C202.913 179.774 211.456 186.872 217.558 191.74C220.589 194.175 223.032 195.999 224.731 197.217C225.538 197.834 226.384 198.396 227.264 198.901L227.062 199.123C226.418 199.91 225.854 200.759 225.378 201.656C225.211 202.014 225.124 202.402 225.122 202.797C225.12 203.191 225.203 203.581 225.366 203.939C225.494 204.19 225.709 204.387 225.971 204.492C225.857 204.281 225.806 204.042 225.824 203.803C225.834 203.531 225.901 203.264 226.02 203.02C226.173 203.353 226.391 203.651 226.661 203.898C226.932 204.145 227.249 204.335 227.594 204.457C229.27 204.928 231.05 204.874 232.694 204.303L233.148 204.089L232.725 204.553C231.177 206.248 227.639 206.718 223.611 203.632C177.516 166.168 117.94 103.183 94.5392 79.4476ZM228.665 198.219C228.164 198.427 227.7 198.716 227.292 199.074C227.029 198.835 226.172 198.274 224.904 197.19C223.371 195.79 221.13 193.744 218.265 191.128C212.513 185.876 204.468 178.233 194.842 169.037C190.047 164.4 184.869 159.412 179.366 154.091C177.348 152.248 175.358 150.172 173.294 148.177C199.418 172.253 222.798 192.972 229.485 197.969C229.231 197.997 228.98 198.054 228.739 198.138L228.665 198.219ZM112.034 72.8113L112.968 69.964C113.257 69.0804 113.627 68.2706 113.885 67.5818L114.602 65.905L114.922 65.2715L114.838 65.9717C114.78 66.3999 114.692 67.0229 114.532 67.7652C114.372 68.5075 114.218 69.3656 113.988 70.2659L113.134 73.1869L112.2 76.0341C111.892 76.9379 111.541 77.7276 111.264 78.4365C110.987 79.1455 110.703 79.7 110.547 80.1133L110.246 80.7266L110.33 80.0264C110.409 79.6166 110.476 78.9752 110.636 78.2329C110.796 77.4906 110.932 76.6527 111.18 75.7322L112.034 72.8113ZM92.9232 46.8497L93.2155 46.0433L93.1382 46.898C93.0855 47.442 93.0434 48.2176 92.9109 49.1328C92.7783 50.048 92.6546 51.1562 92.4001 52.367L91.7506 55.9558L90.9433 59.4743C90.6853 60.6079 90.365 61.6477 90.1903 62.4874C90.0157 63.3271 89.7033 64.115 89.533 64.6257L89.261 65.4505L89.2996 64.5976C89.3523 64.0536 89.3944 63.2779 89.5454 62.3426C89.6963 61.4072 89.7833 60.3394 90.0562 59.1083L90.7258 55.5381L91.5314 51.9809C91.771 50.8675 92.1097 49.8075 92.2844 48.9678C92.459 48.1281 92.8267 47.2796 92.9969 46.769L92.9232 46.8497ZM76.1656 52.6788C76.1665 52.2725 76.1218 51.7136 76.149 51.0354C76.1763 50.3571 76.1781 49.5446 76.2755 48.7084L76.5423 46.0655L76.8293 43.4411C76.9654 42.6032 77.1821 41.8389 77.3067 41.1756L77.7368 39.5699L77.9421 38.9803L77.9903 39.6164C77.9693 40.0042 78.0342 40.5816 78.0069 41.2599C77.9797 41.9381 77.9577 42.7322 77.8805 43.5868L77.6137 46.2297L77.1722 48.8611C77.0362 49.699 76.8396 50.4817 76.6948 51.1266C76.55 51.7715 76.3631 52.341 76.2648 52.7323L76.0612 53.3606L76.1656 52.6788ZM39.1622 51.4192C38.197 51.463 37.2854 51.4077 36.5115 51.4042C35.7376 51.4006 35.0962 51.3331 34.6311 51.3155L33.9309 51.2312L34.6206 51.0838C35.062 51.0058 35.6928 50.8417 36.4615 50.7294C37.2301 50.6171 38.1515 50.4592 39.1149 50.3768L42.1394 50.104L45.171 49.9857C46.1362 49.9418 47.0478 49.9972 47.8218 50.0007C48.5957 50.0042 49.2572 50.0902 49.7223 50.1078L50.4409 50.1719L49.7328 50.3395C49.2914 50.4175 48.6404 50.5632 47.8717 50.6754C47.1031 50.7877 46.2204 50.9439 45.2385 51.0465L42.214 51.3193L39.1622 51.4192ZM51.4878 69.8161L48.6081 70.2951L47.4937 70.4617L48.5388 70.0468C49.2065 69.8423 50.1761 69.4695 51.3422 69.165C52.5083 68.8606 53.943 68.5053 55.3223 68.2105C56.7017 67.9157 58.5777 67.4824 60.0983 67.3166C61.6189 67.1508 63.3141 66.9964 64.8382 66.9079C66.1987 66.8483 67.5614 66.8575 68.921 66.9352C70.1397 66.9379 71.1505 67.0467 71.849 67.0924L72.9756 67.196L71.8595 67.324L68.9323 67.6117C67.7373 67.7047 66.3342 67.9038 64.832 68.0494C63.3299 68.195 61.7338 68.4029 60.1579 68.6292C58.582 68.8556 56.9456 69.0266 55.4671 69.2678L51.4878 69.8161ZM173.362 168.407C172.996 168.443 172.477 168.525 171.86 168.553C171.242 168.581 170.51 168.653 169.736 168.649L167.317 168.624L165.003 168.361C164.228 168.319 163.505 168.178 162.882 168.09C162.384 168.023 161.888 167.929 161.4 167.809L160.852 167.679L161.428 167.576L162.91 167.412C163.548 167.402 164.259 167.312 165.033 167.315L167.452 167.341C168.287 167.4 169.101 167.44 169.878 167.521C170.656 167.602 171.356 167.686 171.979 167.774C172.602 167.861 173.111 167.993 173.462 168.055L174.029 168.203L173.362 168.407ZM161.662 154.431C161.24 154.489 160.666 154.631 159.952 154.683C159.239 154.734 158.472 154.885 157.603 154.906L154.882 155.048L152.133 155.018C151.262 155 150.465 154.901 149.748 154.875C149.031 154.85 148.483 154.72 148.075 154.681L147.432 154.574L148.065 154.449C148.488 154.391 149.043 154.269 149.736 154.199C150.429 154.129 151.255 153.995 152.125 153.974L154.846 153.831L157.555 153.863C158.445 153.861 159.263 153.979 159.941 154.006C160.619 154.033 161.244 154.16 161.652 154.199L162.275 154.287L161.662 154.431ZM124.515 118.92C123.879 118.969 122.956 119.088 121.855 119.119C120.754 119.149 119.425 119.268 117.994 119.294L113.683 119.354L109.419 119.161C108.006 119.129 106.743 119.012 105.618 118.947C104.493 118.882 103.58 118.788 102.938 118.72L101.907 118.593L102.928 118.489C103.564 118.441 104.507 118.34 105.607 118.27C106.706 118.201 108.037 118.121 109.467 118.095L113.817 118.033L118.081 118.226C119.476 118.279 120.778 118.394 121.882 118.44C122.987 118.487 123.922 118.638 124.562 118.667L125.593 118.794L124.515 118.92ZM101.272 97.3634C100.733 97.4266 99.9681 97.6161 99.0433 97.6968C98.1184 97.7775 97.0243 97.9626 95.8476 98.0354L92.1483 98.3581L88.4166 98.3922C87.2583 98.4448 86.1721 98.3781 85.2235 98.3631C84.275 98.3482 83.4792 98.2876 82.9369 98.2736L82.2604 98.2849L83.1045 98.1305C83.6617 98.0472 84.4286 97.8963 85.3517 97.777C86.2747 97.6577 87.3909 97.5297 88.5473 97.4384L92.2466 97.1157L95.9968 97.0614C97.1752 97.0272 98.2615 97.094 99.1898 97.0905C100.118 97.087 100.916 97.1862 101.458 97.2003L102.313 97.2775L101.272 97.3634ZM178.129 147.3L177.895 148.123L177.914 147.251C177.928 146.709 177.931 145.935 178.005 145.003C178.079 144.072 178.127 143.006 178.288 141.857L178.724 138.259L179.335 134.672C179.516 133.541 179.777 132.485 179.987 131.566C180.197 130.648 180.395 129.904 180.525 129.356L180.778 128.552L180.74 129.404C180.726 129.947 180.742 130.739 180.648 131.652C180.555 132.566 180.526 133.65 180.386 134.817L179.93 138.397L179.28 141.986C179.12 143.135 178.838 144.173 178.648 145.11C178.459 146.047 178.238 146.734 178.129 147.3ZM187.402 152.585C187.249 153.037 187.071 153.393 186.968 153.669L186.673 153.991L186.652 153.528C186.611 153.143 186.607 152.754 186.638 152.368C186.674 151.883 186.668 151.322 186.737 150.719L187.002 148.889L187.442 147.07C187.57 146.484 187.779 145.972 187.912 145.501L188.347 144.418L188.642 144.095L188.663 144.558C188.693 144.944 188.698 145.332 188.677 145.718C188.641 146.203 188.647 146.764 188.557 147.348L188.312 149.197L187.873 151.016C187.724 151.584 187.608 151.995 187.382 152.566L187.402 152.585Z" fill="white" fill-opacity="0.1"/>
</svg>
