<svg width="164" height="208" viewBox="0 0 164 208" fill="none" xmlns="http://www.w3.org/2000/svg">
<path d="M21.5069 15.4284C22.4552 15.4135 23.378 15.1187 24.1592 14.581C24.9404 14.0432 25.5454 13.2866 25.898 12.4062C26.2505 11.5258 26.3351 10.5608 26.141 9.63247C25.9468 8.70415 25.4827 7.85389 24.8068 7.18853C24.131 6.52316 23.2736 6.07236 22.3424 5.89276C21.4111 5.71316 20.4476 5.81277 19.5727 6.17907C18.6979 6.54538 17.9509 7.16204 17.4254 7.95159C16.9 8.74114 16.6196 9.66837 16.6195 10.6168C16.6194 11.2551 16.7463 11.887 16.9929 12.4758C17.2394 13.0646 17.6006 13.5984 18.0555 14.0462C18.5103 14.494 19.0498 14.8469 19.6423 15.0842C20.2349 15.3215 20.8687 15.4385 21.5069 15.4284ZM17.9645 10.8062V10.6168C18.0041 10.848 18.0611 11.076 18.135 11.2987C18.3192 11.8687 18.6529 12.379 19.1011 12.7763C19.545 13.2036 20.101 13.4963 20.7046 13.6203C21.3081 13.7444 21.9345 13.6948 22.511 13.4773C22.9467 13.3205 23.3425 13.0694 23.67 12.7419C23.9974 12.4144 24.2485 12.0187 24.4053 11.5829C24.4796 11.3861 24.5366 11.1833 24.5758 10.9767C24.5758 10.882 24.5758 10.7304 24.5758 10.6168C24.5853 10.516 24.5853 10.4145 24.5758 10.3137C24.5475 9.51037 24.2315 8.74397 23.6855 8.15411C23.2728 7.71928 22.7585 7.3938 22.1889 7.20693C21.9662 7.13308 21.7382 7.07608 21.5069 7.03643H22.3026C23.131 7.11259 23.9066 7.47635 24.4948 8.06459C25.0831 8.65283 25.4468 9.42844 25.523 10.2568C25.523 10.4084 25.523 10.5221 25.523 10.6925C25.5319 10.8187 25.5319 10.9453 25.523 11.0714C25.5003 11.3631 25.4365 11.6501 25.3335 11.9239C25.1348 12.4791 24.8255 12.9883 24.4242 13.4204C23.9921 13.8217 23.483 14.131 22.9277 14.3297C22.3991 14.5138 21.8362 14.5785 21.2796 14.5192C20.452 14.4495 19.6728 14.1001 19.0703 13.5285C18.4677 12.9569 18.0777 12.1973 17.9645 11.3745C17.9533 11.1852 17.9533 10.9955 17.9645 10.8062Z" fill="#034268"/>
<path d="M-9.42794 12.1891C-12.7984 13.5089 -16.039 15.1387 -19.1081 17.0576C-22.5771 19.167 -25.7605 21.7137 -28.5799 24.635C-31.5884 27.7648 -34.1106 31.3279 -36.0626 35.2056C-38.025 39.2178 -39.4212 43.4829 -40.2113 47.8788C-40.969 52.2556 -41.2359 56.7033 -41.0069 61.1393C-40.7398 65.4382 -40.2403 69.7194 -39.5104 73.9642C-38.1275 82.2236 -36.29 89.801 -34.6797 96.2797C-33.0695 102.758 -31.4783 108.119 -30.3985 111.851C-29.3187 115.583 -28.5989 117.705 -28.5989 117.705L-30.2091 111.795C-31.232 108.006 -32.596 102.645 -34.1304 96.166C-35.6648 89.6873 -37.3319 82.1288 -38.6768 73.8884C-39.3871 69.6748 -39.8615 65.4248 -40.0976 61.1583C-40.3123 56.7649 -40.0327 52.3613 -39.2641 48.0304C-38.5002 43.7068 -37.1357 39.5113 -35.2102 35.5655C-33.3114 31.7706 -30.8599 28.2785 -27.9358 25.2033C-25.18 22.3196 -22.0892 19.7757 -18.7292 17.6259C-15.7288 15.6934 -12.5584 14.0385 -9.25745 12.6816C-4.29737 10.6303 0.86475 9.10639 6.14369 8.13517C8.14757 7.74664 10.1713 7.46838 12.2056 7.30165C10.161 7.38941 8.12373 7.60452 6.1058 7.94573C0.788334 8.78806 -4.42072 10.211 -9.42794 12.1891Z" fill="#034268"/>
<path d="M12.8308 133.921C12.8308 133.921 9.04205 132.273 -8.51866 117.553L-8.72704 117.459C-15.2996 117.14 -21.8818 117.843 -28.2389 119.542L-21.6087 124.051L-1.94523 147.333H22.3973L41.0757 131.022V102.607C39.5798 108.639 35.7506 113.831 30.4294 117.042L29.6906 116.417C22.9467 110.734 21.1281 110.734 21.1281 110.734L36.8891 123.899C36.8891 123.899 34.9948 123.786 28.4213 118.216C26.9795 118.97 25.4778 119.604 23.9317 120.111L22.1889 118.633C12.9444 110.923 10.7091 110.45 10.7091 110.45L32.2669 128.465C32.2669 128.465 30.1073 128.01 21.3933 120.774H21.166C15.9379 121.93 10.5021 121.741 5.36699 120.224C3.83256 118.86 1.99504 117.269 -0.221365 115.413C-11.9664 105.6 -14.6374 104.785 -14.6374 104.785L12.8308 127.593C12.8308 127.593 10.5386 126.893 0.801588 118.917C-0.960167 118.482 -2.81664 118.084 -4.88149 117.781L-7.13578 115.886C-24.7533 101.167 -28.3905 99.538 -28.3905 99.538L12.8308 133.921ZM18.0592 144.794H2.65806V143.98H4.00306V140.191H5.25333V143.98H5.85953V140.191H8.49268V143.98H14.8009V140.191H16.3922V143.98H17.0931V139.623H17.9266L18.0592 144.794ZM14.6304 138.05L16.7332 138.183L18.8548 138.372C18.1539 138.372 17.453 138.505 16.7332 138.562L14.6304 138.694C13.2096 138.694 11.8078 138.808 10.406 138.846C7.69706 138.846 5.00707 138.846 2.29813 138.846C2.29813 139.661 2.29813 140.475 2.18447 141.29C2.07081 142.104 2.05187 143.184 1.9382 144.15C1.82454 143.203 1.78666 142.256 1.69194 141.29C1.59722 140.324 1.69194 139.395 1.55933 138.448V138.088H1.95715C4.77974 137.975 7.64022 137.956 10.4249 138.088C11.732 137.937 13.1339 137.975 14.5546 138.05H14.6304Z" fill="#034268"/>
<path d="M142.462 78.9463C142.462 77.0519 141.818 73.8315 137.214 69.967C136.281 69.083 135.175 68.4016 133.965 67.9658C132.756 67.5299 131.469 67.349 130.186 67.4344C128.904 67.5198 127.652 67.8697 126.511 68.462C125.37 69.0544 124.364 69.8764 123.556 70.8763C117.624 69.1661 111.487 68.2676 105.313 68.2053C97.5975 68.0825 89.9557 69.7256 82.9722 73.0089C75.9886 76.2922 69.8482 81.1288 65.0204 87.1489C54.0331 100.201 50.5475 116.133 54.8477 133.333L35.3736 156.445C35.1961 156.662 35.0656 156.914 34.9906 157.185C34.9156 157.456 34.8977 157.739 34.9379 158.017L38.8593 183.382C38.9292 183.852 39.1725 184.277 39.5412 184.576L45.2243 189.425L42.7806 192.324C41.9886 192.375 41.2091 192.547 40.4695 192.835C39.7918 191.65 38.8129 190.665 37.6319 189.979C36.451 189.294 35.1099 188.933 33.7445 188.933C33.3662 188.903 32.9862 188.903 32.6079 188.933C32.0828 187.389 31.0884 186.048 29.7638 185.097C28.4392 184.146 26.8505 183.633 25.2199 183.629C24.4946 181.704 23.0372 180.144 21.166 179.291C21.2422 178.865 21.2802 178.434 21.2796 178.002C21.2766 176.508 20.8448 175.047 20.0355 173.791C19.2262 172.535 18.0735 171.538 16.7142 170.917C16.7905 170.492 16.8285 170.061 16.8279 169.629C16.8342 168.36 16.5216 167.109 15.9186 165.992C16.7411 165.246 17.3937 164.332 17.832 163.311C18.2702 162.291 18.4841 161.188 18.4589 160.078C18.4338 158.968 18.1702 157.876 17.6862 156.876C17.2021 155.877 16.5089 154.993 15.6534 154.285V150.496H23.2308C23.7105 150.489 24.1727 150.315 24.5379 150.004L43.8604 133.125C44.0767 132.945 44.2501 132.719 44.3681 132.463C44.4861 132.208 44.5456 131.929 44.5424 131.647V101.603C58.9205 91.2028 66.5169 76.7678 66.5169 59.7186C66.6414 51.3153 64.7115 43.0088 60.895 35.5211C57.0785 28.0334 51.491 21.5912 44.6181 16.7545C40.7339 13.9033 36.5626 11.4653 32.1722 9.48015C32.1733 8.20211 31.9158 6.93705 31.4151 5.76115C30.9144 4.58526 30.1809 3.52286 29.2588 2.63791C28.3367 1.75297 27.245 1.0638 26.0496 0.611887C24.8541 0.159976 23.5795 -0.0453202 22.3026 0.0083584C16.2975 0.0083584 13.6264 2.09215 12.4898 3.51292C2.92716 4.24026 -6.41807 6.73233 -15.0731 10.863C-28.2579 17.3039 -44 30.7538 -44 58.1841C-44 78.8895 -31.7814 119.523 -31.2699 121.247C-31.146 121.682 -30.8705 122.059 -30.4932 122.308L-23.8251 126.93L-4.01008 149.909C-3.82463 150.125 -3.59528 150.3 -3.33725 150.421C-3.07922 150.541 -2.79844 150.606 -2.51353 150.61H4.95024V154.74C4.95024 154.853 4.95024 154.967 4.95024 155.1C3.85616 156.276 3.15669 157.764 2.94952 159.357C2.74235 160.95 3.03783 162.567 3.79468 163.984C2.84221 164.85 2.12038 165.939 1.69437 167.153C1.26837 168.368 1.15162 169.669 1.35466 170.94C1.55771 172.211 2.07415 173.411 2.85735 174.433C3.64055 175.454 4.66583 176.264 5.84059 176.79C5.75805 177.221 5.71368 177.658 5.70798 178.097C5.71163 179.591 6.14605 181.052 6.95916 182.305C7.77227 183.559 8.92957 184.551 10.2923 185.163C10.216 185.595 10.178 186.032 10.1787 186.47C10.1787 188.532 10.9964 190.509 12.4524 191.969C13.9084 193.428 15.8839 194.251 17.9455 194.256C18.5055 195.733 19.5007 197.006 20.7995 197.906C22.0984 198.806 23.6398 199.29 25.2199 199.295C25.6045 199.324 25.9908 199.324 26.3754 199.295C26.8946 200.839 27.8848 202.181 29.2067 203.132C30.5287 204.084 32.1157 204.597 33.7445 204.599C34.6978 204.599 35.6426 204.419 36.5292 204.069C37.3813 205.546 38.695 206.703 40.2684 207.361C41.8418 208.02 43.5879 208.143 45.2383 207.713C46.8887 207.283 48.3521 206.322 49.4037 204.979C50.4553 203.636 51.0368 201.985 51.0589 200.28C51.0778 199.996 51.0778 199.711 51.0589 199.428L53.5027 196.529L59.1857 201.341C59.536 201.65 59.988 201.818 60.455 201.814H60.7581L90.7837 196.927L98.8347 197.742H99.0241C99.4074 197.739 99.7821 197.628 100.104 197.42C101.6 196.434 137.12 173.21 150.456 157.392C168.111 136.402 164.739 115.981 158.791 102.55C154.852 93.7416 149.315 85.7388 142.462 78.9463ZM40.8105 183.136L36.8891 157.714L56.401 134.64C79.8911 154.493 97.1676 163.643 111.337 163.643C122.211 163.643 131.19 158.225 139.753 148.071C159.378 124.771 146.459 101.451 134.79 91.6385C127.212 85.2924 116.452 82.3751 124.257 73.1117C125.003 72.0192 125.987 71.1105 127.136 70.4542C128.285 69.7979 129.567 69.4111 130.887 69.323C132.779 69.4172 134.576 70.1752 135.964 71.4636C141.647 76.2563 140.397 79.6851 140.397 79.6851C146.766 85.7827 152.034 92.9349 155.969 100.826C155.646 100.22 155.306 99.6327 154.965 99.0644C153.364 96.4164 151.579 93.8843 149.622 91.487C148.133 89.6302 146.539 87.8593 144.849 86.1828C143.466 84.7809 142.291 83.7769 141.496 83.095C140.7 82.413 140.245 82.072 140.245 82.072L141.249 83.3223C141.912 84.1369 142.822 85.3682 143.958 86.9405C147.033 91.2702 149.703 95.874 151.934 100.694C155.067 107.3 156.876 114.457 157.257 121.759C157.39 125.778 156.957 129.795 155.969 133.693C154.914 137.713 153.327 141.573 151.252 145.173C149.115 148.813 146.607 152.222 143.769 155.346C140.984 158.415 137.877 161.351 134.846 164.117C128.728 169.629 122.742 174.555 117.589 178.798L100.331 192.892L101.771 192.153C102.699 191.642 104.063 190.941 105.749 189.975C108.382 188.497 111.849 186.47 115.884 183.97C106.412 190.732 99.062 195.582 99.062 195.582L90.7647 194.748L60.455 199.674L40.8105 183.136ZM71.4044 134.262C67.2368 119.505 69.2637 107.115 77.4095 97.4163C84.9869 88.3992 95.2922 83.8148 107.984 83.8148C113.208 83.8562 118.404 84.5757 123.442 85.9554C124.957 87.1837 126.538 88.3283 128.178 89.3842C130.003 90.5481 131.761 91.813 133.445 93.173C140.191 98.9137 144.94 106.648 147.008 115.261C149.49 126.305 146.516 136.933 138.181 146.84C129.845 156.748 121.131 161.73 111.281 161.73C101.809 161.73 90.67 157.297 76.898 147.996C74.6151 143.592 72.7749 138.972 71.4044 134.205V134.262ZM117.021 79.5714C115.505 79.2115 113.895 78.8895 112.171 78.6243C108.861 78.1379 105.512 77.9666 102.169 78.1128C98.3511 78.2753 94.5727 78.9507 90.9352 80.1208C86.9804 81.3734 83.2471 83.24 79.8721 85.6523C78.9818 86.2396 78.1862 86.9216 77.3526 87.5467C76.5191 88.1718 75.7235 89.0054 74.9089 89.7631C74.0943 90.5208 73.4882 91.2597 72.7872 91.9985L72.2947 92.5478L72.1621 92.6804L72.0484 92.813L71.8022 93.1351L70.7982 94.4043C68.1969 97.8328 66.1924 101.675 64.8688 105.77C63.59 109.723 62.9505 113.854 62.9745 118.008C63.0108 121.793 63.4747 125.561 64.3573 129.242C65.0163 131.968 65.8645 134.646 66.8958 137.255C63.4102 134.659 60.8338 132.765 59.2236 131.572C57.7391 125.598 57.3476 119.404 58.0681 113.291C58.5765 109.196 59.674 105.195 61.3264 101.413C61.7621 100.447 62.2546 99.5191 62.7093 98.5529C63.1639 97.5868 63.7701 96.6586 64.3005 95.7872C64.8309 94.9158 65.475 94.0254 66.0812 93.1351C66.6874 92.2447 67.3883 91.4301 67.9756 90.5777C70.65 87.2581 73.723 84.2805 77.1253 81.7121C80.4309 79.2431 84.0571 77.2356 87.9042 75.7448C91.5189 74.3757 95.2835 73.4409 99.1188 72.9601C102.553 72.6348 106.01 72.6411 109.443 72.9791C111.985 73.1284 114.515 73.4321 117.021 73.8884C116.539 75.7522 116.539 77.7076 117.021 79.5714ZM117.021 73.5853C114.523 73.0355 111.991 72.6495 109.443 72.4297C105.947 72.0897 102.426 72.0897 98.9294 72.4297C90.7911 73.2533 83.0275 76.2645 76.4623 81.1438C72.9874 83.75 69.8446 86.7719 67.1042 90.142C66.4411 91.0134 65.7402 91.809 65.2098 92.7372C64.6794 93.6655 63.9595 94.6316 63.3154 95.4651C62.6714 96.2986 62.2167 97.3595 61.7052 98.2877C61.1938 99.216 60.7581 100.182 60.3224 101.205C58.6584 105.076 57.5548 109.165 57.0451 113.348C56.5603 117.248 56.5603 121.193 57.0451 125.093C57.3293 127.234 57.7271 129.26 58.1817 131.193L56.9883 130.34L58.6364 134.129L57.405 133.087C57.1516 132.881 56.853 132.738 56.5336 132.67C53.3511 119.808 53.5974 103.497 66.3464 88.3613C71.0119 82.5891 76.9294 77.9539 83.6509 74.8065C90.3724 71.659 97.7218 70.0819 105.143 70.1944C109.42 70.2052 113.685 70.6495 117.873 71.5204C117.481 72.1591 117.193 72.8561 117.021 73.5853ZM49.3351 198.253C49.1715 198.451 48.9659 198.61 48.7332 198.718C48.5006 198.826 48.2467 198.881 47.9901 198.878C47.5758 198.867 47.1766 198.721 46.8535 198.461L44.3529 196.34C44.1739 196.193 44.0263 196.012 43.9189 195.807C43.8115 195.602 43.7465 195.377 43.7278 195.146C43.7089 194.915 43.7359 194.682 43.8075 194.461C43.879 194.24 43.9935 194.035 44.1445 193.858L46.1715 191.452L49.3351 194.104L47.7438 197.893L51.2294 195.639L51.381 195.753L49.3351 198.253ZM11.3153 151.557L12.5277 155.478L13.7211 151.69V154.74C13.7211 155.207 13.5355 155.655 13.2051 155.985C12.8747 156.316 12.4266 156.501 11.9594 156.501H8.68213C8.21488 156.501 7.76677 156.316 7.43638 155.985C7.10599 155.655 6.92037 155.207 6.92037 154.74V151.557H11.3153ZM22.3026 1.90272C25.5988 1.90272 30.2399 3.38032 30.2399 10.7494C30.2399 17.5501 27.0385 19.0277 22.492 19.0277C18.9496 19.0277 14.5736 18.1184 10.2544 18.1184C2.3758 18.1901 -5.34335 20.347 -12.1179 24.3698L-10.7351 23.4795C-7.90131 21.7057 -4.90011 20.2146 -1.77473 19.0277C0.694183 18.0869 3.22625 17.3209 5.8027 16.7356C7.92439 16.262 9.59142 15.9589 10.8038 15.8073L12.6982 15.5989L10.8038 15.4663C9.07923 15.3996 7.35219 15.4376 5.63221 15.58C2.94558 15.8031 0.28344 16.2594 -2.3241 16.9439C-5.76791 17.7703 -9.10504 18.9908 -12.2695 20.5811C-16.1111 22.4554 -19.6336 24.9231 -22.7074 27.8933C-26.2534 31.274 -29.1042 35.3153 -31.0994 39.7899C-32.1408 42.0971 -32.9714 44.4937 -33.581 46.9506C-34.2023 49.5074 -34.6078 52.1118 -34.7934 54.7364C-34.7934 55.3994 -34.7934 55.9867 -34.7934 56.6308V57.5779V58.6009C-34.7934 59.908 -34.7934 61.1962 -34.7934 62.5033C-34.6701 65.1487 -34.3599 67.7821 -33.8652 70.3838C-32.927 75.7066 -30.8811 80.7729 -27.8601 85.2545C-24.7942 89.5437 -20.8235 93.107 -16.2287 95.6924C-12.0679 98.0502 -7.60726 99.8345 -2.96818 100.997C1.04815 102.069 5.13859 102.841 9.26938 103.308C13.0581 103.781 16.5627 104.028 19.6505 104.122C22.7383 104.217 25.4472 104.236 27.6636 104.122C29.88 104.009 31.6039 104.009 32.7973 103.952H34.6917L27.7962 103.043L24.1969 102.512C22.8898 102.304 21.469 102.133 19.9536 101.868C18.4381 101.603 16.8468 101.338 15.1798 101.016C13.5127 100.694 11.751 100.334 9.91346 99.9548L7.1477 99.3107L4.11672 98.515C2.22236 97.9657 0.328003 97.3974 -1.75579 96.6207H-2.3241C8.6253 100.068 23.3255 101.698 42.629 101.698V131.761L23.2119 148.64H-2.51353L-22.499 125.358L-29.3755 120.66C-29.3755 120.66 -42.1056 78.8326 -42.1056 58.1841C-42.1056 7.05537 13.6264 5.40728 13.6264 5.40728C13.6264 5.40728 14.8767 1.90272 22.3026 1.90272ZM22.5678 20.9979C26.4955 22.8104 30.2171 25.0396 33.6687 27.6471C44.7697 36.0012 50.4149 46.799 50.4149 59.4912C50.4149 72.1834 43.993 82.9434 31.3008 91.5438C27.1851 94.3054 22.7992 96.6412 18.2108 98.515C4.3251 97.0564 -5.86655 94.158 -13.0841 89.6494C-23.3325 83.2465 -27.9169 73.5474 -27.9169 58.1841C-27.9169 28.1017 -2.93029 20.1643 10.2734 20.1643C12.4461 20.2083 14.6149 20.3664 16.771 20.6379C18.6562 20.8855 20.5533 21.031 22.4541 21.0736L22.5678 20.9979ZM40.7157 97.4163C38.1773 97.2458 34.4265 96.9995 29.5011 96.7154L30.4483 96.185C33.2189 94.541 35.8711 92.7053 38.3857 90.6913C41.1841 88.4537 43.7254 85.9123 45.9631 83.1139C48.4127 80.1082 50.3927 76.7486 51.8356 73.1496C53.3499 69.4426 54.252 65.5144 54.5067 61.5182C54.5634 60.515 54.5634 59.5094 54.5067 58.5062C54.5063 57.5061 54.4494 56.5068 54.3362 55.5131C53.8043 49.6546 51.9798 43.987 48.9941 38.9185C47.1544 35.8073 44.9264 32.9428 42.3638 30.3939C40.0809 28.1105 37.6025 26.0314 34.9569 24.1804C33.3467 23.0248 31.7744 22.0587 30.2778 21.1873C32.2912 20.1638 33.9388 18.5426 34.9948 16.5461C37.34 18.0091 39.5923 19.6161 41.7387 21.3578C44.3758 23.4908 46.8166 25.8555 49.032 28.4237C51.4533 31.2138 53.5387 34.2783 55.2455 37.5546C57.0415 41.036 58.3787 44.7356 59.2236 48.5608C60.0729 52.5059 60.4606 56.5364 60.3792 60.571V62.2002C60.3792 62.7306 60.3792 63.2989 60.3792 63.7725C60.2655 64.7386 60.2087 65.6669 60.0571 66.6898C59.9056 67.7128 59.7351 68.6789 59.5457 69.6639C59.3562 70.649 59.091 71.5583 58.8258 72.5813C57.7592 76.3329 56.185 79.9212 54.1468 83.2465C50.602 88.7886 46.0533 93.62 40.7347 97.4921L40.7157 97.4163ZM52.385 59.4912C52.385 39.3921 38.6509 27.7418 28.3077 21.8124C28.8066 21.7227 29.2953 21.583 29.7663 21.3957C31.3197 22.3239 32.9489 23.4037 34.6348 24.6161C37.2112 26.4941 39.6197 28.5921 41.8334 30.8864C44.3115 33.4364 46.4682 36.2801 48.2553 39.3542C50.1591 42.6298 51.5758 46.1651 52.4608 49.8489C52.9114 51.7175 53.2216 53.6172 53.389 55.532C53.5216 56.4792 53.5027 57.4264 53.5406 58.4683C53.5784 59.5102 53.5406 60.3626 53.5406 61.4045C53.3504 65.2992 52.5315 69.1375 51.1158 72.7707C49.721 76.2949 47.8053 79.5899 45.4327 82.5456C41.1909 87.8136 36.0623 92.3011 30.2778 95.8061L28.6487 96.7533L26.7543 96.6586C38.1962 90.3314 52.385 78.6811 52.385 59.4912ZM35.8283 14.3865C35.8821 14.1239 35.9201 13.8582 35.942 13.5909C38.6433 15.0554 41.2386 16.7075 43.7088 18.5352C41.1937 16.9497 38.5589 15.5626 35.8283 14.3865ZM5.87848 160.347C5.87873 159.456 6.12807 158.584 6.59833 157.827C7.21478 158.242 7.93941 158.466 8.68213 158.472H11.9594C12.9191 158.463 13.8399 158.091 14.5357 157.43C15.184 158.264 15.5372 159.29 15.5397 160.347C15.5406 160.984 15.4156 161.615 15.1718 162.203C14.9279 162.792 14.5701 163.326 14.1189 163.776C12.7145 162.571 10.9302 161.9 9.07994 161.881C8.15446 161.879 7.23633 162.046 6.37101 162.374C6.05882 161.743 5.8906 161.051 5.87848 160.347ZM10.728 165.178C10.1487 165.163 9.57703 165.041 9.04205 164.818C9.61996 164.844 10.1895 164.966 10.728 165.178ZM4.24932 169.724C4.24769 169.085 4.37428 168.453 4.62158 167.864C4.86888 167.275 5.23186 166.741 5.68904 166.295C7.08508 167.502 8.86414 168.173 10.7091 168.19C11.6409 168.195 12.5657 168.028 13.437 167.697C13.7574 168.345 13.9259 169.058 13.9295 169.781C13.948 169.982 13.948 170.185 13.9295 170.387H13.6075C12.2818 170.387 10.9783 170.727 9.82106 171.374C8.6638 172.02 7.6913 172.952 6.99615 174.081C6.17249 173.69 5.47698 173.072 4.99067 172.301C4.50435 171.53 4.24726 170.636 4.24932 169.724ZM12.0351 173.513C11.6055 173.855 11.1179 174.119 10.5954 174.289C11.0298 173.954 11.5161 173.691 12.0351 173.513ZM8.70107 178.078C8.69083 177.876 8.69083 177.674 8.70107 177.472H9.04205C10.3792 177.461 11.6912 177.107 12.8522 176.444C14.0132 175.78 14.9843 174.83 15.6723 173.683C16.4948 174.083 17.1864 174.708 17.6661 175.487C18.1459 176.265 18.3939 177.164 18.3812 178.078C18.3998 178.28 18.3998 178.483 18.3812 178.684H18.0592C16.7242 178.693 15.4139 179.046 14.2556 179.71C13.0973 180.374 12.1301 181.325 11.4479 182.473C10.6227 182.073 9.92702 181.449 9.44107 180.671C8.95512 179.894 8.69862 178.995 8.70107 178.078ZM16.4869 181.867C16.0517 182.197 15.5654 182.453 15.0472 182.625C15.4778 182.288 15.9655 182.031 16.4869 181.867ZM13.1528 186.432C13.1426 186.23 13.1426 186.028 13.1528 185.826H13.4749C14.8116 185.814 16.1229 185.459 17.2836 184.796C18.4443 184.132 19.4157 183.183 20.1051 182.037C21.0714 182.537 21.8444 183.343 22.3026 184.33C20.9159 184.913 19.7276 185.886 18.8807 187.129C18.0337 188.373 17.5642 189.835 17.5288 191.339C16.3197 191.229 15.1969 190.666 14.3853 189.763C13.5738 188.86 13.1335 187.684 13.1528 186.47V186.432ZM22.6246 187.398C22.4922 188.035 22.2327 188.638 21.8616 189.172C21.4906 189.706 21.0155 190.159 20.465 190.505C20.6143 189.868 20.891 189.268 21.2784 188.74C21.6658 188.213 22.156 187.769 22.7193 187.436L22.6246 187.398ZM20.9007 193.612C22.2732 193.029 23.4512 192.068 24.2967 190.84C25.1422 189.612 25.6201 188.168 25.6745 186.679C26.6266 186.756 27.5343 187.114 28.2829 187.708C29.0314 188.301 29.5872 189.103 29.88 190.013C28.7851 190.665 27.867 191.576 27.2064 192.666C26.5458 193.756 26.1629 194.991 26.0913 196.264C25.8391 196.284 25.5857 196.284 25.3335 196.264C24.4385 196.277 23.5577 196.039 22.791 195.577C22.0243 195.115 21.4023 194.447 20.9955 193.65L20.9007 193.612ZM33.7256 201.511C32.7083 201.507 31.7182 201.182 30.8955 200.584C30.0728 199.986 29.4591 199.144 29.1412 198.177C30.2373 197.526 31.1562 196.615 31.817 195.525C32.4777 194.435 32.86 193.199 32.9299 191.926C33.1821 191.906 33.4355 191.906 33.6877 191.926C34.5525 191.931 35.4002 192.167 36.143 192.61C36.8858 193.053 37.4966 193.687 37.9121 194.445C37.1285 195.17 36.5034 196.049 36.0763 197.027C35.6492 198.005 35.4293 199.061 35.4305 200.128C35.411 200.494 35.411 200.861 35.4305 201.227C34.9163 201.426 34.3715 201.535 33.8203 201.549L33.7256 201.511ZM43.1973 204.883C42.3313 204.884 41.4811 204.65 40.7373 204.207C39.9934 203.763 39.3837 203.126 38.9729 202.364C39.7547 201.638 40.3786 200.758 40.8055 199.781C41.2325 198.803 41.4534 197.748 41.4545 196.681C41.4826 196.315 41.4826 195.948 41.4545 195.582L41.7576 195.487C41.886 196.392 42.3368 197.219 43.0269 197.817L45.5464 199.92C46.2113 200.488 47.0587 200.797 47.9332 200.791H48.0469C47.8808 201.925 47.3172 202.963 46.4566 203.719C45.596 204.476 44.4945 204.902 43.3489 204.921L43.1973 204.883Z" fill="#034268"/>
<path d="M90.9163 193.233L98.9105 194.067C96.3702 190.466 93.6119 187.025 90.6511 183.761C90.4995 182.7 90.329 181.507 90.0827 180.105C88.5483 171.448 87.2223 170.179 87.2223 170.179L90.8026 190.391C90.8026 190.391 89.5523 189.179 88.0747 181.166C86.4917 179.645 84.8013 178.239 83.0168 176.96V176.847C80.9141 164.988 79.5122 163.207 79.5122 163.207L84.3997 190.865C84.3997 190.865 82.9789 189.084 80.8951 177.226C80.7625 176.544 80.6488 175.9 80.5541 175.331C75.6667 172.225 71.6696 170.558 66.0812 163.321C65.2477 162.248 64.4331 161.244 63.6375 160.309C61.2885 147.92 59.9814 145.874 59.9814 145.874L66.2138 181.071C66.2138 181.071 64.6983 178.741 62.0462 163.662C61.6105 161.256 61.2695 159.172 61.0043 157.373C52.7639 148.829 47.024 147.901 47.024 147.901L38.4993 158.017L42.2881 182.53L60.8907 198.196L90.9163 193.233ZM48.8236 180.105C49.373 179.347 49.9602 178.59 50.5475 177.851L50.7748 177.548L51.0779 177.794C53.3132 179.537 55.4728 181.336 57.5945 183.174C58.6553 184.102 59.7162 185.068 60.7391 186.015C61.2506 186.489 61.781 186.982 62.2736 187.474C62.7661 187.967 63.2776 188.459 63.7701 188.99L62.0841 187.758C61.5158 187.36 60.9475 186.925 60.3792 186.508C59.2615 185.656 58.1628 184.784 57.0641 183.894C54.9676 182.189 52.9154 180.433 50.9074 178.627L49.2404 180.427C48.5584 181.09 47.9143 181.791 47.2323 182.435C47.668 181.64 48.2553 180.882 48.8236 180.105ZM47.3081 183.496L47.8575 182.833L48.8236 183.761L51.3052 180.825L52.2903 181.658L49.8087 184.614L50.2823 185.011L52.7639 182.056L54.7719 183.742L52.2903 186.697L57.1209 190.77L59.6025 187.815L60.8338 188.838L58.3522 191.793L58.8827 192.248L61.6484 188.952L62.2925 189.482L58.9584 193.441L47.3081 183.496Z" fill="#034268"/>
<path d="M62.3493 142.767C63.2776 143.487 64.6226 144.662 66.3843 145.912C68.1461 147.162 70.2867 148.848 72.7873 150.61C75.2878 152.372 78.2051 154.285 81.4445 156.293C84.9387 158.415 88.5642 160.314 92.2991 161.976C96.4775 163.848 100.876 165.185 105.389 165.954C110.256 166.772 115.241 166.546 120.014 165.291C124.873 163.854 129.386 161.437 133.274 158.187C135.245 156.585 137.1 154.844 138.825 152.978C140.551 151.18 142.171 149.283 143.674 147.295C146.618 143.356 148.878 138.95 150.361 134.262C151.699 129.866 152.2 125.259 151.839 120.679C151.681 118.559 151.352 116.456 150.854 114.39C150.414 112.453 149.825 110.553 149.092 108.707C147.854 105.48 146.266 102.399 144.356 99.5191C142.901 97.2908 141.28 95.1757 139.507 93.1919C138.029 91.5627 136.779 90.3693 135.907 89.5737L134.524 88.3992L135.869 89.6116C136.722 90.4261 137.953 91.6385 139.393 93.4003C143.341 98.022 146.45 103.298 148.581 108.991C149.272 110.843 149.829 112.742 150.248 114.674C150.704 116.706 151.002 118.771 151.138 120.85C151.41 125.329 150.871 129.822 149.547 134.11C148.078 138.693 145.85 142.996 142.954 146.84C141.449 148.821 139.836 150.718 138.124 152.523C136.443 154.219 134.645 155.795 132.744 157.24C128.944 160.436 124.527 162.815 119.767 164.23C115.123 165.479 110.266 165.718 105.522 164.931C101.07 164.204 96.7242 162.932 92.5833 161.143C88.8529 159.564 85.2272 157.748 81.7286 155.706C78.4703 153.811 75.5341 151.917 72.9956 150.269C70.4572 148.621 68.2597 147.011 66.479 145.722C64.6983 144.434 63.3155 143.373 62.3683 142.673L60.9286 141.574L62.3493 142.767Z" fill="#034268"/>
<path d="M127.913 82.2804C128.642 82.8924 129.535 83.2746 130.481 83.3788C131.427 83.483 132.382 83.3044 133.227 82.8657C134.071 82.4269 134.766 81.7476 135.225 80.9138C135.683 80.08 135.884 79.1289 135.802 78.181C135.72 77.233 135.358 76.3307 134.763 75.588C134.169 74.8454 133.367 74.2957 132.46 74.0086C131.553 73.7215 130.581 73.7099 129.667 73.9751C128.753 74.2403 127.938 74.7704 127.326 75.4986C126.509 76.4776 126.112 77.74 126.222 79.0105C126.332 80.2809 126.94 81.4564 127.913 82.2804ZM128.178 76.4647L128.311 76.3321C128.186 76.5312 128.079 76.7403 127.989 76.9572C127.77 77.5171 127.699 78.1236 127.78 78.719C127.87 79.5137 128.248 80.248 128.841 80.7838L129.088 80.9922L129.372 81.1817L129.959 81.4469C130.377 81.5971 130.823 81.6553 131.266 81.6174C131.714 81.581 132.147 81.4451 132.535 81.2195C132.926 81.0161 133.263 80.7242 133.52 80.3671C134.007 79.7419 134.25 78.9607 134.202 78.1696C134.183 77.5725 134.006 76.9911 133.691 76.4836C133.445 76.1048 133.274 75.8964 133.274 75.8964L133.426 76.0101L133.842 76.351C134.31 76.8329 134.632 77.437 134.771 78.0939C134.96 79.0643 134.763 80.0704 134.221 80.8975C133.905 81.3651 133.491 81.7592 133.009 82.0531C132.497 82.3448 131.929 82.5255 131.342 82.5835C130.756 82.6364 130.166 82.552 129.618 82.3372C129.349 82.2387 129.094 82.1049 128.86 81.9394C128.709 81.9394 128.652 81.7689 128.538 81.6931C128.429 81.6081 128.327 81.513 128.235 81.409C127.558 80.6865 127.191 79.7277 127.212 78.7379C127.23 78.0589 127.448 77.4001 127.837 76.8436C127.933 76.7025 128.048 76.5751 128.178 76.4647Z" fill="#034268"/>
</svg>
