<svg width="40" height="41" viewBox="0 0 40 41" fill="none" xmlns="http://www.w3.org/2000/svg">
<path d="M10.99 29.5089C10.5227 29.0416 9.76469 29.0416 9.29716 29.5089L0.350646 38.4557C-0.116882 38.9229 -0.116882 39.681 0.350646 40.1485C0.584411 40.3823 0.890806 40.4991 1.1972 40.4991C1.50329 40.4991 1.80969 40.3823 2.04345 40.1485L10.99 31.202C11.4578 30.7344 11.4578 29.9764 10.99 29.5089Z" fill="#B69D74"/>
<path d="M39.6494 0.850713C39.4196 0.620916 39.108 0.496709 38.7815 0.500066L23.8539 0.768926C23.3735 0.777776 22.945 1.07257 22.7653 1.51783C22.5855 1.96308 22.6893 2.47302 23.029 2.81238L26.2516 6.03503L9.01044 23.2762C8.78613 23.5008 8.65979 23.8054 8.65979 24.1228C8.65979 24.4401 8.78583 24.7447 9.01044 24.9693L15.5305 31.4888C15.7643 31.7225 16.0707 31.8394 16.3768 31.8394C16.6832 31.8394 16.9895 31.7225 17.2233 31.4888L34.4642 14.2479L37.6871 17.4706C38.0265 17.8102 38.5364 17.914 38.9817 17.7342C39.4269 17.5545 39.7217 17.126 39.7303 16.6457L39.9998 1.71863C40.0056 1.39392 39.8792 1.08051 39.6494 0.850713ZM37.3875 13.785L35.3107 11.7085C35.0864 11.4839 34.7819 11.3579 34.4645 11.3579C34.1468 11.3579 33.8422 11.4839 33.6179 11.7085L16.3768 28.9494L11.5498 24.1228L28.791 6.88158C29.0156 6.65698 29.1416 6.35272 29.1416 6.03503C29.1416 5.71765 29.0156 5.41308 28.791 5.18878L26.7146 3.11206L37.5837 2.91644L37.3875 13.785Z" fill="#B69D74"/>
<path d="M1.63263 33.544C1.93902 33.544 2.24542 33.4268 2.47888 33.1931L7.73003 27.9422C8.19756 27.4747 8.19756 26.7166 7.73003 26.2491C7.2625 25.7819 6.50475 25.7819 6.03722 26.2491L0.786071 31.5002C0.318543 31.9678 0.318543 32.7258 0.786071 33.1934C1.01984 33.4268 1.32623 33.544 1.63263 33.544Z" fill="#B69D74"/>
<path d="M12.5575 32.7693L7.30609 38.0202C6.83856 38.4877 6.83856 39.2458 7.30609 39.7133C7.53985 39.9471 7.84625 40.0639 8.15265 40.0639C8.45904 40.0639 8.76544 39.9471 8.9992 39.7133L14.2504 34.4622C14.7179 33.9946 14.7179 33.2366 14.2504 32.7693C13.7828 32.3018 13.0248 32.3018 12.5575 32.7693Z" fill="#B69D74"/>
</svg>
