<svg width="414" height="428" viewBox="0 0 414 428" fill="none" xmlns="http://www.w3.org/2000/svg">
<path d="M179.136 401.451C181.437 401.71 184.128 402.066 187.045 402.293C189.963 402.52 193.043 402.715 196.122 402.844H200.758C202.281 402.844 203.805 402.844 205.264 402.844C208.149 402.844 210.872 402.844 213.206 402.553C215.54 402.261 217.452 402.196 218.814 402.099C220.175 402.002 220.921 401.84 220.921 401.84H218.814L213.173 401.613L196.187 400.997L179.2 400.413L173.592 400.251H171.453L173.56 400.64C175.051 400.802 176.802 401.159 179.136 401.451Z" fill="#033A5B" fill-opacity="0.1"/>
<path d="M193.043 418.696L199.072 418.859C201.049 418.859 202.994 418.859 204.875 418.859C208.667 418.859 212.201 418.696 215.216 418.567C218.23 418.437 220.759 418.21 222.509 418.08L225.265 417.821H222.509L215.216 417.594L204.907 417.302L193.107 416.913L181.308 416.46L171.031 416.038L160.982 415.617L163.705 416.103C165.456 416.362 167.919 416.784 170.934 417.108C173.949 417.432 177.418 417.854 181.21 418.145C185.003 418.437 189.023 418.534 193.043 418.696Z" fill="#033A5B" fill-opacity="0.1"/>
<path d="M403.136 308.9C403.17 308.534 403.17 308.165 403.136 307.798C403.136 306.509 402.624 305.272 401.712 304.36C400.8 303.448 399.563 302.936 398.274 302.936L334.445 148.534V109.634L337.362 109.018C341.601 108.144 345.418 105.858 348.19 102.535C349.053 101.335 349.411 99.8442 349.187 98.3831C348.963 96.9221 348.174 95.6074 346.99 94.7221C343.68 92.5862 339.77 91.5744 335.839 91.837H334.769C329.129 91.9991 263.452 100.752 224.033 106.36V101.173C223.859 97.2401 222.748 93.4056 220.791 89.9893C221.534 89.0107 221.933 87.8141 221.926 86.5855C221.958 84.2814 221.125 82.0489 219.592 80.329C220.208 74.9478 221.31 64.3799 221.31 57.1185C221.252 51.3621 220.851 45.6141 220.111 39.9052C221.256 38.2034 221.907 36.2171 221.991 34.1674C222.055 33.3511 221.933 32.5309 221.634 31.7685C221.828 31.183 221.927 30.5701 221.926 29.9532C222.002 28.0478 221.481 26.1663 220.435 24.572C221.628 23.3203 222.563 21.8459 223.186 20.2328C223.809 18.6198 224.107 16.8998 224.065 15.1711C224.033 6.09437 217.193 0 206.787 0C196.381 0 189.574 6.09437 189.574 15.1711C189.532 16.8998 189.831 18.6198 190.454 20.2328C191.077 21.8459 192.012 23.3203 193.205 24.572C192.081 26.1742 191.502 28.0944 191.551 30.0504C191.55 30.6673 191.649 31.2803 191.843 31.8658C191.544 32.6281 191.422 33.4483 191.486 34.2646C191.57 36.3143 192.221 38.3006 193.367 40.0024C192.626 45.7114 192.226 51.4593 192.167 57.2158C192.167 64.4772 193.269 75.0451 193.885 80.4263C192.352 82.1462 191.519 84.3786 191.551 86.6827C191.549 87.9054 191.935 89.0973 192.653 90.0865C190.712 93.5091 189.602 97.34 189.412 101.27V111.644C150.901 117.835 81.0422 129.667 75.5313 131.288C71.2908 132.157 67.4723 134.444 64.7041 137.772C63.8433 138.975 63.4838 140.466 63.7015 141.93C63.9193 143.394 64.6972 144.716 65.8711 145.617C69.1977 147.742 73.1151 148.753 77.0549 148.502H77.4763V186.494L13.4854 340.896C12.21 340.904 10.9898 341.417 10.091 342.322C9.19213 343.227 8.68769 344.451 8.68772 345.726C8.68377 346.176 8.74938 346.625 8.88222 347.055C4.34386 347.736 0 349.454 0 354.446C0 360.929 3.24169 363.264 10.6327 368.774C20.0336 375.614 38.803 378.499 75.4665 378.499C112.13 378.499 130.835 375.712 140.3 368.774C147.886 363.264 150.965 360.767 150.965 354.446C150.965 348.125 143.931 347.055 138.388 346.666C138.421 346.354 138.421 346.038 138.388 345.726C138.39 344.503 137.925 343.324 137.087 342.433C136.25 341.541 135.103 341.003 133.882 340.928L81.2691 186.559V148.08C96.116 146.524 153.98 138.777 189.574 133.72V145.876C188.242 146.097 187.031 146.781 186.154 147.806C185.276 148.832 184.788 150.134 184.776 151.484V156.282C184.787 157.791 185.393 159.235 186.462 160.301L187.143 160.982V356.002C186.231 356.644 185.484 357.491 184.961 358.475C184.438 359.459 184.154 360.552 184.132 361.666C184.11 362.78 184.35 363.884 184.834 364.888C185.317 365.892 186.031 366.768 186.916 367.445C185.749 378.986 179.719 382.292 174.338 385.242C171.276 386.607 168.618 388.739 166.623 391.434C164.596 392.133 162.837 393.444 161.589 395.186C160.34 396.928 159.664 399.015 159.653 401.159C159.7 401.742 159.571 402.326 159.282 402.835C158.993 403.343 158.557 403.753 158.032 404.012C156.138 404.152 154.356 404.963 153.007 406.301C151.658 407.638 150.831 409.412 150.674 411.305C150.356 413.451 150.226 415.62 150.285 417.789C150.285 428 165.099 428 172.231 428H241.538C248.67 428 263.484 428 263.484 417.789C263.543 415.62 263.413 413.451 263.095 411.305C262.932 409.415 262.103 407.644 260.755 406.308C259.407 404.972 257.629 404.158 255.737 404.012C255.212 403.753 254.776 403.343 254.487 402.835C254.198 402.326 254.069 401.742 254.116 401.159C254.105 399.015 253.429 396.928 252.18 395.186C250.932 393.444 249.173 392.133 247.146 391.434C245.151 388.739 242.493 386.607 239.431 385.242C234.05 382.292 227.988 378.986 226.853 367.445C227.738 366.768 228.452 365.892 228.935 364.888C229.419 363.884 229.659 362.78 229.637 361.666C229.615 360.552 229.331 359.459 228.808 358.475C228.285 357.491 227.538 356.644 226.626 356.002V160.982L227.307 160.301C228.367 159.232 228.961 157.787 228.96 156.282V151.484C228.95 150.113 228.446 148.792 227.541 147.762C226.636 146.732 225.391 146.063 224.033 145.876V128.5C256.871 123.184 311.202 113.978 330.652 110.217V148.469L278.072 302.968C276.825 303.06 275.662 303.631 274.828 304.562C273.994 305.493 273.553 306.711 273.598 307.96C273.551 308.315 273.551 308.675 273.598 309.03C268.379 309.516 262.642 310.91 262.642 316.68C262.642 323.164 265.883 325.498 273.307 331.009C282.708 337.816 301.477 340.734 338.14 340.734C374.804 340.734 393.508 337.946 402.974 331.009C410.527 325.498 413.607 323.002 413.607 316.68C413.607 310.91 408.193 309.452 403.136 308.9ZM155.828 417.756C155.777 415.969 155.863 414.181 156.087 412.408C181.213 415.787 206.614 416.645 231.91 414.968C232.563 417.341 232.783 419.812 232.559 422.262H172.069C164.127 422.262 155.828 421.419 155.828 417.756ZM190.319 156.282V151.484H214.697V155.601H214.113L204.81 155.893L191.26 156.314L204.81 156.865L214.113 157.189L213.206 158.616H192.686L190.319 156.282ZM77.0225 136.832C82.1119 135.438 150.285 123.865 189.574 117.382V123.184L182.507 124.254L159.232 127.885L148.664 129.667L138.679 130.997L119.456 133.525L90.7673 137.383C87.2662 137.837 84.5432 138.29 82.663 138.517L79.8103 138.939H82.6954C84.5756 138.939 87.3635 138.939 90.8645 138.939H96.6995L89.0816 140.43L80.9449 142.051L77.8005 142.634H76.9252C74.2391 142.853 71.5495 142.254 69.21 140.916C71.3031 138.733 74.0414 137.278 77.0225 136.767V136.832ZM195.247 101.27C195.416 98.1305 196.327 95.0755 197.905 92.3557C200.596 92.8095 204.194 93.1013 207.63 93.3282C207.614 93.4791 207.614 93.6311 207.63 93.782C207.894 95.7372 208.014 97.7092 207.987 99.6819C207.987 100.914 207.987 102.243 207.727 103.669C207.468 105.096 207.727 106.587 207.468 108.143C207.468 111.384 207.273 114.626 207.241 117.868C207.241 119.521 207.241 121.109 207.241 122.828C207.241 124.546 207.241 126.069 207.241 127.593C207.241 130.835 207.5 133.59 207.662 136.054C208.019 141.013 208.538 144.32 208.538 144.32C208.538 144.32 209.024 141.078 209.381 136.054C209.381 133.59 209.737 130.705 209.802 127.593C209.802 126.037 209.802 124.448 209.802 122.828C209.802 121.174 209.802 119.586 209.802 117.868C209.802 111.384 209.445 104.674 208.992 99.6819C208.795 97.6554 208.382 95.6558 207.76 93.7172V93.393H210.548C211.33 95.58 211.757 97.8784 211.812 100.201V147.367H195.247V101.27ZM195.247 11.9942C195.418 11.1916 195.725 10.4242 196.155 9.72506C197.106 8.01387 198.6 6.66807 200.401 5.89987C201.426 5.4136 202.519 5.0857 203.643 4.92736C204.712 4.72668 205.797 4.61822 206.884 4.6032C209.113 4.56799 211.324 5.01011 213.368 5.89987C215.11 6.69561 216.544 8.03885 217.452 9.72506C217.824 10.3924 218.086 11.1146 218.23 11.8646C218.35 12.4297 218.415 13.005 218.425 13.5827C218.466 13.9381 218.466 14.297 218.425 14.6524V15.0414V14.6848C218.39 14.3234 218.325 13.9656 218.23 13.6151C218.116 13.0891 217.942 12.578 217.712 12.0915C217.452 11.4579 217.114 10.859 216.707 10.3086C215.684 8.98263 214.299 7.98072 212.72 7.42346C211.868 7.11327 210.989 6.88531 210.094 6.74271C214.211 9.9844 216.253 18.737 209.186 22.6918H199.072C197.711 20.4875 195.247 19.4501 195.247 15.0414V14.7821C195.21 14.4265 195.21 14.068 195.247 13.7123C195.237 13.1369 195.28 12.5617 195.377 11.9942H195.247ZM335.839 97.6072C338.52 97.3984 341.204 97.9848 343.554 99.2929C341.49 101.468 338.788 102.933 335.839 103.475L332.921 103.831L324.687 104.707L316.972 105.549L322.548 103.734C325.79 102.697 328.545 101.821 330.328 101.238L333.051 100.33L330.198 100.784C328.351 101.108 325.628 101.497 322.159 102.113C315.222 103.248 305.335 104.933 293.502 107.008C287.57 108.013 281.152 109.083 274.376 110.25L264.651 111.935C261.15 112.389 257.584 112.908 253.954 113.427C246.401 114.529 238.588 115.631 230.678 116.863L224.195 117.868V112.033C263.873 106.392 329.939 97.6072 335.126 97.4451L335.839 97.6072ZM209.413 26.9708L207.792 31.1526L204.55 31.4768L199.656 31.963L204.55 32.4817L207.792 32.8059L209.997 37.5387H199.461C197.386 37.5387 197.159 33.9081 197.159 33.9081L199.137 31.9306L197.224 30.0504C197.142 29.4085 197.276 28.7575 197.605 28.2C197.934 27.6425 198.438 27.2101 199.04 26.9708H209.413ZM217.193 47.7176C217.934 51.998 218.238 56.3426 218.101 60.6844C217.924 64.9775 217.469 69.2547 216.739 73.4891C216.447 75.2396 216.123 76.7307 215.929 77.6708C215.734 78.6109 215.54 79.2268 215.54 79.2268V77.606C215.54 76.6011 215.54 75.1423 215.54 73.3918C215.54 71.6413 215.54 69.599 215.799 67.4271C216.058 65.2552 216.026 62.9212 216.091 60.6196C216.285 56.0164 216.091 51.4132 216.091 47.9121C216.091 46.4534 216.091 45.2215 216.091 44.249H216.577C216.545 45.1243 216.804 46.2913 217.193 47.7176ZM197.386 86.6179C197.363 85.81 197.618 85.0186 198.107 84.3756C198.597 83.7326 199.292 83.2769 200.077 83.0844H208.7C209.403 84.2041 210 85.3871 210.483 86.6179H197.516H197.386ZM213.951 26.8736C213.851 26.798 213.773 26.6973 213.724 26.5818C213.701 26.531 213.689 26.4757 213.689 26.4198C213.689 26.3638 213.701 26.3085 213.724 26.2577C213.919 26.6467 214.405 26.5494 214.827 26.6791C215.311 26.7803 215.765 26.991 216.156 27.295C216.558 27.6416 216.86 28.0893 217.031 28.5917C217.231 29.0529 217.341 29.548 217.355 30.0504V30.3098L217.063 30.6339C216.674 31.0878 216.253 31.5092 215.864 31.9306L217.128 33.3245L217.388 33.6487V33.9729C217.345 34.4084 217.235 34.8348 217.063 35.2371C216.926 35.6465 216.741 36.0382 216.512 36.4041C216.278 36.796 215.956 37.1288 215.572 37.3767C215.367 37.4807 215.149 37.557 214.924 37.6036C214.709 37.637 214.49 37.637 214.276 37.6036C214.637 37.5027 214.949 37.2718 215.151 36.9552C215.333 36.6662 215.464 36.3483 215.54 36.0151C215.558 35.6696 215.558 35.3234 215.54 34.9778C215.556 34.762 215.556 34.5453 215.54 34.3295L213.951 32.6114L213.271 31.9306L213.951 31.2823L215.669 29.6614C215.732 29.111 215.618 28.555 215.345 28.073C215.155 27.7529 214.887 27.4855 214.567 27.295L213.951 26.8736ZM208.894 43.86C209.81 48.9729 210.233 54.1617 210.159 59.3553C210.184 66.1987 209.467 73.0246 208.019 79.7131H199.591C198.91 74.5588 197.743 64.1206 197.743 57.2158C197.781 52.4491 198.073 47.6879 198.618 42.9524C201.633 43.3414 205.328 43.6331 208.829 43.86H208.894ZM212.136 165.715V354.641H209.964C210.191 345.11 210.353 334.38 210.45 322.969C210.45 316.486 210.45 309.451 210.45 302.482V281.314C210.45 274.247 210.45 267.147 210.45 260.178C210.45 253.208 210.45 246.303 210.45 239.658C210.45 226.367 210.126 213.984 209.867 203.351C209.608 192.718 209.316 183.901 209.154 177.644L208.797 167.919L208.408 177.644C208.408 183.836 207.922 192.718 207.695 203.351C207.468 213.984 207.241 226.367 207.111 239.658C207.111 246.141 207.111 253.176 207.111 260.178C207.111 267.18 207.111 274.247 207.111 281.314C207.111 288.381 207.111 295.512 207.111 302.482C207.111 309.451 207.111 316.324 207.111 322.969C207.111 334.38 207.403 345.11 207.598 354.641H192.686V164.321C197.386 165.034 205.361 165.326 212.168 165.715H212.136ZM221.083 173.819C221.083 180.303 221.278 189.541 221.44 200.66C221.602 211.779 221.602 224.714 221.731 238.588C221.861 252.463 221.731 267.277 221.731 282.092C221.731 296.906 221.731 311.721 221.731 325.595C221.731 335.936 221.731 345.726 221.505 354.77H220.435C220.435 345.856 220.435 336.066 220.208 325.595C220.208 311.721 220.208 296.906 220.208 282.092C220.208 267.277 220.208 252.495 220.208 238.588C220.208 224.681 220.435 211.747 220.435 200.66C220.435 189.574 220.694 180.27 220.791 173.819C220.791 170.351 220.791 167.693 220.791 165.974C221.018 167.693 221.051 170.351 221.116 173.819H221.083ZM220.629 137.48C220.629 140.138 220.37 142.375 220.273 143.963C220.175 145.552 220.273 146.427 220.273 146.427C220.273 146.427 220.273 145.552 220.078 143.963C219.884 142.375 219.819 140.171 219.754 137.48C219.689 134.789 219.495 131.645 219.43 128.306C219.365 124.967 219.43 121.369 219.43 117.803C219.43 114.237 219.43 110.671 219.43 107.3C219.43 105.647 219.43 104.058 219.43 102.47C219.544 101.067 219.544 99.658 219.43 98.2555C219.225 96.7078 218.787 95.1997 218.133 93.782H218.846C219.64 95.096 220.179 96.5476 220.435 98.0611C220.686 99.5169 220.805 100.992 220.791 102.47C220.791 104.026 220.791 105.711 220.791 107.3C220.791 110.542 220.791 114.237 220.791 117.803C220.791 121.369 220.791 124.967 220.791 128.306C220.791 131.645 220.759 134.789 220.662 137.48H220.629ZM188.601 358.855C189.15 358.342 189.838 358.004 190.579 357.882C191.422 357.882 191.973 357.882 192.718 357.882C194.145 357.882 195.603 357.882 197.159 357.882C200.401 357.882 203.643 357.882 206.884 357.882C210.126 357.882 213.368 357.882 216.61 357.882C218.133 357.882 219.624 357.882 221.051 357.882C221.764 357.882 222.38 357.882 223.158 357.882C223.91 357.997 224.61 358.336 225.168 358.855C225.581 359.222 225.907 359.677 226.119 360.188C226.332 360.698 226.426 361.25 226.395 361.802C226.363 362.354 226.208 362.892 225.939 363.375C225.67 363.859 225.296 364.275 224.843 364.593C224.366 364.93 223.806 365.131 223.223 365.176H222.639C223.379 365.119 224.077 364.81 224.617 364.301C225.213 363.77 225.575 363.024 225.621 362.226C225.651 361.74 225.563 361.253 225.366 360.808C225.168 360.362 224.867 359.97 224.487 359.665C224.068 359.332 223.561 359.129 223.028 359.082C222.509 359.082 221.731 359.082 221.051 359.082H216.61H213.757C213.989 359.882 214.098 360.712 214.081 361.545C214.111 362.661 213.89 363.769 213.433 364.787H190.741C190.169 364.737 189.621 364.535 189.152 364.204C188.379 363.656 187.845 362.832 187.661 361.902C187.578 361.356 187.62 360.798 187.782 360.271C187.945 359.743 188.225 359.259 188.601 358.855ZM224.26 378.305C225.924 381.794 228.444 384.806 231.586 387.057C233.668 388.502 235.833 389.822 238.07 391.012C238.85 391.448 239.607 391.924 240.339 392.439C240.339 392.439 239.561 391.92 238.037 391.11C235.804 389.984 233.64 388.728 231.554 387.349C228.257 385.152 225.588 382.136 223.806 378.597C222.773 376.542 222.011 374.363 221.537 372.113H222.445C222.8 374.182 223.387 376.205 224.195 378.143L224.26 378.305ZM247.341 397.593C248.05 398.099 248.601 398.796 248.929 399.603L249.156 400.316V400.932V402.196C249.398 403.806 250.095 405.314 251.166 406.54C251.715 407.155 252.348 407.69 253.046 408.128C253.693 408.519 254.408 408.783 255.153 408.906C255.761 408.904 256.349 409.123 256.806 409.522C257.181 409.893 257.459 410.349 257.617 410.851C257.86 411.629 257.991 412.436 258.006 413.25C258.002 414.334 257.937 415.416 257.811 416.492C257.811 417.302 257.617 417.756 257.617 417.756C257.617 417.756 257.617 417.302 257.422 416.492C257.307 415.403 257.133 414.321 256.904 413.25C256.789 412.57 256.593 411.906 256.32 411.273C256.208 411.006 256.029 410.772 255.802 410.592C255.542 410.43 255.542 410.592 255.056 410.43C254.03 410.384 253.031 410.095 252.138 409.587C251.254 409.078 250.456 408.432 249.772 407.675C249.094 406.904 248.546 406.028 248.151 405.081C247.782 404.183 247.563 403.23 247.503 402.261C247.503 401.807 247.503 401.386 247.503 400.964V400.348V399.895C247.314 399.284 246.981 398.727 246.53 398.274C245.771 397.541 244.865 396.977 243.872 396.62C243.469 396.459 243.058 396.319 242.64 396.199C243.072 396.163 243.506 396.163 243.937 396.199C245.137 396.32 246.286 396.743 247.276 397.431L247.341 397.593ZM192.232 370.266C195.992 370.881 202.152 371.303 208.116 371.595V373.993C208.639 380.167 210.207 386.207 212.752 391.855C213.465 393.379 213.887 394.157 213.887 394.157C213.887 394.157 213.53 393.346 212.946 391.79C212.142 389.541 211.471 387.246 210.937 384.918C210.061 381.33 209.594 377.654 209.543 373.961C209.543 373.215 209.543 372.438 209.543 371.659H212.168C212.755 379.638 215.102 387.388 219.041 394.351H227.858H235.314H238.167L235.347 394.773C233.564 394.967 231.003 395.324 227.923 395.583C224.843 395.842 221.213 396.134 217.355 396.296C213.498 396.458 209.348 396.556 205.231 396.556C201.114 396.556 196.965 396.556 193.107 396.231C189.25 395.907 185.619 395.778 182.539 395.453C180.108 395.227 178.001 394.967 176.348 394.74C174.695 394.513 173.106 394.351 171.583 394.157C175.051 389.229 189.315 388.354 192.167 370.103L192.232 370.266ZM169.313 396.685C187.454 399.023 205.773 399.663 224.033 398.598C226.014 400.52 227.176 403.133 227.275 405.892C227.294 407.708 227.822 409.482 228.798 411.014C231.067 411.014 233.207 411.014 235.282 410.722L248.8 410.009L245.104 410.592C242.77 410.916 239.399 411.403 235.379 411.792C231.359 412.181 226.626 412.634 221.537 412.894C216.447 413.153 211.034 413.25 205.62 413.283C200.207 413.315 194.761 413.023 189.671 412.764C184.582 412.505 179.946 411.986 175.829 411.565C171.712 411.143 168.438 410.592 166.104 410.268L162.084 409.49H162.279L159.848 409.198C161.479 408.55 162.876 407.422 163.854 405.964C164.832 404.505 165.345 402.785 165.326 401.029C165.385 399.949 165.803 398.919 166.514 398.103C167.224 397.287 168.187 396.731 169.249 396.523L169.313 396.685ZM130.543 345.726C130.555 345.191 130.7 344.668 130.964 344.202L131.71 346.342H130.575C130.545 346.138 130.534 345.932 130.543 345.726ZM5.70537 354.446C5.70537 352.08 16.5002 351.82 44.6056 351.82H66.1953C65.4405 352.73 65.0378 353.88 65.0607 355.062C65.0638 355.116 65.0638 355.17 65.0607 355.224H61.5921C56.9889 355.224 52.4505 355.224 48.0418 355.224H24.0533C17.0189 355.224 11.0866 355.224 7.0993 354.803H5.86745L5.70537 354.446ZM16.5002 345.726C16.5317 345.974 16.5317 346.224 16.5002 346.472H15.3008L16.1436 344.364C16.3743 344.781 16.4969 345.249 16.5002 345.726ZM66.876 354.932C66.8773 354.472 66.9864 354.018 67.1947 353.607C67.403 353.196 67.7046 352.839 68.0754 352.566V354.803C68.0754 354.803 68.0754 354.997 68.0754 355.094H66.9733L66.876 354.932ZM72.7759 355.094H71.7061V352.825C72.0043 353.103 72.2417 353.439 72.4035 353.813C72.5653 354.187 72.648 354.59 72.6462 354.997C72.6462 354.997 72.7759 355.03 72.7759 355.094ZM6.77513 355.937C12.3508 357.189 18.004 358.066 23.6967 358.563C27.2302 358.952 31.0554 359.276 35.0751 359.536C39.0947 359.795 43.3738 360.119 47.7825 360.281C52.1912 360.443 56.7295 360.703 61.3651 360.735L75.4016 360.962L89.4382 360.735C94.0738 360.735 98.6446 360.443 103.021 360.281C107.397 360.119 111.709 359.827 115.728 359.536C119.748 359.244 123.606 358.92 127.107 358.563C129.894 358.271 132.52 357.947 134.887 357.623C124.608 364.161 112.961 368.243 100.849 369.552H98.288H87.0393C83.2465 369.552 79.3241 369.552 75.4016 369.552C71.4792 369.552 67.5892 369.552 63.764 369.552H52.5153C48.8847 369.552 45.3512 369.552 42.0123 369.228C38.6733 368.904 35.5289 368.872 32.6762 368.58C29.8235 368.288 27.1653 367.932 24.8313 367.543C22.8426 367.246 20.8727 366.834 18.9315 366.311C17.6746 365.933 16.4497 365.456 15.2683 364.884L14.0041 364.236C7.2938 359.373 5.99712 357.98 5.73779 355.743L6.77513 355.937ZM145.13 354.673H143.866C139.814 354.997 133.947 355.03 126.944 355.062H102.924C98.5473 355.062 94.0089 355.062 89.3733 355.062H74.5588V354.9C74.5658 353.77 74.1627 352.676 73.4242 351.82H106.327C134.303 351.82 145.228 352.08 145.228 354.446L145.13 354.673ZM57.3779 346.147H44.4111C32.8383 346.147 24.3775 346.147 18.2183 346.407C18.2359 346.191 18.2359 345.974 18.2183 345.758C18.2138 344.486 17.7138 343.265 16.8244 342.355L76.8604 197.905L68.432 346.147H57.3779ZM10.5679 345.726C10.569 345.1 10.7713 344.491 11.1449 343.989C11.5185 343.487 12.0435 343.119 12.6426 342.938L11.7673 345.013C11.6625 345.294 11.6255 345.597 11.6593 345.895C11.6931 346.194 11.7968 346.48 11.9618 346.731H10.7948C10.6527 346.414 10.5756 346.073 10.5679 345.726ZM136.443 345.726C136.492 346.005 136.492 346.29 136.443 346.569H135.34C135.521 346.133 135.521 345.643 135.34 345.207L134.627 343.035C135.155 343.264 135.606 343.639 135.928 344.116C136.25 344.592 136.428 345.151 136.443 345.726ZM130.251 342.128C129.747 342.583 129.344 343.138 129.065 343.757C128.786 344.377 128.638 345.047 128.63 345.726C128.612 345.909 128.612 346.094 128.63 346.277C122.925 346.277 115.663 346.277 106.263 346.277H72.2248L80.718 196.835L130.251 342.128ZM268.477 316.518C268.477 314.152 279.304 313.86 307.377 313.86H338.465C337.71 314.77 337.307 315.92 337.33 317.102C337.33 317.102 337.33 317.102 337.33 317.296H324.363C319.728 317.296 315.189 317.296 310.813 317.296H286.792C279.79 317.296 273.825 317.296 269.87 316.875H268.606L268.477 316.518ZM407.869 316.713H406.605C402.553 317.037 396.88 317.102 389.683 317.134H365.695C361.286 317.134 356.748 317.134 352.145 317.134H346.861C346.902 315.95 346.497 314.793 345.726 313.893H369.001C396.977 313.893 407.902 314.184 407.902 316.551L407.869 316.713ZM339.113 316.972C339.115 316.573 339.197 316.179 339.352 315.811C339.508 315.444 339.735 315.112 340.021 314.833V317.102H338.983L339.113 316.972ZM345.013 316.972H343.911C343.911 316.972 343.911 316.972 343.911 316.713V314.411C344.29 314.686 344.599 315.047 344.813 315.464C345.027 315.88 345.14 316.342 345.142 316.81C345.123 316.922 345.091 317.031 345.045 317.134L345.013 316.972ZM396.588 308.317H395.486C395.468 308.101 395.468 307.884 395.486 307.669C395.49 307.206 395.6 306.751 395.81 306.339L396.588 308.317ZM393.573 308.317C387.576 308.317 379.634 308.122 369.066 308.122H343.619L335.19 159.88L395.064 304.33C394.208 305.196 393.71 306.354 393.671 307.571C393.618 307.838 393.596 308.11 393.606 308.382L393.573 308.317ZM331.203 158.843L339.664 308.317H307.247C296.971 308.317 289.159 308.317 283.226 308.511C283.242 308.317 283.242 308.122 283.226 307.928C283.223 307.24 283.074 306.561 282.789 305.935C282.504 305.309 282.09 304.751 281.573 304.297L331.203 158.843ZM280.211 308.414L280.957 306.242C281.257 306.705 281.415 307.246 281.411 307.798C281.427 308.014 281.427 308.231 281.411 308.447H280.244L280.211 308.414ZM269.546 318.139C275.138 319.358 280.8 320.224 286.5 320.733C290.001 321.122 293.827 321.478 297.879 321.737C301.931 321.997 306.145 322.289 310.554 322.451C314.962 322.613 319.533 322.872 324.136 322.937L338.173 323.164L352.242 322.937C356.845 322.937 361.416 322.613 365.824 322.451C370.233 322.289 374.48 321.997 378.532 321.737C382.584 321.478 386.377 321.122 389.91 320.733C392.698 320.441 395.291 320.149 397.658 319.792C387.405 326.4 375.749 330.519 363.62 331.819H361.092H349.843C346.018 331.819 342.095 331.819 338.173 331.819C334.25 331.819 330.393 331.819 326.568 331.819H315.287L304.816 331.495C301.574 331.268 298.332 331.106 295.447 330.814C292.562 330.522 289.937 330.166 287.603 329.777C285.608 329.413 283.637 328.926 281.703 328.318C280.448 327.935 279.223 327.458 278.04 326.892L276.775 326.276C270.097 321.381 268.768 319.987 268.541 317.75L269.546 318.139ZM401.386 307.96C401.387 308.284 401.321 308.604 401.191 308.9H400.024C400.145 308.647 400.208 308.37 400.208 308.09C400.208 307.81 400.145 307.533 400.024 307.28L399.181 305.205C399.794 305.37 400.338 305.726 400.735 306.222C401.131 306.717 401.359 307.326 401.386 307.96ZM275.543 307.96C275.547 307.366 275.727 306.786 276.062 306.295C276.397 305.804 276.871 305.425 277.424 305.205L276.678 307.344C276.485 307.812 276.485 308.336 276.678 308.803H275.576C275.523 308.525 275.512 308.241 275.543 307.96Z" fill="#033A5B" fill-opacity="0.1"/>
<path d="M292.66 325.336C296.939 325.822 301.963 326.438 307.344 326.794C310.035 326.989 312.823 327.119 315.643 327.248C318.463 327.378 321.349 327.475 324.234 327.605H332.824H341.155C343.846 327.605 346.439 327.41 348.903 327.281C351.367 327.151 353.733 326.989 355.872 326.859C360.184 326.6 363.75 326.146 366.246 325.887L370.201 325.465L355.84 325.79C353.668 325.79 351.334 325.79 348.87 325.79H341.123H332.824H324.266C321.413 325.79 318.528 325.79 315.708 325.595C312.888 325.401 310.132 325.401 307.442 325.238C302.06 324.979 297.036 324.72 292.757 324.363C288.478 324.007 284.88 323.78 282.383 323.52L278.461 323.131C278.461 323.131 279.855 323.456 282.319 323.877C284.782 324.298 288.51 324.817 292.66 325.336Z" fill="#033A5B" fill-opacity="0.1"/>
<path d="M30.6015 363.296C34.8806 363.782 39.9052 364.398 45.2864 364.722C47.977 364.917 50.7648 365.046 53.5851 365.208C56.4054 365.371 59.2905 365.435 62.1756 365.533H70.7661H79.0972C81.7878 365.533 84.3811 365.306 86.8772 365.208C89.3733 365.111 91.6749 364.884 93.8145 364.755C98.1259 364.528 101.692 364.041 104.22 363.815L108.143 363.361L93.782 363.685C91.6101 363.685 89.2761 363.685 86.8124 363.685H79.0648H70.7661H62.208C59.3553 363.685 56.4702 363.685 53.6499 363.458C50.8297 363.231 48.0742 363.263 45.3836 363.101C40.0024 362.842 35.0102 362.583 30.6988 362.259C26.3874 361.934 22.8215 361.675 20.3254 361.416L16.403 360.994C16.403 360.994 17.7969 361.318 20.293 361.772C22.7891 362.226 26.3225 362.777 30.6015 363.296Z" fill="#033A5B" fill-opacity="0.1"/>
</svg>
