<svg width="35" height="35" viewBox="0 0 35 35" fill="none" xmlns="http://www.w3.org/2000/svg">
<path d="M7.65625 0C7.10938 0 6.5625 0.4375 6.5625 1.09375V2.1875H3.28125C1.53125 2.1875 0 3.60938 0 5.46875V9.84375V31.7188C0 33.5781 1.42188 35 3.28125 35H31.7188C33.5781 35 35 33.5781 35 31.7188V9.84375V5.46875C35 3.60938 33.5781 2.1875 31.7188 2.1875H28.4375V1.09375C28.4375 0.4375 28 0 27.3438 0C26.6875 0 26.25 0.4375 26.25 1.09375V2.1875H8.75V1.09375C8.75 0.4375 8.3125 0 7.65625 0ZM32.8125 31.7188C32.8125 32.375 32.375 32.8125 31.7188 32.8125H3.28125C2.625 32.8125 2.1875 32.375 2.1875 31.7188V10.9375H32.8125V31.7188ZM26.25 4.375V5.46875C26.25 6.125 26.6875 6.5625 27.3438 6.5625C28 6.5625 28.4375 6.125 28.4375 5.46875V4.375H31.7188C32.375 4.375 32.8125 4.8125 32.8125 5.46875V8.75H2.1875V5.46875C2.1875 4.8125 2.625 4.375 3.28125 4.375H6.5625V5.46875C6.5625 6.125 7 6.5625 7.65625 6.5625C8.3125 6.5625 8.75 6.125 8.75 5.46875V4.375H26.25Z" fill="#B69D74"/>
<path d="M6.67188 20.2344H11.0469C11.7031 20.2344 12.1406 19.7969 12.1406 19.1406V14.7656C12.1406 14.1094 11.7031 13.6719 11.0469 13.6719H6.67188C6.01563 13.6719 5.57812 14.1094 5.57812 14.7656V19.1406C5.57812 19.7969 6.01563 20.2344 6.67188 20.2344ZM7.76563 15.8594H9.95313V18.0469H7.76563V15.8594Z" fill="#B69D74"/>
<path d="M15.4219 20.2344H19.7969C20.4531 20.2344 20.8906 19.7969 20.8906 19.1406V14.7656C20.8906 14.1094 20.4531 13.6719 19.7969 13.6719H15.4219C14.7656 13.6719 14.3281 14.1094 14.3281 14.7656V19.1406C14.3281 19.7969 14.7656 20.2344 15.4219 20.2344ZM16.5156 15.8594H18.7031V18.0469H16.5156V15.8594Z" fill="#B69D74"/>
<path d="M24.1719 20.2344H28.5469C29.2031 20.2344 29.6406 19.7969 29.6406 19.1406V14.7656C29.6406 14.1094 29.2031 13.6719 28.5469 13.6719H24.1719C23.5156 13.6719 23.0781 14.1094 23.0781 14.7656V19.1406C23.0781 19.7969 23.5156 20.2344 24.1719 20.2344ZM25.2656 15.8594H27.4531V18.0469H25.2656V15.8594Z" fill="#B69D74"/>
<path d="M6.67188 30.0781H11.0469C11.7031 30.0781 12.1406 29.6406 12.1406 28.9844V24.6094C12.1406 23.9531 11.7031 23.5156 11.0469 23.5156H6.67188C6.01563 23.5156 5.57812 23.9531 5.57812 24.6094V28.9844C5.57812 29.6406 6.01563 30.0781 6.67188 30.0781ZM7.76563 25.7031H9.95313V27.8906H7.76563V25.7031Z" fill="#B69D74"/>
<path d="M15.4219 30.0781H19.7969C20.4531 30.0781 20.8906 29.6406 20.8906 28.9844V24.6094C20.8906 23.9531 20.4531 23.5156 19.7969 23.5156H15.4219C14.7656 23.5156 14.3281 23.9531 14.3281 24.6094V28.9844C14.3281 29.6406 14.7656 30.0781 15.4219 30.0781ZM16.5156 25.7031H18.7031V27.8906H16.5156V25.7031Z" fill="#B69D74"/>
<path d="M24.1719 30.0781H28.5469C29.2031 30.0781 29.6406 29.6406 29.6406 28.9844V24.6094C29.6406 23.9531 29.2031 23.5156 28.5469 23.5156H24.1719C23.5156 23.5156 23.0781 23.9531 23.0781 24.6094V28.9844C23.0781 29.6406 23.5156 30.0781 24.1719 30.0781ZM25.2656 25.7031H27.4531V27.8906H25.2656V25.7031Z" fill="#B69D74"/>
</svg>
