<svg width="40" height="40" viewBox="0 0 40 40" fill="none" xmlns="http://www.w3.org/2000/svg">
<path d="M39.7661 16.7382C40.2453 15.4822 39.9807 14.005 38.9702 12.9945L27.0037 1.02803C25.633 -0.342754 23.4025 -0.342598 22.0319 1.02803L8.57867 14.4813H3.51562C1.57711 14.4813 0 16.0584 0 17.9969V36.4826C0 38.4212 1.57711 39.9983 3.51562 39.9983H36.4844C38.4229 39.9983 40 38.4212 40 36.4826V17.9969C40 17.5534 39.9166 17.1293 39.7661 16.7382ZM37.2208 14.5595C36.9832 14.5087 36.737 14.4813 36.4844 14.4813H33.9451L35.5438 12.8826L37.2208 14.5595ZM33.8866 11.2253L30.6305 14.4813H27.3159L32.2292 9.56795L33.8866 11.2253ZM23.6892 2.68529C23.9177 2.45686 24.2178 2.34256 24.5179 2.34256C24.818 2.34256 25.118 2.45686 25.3465 2.68529L30.572 7.91076L24.0013 14.4814H11.8931L23.6892 2.68529ZM37.6562 36.4826C37.6562 37.1288 37.1305 37.6545 36.4844 37.6545H3.51562C2.86945 37.6545 2.34375 37.1288 2.34375 36.4826V17.9969C2.34375 17.3508 2.86945 16.8251 3.51562 16.8251H36.4844C37.1305 16.8251 37.6562 17.3508 37.6562 17.9969V36.4826Z" fill="#B69D74"/>
<path d="M4.60938 31.7636H10.0705V34.1074H4.60938V31.7636Z" fill="#B69D74"/>
<path d="M13.0496 31.7636H18.5107V34.1074H13.0496V31.7636Z" fill="#B69D74"/>
<path d="M21.4895 31.7636H26.9506V34.1074H21.4895V31.7636Z" fill="#B69D74"/>
<path d="M29.9297 31.7636H35.3909V34.1074H29.9297V31.7636Z" fill="#B69D74"/>
<path d="M10.6459 19.95H6.64062C5.56367 19.95 4.6875 20.8262 4.6875 21.9031V25.0281C4.6875 26.1051 5.56367 26.9813 6.64062 26.9813H10.6459C11.7228 26.9813 12.599 26.1051 12.599 25.0281V21.9031C12.599 20.8262 11.7228 19.95 10.6459 19.95ZM10.2552 24.6375H7.03125V22.2938H10.2552V24.6375Z" fill="#B69D74"/>
</svg>
