<svg width="45" height="46" viewBox="0 0 45 46" fill="none" xmlns="http://www.w3.org/2000/svg">
<path d="M16.5025 0C11.5405 0 7.50048 4.04148 7.50048 9.00348C7.50048 9.29073 7.51375 9.57452 7.53274 9.86194C7.54121 10.9196 9.15373 10.8169 9.02844 9.76669C9.01137 9.50163 9.00057 9.2481 9.00057 9.00348C9.00057 4.85222 12.3512 1.5015 16.5025 1.5015C20.6538 1.5015 23.9986 4.85219 23.9986 9.00348C23.9986 9.93067 23.8719 10.9437 23.6338 11.992C23.4713 12.009 23.3071 12.0387 23.1489 12.0886C22.8664 11.166 22.0066 10.4977 20.9984 10.4977C19.7388 10.4977 18.7512 9.51005 18.7512 8.25048C18.7572 7.82962 18.4132 7.48686 17.9924 7.4916C17.578 7.49727 17.2464 7.83611 17.2511 8.25048C17.2511 9.51002 16.2619 10.4977 15.0024 10.4977H12.0008C10.9926 10.4977 10.1387 11.1837 9.8561 12.1062C9.41681 11.9679 8.94854 11.9536 8.52447 12.0651C7.60982 12.3054 6.79019 13.1156 6.75337 14.2376C6.75337 16.4045 8.32958 17.8173 10.1271 17.979C10.5065 19.0693 11.16 20.0155 12.0008 20.7712V22.5013H11.9963C11.7987 22.5029 11.6097 22.5823 11.4704 22.7224L9.96879 24.224C9.77343 24.4196 9.70138 24.7065 9.78128 24.9711L14.5965 40.6137L9.06785 33.5776L9.72854 30.9334C9.79214 30.6777 9.71714 30.4076 9.53077 30.2214L7.57655 28.2672L8.29876 25.1864C8.40912 24.716 8.05242 24.2655 7.56922 24.265C7.50847 24.265 7.44799 24.2735 7.38903 24.2876C3.13552 25.339 2.97657e-05 29.1773 0 33.7527V44.2533C4.47903e-05 44.6675 0.335826 45.0033 0.750048 45.0034H28.5018C29.5161 45.0176 29.5161 43.4889 28.5018 43.5033H18.0451L25.342 34.2155C25.4849 34.0335 25.5357 33.7956 25.4797 33.571L24.8322 30.9825L26.782 29.0326C26.9591 28.8554 27.036 28.6015 26.9871 28.3558L26.5608 26.2038C27.8303 26.7454 28.9684 27.6269 29.8261 28.7557C30.4326 29.546 31.6203 28.6434 31.0215 27.8474C29.7091 26.1203 27.9312 24.9032 25.7492 24.3639C25.2151 24.2318 24.7252 24.7004 24.8336 25.2399L25.4372 28.2562L23.4713 30.2221C23.2849 30.4084 23.2098 30.6785 23.2735 30.9341L23.9342 33.5783L18.404 40.6173L23.2193 24.9718C23.2988 24.707 23.226 24.4198 23.0303 24.2247L21.5302 22.7232C21.3892 22.582 21.1979 22.5031 20.9984 22.5034V20.7748C21.8402 20.0187 22.4943 19.0775 22.8736 17.9856C24.6964 17.8484 26.2532 16.4048 26.2532 14.2382C26.2248 13.3742 25.7309 12.7019 25.09 12.3251C25.3475 11.1921 25.5002 10.0681 25.5002 9.00408C25.5002 4.04209 21.4645 0 16.5025 0ZM18.0012 10.5021C18.6854 11.4204 19.7695 11.9978 20.9984 11.9978C21.427 11.9978 21.7514 12.3238 21.7514 12.7523V15.7525C21.7514 18.6741 19.4242 21.0013 16.5025 21.0013C13.5809 21.0013 11.2478 18.6741 11.2478 15.7525V12.7523C11.2478 12.3238 11.5723 11.9978 12.0008 11.9978H15.0024C16.2316 11.9978 17.3169 11.4208 18.0012 10.5021ZM9.74769 13.7528V15.7525C9.74769 15.9676 9.76022 16.1797 9.77995 16.3897C8.94226 16.1417 8.25934 15.4338 8.25934 14.2626C8.25934 13.4834 9.42058 13.2555 9.74769 13.7528ZM24.7472 14.2685C24.7472 15.3823 24.0578 16.1441 23.2193 16.3913C23.2391 16.1809 23.2515 15.9681 23.2515 15.7525V13.7558C23.5963 13.2471 24.7472 13.4879 24.7472 14.2685ZM19.5042 21.7939V23.5211L16.5025 26.0232L13.5023 23.5225V21.7954C14.4062 22.2459 15.4241 22.5014 16.5025 22.5014C17.5821 22.5014 18.6002 22.2452 19.5042 21.7939ZM12.0462 24.2682L15.2734 26.9564L12.5589 28.8945L11.3489 24.9597L12.0462 24.2682ZM20.9545 24.2682L21.6518 24.9597L20.4417 28.893L17.7272 26.9549L20.9545 24.2682ZM6.53069 26.1491L6.0209 28.3304C5.96142 28.583 6.0368 28.8485 6.22013 29.0321L8.16996 30.982L7.52246 33.5706C7.46643 33.7951 7.51722 34.033 7.66016 34.2151L14.957 43.5027H6.75337V38.2539C6.76184 37.8286 6.41392 37.4812 5.98867 37.4892C5.57426 37.4977 5.24404 37.8395 5.2518 38.2539V43.5027H1.5001V33.7521C1.5001 30.3472 3.61381 27.4159 6.53069 26.1491ZM40.1525 32.1275L37.5654 37.9492C37.524 38.0453 37.5039 38.1494 37.5053 38.254C37.5053 38.254 37.494 39.1576 37.958 40.0866C38.4225 41.0155 39.3948 42.0012 41.2526 42.0012C43.1105 42.0012 44.0813 41.0155 44.5458 40.0866C45.0104 39.1576 44.9999 38.254 44.9999 38.254C45.0014 38.1494 44.9801 38.0453 44.9399 37.9492L42.3513 32.1232C42.7709 32.0282 43.5368 31.7596 44.0316 31.2823C44.7009 30.6367 43.7432 29.5099 42.9754 30.2187C42.699 30.4739 41.9484 30.7505 41.2511 30.7505C39.3573 30.7222 38.5307 29.4513 36.0023 29.2856V27.7504C36.0082 27.3358 35.6768 26.996 35.2625 26.9915V26.9886C35.2565 26.9886 35.2537 26.9859 35.2509 26.9859C34.8365 26.9915 34.5064 27.3303 34.5111 27.7447V29.2799C31.9827 29.4457 31.1561 30.7175 29.2622 30.7449C28.5649 30.7449 27.8145 30.4685 27.538 30.2131C26.7701 29.5042 25.8124 30.631 26.4817 31.2766C26.9765 31.7539 27.7424 32.0225 28.162 32.1175L25.5735 37.9436C25.5321 38.0397 25.5123 38.1437 25.5134 38.2483C25.5134 38.2483 25.5021 39.1519 25.9675 40.0808C26.432 41.0098 27.4029 41.9956 29.2607 41.9956C31.1186 41.9956 32.0909 41.0098 32.5554 40.0808C33.0198 39.1519 33.008 38.2483 33.008 38.2483C33.0095 38.1437 32.9882 38.0396 32.948 37.9436L30.3609 32.1219C31.8946 31.8784 32.7954 30.7487 35.2508 30.7478C37.7157 30.7506 38.6161 31.8836 40.1525 32.1275ZM16.5011 27.9246L17.6759 28.764L16.8512 30.0048H16.1539L15.3262 28.764L16.5011 27.9246ZM14.1059 29.6356L14.9629 30.9219L14.3359 34.6736L13.0248 30.4077L14.1059 29.6356ZM18.8992 29.6372L19.9759 30.4063L18.6648 34.6663L18.0407 30.9248L18.8992 29.6372ZM16.3853 31.505H16.6168L17.6774 37.8745L16.4981 41.7039L15.3232 37.8833L16.3853 31.505ZM35.2596 32.2345C34.8845 32.2345 34.511 32.4845 34.511 32.9845V43.4969H31.4727C30.4601 43.5658 30.529 45.0218 31.5079 44.9971H35.2508V45.0027H39.0055C39.9843 45.0282 40.0532 43.5714 39.0406 43.5026H36.0023V32.9902C36.0023 32.4941 35.6346 32.2456 35.2625 32.2416V32.2331L35.2596 32.2345ZM29.2607 33.342L31.1035 37.4936H27.4192L29.2607 33.342ZM41.2526 33.3477L43.0941 37.4993H39.4097L41.2526 33.3477ZM27.1453 38.995H31.3775C31.3775 38.995 31.113 40.4951 29.2621 40.4951C27.4111 40.4951 27.1453 38.995 27.1453 38.995ZM39.1358 39.0007H43.368C43.368 39.0007 43.1021 40.5008 41.2512 40.5008C39.4002 40.5008 39.1358 39.0007 39.1358 39.0007Z" fill="#B69D74"/>
</svg>
