<svg width="40" height="41" viewBox="0 0 40 41" fill="none" xmlns="http://www.w3.org/2000/svg">
<path d="M18.235 11.1968C17.4087 11.1579 16.7114 11.8295 16.6939 12.6665C16.58 19.5371 11.6013 22.4437 9.93338 23.2259C9.59665 22.7231 9.02392 22.3906 8.37442 22.3906H1.8757C0.84138 22.3906 0 23.232 0 24.2663V38.0978C0 39.1321 0.84138 39.9735 1.8757 39.9735H8.37442C9.1497 39.9735 9.81645 39.5006 10.1019 38.8283C11.2002 39.5931 12.52 40.015 13.859 40.015H13.8956L27.8516 39.9393C28.6814 39.9344 29.4575 39.5613 29.9813 38.916C30.5055 38.27 30.7091 37.4249 30.54 36.5982C30.4591 36.2031 30.2903 35.8417 30.0555 35.5315C31.1952 35.2 32.0375 34.2127 32.0936 33.0202C32.1272 32.3009 31.8909 31.6177 31.4257 31.0801C32.1898 30.7104 32.7644 30.014 32.9335 29.1644C33.0935 28.3602 32.9008 27.5421 32.4047 26.9071C33.4231 26.5198 34.1335 25.5511 34.1782 24.436C34.2396 22.9194 32.9899 21.5985 31.2828 21.5602L20.2328 21.6558C21.004 19.2067 21.3376 16.9088 21.225 14.8261C21.1694 13.8043 20.7842 12.8576 20.1397 12.1609C19.4452 11.4099 18.7222 11.2225 18.235 11.1968ZM8.37442 38.723H1.8757C1.53103 38.723 1.25047 38.4425 1.25047 38.0978V24.2663C1.25047 23.9216 1.53103 23.6411 1.8757 23.6411H8.37442C8.70596 23.6411 8.97187 23.9027 8.99217 24.2294L8.99965 25.5543V38.0978C8.99965 38.4425 8.71909 38.723 8.37442 38.723ZM31.2901 22.8107C31.752 22.8082 32.1895 22.9963 32.5091 23.3272C32.7955 23.6237 32.9445 23.9995 32.9289 24.3857C32.8963 25.1897 32.2416 25.8324 31.4284 25.8367L22.2349 25.8886C21.8911 25.8908 21.6136 26.1701 21.6133 26.5135V26.5175C21.6149 26.8628 21.9006 27.1128 22.2422 27.1391C22.4833 27.1377 30.2857 27.0942 30.2225 27.0942C31.1459 27.0942 31.9051 27.926 31.7068 28.9201C31.5698 29.6101 30.9247 30.1138 30.1734 30.1181L24.3912 30.1505C24.0474 30.1526 23.7699 30.4319 23.7696 30.7754V30.7794C23.7711 31.1246 24.0566 31.382 24.3985 31.4009L29.325 31.3735C30.1932 31.3761 30.8857 32.0818 30.8444 32.9616C30.8074 33.7501 30.0796 34.3958 29.2224 34.4007L25.9399 34.419C25.5961 34.4212 25.3186 34.7005 25.3183 35.044V35.0479C25.3199 35.3932 25.609 35.6512 25.9472 35.6695C26.0742 35.6688 25.3944 35.6726 27.7616 35.6594C28.5211 35.6594 29.1735 36.1586 29.3152 36.8491C29.5185 37.8455 28.7631 38.6839 27.8446 38.6888L13.8886 38.7645C12.7242 38.7584 11.5519 38.3805 10.6195 37.6649L10.3173 37.4322L10.2501 25.5336V24.4489C11.8967 23.693 17.8157 20.4377 17.9443 12.6903C17.9456 12.6204 17.9761 12.5529 18.0277 12.5047C18.0579 12.4763 18.1065 12.443 18.1733 12.4461C18.5406 12.465 18.8932 12.6546 19.2214 13.0096C19.6686 13.4932 19.9367 14.1624 19.9764 14.8939C20.0811 16.8264 19.766 18.975 19.04 21.2806C18.9222 21.6552 18.9906 22.0664 19.2226 22.3808C19.4552 22.6965 19.8115 22.8766 20.2062 22.8736L31.2901 22.8107Z" fill="#B69D74"/>
<path d="M5.12769 33.269C3.9508 33.269 2.99341 34.2264 2.99341 35.4033C2.99341 36.5799 3.9508 37.5373 5.12769 37.5373C6.30153 37.5373 7.25679 36.5799 7.25679 35.4033C7.25679 34.2264 6.30153 33.269 5.12769 33.269ZM5.12769 36.2868C4.64045 36.2868 4.24388 35.8905 4.24388 35.4033C4.24388 34.916 4.64045 34.5195 5.12769 34.5195C5.61219 34.5195 6.00632 34.916 6.00632 35.4033C6.00632 35.8905 5.61219 36.2868 5.12769 36.2868Z" fill="#B69D74"/>
<path d="M23.5317 12.9165H24.9803L25.0414 14.5538C25.0588 15.0154 25.332 15.419 25.7539 15.6064C26.1759 15.7943 26.6579 15.7269 27.0123 15.4306L30.0029 12.9165H37.6462C38.944 12.9165 40 11.8608 40 10.563V2.3538C40 1.0557 38.944 7.62939e-06 37.6462 7.62939e-06H23.5317C22.2339 7.62939e-06 21.1782 1.0557 21.1782 2.3538V10.563C21.1782 11.8608 22.2339 12.9165 23.5317 12.9165ZM22.4287 2.3538C22.4287 1.74535 22.9236 1.25048 23.5317 1.25048H37.6462C38.2546 1.25048 38.7495 1.74535 38.7495 2.3538V10.563C38.7495 11.1712 38.2546 11.6661 37.6462 11.6661H30.0029C29.7224 11.6661 29.4488 11.7653 29.2327 11.9454L26.2873 14.4067L26.2283 12.8228C26.2039 12.1741 25.6767 11.6661 25.0279 11.6661H23.5317C22.9236 11.6661 22.4287 11.1712 22.4287 10.563V2.3538Z" fill="#B69D74"/>
<path d="M25.4722 5.38872H35.7049C36.0502 5.38872 36.3301 5.10877 36.3301 4.76349C36.3301 4.4182 36.0502 4.13825 35.7049 4.13825H25.4722C25.1269 4.13825 24.8469 4.4182 24.8469 4.76349C24.8469 5.10877 25.1269 5.38872 25.4722 5.38872Z" fill="#B69D74"/>
<path d="M25.4722 8.77837H35.7049C36.0502 8.77837 36.3301 8.49872 36.3301 8.15314C36.3301 7.80816 36.0502 7.5279 35.7049 7.5279H25.4722C25.1269 7.5279 24.8469 7.80816 24.8469 8.15314C24.8469 8.49872 25.1269 8.77837 25.4722 8.77837Z" fill="#B69D74"/>
</svg>
