<svg width="47" height="42" viewBox="0 0 47 42" fill="none" xmlns="http://www.w3.org/2000/svg">
<path d="M24.1192 17.5923C24.0205 17.5708 23.9192 17.5669 23.8192 17.582C22.8173 17.4645 22.0615 16.6107 22.0598 15.5951C22.0598 15.1083 21.6679 14.7137 21.1847 14.7137C20.7015 14.7137 20.3097 15.1083 20.3097 15.5951C20.3122 17.2911 21.4385 18.7767 23.0621 19.2255V20.1069C23.0621 20.5936 23.4539 20.9883 23.9372 20.9883C24.4204 20.9883 24.8122 20.5936 24.8122 20.1069V19.2789C26.6862 18.8838 27.9599 17.1258 27.7629 15.2077C27.5655 13.2896 25.9611 11.832 24.0466 11.8316C22.9493 11.8316 22.0598 10.9356 22.0598 9.83046C22.0598 8.72531 22.9493 7.82931 24.0466 7.82931C25.1438 7.82931 26.0334 8.72531 26.0334 9.83046C26.0334 10.3172 26.4252 10.7118 26.9084 10.7118C27.3916 10.7118 27.7834 10.3172 27.7834 9.83046C27.7809 8.04965 26.5422 6.51372 24.8122 6.14619V5.34401C24.8122 4.85728 24.4204 4.46265 23.9372 4.46265C23.4539 4.46265 23.0621 4.85728 23.0621 5.34401V6.19999C21.2565 6.69662 20.0943 8.46236 20.343 10.331C20.5917 12.1996 22.1747 13.5943 24.0466 13.5939C25.1293 13.5939 26.0124 14.4671 26.0321 15.5572C26.0522 16.6473 25.201 17.5527 24.1192 17.5923Z" fill="#B69D74"/>
<path d="M11.3574 12.7807C11.3574 19.8393 17.0384 25.5613 24.0465 25.5613C31.0545 25.5613 36.7355 19.8393 36.7355 12.7807C36.7355 5.72199 31.0545 0 24.0465 0C17.0418 0.00774633 11.3655 5.72544 11.3574 12.7807ZM24.0465 1.76273C30.088 1.76273 34.9854 6.69546 34.9854 12.7807C34.9854 18.8659 30.088 23.7986 24.0465 23.7986C18.0049 23.7986 13.1075 18.8659 13.1075 12.7807C13.1144 6.69847 18.0079 1.76962 24.0465 1.76273Z" fill="#B69D74"/>
<path d="M41.0493 27.7343L34.1947 30.9963C33.2483 29.2233 31.4328 28.0949 29.4349 28.0381L23.107 27.8629C22.1051 27.8341 21.122 27.5785 20.2311 27.115L19.5872 26.7789C16.2904 25.048 12.3608 25.0523 9.06741 26.7901L9.10757 25.3208C9.12082 24.8341 8.74012 24.4287 8.25688 24.4154L1.31803 24.223C0.834792 24.2097 0.432732 24.5931 0.419486 25.0798L0.0003354 40.4168C-0.0129099 40.9035 0.367787 41.3089 0.851028 41.3223L7.78988 41.5146H7.8138C8.28807 41.5146 8.67603 41.1346 8.68885 40.6574L8.70893 39.9236L10.5116 38.9514C11.2191 38.568 12.0463 38.4768 12.8193 38.6971L23.5839 41.7401C23.6027 41.7457 23.6215 41.75 23.6407 41.7543C24.4188 41.9183 25.2118 42.0005 26.0065 42.0001C27.6899 42.0009 29.3537 41.6356 30.8838 40.9281C30.9214 40.9109 30.9577 40.8906 30.9923 40.8678L46.6 30.6994C46.9888 30.4459 47.1144 29.9316 46.8867 29.5254C45.7279 27.4545 43.1579 26.6657 41.0493 27.7343ZM1.77393 39.5845L2.1448 26.0094L7.33398 26.1531L6.96311 39.7287L1.77393 39.5845ZM30.0955 39.3538C28.1945 40.218 26.0714 40.4564 24.0282 40.0359L13.2927 37.0007C12.0844 36.6568 10.791 36.7992 9.68567 37.3979L8.76448 37.8949L9.01101 28.8691C11.9301 26.9136 15.6738 26.7126 18.7827 28.3441L19.4265 28.6802C20.552 29.2655 21.7932 29.5882 23.0592 29.6252L29.3875 29.8004C31.1649 29.852 32.6744 31.1267 33.0351 32.8809L23.6091 32.6188C23.1258 32.6054 22.7238 32.9893 22.7101 33.4756C22.6969 33.9623 23.078 34.3677 23.5608 34.3811L33.9631 34.6694H33.9874C34.4613 34.669 34.8488 34.289 34.8616 33.8122C34.8723 33.4291 34.8441 33.0457 34.777 32.6687L41.8078 29.3227C41.8146 29.3197 41.8214 29.3162 41.8283 29.3128C42.8255 28.8045 44.0313 28.9745 44.8516 29.7393L30.0955 39.3538Z" fill="#B69D74"/>
</svg>
