<svg width="45" height="44" viewBox="0 0 45 44" fill="none" xmlns="http://www.w3.org/2000/svg">
<path d="M38.41 24.1164C34.1603 19.8667 28.51 17.5264 22.5 17.5264C16.49 17.5264 10.8398 19.8668 6.59004 24.1164C2.34035 28.3661 0 34.0163 0 40.0263C0 40.3903 0.295137 40.6855 0.65918 40.6855H19.0862C19.3952 42.2887 20.808 43.5036 22.5 43.5036C24.192 43.5036 25.6049 42.2886 25.9138 40.6855H44.3408C44.7049 40.6855 45 40.3903 45 40.0263C45 34.0163 42.6596 28.3661 38.41 24.1164ZM22.5 42.1853C21.3095 42.1853 20.3411 41.2168 20.3411 40.0264C20.3411 38.836 21.3096 37.8674 22.5 37.8674C23.6904 37.8674 24.6589 38.836 24.6589 40.0264C24.6589 41.2168 23.6905 42.1853 22.5 42.1853ZM42.1697 39.3671C42.0059 34.3571 39.9787 29.6707 36.4171 26.1091C32.6998 22.3917 27.7572 20.3445 22.5 20.3445C17.7878 20.3445 13.2262 22.0406 9.6554 25.1203C9.37969 25.358 9.34901 25.7743 9.58676 26.05C9.8245 26.3256 10.2407 26.3563 10.5165 26.1186C13.848 23.2452 18.1038 21.6629 22.5 21.6629C32.4049 21.6629 40.5019 29.5458 40.8503 39.3672H25.9138C25.8233 38.8977 25.6388 38.4612 25.3795 38.0791L34.4244 29.0342C34.6818 28.7767 34.6818 28.3593 34.4244 28.102C34.167 27.8446 33.7496 27.8446 33.4922 28.102L24.4473 37.1468C23.8913 36.7696 23.221 36.549 22.5 36.549C20.808 36.549 19.3951 37.764 19.0862 39.3671H4.14949C4.29935 35.2063 5.86283 31.2074 8.59236 28.0427C8.83011 27.7669 8.79935 27.3507 8.52372 27.1129C8.24801 26.8752 7.83176 26.906 7.59401 27.1816C4.6582 30.5857 2.9809 34.8902 2.83052 39.3671H1.32838C1.49273 33.9564 3.67743 28.8934 7.52229 25.0486C11.523 21.0479 16.8422 18.8446 22.5 18.8446C28.1578 18.8446 33.477 21.0479 37.4777 25.0486C41.3226 28.8934 43.5074 33.9564 43.6716 39.3671H42.1697Z" fill="#B69D74"/>
<path d="M22.5 25.89C22.864 25.89 23.1592 25.5949 23.1592 25.2308V23.8218C23.1592 23.4577 22.864 23.1626 22.5 23.1626C22.136 23.1626 21.8408 23.4577 21.8408 23.8218V25.2308C21.8408 25.5949 22.136 25.89 22.5 25.89Z" fill="#B69D74"/>
<path d="M11.5723 30.0303C11.701 30.1591 11.8697 30.2234 12.0384 30.2234C12.207 30.2234 12.3758 30.1591 12.5045 30.0303C12.7619 29.7729 12.7619 29.3555 12.5045 29.0981L11.5081 28.1018C11.2506 27.8443 10.8332 27.8444 10.5759 28.1018C10.3185 28.3592 10.3185 28.7766 10.5759 29.034L11.5723 30.0303Z" fill="#B69D74"/>
<path d="M16.2292 26.6096C16.3343 26.8635 16.5798 27.0167 16.8385 27.0167C16.9226 27.0167 17.008 27.0006 17.0904 26.9664C17.4268 26.8271 17.5865 26.4414 17.4472 26.1051L16.908 24.8033C16.7687 24.4669 16.3831 24.3073 16.0467 24.4466C15.7104 24.5859 15.5507 24.9715 15.69 25.3078L16.2292 26.6096Z" fill="#B69D74"/>
<path d="M36.1696 35.0236C36.2537 35.0236 36.3392 35.0075 36.4216 34.9733L37.7234 34.4341C38.0598 34.2948 38.2195 33.9091 38.0802 33.5728C37.9409 33.2365 37.5553 33.0769 37.2189 33.2161L35.9171 33.7553C35.5807 33.8946 35.421 34.2803 35.5604 34.6165C35.6655 34.8704 35.9109 35.0236 36.1696 35.0236Z" fill="#B69D74"/>
<path d="M27.9098 26.9662C27.9923 27.0004 28.0777 27.0165 28.1618 27.0165C28.4204 27.0165 28.6659 26.8632 28.771 26.6094L29.3102 25.3076C29.4495 24.9712 29.2898 24.5856 28.9535 24.4463C28.617 24.307 28.2315 24.4667 28.0922 24.8031L27.553 26.1049C27.4137 26.4412 27.5735 26.8269 27.9098 26.9662Z" fill="#B69D74"/>
<path d="M9.08305 33.7553L7.78122 33.2161C7.44495 33.0769 7.05928 33.2365 6.91998 33.5728C6.78067 33.9092 6.94037 34.2948 7.27672 34.4341L8.57856 34.9733C8.661 35.0075 8.74652 35.0236 8.83054 35.0236C9.0892 35.0236 9.33468 34.8704 9.4398 34.6165C9.57911 34.2802 9.41941 33.8946 9.08305 33.7553Z" fill="#B69D74"/>
<path d="M16.8637 11.0948H19.0227V15.3674C19.0227 15.7315 19.3178 16.0266 19.6819 16.0266C20.0459 16.0266 20.341 15.7315 20.341 15.3674V10.4356C20.341 10.0716 20.0459 9.77643 19.6819 9.77643H18.0433L22.5001 2.53433L26.9567 9.77643H25.3182C24.9541 9.77643 24.659 10.0716 24.659 10.4356V15.3674C24.659 15.7315 24.9541 16.0266 25.3182 16.0266C25.6822 16.0266 25.9774 15.7315 25.9774 15.3674V11.0948H28.1363C28.3751 11.0948 28.5953 10.9656 28.7117 10.7572C28.8282 10.5487 28.8228 10.2936 28.6977 10.0902L23.0614 0.931113C22.9415 0.736172 22.7289 0.617432 22.5001 0.617432C22.2712 0.617432 22.0587 0.736172 21.9387 0.931113L16.3024 10.0901C16.1772 10.2935 16.1719 10.5486 16.2883 10.7571C16.4048 10.9656 16.6249 11.0948 16.8637 11.0948Z" fill="#B69D74"/>
<path d="M30.2501 16.0268H31.7045V17.4813C31.7045 17.8453 31.9996 18.1404 32.3637 18.1404C32.7277 18.1404 33.0228 17.8453 33.0228 17.4813V15.3677C33.0228 15.0036 32.7277 14.7085 32.3637 14.7085H31.4143L34.4773 9.60345L37.5403 14.7085H36.5909C36.2269 14.7085 35.9318 15.0036 35.9318 15.3677V19.5949C35.9318 19.959 36.2269 20.2541 36.5909 20.2541C36.955 20.2541 37.2501 19.959 37.2501 19.5949V16.0268H38.7045C38.942 16.0268 39.1611 15.8991 39.2781 15.6924C39.3952 15.4857 39.3919 15.2321 39.2698 15.0285L35.0425 7.9831C34.9234 7.78455 34.7088 7.66309 34.4773 7.66309C34.2458 7.66309 34.0311 7.78455 33.912 7.9831L29.6848 15.0285C29.5626 15.2321 29.5593 15.4858 29.6764 15.6924C29.7935 15.8991 30.0126 16.0268 30.2501 16.0268Z" fill="#B69D74"/>
<path d="M6.29548 16.0268H7.7499V19.5949C7.7499 19.959 8.04504 20.2541 8.40908 20.2541C8.77312 20.2541 9.06826 19.959 9.06826 19.5949V15.3677C9.06826 15.0036 8.77312 14.7085 8.40908 14.7085H7.45968L10.5227 9.60345L13.5857 14.7085H12.6364C12.2723 14.7085 11.9772 15.0036 11.9772 15.3677V17.4813C11.9772 17.8453 12.2723 18.1404 12.6364 18.1404C13.0004 18.1404 13.2955 17.8453 13.2955 17.4813V16.0268H14.7499C14.9874 16.0268 15.2065 15.8991 15.3235 15.6924C15.4406 15.4857 15.4373 15.2321 15.3152 15.0285L11.0879 7.9831C10.9688 7.78455 10.7542 7.66309 10.5227 7.66309C10.2912 7.66309 10.0765 7.78455 9.95745 7.9831L5.73017 15.0285C5.608 15.2321 5.60475 15.4858 5.72182 15.6924C5.83889 15.8991 6.058 16.0268 6.29548 16.0268Z" fill="#B69D74"/>
</svg>
