<svg width="154" height="92" viewBox="0 0 154 92" fill="none" xmlns="http://www.w3.org/2000/svg">
<path d="M-39.1073 22.9957C-38.2892 22.1967 -37.3138 21.5767 -36.2431 21.1752C-35.1723 20.7737 -34.0298 20.5994 -32.888 20.6634C-30.9087 20.6096 -28.9587 21.1513 -27.2907 22.2183C-26.7531 21.9006 -26.1917 21.6251 -25.6115 21.3942C-21.8954 19.9327 -15.6295 19.2019 -6.95361 19.2019C2.4686 19.2019 14.192 20.0726 26.615 20.9899C40.9038 22.0628 55.6591 23.1512 69.5903 23.1978C70.9214 22.2287 72.5154 21.6865 74.1614 21.643C75.6178 21.6574 77.0385 22.0949 78.2506 22.9024C82.5966 21.6052 87.0787 20.8173 91.6065 20.5546C92.2907 20.5546 92.9126 20.5546 93.4879 20.6323C93.5305 19.5537 93.9195 18.5175 94.5972 17.6774C95.275 16.8372 96.2054 16.2377 97.2505 15.9679C96.2111 15.4229 95.3471 14.595 94.7583 13.5798C94.1695 12.5645 93.88 11.4034 93.9232 10.2306C93.9004 8.98044 94.2294 7.74904 94.8727 6.67686C95.516 5.60469 96.4477 4.73492 97.5615 4.16679C97.5615 4.0424 97.6859 3.91801 97.7636 3.79363C98.9298 2.09887 101.822 -0.000136456 114.509 -0.000135347C127.196 -0.000134238 130.057 2.09888 131.177 3.93356C131.256 4.05112 131.324 4.17609 131.379 4.30672C132.494 4.87414 133.428 5.74331 134.074 6.81531C134.72 7.88731 135.052 9.1191 135.033 10.3705C135.074 11.545 134.783 12.7072 134.191 13.7226C133.599 14.738 132.732 15.565 131.69 16.1078C132.781 16.3923 133.746 17.0335 134.43 17.9294C135.115 18.8254 135.48 19.9246 135.468 21.0522C135.482 21.668 135.374 22.2805 135.149 22.8542C134.925 23.428 134.59 23.9517 134.162 24.395L134.162 36.8336C134.59 37.277 134.925 37.8006 135.149 38.3744C135.374 38.9481 135.482 39.5606 135.468 40.1765C135.479 41.3 135.112 42.3947 134.427 43.2854C133.742 44.1762 132.778 44.8114 131.69 45.0897C132.735 45.6336 133.603 46.4631 134.195 47.4815C134.787 48.4999 135.077 49.6655 135.033 50.8425C135.055 52.0924 134.724 53.3232 134.077 54.3932C133.431 55.4631 132.496 56.3289 131.379 56.8908C131.324 57.0265 131.256 57.1566 131.177 57.2795C130.088 59.0986 127.196 61.2132 114.509 61.2132C101.822 61.2132 98.9608 59.0986 97.8258 57.2795C97.8258 57.1551 97.6859 57.0152 97.6237 56.8908C96.5087 56.3282 95.5756 55.4618 94.9318 54.3917C94.2881 53.3215 93.96 52.0911 93.9854 50.8425C93.9392 49.6671 94.2273 48.5027 94.8162 47.4844C95.4052 46.4661 96.2708 45.6358 97.3127 45.0897C96.223 44.8103 95.2591 44.1721 94.5765 43.2779C93.8939 42.3838 93.5323 41.2857 93.5501 40.1609C93.5447 39.7951 93.5812 39.43 93.6589 39.0725C93.0525 39.0725 92.384 39.1503 91.6687 39.1503C87.1424 38.8843 82.6614 38.1018 78.3128 36.818C77.096 37.6136 75.6773 38.0451 74.2236 38.0619C72.5762 38.0263 70.9799 37.4833 69.6525 36.5071C55.6591 36.5071 40.966 37.6576 26.6772 38.7149C14.2386 39.6323 2.53079 40.5185 -6.89142 40.5185C-15.5518 40.5185 -21.8177 39.7722 -25.5493 38.3107C-26.1323 38.0861 -26.6942 37.8104 -27.2285 37.4866C-28.8965 38.5536 -30.8465 39.0952 -32.8259 39.0414C-33.9676 39.1055 -35.1102 38.9312 -36.1809 38.5297C-37.2516 38.1282 -38.227 37.5082 -39.0451 36.7092C-41.8905 36.5226 -45.0001 34.6413 -45.0001 29.8369C-45.0001 25.0325 -41.9682 23.1822 -39.1073 22.9957ZM129.062 54.9473C130.011 54.7359 130.86 54.2085 131.471 53.4515C132.081 52.6944 132.416 51.7526 132.421 50.7803C132.484 49.869 132.198 48.9678 131.62 48.2601C131.042 47.5524 130.217 47.0914 129.311 46.971C129.311 44.9653 127.756 44.872 127.756 44.872L115.955 44.872C115.955 44.872 119.842 42.9907 127.756 42.9907C131.659 42.9907 132.887 41.6846 132.887 40.0987C132.908 39.6655 132.794 39.2364 132.56 38.8713C132.326 38.5062 131.984 38.2232 131.581 38.0619L113.312 38.0619C113.312 38.0619 131.55 36.647 131.55 33.6618L131.55 27.4425C131.55 24.7371 113.312 23.0423 113.312 23.0423L131.55 23.0423C131.95 22.8819 132.29 22.6013 132.524 22.2393C132.758 21.8773 132.874 21.4517 132.856 21.0211C132.856 19.4662 131.628 18.1291 127.725 18.1291C119.811 18.1291 115.924 16.2477 115.924 16.2477L127.725 16.2478C127.725 16.2478 129.28 16.1545 129.28 14.1487C130.185 14.0283 131.011 13.5674 131.589 12.8597C132.167 12.152 132.453 11.2508 132.39 10.3394C132.373 9.38016 132.037 8.45384 131.434 7.70742C130.831 6.961 129.997 6.43722 129.062 6.21915C129.062 6.21915 130.959 2.64306 114.509 2.64306C112.861 2.64306 111.399 2.64306 110.124 2.73635C109.553 2.93513 109.033 3.2608 108.605 3.68894C108.177 4.11708 107.851 4.63659 107.652 5.20852C109.347 5.13078 111.368 5.08413 113.794 5.08413C126.232 5.08413 128.254 6.28135 128.254 6.28135L99.334 6.28134C99.334 6.28134 100.593 6.99656 106.984 7.32307C106.595 9.2367 106.595 11.2089 106.984 13.1226C108.787 13.0448 111.011 12.9826 113.732 12.9826C126.17 12.9826 128.191 14.1798 128.191 14.1798L99.2718 14.1798C99.2718 14.1798 100.64 14.9572 107.699 15.2527C107.933 15.9013 108.352 16.4668 108.905 16.8788C109.458 17.2907 110.12 17.5309 110.809 17.5693C110.809 17.5693 110.342 17.8337 109.876 19.4507L113.934 19.4507C128.176 19.4507 130.555 20.6479 130.555 20.6479L97.3438 20.6479C97.3438 20.6479 99.2096 21.5652 109.425 21.7985C109.057 24.3269 108.865 26.8777 108.85 29.4326C109.798 29.4326 110.886 29.4326 112.084 29.4326C121.552 29.4326 123.138 30.6299 123.138 30.6299L101.075 30.6299C101.075 30.6299 102.288 31.5472 108.85 31.7804C108.859 34.2427 108.999 36.7029 109.269 39.1503C110.653 39.1503 112.192 39.1503 113.934 39.1503C128.176 39.1503 130.555 40.3475 130.555 40.3475L97.3438 40.3475C97.3438 40.3475 99.2407 41.2959 109.689 41.4981C109.828 42.7358 110.22 43.9318 110.84 45.0119C110.438 45.0177 110.042 45.1079 109.678 45.2767C109.314 45.4454 108.989 45.689 108.725 45.9915C110.187 45.9915 111.835 45.9137 113.794 45.9137C126.232 45.9137 128.254 47.111 128.254 47.111L99.334 47.111C99.334 47.111 100.671 47.8728 107.512 48.1838C106.937 50.0506 106.809 52.0268 107.139 53.9522C108.927 53.8744 111.12 53.8122 113.794 53.8122C126.232 53.8122 128.254 55.0095 128.254 55.0095L99.334 55.0095C99.334 55.0095 100.687 55.7869 107.73 56.0823C107.912 56.6511 108.222 57.1702 108.637 57.5991C109.053 58.0279 109.562 58.3549 110.124 58.5544C111.415 58.5544 112.861 58.6477 114.509 58.6477C130.959 58.5389 129.062 54.9473 129.062 54.9473ZM74.2236 24.3639C72.8537 24.4257 71.5515 24.9775 70.5543 25.9187C43.8735 25.9187 13.1813 21.9073 -6.89142 21.9073C-26.9642 21.9073 -27.1041 25.9498 -27.1041 25.9498C-27.7463 25.0553 -28.6098 24.3428 -29.6101 23.8822C-30.6103 23.4216 -31.7131 23.2286 -32.8103 23.3222C-36.9306 23.3222 -37.8168 25.7011 -37.8168 25.7011C-38.0828 25.6466 -38.3538 25.6206 -38.6253 25.6233C-39.9469 25.6233 -42.4502 26.1364 -42.4502 29.9302C-42.4502 32.0914 -40.118 31.8426 -38.8119 31.485L-37.9101 26.4318L-36.9617 31.7649C-34.1277 32.8738 -30.9798 32.8738 -28.1458 31.7649L-27.1974 26.4318L-26.2489 31.7649C-24.4298 32.5267 -19.2833 33.9261 -5.86524 33.9261C11.3311 33.9261 62.407 31.6405 69.6525 31.2984L70.5232 26.4318L71.4561 31.6871C73.1898 32.3103 75.0864 32.3103 76.8202 31.6871L77.7531 26.4318L78.6238 31.3606C81.0182 31.6405 88.528 32.5423 91.7154 32.9154C91.7154 32.6978 91.7154 32.4645 91.7154 32.2469L79.8832 30.4899L91.6065 30.7231C91.4511 28.5775 91.3578 26.5407 91.2956 25.0014L86.6311 24.5194L91.2956 23.8975C91.2956 23.6798 91.2956 23.4932 91.2956 23.3222C86.7041 23.6921 82.1647 24.5469 77.7531 25.8721C76.8062 24.9462 75.5472 24.4082 74.2236 24.3639Z" fill="white" fill-opacity="0.1"/>
<path d="M53.047 31.0964C48.6935 31.3296 43.6248 31.5629 38.1829 31.765L29.8025 32.0449L21.1421 32.2781L12.4973 32.4336C9.63641 32.4336 6.82218 32.4336 4.10125 32.5113C-1.34063 32.5113 -6.42489 32.5113 -10.7939 32.3092C-15.163 32.1071 -18.7702 31.8894 -21.3045 31.6406C-22.5639 31.5162 -23.559 31.3763 -24.2276 31.2674C-24.8962 31.1586 -25.2538 31.0498 -25.2538 31.0498C-25.2538 31.0498 -24.8962 31.0498 -24.2276 31.1742C-23.559 31.2985 -22.5484 31.2519 -21.2734 31.2985C-18.7391 31.3918 -15.0542 31.2985 -10.7784 31.2985C-6.50264 31.2985 -1.35617 31.1275 4.07015 30.9876L21.1732 30.5522C26.9727 30.4434 32.7722 30.3035 38.2762 30.2413C43.7803 30.1791 48.7868 30.1169 53.1403 30.1013C57.4938 30.0858 61.1321 30.1013 63.6665 30.1013L67.6624 30.1013C67.6624 30.1013 66.2164 30.2257 63.682 30.3812C61.1477 30.5367 57.4005 30.8787 53.047 31.0964Z" fill="white" fill-opacity="0.1"/>
<path d="M74.1305 26.0898C73.9702 26.0745 73.8088 26.0745 73.6485 26.0898L73.182 26.0898C72.8866 26.0898 72.6067 26.0898 72.358 26.1831L71.736 26.323L71.5339 26.4319C71.7162 26.1751 71.949 25.9582 72.218 25.7944C72.3365 25.7036 72.4674 25.6303 72.6067 25.5767C72.7555 25.4764 72.9178 25.3979 73.0887 25.3435C73.4483 25.2467 73.8205 25.2048 74.1926 25.2191C74.5621 25.2331 74.928 25.2959 75.281 25.4057C75.5791 25.5044 75.8658 25.6347 76.1362 25.7944C76.4085 25.9466 76.6551 26.1407 76.8669 26.3697L75.9807 26.2609C75.421 26.1987 74.7679 26.1054 74.1305 26.0898Z" fill="white" fill-opacity="0.1"/>
<path d="M18.1725 24.5506L11.3624 24.3174C8.87471 24.2241 6.23151 24.1464 3.58832 24.0842C0.94512 24.022 -1.71363 23.9132 -4.18579 23.851L-10.9959 23.6644L-17.635 23.4778L-15.847 23.3223C-14.6808 23.3223 -13.0172 23.1824 -11.027 23.1513C-9.03683 23.1202 -6.70461 23.058 -4.21689 23.0736C-1.72918 23.0891 0.945114 23.0736 3.55721 23.1824C6.16931 23.2912 8.85915 23.4001 11.3313 23.54C13.8035 23.6799 16.1357 23.8665 18.1259 24.0375C20.1161 24.2086 21.7642 24.3952 22.9147 24.5195L24.7339 24.7372L22.8992 24.7372L18.1725 24.5506Z" fill="white" fill-opacity="0.1"/>
<path d="M124.74 51.3092L121.63 51.3092L118.521 51.3092C117.541 51.3092 116.624 51.2159 115.846 51.1693C115.069 51.1227 114.4 51.0449 113.95 51.0138L113.234 50.9361L113.95 50.8428C114.4 50.8428 115.069 50.7184 115.846 50.6873C116.624 50.6562 117.541 50.5629 118.521 50.5474L121.63 50.5474L124.74 50.5474C125.72 50.5474 126.637 50.6562 127.414 50.6873C128.192 50.7184 128.86 50.8117 129.311 50.8428L130.042 50.9361L129.311 51.0138C128.86 51.0138 128.207 51.1382 127.414 51.1693C126.621 51.2004 125.72 51.3092 124.74 51.3092Z" fill="white" fill-opacity="0.1"/>
<path d="M124.74 10.8838L121.63 10.8838L118.521 10.8838C117.541 10.8838 116.624 10.7905 115.846 10.7594C115.069 10.7284 114.4 10.6351 113.95 10.604L113.234 10.5107L113.95 10.5107C114.4 10.5107 115.069 10.3863 115.846 10.3396C116.624 10.293 117.541 10.2308 118.521 10.2153L121.63 10.2153L124.74 10.2153C125.72 10.2153 126.637 10.3086 127.414 10.3396C128.192 10.3707 128.86 10.464 129.311 10.5107L130.042 10.5107L129.311 10.5107C128.86 10.5107 128.207 10.6351 127.414 10.6817C126.621 10.7284 125.72 10.8838 124.74 10.8838Z" fill="white" fill-opacity="0.1"/>
<path d="M84.5633 69.516C85.2377 68.6194 86.1079 67.8886 87.1076 67.3794C88.1072 66.8701 89.21 66.5958 90.3317 66.5774L139.402 66.5774C140.524 66.5958 141.626 66.8701 142.626 67.3794C143.626 67.8886 144.496 68.6194 145.17 69.516C151.623 70.962 153.939 82.2811 153.939 85.3285C153.939 91.7344 145.854 91.7344 143.196 91.7344L86.5379 91.7344C83.8792 91.7344 75.7941 91.7344 75.7941 85.3596C75.7941 82.2811 78.1108 70.962 84.5633 69.516ZM151.421 83.2295C151.327 82.5454 151.187 81.8457 151.032 81.1616C150.713 79.793 150.287 78.4517 149.757 77.1501C149.241 75.8197 148.522 74.5768 147.627 73.4652C147.397 73.1835 147.142 72.9233 146.865 72.6878C146.596 72.4359 146.299 72.2167 145.979 72.0348C145.649 71.8199 145.294 71.6475 144.921 71.5217C144.622 71.4394 144.314 71.3873 144.004 71.3662C143.37 70.2506 142.394 69.3678 141.221 68.8474C140.9 68.7195 140.567 68.6257 140.226 68.5675C139.898 68.5064 139.565 68.4752 139.231 68.4742L137.365 68.4742C134.862 68.4742 132.359 68.4742 129.855 68.4742L114.867 68.4742L99.8783 68.4742C97.375 68.4742 94.8718 68.4742 92.3685 68.4742L90.5027 68.4742C89.821 68.4798 89.1463 68.6116 88.5126 68.8629C87.3388 69.3687 86.3656 70.2489 85.745 71.3662C85.4305 71.3943 85.1187 71.4463 84.8121 71.5217C84.4538 71.6387 84.1096 71.7951 83.7859 71.9881C83.4658 72.1701 83.1683 72.3893 82.8997 72.6412C82.6227 72.8767 82.3677 73.1369 82.1378 73.4186C81.6443 73.974 81.2165 74.5844 80.8628 75.2377C80.5134 75.8533 80.2069 76.4923 79.9455 77.1501C79.4133 78.4561 78.987 79.8028 78.6705 81.1771C78.5151 81.8457 78.3751 82.5454 78.2818 83.2295C78.1759 83.9241 78.124 84.6259 78.1264 85.3285C78.2455 83.9374 78.506 82.5621 78.9038 81.2238C79.2782 79.8876 79.7565 78.5828 80.3342 77.3212C80.8978 76.0726 81.6359 74.9104 82.5265 73.8695C82.7546 73.6206 82.9987 73.3869 83.2573 73.1698C83.5037 72.952 83.7751 72.7641 84.0658 72.6101C84.3443 72.4526 84.6422 72.3323 84.952 72.2525C85.2549 72.1639 85.5694 72.122 85.8849 72.1281L86.1026 72.1281L86.2114 71.9259C86.7858 70.9144 87.684 70.1257 88.7613 69.687C89.2579 69.5 89.7857 69.4102 90.3162 69.4227C89.9532 69.6975 89.6619 70.0558 89.467 70.4673C89.2722 70.8787 89.1794 71.3311 89.1967 71.786L142.791 71.786C142.791 71.786 97.7016 73.7451 85.5273 76.3261L144.284 77.741L83.4749 79.187C83.2046 80.2405 83.043 81.3189 82.9929 82.4054L147.285 83.9603L83.2884 85.4218C83.2884 85.4218 83.2884 85.4218 83.2884 85.5151C94.0633 87.7385 116.857 88.1116 150.006 88.1116C150.494 87.8416 150.898 87.4414 151.173 86.9556C151.447 86.4697 151.581 85.9173 151.561 85.3596C151.568 85.2198 151.568 85.0796 151.561 84.9398C151.536 84.3669 151.479 83.7959 151.39 83.2295L151.421 83.2295Z" fill="white" fill-opacity="0.1"/>
</svg>
