<svg width="102" height="118" viewBox="0 0 102 118" fill="none" xmlns="http://www.w3.org/2000/svg">
<path d="M200.726 -42.448L181.135 -47.9287L181 -47.8351L188.831 -42.4633L176.503 -45.2067C170.694 -41.4986 164.686 -36.6874 156.857 -31.2414L167.765 -25.5134L154.097 -29.322C147.178 -24.6496 139.972 -20.4157 132.522 -16.6453L141.207 -10.6687L129.233 -15.0566C128.964 -14.8693 128.695 -14.6821 128.426 -14.4948L130.368 -12.5166L125.063 -12.8212C116.707 -8.36514 108.905 -2.9388 101.821 3.34528L120.184 14.2401L99.1471 5.77088C96.4442 8.25013 93.7793 10.7362 90.6327 13.391L97.5926 18.0371L88.0946 15.3894C84.7793 18.0607 81.3293 20.5604 77.7583 22.8787L86.3363 29.9945L74.2614 25.078C63.6902 32.1021 53.9852 40.3498 45.3482 49.6499L53.1714 55.3933L43.4013 51.6367C39.9493 55.3361 36.665 59.0852 33.6451 62.7837L40.5445 68.9698L30.5842 66.7103C26.3644 72.0281 22.4448 77.5773 18.8437 83.332C21.9746 84.4831 24.3594 85.0879 24.3594 85.0879C24.3594 85.0879 21.5698 85.0975 17.9327 84.7979C16.9494 86.4472 16.1076 87.9648 15.414 89.3128C7.67466 104.316 1.47294 110.428 0.772428 114.111C0.0719198 117.794 12.0282 114.404 21.8578 116.954C27.71 118.476 32.2241 115.203 40.6828 110.518L52.2327 81.1791L45.7666 107.681C51.75 104.593 57.9799 102.007 64.3917 99.9517C66.8096 99.1686 68.9321 98.3914 70.8643 97.58C71.239 95.8214 71.6409 93.9107 71.9375 92.0399C73.3122 84.4926 74.2217 76.8028 74.2217 76.8028C74.2217 76.8028 74.866 84.4771 74.9817 92.2527L74.9717 95.5885C79.5437 93.2548 83.7243 90.2234 87.3633 86.6031L90.6638 71.3914L90.1764 83.9473C91.6268 82.5389 93.129 81.0613 94.8038 79.4969L96.9442 70.4183L96.6512 77.8457C102.629 72.7024 109.159 68.2385 116.121 64.5358C117.337 63.8902 118.521 63.1997 119.503 62.6497L123.289 46.7006L122.703 60.7898C124.479 59.754 126.052 58.7602 127.362 57.9156L133.974 31.9116L132.378 54.3597C142.727 46.3622 140 42.6332 153.566 30.5013C156.068 28.261 158.479 26.3182 160.877 24.55L163.544 10.2454L164.714 21.8816C172.54 16.6706 180.104 13.1401 188.333 8.31542L191.771 -6.45931L191.959 6.15907C196.773 3.19228 201.383 -0.0923462 205.759 -3.67292L210.462 -25.0528L210.039 -7.28254C225.911 -21.2188 218.345 -20.8495 227.216 -39.2035C235.013 -44.793 242.469 -50.3454 249.351 -55.7651C254.084 -59.4898 254.635 -64.2008 252.747 -66.9154C252.325 -67.5346 251.767 -68.0496 251.116 -68.4215C250.465 -68.7935 249.738 -69.0126 248.99 -69.0624C248.654 -69.0818 248.317 -69.07 247.983 -69.0273C247.405 -69.1127 246.816 -68.9967 246.314 -68.6987C246.09 -68.5927 245.885 -68.4503 245.708 -68.2774C244.974 -67.8229 244.306 -67.2688 243.724 -66.6311C237.248 -61.1627 230.501 -56.0247 223.507 -51.2369C214.295 -53.2769 204.803 -53.7329 195.439 -52.5853C192.302 -52.1801 189.227 -51.3938 186.282 -50.2439L200.726 -42.448ZM34.2226 97.4015C33.8607 97.8863 33.3525 98.6392 32.6941 99.4634C32.0357 100.288 31.3119 101.257 30.3999 102.291C29.4879 103.325 28.5466 104.412 27.7106 105.46L24.8897 108.487C23.9845 109.483 23.0686 110.32 22.3409 111.092C21.6133 111.865 20.9041 112.424 20.473 112.857C20.0419 113.291 19.6654 113.419 19.6654 113.419L20.2253 112.597C20.6096 112.097 21.111 111.382 21.7694 110.558C22.4278 109.733 23.3057 108.89 24.1104 107.797L26.8153 104.651C27.7498 103.602 28.6998 102.575 29.6206 101.601C30.5414 100.628 31.4417 99.7686 32.1694 98.9961C32.8971 98.2237 33.6062 97.6639 34.0373 97.2308L34.845 96.6691L34.2226 97.4015ZM147.164 -14.9786L147.698 -14.7844C148.16 -14.6345 148.614 -14.4613 149.058 -14.2655C149.601 -14.0109 150.265 -13.7738 150.925 -13.4002L152.985 -12.3038L154.981 -11.0621C155.595 -10.6572 156.149 -10.2437 156.634 -9.88177C157.119 -9.51988 157.49 -9.17848 157.767 -8.97169L158.079 -8.523L157.537 -8.67909C157.209 -8.81663 156.728 -8.9815 156.185 -9.2361C155.641 -9.4907 154.977 -9.72775 154.333 -10.0789L152.272 -11.1753L150.277 -12.4171C149.64 -12.8063 149.093 -13.2579 148.624 -13.5974C148.219 -13.8799 147.835 -14.1916 147.476 -14.5299L147.164 -14.9786ZM128.597 7.6227L125.515 5.87175L122.492 4.01351C121.517 3.42629 120.671 2.78348 119.918 2.27527C119.165 1.76706 118.564 1.28617 118.148 0.975982L117.478 0.443397L118.266 0.761412C118.733 1.00235 119.451 1.26866 120.255 1.70762C121.06 2.14658 122.03 2.53678 123.027 3.10839L126.116 4.82131L129.133 6.71759C130.107 7.30481 130.938 7.92519 131.691 8.4334C132.444 8.9416 133.045 9.42249 133.46 9.73268L134.13 10.2653L133.366 9.93165C132.876 9.70631 132.158 9.44 131.369 9.02347C130.58 8.60695 129.646 8.12507 128.597 7.6227V7.6227ZM98.3317 41.2577C70.008 58.8285 14.6817 104.436 14.6817 104.436L17.05 102.289C18.6146 100.901 20.8863 98.8551 23.7843 96.2735C26.6822 93.6918 30.2757 90.6264 34.3675 87.0811C38.4594 83.5359 43.1589 79.6678 48.2984 75.4272C50.8725 73.3371 53.5276 71.1241 56.3416 68.9004C59.1557 66.6767 62.0283 64.3457 64.9408 62.1201C66.5112 61.0278 67.9724 59.7784 69.5252 58.5651C71.0781 57.3518 72.7334 56.3336 74.2618 55.0375C77.4436 52.6246 80.8517 50.1541 84.1183 47.8154C87.3849 45.4766 90.9832 43.0403 94.483 40.606C96.2328 39.3888 97.9827 38.1716 99.8487 37.0735C101.715 35.9753 103.449 34.7357 105.268 33.5702C108.975 31.291 112.773 28.9493 116.527 26.7374C120.281 24.5254 124.17 22.2199 127.999 19.9231C135.586 15.2778 143.112 10.5427 150.478 5.81844C157.844 1.09413 165.043 -3.67993 171.979 -8.30477C178.915 -12.9296 185.533 -17.533 191.799 -21.9248C198.065 -26.3165 204.003 -30.4138 209.337 -34.4232C220.144 -42.2402 228.956 -49.002 235.053 -53.8756C238.099 -56.2934 240.417 -58.2723 241.982 -59.6602C242.761 -60.3105 243.497 -61.0113 244.184 -61.7581L244.356 -61.5113C244.981 -60.7099 245.684 -59.9721 246.454 -59.3088C246.765 -59.0674 247.125 -58.8962 247.509 -58.8069C247.893 -58.7177 248.291 -58.7125 248.678 -58.7917C248.951 -58.8619 249.19 -59.0281 249.351 -59.2599C249.119 -59.1955 248.875 -59.1985 248.645 -59.2687C248.383 -59.3393 248.138 -59.4635 247.926 -59.6335V-59.6335C248.284 -59.7088 248.623 -59.8554 248.924 -60.0645C249.225 -60.2736 249.48 -60.5409 249.675 -60.8507C250.505 -62.381 250.846 -64.1284 250.653 -65.8582L250.545 -66.3488L250.904 -65.8328C252.214 -63.9483 251.89 -60.3941 247.99 -57.1483C201.258 -20.4817 126.655 23.6869 98.3317 41.2577ZM243.828 -63.2748C243.92 -62.7398 244.1 -62.2235 244.359 -61.7464C244.067 -61.5435 243.331 -60.8315 241.993 -59.8348C240.288 -58.6488 237.798 -56.9167 234.612 -54.7008C228.219 -50.2535 218.986 -44.0974 207.888 -36.7447C202.305 -33.0942 196.296 -29.1472 189.889 -24.9573C187.646 -23.3968 185.181 -21.9154 182.779 -20.3442C212.037 -40.4957 237.414 -58.7133 243.766 -64.1302C243.737 -63.8758 243.737 -63.619 243.766 -63.3645L243.828 -63.2748ZM95.7294 22.7285L93.1594 21.1873C92.3616 20.7103 91.6535 20.1708 91.039 19.766L89.5624 18.696L89.0152 18.2444L89.6795 18.4814C90.0842 18.6326 90.6724 18.856 91.3609 19.176C92.0495 19.4959 92.8523 19.8364 93.6793 20.2597L96.3391 21.7385L98.9091 23.2797C99.7226 23.7792 100.415 24.2961 101.045 24.7234C101.675 25.1506 102.153 25.5506 102.522 25.7935L103.053 26.2226L102.389 25.9856C102.007 25.8188 101.396 25.611 100.708 25.291C100.019 24.9711 99.2319 24.6531 98.3892 24.2073L95.7294 22.7285ZM66.1838 35.6233L65.4621 35.1599L66.2785 35.4243C66.7974 35.596 67.5445 35.8087 68.4077 36.1403C69.2708 36.472 70.3242 36.8378 71.4488 37.3539L74.805 38.781L78.0578 40.3466C79.1062 40.849 80.0494 41.3914 80.8297 41.7474C81.61 42.1035 82.3093 42.5824 82.7696 42.8614L83.5138 43.3091L82.6906 43.0828C82.1717 42.9111 81.4246 42.6984 80.5458 42.3443C79.667 41.9902 78.6449 41.6693 77.5047 41.1308L74.1709 39.6881L70.8801 38.1156C69.8472 37.6357 68.8885 37.0709 68.1082 36.7148C67.3279 36.3588 66.5818 35.8125 66.1214 35.5335L66.1838 35.6233ZM68.1619 53.2551C67.766 53.1644 67.211 53.0844 66.5555 52.9078C65.9001 52.7312 65.1081 52.5498 64.3142 52.2698L61.7958 51.425L59.2999 50.5646C58.5128 50.2466 57.8154 49.8662 57.1961 49.5979L55.7252 48.8234L55.1956 48.4927L55.8267 48.5864C56.2003 48.6927 56.7777 48.7571 57.4331 48.9337C58.0886 49.1103 58.8581 49.3073 59.6745 49.5717L62.1928 50.4165L64.6614 51.4291C65.4486 51.7471 66.1684 52.1119 66.7653 52.3958C67.3622 52.6796 67.8762 52.9879 68.2361 53.1703L68.8037 53.5078L68.1619 53.2551ZM58.7487 89.0634C58.578 90.0144 58.3224 90.8912 58.1478 91.6452C57.9731 92.3991 57.7654 93.0097 57.6454 93.4593L57.4083 94.1235L57.4171 93.4184C57.4386 92.9707 57.4182 92.3191 57.4787 91.5447C57.5392 90.7702 57.589 89.8368 57.7217 88.879L58.1247 85.869L58.6798 82.8864C58.8506 81.9354 59.1061 81.0586 59.2808 80.3046C59.4554 79.5506 59.6856 78.9245 59.8056 78.4748L60.0271 77.7882L60.0339 78.5158C60.0124 78.9635 60.0104 79.6307 59.9499 80.4051C59.8894 81.1795 59.8464 82.0749 59.7293 83.0552L59.3263 86.0651L58.7487 89.0634ZM79.4163 81.1123L79.2464 84.0267L79.1625 85.1503L78.9889 84.0393C78.9372 83.3429 78.7881 82.3149 78.7491 81.1103C78.7102 79.9057 78.681 78.428 78.6986 77.0176C78.7162 75.6073 78.7085 73.6819 78.8832 72.1623C79.0579 70.6427 79.2823 68.9553 79.533 67.4493C79.7759 66.1093 80.0862 64.7825 80.4628 63.4738C80.735 62.2858 81.0647 61.3241 81.2637 60.653L81.6139 59.5772L81.4919 60.694L81.1251 63.6123C80.9514 64.7983 80.8352 66.2107 80.645 67.7078C80.4547 69.205 80.3044 70.8076 80.1765 72.3945C80.0487 73.9814 79.8535 75.6151 79.7618 77.1104L79.4163 81.1123ZM202.523 -15.9354C202.477 -15.5706 202.442 -15.0469 202.332 -14.4383C202.223 -13.8296 202.131 -13.1001 201.957 -12.3461L201.397 -9.99256L200.629 -7.79413C200.416 -7.04701 200.119 -6.37402 199.896 -5.78588C199.72 -5.31409 199.519 -4.85208 199.294 -4.40186L199.046 -3.89663L199.072 -4.48087L199.24 -5.96245C199.372 -6.58668 199.441 -7.30065 199.616 -8.0546L200.176 -10.4081C200.418 -11.2089 200.637 -11.9941 200.888 -12.7344C201.139 -13.4747 201.376 -14.1389 201.599 -14.727C201.822 -15.3151 202.063 -15.7823 202.201 -16.111L202.471 -16.6319L202.523 -15.9354ZM186.305 -7.61735C186.268 -7.19209 186.279 -6.60103 186.172 -5.89389C186.065 -5.18675 186.042 -4.40548 185.87 -3.55302L185.407 -0.867841L184.77 1.80561C184.559 2.65125 184.286 3.40715 184.103 4.10062C183.919 4.7941 183.672 5.29933 183.543 5.6885L183.297 6.29223L183.315 5.64752C183.352 5.22226 183.356 4.65362 183.441 3.96208C183.525 3.27055 183.577 2.43563 183.75 1.58317L184.212 -1.102L184.843 -3.73741C185.038 -4.60548 185.333 -5.37698 185.51 -6.03242C185.686 -6.68786 185.948 -7.26917 186.077 -7.65834L186.3 -8.24648L186.305 -7.61735ZM143.457 20.7549C143.364 21.3859 143.276 22.3125 143.062 23.3932C142.848 24.4739 142.67 25.7965 142.379 27.1971L141.485 31.4146L140.353 35.5306C140.009 36.9019 139.615 38.1075 139.303 39.1901C138.991 40.2728 138.697 41.1428 138.49 41.7534L138.137 42.7307L138.261 41.7124C138.355 41.0813 138.465 40.1391 138.641 39.0516C138.817 37.9641 139.033 36.6483 139.324 35.2477L140.225 30.9922L141.357 26.8762C141.717 25.5273 142.117 24.2837 142.407 23.2167C142.696 22.1496 143.051 21.2708 143.22 20.6534L143.572 19.6761L143.457 20.7549ZM117.293 38.6545C117.235 39.1939 117.251 39.982 117.125 40.9017C116.999 41.8215 116.938 42.9295 116.749 44.0931L116.245 47.7722L115.453 51.419C115.248 52.5602 114.943 53.6048 114.718 54.5265C114.494 55.4482 114.259 56.211 114.125 56.7367L113.987 57.399L114.023 56.5416C114.065 55.9798 114.087 55.1985 114.175 54.2719C114.263 53.3453 114.385 52.2285 114.552 51.0805L115.055 47.4015L115.832 43.7322C116.059 42.5754 116.364 41.5308 116.566 40.6247C116.768 39.7186 117.041 38.9627 117.175 38.437L117.439 37.6206L117.293 38.6545ZM182.992 -25.2532L183.743 -24.8435L182.898 -25.0542C182.372 -25.1879 181.618 -25.3625 180.726 -25.6405C179.833 -25.9186 178.804 -26.2015 177.72 -26.6122L174.307 -27.8335L170.944 -29.2226C169.882 -29.6489 168.909 -30.1376 168.06 -30.5454C167.21 -30.9531 166.529 -31.3111 166.023 -31.5589L165.295 -31.9842L166.118 -31.7578C166.644 -31.6242 167.42 -31.4652 168.29 -31.1715C169.16 -30.8779 170.211 -30.6106 171.318 -30.2155L174.709 -28.9786L178.065 -27.5514C179.15 -27.1407 180.1 -26.6364 180.972 -26.2443C181.843 -25.8521 182.465 -25.4854 182.992 -25.2532ZM190.198 -33.1279C190.605 -32.8782 190.913 -32.6266 191.159 -32.4646L191.408 -32.1057L190.952 -32.1877C190.567 -32.2333 190.187 -32.3147 189.817 -32.4306C189.352 -32.573 188.804 -32.6911 188.232 -32.892L186.505 -33.5554L184.829 -34.3865C184.285 -34.6411 183.832 -34.9581 183.403 -35.1922L182.442 -35.8555L182.192 -36.2144L182.649 -36.1325C183.032 -36.0769 183.411 -35.9958 183.783 -35.8896C184.248 -35.7471 184.796 -35.6291 185.347 -35.4125L187.095 -34.7648L188.772 -33.9337C189.293 -33.6635 189.668 -33.4586 190.175 -33.1124L190.198 -33.1279Z" fill="white" fill-opacity="0.1"/>
</svg>
