<svg width="238" height="304" viewBox="0 0 238 304" fill="none" xmlns="http://www.w3.org/2000/svg">
<path d="M285.583 218.826C285.606 218.566 285.606 218.305 285.583 218.045C285.583 217.131 285.22 216.255 284.574 215.609C283.928 214.963 283.052 214.6 282.138 214.6L236.921 105.222V77.6649L238.988 77.2285C241.991 76.6095 244.695 74.9903 246.658 72.6357C247.27 71.7859 247.524 70.7298 247.365 69.6948C247.206 68.6598 246.647 67.7285 245.809 67.1013C243.464 65.5882 240.693 64.8715 237.909 65.0575H237.151C233.155 65.1723 186.63 71.3727 158.705 75.3455V71.6712C158.582 68.8851 157.795 66.1687 156.409 63.7486C156.935 63.0553 157.218 62.2077 157.213 61.3373C157.236 59.7051 156.646 58.1236 155.559 56.9052C155.996 53.0932 156.776 45.6069 156.776 40.4629C156.735 36.385 156.451 32.3131 155.927 28.2689C156.738 27.0633 157.199 25.6563 157.259 24.2042C157.304 23.626 157.218 23.045 157.006 22.5049C157.144 22.0901 157.213 21.6559 157.213 21.2189C157.267 19.8691 156.898 18.5363 156.156 17.4068C157.002 16.5202 157.664 15.4757 158.105 14.333C158.546 13.1903 158.758 11.9718 158.728 10.7472C158.705 4.31727 153.86 0 146.489 0C139.117 0 134.295 4.31727 134.295 10.7472C134.265 11.9718 134.477 13.1903 134.918 14.333C135.359 15.4757 136.021 16.5202 136.867 17.4068C136.071 18.5418 135.66 19.9021 135.695 21.2878C135.695 21.7248 135.764 22.159 135.902 22.5738C135.69 23.1138 135.604 23.6949 135.649 24.2731C135.709 25.7252 136.17 27.1322 136.981 28.3378C136.457 32.382 136.173 36.4539 136.132 40.5318C136.132 45.6758 136.912 53.1621 137.349 56.9741C136.262 58.1925 135.672 59.774 135.695 61.4062C135.694 62.2724 135.967 63.1167 136.476 63.8175C135.101 66.2421 134.314 68.9558 134.18 71.7401V79.0886C106.898 83.4748 57.4105 91.8567 53.5065 93.0049C50.5025 93.6206 47.7975 95.2403 45.8365 97.5978C45.2267 98.4504 44.972 99.5067 45.1263 100.544C45.2805 101.58 45.8316 102.517 46.6632 103.155C49.0198 104.661 51.7949 105.377 54.5859 105.199H54.8844V132.113L9.5531 241.491C8.6496 241.497 7.78518 241.861 7.14845 242.502C6.51172 243.143 6.15438 244.009 6.1544 244.913C6.1516 245.232 6.19808 245.55 6.29219 245.855C3.0772 246.337 0 247.554 0 251.09C0 255.683 2.29642 257.337 7.53225 261.241C14.1919 266.086 27.4881 268.13 53.4606 268.13C79.4331 268.13 92.6834 266.155 99.389 261.241C104.763 257.337 106.944 255.568 106.944 251.09C106.944 246.612 101.961 245.855 98.0341 245.579C98.0578 245.358 98.0578 245.134 98.0341 244.913C98.0357 244.046 97.7061 243.212 97.1128 242.58C96.5194 241.948 95.7072 241.567 94.8421 241.514L57.5712 132.159V104.9C68.0888 103.798 109.08 98.3097 134.295 94.7272V103.339C133.351 103.495 132.493 103.98 131.872 104.706C131.25 105.433 130.905 106.355 130.896 107.312V110.71C130.904 111.78 131.333 112.803 132.09 113.558L132.572 114.04V252.193C131.927 252.647 131.397 253.247 131.027 253.944C130.656 254.641 130.455 255.416 130.439 256.205C130.424 256.994 130.594 257.776 130.937 258.488C131.279 259.199 131.785 259.819 132.411 260.299C131.585 268.474 127.313 270.817 123.501 272.906C121.332 273.873 119.449 275.384 118.036 277.293C116.6 277.788 115.354 278.716 114.47 279.951C113.585 281.185 113.106 282.663 113.099 284.182C113.132 284.595 113.04 285.009 112.835 285.369C112.631 285.729 112.322 286.02 111.95 286.203C110.609 286.302 109.346 286.877 108.391 287.824C107.435 288.771 106.849 290.029 106.738 291.37C106.513 292.89 106.42 294.426 106.462 295.962C106.462 303.196 116.957 303.196 122.009 303.196H171.106C176.158 303.196 186.653 303.196 186.653 295.962C186.694 294.426 186.602 292.89 186.377 291.37C186.262 290.03 185.674 288.776 184.719 287.829C183.764 286.883 182.505 286.306 181.164 286.203C180.792 286.02 180.484 285.729 180.279 285.369C180.075 285.009 179.983 284.595 180.016 284.182C180.009 282.663 179.53 281.185 178.645 279.951C177.761 278.716 176.514 277.788 175.079 277.293C173.666 275.384 171.783 273.873 169.613 272.906C165.801 270.817 161.507 268.474 160.703 260.299C161.33 259.819 161.836 259.199 162.178 258.488C162.521 257.776 162.691 256.994 162.676 256.205C162.66 255.416 162.459 254.641 162.088 253.944C161.718 253.247 161.188 252.647 160.543 252.193V114.04L161.025 113.558C161.776 112.8 162.197 111.777 162.196 110.71V107.312C162.189 106.341 161.832 105.405 161.191 104.675C160.55 103.946 159.668 103.471 158.705 103.339V91.03C181.968 87.2639 220.456 80.7421 234.235 78.0782V105.176L196.987 214.623C196.104 214.688 195.28 215.093 194.689 215.752C194.098 216.412 193.786 217.275 193.818 218.16C193.784 218.411 193.784 218.666 193.818 218.918C190.12 219.262 186.056 220.249 186.056 224.337C186.056 228.93 188.352 230.583 193.611 234.487C200.271 239.31 213.567 241.377 239.539 241.377C265.512 241.377 278.762 239.402 285.468 234.487C290.818 230.583 293 228.815 293 224.337C293 220.249 289.165 219.216 285.583 218.826ZM110.389 295.939C110.353 294.674 110.414 293.407 110.573 292.15C128.372 294.544 146.366 295.152 164.286 293.964C164.748 295.645 164.904 297.396 164.745 299.131H121.894C116.268 299.131 110.389 298.534 110.389 295.939ZM134.823 110.71V107.312H152.092V110.228H151.678L145.088 110.435L135.489 110.733L145.088 111.124L151.678 111.353L151.035 112.364H136.499L134.823 110.71ZM54.5629 96.9318C58.1683 95.9444 106.462 87.7461 134.295 83.1533V87.2639L129.288 88.0217L112.8 90.5937L105.314 91.8567L98.2408 92.7983L84.623 94.5895L64.2997 97.3222C61.8196 97.6437 59.8906 97.9652 58.5587 98.1259L56.5378 98.4245H58.5816C59.9136 98.4245 61.8885 98.4245 64.3686 98.4245H68.5022L63.1056 99.4808L57.3416 100.629L55.114 101.042H54.494C52.5911 101.197 50.6858 100.773 49.0285 99.8253C50.5113 98.2786 52.4511 97.2483 54.5629 96.8859V96.9318ZM138.313 71.7401C138.433 69.5159 139.079 67.3517 140.196 65.425C142.102 65.7465 144.651 65.9531 147.086 66.1139C147.075 66.2208 147.075 66.3285 147.086 66.4354C147.273 67.8204 147.357 69.2174 147.338 70.6149C147.338 71.4875 147.338 72.429 147.154 73.4395C146.971 74.4499 147.154 75.5062 146.971 76.6085C146.971 78.9049 146.833 81.2013 146.81 83.4978C146.81 84.6689 146.81 85.7942 146.81 87.0113C146.81 88.2284 146.81 89.3077 146.81 90.387C146.81 92.6834 146.994 94.6354 147.109 96.3807C147.361 99.8942 147.729 102.237 147.729 102.237C147.729 102.237 148.073 99.9401 148.326 96.3807C148.326 94.6354 148.578 92.5916 148.624 90.387C148.624 89.2847 148.624 88.1595 148.624 87.0113C148.624 85.8401 148.624 84.7149 148.624 83.4978C148.624 78.9049 148.372 74.1513 148.05 70.6149C147.911 69.1793 147.618 67.7627 147.177 66.3895V66.1598H149.152C149.707 67.7091 150.009 69.3372 150.048 70.9823V104.395H138.313V71.7401ZM138.313 8.49675C138.434 7.92818 138.652 7.38451 138.956 6.88925C139.63 5.67704 140.689 4.72368 141.965 4.17948C142.691 3.83501 143.465 3.60272 144.261 3.49056C145.018 3.34839 145.787 3.27156 146.557 3.26091C148.136 3.23598 149.702 3.54918 151.15 4.17948C152.384 4.74319 153.4 5.69474 154.044 6.88925C154.307 7.36202 154.493 7.87364 154.595 8.40489C154.68 8.80521 154.726 9.2128 154.733 9.62199C154.762 9.87375 154.762 10.1281 154.733 10.3798V10.6554V10.4028C154.708 10.1468 154.662 9.89326 154.595 9.64496C154.514 9.27237 154.391 8.91025 154.227 8.56564C154.043 8.11677 153.804 7.69251 153.516 7.30261C152.791 6.36332 151.81 5.65356 150.691 5.2588C150.088 5.03905 149.465 4.87757 148.831 4.77655C151.747 7.07297 153.194 13.2733 148.188 16.0749H141.023C140.059 14.5134 138.313 13.7785 138.313 10.6554V10.4717C138.287 10.2197 138.287 9.96579 138.313 9.71385C138.306 9.30618 138.337 8.89872 138.405 8.49675H138.313ZM237.909 69.1452C239.809 68.9973 241.71 69.4126 243.374 70.3393C241.912 71.8804 239.998 72.9176 237.909 73.3017L235.842 73.5543L230.009 74.1743L224.544 74.7714L228.494 73.4854C230.79 72.7505 232.742 72.1305 234.005 71.7171L235.934 71.0741L233.913 71.3956C232.604 71.6253 230.675 71.9009 228.218 72.3372C223.304 73.1409 216.3 74.3351 207.918 75.8048C203.715 76.5166 199.168 77.2745 194.369 78.1012L187.48 79.2953C184.999 79.6168 182.473 79.9843 179.901 80.3517C174.551 81.1325 169.016 81.9132 163.413 82.7859L158.82 83.4978V79.3642C186.928 75.3684 233.729 69.1451 237.404 69.0303L237.909 69.1452ZM148.349 19.1062L147.2 22.0686L144.904 22.2982L141.436 22.6427L144.904 23.0101L147.2 23.2398L148.762 26.5925H141.299C139.829 26.5925 139.668 24.0205 139.668 24.0205L141.069 22.6197L139.714 21.2878C139.656 20.833 139.751 20.3719 139.984 19.977C140.217 19.582 140.574 19.2757 141 19.1062H148.349ZM153.86 33.8033C154.385 36.8355 154.6 39.9132 154.503 42.9889C154.377 46.0302 154.055 49.0601 153.539 52.0598C153.332 53.2999 153.102 54.3562 152.964 55.0222C152.827 55.6881 152.689 56.1245 152.689 56.1245V54.9763C152.689 54.2644 152.689 53.231 152.689 51.9909C152.689 50.7508 152.689 49.3041 152.873 47.7655C153.056 46.2269 153.033 44.5735 153.079 42.943C153.217 39.6821 153.079 36.4212 153.079 33.9411C153.079 32.9077 153.079 32.035 153.079 31.3461H153.424C153.401 31.9661 153.584 32.7929 153.86 33.8033ZM139.829 61.3603C139.812 60.788 139.993 60.2274 140.34 59.7719C140.686 59.3164 141.179 58.9935 141.735 58.8572H147.843C148.342 59.6504 148.764 60.4884 149.106 61.3603H139.921H139.829ZM151.564 19.0373C151.493 18.9837 151.437 18.9125 151.403 18.8306C151.386 18.7946 151.378 18.7554 151.378 18.7158C151.378 18.6762 151.386 18.637 151.403 18.601C151.541 18.8766 151.885 18.8077 152.184 18.8995C152.527 18.9712 152.849 19.1205 153.125 19.3358C153.41 19.5814 153.624 19.8985 153.745 20.2544C153.887 20.5811 153.965 20.9319 153.975 21.2878V21.4715L153.768 21.7012C153.493 22.0226 153.194 22.3212 152.918 22.6197L153.814 23.6072L153.998 23.8368V24.0665C153.967 24.375 153.89 24.677 153.768 24.9621C153.671 25.2521 153.54 25.5295 153.378 25.7888C153.211 26.0664 152.984 26.3021 152.712 26.4777C152.567 26.5514 152.412 26.6055 152.253 26.6385C152.1 26.6621 151.945 26.6621 151.793 26.6385C152.049 26.567 152.27 26.4034 152.413 26.1792C152.542 25.9744 152.635 25.7492 152.689 25.5132C152.702 25.2684 152.702 25.0231 152.689 24.7784C152.7 24.6255 152.7 24.472 152.689 24.3191L151.564 23.102L151.081 22.6197L151.564 22.1604L152.781 21.0122C152.825 20.6223 152.744 20.2285 152.551 19.887C152.416 19.6602 152.227 19.4708 152 19.3358L151.564 19.0373ZM147.981 31.0705C148.63 34.6925 148.93 38.3682 148.877 42.0474C148.895 46.8953 148.387 51.7308 147.361 56.4689H141.39C140.908 52.8176 140.082 45.4232 140.082 40.5318C140.108 37.1551 140.315 33.7822 140.702 30.4275C142.837 30.7031 145.455 30.9098 147.935 31.0705H147.981ZM150.278 117.393V251.228H148.739C148.9 244.477 149.015 236.876 149.083 228.792C149.083 224.199 149.083 219.216 149.083 214.279V199.283C149.083 194.277 149.083 189.248 149.083 184.311C149.083 179.373 149.083 174.482 149.083 169.774C149.083 160.359 148.854 151.587 148.67 144.054C148.486 136.522 148.28 130.276 148.165 125.844L147.912 118.954L147.637 125.844C147.637 130.23 147.292 136.522 147.132 144.054C146.971 151.587 146.81 160.359 146.718 169.774C146.718 174.367 146.718 179.35 146.718 184.311C146.718 189.271 146.718 194.277 146.718 199.283C146.718 204.289 146.718 209.341 146.718 214.279C146.718 219.216 146.718 224.084 146.718 228.792C146.718 236.876 146.925 244.477 147.063 251.228H136.499V116.405C139.829 116.911 145.478 117.117 150.301 117.393H150.278ZM156.616 123.134C156.616 127.727 156.753 134.272 156.868 142.148C156.983 150.025 156.983 159.188 157.075 169.016C157.167 178.845 157.075 189.34 157.075 199.834C157.075 210.329 157.075 220.824 157.075 230.652C157.075 237.978 157.075 244.913 156.914 251.32H156.156C156.156 245.005 156.156 238.07 155.996 230.652C155.996 220.824 155.996 210.329 155.996 199.834C155.996 189.34 155.996 178.868 155.996 169.016C155.996 159.165 156.156 150.002 156.156 142.148C156.156 134.295 156.34 127.704 156.409 123.134C156.409 120.677 156.409 118.794 156.409 117.577C156.57 118.794 156.593 120.677 156.639 123.134H156.616ZM156.294 97.3911C156.294 99.2742 156.111 100.859 156.042 101.984C155.973 103.109 156.042 103.729 156.042 103.729C156.042 103.729 156.042 103.109 155.904 101.984C155.766 100.859 155.72 99.2971 155.674 97.3911C155.628 95.4851 155.49 93.2575 155.445 90.8922C155.399 88.5269 155.445 85.9779 155.445 83.4518C155.445 80.9258 155.445 78.3997 155.445 76.0114C155.445 74.8403 155.445 73.715 155.445 72.5898C155.526 71.5963 155.526 70.5979 155.445 69.6044C155.299 68.508 154.989 67.4397 154.526 66.4354H155.031C155.593 67.3662 155.975 68.3945 156.156 69.4667C156.334 70.498 156.419 71.5433 156.409 72.5898C156.409 73.6921 156.409 74.8862 156.409 76.0114C156.409 78.3079 156.409 80.9258 156.409 83.4518C156.409 85.9779 156.409 88.5269 156.409 90.8922C156.409 93.2575 156.386 95.4851 156.317 97.3911H156.294ZM133.606 254.213C133.994 253.85 134.482 253.611 135.006 253.525C135.604 253.525 135.994 253.525 136.522 253.525C137.532 253.525 138.566 253.525 139.668 253.525C141.965 253.525 144.261 253.525 146.557 253.525C148.854 253.525 151.15 253.525 153.447 253.525C154.526 253.525 155.582 253.525 156.593 253.525C157.098 253.525 157.534 253.525 158.085 253.525C158.618 253.606 159.114 253.846 159.509 254.213C159.802 254.473 160.033 254.796 160.183 255.158C160.334 255.519 160.4 255.91 160.378 256.301C160.356 256.692 160.246 257.073 160.056 257.416C159.865 257.758 159.6 258.053 159.28 258.278C158.941 258.517 158.544 258.66 158.131 258.691H157.718C158.242 258.651 158.737 258.432 159.119 258.071C159.541 257.695 159.797 257.167 159.831 256.602C159.852 256.257 159.789 255.913 159.65 255.597C159.51 255.281 159.296 255.004 159.027 254.788C158.731 254.551 158.371 254.408 157.994 254.374C157.626 254.374 157.075 254.374 156.593 254.374H153.447H151.426C151.59 254.941 151.668 255.529 151.655 256.12C151.677 256.91 151.52 257.695 151.196 258.416H135.121C134.716 258.38 134.328 258.238 133.996 258.003C133.448 257.615 133.07 257.031 132.94 256.372C132.881 255.985 132.91 255.59 133.025 255.217C133.141 254.843 133.339 254.5 133.606 254.213ZM158.866 267.992C160.045 270.464 161.83 272.597 164.056 274.192C165.531 275.215 167.064 276.151 168.649 276.994C169.202 277.303 169.738 277.64 170.256 278.004C170.256 278.004 169.705 277.637 168.626 277.063C167.044 276.265 165.511 275.376 164.033 274.399C161.698 272.842 159.807 270.706 158.545 268.199C157.813 266.743 157.273 265.2 156.937 263.606H157.58C157.832 265.072 158.248 266.504 158.82 267.877L158.866 267.992ZM175.217 281.656C175.719 282.014 176.109 282.508 176.342 283.079L176.503 283.585V284.021V284.917C176.674 286.057 177.168 287.125 177.926 287.994C178.315 288.43 178.764 288.809 179.258 289.119C179.717 289.396 180.223 289.583 180.751 289.67C181.182 289.668 181.598 289.823 181.922 290.107C182.187 290.369 182.384 290.692 182.496 291.048C182.669 291.598 182.761 292.171 182.772 292.747C182.769 293.515 182.723 294.282 182.634 295.044C182.634 295.618 182.496 295.939 182.496 295.939C182.496 295.939 182.496 295.618 182.359 295.044C182.277 294.272 182.154 293.506 181.991 292.747C181.91 292.266 181.771 291.795 181.578 291.347C181.498 291.157 181.372 290.992 181.21 290.864C181.027 290.75 181.027 290.864 180.682 290.75C179.956 290.717 179.247 290.512 178.615 290.152C177.989 289.792 177.423 289.334 176.939 288.798C176.459 288.252 176.071 287.631 175.791 286.96C175.53 286.324 175.374 285.649 175.332 284.963C175.332 284.641 175.332 284.342 175.332 284.044V283.608V283.286C175.198 282.853 174.962 282.459 174.643 282.138C174.105 281.619 173.463 281.22 172.76 280.967C172.474 280.853 172.183 280.753 171.887 280.668C172.193 280.643 172.5 280.643 172.805 280.668C173.655 280.754 174.469 281.054 175.171 281.541L175.217 281.656ZM136.178 262.297C138.841 262.733 143.205 263.032 147.43 263.238V264.938C147.8 269.311 148.911 273.59 150.714 277.591C151.219 278.67 151.518 279.221 151.518 279.221C151.518 279.221 151.265 278.647 150.852 277.545C150.282 275.952 149.806 274.326 149.428 272.677C148.808 270.135 148.477 267.531 148.44 264.915C148.44 264.387 148.44 263.835 148.44 263.284H150.301C150.716 268.936 152.379 274.426 155.169 279.359H161.415H166.697H168.718L166.72 279.658C165.457 279.796 163.643 280.048 161.461 280.232C159.28 280.416 156.708 280.622 153.975 280.737C151.242 280.852 148.303 280.921 145.386 280.921C142.47 280.921 139.53 280.921 136.798 280.691C134.065 280.462 131.493 280.37 129.311 280.14C127.589 279.979 126.096 279.796 124.925 279.635C123.754 279.474 122.629 279.359 121.549 279.221C124.007 275.731 134.111 275.111 136.132 262.182L136.178 262.297ZM119.942 281.013C132.793 282.669 145.77 283.122 158.705 282.368C160.109 283.729 160.932 285.58 161.002 287.535C161.016 288.821 161.39 290.078 162.081 291.163C163.689 291.163 165.204 291.163 166.674 290.956L176.25 290.451L173.632 290.864C171.979 291.094 169.59 291.438 166.743 291.714C163.895 291.99 160.543 292.311 156.937 292.495C153.332 292.678 149.497 292.747 145.662 292.77C141.827 292.793 137.969 292.587 134.363 292.403C130.758 292.219 127.474 291.852 124.558 291.553C121.641 291.255 119.322 290.864 117.668 290.635L114.821 290.084H114.959L113.236 289.877C114.392 289.417 115.382 288.619 116.075 287.586C116.767 286.552 117.131 285.334 117.117 284.09C117.159 283.325 117.455 282.595 117.959 282.017C118.462 281.439 119.144 281.045 119.896 280.898L119.942 281.013ZM92.4768 244.913C92.4857 244.534 92.5882 244.163 92.7753 243.834L93.3035 245.349H92.4997C92.4782 245.205 92.4705 245.059 92.4768 244.913ZM4.0417 251.09C4.0417 249.414 11.6888 249.23 31.5987 249.23H46.8929C46.3582 249.875 46.0729 250.69 46.0891 251.527C46.0913 251.565 46.0913 251.603 46.0891 251.642H43.6319C40.371 251.642 37.156 251.642 34.0329 251.642H17.0394C12.0562 251.642 7.85375 251.641 5.02916 251.343H4.15652L4.0417 251.09ZM11.6888 244.913C11.7111 245.088 11.7111 245.266 11.6888 245.441H10.8391L11.4362 243.949C11.5996 244.244 11.6864 244.575 11.6888 244.913ZM47.3751 251.435C47.376 251.108 47.4533 250.787 47.6009 250.496C47.7484 250.205 47.9621 249.952 48.2248 249.758V251.343C48.2248 251.343 48.2248 251.481 48.2248 251.55H47.444L47.3751 251.435ZM51.5546 251.55H50.7968V249.942C51.008 250.139 51.1762 250.377 51.2908 250.642C51.4054 250.907 51.464 251.192 51.4627 251.481C51.4627 251.481 51.5546 251.504 51.5546 251.55ZM4.79951 252.147C8.74936 253.033 12.7541 253.655 16.7868 254.007C19.2899 254.282 21.9997 254.512 24.8472 254.696C27.6948 254.879 30.7261 255.109 33.8492 255.224C36.9723 255.339 40.1873 255.522 43.4712 255.545L53.4147 255.706L63.3582 255.545C66.6421 255.545 69.88 255.339 72.9802 255.224C76.0803 255.109 79.1346 254.902 81.9821 254.696C84.8297 254.489 87.5624 254.259 90.0426 254.007C92.0175 253.8 93.8776 253.57 95.554 253.341C88.2724 257.973 80.0215 260.864 71.4416 261.792H69.6274H61.6588C58.972 261.792 56.1934 261.792 53.4147 261.792C50.636 261.792 47.8803 261.792 45.1705 261.792H37.202C34.63 261.792 32.1269 261.792 29.7616 261.562C27.3963 261.332 25.1687 261.309 23.1479 261.103C21.127 260.896 19.244 260.643 17.5906 260.368C16.1818 260.158 14.7863 259.866 13.4111 259.495C12.5207 259.228 11.653 258.89 10.8161 258.485L9.92053 258.026C5.16694 254.581 4.24837 253.593 4.06466 252.009L4.79951 252.147ZM102.811 251.251H101.915C99.0445 251.481 94.888 251.504 89.9277 251.527H72.9113C69.8111 251.527 66.5961 251.527 63.3122 251.527H52.8176V251.412C52.8226 250.611 52.537 249.836 52.0139 249.23H75.3225C95.1406 249.23 102.88 249.414 102.88 251.09L102.811 251.251ZM40.6466 245.212H31.4609C23.2627 245.212 17.2691 245.212 12.9059 245.395C12.9183 245.242 12.9183 245.089 12.9059 244.936C12.9027 244.034 12.5485 243.17 11.9184 242.525L54.4481 140.196L48.4774 245.212H40.6466ZM7.48632 244.913C7.48712 244.47 7.63042 244.038 7.89506 243.683C8.1597 243.327 8.53166 243.066 8.95603 242.938L8.336 244.408C8.26177 244.607 8.23556 244.821 8.2595 245.033C8.28344 245.244 8.35685 245.447 8.47378 245.625H7.64707C7.54642 245.401 7.49176 245.159 7.48632 244.913ZM96.6562 244.913C96.691 245.111 96.691 245.313 96.6562 245.51H95.8755C96.003 245.201 96.003 244.854 95.8755 244.546L95.3702 243.007C95.7441 243.169 96.0638 243.434 96.2916 243.772C96.5195 244.11 96.646 244.506 96.6562 244.913ZM92.2701 242.364C91.9134 242.687 91.6272 243.08 91.4296 243.519C91.232 243.957 91.1273 244.432 91.1219 244.913C91.1093 245.043 91.1093 245.174 91.1219 245.303C87.0802 245.303 81.9362 245.303 75.2766 245.303H51.1642L57.1808 139.439L92.2701 242.364ZM190.189 224.222C190.189 222.546 197.859 222.339 217.746 222.339H239.769C239.234 222.984 238.949 223.799 238.965 224.636C238.965 224.636 238.965 224.636 238.965 224.773H229.78C226.496 224.773 223.281 224.773 220.181 224.773H203.164C198.204 224.773 193.978 224.773 191.177 224.475H190.281L190.189 224.222ZM288.935 224.36H288.04C285.169 224.59 281.15 224.636 276.052 224.659H259.059C255.936 224.659 252.721 224.659 249.46 224.659H245.717C245.746 223.819 245.459 223 244.913 222.362H261.401C281.219 222.362 288.958 222.569 288.958 224.245L288.935 224.36ZM240.228 224.544C240.23 224.261 240.288 223.982 240.398 223.722C240.508 223.461 240.669 223.226 240.871 223.028V224.636H240.136L240.228 224.544ZM244.408 224.544H243.627C243.627 224.544 243.627 224.544 243.627 224.36V222.73C243.896 222.924 244.115 223.18 244.266 223.475C244.418 223.77 244.498 224.097 244.5 224.429C244.486 224.508 244.463 224.585 244.431 224.659L244.408 224.544ZM280.944 218.412H280.163C280.151 218.259 280.151 218.106 280.163 217.953C280.166 217.626 280.244 217.303 280.393 217.012L280.944 218.412ZM278.808 218.412C274.56 218.412 268.934 218.275 261.447 218.275H243.42L237.45 113.259L279.865 215.588C279.258 216.201 278.905 217.022 278.877 217.884C278.84 218.073 278.824 218.266 278.831 218.458L278.808 218.412ZM234.625 112.524L240.619 218.412H217.655C210.375 218.412 204.841 218.412 200.638 218.55C200.649 218.413 200.649 218.274 200.638 218.137C200.636 217.65 200.53 217.168 200.328 216.725C200.126 216.282 199.833 215.886 199.467 215.565L234.625 112.524ZM198.502 218.481L199.031 216.943C199.243 217.271 199.355 217.654 199.352 218.045C199.363 218.198 199.363 218.351 199.352 218.504H198.525L198.502 218.481ZM190.947 225.37C194.908 226.234 198.919 226.848 202.957 227.208C205.438 227.483 208.147 227.736 211.018 227.92C213.888 228.103 216.874 228.31 219.997 228.425C223.12 228.54 226.358 228.723 229.619 228.769L239.562 228.93L249.529 228.769C252.79 228.769 256.028 228.54 259.151 228.425C262.274 228.31 265.282 228.103 268.153 227.92C271.023 227.736 273.71 227.483 276.213 227.208C278.188 227.001 280.025 226.794 281.702 226.542C274.438 231.223 266.181 234.14 257.589 235.061H255.798H247.829C245.12 235.061 242.341 235.061 239.562 235.061C236.784 235.061 234.051 235.061 231.341 235.061H223.35L215.932 234.832C213.636 234.671 211.339 234.556 209.296 234.349C207.252 234.143 205.392 233.89 203.738 233.615C202.325 233.357 200.929 233.012 199.559 232.581C198.67 232.309 197.802 231.972 196.964 231.571L196.068 231.134C191.338 227.667 190.396 226.679 190.235 225.095L190.947 225.37ZM284.342 218.16C284.343 218.389 284.296 218.616 284.205 218.826H283.378C283.464 218.646 283.508 218.45 283.508 218.252C283.508 218.053 283.464 217.857 283.378 217.677L282.781 216.208C283.215 216.325 283.601 216.577 283.881 216.928C284.162 217.279 284.324 217.711 284.342 218.16ZM195.196 218.16C195.198 217.739 195.326 217.328 195.563 216.98C195.8 216.632 196.136 216.363 196.527 216.208L195.999 217.723C195.863 218.054 195.863 218.426 195.999 218.757H195.219C195.181 218.56 195.173 218.359 195.196 218.16Z" fill="#B69D74" fill-opacity="0.4"/>
</svg>
