<svg width="50" height="48" viewBox="0 0 50 48" fill="none" xmlns="http://www.w3.org/2000/svg">
<path d="M50 29.3952C50 27.8079 49.2822 26.3846 48.1528 25.4348C48.5396 24.7077 48.7562 23.8785 48.7531 22.9997C48.7531 20.147 46.4326 17.8234 43.5767 17.8234H32.4505C32.466 17.7924 32.4783 17.7584 32.4938 17.7275C32.6949 17.2974 32.9084 16.8766 33.1343 16.4311C33.62 15.4781 34.1213 14.488 34.5049 13.3803C35.8911 9.37041 35.8075 5.75655 34.2574 2.92549C34.2327 2.88526 34.2079 2.84195 34.1832 2.80172C34.1182 2.70271 34.047 2.60061 33.9666 2.49232C33.1467 1.38774 32.0452 0.580189 30.8663 0.221278C29.8855 -0.0788454 28.815 -0.072657 27.8496 0.233655C26.7976 0.570907 25.9251 1.22685 25.3342 2.1365C24.6009 3.26274 24.5823 4.40754 24.6225 5.39455C24.6566 6.2021 24.6225 6.91373 24.5266 7.57276C24.3131 9.02697 23.8707 10.2739 23.2147 11.2764C22.8465 11.8426 22.5712 12.2665 22.3979 12.5356C22.3113 12.6687 22.2494 12.7708 22.2061 12.8419C22.1999 12.8543 22.1906 12.8667 22.1844 12.8791C21.6646 13.566 20.9561 14.4292 20.0928 15.3141C18.8397 16.5981 17.0761 18.108 15.0619 18.9682V18.7825C15.0619 17.6903 14.1739 16.8023 13.0817 16.8023H1.9802C0.887995 16.8023 0 17.6903 0 18.7825V45.113C0 46.2052 0.887995 47.0932 1.9802 47.0932H13.0817C14.1739 47.0932 15.0619 46.2052 15.0619 45.113V44.1229C15.1578 44.1229 15.2475 44.1229 15.2908 44.1322C15.6219 44.2374 15.9777 44.4632 16.3892 44.7231C16.479 44.7819 16.5687 44.8376 16.6584 44.8933C17.401 45.3574 18.0941 45.707 18.7748 45.9608C20.4672 46.595 22.2184 46.8457 24.0099 47.0653C25.6683 47.2695 27.1875 47.3686 28.6231 47.3686C28.8861 47.3686 29.1491 47.3655 29.4121 47.3624C29.4307 47.3624 29.4493 47.3593 29.4709 47.3593H42.5031C45.3589 47.3593 47.6825 45.0387 47.6795 42.1829C47.6795 41.3754 47.4938 40.608 47.1597 39.9273C48.4158 38.9806 49.2265 37.4799 49.2265 35.7906C49.2265 34.7943 48.9449 33.8661 48.4561 33.074C49.409 32.1365 50 30.8339 50 29.3952ZM11.1015 43.1328H3.9604V20.7627H11.1015V21.363V21.7621V43.1328ZM42.5031 43.3989H29.3564C29.3131 43.3989 29.2698 43.402 29.2265 43.4051C27.7816 43.436 26.2314 43.3494 24.4957 43.1359C22.8899 42.941 21.4542 42.7367 20.164 42.2541C19.7277 42.0901 19.2791 41.8642 18.7562 41.5363C18.6726 41.4837 18.5922 41.4341 18.5118 41.3815C17.9424 41.0195 17.2958 40.6111 16.4666 40.3512C15.9468 40.1872 15.4641 40.1594 15.0619 40.1625V23.1668C16.3212 22.8079 17.5774 22.2324 18.8243 21.4527C20.2166 20.5802 21.5996 19.4478 22.9301 18.0802C23.9449 17.0375 24.7772 16.0226 25.3868 15.2151C25.3929 15.2058 25.3991 15.1996 25.4053 15.1903C25.4332 15.1563 25.461 15.1192 25.4951 15.0728C25.5291 15.0264 25.5724 14.9676 25.6281 14.8902C26.2098 14.0981 26.5347 13.5691 26.5625 13.5257C26.6522 13.3803 26.7203 13.2287 26.7698 13.0709C27.6114 11.6662 28.1745 10.014 28.4499 8.15445C28.586 7.24789 28.6293 6.29182 28.586 5.23675C28.5767 4.96447 28.5551 4.46014 28.6603 4.29925C28.88 3.96509 29.3564 3.90012 29.7153 4.0115C30.0866 4.12598 30.4827 4.43539 30.7983 4.85927C30.8106 4.87474 30.823 4.89021 30.8323 4.90568C32.0421 7.19838 31.4697 10.0728 30.7704 12.0901C30.4765 12.941 30.0588 13.7671 29.6132 14.6427C29.3843 15.0975 29.146 15.5678 28.9171 16.0567C28.3725 17.2231 28.0972 18.4855 28.0972 19.8067C28.0972 20.8989 28.9851 21.7869 30.0774 21.7869H43.5891C44.2605 21.7869 44.8051 22.3314 44.8051 23.0028C44.8051 23.6742 44.2605 24.2188 43.5891 24.2188H38.3416C37.2494 24.2188 36.3614 25.1068 36.3614 26.199C36.3614 27.2912 37.2494 28.1792 38.3416 28.1792H44.8236C45.495 28.1792 46.0396 28.7238 46.0396 29.3952C46.0396 30.0666 45.495 30.6111 44.8236 30.6111H44.0532H37.9239C36.8317 30.6111 35.9437 31.4991 35.9437 32.5913C35.9437 33.6835 36.8317 34.5715 37.9239 34.5715H43.9418C43.979 34.5746 44.0161 34.5746 44.0532 34.5746C44.7246 34.5746 45.2692 35.1192 45.2692 35.7906C45.2692 36.462 44.7246 37.0065 44.0532 37.0065H42.5031H37.0885C35.9963 37.0065 35.1083 37.8945 35.1083 38.9867C35.1083 40.0789 35.9963 40.9669 37.0885 40.9669H42.5031C43.1745 40.9669 43.7191 41.5115 43.7191 42.1829C43.7191 42.8543 43.1745 43.3989 42.5031 43.3989Z" fill="white"/>
</svg>
